<?xml version="1.0" encoding="utf-8"?>
<!DOCTYPE svg PUBLIC "-//W3C//DTD SVG 1.1//EN" "http://www.w3.org/Graphics/SVG/1.1/DTD/svg11.dtd">
<svg xmlns="http://www.w3.org/2000/svg" xmlns:xlink="http://www.w3.org/1999/xlink" version="1.1" baseProfile="full" width="334.667" height="205.333" viewBox="0 0 334.67 205.33" enable-background="new 0 0 334.67 205.33" xml:space="preserve">
	<path fill="#000000" fill-opacity="1" stroke-linejoin="round" d="M 11.2896,17.5932C 9.98107,18.1393 8.61001,18.4124 7.17641,18.4124C 4.86761,18.4124 3.09434,17.7226 1.85661,16.343C 0.618873,14.9634 6.21472e-006,12.9232 6.21472e-006,10.2224C 6.21472e-006,8.91383 0.170873,7.73018 0.512606,6.67139C 0.85434,5.61258 1.34194,4.71437 1.97541,3.97678C 2.60887,3.23917 3.37567,2.6703 4.27581,2.27017C 5.17594,1.87006 6.18441,1.66998 7.30121,1.66998C 8.05987,1.66998 8.76427,1.73505 9.41441,1.86517C 10.0645,1.99532 10.6896,2.19478 11.2896,2.46358L 11.2896,4.63959C 10.6973,4.31503 10.0842,4.0675 9.45021,3.89697C 8.81621,3.72644 8.12387,3.64117 7.37321,3.64117C 6.60574,3.64117 5.91121,3.78491 5.28961,4.07239C 4.66801,4.35983 4.14034,4.7765 3.70661,5.32239C 3.27287,5.86824 2.93921,6.53491 2.70561,7.32239C 2.47201,8.10983 2.35521,9.00771 2.35521,10.016C 2.35521,12.1325 2.78487,13.7282 3.64421,14.8032C 4.50354,15.8781 5.76321,16.4156 7.42321,16.4156C 8.12401,16.4156 8.79554,16.3346 9.43781,16.1726C 10.0801,16.0106 10.6973,15.7844 11.2896,15.494L 11.2896,17.5932 Z "/>
	<path fill="#000000" fill-opacity="1" stroke-linejoin="round" d="M 26.112,9.85999C 26.112,10.6429 26.0516,11.3926 25.9308,12.1092C 25.81,12.8257 25.6163,13.4922 25.3496,14.1086C 25.0829,14.725 24.7371,15.2852 24.312,15.7894C 23.8869,16.2935 23.3661,16.7246 22.7494,17.0828C 22.1327,17.4409 21.416,17.7179 20.5992,17.9138C 19.7824,18.1096 18.8529,18.2076 17.8108,18.2076L 14.3104,18.2076L 14.3104,1.87477L 18.5236,1.87477C 21.074,1.87477 22.9763,2.53084 24.2306,3.84297C 25.4849,5.15511 26.112,7.16078 26.112,9.85999 Z M 23.7824,10.022C 23.7824,8.86276 23.6739,7.88297 23.457,7.08258C 23.2401,6.28218 22.9105,5.63605 22.4684,5.14418C 22.0263,4.65231 21.4715,4.29591 20.8042,4.07497C 20.1369,3.85403 19.3528,3.74356 18.452,3.74356L 16.5376,3.74356L 16.5376,16.2876L 18.2016,16.2876C 21.9221,16.2876 23.7824,14.1991 23.7824,10.022 Z "/>
	<path fill="#000000" fill-opacity="1" stroke-linejoin="round" d="M 39.5264,13.786C 39.5264,14.5614 39.3679,15.2409 39.051,15.8244C 38.7341,16.4079 38.292,16.8934 37.7248,17.281C 37.1576,17.6686 36.4758,17.9583 35.6794,18.1502C 34.883,18.342 34.0051,18.438 33.0456,18.438C 32.612,18.438 32.1804,18.4213 31.7508,18.388C 31.3212,18.3546 30.9083,18.3129 30.512,18.2628C 30.1157,18.2126 29.7425,18.1542 29.3922,18.0874C 29.0419,18.0206 28.7251,17.9497 28.4416,17.8748L 28.4416,15.7244C 29.0669,15.9553 29.7694,16.1368 30.549,16.2688C 31.3286,16.4008 32.2145,16.4668 33.2068,16.4668C 33.9241,16.4668 34.535,16.4106 35.0394,16.2984C 35.5438,16.1861 35.9565,16.0199 36.2774,15.7998C 36.5983,15.5797 36.8318,15.3116 36.9778,14.9958C 37.1238,14.6799 37.1968,14.3184 37.1968,13.9112C 37.1968,13.4693 37.0739,13.0921 36.828,12.7796C 36.5821,12.467 36.2592,12.1878 35.8592,11.9418C 35.4592,11.6958 35.0029,11.4706 34.4904,11.2664C 33.9779,11.0621 33.4549,10.8516 32.9214,10.635C 32.3879,10.4183 31.865,10.1828 31.3526,9.92859C 30.8402,9.67432 30.384,9.37418 29.984,9.02817C 29.584,8.68219 29.2611,8.27577 29.0152,7.80898C 28.7693,7.34218 28.6464,6.78784 28.6464,6.14597C 28.6464,5.58731 28.7631,5.03705 28.9966,4.49518C 29.2301,3.95331 29.5927,3.47189 30.0846,3.05098C 30.5765,2.63004 31.2081,2.29037 31.9794,2.03198C 32.7507,1.77357 33.6701,1.64438 34.7376,1.64438C 35.0125,1.64438 35.3105,1.65683 35.6316,1.68178C 35.9527,1.7067 36.2779,1.74203 36.6072,1.78778C 36.9365,1.83351 37.2617,1.88544 37.5826,1.94357C 37.9035,2.00171 38.2016,2.0641 38.4768,2.13077L 38.4768,4.12758C 37.8352,3.94411 37.1935,3.80438 36.5518,3.70837C 35.9101,3.61238 35.2892,3.56436 34.6892,3.56436C 33.4137,3.56436 32.476,3.7775 31.876,4.20377C 31.276,4.63004 30.976,5.20236 30.976,5.92078C 30.976,6.36264 31.0989,6.74191 31.3448,7.05856C 31.5907,7.37524 31.9136,7.65865 32.3136,7.90877C 32.7136,8.15891 33.1699,8.38618 33.6824,8.59058C 34.1949,8.79498 34.7179,9.00551 35.2514,9.22218C 35.7849,9.43884 36.3079,9.67636 36.8204,9.93477C 37.3329,10.1932 37.7892,10.4995 38.1892,10.8538C 38.5892,11.208 38.9121,11.6228 39.1578,12.098C 39.4035,12.5732 39.5264,13.1358 39.5264,13.786 Z "/>
	<path fill="#000000" fill-opacity="1" stroke-linejoin="round" d="M 53.248,18.2076L 51.072,18.2076L 51.072,10.1912C 51.072,9.22397 50.8909,8.50064 50.5286,8.02118C 50.1663,7.5417 49.6479,7.30197 48.9732,7.30197C 48.6817,7.30197 48.4089,7.34157 48.1548,7.42078C 47.9007,7.49997 47.6362,7.63751 47.3614,7.83337C 47.0866,8.02925 46.7867,8.2939 46.4618,8.62738C 46.1369,8.96085 45.7621,9.3777 45.3376,9.87796L 45.3376,18.2076L 43.1616,18.2076L 43.1616,0.543579L 45.3376,0.543579L 45.3376,5.65756L 45.2624,7.63318C 45.604,7.22491 45.9393,6.88118 46.2684,6.60199C 46.5975,6.32277 46.9265,6.09572 47.2556,5.92078C 47.5847,5.74585 47.92,5.62085 48.2616,5.54578C 48.6032,5.47072 48.9572,5.43318 49.3236,5.43318C 50.5735,5.43318 51.54,5.81445 52.2232,6.57698C 52.9064,7.33951 53.248,8.4873 53.248,10.0204L 53.248,18.2076 Z "/>
	<path fill="#000000" fill-opacity="1" stroke-linejoin="round" d="M 65.3368,18.2076L 65.2872,16.5212C 64.6037,17.1974 63.9098,17.686 63.2054,17.9868C 62.501,18.2876 61.7611,18.438 60.9856,18.438C 60.2688,18.438 59.6561,18.3462 59.1476,18.1626C 58.6391,17.979 58.2202,17.7268 57.891,17.406C 57.5618,17.0852 57.3201,16.708 57.1658,16.2744C 57.0115,15.8408 56.9344,15.3698 56.9344,14.8616C 56.9344,13.6026 57.4034,12.6168 58.3414,11.904C 59.2794,11.1912 60.6655,10.8348 62.4996,10.8348L 65.1008,10.8348L 65.1008,9.73196C 65.1008,8.98878 64.8631,8.39371 64.3878,7.94678C 63.9125,7.49983 63.1871,7.27638 62.2116,7.27638C 61.5028,7.27638 60.8045,7.35632 60.1166,7.51617C 59.4287,7.67604 58.7179,7.90332 57.984,8.19797L 57.984,6.22678C 58.2589,6.12758 58.565,6.03052 58.9022,5.93558C 59.2394,5.84064 59.5953,5.75592 59.97,5.68137C 60.3447,5.60684 60.7361,5.54684 61.1442,5.50137C 61.5523,5.4559 61.9644,5.43318 62.3804,5.43318C 63.1383,5.43318 63.8212,5.51651 64.4292,5.68318C 65.0372,5.84985 65.5514,6.10403 65.9718,6.44577C 66.3922,6.78751 66.7148,7.21671 66.9396,7.73337C 67.1644,8.25003 67.2768,8.85825 67.2768,9.55798L 67.2768,18.2076L 65.3368,18.2076 Z M 65.1008,12.4988L 62.338,12.4988C 61.7967,12.4988 61.3302,12.5529 60.9386,12.661C 60.547,12.7691 60.2262,12.9231 59.9762,13.123C 59.7262,13.3228 59.5407,13.5623 59.4198,13.8414C 59.2989,14.1204 59.2384,14.4348 59.2384,14.7844C 59.2384,15.026 59.2759,15.2571 59.351,15.4778C 59.4261,15.6984 59.5469,15.8941 59.7136,16.0648C 59.8803,16.2354 60.0969,16.3707 60.3636,16.4706C 60.6303,16.5704 60.9552,16.6204 61.3384,16.6204C 61.8384,16.6204 62.4113,16.4684 63.057,16.1646C 63.7027,15.8607 64.384,15.3798 65.1008,14.722L 65.1008,12.4988 Z "/>
	<path fill="#000000" fill-opacity="1" stroke-linejoin="round" d="M 82.0992,11.7096C 82.0992,12.8264 81.9429,13.8016 81.6304,14.6352C 81.3179,15.4688 80.8866,16.1606 80.3366,16.7108C 79.7866,17.2609 79.1365,17.6735 78.3864,17.9486C 77.6363,18.2236 76.8237,18.3612 75.9488,18.3612C 75.5488,18.3612 75.1509,18.3401 74.755,18.298C 74.3591,18.2558 73.9571,18.184 73.5488,18.0824L 73.5488,23.3276L 71.3728,23.3276L 71.3728,5.66357L 73.3112,5.66357L 73.4488,7.76239C 74.0736,6.90237 74.7402,6.29916 75.4486,5.95277C 76.157,5.60638 76.9237,5.43318 77.7488,5.43318C 78.4656,5.43318 79.0949,5.58316 79.6366,5.88318C 80.1783,6.18318 80.6325,6.60617 80.9992,7.15218C 81.3659,7.69818 81.6409,8.3567 81.8242,9.12778C 82.0075,9.89883 82.0992,10.7594 82.0992,11.7096 Z M 79.872,11.8048C 79.872,11.1461 79.8241,10.5416 79.7282,9.99136C 79.6323,9.44112 79.4803,8.97011 79.2722,8.57838C 79.0641,8.18665 78.7975,7.88025 78.4724,7.65918C 78.1473,7.43811 77.76,7.32758 77.3104,7.32758C 77.0355,7.32758 76.7563,7.37137 76.473,7.45898C 76.1897,7.54659 75.8959,7.6925 75.5918,7.89679C 75.2877,8.10104 74.9669,8.37198 74.6296,8.70956C 74.2923,9.04718 73.932,9.46609 73.5488,9.96638L 73.5488,16.0568C 73.9488,16.2237 74.3695,16.3551 74.811,16.451C 75.2525,16.5468 75.6856,16.5948 76.1104,16.5948C 77.2851,16.5948 78.2057,16.1967 78.8722,15.4004C 79.5387,14.6041 79.872,13.4056 79.872,11.8048 Z "/>
	<path fill="#000000" fill-opacity="1" stroke-linejoin="round" d="M 96.0768,11.2656C 96.0768,11.5736 96.0727,11.8317 96.0644,12.04C 96.0561,12.2482 96.0436,12.4438 96.0268,12.6268L 87.2192,12.6268C 87.2192,13.9121 87.5777,14.899 88.2948,15.5876C 89.0119,16.2761 90.0457,16.6204 91.3964,16.6204C 91.7631,16.6204 92.1299,16.6058 92.4968,16.5766C 92.8637,16.5474 93.2181,16.5078 93.56,16.4578C 93.9019,16.4078 94.2291,16.3516 94.5418,16.2892C 94.8545,16.2268 95.1443,16.158 95.4112,16.0828L 95.4112,17.8748C 94.8189,18.0414 94.1496,18.177 93.4032,18.2814C 92.6568,18.3858 91.8833,18.438 91.0828,18.438C 90.0071,18.438 89.0814,18.2921 88.3058,18.0002C 87.5302,17.7083 86.8943,17.2852 86.3982,16.731C 85.9021,16.1767 85.5351,15.4973 85.2974,14.6928C 85.0597,13.8882 84.9408,12.9776 84.9408,11.9608C 84.9408,11.0768 85.0679,10.2409 85.3222,9.45319C 85.5765,8.66544 85.9473,7.97357 86.4346,7.37758C 86.9219,6.78157 87.5197,6.3085 88.2278,5.95837C 88.9359,5.60825 89.74,5.43318 90.64,5.43318C 91.5149,5.43318 92.2899,5.57057 92.9648,5.84537C 93.6397,6.12018 94.2084,6.50943 94.6708,7.01318C 95.1332,7.51691 95.4831,8.12885 95.7206,8.84897C 95.9581,9.56911 96.0768,10.3746 96.0768,11.2656 Z M 93.824,10.9628C 93.8491,10.4041 93.7949,9.89345 93.6614,9.43079C 93.5279,8.96811 93.3215,8.57004 93.0422,8.23657C 92.7629,7.90311 92.4147,7.64264 91.9978,7.45517C 91.5809,7.26772 91.0971,7.17397 90.5464,7.17397C 90.0712,7.17397 89.6377,7.26564 89.2458,7.44897C 88.8539,7.63229 88.5162,7.8907 88.2326,8.22418C 87.949,8.55763 87.7196,8.95778 87.5444,9.42458C 87.3692,9.89137 87.2608,10.4041 87.2192,10.9628L 93.824,10.9628 Z "/>
	<path fill="#000000" fill-opacity="1" stroke-linejoin="round" d="M 60.592,64.5608C 59.2834,65.1069 57.9124,65.38 56.4788,65.38C 54.17,65.38 52.3967,64.6902 51.159,63.3105C 49.9212,61.931 49.3024,59.8907 49.3024,57.19C 49.3024,55.8814 49.4732,54.6978 49.815,53.6389C 50.1567,52.5802 50.6443,51.6819 51.2778,50.9444C 51.9113,50.2068 52.6781,49.6379 53.5782,49.2378C 54.4783,48.8376 55.4868,48.6376 56.6036,48.6376C 57.3622,48.6376 58.0666,48.7026 58.7168,48.8328C 59.3669,48.9629 59.992,49.1624 60.592,49.4312L 60.592,51.6071C 59.9997,51.2826 59.3866,51.0351 58.7526,50.8646C 58.1186,50.694 57.4263,50.6088 56.6756,50.6088C 55.9081,50.6088 55.2136,50.7525 54.592,51.0399C 53.9704,51.3274 53.4427,51.7441 53.009,52.2899C 52.5752,52.8358 52.2416,53.5025 52.008,54.2899C 51.7744,55.0774 51.6576,55.9753 51.6576,56.9836C 51.6576,59.1001 52.0872,60.6958 52.9466,61.7708C 53.8059,62.8457 55.0656,63.3831 56.7256,63.3831C 57.4264,63.3831 58.0979,63.3022 58.7402,63.1402C 59.3824,62.9781 59.9997,62.752 60.592,62.4615L 60.592,64.5608 Z "/>
	<path fill="#000000" fill-opacity="1" stroke-linejoin="round" d="M 75.4144,56.8275C 75.4144,57.6105 75.354,58.3602 75.2332,59.0768C 75.1124,59.7933 74.9186,60.4597 74.652,61.0762C 74.3853,61.6926 74.0395,62.2528 73.6144,62.757C 73.1893,63.2611 72.6684,63.6922 72.0518,64.0504C 71.4351,64.4085 70.7184,64.6855 69.9016,64.8813C 69.0848,65.0772 68.1553,65.1752 67.1132,65.1752L 63.6128,65.1752L 63.6128,48.8423L 67.826,48.8423C 70.3764,48.8423 72.2787,49.4984 73.533,50.8105C 74.7872,52.1227 75.4144,54.1284 75.4144,56.8275 Z M 73.0848,56.9896C 73.0848,55.8304 72.9763,54.8506 72.7594,54.0502C 72.5424,53.2498 72.2129,52.6036 71.7708,52.1118C 71.3287,51.6199 70.7739,51.2635 70.1066,51.0426C 69.4392,50.8216 68.6552,50.7112 67.7544,50.7112L 65.84,50.7112L 65.84,63.2552L 67.504,63.2552C 71.2245,63.2552 73.0848,61.1666 73.0848,56.9896 Z "/>
	<path fill="#000000" fill-opacity="1" stroke-linejoin="round" d="M 88.9312,60.2896C 88.9312,61.0728 88.7809,61.7663 88.4804,62.3701C 88.1798,62.974 87.7516,63.4842 87.1958,63.9008C 86.6399,64.3173 85.9687,64.6338 85.1822,64.8504C 84.3957,65.0669 83.5207,65.1752 82.5572,65.1752L 78.3328,65.1752L 78.3328,48.8423L 82.9488,48.8423C 86.5445,48.8423 88.3424,50.1672 88.3424,52.8168C 88.3424,53.7 88.1347,54.4582 87.7192,55.0914C 87.3037,55.7245 86.627,56.1953 85.6892,56.5036C 86.1263,56.587 86.5408,56.7287 86.9328,56.9286C 87.3248,57.1284 87.6693,57.3866 87.9662,57.7032C 88.2631,58.0197 88.4982,58.3946 88.6714,58.8278C 88.8446,59.261 88.9312,59.7482 88.9312,60.2896 Z M 86.1152,53.1147C 86.1152,52.7809 86.0656,52.4658 85.9664,52.1696C 85.8672,51.8733 85.6936,51.6187 85.4456,51.4058C 85.1976,51.1928 84.8628,51.0238 84.4412,50.8988C 84.0196,50.7737 83.4864,50.7112 82.8416,50.7112L 80.56,50.7112L 80.56,55.8311L 82.7672,55.8311C 83.2714,55.8311 83.7282,55.7769 84.1374,55.6684C 84.5466,55.5598 84.8979,55.3929 85.1914,55.1676C 85.4849,54.9422 85.7122,54.6606 85.8734,54.3228C 86.0346,53.9849 86.1152,53.5822 86.1152,53.1147 Z M 86.704,60.3656C 86.704,59.9482 86.6164,59.5726 86.4412,59.2388C 86.266,58.9049 86.0115,58.6232 85.6778,58.3938C 85.344,58.1643 84.9374,57.987 84.4578,57.862C 83.9782,57.7369 83.4381,57.6743 82.8376,57.6743L 80.56,57.6743L 80.56,63.3064L 82.9124,63.3064C 84.1887,63.3064 85.1396,63.0686 85.7654,62.593C 86.3911,62.1174 86.704,61.3749 86.704,60.3656 Z "/>
	<path fill="#000000" fill-opacity="1" stroke-linejoin="round" d="M 103.395,58.8028C 103.395,59.7785 103.258,60.6727 102.983,61.4854C 102.708,62.298 102.312,62.994 101.795,63.5734C 101.278,64.1527 100.649,64.6029 99.9074,64.924C 99.1656,65.245 98.3239,65.4055 97.382,65.4055C 96.482,65.4055 95.6757,65.2659 94.9632,64.9866C 94.2506,64.7072 93.6465,64.2966 93.1506,63.7548C 92.6547,63.2129 92.2755,62.5418 92.013,61.7415C 91.7505,60.9413 91.6192,60.0202 91.6192,58.9784C 91.6192,58.0029 91.7567,57.1129 92.0318,56.3083C 92.3069,55.5038 92.7027,54.812 93.2194,54.2328C 93.7361,53.6536 94.3653,53.2034 95.107,52.8824C 95.8487,52.5613 96.6904,52.4008 97.632,52.4008C 98.532,52.4008 99.3383,52.5404 100.051,52.8198C 100.764,53.0991 101.368,53.5076 101.864,54.0452C 102.36,54.5828 102.739,55.2517 103.001,56.052C 103.264,56.8522 103.395,57.7692 103.395,58.8028 Z M 101.168,58.8968C 101.168,58.1213 101.083,57.4438 100.912,56.8643C 100.741,56.2849 100.498,55.8013 100.181,55.4136C 99.8647,55.0258 99.4794,54.7339 99.0254,54.538C 98.5714,54.3419 98.0653,54.244 97.5072,54.244C 96.8573,54.244 96.3013,54.3712 95.8392,54.6255C 95.3771,54.88 94.9981,55.2198 94.7024,55.645C 94.4066,56.0702 94.1901,56.5642 94.0526,57.1272C 93.9151,57.6901 93.8464,58.28 93.8464,58.8968C 93.8464,59.6725 93.9317,60.3522 94.1024,60.9358C 94.273,61.5193 94.5167,62.005 94.8332,62.3928C 95.1497,62.7805 95.5329,63.0724 95.9828,63.2684C 96.4326,63.4644 96.9408,63.5623 97.5072,63.5623C 98.1568,63.5623 98.7127,63.4352 99.175,63.1808C 99.6372,62.9264 100.016,62.5865 100.312,62.1613C 100.608,61.7362 100.824,61.2421 100.962,60.6792C 101.099,60.1162 101.168,59.5221 101.168,58.8968 Z "/>
	<path fill="#000000" fill-opacity="1" stroke-linejoin="round" d="M 117.885,65.1752L 114.998,65.1752L 111.619,60.388L 108.256,65.1752L 105.443,65.1752L 110.306,58.8719L 105.674,52.6312L 108.461,52.6312L 111.75,57.4496L 114.993,52.6312L 117.68,52.6312L 112.961,58.9124L 117.885,65.1752 Z "/>
	<path fill="#000000" fill-opacity="1" stroke-linejoin="round" d="M 60.5316,99.4155C 59.223,99.9616 57.852,100.235 56.4184,100.235C 54.1096,100.235 52.3363,99.5449 51.0986,98.1653C 49.8608,96.7857 49.242,94.7455 49.242,92.0447C 49.242,90.7362 49.4128,89.5525 49.7546,88.4937C 50.0963,87.4349 50.5839,86.5367 51.2174,85.7991C 51.8508,85.0615 52.6176,84.4926 53.5178,84.0925C 54.4179,83.6924 55.4264,83.4923 56.5432,83.4923C 57.3018,83.4923 58.0062,83.5574 58.6564,83.6875C 59.3065,83.8176 59.9316,84.0171 60.5316,84.2859L 60.5316,86.4619C 59.9393,86.1374 59.3262,85.8898 58.6922,85.7193C 58.0582,85.5488 57.3658,85.4635 56.6152,85.4635C 55.8477,85.4635 55.1532,85.6072 54.5316,85.8947C 53.91,86.1822 53.3823,86.5988 52.9486,87.1447C 52.5148,87.6906 52.1812,88.3572 51.9476,89.1447C 51.714,89.9322 51.5972,90.83 51.5972,91.8383C 51.5972,93.9548 52.0268,95.5506 52.8862,96.6255C 53.7455,97.7004 55.0052,98.2379 56.6652,98.2379C 57.366,98.2379 58.0375,98.1569 58.6798,97.9949C 59.322,97.8329 59.9393,97.6067 60.5316,97.3163L 60.5316,99.4155 Z "/>
	<path fill="#000000" fill-opacity="1" stroke-linejoin="round" d="M 75.354,91.6823C 75.354,92.4652 75.2936,93.215 75.1728,93.9315C 75.052,94.648 74.8582,95.3145 74.5916,95.9309C 74.3249,96.5473 73.979,97.1076 73.554,97.6117C 73.1289,98.1159 72.608,98.547 71.9914,98.9051C 71.3747,99.2633 70.658,99.5402 69.8412,99.7361C 69.0244,99.932 68.0949,100.03 67.0528,100.03L 63.5524,100.03L 63.5524,83.6971L 67.7656,83.6971C 70.316,83.6971 72.2183,84.3532 73.4726,85.6653C 74.7268,86.9774 75.354,88.9831 75.354,91.6823 Z M 73.0244,91.8443C 73.0244,90.6851 72.9159,89.7053 72.699,88.9049C 72.482,88.1045 72.1525,87.4584 71.7104,86.9665C 71.2682,86.4746 70.7135,86.1182 70.0462,85.8973C 69.3788,85.6764 68.5948,85.5659 67.694,85.5659L 65.7796,85.5659L 65.7796,98.1099L 67.4436,98.1099C 71.1641,98.1099 73.0244,96.0214 73.0244,91.8443 Z "/>
	<path fill="#000000" fill-opacity="1" stroke-linejoin="round" d="M 88.7684,95.6083C 88.7684,96.3838 88.6099,97.0632 88.293,97.6467C 87.976,98.2302 87.534,98.7157 86.9668,99.1033C 86.3996,99.4909 85.7178,99.7806 84.9214,99.9725C 84.125,100.164 83.247,100.26 82.2876,100.26C 81.854,100.26 81.4224,100.244 80.9928,100.21C 80.5632,100.177 80.1502,100.135 79.754,100.085C 79.3577,100.035 78.9844,99.9765 78.6342,99.9097C 78.2839,99.8429 77.967,99.772 77.6836,99.6971L 77.6836,97.5467C 78.3089,97.7776 79.0114,97.9591 79.791,98.0911C 80.5706,98.2231 81.4565,98.2891 82.4488,98.2891C 83.1661,98.2891 83.777,98.233 84.2814,98.1207C 84.7858,98.0084 85.1984,97.8422 85.5194,97.6221C 85.8403,97.402 86.0738,97.134 86.2198,96.8181C 86.3658,96.5022 86.4388,96.1407 86.4388,95.7335C 86.4388,95.2916 86.3158,94.9144 86.07,94.6019C 85.8241,94.2894 85.5012,94.0101 85.1012,93.7641C 84.7012,93.5181 84.2449,93.293 83.7324,93.0887C 83.2198,92.8844 82.6968,92.674 82.1634,92.4573C 81.6299,92.2406 81.107,92.0052 80.5946,91.7509C 80.0822,91.4967 79.626,91.1965 79.226,90.8505C 78.826,90.5045 78.503,90.0981 78.2572,89.6313C 78.0113,89.1645 77.8884,88.6102 77.8884,87.9683C 77.8884,87.4096 78.0051,86.8594 78.2386,86.3175C 78.472,85.7757 78.8347,85.2942 79.3266,84.8733C 79.8184,84.4524 80.45,84.1127 81.2214,83.8543C 81.9927,83.5959 82.9121,83.4667 83.9796,83.4667C 84.2545,83.4667 84.5525,83.4792 84.8736,83.5041C 85.1946,83.529 85.5198,83.5644 85.8492,83.6101C 86.1785,83.6558 86.5036,83.7078 86.8246,83.7659C 87.1455,83.824 87.4436,83.8865 87.7188,83.9531L 87.7188,85.9499C 87.0772,85.7664 86.4355,85.6267 85.7938,85.5307C 85.152,85.4347 84.5312,85.3867 83.9312,85.3867C 82.6557,85.3867 81.718,85.5998 81.118,86.0261C 80.518,86.4524 80.218,87.0247 80.218,87.7431C 80.218,88.185 80.3409,88.5642 80.5868,88.8809C 80.8326,89.1976 81.1556,89.481 81.5556,89.7311C 81.9556,89.9812 82.4118,90.2085 82.9244,90.4129C 83.4369,90.6173 83.9599,90.8278 84.4934,91.0445C 85.0268,91.2612 85.5498,91.4987 86.0624,91.7571C 86.5749,92.0155 87.0312,92.3218 87.4312,92.6761C 87.8312,93.0304 88.154,93.4451 88.3998,93.9203C 88.6455,94.3955 88.7684,94.9582 88.7684,95.6083 Z "/>
	<path fill="#000000" fill-opacity="1" stroke-linejoin="round" d="M 103.13,93.5319C 103.13,94.6487 102.974,95.6239 102.661,96.4575C 102.349,97.2911 101.917,97.983 101.367,98.5331C 100.817,99.0832 100.167,99.4958 99.4172,99.7709C 98.667,100.046 97.8545,100.184 96.9796,100.184C 96.5796,100.184 96.1816,100.162 95.7858,100.12C 95.3899,100.078 94.9878,100.006 94.5796,99.9047L 94.5796,105.15L 92.4036,105.15L 92.4036,87.4859L 94.342,87.4859L 94.4796,89.5847C 95.1044,88.7247 95.771,88.1215 96.4794,87.7751C 97.1878,87.4287 97.9545,87.2555 98.7796,87.2555C 99.4964,87.2555 100.126,87.4055 100.667,87.7055C 101.209,88.0055 101.663,88.4285 102.03,88.9745C 102.397,89.5205 102.672,90.179 102.855,90.9501C 103.038,91.7212 103.13,92.5818 103.13,93.5319 Z M 100.903,93.6271C 100.903,92.9685 100.855,92.364 100.759,91.8137C 100.663,91.2634 100.511,90.7924 100.303,90.4007C 100.095,90.009 99.8282,89.7026 99.5032,89.4815C 99.1781,89.2604 98.7908,89.1499 98.3412,89.1499C 98.0662,89.1499 97.7871,89.1937 97.5038,89.2813C 97.2204,89.3689 96.9267,89.5148 96.6226,89.7191C 96.3184,89.9234 95.9977,90.1943 95.6604,90.5319C 95.323,90.8695 94.9628,91.2884 94.5796,91.7887L 94.5796,97.8791C 94.9796,98.046 95.4003,98.1774 95.8418,98.2733C 96.2832,98.3692 96.7164,98.4171 97.1412,98.4171C 98.3158,98.4171 99.2364,98.019 99.903,97.2227C 100.569,96.4264 100.903,95.2279 100.903,93.6271 Z "/>
	<path fill="#000000" fill-opacity="1" stroke-linejoin="round" d="M 116.596,100.03L 114.42,100.03L 114.42,92.0135C 114.42,91.0463 114.238,90.323 113.876,89.8435C 113.514,89.3641 112.995,89.1243 112.321,89.1243C 112.029,89.1243 111.757,89.1639 111.502,89.2431C 111.248,89.3223 110.984,89.4598 110.709,89.6557C 110.434,89.8516 110.134,90.1162 109.809,90.4497C 109.484,90.7832 109.11,91.2001 108.685,91.7003L 108.685,100.03L 106.509,100.03L 106.509,82.3659L 108.685,82.3659L 108.685,87.4799L 108.61,89.4555C 108.952,89.0472 109.287,88.7035 109.616,88.4243C 109.945,88.1451 110.274,87.918 110.603,87.7431C 110.932,87.5682 111.268,87.4432 111.609,87.3681C 111.951,87.293 112.305,87.2555 112.671,87.2555C 113.921,87.2555 114.888,87.6368 115.571,88.3993C 116.254,89.1618 116.596,90.3096 116.596,91.8427L 116.596,100.03 Z "/>
	<path fill="#000000" fill-opacity="1" stroke-linejoin="round" d="M 131.213,93.0879C 131.213,93.3959 131.209,93.654 131.201,93.8623C 131.193,94.0706 131.18,94.2662 131.163,94.4491L 122.356,94.4491C 122.356,95.7344 122.714,96.7214 123.431,97.4099C 124.148,98.0984 125.182,98.4427 126.533,98.4427C 126.899,98.4427 127.266,98.4281 127.633,98.3989C 128,98.3697 128.355,98.3301 128.696,98.2801C 129.038,98.2301 129.366,98.1739 129.678,98.1115C 129.991,98.0491 130.281,97.9803 130.548,97.9051L 130.548,99.6971C 129.955,99.8638 129.286,99.9993 128.54,100.104C 127.793,100.208 127.02,100.26 126.219,100.26C 125.143,100.26 124.218,100.114 123.442,99.8225C 122.667,99.5306 122.031,99.1076 121.535,98.5533C 121.038,97.999 120.672,97.3196 120.434,96.5151C 120.196,95.7106 120.077,94.7999 120.077,93.7831C 120.077,92.8991 120.204,92.0632 120.459,91.2755C 120.713,90.4878 121.084,89.7959 121.571,89.1999C 122.058,88.6039 122.656,88.1308 123.364,87.7807C 124.072,87.4306 124.876,87.2555 125.776,87.2555C 126.651,87.2555 127.426,87.3929 128.101,87.6677C 128.776,87.9425 129.345,88.3318 129.807,88.8355C 130.27,89.3392 130.62,89.9512 130.857,90.6713C 131.094,91.3914 131.213,92.197 131.213,93.0879 Z M 128.96,92.7851C 128.985,92.2264 128.931,91.7158 128.798,91.2531C 128.664,90.7904 128.458,90.3924 128.179,90.0589C 127.899,89.7254 127.551,89.465 127.134,89.2775C 126.717,89.09 126.233,88.9963 125.683,88.9963C 125.208,88.9963 124.774,89.088 124.382,89.2713C 123.99,89.4546 123.653,89.7131 123.369,90.0465C 123.085,90.38 122.856,90.7801 122.681,91.2469C 122.506,91.7137 122.397,92.2264 122.356,92.7851L 128.96,92.7851 Z "/>
	<path fill="#000000" fill-opacity="1" stroke-linejoin="round" d="M 135.232,87.4859L 137.222,87.4859L 137.284,89.7983C 138.026,88.9047 138.758,88.2575 139.479,87.8567C 140.2,87.4559 140.927,87.2555 141.66,87.2555C 142.961,87.2555 143.947,87.6768 144.618,88.5193C 145.288,89.3618 145.599,90.6131 145.549,92.2731L 143.348,92.2731C 143.372,91.1691 143.212,90.3683 142.866,89.8707C 142.52,89.3731 142.014,89.1243 141.347,89.1243C 141.055,89.1243 140.762,89.1766 140.466,89.2811C 140.17,89.3856 139.866,89.553 139.553,89.7831C 139.241,90.0133 138.909,90.3081 138.559,90.6677C 138.209,91.0273 137.834,91.4624 137.434,91.9731L 137.434,100.03L 135.232,100.03L 135.232,87.4859 Z "/>
	<path fill="#000000" fill-opacity="1" stroke-linejoin="round" d="M 159.424,93.0879C 159.424,93.3959 159.42,93.654 159.412,93.8623C 159.404,94.0706 159.391,94.2662 159.374,94.4491L 150.567,94.4491C 150.567,95.7344 150.925,96.7214 151.642,97.4099C 152.359,98.0984 153.393,98.4427 154.744,98.4427C 155.111,98.4427 155.477,98.4281 155.844,98.3989C 156.211,98.3697 156.566,98.3301 156.908,98.2801C 157.249,98.2301 157.577,98.1739 157.889,98.1115C 158.202,98.0491 158.492,97.9803 158.759,97.9051L 158.759,99.6971C 158.167,99.8638 157.497,99.9993 156.751,100.104C 156.004,100.208 155.231,100.26 154.43,100.26C 153.355,100.26 152.429,100.114 151.653,99.8225C 150.878,99.5306 150.242,99.1076 149.746,98.5533C 149.25,97.999 148.883,97.3196 148.645,96.5151C 148.407,95.7106 148.288,94.7999 148.288,93.7831C 148.288,92.8991 148.416,92.0632 148.67,91.2755C 148.924,90.4878 149.295,89.7959 149.782,89.1999C 150.27,88.6039 150.867,88.1308 151.575,87.7807C 152.284,87.4306 153.088,87.2555 153.988,87.2555C 154.863,87.2555 155.637,87.3929 156.312,87.6677C 156.987,87.9425 157.556,88.3318 158.018,88.8355C 158.481,89.3392 158.831,89.9512 159.068,90.6713C 159.306,91.3914 159.424,92.197 159.424,93.0879 Z M 157.172,92.7851C 157.197,92.2264 157.142,91.7158 157.009,91.2531C 156.876,90.7904 156.669,90.3924 156.39,90.0589C 156.11,89.7254 155.762,89.465 155.345,89.2775C 154.928,89.09 154.445,88.9963 153.894,88.9963C 153.419,88.9963 152.985,89.088 152.593,89.2713C 152.202,89.4546 151.864,89.7131 151.58,90.0465C 151.297,90.38 151.067,90.7801 150.892,91.2469C 150.717,91.7137 150.608,92.2264 150.567,92.7851L 157.172,92.7851 Z "/>
	<path fill="#000000" fill-opacity="1" stroke-linejoin="round" d="M 60.5628,134.497C 59.2543,135.043 57.8832,135.317 56.4496,135.317C 54.1408,135.317 52.3675,134.627 51.1298,133.247C 49.8921,131.868 49.2732,129.827 49.2732,127.127C 49.2732,125.818 49.4441,124.634 49.7858,123.576C 50.1275,122.517 50.6151,121.619 51.2486,120.881C 51.8821,120.143 52.6489,119.574 53.549,119.174C 54.4491,118.774 55.4576,118.574 56.5744,118.574C 57.3331,118.574 58.0375,118.639 58.6876,118.769C 59.3377,118.899 59.9628,119.099 60.5628,119.368L 60.5628,121.544C 59.9705,121.219 59.3574,120.972 58.7234,120.801C 58.0894,120.631 57.3971,120.545 56.6464,120.545C 55.8789,120.545 55.1844,120.689 54.5628,120.977C 53.9412,121.264 53.4135,121.681 52.9798,122.227C 52.5461,122.772 52.2124,123.439 51.9788,124.227C 51.7452,125.014 51.6284,125.912 51.6284,126.92C 51.6284,129.037 52.0581,130.632 52.9174,131.707C 53.7767,132.782 55.0364,133.32 56.6964,133.32C 57.3972,133.32 58.0687,133.239 58.711,133.077C 59.3533,132.915 59.9705,132.689 60.5628,132.398L 60.5628,134.497 Z "/>
	<path fill="#000000" fill-opacity="1" stroke-linejoin="round" d="M 75.3852,126.764C 75.3852,127.547 75.3248,128.297 75.204,129.013C 75.0832,129.73 74.8895,130.396 74.6228,131.013C 74.3561,131.629 74.0103,132.189 73.5852,132.694C 73.1601,133.198 72.6393,133.629 72.0226,133.987C 71.4059,134.345 70.6892,134.622 69.8724,134.818C 69.0556,135.014 68.1261,135.112 67.084,135.112L 63.5836,135.112L 63.5836,118.779L 67.7968,118.779C 70.3472,118.779 72.2495,119.435 73.5038,120.747C 74.7581,122.059 75.3852,124.065 75.3852,126.764 Z M 73.0556,126.926C 73.0556,125.767 72.9471,124.787 72.7302,123.987C 72.5133,123.186 72.1837,122.54 71.7416,122.048C 71.2995,121.556 70.7447,121.2 70.0774,120.979C 69.4101,120.758 68.626,120.648 67.7252,120.648L 65.8108,120.648L 65.8108,133.192L 67.4748,133.192C 71.1953,133.192 73.0556,131.103 73.0556,126.926 Z "/>
	<path fill="#000000" fill-opacity="1" stroke-linejoin="round" d="M 88.774,134.497C 87.4655,135.043 86.0944,135.317 84.6608,135.317C 82.352,135.317 80.5787,134.627 79.341,133.247C 78.1033,131.868 77.4844,129.827 77.4844,127.127C 77.4844,125.818 77.6553,124.634 77.997,123.576C 78.3387,122.517 78.8263,121.619 79.4598,120.881C 80.0933,120.143 80.8601,119.574 81.7602,119.174C 82.6603,118.774 83.6688,118.574 84.7856,118.574C 85.5443,118.574 86.2487,118.639 86.8988,118.769C 87.549,118.899 88.174,119.099 88.774,119.368L 88.774,121.544C 88.1817,121.219 87.5686,120.972 86.9346,120.801C 86.3006,120.631 85.6083,120.545 84.8576,120.545C 84.0901,120.545 83.3956,120.689 82.774,120.977C 82.1524,121.264 81.6247,121.681 81.191,122.227C 80.7573,122.772 80.4236,123.439 80.19,124.227C 79.9564,125.014 79.8396,125.912 79.8396,126.92C 79.8396,129.037 80.2693,130.632 81.1286,131.707C 81.9879,132.782 83.2476,133.32 84.9076,133.32C 85.6084,133.32 86.2799,133.239 86.9222,133.077C 87.5645,132.915 88.1817,132.689 88.774,132.398L 88.774,134.497 Z "/>
	<path fill="#000000" fill-opacity="1" stroke-linejoin="round" d="M 100.504,135.112L 100.455,133.425C 99.7714,134.102 99.0774,134.59 98.373,134.891C 97.6686,135.192 96.9287,135.342 96.1532,135.342C 95.4364,135.342 94.8238,135.25 94.3152,135.067C 93.8067,134.883 93.3878,134.631 93.0586,134.31C 92.7294,133.989 92.4877,133.612 92.3334,133.179C 92.1791,132.745 92.102,132.274 92.102,131.766C 92.102,130.507 92.571,129.521 93.509,128.808C 94.447,128.095 95.8331,127.739 97.6672,127.739L 100.268,127.739L 100.268,126.636C 100.268,125.893 100.031,125.298 99.5554,124.851C 99.0801,124.404 98.3547,124.181 97.3792,124.181C 96.6704,124.181 95.9721,124.26 95.2842,124.42C 94.5964,124.58 93.8855,124.807 93.1516,125.102L 93.1516,123.131C 93.4266,123.032 93.7326,122.935 94.0698,122.84C 94.407,122.745 94.7629,122.66 95.1376,122.586C 95.5123,122.511 95.9037,122.451 96.3118,122.406C 96.7199,122.36 97.132,122.337 97.548,122.337C 98.3059,122.337 98.9888,122.421 99.5968,122.587C 100.205,122.754 100.719,123.008 101.139,123.35C 101.56,123.692 101.882,124.121 102.107,124.638C 102.332,125.154 102.444,125.762 102.444,126.462L 102.444,135.112L 100.504,135.112 Z M 100.268,129.403L 97.5056,129.403C 96.9643,129.403 96.4978,129.457 96.1062,129.565C 95.7146,129.673 95.3938,129.827 95.1438,130.027C 94.8938,130.227 94.7084,130.466 94.5874,130.746C 94.4665,131.025 94.406,131.339 94.406,131.689C 94.406,131.93 94.4436,132.161 94.5186,132.382C 94.5937,132.603 94.7145,132.798 94.8812,132.969C 95.0479,133.14 95.2646,133.275 95.5312,133.375C 95.7979,133.475 96.1228,133.525 96.506,133.525C 97.006,133.525 97.5789,133.373 98.2246,133.069C 98.8704,132.765 99.5516,132.284 100.268,131.626L 100.268,129.403 Z "/>
	<path fill="#000000" fill-opacity="1" stroke-linejoin="round" d="M 117.267,128.614C 117.267,129.731 117.111,130.706 116.798,131.539C 116.485,132.373 116.054,133.065 115.504,133.615C 114.954,134.165 114.304,134.578 113.554,134.853C 112.804,135.128 111.991,135.265 111.116,135.265C 110.716,135.265 110.318,135.244 109.923,135.202C 109.527,135.16 109.125,135.088 108.716,134.987L 108.716,140.232L 106.54,140.232L 106.54,122.568L 108.479,122.568L 108.616,124.667C 109.241,123.807 109.908,123.203 110.616,122.857C 111.325,122.511 112.091,122.337 112.916,122.337C 113.633,122.337 114.262,122.487 114.804,122.787C 115.346,123.087 115.8,123.51 116.167,124.056C 116.533,124.602 116.808,125.261 116.992,126.032C 117.175,126.803 117.267,127.664 117.267,128.614 Z M 115.04,128.709C 115.04,128.05 114.992,127.446 114.896,126.896C 114.8,126.345 114.648,125.874 114.44,125.483C 114.232,125.091 113.965,124.784 113.64,124.563C 113.315,124.342 112.928,124.232 112.478,124.232C 112.203,124.232 111.924,124.276 111.641,124.363C 111.357,124.451 111.064,124.597 110.759,124.801C 110.455,125.005 110.135,125.276 109.797,125.614C 109.46,125.951 109.1,126.37 108.716,126.871L 108.716,132.961C 109.116,133.128 109.537,133.259 109.979,133.355C 110.42,133.451 110.853,133.499 111.278,133.499C 112.453,133.499 113.373,133.101 114.04,132.305C 114.706,131.508 115.04,130.31 115.04,128.709 Z "/>
	<path fill="#000000" fill-opacity="1" stroke-linejoin="round" d="M 130.604,131.691C 130.604,132.133 130.529,132.529 130.379,132.879C 130.229,133.229 130.024,133.539 129.765,133.81C 129.507,134.081 129.206,134.312 128.864,134.504C 128.522,134.696 128.157,134.854 127.769,134.979C 127.381,135.104 126.982,135.196 126.573,135.255C 126.164,135.313 125.764,135.342 125.372,135.342C 124.52,135.342 123.738,135.304 123.024,135.227C 122.311,135.15 121.612,135.026 120.928,134.856L 120.928,132.859C 121.662,133.068 122.392,133.227 123.118,133.336C 123.845,133.445 124.567,133.499 125.284,133.499C 126.328,133.499 127.1,133.358 127.6,133.075C 128.101,132.793 128.352,132.389 128.352,131.866C 128.352,131.641 128.312,131.438 128.232,131.259C 128.153,131.08 128.009,130.909 127.8,130.747C 127.591,130.584 127.267,130.415 126.829,130.24C 126.39,130.065 125.79,129.865 125.03,129.64C 124.462,129.473 123.937,129.283 123.457,129.071C 122.976,128.858 122.56,128.606 122.209,128.315C 121.858,128.023 121.583,127.681 121.382,127.289C 121.181,126.898 121.081,126.435 121.081,125.901C 121.081,125.551 121.163,125.168 121.326,124.751C 121.489,124.334 121.767,123.947 122.16,123.588C 122.553,123.23 123.084,122.932 123.753,122.694C 124.422,122.456 125.258,122.337 126.261,122.337C 126.754,122.337 127.302,122.364 127.904,122.418C 128.506,122.471 129.133,122.564 129.785,122.696L 129.785,124.641C 129.099,124.475 128.448,124.352 127.833,124.273C 127.218,124.194 126.685,124.155 126.233,124.155C 125.689,124.155 125.231,124.197 124.859,124.28C 124.486,124.363 124.185,124.477 123.955,124.623C 123.725,124.768 123.559,124.938 123.459,125.134C 123.359,125.329 123.308,125.539 123.308,125.764C 123.308,125.989 123.352,126.193 123.44,126.377C 123.528,126.56 123.691,126.737 123.929,126.908C 124.167,127.079 124.499,127.25 124.926,127.421C 125.352,127.591 125.907,127.777 126.593,127.977C 127.337,128.194 127.963,128.421 128.473,128.659C 128.983,128.896 129.397,129.161 129.714,129.452C 130.032,129.744 130.26,130.073 130.398,130.44C 130.535,130.807 130.604,131.224 130.604,131.691 Z "/>
	<path fill="#000000" fill-opacity="1" stroke-linejoin="round" d="M 144.838,135.112L 142.887,135.112L 142.812,133.087C 142.437,133.521 142.081,133.883 141.744,134.171C 141.406,134.459 141.071,134.691 140.738,134.866C 140.405,135.041 140.069,135.164 139.732,135.236C 139.394,135.307 139.038,135.342 138.663,135.342C 137.372,135.342 136.397,134.963 135.739,134.205C 135.081,133.446 134.752,132.3 134.752,130.767L 134.752,122.568L 136.928,122.568L 136.928,130.587C 136.928,132.511 137.652,133.473 139.101,133.473C 139.368,133.473 139.628,133.434 139.882,133.355C 140.136,133.275 140.403,133.138 140.682,132.942C 140.961,132.747 141.261,132.482 141.581,132.149C 141.902,131.816 142.262,131.396 142.662,130.887L 142.662,122.568L 144.838,122.568L 144.838,135.112 Z "/>
	<path fill="#000000" fill-opacity="1" stroke-linejoin="round" d="M 153.132,119.24L 149.42,119.24L 149.42,117.448L 155.334,117.448L 155.334,133.294L 159.072,133.294L 159.072,135.112L 149.011,135.112L 149.011,133.294L 153.132,133.294L 153.132,119.24 Z "/>
	<path fill="#000000" fill-opacity="1" stroke-linejoin="round" d="M 173.561,128.17C 173.561,128.478 173.557,128.736 173.549,128.944C 173.541,129.152 173.528,129.348 173.511,129.531L 164.704,129.531C 164.704,130.816 165.062,131.803 165.779,132.492C 166.496,133.18 167.53,133.525 168.881,133.525C 169.247,133.525 169.614,133.51 169.981,133.481C 170.348,133.452 170.703,133.412 171.044,133.362C 171.386,133.312 171.714,133.256 172.026,133.193C 172.339,133.131 172.629,133.062 172.896,132.987L 172.896,134.779C 172.303,134.946 171.634,135.081 170.888,135.186C 170.141,135.29 169.368,135.342 168.567,135.342C 167.492,135.342 166.566,135.196 165.79,134.904C 165.015,134.612 164.379,134.189 163.883,133.635C 163.386,133.081 163.02,132.401 162.782,131.597C 162.544,130.792 162.425,129.882 162.425,128.865C 162.425,127.981 162.552,127.145 162.807,126.357C 163.061,125.57 163.432,124.878 163.919,124.282C 164.406,123.686 165.004,123.213 165.712,122.863C 166.42,122.512 167.224,122.337 168.124,122.337C 168.999,122.337 169.774,122.475 170.449,122.75C 171.124,123.024 171.693,123.414 172.155,123.917C 172.618,124.421 172.968,125.033 173.205,125.753C 173.442,126.473 173.561,127.279 173.561,128.17 Z M 171.308,127.867C 171.333,127.308 171.279,126.798 171.146,126.335C 171.012,125.872 170.806,125.474 170.527,125.141C 170.247,124.807 169.899,124.547 169.482,124.359C 169.065,124.172 168.581,124.078 168.031,124.078C 167.556,124.078 167.122,124.17 166.73,124.353C 166.338,124.536 166.001,124.795 165.717,125.128C 165.433,125.462 165.204,125.862 165.029,126.329C 164.854,126.796 164.745,127.308 164.704,127.867L 171.308,127.867 Z "/>
	<line fill="none" stroke-width="1.06667" stroke-linejoin="round" stroke="#000000" stroke-opacity="1" x1="11.1753" y1="29.1131" x2="11.1753" y2="196.977"/>
	<line fill="none" stroke-width="1.06667" stroke-linejoin="round" stroke="#000000" stroke-opacity="1" x1="12.0913" y1="56.4571" x2="37.998" y2="56.4571"/>
	<line fill="none" stroke-width="1.06667" stroke-linejoin="round" stroke="#000000" stroke-opacity="1" x1="11.7847" y1="91.1957" x2="37.6913" y2="91.1957"/>
	<line fill="none" stroke-width="1.06667" stroke-linejoin="round" stroke="#000000" stroke-opacity="1" x1="12.2433" y1="126.857" x2="38.1487" y2="126.857"/>
	<path fill="#000000" fill-opacity="1" stroke-width="1.06667" stroke-linejoin="round" d="M 146.072,2.38467L 146.072,8.05135L 150.572,8.05135L 150.572,19.718L 149.238,19.718L 149.238,18.468L 135.405,18.468L 135.405,19.8013L 134.072,19.8013L 134.072,8.05135L 138.572,8.05135L 138.572,2.38467L 146.072,2.38467 Z M 139.905,11.218L 138.572,11.218L 138.572,9.30135L 135.405,9.30135L 135.405,17.218L 149.238,17.218L 149.238,9.30135L 146.072,9.30135L 146.072,11.0513L 144.738,11.0513L 144.738,3.63467L 139.905,3.63467L 139.905,11.218 Z "/>
	<path fill="#000000" fill-opacity="1" stroke-width="1.06667" stroke-linejoin="round" d="M 172.988,12.3847C 173.266,12.6069 173.127,12.8013 172.572,12.968C 172.238,13.5791 171.405,14.5236 170.072,15.8013C 168.627,17.1902 166.738,18.4402 164.405,19.5513L 163.572,18.218C 165.627,17.3847 167.433,16.2736 168.988,14.8847C 170.1,13.8847 171.016,12.7736 171.738,11.5513L 172.988,12.3847 Z M 164.322,2.55135L 164.322,3.63467L 162.072,3.63467L 162.072,8.88467L 164.988,8.88467L 164.988,9.96802L 162.072,9.96802L 162.072,19.718L 160.905,19.718L 160.905,9.96802L 158.322,9.96802L 158.322,13.3847C 158.322,14.8291 158.127,15.9958 157.738,16.8847C 157.183,18.1624 156.544,19.1624 155.822,19.8847L 154.822,19.0513C 155.544,18.3291 156.127,17.4958 156.572,16.5513C 156.961,15.718 157.155,14.718 157.155,13.5513L 157.155,9.96802L 154.405,9.96802L 154.405,8.88467L 157.155,8.88467L 157.155,3.63467L 155.155,3.63467L 155.155,2.55135L 164.322,2.55135 Z M 172.072,7.71802C 172.405,7.94025 172.294,8.1069 171.738,8.21802C 170.183,10.4402 167.961,12.3291 165.072,13.8847L 164.238,12.6347C 165.961,11.8569 167.322,11.0236 168.322,10.1347C 169.322,9.24579 170.183,8.19025 170.905,6.96802L 172.072,7.71802 Z M 171.155,2.88467C 171.488,3.1069 171.377,3.30135 170.822,3.46802C 170.266,4.30135 169.544,5.16245 168.655,6.05135C 167.711,6.99579 166.572,7.74579 165.238,8.30135L 164.405,7.21802C 165.905,6.6069 167.072,5.88467 167.905,5.05135C 168.516,4.44025 169.238,3.49579 170.072,2.21802L 171.155,2.88467 Z M 158.322,8.88467L 160.905,8.88467L 160.905,3.63467L 158.322,3.63467L 158.322,8.88467 Z "/>
	<path fill="#000000" fill-opacity="1" stroke-width="1.06667" stroke-linejoin="round" d="M 180.988,1.63467C 181.155,1.74579 181.072,1.91245 180.738,2.13467L 180.738,20.0513L 179.572,20.0513L 179.572,13.3847L 176.572,15.468C 176.405,15.968 176.238,16.0513 176.072,15.718L 175.405,14.3847L 179.572,12.0513L 179.572,1.46802L 180.988,1.63467 Z M 189.905,3.05135C 190.738,3.77357 191.6,4.66245 192.488,5.71802L 191.572,6.55135C 190.738,5.55135 189.905,4.63467 189.072,3.80135L 189.905,3.05135 Z M 188.155,1.63467C 188.322,1.74579 188.238,1.91245 187.905,2.13467L 187.905,7.21802L 194.322,7.21802L 194.322,8.46802L 188.072,8.46802C 188.85,12.9124 190.933,16.1902 194.322,18.3013L 193.572,19.6347C 190.683,17.6902 188.711,14.9124 187.655,11.3013C 187.488,13.468 186.905,15.2736 185.905,16.718C 184.961,18.0513 183.655,19.1624 181.988,20.0513L 181.238,18.968C 183.127,18.0791 184.516,16.8013 185.405,15.1347C 186.183,13.6902 186.572,11.468 186.572,8.46802L 181.738,8.46802L 181.738,7.21802L 186.572,7.21802L 186.572,1.46802L 188.155,1.63467 Z M 176.822,5.30135C 177.433,6.57912 178.016,7.99579 178.572,9.55135L 177.405,10.0513C 176.85,8.49579 176.294,7.07912 175.738,5.80135L 176.822,5.30135 Z "/>
	<path fill="#000000" fill-opacity="1" stroke-width="1.06667" stroke-linejoin="round" d="M 252.983,51.4165C 253.15,51.5276 253.067,51.6943 252.733,51.9165L 252.733,62.8332L 268.567,62.8332L 268.567,63.9165L 252.733,63.9165L 252.733,65.1665L 251.567,65.1665L 251.567,51.2498L 252.983,51.4165 Z M 260.233,46.0832C 260.4,46.1943 260.317,46.361 259.983,46.5832L 259.983,48.5832L 268.15,48.5832L 268.15,49.6665L 259.983,49.6665L 259.983,51.6665L 265.15,51.6665L 265.15,61.8332L 263.983,61.8332L 263.983,60.9165L 256.65,60.9165L 256.65,61.8332L 255.483,61.8332L 255.483,51.6665L 258.817,51.6665L 258.817,49.6665L 249.983,49.6665L 249.983,48.5832L 258.817,48.5832L 258.817,45.9165L 260.233,46.0832 Z M 256.65,54.2498L 263.983,54.2498L 263.983,52.7498L 256.65,52.7498L 256.65,54.2498 Z M 256.65,56.9165L 263.983,56.9165L 263.983,55.3332L 256.65,55.3332L 256.65,56.9165 Z M 256.65,59.8332L 263.983,59.8332L 263.983,57.9998L 256.65,57.9998L 256.65,59.8332 Z "/>
	<path fill="#000000" fill-opacity="1" stroke-width="1.06667" stroke-linejoin="round" d="M 281.067,46.4165C 281.233,46.5276 281.15,46.6943 280.817,46.9165L 280.817,50.0832L 289.65,50.0832L 289.65,51.3332L 280.067,51.3332C 280.067,52.2221 279.956,53.3054 279.733,54.5832L 287.4,54.5832C 287.122,57.4721 286.817,59.9998 286.483,62.1665C 286.372,62.8887 286.122,63.4443 285.733,63.8332C 285.345,64.2221 284.65,64.4165 283.65,64.4165L 280.9,64.4165L 280.483,63.1665L 283.483,63.1665C 284.095,63.1665 284.539,63.0276 284.817,62.7498C 285.039,62.5276 285.206,62.111 285.317,61.4998C 285.595,59.7776 285.817,57.8887 285.983,55.8332L 279.567,55.8332C 279.345,57.4443 278.733,58.9998 277.733,60.4998C 276.511,62.3332 274.622,63.861 272.067,65.0832L 271.15,63.8332C 273.761,62.6665 275.678,61.1387 276.9,59.2498C 278.067,57.4165 278.706,54.7776 278.817,51.3332L 271.067,51.3332L 271.067,50.0832L 279.483,50.0832L 279.483,46.2498L 281.067,46.4165 Z "/>
	<path fill="#000000" fill-opacity="1" stroke-width="1.06667" stroke-linejoin="round" d="M 304.65,46.2498C 304.817,46.361 304.733,46.5276 304.4,46.7498L 304.4,50.6665L 310.9,50.6665L 310.9,51.7498L 304.733,51.7498C 305.456,53.4721 306.317,54.9998 307.317,56.3332C 308.483,57.8887 309.789,59.2221 311.233,60.3332L 310.317,61.6665C 307.65,59.2221 305.678,56.5276 304.4,53.5832L 304.4,59.4998L 307.483,59.4998L 307.483,60.5832L 304.4,60.5832L 304.4,65.3332L 303.233,65.3332L 303.233,60.5832L 300.15,60.5832L 300.15,59.4998L 303.233,59.4998L 303.233,53.8332C 302.733,55.2776 301.9,56.7776 300.733,58.3332C 299.567,59.8887 298.372,61.0832 297.15,61.9165L 296.4,60.5832C 297.845,59.6387 299.095,58.4443 300.15,56.9998C 301.261,55.4998 302.178,53.7498 302.9,51.7498L 297.4,51.7498L 297.4,50.6665L 303.233,50.6665L 303.233,46.0832L 304.65,46.2498 Z M 297.817,46.7498C 298.095,46.861 298.011,47.0276 297.567,47.2498C 297.122,48.8054 296.622,50.3054 296.067,51.7498L 296.4,51.8332C 296.678,51.9998 296.567,52.1665 296.067,52.3332L 296.067,65.3332L 294.9,65.3332L 294.9,54.1665C 294.289,55.1665 293.65,56.0832 292.983,56.9165L 292.15,55.8332C 293.206,54.611 294.095,53.1387 294.817,51.4165C 295.483,49.8054 296.011,48.111 296.4,46.3332L 297.817,46.7498 Z "/>
	<path fill="#000000" fill-opacity="1" stroke-width="1.06667" stroke-linejoin="round" d="M 256.65,82.7022L 256.65,83.7856L 253.733,83.7856L 253.733,88.4522L 256.15,88.4522L 256.15,89.5356L 253.733,89.5356L 253.733,94.1189L 256.733,92.9522L 256.733,94.1189C 254.678,95.0078 252.622,95.8133 250.567,96.5356C 250.456,97.0356 250.15,96.6744 249.65,95.4522L 252.567,94.5356L 252.567,89.5356L 250.067,89.5356L 250.067,88.4522L 252.567,88.4522L 252.567,83.7856L 249.817,83.7856L 249.817,82.7022L 256.65,82.7022 Z M 262.817,80.6189C 263.095,80.6744 263.039,80.8411 262.65,81.1189L 262.65,84.7856L 268.15,84.7856L 268.15,85.8689L 262.65,85.8689L 262.65,86.8689C 262.928,88.0911 263.372,89.3967 263.983,90.7856C 265.206,89.6744 266.15,88.6467 266.817,87.7022L 267.817,88.3689C 268.15,88.6467 268.067,88.7856 267.567,88.7856C 266.678,89.7856 265.678,90.7856 264.567,91.7856C 265.122,92.8411 265.65,93.6744 266.15,94.2856C 266.817,95.0633 267.65,95.8133 268.65,96.5356L 267.65,97.6189C 266.317,96.5633 265.261,95.4244 264.483,94.2022C 263.65,92.9244 263.039,91.5078 262.65,89.9522L 262.65,98.1189C 262.65,99.0078 262.289,99.4522 261.567,99.4522L 259.567,99.4522L 259.15,98.2022L 261.233,98.2022C 261.4,98.2022 261.483,98.1189 261.483,97.9522L 261.483,92.9522C 260.261,94.1189 258.817,95.3689 257.15,96.7022C 257.206,97.2022 257.095,97.3411 256.817,97.1189L 255.817,95.7856C 257.761,94.6744 259.65,93.23 261.483,91.4522L 261.483,85.8689L 256.15,85.8689L 256.15,84.7856L 261.483,84.7856L 261.483,80.4522L 262.817,80.6189 Z M 265.983,82.5356L 266.817,83.5356L 265.9,84.3689C 265.233,83.5911 264.567,82.98 263.9,82.5356L 264.817,81.7022L 265.983,82.5356 Z M 259.317,89.3689L 260.067,91.2022L 259.067,92.0356C 258.511,90.7578 257.872,89.5633 257.15,88.4522L 258.067,87.7022L 259.317,89.3689 Z "/>
	<path fill="#000000" fill-opacity="1" stroke-width="1.06667" stroke-linejoin="round" d="M 257.179,123.926C 256.845,127.537 255.734,130.287 253.845,132.176C 252.456,133.565 251.29,134.482 250.345,134.926L 249.262,133.759C 250.651,133.037 251.79,132.232 252.679,131.343C 254.512,129.509 255.54,127.037 255.762,123.926L 249.762,123.926L 249.762,122.593L 255.762,122.593L 255.762,118.009L 257.345,118.176C 257.568,118.287 257.512,118.454 257.179,118.676L 257.179,122.593L 263.929,122.593C 263.818,125.926 263.651,128.37 263.429,129.926C 263.151,131.926 262.762,133.176 262.262,133.676C 261.818,134.12 261.095,134.343 260.095,134.343C 259.706,134.343 259.04,134.287 258.095,134.176L 257.845,132.593C 258.79,132.759 259.54,132.843 260.095,132.843C 260.651,132.843 261.012,132.759 261.179,132.593C 261.512,132.259 261.762,131.593 261.929,130.593C 262.262,128.648 262.456,126.426 262.512,123.926L 257.179,123.926 Z "/>
	<path fill="#000000" fill-opacity="1" stroke-width="1.06667" stroke-linejoin="round" d="M 281.521,120.593L 281.937,120.176C 282.16,119.954 282.271,119.648 282.271,119.259C 282.271,118.87 282.16,118.565 281.937,118.343C 281.66,118.065 281.326,117.926 280.937,117.926C 280.548,117.926 280.215,118.065 279.937,118.343C 279.715,118.565 279.604,118.87 279.604,119.259C 279.604,119.648 279.715,119.954 279.937,120.176C 280.215,120.454 280.548,120.593 280.937,120.593L 281.521,120.593 Z M 280.521,121.426L 280.187,121.343C 279.632,125.62 278.298,128.815 276.187,130.926C 274.576,132.537 272.243,133.732 269.187,134.509L 268.104,133.093C 271.271,132.482 273.66,131.37 275.271,129.759C 276.993,128.037 278.104,125.426 278.604,121.926L 266.521,121.926L 266.521,120.593L 279.104,120.593C 278.882,120.204 278.771,119.759 278.771,119.259C 278.771,118.648 278.965,118.148 279.354,117.759C 279.798,117.315 280.326,117.093 280.937,117.093C 281.548,117.093 282.076,117.315 282.521,117.759C 282.91,118.148 283.104,118.648 283.104,119.259C 283.104,119.87 282.91,120.37 282.521,120.759C 282.076,121.204 281.548,121.426 280.937,121.426L 280.521,121.426 Z "/>
	<path fill="#000000" fill-opacity="1" stroke-width="1.06667" stroke-linejoin="round" d="M 291.357,123.843L 299.524,122.593L 299.857,122.343L 300.774,123.093C 301.052,123.37 300.996,123.537 300.607,123.593C 298.941,126.204 297.468,128.148 296.191,129.426L 295.024,128.509C 296.302,127.232 297.468,125.759 298.524,124.093L 291.357,125.259L 291.357,131.343C 291.357,131.843 291.441,132.176 291.607,132.343C 291.941,132.676 292.857,132.843 294.357,132.843C 296.802,132.843 298.718,132.732 300.107,132.509L 299.857,134.093C 298.191,134.204 296.33,134.259 294.274,134.259C 292.33,134.259 291.107,134.009 290.607,133.509C 290.163,133.065 289.941,132.398 289.941,131.509L 289.941,125.426L 284.607,126.259L 284.357,124.843L 289.941,124.093L 289.941,118.593L 291.524,118.676C 291.746,118.787 291.691,118.954 291.357,119.176L 291.357,123.843 Z "/>
	<path fill="#000000" fill-opacity="1" stroke-width="1.06667" stroke-linejoin="round" d="M 308.947,120.676C 309.113,120.843 309.058,121.009 308.78,121.176L 308.78,124.426C 308.78,128.259 307.613,131.343 305.28,133.676C 305.002,133.954 304.752,134.176 304.53,134.343L 303.28,133.259C 303.558,133.093 303.863,132.843 304.197,132.509C 306.308,130.398 307.363,127.704 307.363,124.426L 307.363,120.593L 308.947,120.676 Z M 313.53,119.759C 313.752,119.87 313.697,120.037 313.363,120.259L 313.363,131.676C 315.641,130.676 317.474,129.482 318.863,128.093C 319.363,127.593 319.891,126.954 320.447,126.176L 321.363,127.259C 321.03,127.759 320.502,128.37 319.78,129.093C 318.28,130.593 315.974,132.093 312.863,133.593L 311.697,132.676L 311.697,132.593L 311.947,132.343L 311.947,119.676L 313.53,119.759 Z "/>
	<path fill="#000000" fill-opacity="1" stroke-width="1.06667" stroke-linejoin="round" d="M 60.9337,169.634C 59.6252,170.18 58.2541,170.453 56.8205,170.453C 54.5117,170.453 52.7385,169.763 51.5007,168.384C 50.263,167.004 49.6441,164.964 49.6441,162.263C 49.6441,160.954 49.815,159.771 50.1567,158.712C 50.4985,157.653 50.9861,156.755 51.6195,156.017C 52.253,155.28 53.0198,154.711 53.9199,154.311C 54.8201,153.911 55.8285,153.711 56.9453,153.711C 57.704,153.711 58.4084,153.776 59.0585,153.906C 59.7087,154.036 60.3337,154.235 60.9337,154.504L 60.9337,156.68C 60.3415,156.356 59.7283,156.108 59.0943,155.938C 58.4603,155.767 57.768,155.682 57.0173,155.682C 56.2499,155.682 55.5553,155.826 54.9337,156.113C 54.3121,156.4 53.7845,156.817 53.3507,157.363C 52.917,157.909 52.5833,158.576 52.3497,159.363C 52.1161,160.15 51.9993,161.048 51.9993,162.057C 51.9993,164.173 52.429,165.769 53.2883,166.844C 54.1477,167.919 55.4073,168.456 57.0673,168.456C 57.7681,168.456 58.4397,168.375 59.0819,168.213C 59.7242,168.051 60.3415,167.825 60.9337,167.535L 60.9337,169.634 Z "/>
	<path fill="#000000" fill-opacity="1" stroke-width="1.06667" stroke-linejoin="round" d="M 75.7561,161.901C 75.7561,162.684 75.6957,163.433 75.5749,164.15C 75.4541,164.866 75.2604,165.533 74.9937,166.149C 74.7271,166.766 74.3812,167.326 73.9561,167.83C 73.5311,168.334 73.0102,168.765 72.3935,169.123C 71.7769,169.482 71.0601,169.758 70.2433,169.954C 69.4265,170.15 68.4971,170.248 67.4549,170.248L 63.9545,170.248L 63.9545,153.915L 68.1677,153.915C 70.7181,153.915 72.6205,154.571 73.8747,155.884C 75.129,157.196 75.7561,159.201 75.7561,161.901 Z M 73.4265,162.063C 73.4265,160.903 73.3181,159.924 73.1011,159.123C 72.8842,158.323 72.5547,157.677 72.1125,157.185C 71.6704,156.693 71.1157,156.337 70.4483,156.116C 69.781,155.895 68.9969,155.784 68.0961,155.784L 66.1817,155.784L 66.1817,168.328L 67.8457,168.328C 71.5663,168.328 73.4265,166.24 73.4265,162.063 Z "/>
	<path fill="#000000" fill-opacity="1" stroke-width="1.06667" stroke-linejoin="round" d="M 89.8361,170.248L 87.3237,170.248L 84.8945,165.027C 84.7111,164.627 84.5235,164.296 84.3317,164.034C 84.14,163.771 83.9337,163.563 83.7127,163.409C 83.4918,163.255 83.2501,163.144 82.9875,163.078C 82.725,163.011 82.4311,162.978 82.1057,162.978L 81.0553,162.978L 81.0553,170.248L 78.8281,170.248L 78.8281,153.915L 83.2049,153.915C 84.1556,153.915 84.9727,154.02 85.6563,154.228C 86.3399,154.436 86.9005,154.728 87.3381,155.103C 87.7757,155.478 88.0967,155.93 88.3009,156.459C 88.5052,156.988 88.6073,157.573 88.6073,158.215C 88.6073,158.723 88.5323,159.204 88.3823,159.658C 88.2323,160.113 88.0093,160.525 87.7133,160.896C 87.4173,161.266 87.0505,161.587 86.6129,161.858C 86.1753,162.129 85.6732,162.331 85.1065,162.464C 85.5649,162.622 85.9546,162.899 86.2755,163.294C 86.5965,163.689 86.9236,164.215 87.2569,164.872L 89.8361,170.248 Z M 86.2777,158.397C 86.2777,157.522 86.0049,156.868 85.4593,156.434C 84.9137,156.001 84.1453,155.784 83.1541,155.784L 81.0553,155.784L 81.0553,161.186L 82.8545,161.186C 83.3793,161.186 83.852,161.125 84.2725,161.004C 84.6931,160.883 85.0512,160.704 85.3469,160.467C 85.6427,160.229 85.8717,159.937 86.0341,159.591C 86.1965,159.245 86.2777,158.847 86.2777,158.397 Z "/>
	<path fill="#000000" fill-opacity="1" stroke-width="1.06667" stroke-linejoin="round" d="M 103.737,163.876C 103.737,164.852 103.599,165.746 103.324,166.558C 103.049,167.371 102.653,168.067 102.137,168.646C 101.62,169.226 100.991,169.676 100.249,169.997C 99.5074,170.318 98.6656,170.479 97.7237,170.479C 96.8237,170.479 96.0175,170.339 95.3049,170.06C 94.5924,169.78 93.9882,169.37 93.4923,168.828C 92.9965,168.286 92.6173,167.615 92.3547,166.815C 92.0922,166.014 91.9609,165.093 91.9609,164.051C 91.9609,163.076 92.0985,162.186 92.3735,161.381C 92.6486,160.577 93.0445,159.885 93.5611,159.306C 94.0778,158.727 94.707,158.276 95.4487,157.955C 96.1905,157.634 97.0321,157.474 97.9737,157.474C 98.8737,157.474 99.6801,157.613 100.393,157.893C 101.105,158.172 101.71,158.581 102.206,159.118C 102.701,159.656 103.081,160.325 103.343,161.125C 103.606,161.925 103.737,162.842 103.737,163.876 Z M 101.51,163.97C 101.51,163.194 101.424,162.517 101.254,161.937C 101.083,161.358 100.839,160.874 100.523,160.487C 100.206,160.099 99.8211,159.807 99.3671,159.611C 98.9131,159.415 98.4071,159.317 97.8489,159.317C 97.1991,159.317 96.6431,159.444 96.1809,159.699C 95.7188,159.953 95.3399,160.293 95.0441,160.718C 94.7484,161.143 94.5318,161.637 94.3943,162.2C 94.2569,162.763 94.1881,163.353 94.1881,163.97C 94.1881,164.745 94.2735,165.425 94.4441,166.009C 94.6148,166.592 94.8584,167.078 95.1749,167.466C 95.4915,167.854 95.8747,168.145 96.3245,168.341C 96.7744,168.537 97.2825,168.635 97.8489,168.635C 98.4985,168.635 99.0545,168.508 99.5167,168.254C 99.979,167.999 100.358,167.66 100.654,167.234C 100.949,166.809 101.166,166.315 101.304,165.752C 101.441,165.189 101.51,164.595 101.51,163.97 Z "/>
	<path fill="#000000" fill-opacity="1" stroke-width="1.06667" stroke-linejoin="round" d="M 116.998,170.248L 115.047,170.248L 114.972,168.224C 114.597,168.658 114.241,169.019 113.903,169.307C 113.566,169.595 113.231,169.827 112.898,170.002C 112.564,170.178 112.229,170.301 111.892,170.372C 111.554,170.443 111.198,170.479 110.823,170.479C 109.532,170.479 108.557,170.099 107.899,169.341C 107.24,168.583 106.911,167.437 106.911,165.904L 106.911,157.704L 109.087,157.704L 109.087,165.724C 109.087,167.648 109.812,168.61 111.261,168.61C 111.528,168.61 111.788,168.57 112.042,168.491C 112.296,168.412 112.562,168.274 112.842,168.079C 113.121,167.883 113.42,167.619 113.741,167.286C 114.062,166.953 114.422,166.532 114.822,166.024L 114.822,157.704L 116.998,157.704L 116.998,170.248 Z "/>
	<path fill="#000000" fill-opacity="1" stroke-width="1.06667" stroke-linejoin="round" d="M 121.017,157.704L 122.955,157.704L 123.043,159.728C 123.41,159.294 123.764,158.933 124.105,158.645C 124.447,158.357 124.782,158.125 125.111,157.95C 125.44,157.775 125.775,157.651 126.117,157.58C 126.459,157.509 126.813,157.474 127.179,157.474C 128.47,157.474 129.447,157.855 130.11,158.618C 130.772,159.38 131.103,160.528 131.103,162.061L 131.103,170.248L 128.927,170.248L 128.927,162.232C 128.927,161.248 128.744,160.52 128.378,160.049C 128.011,159.578 127.466,159.343 126.741,159.343C 126.475,159.343 126.214,159.382 125.96,159.461C 125.706,159.541 125.442,159.678 125.167,159.874C 124.892,160.07 124.594,160.335 124.274,160.668C 123.953,161.001 123.593,161.418 123.193,161.919L 123.193,170.248L 121.017,170.248L 121.017,157.704 Z "/>
	<path fill="#000000" fill-opacity="1" stroke-width="1.06667" stroke-linejoin="round" d="M 134.483,164.24C 134.483,163.173 134.629,162.225 134.921,161.395C 135.213,160.566 135.628,159.865 136.166,159.295C 136.704,158.724 137.351,158.29 138.106,157.994C 138.861,157.699 139.702,157.551 140.628,157.551C 141.028,157.551 141.423,157.576 141.811,157.626C 142.199,157.676 142.58,157.755 142.956,157.863L 142.956,152.584L 145.132,152.584L 145.132,170.248L 143.192,170.248L 143.117,167.878C 142.508,168.762 141.849,169.416 141.14,169.841C 140.431,170.266 139.663,170.479 138.837,170.479C 138.12,170.479 137.488,170.328 136.942,170.028C 136.395,169.728 135.941,169.305 135.578,168.759C 135.215,168.214 134.942,167.557 134.758,166.79C 134.574,166.023 134.483,165.173 134.483,164.24 Z M 136.71,164.095C 136.71,165.612 136.933,166.744 137.38,167.49C 137.826,168.237 138.458,168.61 139.276,168.61C 139.827,168.61 140.409,168.364 141.022,167.872C 141.635,167.38 142.28,166.651 142.956,165.683L 142.956,159.855C 142.597,159.688 142.201,159.561 141.767,159.474C 141.333,159.386 140.903,159.343 140.477,159.343C 139.293,159.343 138.368,159.726 137.705,160.493C 137.041,161.26 136.71,162.461 136.71,164.095 Z "/>
	<path fill="#000000" fill-opacity="1" stroke-width="1.06667" stroke-linejoin="round" d="M 158.982,169.787C 158.415,170.005 157.833,170.166 157.237,170.27C 156.641,170.375 156.026,170.427 155.393,170.427C 153.409,170.427 151.881,169.89 150.81,168.815C 149.738,167.739 149.203,166.168 149.203,164.101C 149.203,163.109 149.357,162.209 149.665,161.401C 149.974,160.592 150.407,159.901 150.966,159.325C 151.524,158.75 152.191,158.306 152.967,157.994C 153.742,157.681 154.597,157.525 155.53,157.525C 156.181,157.525 156.789,157.571 157.356,157.663C 157.923,157.755 158.465,157.905 158.982,158.114L 158.982,160.187C 158.44,159.902 157.888,159.694 157.325,159.564C 156.763,159.433 156.181,159.368 155.581,159.368C 155.023,159.368 154.496,159.474 154,159.687C 153.504,159.9 153.069,160.206 152.694,160.606C 152.318,161.006 152.023,161.494 151.806,162.069C 151.589,162.645 151.481,163.295 151.481,164.02C 151.481,165.537 151.85,166.673 152.587,167.427C 153.325,168.181 154.348,168.559 155.657,168.559C 156.248,168.559 156.821,168.492 157.375,168.36C 157.93,168.228 158.465,168.029 158.982,167.765L 158.982,169.787 Z "/>
	<path fill="#000000" fill-opacity="1" stroke-width="1.06667" stroke-linejoin="round" d="M 174.265,163.876C 174.265,164.852 174.127,165.746 173.852,166.558C 173.577,167.371 173.181,168.067 172.665,168.646C 172.148,169.226 171.519,169.676 170.777,169.997C 170.035,170.318 169.194,170.479 168.252,170.479C 167.352,170.479 166.545,170.339 165.833,170.06C 165.12,169.78 164.516,169.37 164.02,168.828C 163.524,168.286 163.145,167.615 162.883,166.815C 162.62,166.014 162.489,165.093 162.489,164.051C 162.489,163.076 162.626,162.186 162.902,161.381C 163.177,160.577 163.572,159.885 164.089,159.306C 164.606,158.727 165.235,158.276 165.977,157.955C 166.718,157.634 167.56,157.474 168.502,157.474C 169.402,157.474 170.208,157.613 170.921,157.893C 171.633,158.172 172.238,158.581 172.734,159.118C 173.229,159.656 173.609,160.325 173.871,161.125C 174.134,161.925 174.265,162.842 174.265,163.876 Z M 172.038,163.97C 172.038,163.194 171.952,162.517 171.782,161.937C 171.611,161.358 171.367,160.874 171.051,160.487C 170.734,160.099 170.349,159.807 169.895,159.611C 169.441,159.415 168.935,159.317 168.377,159.317C 167.727,159.317 167.171,159.444 166.709,159.699C 166.247,159.953 165.868,160.293 165.572,160.718C 165.276,161.143 165.06,161.637 164.922,162.2C 164.785,162.763 164.716,163.353 164.716,163.97C 164.716,164.745 164.801,165.425 164.972,166.009C 165.143,166.592 165.386,167.078 165.703,167.466C 166.019,167.854 166.403,168.145 166.853,168.341C 167.302,168.537 167.811,168.635 168.377,168.635C 169.027,168.635 169.582,168.508 170.045,168.254C 170.507,167.999 170.886,167.66 171.182,167.234C 171.477,166.809 171.694,166.315 171.832,165.752C 171.969,165.189 172.038,164.595 172.038,163.97 Z "/>
	<path fill="#000000" fill-opacity="1" stroke-width="1.06667" stroke-linejoin="round" d="M 177.439,157.704L 179.378,157.704L 179.465,159.728C 179.832,159.294 180.186,158.933 180.528,158.645C 180.869,158.357 181.204,158.125 181.533,157.95C 181.862,157.775 182.198,157.651 182.539,157.58C 182.881,157.509 183.235,157.474 183.601,157.474C 184.893,157.474 185.87,157.855 186.532,158.618C 187.195,159.38 187.526,160.528 187.526,162.061L 187.526,170.248L 185.35,170.248L 185.35,162.232C 185.35,161.248 185.166,160.52 184.8,160.049C 184.433,159.578 183.888,159.343 183.164,159.343C 182.897,159.343 182.637,159.382 182.383,159.461C 182.128,159.541 181.864,159.678 181.589,159.874C 181.314,160.07 181.017,160.335 180.696,160.668C 180.375,161.001 180.015,161.418 179.615,161.919L 179.615,170.248L 177.439,170.248L 177.439,157.704 Z "/>
	<path fill="#000000" fill-opacity="1" stroke-width="1.06667" stroke-linejoin="round" d="M 202.143,163.306C 202.143,163.614 202.139,163.872 202.131,164.081C 202.123,164.289 202.11,164.484 202.093,164.667L 193.286,164.667C 193.286,165.953 193.644,166.94 194.361,167.628C 195.078,168.317 196.112,168.661 197.463,168.661C 197.83,168.661 198.196,168.646 198.563,168.617C 198.93,168.588 199.285,168.548 199.627,168.498C 199.968,168.448 200.296,168.392 200.608,168.33C 200.921,168.267 201.211,168.199 201.478,168.123L 201.478,169.915C 200.885,170.082 200.216,170.218 199.47,170.322C 198.723,170.426 197.95,170.479 197.149,170.479C 196.074,170.479 195.148,170.333 194.372,170.041C 193.597,169.749 192.961,169.326 192.465,168.772C 191.969,168.217 191.602,167.538 191.364,166.733C 191.126,165.929 191.007,165.018 191.007,164.001C 191.007,163.117 191.134,162.281 191.389,161.494C 191.643,160.706 192.014,160.014 192.501,159.418C 192.988,158.822 193.586,158.349 194.294,157.999C 195.002,157.649 195.807,157.474 196.707,157.474C 197.581,157.474 198.356,157.611 199.031,157.886C 199.706,158.161 200.275,158.55 200.737,159.054C 201.2,159.557 201.55,160.169 201.787,160.89C 202.025,161.61 202.143,162.415 202.143,163.306 Z M 199.891,163.003C 199.916,162.445 199.861,161.934 199.728,161.471C 199.594,161.009 199.388,160.611 199.109,160.277C 198.829,159.944 198.481,159.683 198.064,159.496C 197.647,159.308 197.164,159.215 196.613,159.215C 196.138,159.215 195.704,159.306 195.312,159.49C 194.92,159.673 194.583,159.931 194.299,160.265C 194.016,160.598 193.786,160.998 193.611,161.465C 193.436,161.932 193.327,162.445 193.286,163.003L 199.891,163.003 Z "/>
	<path fill="#000000" fill-opacity="1" stroke-width="1.06667" stroke-linejoin="round" d="M 60.8733,204.489C 59.5648,205.035 58.1937,205.308 56.7601,205.308C 54.4513,205.308 52.6781,204.618 51.4403,203.238C 50.2026,201.859 49.5837,199.819 49.5837,197.118C 49.5837,195.809 49.7546,194.626 50.0963,193.567C 50.4381,192.508 50.9257,191.61 51.5591,190.872C 52.1926,190.135 52.9594,189.566 53.8595,189.166C 54.7597,188.765 55.7681,188.565 56.8849,188.565C 57.6436,188.565 58.348,188.63 58.9981,188.761C 59.6483,188.891 60.2733,189.09 60.8733,189.359L 60.8733,191.535C 60.2811,191.21 59.6679,190.963 59.0339,190.792C 58.3999,190.622 57.7076,190.537 56.9569,190.537C 56.1895,190.537 55.4949,190.68 54.8733,190.968C 54.2517,191.255 53.7241,191.672 53.2903,192.218C 52.8566,192.764 52.5229,193.43 52.2893,194.218C 52.0557,195.005 51.9389,195.903 51.9389,196.911C 51.9389,199.028 52.3686,200.624 53.2279,201.699C 54.0873,202.773 55.3469,203.311 57.0069,203.311C 57.7077,203.311 58.3793,203.23 59.0215,203.068C 59.6638,202.906 60.2811,202.68 60.8733,202.389L 60.8733,204.489 Z "/>
	<path fill="#000000" fill-opacity="1" stroke-width="1.06667" stroke-linejoin="round" d="M 75.6957,196.755C 75.6957,197.538 75.6353,198.288 75.5145,199.005C 75.3937,199.721 75.2,200.388 74.9333,201.004C 74.6667,201.62 74.3208,202.181 73.8957,202.685C 73.4707,203.189 72.9498,203.62 72.3331,203.978C 71.7165,204.336 70.9997,204.613 70.1829,204.809C 69.3661,205.005 68.4367,205.103 67.3945,205.103L 63.8941,205.103L 63.8941,188.77L 68.1073,188.77C 70.6577,188.77 72.5601,189.426 73.8143,190.738C 75.0686,192.05 75.6957,194.056 75.6957,196.755 Z M 73.3661,196.917C 73.3661,195.758 73.2577,194.778 73.0407,193.978C 72.8238,193.178 72.4943,192.531 72.0521,192.04C 71.61,191.548 71.0553,191.191 70.3879,190.97C 69.7206,190.749 68.9365,190.639 68.0357,190.639L 66.1213,190.639L 66.1213,203.183L 67.7853,203.183C 71.5059,203.183 73.3661,201.094 73.3661,196.917 Z "/>
	<path fill="#000000" fill-opacity="1" stroke-width="1.06667" stroke-linejoin="round" d="M 89.0845,204.489C 87.776,205.035 86.4049,205.308 84.9713,205.308C 82.6625,205.308 80.8893,204.618 79.6515,203.238C 78.4138,201.859 77.7949,199.819 77.7949,197.118C 77.7949,195.809 77.9658,194.626 78.3075,193.567C 78.6493,192.508 79.1369,191.61 79.7703,190.872C 80.4038,190.135 81.1706,189.566 82.0707,189.166C 82.9709,188.765 83.9793,188.565 85.0961,188.565C 85.8548,188.565 86.5592,188.63 87.2093,188.761C 87.8595,188.891 88.4845,189.09 89.0845,189.359L 89.0845,191.535C 88.4923,191.21 87.8791,190.963 87.2451,190.792C 86.6111,190.622 85.9188,190.537 85.1681,190.537C 84.4007,190.537 83.7061,190.68 83.0845,190.968C 82.4629,191.255 81.9353,191.672 81.5015,192.218C 81.0678,192.764 80.7341,193.43 80.5005,194.218C 80.2669,195.005 80.1501,195.903 80.1501,196.911C 80.1501,199.028 80.5798,200.624 81.4391,201.699C 82.2985,202.773 83.5581,203.311 85.2181,203.311C 85.9189,203.311 86.5905,203.23 87.2327,203.068C 87.875,202.906 88.4923,202.68 89.0845,202.389L 89.0845,204.489 Z "/>
	<path fill="#000000" fill-opacity="1" stroke-width="1.06667" stroke-linejoin="round" d="M 103.677,198.731C 103.677,199.706 103.539,200.6 103.264,201.413C 102.989,202.226 102.593,202.922 102.076,203.501C 101.56,204.08 100.93,204.531 100.189,204.852C 99.447,205.173 98.6052,205.333 97.6633,205.333C 96.7633,205.333 95.9571,205.194 95.2445,204.914C 94.532,204.635 93.9278,204.224 93.4319,203.683C 92.9361,203.141 92.5569,202.47 92.2943,201.669C 92.0318,200.869 91.9005,199.948 91.9005,198.906C 91.9005,197.931 92.0381,197.041 92.3131,196.236C 92.5882,195.432 92.9841,194.74 93.5007,194.161C 94.0174,193.581 94.6466,193.131 95.3883,192.81C 96.1301,192.489 96.9717,192.329 97.9133,192.329C 98.8133,192.329 99.6197,192.468 100.332,192.748C 101.045,193.027 101.649,193.435 102.145,193.973C 102.641,194.511 103.02,195.179 103.283,195.98C 103.545,196.78 103.677,197.697 103.677,198.731 Z M 101.449,198.825C 101.449,198.049 101.364,197.372 101.193,196.792C 101.023,196.213 100.779,195.729 100.463,195.341C 100.146,194.954 99.7607,194.662 99.3067,194.466C 98.8527,194.27 98.3467,194.172 97.7885,194.172C 97.1387,194.172 96.5827,194.299 96.1205,194.553C 95.6584,194.808 95.2795,195.148 94.9837,195.573C 94.688,195.998 94.4714,196.492 94.3339,197.055C 94.1965,197.618 94.1277,198.208 94.1277,198.825C 94.1277,199.6 94.2131,200.28 94.3837,200.864C 94.5544,201.447 94.798,201.933 95.1145,202.321C 95.4311,202.708 95.8143,203 96.2641,203.196C 96.714,203.392 97.2221,203.49 97.7885,203.49C 98.4381,203.49 98.9941,203.363 99.4563,203.109C 99.9186,202.854 100.298,202.514 100.593,202.089C 100.889,201.664 101.106,201.17 101.243,200.607C 101.381,200.044 101.449,199.45 101.449,198.825 Z "/>
	<path fill="#000000" fill-opacity="1" stroke-width="1.06667" stroke-linejoin="round" d="M 106.851,192.559L 108.789,192.559L 108.877,194.583C 109.244,194.149 109.598,193.788 109.939,193.5C 110.281,193.212 110.616,192.98 110.945,192.805C 111.274,192.629 111.609,192.506 111.951,192.435C 112.293,192.364 112.647,192.329 113.013,192.329C 114.304,192.329 115.281,192.71 115.944,193.472C 116.606,194.235 116.937,195.383 116.937,196.916L 116.937,205.103L 114.761,205.103L 114.761,197.087C 114.761,196.103 114.578,195.375 114.212,194.904C 113.845,194.433 113.3,194.197 112.575,194.197C 112.309,194.197 112.048,194.237 111.794,194.316C 111.54,194.395 111.276,194.533 111.001,194.729C 110.726,194.925 110.428,195.189 110.108,195.523C 109.787,195.856 109.427,196.273 109.027,196.773L 109.027,205.103L 106.851,205.103L 106.851,192.559 Z "/>
	<path fill="#000000" fill-opacity="1" stroke-width="1.06667" stroke-linejoin="round" d="M 119.792,192.559L 122.267,192.559L 125.349,200.871L 126.013,202.898L 126.699,200.821L 129.744,192.559L 132.131,192.559L 127.213,205.103L 124.713,205.103L 119.792,192.559 Z "/>
	<path fill="#000000" fill-opacity="1" stroke-width="1.06667" stroke-linejoin="round" d="M 145.661,198.161C 145.661,198.469 145.656,198.727 145.648,198.935C 145.64,199.144 145.627,199.339 145.611,199.522L 136.803,199.522C 136.803,200.807 137.161,201.794 137.879,202.483C 138.596,203.171 139.629,203.516 140.98,203.516C 141.347,203.516 141.714,203.501 142.081,203.472C 142.447,203.443 142.802,203.403 143.144,203.353C 143.486,203.303 143.813,203.247 144.126,203.185C 144.438,203.122 144.728,203.053 144.995,202.978L 144.995,204.77C 144.403,204.937 143.733,205.072 142.987,205.177C 142.241,205.281 141.467,205.333 140.667,205.333C 139.591,205.333 138.665,205.187 137.89,204.896C 137.114,204.604 136.478,204.181 135.982,203.626C 135.486,203.072 135.119,202.393 134.881,201.588C 134.643,200.784 134.525,199.873 134.525,198.856C 134.525,197.972 134.652,197.136 134.906,196.349C 135.16,195.561 135.531,194.869 136.018,194.273C 136.506,193.677 137.103,193.204 137.812,192.854C 138.52,192.504 139.324,192.329 140.224,192.329C 141.099,192.329 141.874,192.466 142.549,192.741C 143.223,193.016 143.792,193.405 144.255,193.909C 144.717,194.412 145.067,195.024 145.304,195.744C 145.542,196.464 145.661,197.27 145.661,198.161 Z M 143.408,197.858C 143.433,197.299 143.379,196.789 143.245,196.326C 143.112,195.863 142.905,195.465 142.626,195.132C 142.347,194.798 141.998,194.538 141.582,194.351C 141.165,194.163 140.681,194.069 140.13,194.069C 139.655,194.069 139.221,194.161 138.83,194.344C 138.438,194.528 138.1,194.786 137.816,195.12C 137.533,195.453 137.303,195.853 137.128,196.32C 136.953,196.787 136.845,197.299 136.803,197.858L 143.408,197.858 Z "/>
	<path fill="#000000" fill-opacity="1" stroke-width="1.06667" stroke-linejoin="round" d="M 160.483,205.103L 157.596,205.103L 154.217,200.316L 150.854,205.103L 148.041,205.103L 152.905,198.8L 148.272,192.559L 151.059,192.559L 154.349,197.377L 157.591,192.559L 160.278,192.559L 155.559,198.84L 160.483,205.103 Z "/>
	<path fill="#000000" fill-opacity="1" stroke-width="1.06667" stroke-linejoin="round" d="M 174.741,205.103L 172.566,205.103L 172.233,194.892L 172.093,191.007L 171.332,193.271L 168.927,199.778L 167.39,199.778L 165.096,193.521L 164.336,191.007L 164.285,195.067L 163.99,205.103L 161.89,205.103L 162.698,188.77L 165.336,188.77L 167.529,194.93L 168.24,197.008L 168.925,194.93L 171.23,188.77L 173.943,188.77L 174.741,205.103 Z "/>
	<path fill="#000000" fill-opacity="1" stroke-width="1.06667" stroke-linejoin="round" d="M 187.977,198.161C 187.977,198.469 187.973,198.727 187.965,198.935C 187.957,199.144 187.944,199.339 187.927,199.522L 179.12,199.522C 179.12,200.807 179.478,201.794 180.195,202.483C 180.912,203.171 181.946,203.516 183.297,203.516C 183.664,203.516 184.03,203.501 184.397,203.472C 184.764,203.443 185.119,203.403 185.461,203.353C 185.802,203.303 186.13,203.247 186.442,203.185C 186.755,203.122 187.045,203.053 187.312,202.978L 187.312,204.77C 186.719,204.937 186.05,205.072 185.304,205.177C 184.557,205.281 183.784,205.333 182.983,205.333C 181.908,205.333 180.982,205.187 180.206,204.896C 179.431,204.604 178.795,204.181 178.299,203.626C 177.803,203.072 177.436,202.393 177.198,201.588C 176.96,200.784 176.841,199.873 176.841,198.856C 176.841,197.972 176.968,197.136 177.223,196.349C 177.477,195.561 177.848,194.869 178.335,194.273C 178.822,193.677 179.42,193.204 180.128,192.854C 180.836,192.504 181.641,192.329 182.541,192.329C 183.415,192.329 184.19,192.466 184.865,192.741C 185.54,193.016 186.109,193.405 186.571,193.909C 187.034,194.412 187.384,195.024 187.621,195.744C 187.859,196.464 187.977,197.27 187.977,198.161 Z M 185.725,197.858C 185.75,197.299 185.695,196.789 185.562,196.326C 185.428,195.863 185.222,195.465 184.943,195.132C 184.663,194.798 184.315,194.538 183.898,194.351C 183.481,194.163 182.998,194.069 182.447,194.069C 181.972,194.069 181.538,194.161 181.146,194.344C 180.754,194.528 180.417,194.786 180.133,195.12C 179.85,195.453 179.62,195.853 179.445,196.32C 179.27,196.787 179.161,197.299 179.12,197.858L 185.725,197.858 Z "/>
	<path fill="#000000" fill-opacity="1" stroke-width="1.06667" stroke-linejoin="round" d="M 201.443,201.682C 201.443,202.124 201.368,202.52 201.218,202.87C 201.067,203.22 200.863,203.53 200.604,203.801C 200.345,204.072 200.045,204.304 199.703,204.495C 199.361,204.687 198.996,204.845 198.607,204.971C 198.219,205.096 197.821,205.187 197.412,205.246C 197.003,205.304 196.602,205.333 196.21,205.333C 195.359,205.333 194.577,205.295 193.863,205.218C 193.149,205.141 192.45,205.018 191.766,204.847L 191.766,202.85C 192.501,203.059 193.231,203.218 193.957,203.327C 194.683,203.436 195.405,203.49 196.123,203.49C 197.166,203.49 197.938,203.349 198.439,203.066C 198.94,202.784 199.19,202.381 199.19,201.857C 199.19,201.632 199.15,201.43 199.071,201.25C 198.991,201.071 198.847,200.9 198.639,200.738C 198.43,200.575 198.106,200.407 197.667,200.231C 197.228,200.056 196.629,199.856 195.869,199.631C 195.3,199.464 194.776,199.275 194.295,199.062C 193.815,198.85 193.399,198.597 193.048,198.306C 192.697,198.014 192.421,197.672 192.221,197.281C 192.02,196.889 191.92,196.426 191.92,195.893C 191.92,195.542 192.001,195.159 192.164,194.742C 192.327,194.325 192.605,193.938 192.998,193.579C 193.391,193.221 193.922,192.923 194.591,192.685C 195.26,192.447 196.096,192.329 197.099,192.329C 197.593,192.329 198.141,192.355 198.743,192.409C 199.345,192.463 199.972,192.555 200.624,192.687L 200.624,194.633C 199.938,194.466 199.287,194.343 198.672,194.265C 198.057,194.186 197.523,194.146 197.072,194.146C 196.528,194.146 196.07,194.188 195.697,194.271C 195.325,194.354 195.023,194.468 194.793,194.614C 194.563,194.759 194.398,194.929 194.298,195.125C 194.197,195.32 194.147,195.53 194.147,195.755C 194.147,195.98 194.191,196.184 194.279,196.368C 194.367,196.551 194.53,196.728 194.768,196.899C 195.006,197.07 195.338,197.241 195.764,197.412C 196.19,197.583 196.746,197.768 197.431,197.968C 198.175,198.185 198.802,198.412 199.312,198.65C 199.822,198.887 200.235,199.152 200.553,199.444C 200.87,199.735 201.098,200.064 201.236,200.431C 201.374,200.798 201.443,201.215 201.443,201.682 Z "/>
	<path fill="#000000" fill-opacity="1" stroke-width="1.06667" stroke-linejoin="round" d="M 215.676,205.103L 213.501,205.103L 213.501,197.087C 213.501,196.119 213.319,195.396 212.957,194.917C 212.595,194.437 212.076,194.197 211.402,194.197C 211.11,194.197 210.837,194.237 210.583,194.316C 210.329,194.395 210.065,194.533 209.79,194.729C 209.515,194.925 209.215,195.189 208.89,195.523C 208.565,195.856 208.191,196.273 207.766,196.773L 207.766,205.103L 205.59,205.103L 205.59,187.439L 207.766,187.439L 207.766,192.553L 207.691,194.529C 208.033,194.12 208.368,193.777 208.697,193.497C 209.026,193.218 209.355,192.991 209.684,192.816C 210.013,192.641 210.349,192.516 210.69,192.441C 211.032,192.366 211.386,192.329 211.752,192.329C 213.002,192.329 213.969,192.71 214.652,193.472C 215.335,194.235 215.676,195.383 215.676,196.916L 215.676,205.103 Z "/>
	<line fill="none" stroke-width="1.06667" stroke-linejoin="round" stroke="#000000" stroke-opacity="1" x1="12.43" y1="161.529" x2="38.3367" y2="161.529"/>
	<line fill="none" stroke-width="1.06667" stroke-linejoin="round" stroke="#000000" stroke-opacity="1" x1="12.1287" y1="196.274" x2="38.034" y2="196.274"/>
	<path fill="#000000" fill-opacity="1" stroke-width="1.06667" stroke-linejoin="round" d="M 258.909,151.656C 259.186,151.712 259.131,151.878 258.742,152.156L 258.742,155.74L 264.159,155.74L 263.742,167.656C 263.742,167.99 263.909,168.156 264.242,168.156L 266.325,168.156C 266.77,168.156 267.047,167.878 267.159,167.323L 267.492,165.323L 268.909,166.156L 268.409,168.156C 268.186,168.99 267.547,169.406 266.492,169.406L 263.742,169.406C 262.797,169.406 262.353,168.823 262.409,167.656L 262.742,156.99L 258.742,156.99C 258.742,158.878 258.52,160.74 258.075,162.573C 258.964,163.24 259.964,164.045 261.075,164.99L 260.242,166.156C 259.297,165.378 258.381,164.656 257.492,163.99C 256.159,166.601 253.936,168.517 250.825,169.74L 250.075,168.573C 253.242,167.295 255.325,165.517 256.325,163.24C 255.103,162.351 253.825,161.573 252.492,160.906L 253.242,159.74C 254.52,160.406 255.714,161.101 256.825,161.823C 257.159,160.767 257.353,159.156 257.409,156.99L 251.325,156.99L 251.325,155.74L 257.409,155.74L 257.409,151.49L 258.909,151.656 Z "/>
	<path fill="#000000" fill-opacity="1" stroke-width="1.06667" stroke-linejoin="round" d="M 284.075,155.656L 284.075,167.656L 282.659,167.656L 282.659,166.573L 271.242,166.573L 271.242,165.24L 282.659,165.24L 282.659,156.99L 271.242,156.99L 271.242,155.656L 284.075,155.656 Z "/>
	<rect x="286.666" y="160.156" fill="#000000" fill-opacity="1" stroke-width="1.06667" stroke-linejoin="round" width="17.6667" height="1.33333"/>
	<path fill="#000000" fill-opacity="1" stroke-width="1.06667" stroke-linejoin="round" d="M 321.745,158.156C 320.578,160.545 319.328,162.406 317.995,163.74C 315.606,166.128 312.3,167.628 308.078,168.24C 307.967,168.573 307.828,168.656 307.661,168.49L 306.911,166.656C 311.245,166.378 314.55,165.101 316.828,162.823C 318.328,161.323 319.578,159.406 320.578,157.073L 321.745,158.156 Z M 310.328,155.323L 312.411,156.99L 311.328,158.323C 309.995,157.156 308.578,156.128 307.078,155.24L 307.995,153.99L 310.328,155.323 Z "/>
	<path fill="#000000" fill-opacity="1" stroke-width="1.06667" stroke-linejoin="round" d="M 263.075,186.775L 263.075,192.442L 267.575,192.442L 267.575,204.109L 266.242,204.109L 266.242,202.859L 252.409,202.859L 252.409,204.192L 251.075,204.192L 251.075,192.442L 255.575,192.442L 255.575,186.775L 263.075,186.775 Z M 256.909,195.609L 255.575,195.609L 255.575,193.692L 252.409,193.692L 252.409,201.609L 266.242,201.609L 266.242,193.692L 263.075,193.692L 263.075,195.442L 261.742,195.442L 261.742,188.025L 256.909,188.025L 256.909,195.609 Z "/>
	<path fill="#000000" fill-opacity="1" stroke-width="1.06667" stroke-linejoin="round" d="M 282.159,187.859C 282.381,187.97 282.297,188.109 281.909,188.275C 281.242,190.831 280.464,192.997 279.575,194.775C 280.964,195.609 282.27,196.497 283.492,197.442L 282.575,198.775C 281.464,197.775 280.242,196.886 278.909,196.109C 278.186,197.275 277.186,198.497 275.909,199.775C 275.131,200.553 273.742,201.636 271.742,203.025L 270.492,201.859C 272.27,200.97 273.881,199.803 275.325,198.359C 276.436,197.247 277.214,196.247 277.659,195.359C 276.159,194.414 274.603,193.581 272.992,192.859L 273.742,191.692C 275.297,192.414 276.825,193.22 278.325,194.109C 279.325,192.109 280.047,189.803 280.492,187.192L 282.159,187.859 Z "/>
	<path fill="#000000" fill-opacity="1" stroke-width="1.06667" stroke-linejoin="round" d="M 299.402,192.025C 299.624,192.136 299.541,192.275 299.152,192.442C 298.596,196.386 297.485,199.192 295.819,200.859C 294.207,202.47 292.152,203.636 289.652,204.359L 288.569,203.109C 291.235,202.442 293.263,201.414 294.652,200.025C 296.374,198.303 297.43,195.442 297.819,191.442L 299.402,192.025 Z M 292.735,193.109L 293.569,195.109L 292.319,195.775C 291.763,194.386 291.069,193.081 290.235,191.859L 291.485,191.275L 292.735,193.109 Z M 287.235,192.359C 288.124,193.692 288.819,194.997 289.319,196.275L 288.069,196.942C 287.513,195.497 286.819,194.136 285.985,192.859L 287.235,192.359 Z "/>
	<path fill="#000000" fill-opacity="1" stroke-width="1.06667" stroke-linejoin="round" d="M 308.066,191.025C 306.844,189.97 305.511,189.109 304.066,188.442L 304.983,187.192C 306.316,187.859 307.65,188.72 308.983,189.775L 308.066,191.025 Z M 305.983,195.609C 304.65,194.609 303.316,193.775 301.983,193.109L 302.816,191.775C 304.094,192.386 305.455,193.247 306.9,194.359L 305.983,195.609 Z M 317.4,193.525C 316.233,195.192 315.261,196.414 314.483,197.192C 311.816,199.859 308.594,201.747 304.816,202.859C 304.705,203.303 304.566,203.414 304.4,203.192L 303.483,201.525C 307.372,200.747 310.65,199.025 313.316,196.359C 314.483,195.192 315.539,193.831 316.483,192.275L 317.4,193.525 Z "/>
	<path fill="#000000" fill-opacity="1" stroke-width="1.06667" stroke-linejoin="round" d="M 330.988,192.775L 330.822,200.859L 335.072,200.859L 335.072,202.109L 319.988,202.109L 319.988,200.859L 329.488,200.859L 329.655,194.025L 322.322,194.025L 322.322,192.775L 330.988,192.775 Z "/>
</svg>
