<?xml version="1.0" encoding="utf-8"?>
<!DOCTYPE svg PUBLIC "-//W3C//DTD SVG 1.1//EN" "http://www.w3.org/Graphics/SVG/1.1/DTD/svg11.dtd">
<svg xmlns="http://www.w3.org/2000/svg" xmlns:xlink="http://www.w3.org/1999/xlink" version="1.1" baseProfile="full" width="568" height="204" viewBox="0 0 568.00 204.00" enable-background="new 0 0 568.00 204.00" xml:space="preserve">
	<path fill="#000000" fill-opacity="1" stroke-linejoin="round" d="M 9.21598,3.15729L 2.27838,3.15729L 2.27838,8.45648L 8.85318,8.45648L 8.85318,10.3253L 2.27838,10.3253L 2.27838,17.5957L -1.78019e-005,17.5957L -1.78019e-005,1.26288L 9.21598,1.26288L 9.21598,3.15729 Z "/>
	<path fill="#000000" fill-opacity="1" stroke-linejoin="round" d="M 17.4592,3.13167L 13.696,3.13167L 13.696,1.26288L 23.4752,1.26288L 23.4752,3.13167L 19.712,3.13167L 19.712,15.7013L 23.4752,15.7013L 23.4752,17.5957L 13.696,17.5957L 13.696,15.7013L 17.4592,15.7013L 17.4592,3.13167 Z "/>
	<path fill="#000000" fill-opacity="1" stroke-linejoin="round" d="M 37.4272,3.15729L 30.4896,3.15729L 30.4896,8.45648L 37.0644,8.45648L 37.0644,10.3253L 30.4896,10.3253L 30.4896,17.5957L 28.2112,17.5957L 28.2112,1.26288L 37.4272,1.26288L 37.4272,3.15729 Z "/>
	<path fill="#000000" fill-opacity="1" stroke-linejoin="round" d="M 46.0288,6.84369L 42.3168,6.84369L 42.3168,5.05168L 48.2304,5.05168L 48.2304,15.7781L 51.968,15.7781L 51.968,17.5957L 41.9072,17.5957L 41.9072,15.7781L 46.0288,15.7781L 46.0288,6.84369 Z M 46.7968,-0.221924C 47.0387,-0.221924 47.264,-0.178116 47.4728,-0.0905151C 47.6816,-0.00291443 47.8632,0.120163 48.0176,0.278687C 48.172,0.43721 48.293,0.61882 48.3806,0.823486C 48.4682,1.02815 48.512,1.25142 48.512,1.49329C 48.512,1.72688 48.4682,1.94801 48.3806,2.15668C 48.293,2.36536 48.172,2.54901 48.0176,2.70769C 47.8632,2.86635 47.6816,2.98949 47.4728,3.07709C 47.264,3.16467 47.0387,3.20848 46.7968,3.20848C 46.5549,3.20848 46.3296,3.16467 46.1208,3.07709C 45.912,2.98949 45.7304,2.86635 45.576,2.70769C 45.4216,2.54901 45.3006,2.36536 45.213,2.15668C 45.1254,1.94801 45.0816,1.72688 45.0816,1.49329C 45.0816,1.25142 45.1254,1.02815 45.213,0.823486C 45.3006,0.61882 45.4216,0.43721 45.576,0.278687C 45.7304,0.120163 45.912,-0.00291443 46.1208,-0.0905151C 46.3296,-0.178116 46.5549,-0.221924 46.7968,-0.221924 Z "/>
	<path fill="#000000" fill-opacity="1" stroke-linejoin="round" d="M 60.1344,1.72368L 56.4224,1.72368L 56.4224,-0.0683136L 62.336,-0.0683136L 62.336,15.7781L 66.0736,15.7781L 66.0736,17.5957L 56.0128,17.5957L 56.0128,15.7781L 60.1344,15.7781L 60.1344,1.72368 Z "/>
	<path fill="#000000" fill-opacity="1" stroke-linejoin="round" d="M 80.5632,10.6537C 80.5632,10.9617 80.5591,11.2198 80.5508,11.4281C 80.5425,11.6364 80.53,11.832 80.5132,12.0149L 71.7056,12.0149C 71.7056,13.3002 72.0641,14.2872 72.7812,14.9757C 73.4983,15.6642 74.5321,16.0085 75.8828,16.0085C 76.2495,16.0085 76.6162,15.9939 76.9832,15.9647C 77.3501,15.9355 77.7045,15.8959 78.0464,15.8459C 78.3883,15.7959 78.7155,15.7397 79.0282,15.6773C 79.3409,15.6149 79.6307,15.5461 79.8976,15.4709L 79.8976,17.2629C 79.3053,17.4296 78.636,17.5651 77.8896,17.6695C 77.1432,17.7739 76.3697,17.8261 75.5692,17.8261C 74.4935,17.8261 73.5678,17.6802 72.7922,17.3883C 72.0166,17.0964 71.3807,16.6733 70.8846,16.1191C 70.3885,15.5648 70.0215,14.8854 69.7838,14.0809C 69.5461,13.2764 69.4272,12.3657 69.4272,11.3489C 69.4272,10.4649 69.5543,9.62901 69.8086,8.84129C 70.0629,8.05354 70.4337,7.36168 70.921,6.76569C 71.4083,6.16968 72.0061,5.69661 72.7142,5.34648C 73.4223,4.99635 74.2264,4.82129 75.1264,4.82129C 76.0013,4.82129 76.7763,4.95868 77.4512,5.23347C 78.1261,5.50829 78.6948,5.89754 79.1572,6.40129C 79.6196,6.90501 79.9695,7.51695 80.207,8.23708C 80.4445,8.95721 80.5632,9.76276 80.5632,10.6537 Z M 78.3104,10.3509C 78.3355,9.79222 78.2813,9.28156 78.1478,8.81889C 78.0143,8.35622 77.8079,7.95815 77.5286,7.62468C 77.2493,7.29121 76.9011,7.03075 76.4842,6.84328C 76.0673,6.65582 75.5835,6.56207 75.0328,6.56207C 74.5576,6.56207 74.1241,6.65375 73.7322,6.83708C 73.3403,7.0204 73.0026,7.27881 72.719,7.61229C 72.4354,7.94574 72.206,8.34589 72.0308,8.81268C 71.8556,9.27948 71.7472,9.79222 71.7056,10.3509L 78.3104,10.3509 Z "/>
	<path fill="#000000" fill-opacity="1" stroke-linejoin="round" d="M 58.5184,50.1249L 51.5808,50.1249L 51.5808,55.4241L 58.1556,55.4241L 58.1556,57.2929L 51.5808,57.2929L 51.5808,64.5633L 49.3024,64.5633L 49.3024,48.2305L 58.5184,48.2305L 58.5184,50.1249 Z "/>
	<path fill="#000000" fill-opacity="1" stroke-linejoin="round" d="M 66.7616,50.0993L 62.9984,50.0993L 62.9984,48.2305L 72.7776,48.2305L 72.7776,50.0993L 69.0144,50.0993L 69.0144,62.6689L 72.7776,62.6689L 72.7776,64.5633L 62.9984,64.5633L 62.9984,62.6689L 66.7616,62.6689L 66.7616,50.0993 Z "/>
	<path fill="#000000" fill-opacity="1" stroke-linejoin="round" d="M 86.7296,50.1249L 79.792,50.1249L 79.792,55.4241L 86.3668,55.4241L 86.3668,57.2929L 79.792,57.2929L 79.792,64.5633L 77.5136,64.5633L 77.5136,48.2305L 86.7296,48.2305L 86.7296,50.1249 Z "/>
	<path fill="#000000" fill-opacity="1" stroke-linejoin="round" d="M 95.3312,53.8113L 91.6192,53.8113L 91.6192,52.0193L 97.5328,52.0193L 97.5328,62.7457L 101.27,62.7457L 101.27,64.5633L 91.2096,64.5633L 91.2096,62.7457L 95.3312,62.7457L 95.3312,53.8113 Z M 96.0992,46.7457C 96.341,46.7457 96.5664,46.7895 96.7752,46.8771C 96.984,46.9647 97.1656,47.0877 97.32,47.2463C 97.4744,47.4048 97.5954,47.5864 97.683,47.7911C 97.7706,47.9957 97.8144,48.219 97.8144,48.4609C 97.8144,48.6945 97.7706,48.9156 97.683,49.1243C 97.5954,49.3329 97.4744,49.5166 97.32,49.6753C 97.1656,49.8339 96.984,49.9571 96.7752,50.0447C 96.5664,50.1323 96.341,50.1761 96.0992,50.1761C 95.8573,50.1761 95.632,50.1323 95.4232,50.0447C 95.2144,49.9571 95.0328,49.8339 94.8784,49.6753C 94.724,49.5166 94.603,49.3329 94.5154,49.1243C 94.4278,48.9156 94.384,48.6945 94.384,48.4609C 94.384,48.219 94.4278,47.9957 94.5154,47.7911C 94.603,47.5864 94.724,47.4048 94.8784,47.2463C 95.0328,47.0877 95.2144,46.9647 95.4232,46.8771C 95.632,46.7895 95.8573,46.7457 96.0992,46.7457 Z "/>
	<path fill="#000000" fill-opacity="1" stroke-linejoin="round" d="M 109.437,48.6913L 105.725,48.6913L 105.725,46.8993L 111.638,46.8993L 111.638,62.7457L 115.376,62.7457L 115.376,64.5633L 105.315,64.5633L 105.315,62.7457L 109.437,62.7457L 109.437,48.6913 Z "/>
	<path fill="#000000" fill-opacity="1" stroke-linejoin="round" d="M 129.866,57.6213C 129.866,57.9293 129.861,58.1874 129.853,58.3957C 129.845,58.6039 129.832,58.7995 129.816,58.9825L 121.008,58.9825C 121.008,60.2678 121.366,61.2547 122.084,61.9433C 122.801,62.6318 123.835,62.9761 125.185,62.9761C 125.552,62.9761 125.919,62.9615 126.286,62.9323C 126.652,62.9031 127.007,62.8635 127.349,62.8135C 127.691,62.7635 128.018,62.7073 128.331,62.6449C 128.643,62.5825 128.933,62.5137 129.2,62.4385L 129.2,64.2305C 128.608,64.3971 127.938,64.5327 127.192,64.6371C 126.446,64.7415 125.672,64.7937 124.872,64.7937C 123.796,64.7937 122.87,64.6477 122.095,64.3559C 121.319,64.064 120.683,63.6409 120.187,63.0867C 119.691,62.5324 119.324,61.853 119.086,61.0485C 118.848,60.2439 118.73,59.3333 118.73,58.3165C 118.73,57.4325 118.857,56.5966 119.111,55.8089C 119.365,55.0211 119.736,54.3293 120.223,53.7333C 120.711,53.1373 121.308,52.6642 122.017,52.3141C 122.725,51.9639 123.529,51.7889 124.429,51.7889C 125.304,51.7889 126.079,51.9263 126.754,52.2011C 127.428,52.4759 127.997,52.8651 128.46,53.3689C 128.922,53.8726 129.272,54.4845 129.509,55.2047C 129.747,55.9248 129.866,56.7303 129.866,57.6213 Z M 127.613,57.3185C 127.638,56.7598 127.584,56.2491 127.45,55.7865C 127.317,55.3238 127.11,54.9257 126.831,54.5923C 126.552,54.2588 126.203,53.9983 125.787,53.8109C 125.37,53.6234 124.886,53.5297 124.335,53.5297C 123.86,53.5297 123.426,53.6213 123.035,53.8047C 122.643,53.988 122.305,54.2464 122.021,54.5799C 121.738,54.9133 121.508,55.3135 121.333,55.7803C 121.158,56.2471 121.05,56.7598 121.008,57.3185L 127.613,57.3185 Z "/>
	<path fill="#000000" fill-opacity="1" stroke-linejoin="round" d="M 143.843,60.1417C 143.843,60.9171 143.685,61.5966 143.368,62.1801C 143.051,62.7635 142.609,63.2491 142.042,63.6367C 141.474,64.0243 140.793,64.314 139.996,64.5059C 139.2,64.6977 138.322,64.7937 137.362,64.7937C 136.929,64.7937 136.497,64.777 136.068,64.7437C 135.638,64.7103 135.225,64.6686 134.829,64.6185C 134.432,64.5683 134.059,64.5099 133.709,64.4431C 133.359,64.3763 133.042,64.3054 132.758,64.2305L 132.758,62.0801C 133.384,62.311 134.086,62.4925 134.866,62.6245C 135.645,62.7565 136.531,62.8225 137.524,62.8225C 138.241,62.8225 138.852,62.7663 139.356,62.6541C 139.861,62.5418 140.273,62.3756 140.594,62.1555C 140.915,61.9353 141.149,61.6673 141.295,61.3515C 141.441,61.0356 141.514,60.6741 141.514,60.2669C 141.514,59.825 141.391,59.4478 141.145,59.1353C 140.899,58.8227 140.576,58.5435 140.176,58.2975C 139.776,58.0515 139.32,57.8263 138.807,57.6221C 138.295,57.4178 137.772,57.2073 137.238,56.9907C 136.705,56.774 136.182,56.5385 135.669,56.2843C 135.157,56.03 134.701,55.7299 134.301,55.3839C 133.901,55.0379 133.578,54.6315 133.332,54.1647C 133.086,53.6979 132.963,53.1435 132.963,52.5017C 132.963,51.943 133.08,51.3927 133.313,50.8509C 133.547,50.309 133.91,49.8276 134.401,49.4067C 134.893,48.9857 135.525,48.6461 136.296,48.3877C 137.068,48.1293 137.987,48.0001 139.054,48.0001C 139.329,48.0001 139.627,48.0125 139.948,48.0375C 140.269,48.0624 140.595,48.0977 140.924,48.1435C 141.253,48.1892 141.578,48.2411 141.899,48.2993C 142.22,48.3574 142.518,48.4198 142.794,48.4865L 142.794,50.4833C 142.152,50.2998 141.51,50.1601 140.869,50.0641C 140.227,49.9681 139.606,49.9201 139.006,49.9201C 137.73,49.9201 136.793,50.1332 136.193,50.5595C 135.593,50.9857 135.293,51.5581 135.293,52.2765C 135.293,52.7183 135.416,53.0976 135.662,53.4143C 135.907,53.7309 136.23,54.0143 136.63,54.2645C 137.03,54.5146 137.487,54.7419 137.999,54.9463C 138.512,55.1507 139.035,55.3612 139.568,55.5779C 140.102,55.7945 140.625,56.0321 141.137,56.2905C 141.65,56.5489 142.106,56.8552 142.506,57.2095C 142.906,57.5637 143.229,57.9785 143.475,58.4537C 143.72,58.9289 143.843,59.4915 143.843,60.1417 Z "/>
	<path fill="#000000" fill-opacity="1" stroke-linejoin="round" d="M 158.205,58.0653C 158.205,59.1821 158.049,60.1573 157.736,60.9909C 157.423,61.8245 156.992,62.5163 156.442,63.0665C 155.892,63.6166 155.242,64.0292 154.492,64.3043C 153.742,64.5793 152.929,64.7169 152.054,64.7169C 151.654,64.7169 151.256,64.6958 150.861,64.6537C 150.465,64.6115 150.063,64.5397 149.654,64.4381L 149.654,69.6833L 147.478,69.6833L 147.478,52.0193L 149.417,52.0193L 149.554,54.1181C 150.179,53.2581 150.846,52.6549 151.554,52.3085C 152.263,51.9621 153.029,51.7889 153.854,51.7889C 154.571,51.7889 155.2,51.9389 155.742,52.2389C 156.284,52.5389 156.738,52.9619 157.105,53.5079C 157.471,54.0539 157.746,54.7124 157.93,55.4835C 158.113,56.2545 158.205,57.1151 158.205,58.0653 Z M 155.978,58.1605C 155.978,57.5018 155.93,56.8973 155.834,56.3471C 155.738,55.7968 155.586,55.3258 155.378,54.9341C 155.17,54.5423 154.903,54.2359 154.578,54.0149C 154.253,53.7938 153.866,53.6833 153.416,53.6833C 153.141,53.6833 152.862,53.7271 152.579,53.8147C 152.295,53.9023 152.002,54.0482 151.697,54.2525C 151.393,54.4567 151.072,54.7277 150.735,55.0653C 150.398,55.4029 150.038,55.8218 149.654,56.3221L 149.654,62.4125C 150.054,62.5794 150.475,62.7108 150.917,62.8067C 151.358,62.9025 151.791,62.9505 152.216,62.9505C 153.391,62.9505 154.311,62.5523 154.978,61.7561C 155.644,60.9598 155.978,59.7613 155.978,58.1605 Z "/>
	<path fill="#000000" fill-opacity="1" stroke-linejoin="round" d="M 162.096,52.0193L 164.085,52.0193L 164.148,54.3317C 164.89,53.4381 165.621,52.7909 166.342,52.3901C 167.063,51.9893 167.79,51.7889 168.524,51.7889C 169.825,51.7889 170.81,52.2101 171.481,53.0527C 172.152,53.8952 172.463,55.1465 172.413,56.8065L 170.211,56.8065C 170.236,55.7025 170.076,54.9017 169.73,54.4041C 169.384,53.9065 168.878,53.6577 168.211,53.6577C 167.919,53.6577 167.625,53.7099 167.329,53.8145C 167.033,53.919 166.729,54.0863 166.417,54.3165C 166.104,54.5466 165.773,54.8415 165.423,55.2011C 165.073,55.5607 164.698,55.9958 164.298,56.5065L 164.298,64.5633L 162.096,64.5633L 162.096,52.0193 Z "/>
	<path fill="#000000" fill-opacity="1" stroke-linejoin="round" d="M 58.4579,119.113L 51.5203,119.113L 51.5203,124.412L 58.0951,124.412L 58.0951,126.281L 51.5203,126.281L 51.5203,133.551L 49.2419,133.551L 49.2419,117.219L 58.4579,117.219L 58.4579,119.113 Z "/>
	<path fill="#000000" fill-opacity="1" stroke-linejoin="round" d="M 66.7011,119.087L 62.9379,119.087L 62.9379,117.219L 72.7171,117.219L 72.7171,119.087L 68.9539,119.087L 68.9539,131.657L 72.7171,131.657L 72.7171,133.551L 62.9379,133.551L 62.9379,131.657L 66.7011,131.657L 66.7011,119.087 Z "/>
	<path fill="#000000" fill-opacity="1" stroke-linejoin="round" d="M 86.6692,119.113L 79.7315,119.113L 79.7315,124.412L 86.3063,124.412L 86.3063,126.281L 79.7315,126.281L 79.7315,133.551L 77.4531,133.551L 77.4531,117.219L 86.6692,117.219L 86.6692,119.113 Z "/>
	<path fill="#000000" fill-opacity="1" stroke-linejoin="round" d="M 95.2708,122.799L 91.5587,122.799L 91.5587,121.007L 97.4724,121.007L 97.4724,131.734L 101.21,131.734L 101.21,133.551L 91.1491,133.551L 91.1491,131.734L 95.2708,131.734L 95.2708,122.799 Z M 96.0387,115.734C 96.2806,115.734 96.506,115.778 96.7148,115.865C 96.9236,115.953 97.1052,116.076 97.2596,116.234C 97.4139,116.393 97.535,116.574 97.6226,116.779C 97.7101,116.984 97.7539,117.207 97.7539,117.449C 97.7539,117.683 97.7101,117.904 97.6226,118.112C 97.535,118.321 97.4139,118.505 97.2596,118.663C 97.1052,118.822 96.9236,118.945 96.7148,119.033C 96.506,119.12 96.2806,119.164 96.0387,119.164C 95.7969,119.164 95.5716,119.12 95.3628,119.033C 95.154,118.945 94.9724,118.822 94.818,118.663C 94.6636,118.505 94.5425,118.321 94.4549,118.112C 94.3673,117.904 94.3235,117.683 94.3235,117.449C 94.3235,117.207 94.3673,116.984 94.4549,116.779C 94.5425,116.574 94.6636,116.393 94.818,116.234C 94.9724,116.076 95.154,115.953 95.3628,115.865C 95.5716,115.778 95.7969,115.734 96.0387,115.734 Z "/>
	<path fill="#000000" fill-opacity="1" stroke-linejoin="round" d="M 109.376,117.679L 105.664,117.679L 105.664,115.887L 111.578,115.887L 111.578,131.734L 115.316,131.734L 115.316,133.551L 105.255,133.551L 105.255,131.734L 109.376,131.734L 109.376,117.679 Z "/>
	<path fill="#000000" fill-opacity="1" stroke-linejoin="round" d="M 129.805,126.609C 129.805,126.917 129.801,127.175 129.793,127.384C 129.784,127.592 129.772,127.788 129.755,127.971L 120.948,127.971C 120.948,129.256 121.306,130.243 122.023,130.931C 122.74,131.62 123.774,131.964 125.125,131.964C 125.491,131.964 125.858,131.95 126.225,131.92C 126.592,131.891 126.946,131.852 127.288,131.802C 127.63,131.752 127.957,131.695 128.27,131.633C 128.583,131.571 128.873,131.502 129.14,131.427L 129.14,133.219C 128.547,133.385 127.878,133.521 127.132,133.625C 126.385,133.73 125.612,133.782 124.811,133.782C 123.735,133.782 122.81,133.636 122.034,133.344C 121.259,133.052 120.623,132.629 120.127,132.075C 119.63,131.52 119.263,130.841 119.026,130.037C 118.788,129.232 118.669,128.321 118.669,127.305C 118.669,126.421 118.796,125.585 119.051,124.797C 119.305,124.009 119.676,123.317 120.163,122.721C 120.65,122.125 121.248,121.652 121.956,121.302C 122.664,120.952 123.468,120.777 124.368,120.777C 125.243,120.777 126.018,120.914 126.693,121.189C 127.368,121.464 127.937,121.853 128.399,122.357C 128.862,122.861 129.211,123.473 129.449,124.193C 129.686,124.913 129.805,125.718 129.805,126.609 Z M 127.552,126.307C 127.577,125.748 127.523,125.237 127.39,124.775C 127.256,124.312 127.05,123.914 126.771,123.58C 126.491,123.247 126.143,122.986 125.726,122.799C 125.309,122.611 124.825,122.518 124.275,122.518C 123.8,122.518 123.366,122.609 122.974,122.793C 122.582,122.976 122.245,123.234 121.961,123.568C 121.677,123.901 121.448,124.302 121.273,124.768C 121.098,125.235 120.989,125.748 120.948,126.307L 127.552,126.307 Z "/>
	<path fill="#000000" fill-opacity="1" stroke-linejoin="round" d="M 145.088,133.551L 142.276,133.551L 138.31,127.261L 134.321,133.551L 131.546,133.551L 136.982,125.152L 131.981,117.219L 134.619,117.219L 138.351,123.037L 142.116,117.219L 144.679,117.219L 139.676,125.106L 145.088,133.551 Z "/>
	<path fill="#000000" fill-opacity="1" stroke-linejoin="round" d="M 58.4892,154.195L 51.5516,154.195L 51.5516,159.494L 58.1264,159.494L 58.1264,161.363L 51.5516,161.363L 51.5516,168.633L 49.2732,168.633L 49.2732,152.3L 58.4892,152.3L 58.4892,154.195 Z "/>
	<path fill="#000000" fill-opacity="1" stroke-linejoin="round" d="M 66.7324,154.169L 62.9692,154.169L 62.9692,152.3L 72.7484,152.3L 72.7484,154.169L 68.9852,154.169L 68.9852,166.739L 72.7484,166.739L 72.7484,168.633L 62.9692,168.633L 62.9692,166.739L 66.7324,166.739L 66.7324,154.169 Z "/>
	<path fill="#000000" fill-opacity="1" stroke-linejoin="round" d="M 86.7004,154.195L 79.7628,154.195L 79.7628,159.494L 86.3376,159.494L 86.3376,161.363L 79.7628,161.363L 79.7628,168.633L 77.4844,168.633L 77.4844,152.3L 86.7004,152.3L 86.7004,154.195 Z "/>
	<path fill="#000000" fill-opacity="1" stroke-linejoin="round" d="M 95.302,157.881L 91.59,157.881L 91.59,156.089L 97.5036,156.089L 97.5036,166.816L 101.241,166.816L 101.241,168.633L 91.1804,168.633L 91.1804,166.816L 95.302,166.816L 95.302,157.881 Z M 96.07,150.816C 96.3119,150.816 96.5372,150.859 96.746,150.947C 96.9548,151.035 97.1364,151.158 97.2908,151.316C 97.4452,151.475 97.5662,151.656 97.6538,151.861C 97.7414,152.066 97.7852,152.289 97.7852,152.531C 97.7852,152.764 97.7414,152.986 97.6538,153.194C 97.5662,153.403 97.4452,153.587 97.2908,153.745C 97.1364,153.904 96.9548,154.027 96.746,154.115C 96.5372,154.202 96.3119,154.246 96.07,154.246C 95.8281,154.246 95.6028,154.202 95.394,154.115C 95.1852,154.027 95.0036,153.904 94.8492,153.745C 94.6948,153.587 94.5738,153.403 94.4862,153.194C 94.3986,152.986 94.3548,152.764 94.3548,152.531C 94.3548,152.289 94.3986,152.066 94.4862,151.861C 94.5738,151.656 94.6948,151.475 94.8492,151.316C 95.0036,151.158 95.1852,151.035 95.394,150.947C 95.6028,150.859 95.8281,150.816 96.07,150.816 Z "/>
	<path fill="#000000" fill-opacity="1" stroke-linejoin="round" d="M 109.408,152.761L 105.696,152.761L 105.696,150.969L 111.609,150.969L 111.609,166.816L 115.347,166.816L 115.347,168.633L 105.286,168.633L 105.286,166.816L 109.408,166.816L 109.408,152.761 Z "/>
	<path fill="#000000" fill-opacity="1" stroke-linejoin="round" d="M 129.836,161.691C 129.836,161.999 129.832,162.257 129.824,162.466C 129.816,162.674 129.803,162.869 129.786,163.052L 120.979,163.052C 120.979,164.338 121.337,165.325 122.054,166.013C 122.771,166.702 123.805,167.046 125.156,167.046C 125.523,167.046 125.889,167.031 126.256,167.002C 126.623,166.973 126.978,166.933 127.32,166.883C 127.661,166.833 127.989,166.777 128.301,166.715C 128.614,166.652 128.904,166.584 129.171,166.508L 129.171,168.3C 128.579,168.467 127.909,168.603 127.163,168.707C 126.416,168.811 125.643,168.864 124.842,168.864C 123.767,168.864 122.841,168.718 122.065,168.426C 121.29,168.134 120.654,167.711 120.158,167.157C 119.662,166.602 119.295,165.923 119.057,165.118C 118.819,164.314 118.7,163.403 118.7,162.386C 118.7,161.502 118.828,160.667 119.082,159.879C 119.336,159.091 119.707,158.399 120.194,157.803C 120.682,157.207 121.279,156.734 121.987,156.384C 122.696,156.034 123.5,155.859 124.4,155.859C 125.275,155.859 126.049,155.996 126.724,156.271C 127.399,156.546 127.968,156.935 128.43,157.439C 128.893,157.943 129.243,158.554 129.48,159.275C 129.718,159.995 129.836,160.8 129.836,161.691 Z M 127.584,161.388C 127.609,160.83 127.554,160.319 127.421,159.856C 127.288,159.394 127.081,158.996 126.802,158.662C 126.522,158.329 126.174,158.068 125.757,157.881C 125.34,157.693 124.857,157.6 124.306,157.6C 123.831,157.6 123.397,157.691 123.005,157.875C 122.614,158.058 122.276,158.316 121.992,158.65C 121.709,158.983 121.479,159.383 121.304,159.85C 121.129,160.317 121.02,160.83 120.979,161.388L 127.584,161.388 Z "/>
	<path fill="#000000" fill-opacity="1" stroke-linejoin="round" d="M 145.363,152.3L 139.813,168.633L 136.813,168.633L 131.385,152.3L 133.898,152.3L 137.425,163.31L 138.425,166.534L 139.45,163.31L 142.988,152.3L 145.363,152.3 Z "/>
	<path fill="#000000" fill-opacity="1" stroke-linejoin="round" d="M 158.585,168.633L 156.073,168.633L 153.644,163.412C 153.46,163.012 153.273,162.681 153.081,162.419C 152.889,162.156 152.683,161.948 152.462,161.794C 152.241,161.64 151.999,161.529 151.737,161.463C 151.474,161.396 151.18,161.363 150.855,161.363L 149.804,161.363L 149.804,168.633L 147.577,168.633L 147.577,152.3L 151.954,152.3C 152.905,152.3 153.722,152.405 154.405,152.613C 155.089,152.821 155.65,153.113 156.087,153.488C 156.525,153.863 156.846,154.315 157.05,154.844C 157.254,155.373 157.356,155.958 157.356,156.6C 157.356,157.108 157.281,157.589 157.131,158.043C 156.981,158.498 156.758,158.91 156.462,159.281C 156.166,159.651 155.8,159.972 155.362,160.243C 154.924,160.514 154.422,160.716 153.856,160.849C 154.314,161.007 154.704,161.284 155.025,161.679C 155.346,162.074 155.673,162.6 156.006,163.257L 158.585,168.633 Z M 155.027,156.782C 155.027,155.907 154.754,155.253 154.208,154.819C 153.663,154.386 152.894,154.169 151.903,154.169L 149.804,154.169L 149.804,159.571L 151.604,159.571C 152.128,159.571 152.601,159.51 153.022,159.389C 153.442,159.268 153.8,159.089 154.096,158.852C 154.392,158.614 154.621,158.322 154.783,157.976C 154.946,157.63 155.027,157.232 155.027,156.782 Z "/>
	<path fill="#000000" fill-opacity="1" stroke-linejoin="round" d="M 173.022,168.633L 170.848,168.633L 170.514,158.422L 170.374,154.537L 169.614,156.801L 167.209,163.308L 165.671,163.308L 163.378,157.051L 162.617,154.537L 162.566,158.598L 162.272,168.633L 160.172,168.633L 160.98,152.3L 163.617,152.3L 165.811,158.46L 166.521,160.538L 167.206,158.46L 169.511,152.3L 172.224,152.3L 173.022,168.633 Z "/>
	<path fill="#000000" fill-opacity="1" stroke-linejoin="round" d="M 185.977,168.633L 176.582,168.633L 176.582,152.3L 178.835,152.3L 178.835,166.739L 185.977,166.739L 185.977,168.633 Z "/>
	<line fill="none" stroke-width="1.06667" stroke-linejoin="round" stroke="#000000" stroke-opacity="1" x1="9.76782" y1="28.5018" x2="9.76782" y2="196.362"/>
	<line fill="none" stroke-width="1.06667" stroke-linejoin="round" stroke="#000000" stroke-opacity="1" x1="10.6851" y1="55.8458" x2="36.5865" y2="55.8458"/>
	<line fill="none" stroke-width="1.06667" stroke-linejoin="round" stroke="#000000" stroke-opacity="1" x1="10.3771" y1="89.6432" x2="36.2838" y2="89.6432"/>
	<line fill="none" stroke-width="1.06667" stroke-linejoin="round" stroke="#000000" stroke-opacity="1" x1="10.8358" y1="126.242" x2="36.7425" y2="126.242"/>
	<path fill="#000000" fill-opacity="1" stroke-width="1.06667" stroke-linejoin="round" d="M 145.414,4.27278C 145.636,4.49501 145.58,4.66168 145.247,4.77278C 144.636,8.99501 143.275,12.1617 141.164,14.2728C 139.553,15.8839 137.219,17.0784 134.164,17.8561L 133.08,16.4395C 136.247,15.8284 138.636,14.7172 140.247,13.1061C 141.969,11.3839 143.08,8.77278 143.58,5.27278L 131.497,5.27278L 131.497,3.93945L 143.914,3.93945L 144.414,3.60612L 145.414,4.27278 Z "/>
	<path fill="#000000" fill-opacity="1" stroke-width="1.06667" stroke-linejoin="round" d="M 162.071,6.85612C 162.071,7.07835 161.932,7.21722 161.654,7.27278C 160.099,9.32835 158.404,11.0506 156.571,12.4395L 155.488,11.6061C 157.043,10.495 158.543,9.05055 159.988,7.27278L 147.988,7.27278L 147.988,6.02278L 160.488,6.02278L 161.071,5.85612L 162.071,6.85612 Z M 155.404,8.77278C 155.627,8.8839 155.599,9.02278 155.321,9.18945L 155.321,11.5228C 155.321,14.0228 154.488,16.1061 152.821,17.7728C 152.432,18.1617 151.793,18.6339 150.904,19.1895L 149.821,18.1895C 150.766,17.6339 151.488,17.1061 151.988,16.6061C 153.377,15.2172 154.043,13.495 153.988,11.4395L 153.988,8.77278L 155.404,8.77278 Z "/>
	<path fill="#000000" fill-opacity="1" stroke-width="1.06667" stroke-linejoin="round" d="M 177.982,2.93945C 178.26,3.16168 178.149,3.30055 177.649,3.35612C 176.371,4.85612 174.982,6.30055 173.482,7.68945L 173.482,18.6061L 172.066,18.6061L 172.066,8.77278C 170.399,10.1617 168.066,11.5228 165.066,12.8561L 163.982,11.6061C 167.927,10.1061 171.121,8.1339 173.566,5.68945C 174.677,4.57835 175.705,3.32835 176.649,1.93945L 177.982,2.93945 Z "/>
	<path fill="#000000" fill-opacity="1" stroke-width="1.06667" stroke-linejoin="round" d="M 186.147,4.02278C 186.314,4.18945 186.258,4.35612 185.98,4.52278L 185.98,7.77278C 185.98,11.6061 184.814,14.6895 182.48,17.0228C 182.203,17.3006 181.953,17.5228 181.73,17.6895L 180.48,16.6061C 180.758,16.4395 181.064,16.1895 181.397,15.8561C 183.508,13.745 184.564,11.0506 184.564,7.77278L 184.564,3.93945L 186.147,4.02278 Z M 190.73,3.10612C 190.953,3.21722 190.897,3.3839 190.564,3.60612L 190.564,15.0228C 192.842,14.0228 194.675,12.8284 196.064,11.4395C 196.564,10.9395 197.092,10.3006 197.647,9.52278L 198.564,10.6061C 198.23,11.1061 197.703,11.7172 196.98,12.4395C 195.48,13.9395 193.175,15.4395 190.064,16.9395L 188.897,16.0228L 188.897,15.9395L 189.147,15.6895L 189.147,3.02278L 190.73,3.10612 Z "/>
	<path fill="#000000" fill-opacity="1" stroke-width="1.06667" stroke-linejoin="round" d="M 267.709,46.3046L 268.959,47.5546C 269.737,48.3324 270.181,49.5824 270.292,51.3046L 268.959,51.3046C 268.848,49.9157 268.514,48.9435 267.959,48.388C 267.403,47.8324 266.681,47.5546 265.792,47.5546C 264.903,47.5546 264.181,47.8324 263.625,48.388C 262.959,49.0546 262.625,49.8324 262.625,50.7213C 262.625,51.3324 262.82,51.8324 263.209,52.2213C 263.653,52.6657 264.598,53.138 266.042,53.638C 267.653,54.1935 268.764,54.7768 269.375,55.388C 269.987,55.9991 270.292,56.8046 270.292,57.8046C 270.292,59.2491 269.875,60.388 269.042,61.2213C 268.153,62.1102 267.042,62.5546 265.709,62.5546C 264.487,62.5546 263.431,62.1102 262.542,61.2213C 261.653,60.3324 261.125,58.9991 260.959,57.2213L 262.292,57.2213C 262.459,58.6657 262.82,59.6657 263.375,60.2213C 264.042,60.888 264.82,61.2213 265.709,61.2213C 266.709,61.2213 267.487,60.9435 268.042,60.388C 268.653,59.7768 268.959,58.9991 268.959,58.0546C 268.959,57.3324 268.737,56.7491 268.292,56.3046C 267.737,55.7491 266.764,55.2491 265.375,54.8046C 263.82,54.3046 262.764,53.7768 262.209,53.2213C 261.598,52.6102 261.292,51.7768 261.292,50.7213C 261.292,49.4991 261.737,48.4435 262.625,47.5546C 263.459,46.7213 264.514,46.3046 265.792,46.3046L 267.709,46.3046 Z "/>
	<path fill="#000000" fill-opacity="1" stroke-width="1.06667" stroke-linejoin="round" d="M 277.801,61.3046L 278.467,60.638C 279.19,59.9157 279.551,58.5824 279.551,56.638C 279.551,54.9157 279.217,53.7213 278.551,53.0546C 278.106,52.6102 277.579,52.388 276.967,52.388C 276.301,52.388 275.717,52.638 275.217,53.138C 274.44,53.9157 274.051,55.138 274.051,56.8046C 274.051,58.5268 274.44,59.7768 275.217,60.5546C 275.717,61.0546 276.273,61.3046 276.884,61.3046L 277.801,61.3046 Z M 274.051,65.638L 272.884,65.638L 272.884,51.138L 274.051,51.138L 274.051,53.3046C 274.273,52.8602 274.579,52.4435 274.967,52.0546C 275.579,51.4435 276.273,51.138 277.051,51.138C 277.94,51.138 278.69,51.4435 279.301,52.0546C 280.301,53.0546 280.801,54.5824 280.801,56.638C 280.801,58.9157 280.301,60.5546 279.301,61.5546C 278.634,62.2213 277.856,62.5546 276.967,62.5546C 276.19,62.5546 275.495,62.2491 274.884,61.638C 274.495,61.2491 274.217,60.8324 274.051,60.388L 274.051,65.638 Z "/>
	<path fill="#000000" fill-opacity="1" stroke-width="1.06667" stroke-linejoin="round" d="M 288.463,52.5546C 287.574,52.6102 286.824,52.9435 286.213,53.5546C 285.436,54.3324 284.88,55.4157 284.547,56.8046L 284.547,62.5546L 283.38,62.5546L 283.38,51.138L 284.547,51.138L 284.547,54.138C 284.769,53.5268 285.158,52.9435 285.713,52.388C 286.436,51.6657 287.352,51.2491 288.463,51.138L 288.463,52.5546 Z "/>
	<path fill="#000000" fill-opacity="1" stroke-width="1.06667" stroke-linejoin="round" d="M 292.289,62.5546L 291.122,62.5546L 291.122,51.138L 292.289,51.138L 292.289,62.5546 Z M 292.372,48.0546L 291.039,48.0546L 291.039,46.3046L 292.372,46.3046L 292.372,48.0546 Z "/>
	<path fill="#000000" fill-opacity="1" stroke-width="1.06667" stroke-linejoin="round" d="M 300.631,51.138L 301.464,51.9713C 302.075,52.5824 302.381,53.6102 302.381,55.0546L 302.381,62.5546L 301.214,62.5546L 301.214,55.2213C 301.214,54.1102 300.992,53.3324 300.547,52.888C 300.214,52.5546 299.742,52.388 299.131,52.388C 298.52,52.388 297.964,52.638 297.464,53.138C 296.853,53.7491 296.409,54.5546 296.131,55.5546L 296.131,62.5546L 294.964,62.5546L 294.964,51.138L 296.131,51.138L 296.131,53.4713C 296.353,53.0268 296.659,52.6102 297.047,52.2213C 297.77,51.4991 298.547,51.138 299.381,51.138L 300.631,51.138 Z "/>
	<path fill="#000000" fill-opacity="1" stroke-width="1.06667" stroke-linejoin="round" d="M 310.636,50.888L 311.636,51.9713C 312.358,51.3046 313.219,50.9713 314.219,50.9713L 314.219,52.3046C 313.331,52.3046 312.636,52.4991 312.136,52.888C 312.414,53.5546 312.553,54.138 312.553,54.638C 312.553,55.8046 312.219,56.7213 311.553,57.388C 310.942,57.9991 310.164,58.3046 309.219,58.3046C 308.553,58.3046 307.997,58.2213 307.553,58.0546C 306.886,58.4435 306.553,58.8324 306.553,59.2213C 306.553,59.7213 307.164,59.9713 308.386,59.9713L 310.386,59.9713C 311.664,59.9713 312.608,60.2768 313.219,60.888C 313.664,61.3324 313.886,61.9157 313.886,62.638C 313.886,63.3602 313.608,63.9991 313.053,64.5546C 312.331,65.2768 311.331,65.638 310.053,65.638L 309.219,65.638C 307.442,65.638 306.219,65.3046 305.553,64.638C 305.164,64.2491 304.969,63.7491 304.969,63.138C 304.969,62.3046 305.497,61.4991 306.553,60.7213C 306.331,60.6657 306.136,60.5546 305.969,60.388C 305.692,60.1102 305.553,59.7491 305.553,59.3046C 305.553,58.8046 305.692,58.4157 305.969,58.138C 306.303,57.8046 306.581,57.5824 306.803,57.4713C 306.025,56.8046 305.636,55.8602 305.636,54.638C 305.636,53.5268 305.997,52.6102 306.719,51.888C 307.386,51.2213 308.192,50.888 309.136,50.888L 310.636,50.888 Z M 308.469,61.2213C 308.081,61.2213 307.747,61.1935 307.469,61.138C 306.469,61.6935 305.969,62.3046 305.969,62.9713C 305.969,63.3046 306.081,63.5824 306.303,63.8046C 306.692,64.1935 307.581,64.388 308.969,64.388L 309.886,64.388C 311.053,64.388 311.886,64.138 312.386,63.638C 312.664,63.3602 312.803,63.0268 312.803,62.638C 312.803,62.3046 312.664,61.9991 312.386,61.7213C 312.053,61.388 311.386,61.2213 310.386,61.2213L 308.469,61.2213 Z M 308.136,51.9713L 307.553,52.5546C 306.997,53.1102 306.719,53.8046 306.719,54.638C 306.719,55.4713 306.969,56.138 307.469,56.638C 307.914,57.0824 308.469,57.3046 309.136,57.3046C 309.803,57.3046 310.331,57.1102 310.719,56.7213C 311.219,56.2213 311.469,55.5268 311.469,54.638C 311.469,53.7491 311.219,53.0546 310.719,52.5546C 310.331,52.1657 309.803,51.9713 309.136,51.9713L 308.136,51.9713 Z "/>
	<path fill="#000000" fill-opacity="1" stroke-width="1.06667" stroke-linejoin="round" d="M 317.976,62.5546L 316.809,62.5546L 316.809,46.3046L 317.976,46.3046L 317.976,53.4713C 318.254,52.9157 318.587,52.4435 318.976,52.0546C 319.587,51.4435 320.337,51.138 321.226,51.138C 322.115,51.138 322.809,51.388 323.309,51.888C 323.976,52.5546 324.309,53.7213 324.309,55.388L 324.309,62.5546L 323.143,62.5546L 323.143,55.5546C 323.143,54.2213 322.921,53.3324 322.476,52.888C 322.087,52.4991 321.587,52.3046 320.976,52.3046C 320.365,52.3046 319.809,52.5546 319.309,53.0546C 318.421,53.9435 317.976,55.0824 317.976,56.4713L 317.976,62.5546 Z "/>
	<path fill="#000000" fill-opacity="1" stroke-width="1.06667" stroke-linejoin="round" d="M 333.9,55.8046C 333.845,54.5268 333.539,53.6102 332.983,53.0546C 332.483,52.5546 331.872,52.3046 331.15,52.3046C 330.372,52.3046 329.733,52.5546 329.233,53.0546C 328.567,53.7213 328.206,54.638 328.15,55.8046L 333.9,55.8046 Z M 332.733,51.138L 333.817,52.2213C 334.706,53.1102 335.15,54.7213 335.15,57.0546L 328.15,57.0546C 328.206,58.6657 328.567,59.8046 329.233,60.4713C 329.789,61.0268 330.428,61.3046 331.15,61.3046C 331.872,61.3046 332.511,61.0268 333.067,60.4713C 333.456,60.0824 333.706,59.5546 333.817,58.888L 334.983,58.888C 334.872,59.9435 334.511,60.7768 333.9,61.388C 333.122,62.1657 332.206,62.5546 331.15,62.5546C 330.039,62.5546 329.095,62.1657 328.317,61.388C 327.372,60.4435 326.9,58.9157 326.9,56.8046C 326.9,54.7491 327.4,53.2213 328.4,52.2213C 329.122,51.4991 330.039,51.138 331.15,51.138L 332.733,51.138 Z "/>
	<path fill="#000000" fill-opacity="1" stroke-width="1.06667" stroke-linejoin="round" d="M 343.987,56.2213C 343.376,56.6102 342.682,56.9157 341.904,57.138C 340.793,57.4713 340.015,57.8602 339.571,58.3046C 339.182,58.6935 338.987,59.138 338.987,59.638C 338.987,60.0824 339.154,60.4713 339.487,60.8046C 339.821,61.138 340.293,61.3046 340.904,61.3046C 341.737,61.3046 342.404,61.0546 342.904,60.5546C 343.349,60.1102 343.71,59.6657 343.987,59.2213L 343.987,56.2213 Z M 343.321,51.138L 344.237,52.0546C 344.849,52.6657 345.154,53.4713 345.154,54.4713L 345.154,60.138C 345.154,61.0268 345.321,61.8324 345.654,62.5546L 344.404,62.5546C 344.182,62.1657 344.043,61.6102 343.987,60.888C 343.932,60.9991 343.765,61.1935 343.487,61.4713C 342.765,62.1935 341.876,62.5546 340.821,62.5546C 339.876,62.5546 339.099,62.2491 338.487,61.638C 337.987,61.138 337.737,60.4713 337.737,59.638C 337.737,58.8602 338.015,58.1935 338.571,57.638C 339.071,57.138 339.932,56.6657 341.154,56.2213C 342.265,55.8324 343.21,55.388 343.987,54.888C 343.987,53.9991 343.793,53.3602 343.404,52.9713C 342.96,52.5268 342.404,52.3046 341.737,52.3046C 341.126,52.3046 340.599,52.5268 340.154,52.9713C 339.765,53.3602 339.515,53.9157 339.404,54.638L 338.071,54.638C 338.182,53.638 338.599,52.7768 339.321,52.0546C 339.932,51.4435 340.737,51.138 341.737,51.138L 343.321,51.138 Z "/>
	<path fill="#000000" fill-opacity="1" stroke-width="1.06667" stroke-linejoin="round" d="M 353.067,61.388L 353.983,60.4713C 354.706,59.7491 355.067,58.5546 355.067,56.888C 355.067,55.1657 354.678,53.9157 353.9,53.138C 353.345,52.5824 352.733,52.3046 352.067,52.3046C 351.511,52.3046 350.983,52.5546 350.483,53.0546C 349.817,53.7213 349.483,54.9991 349.483,56.888C 349.483,58.6657 349.845,59.9157 350.567,60.638C 351.067,61.138 351.595,61.388 352.15,61.388L 353.067,61.388 Z M 355.15,62.5546L 355.15,60.4713C 354.983,60.8602 354.706,61.2491 354.317,61.638C 353.706,62.2491 352.983,62.5546 352.15,62.5546C 351.261,62.5546 350.483,62.2213 349.817,61.5546C 348.761,60.4991 348.233,58.9435 348.233,56.888C 348.233,54.7213 348.733,53.138 349.733,52.138C 350.4,51.4713 351.178,51.138 352.067,51.138C 352.9,51.138 353.622,51.4435 354.233,52.0546C 354.733,52.5546 355.039,53.0268 355.15,53.4713L 355.15,46.3046L 356.317,46.3046L 356.317,62.5546L 355.15,62.5546 Z "/>
	<path fill="#000000" fill-opacity="1" stroke-width="1.06667" stroke-linejoin="round" d="M 365.983,60.9713L 367.15,62.3046L 366.15,63.138C 365.317,62.1935 364.456,61.3602 363.567,60.638L 364.567,59.888L 365.983,60.9713 Z M 363.15,52.9713L 367.65,52.9713L 367.65,51.388L 363.15,51.388L 363.15,52.9713 Z M 363.15,55.638L 367.65,55.638L 367.65,54.0546L 363.15,54.0546L 363.15,55.638 Z M 368.817,55.638L 373.567,55.638L 373.567,54.0546L 368.817,54.0546L 368.817,55.638 Z M 368.817,52.9713L 373.567,52.9713L 373.567,51.388L 368.817,51.388L 368.817,52.9713 Z M 369.067,45.638C 369.233,45.7491 369.15,45.9157 368.817,46.138L 368.817,47.7213L 376.983,47.7213L 376.983,48.8046L 368.817,48.8046L 368.817,50.3046L 374.733,50.3046L 374.733,57.2213L 373.567,57.2213L 373.567,56.7213L 372.4,56.7213L 372.4,58.638L 377.983,58.638L 377.983,59.7213L 372.4,59.7213L 372.4,63.2213C 372.4,64.1657 371.928,64.638 370.983,64.638L 368.817,64.638L 368.483,63.388L 370.817,63.388C 371.095,63.388 371.233,63.2491 371.233,62.9713L 371.233,59.7213L 358.817,59.7213L 358.817,58.638L 371.233,58.638L 371.233,56.7213L 363.15,56.7213L 363.15,57.388L 361.983,57.388L 361.983,50.3046L 367.65,50.3046L 367.65,48.8046L 359.817,48.8046L 359.817,47.7213L 367.65,47.7213L 367.65,45.4713L 369.067,45.638 Z "/>
	<path fill="#000000" fill-opacity="1" stroke-width="1.06667" stroke-linejoin="round" d="M 397.65,46.888L 397.65,62.9713C 397.65,63.8046 397.261,64.2213 396.483,64.2213L 394.317,64.2213L 394.067,62.9713L 396.15,62.9713C 396.372,62.9713 396.483,62.8602 396.483,62.638L 396.483,57.4713L 390.483,57.4713L 390.483,63.888L 389.317,63.888L 389.317,57.4713L 383.817,57.4713C 383.817,59.0824 383.595,60.4157 383.15,61.4713C 382.761,62.4157 382.011,63.4157 380.9,64.4713L 379.9,63.4713C 380.9,62.6935 381.622,61.7768 382.067,60.7213C 382.456,59.7768 382.65,58.6657 382.65,57.388L 382.65,46.888L 397.65,46.888 Z M 383.817,51.638L 389.317,51.638L 389.317,47.9713L 383.817,47.9713L 383.817,51.638 Z M 383.817,56.388L 389.317,56.388L 389.317,52.7213L 383.817,52.7213L 383.817,56.388 Z M 390.483,56.388L 396.483,56.388L 396.483,52.7213L 390.483,52.7213L 390.483,56.388 Z M 390.483,51.638L 396.483,51.638L 396.483,47.9713L 390.483,47.9713L 390.483,51.638 Z "/>
	<path fill="#000000" fill-opacity="1" stroke-width="1.06667" stroke-linejoin="round" d="M 409.483,54.138L 401.567,54.138L 401.567,52.8046L 418.15,52.8046L 418.15,54.138L 410.9,54.138L 410.9,55.5546C 410.9,58.6657 409.956,61.1657 408.067,63.0546C 407.845,63.2768 407.595,63.4991 407.317,63.7213L 405.983,62.7213C 406.428,62.4435 406.789,62.1657 407.067,61.888C 408.678,60.2768 409.483,58.1657 409.483,55.5546L 409.483,54.138 Z M 415.15,47.9713L 415.15,49.3046L 404.067,49.3046L 404.067,47.9713L 415.15,47.9713 Z "/>
	<path fill="#000000" fill-opacity="1" stroke-width="1.06667" stroke-linejoin="round" d="M 428.641,46.4713L 428.141,46.8046L 428.807,50.388L 434.807,49.5546L 435.057,50.888L 429.057,51.7213L 429.807,55.8046L 437.557,54.7213L 437.724,56.138L 430.057,57.138L 431.391,63.638L 429.974,63.8046L 428.724,57.3046L 420.891,58.3046L 420.641,56.888L 428.474,55.9713L 427.724,51.888L 422.224,52.638L 422.057,51.2213L 427.391,50.5546L 426.641,46.4713L 428.307,46.3046L 428.641,46.4713 Z "/>
	<path fill="#000000" fill-opacity="1" stroke-width="1.06667" stroke-linejoin="round" d="M 442.308,50.0546L 442.058,48.7213L 452.308,48.7213L 452.558,48.5546L 453.475,49.5546C 453.586,49.7768 453.419,49.888 452.975,49.888C 451.919,51.7768 450.753,53.5546 449.475,55.2213C 451.697,56.7768 454.058,58.8046 456.558,61.3046L 455.391,62.388C 452.947,59.888 450.697,57.8602 448.641,56.3046C 448.141,56.9157 447.53,57.5824 446.808,58.3046C 445.253,59.8602 443.419,61.3324 441.308,62.7213L 440.141,61.638C 442.586,60.138 444.558,58.638 446.058,57.138C 448.003,55.1935 449.725,52.8324 451.225,50.0546L 442.308,50.0546 Z "/>
	<path fill="#000000" fill-opacity="1" stroke-width="1.06667" stroke-linejoin="round" d="M 460.562,52.638C 463.118,53.5824 465.757,54.8046 468.479,56.3046L 467.645,57.7213C 465.201,56.2768 462.84,55.0824 460.562,54.138L 460.562,63.4713L 459.145,63.4713L 459.145,46.7213L 460.729,46.8046C 460.951,46.9157 460.895,47.0824 460.562,47.3046L 460.562,52.638 Z "/>
	<path fill="#000000" fill-opacity="1" stroke-width="1.06667" stroke-linejoin="round" d="M 483.729,49.3046C 483.951,49.5268 483.895,49.6935 483.562,49.8046C 482.951,54.0268 481.59,57.1935 479.479,59.3046C 477.868,60.9157 475.534,62.1102 472.479,62.888L 471.395,61.4713C 474.562,60.8602 476.951,59.7491 478.562,58.138C 480.284,56.4157 481.395,53.8046 481.895,50.3046L 469.812,50.3046L 469.812,48.9713L 482.229,48.9713L 482.729,48.638L 483.729,49.3046 Z "/>
	<path fill="#000000" fill-opacity="1" stroke-width="1.06667" stroke-linejoin="round" d="M 495.625,49.2213C 495.848,49.3324 495.792,49.4991 495.459,49.7213L 495.542,53.138L 501.292,53.138L 501.292,54.388L 495.542,54.388L 495.709,61.138L 495.709,62.8046C 495.709,63.3602 495.598,63.7491 495.375,63.9713C 495.153,64.1935 494.792,64.3046 494.292,64.3046L 492.459,64.3046L 492.125,62.9713L 493.959,63.0546C 494.125,63.0546 494.237,63.0268 494.292,62.9713C 494.403,62.8602 494.459,62.6935 494.459,62.4713L 494.459,60.888L 494.292,55.7213C 493.237,57.2213 492.181,58.4991 491.125,59.5546C 490.181,60.4991 488.931,61.4435 487.375,62.388L 486.209,61.388C 488.209,60.2768 489.792,59.138 490.959,57.9713C 492.07,56.8602 493.042,55.6657 493.875,54.388L 486.875,54.388L 486.875,53.138L 494.292,53.138L 494.125,49.2213L 495.625,49.2213 Z "/>
	<rect x="503.871" y="54.4713" fill="#000000" fill-opacity="1" stroke-width="1.06667" stroke-linejoin="round" width="17.6667" height="1.33333"/>
	<path fill="#000000" fill-opacity="1" stroke-width="1.06667" stroke-linejoin="round" d="M 539.616,50.2213C 539.838,50.4435 539.755,50.5824 539.366,50.638C 536.699,53.6935 534.394,56.0824 532.449,57.8046C 533.505,58.8046 534.533,59.888 535.533,61.0546L 534.366,62.138C 532.088,59.5268 529.672,57.1657 527.116,55.0546L 528.199,54.0546C 529.588,55.2213 530.672,56.1657 531.449,56.888C 533.394,55.2213 535.31,53.1935 537.199,50.8046L 524.283,50.8046L 524.116,49.4713L 537.616,49.4713L 538.533,49.3046L 539.616,50.2213 Z "/>
	<path fill="#000000" fill-opacity="1" stroke-width="1.06667" stroke-linejoin="round" d="M 555.54,52.0546C 555.762,52.1657 555.679,52.3046 555.29,52.4713C 554.734,56.4157 553.623,59.2213 551.957,60.888C 550.346,62.4991 548.29,63.6657 545.79,64.388L 544.707,63.138C 547.373,62.4713 549.401,61.4435 550.79,60.0546C 552.512,58.3324 553.568,55.4713 553.957,51.4713L 555.54,52.0546 Z M 548.873,53.138L 549.707,55.138L 548.457,55.8046C 547.901,54.4157 547.207,53.1102 546.373,51.888L 547.623,51.3046L 548.873,53.138 Z M 543.373,52.388C 544.262,53.7213 544.957,55.0268 545.457,56.3046L 544.207,56.9713C 543.651,55.5268 542.957,54.1657 542.123,52.888L 543.373,52.388 Z "/>
	<path fill="#000000" fill-opacity="1" stroke-width="1.06667" stroke-linejoin="round" d="M 559.538,52.638C 562.094,53.5824 564.732,54.8046 567.455,56.3046L 566.621,57.7213C 564.177,56.2768 561.816,55.0824 559.538,54.138L 559.538,63.4713L 558.121,63.4713L 558.121,46.7213L 559.705,46.8046C 559.927,46.9157 559.871,47.0824 559.538,47.3046L 559.538,52.638 Z "/>
	<path fill="#000000" fill-opacity="1" stroke-width="1.06667" stroke-linejoin="round" d="M 262.125,115.974L 262.125,129.724L 264.292,129.724C 265.737,129.724 267.014,129.168 268.125,128.057C 269.237,126.946 269.792,125.14 269.792,122.64C 269.792,120.307 269.209,118.557 268.042,117.39C 267.098,116.446 265.903,115.974 264.459,115.974L 262.125,115.974 Z M 260.959,130.974L 260.959,114.724L 264.459,114.724C 266.292,114.724 267.82,115.335 269.042,116.557C 270.431,117.946 271.125,119.974 271.125,122.64C 271.125,125.474 270.403,127.613 268.959,129.057C 267.681,130.335 266.125,130.974 264.292,130.974L 260.959,130.974 Z "/>
	<path fill="#000000" fill-opacity="1" stroke-width="1.06667" stroke-linejoin="round" d="M 274.966,130.974L 273.799,130.974L 273.799,119.557L 274.966,119.557L 274.966,130.974 Z M 275.049,116.474L 273.716,116.474L 273.716,114.724L 275.049,114.724L 275.049,116.474 Z "/>
	<path fill="#000000" fill-opacity="1" stroke-width="1.06667" stroke-linejoin="round" d="M 282.725,120.974C 281.836,121.029 281.086,121.363 280.475,121.974C 279.697,122.751 279.141,123.835 278.808,125.224L 278.808,130.974L 277.641,130.974L 277.641,119.557L 278.808,119.557L 278.808,122.557C 279.03,121.946 279.419,121.363 279.975,120.807C 280.697,120.085 281.614,119.668 282.725,119.557L 282.725,120.974 Z "/>
	<path fill="#000000" fill-opacity="1" stroke-width="1.06667" stroke-linejoin="round" d="M 292.3,124.224C 292.245,122.946 291.939,122.029 291.383,121.474C 290.883,120.974 290.272,120.724 289.55,120.724C 288.772,120.724 288.133,120.974 287.633,121.474C 286.967,122.14 286.606,123.057 286.55,124.224L 292.3,124.224 Z M 291.133,119.557L 292.217,120.64C 293.106,121.529 293.55,123.14 293.55,125.474L 286.55,125.474C 286.606,127.085 286.967,128.224 287.633,128.89C 288.189,129.446 288.828,129.724 289.55,129.724C 290.272,129.724 290.911,129.446 291.467,128.89C 291.856,128.501 292.106,127.974 292.217,127.307L 293.383,127.307C 293.272,128.363 292.911,129.196 292.3,129.807C 291.522,130.585 290.606,130.974 289.55,130.974C 288.439,130.974 287.495,130.585 286.717,129.807C 285.772,128.863 285.3,127.335 285.3,125.224C 285.3,123.168 285.8,121.64 286.8,120.64C 287.522,119.918 288.439,119.557 289.55,119.557L 291.133,119.557 Z "/>
	<path fill="#000000" fill-opacity="1" stroke-width="1.06667" stroke-linejoin="round" d="M 301.971,119.557L 302.971,120.557C 303.693,121.279 304.082,122.251 304.137,123.474L 302.887,123.474C 302.832,122.529 302.582,121.835 302.137,121.39C 301.693,120.946 301.137,120.724 300.471,120.724C 299.749,120.724 299.11,121.001 298.554,121.557C 297.776,122.335 297.387,123.585 297.387,125.307C 297.387,127.029 297.749,128.251 298.471,128.974C 299.026,129.529 299.637,129.807 300.304,129.807C 300.915,129.807 301.415,129.613 301.804,129.224C 302.36,128.668 302.721,127.751 302.887,126.474L 304.137,126.474C 304.026,128.029 303.61,129.168 302.887,129.89C 302.165,130.613 301.332,130.974 300.387,130.974C 299.276,130.974 298.36,130.613 297.637,129.89C 296.637,128.89 296.137,127.363 296.137,125.307C 296.137,123.251 296.637,121.724 297.637,120.724C 298.415,119.946 299.36,119.557 300.471,119.557L 301.971,119.557 Z "/>
	<path fill="#000000" fill-opacity="1" stroke-width="1.06667" stroke-linejoin="round" d="M 308.135,120.807L 306.719,120.807L 306.719,119.557L 308.135,119.557L 308.135,116.39L 309.302,116.39L 309.302,119.557L 311.719,119.557L 311.719,120.807L 309.302,120.807L 309.302,128.724C 309.302,129.057 309.385,129.307 309.552,129.474C 309.719,129.64 309.997,129.724 310.385,129.724C 310.774,129.724 311.274,129.64 311.885,129.474L 311.885,130.724C 311.441,130.89 310.885,130.974 310.219,130.974C 309.497,130.974 308.969,130.807 308.635,130.474C 308.302,130.14 308.135,129.64 308.135,128.974L 308.135,120.807 Z "/>
	<path fill="#000000" fill-opacity="1" stroke-width="1.06667" stroke-linejoin="round" d="M 327.629,122.724L 332.045,130.974L 330.545,130.974L 326.879,124.057L 323.045,130.974L 321.545,130.974L 326.129,122.724L 321.712,114.724L 323.212,114.724L 326.879,121.39L 330.295,114.724L 331.795,114.724L 327.629,122.724 Z "/>
	<path fill="#000000" fill-opacity="1" stroke-width="1.06667" stroke-linejoin="round" d="M 266.071,165.697L 270.071,151.447L 271.487,151.447L 266.737,167.697L 265.404,167.697L 260.654,151.447L 262.071,151.447L 266.071,165.697 Z "/>
	<path fill="#000000" fill-opacity="1" stroke-width="1.06667" stroke-linejoin="round" d="M 275.239,152.697L 275.239,158.947L 278.989,158.947C 280.267,158.947 281.212,158.642 281.823,158.031C 282.378,157.475 282.656,156.725 282.656,155.781C 282.656,154.836 282.378,154.086 281.823,153.531C 281.267,152.975 280.434,152.697 279.323,152.697L 275.239,152.697 Z M 284.573,167.697L 283.156,167.697L 278.823,160.197L 275.239,160.197L 275.239,167.697L 274.073,167.697L 274.073,151.447L 279.323,151.447C 280.823,151.447 281.962,151.836 282.739,152.614C 283.517,153.392 283.906,154.447 283.906,155.781C 283.906,157.114 283.517,158.17 282.739,158.947C 282.128,159.559 281.239,159.947 280.073,160.114L 284.573,167.697 Z "/>
	<path fill="#000000" fill-opacity="1" stroke-width="1.06667" stroke-linejoin="round" d="M 288.322,151.447L 292.739,165.614L 297.239,151.447L 298.989,151.447L 298.989,167.697L 297.822,167.697L 297.822,153.114L 293.322,167.697L 292.155,167.697L 287.655,153.114L 287.655,167.697L 286.489,167.697L 286.489,151.447L 288.322,151.447 Z "/>
	<path fill="#000000" fill-opacity="1" stroke-width="1.06667" stroke-linejoin="round" d="M 302.738,166.447L 310.238,166.447L 310.238,167.697L 301.571,167.697L 301.571,151.447L 302.738,151.447L 302.738,166.447 Z "/>
	<path fill="#000000" fill-opacity="1" stroke-width="1.06667" stroke-linejoin="round" d="M 58.8601,189.331L 51.9225,189.331L 51.9225,194.63L 58.4973,194.63L 58.4973,196.499L 51.9225,196.499L 51.9225,203.77L 49.6441,203.77L 49.6441,187.437L 58.8601,187.437L 58.8601,189.331 Z "/>
	<path fill="#000000" fill-opacity="1" stroke-width="1.06667" stroke-linejoin="round" d="M 67.1033,189.306L 63.3401,189.306L 63.3401,187.437L 73.1193,187.437L 73.1193,189.306L 69.3561,189.306L 69.3561,201.875L 73.1193,201.875L 73.1193,203.77L 63.3401,203.77L 63.3401,201.875L 67.1033,201.875L 67.1033,189.306 Z "/>
	<path fill="#000000" fill-opacity="1" stroke-width="1.06667" stroke-linejoin="round" d="M 87.0713,189.331L 80.1337,189.331L 80.1337,194.63L 86.7085,194.63L 86.7085,196.499L 80.1337,196.499L 80.1337,203.77L 77.8553,203.77L 77.8553,187.437L 87.0713,187.437L 87.0713,189.331 Z "/>
	<path fill="#000000" fill-opacity="1" stroke-width="1.06667" stroke-linejoin="round" d="M 95.6729,193.018L 91.9609,193.018L 91.9609,191.226L 97.8745,191.226L 97.8745,201.952L 101.612,201.952L 101.612,203.77L 91.5513,203.77L 91.5513,201.952L 95.6729,201.952L 95.6729,193.018 Z M 96.4409,185.952C 96.6828,185.952 96.9081,185.996 97.1169,186.083C 97.3257,186.171 97.5073,186.294 97.6617,186.453C 97.8161,186.611 97.9371,186.793 98.0247,186.997C 98.1123,187.202 98.1561,187.425 98.1561,187.667C 98.1561,187.901 98.1123,188.122 98.0247,188.331C 97.9371,188.539 97.8161,188.723 97.6617,188.882C 97.5073,189.04 97.3257,189.163 97.1169,189.251C 96.9081,189.339 96.6828,189.382 96.4409,189.382C 96.1991,189.382 95.9737,189.339 95.7649,189.251C 95.5561,189.163 95.3745,189.04 95.2201,188.882C 95.0657,188.723 94.9447,188.539 94.8571,188.331C 94.7695,188.122 94.7257,187.901 94.7257,187.667C 94.7257,187.425 94.7695,187.202 94.8571,186.997C 94.9447,186.793 95.0657,186.611 95.2201,186.453C 95.3745,186.294 95.5561,186.171 95.7649,186.083C 95.9737,185.996 96.1991,185.952 96.4409,185.952 Z "/>
	<path fill="#000000" fill-opacity="1" stroke-width="1.06667" stroke-linejoin="round" d="M 109.779,187.898L 106.067,187.898L 106.067,186.106L 111.98,186.106L 111.98,201.952L 115.718,201.952L 115.718,203.77L 105.657,203.77L 105.657,201.952L 109.779,201.952L 109.779,187.898 Z "/>
	<path fill="#000000" fill-opacity="1" stroke-width="1.06667" stroke-linejoin="round" d="M 130.207,196.828C 130.207,197.136 130.203,197.394 130.195,197.602C 130.187,197.81 130.174,198.006 130.157,198.189L 121.35,198.189C 121.35,199.474 121.708,200.461 122.425,201.15C 123.142,201.838 124.176,202.182 125.527,202.182C 125.894,202.182 126.26,202.168 126.627,202.139C 126.994,202.109 127.349,202.07 127.691,202.02C 128.032,201.97 128.36,201.914 128.672,201.851C 128.985,201.789 129.275,201.72 129.542,201.645L 129.542,203.437C 128.949,203.603 128.28,203.739 127.534,203.843C 126.787,203.948 126.014,204 125.213,204C 124.138,204 123.212,203.854 122.436,203.562C 121.661,203.27 121.025,202.847 120.529,202.293C 120.033,201.739 119.666,201.059 119.428,200.255C 119.19,199.45 119.071,198.54 119.071,197.523C 119.071,196.639 119.198,195.803 119.453,195.015C 119.707,194.227 120.078,193.536 120.565,192.94C 121.052,192.344 121.65,191.871 122.358,191.52C 123.066,191.17 123.871,190.995 124.771,190.995C 125.645,190.995 126.42,191.133 127.095,191.407C 127.77,191.682 128.339,192.071 128.801,192.575C 129.264,193.079 129.614,193.691 129.851,194.411C 130.089,195.131 130.207,195.937 130.207,196.828 Z M 127.955,196.525C 127.98,195.966 127.925,195.455 127.792,194.993C 127.658,194.53 127.452,194.132 127.173,193.799C 126.893,193.465 126.545,193.205 126.128,193.017C 125.711,192.83 125.228,192.736 124.677,192.736C 124.202,192.736 123.768,192.828 123.376,193.011C 122.984,193.194 122.647,193.453 122.363,193.786C 122.08,194.12 121.85,194.52 121.675,194.987C 121.5,195.453 121.391,195.966 121.35,196.525L 127.955,196.525 Z "/>
	<path fill="#000000" fill-opacity="1" stroke-width="1.06667" stroke-linejoin="round" d="M 144.159,203.155C 142.851,203.701 141.48,203.974 140.046,203.974C 137.737,203.974 135.964,203.285 134.726,201.905C 133.489,200.525 132.87,198.485 132.87,195.784C 132.87,194.476 133.041,193.292 133.382,192.233C 133.724,191.175 134.212,190.276 134.845,189.539C 135.479,188.801 136.245,188.232 137.146,187.832C 138.046,187.432 139.054,187.232 140.171,187.232C 140.93,187.232 141.634,187.297 142.284,187.427C 142.934,187.557 143.559,187.757 144.159,188.026L 144.159,190.202C 143.567,189.877 142.954,189.63 142.32,189.459C 141.686,189.288 140.994,189.203 140.243,189.203C 139.475,189.203 138.781,189.347 138.159,189.634C 137.538,189.922 137.01,190.339 136.576,190.884C 136.143,191.43 135.809,192.097 135.575,192.884C 135.342,193.672 135.225,194.57 135.225,195.578C 135.225,197.695 135.655,199.29 136.514,200.365C 137.373,201.44 138.633,201.978 140.293,201.978C 140.994,201.978 141.665,201.897 142.308,201.735C 142.95,201.573 143.567,201.346 144.159,201.056L 144.159,203.155 Z "/>
	<path fill="#000000" fill-opacity="1" stroke-width="1.06667" stroke-linejoin="round" d="M 158.751,197.397C 158.751,198.373 158.614,199.267 158.339,200.08C 158.064,200.892 157.668,201.588 157.151,202.168C 156.634,202.747 156.005,203.197 155.264,203.518C 154.522,203.839 153.68,204 152.738,204C 151.838,204 151.032,203.86 150.319,203.581C 149.607,203.302 149.003,202.891 148.507,202.349C 148.011,201.807 147.632,201.136 147.369,200.336C 147.107,199.536 146.975,198.615 146.975,197.573C 146.975,196.597 147.113,195.707 147.388,194.903C 147.663,194.098 148.059,193.406 148.576,192.827C 149.092,192.248 149.721,191.798 150.463,191.477C 151.205,191.156 152.047,190.995 152.988,190.995C 153.888,190.995 154.694,191.135 155.407,191.414C 156.12,191.694 156.724,192.102 157.22,192.64C 157.716,193.177 158.095,193.846 158.358,194.646C 158.62,195.447 158.751,196.364 158.751,197.397 Z M 156.524,197.491C 156.524,196.716 156.439,196.038 156.268,195.459C 156.097,194.879 155.854,194.396 155.537,194.008C 155.221,193.62 154.836,193.328 154.382,193.132C 153.928,192.936 153.421,192.838 152.863,192.838C 152.213,192.838 151.657,192.966 151.195,193.22C 150.733,193.474 150.354,193.814 150.059,194.239C 149.763,194.665 149.546,195.159 149.409,195.722C 149.271,196.285 149.203,196.874 149.203,197.491C 149.203,198.267 149.288,198.947 149.459,199.53C 149.629,200.114 149.873,200.599 150.189,200.987C 150.506,201.375 150.889,201.667 151.339,201.863C 151.789,202.059 152.297,202.157 152.863,202.157C 153.513,202.157 154.069,202.03 154.531,201.775C 154.993,201.521 155.372,201.181 155.668,200.756C 155.964,200.331 156.18,199.837 156.318,199.274C 156.455,198.711 156.524,198.117 156.524,197.491 Z "/>
	<path fill="#000000" fill-opacity="1" stroke-width="1.06667" stroke-linejoin="round" d="M 166.201,187.898L 162.489,187.898L 162.489,186.106L 168.403,186.106L 168.403,201.952L 172.14,201.952L 172.14,203.77L 162.079,203.77L 162.079,201.952L 166.201,201.952L 166.201,187.898 Z "/>
	<path fill="#000000" fill-opacity="1" stroke-width="1.06667" stroke-linejoin="round" d="M 180.307,187.898L 176.595,187.898L 176.595,186.106L 182.508,186.106L 182.508,201.952L 186.246,201.952L 186.246,203.77L 176.185,203.77L 176.185,201.952L 180.307,201.952L 180.307,187.898 Z "/>
	<path fill="#000000" fill-opacity="1" stroke-width="1.06667" stroke-linejoin="round" d="M 198.207,203.77L 198.157,202.083C 197.473,202.759 196.78,203.248 196.075,203.549C 195.371,203.85 194.631,204 193.855,204C 193.139,204 192.526,203.908 192.017,203.725C 191.509,203.541 191.09,203.289 190.761,202.968C 190.432,202.647 190.19,202.27 190.036,201.836C 189.881,201.403 189.804,200.932 189.804,200.424C 189.804,199.165 190.273,198.179 191.211,197.466C 192.149,196.753 193.535,196.397 195.369,196.397L 197.971,196.397L 197.971,195.294C 197.971,194.551 197.733,193.956 197.258,193.509C 196.782,193.062 196.057,192.838 195.081,192.838C 194.373,192.838 193.674,192.918 192.986,193.078C 192.298,193.238 191.588,193.465 190.854,193.76L 190.854,191.789C 191.129,191.69 191.435,191.593 191.772,191.498C 192.109,191.403 192.465,191.318 192.84,191.243C 193.214,191.169 193.606,191.109 194.014,191.063C 194.422,191.018 194.834,190.995 195.25,190.995C 196.008,190.995 196.691,191.079 197.299,191.245C 197.907,191.412 198.421,191.666 198.842,192.008C 199.262,192.35 199.585,192.779 199.809,193.295C 200.034,193.812 200.147,194.42 200.147,195.12L 200.147,203.77L 198.207,203.77 Z M 197.971,198.061L 195.208,198.061C 194.666,198.061 194.2,198.115 193.808,198.223C 193.417,198.331 193.096,198.485 192.846,198.685C 192.596,198.885 192.41,199.124 192.29,199.403C 192.169,199.682 192.108,199.997 192.108,200.346C 192.108,200.588 192.146,200.819 192.221,201.04C 192.296,201.26 192.417,201.456 192.583,201.627C 192.75,201.797 192.967,201.933 193.233,202.033C 193.5,202.132 193.825,202.182 194.208,202.182C 194.708,202.182 195.281,202.03 195.927,201.727C 196.572,201.423 197.254,200.942 197.971,200.284L 197.971,198.061 Z "/>
	<path fill="#000000" fill-opacity="1" stroke-width="1.06667" stroke-linejoin="round" d="M 203.602,197.761C 203.602,196.694 203.749,195.746 204.041,194.917C 204.333,194.087 204.748,193.387 205.286,192.816C 205.824,192.245 206.471,191.812 207.226,191.516C 207.981,191.22 208.822,191.072 209.748,191.072C 210.148,191.072 210.542,191.097 210.93,191.147C 211.318,191.197 211.7,191.276 212.076,191.384L 212.076,186.106L 214.252,186.106L 214.252,203.77L 212.312,203.77L 212.237,201.399C 211.628,202.283 210.969,202.937 210.26,203.362C 209.551,203.787 208.783,204 207.957,204C 207.24,204 206.608,203.85 206.062,203.55C 205.515,203.25 205.061,202.827 204.698,202.281C 204.335,201.735 204.062,201.079 203.878,200.312C 203.694,199.545 203.602,198.695 203.602,197.761 Z M 205.83,197.616C 205.83,199.134 206.053,200.266 206.5,201.012C 206.946,201.758 207.578,202.131 208.396,202.131C 208.947,202.131 209.529,201.885 210.142,201.393C 210.755,200.902 211.4,200.172 212.076,199.205L 212.076,193.377C 211.717,193.21 211.321,193.083 210.887,192.995C 210.453,192.908 210.023,192.864 209.597,192.864C 208.413,192.864 207.488,193.248 206.825,194.015C 206.161,194.782 205.83,195.982 205.83,197.616 Z "/>
	<path fill="#000000" fill-opacity="1" stroke-width="1.06667" stroke-linejoin="round" d="M 226.418,203.77L 226.368,202.083C 225.685,202.759 224.991,203.248 224.286,203.549C 223.582,203.85 222.842,204 222.067,204C 221.35,204 220.737,203.908 220.229,203.725C 219.72,203.541 219.301,203.289 218.972,202.968C 218.643,202.647 218.401,202.27 218.247,201.836C 218.092,201.403 218.015,200.932 218.015,200.424C 218.015,199.165 218.484,198.179 219.422,197.466C 220.36,196.753 221.746,196.397 223.581,196.397L 226.182,196.397L 226.182,195.294C 226.182,194.551 225.944,193.956 225.469,193.509C 224.993,193.062 224.268,192.838 223.292,192.838C 222.584,192.838 221.885,192.918 221.197,193.078C 220.51,193.238 219.799,193.465 219.065,193.76L 219.065,191.789C 219.34,191.69 219.646,191.593 219.983,191.498C 220.32,191.403 220.676,191.318 221.051,191.243C 221.426,191.169 221.817,191.109 222.225,191.063C 222.633,191.018 223.045,190.995 223.461,190.995C 224.219,190.995 224.902,191.079 225.51,191.245C 226.118,191.412 226.632,191.666 227.053,192.008C 227.473,192.35 227.796,192.779 228.021,193.295C 228.245,193.812 228.358,194.42 228.358,195.12L 228.358,203.77L 226.418,203.77 Z M 226.182,198.061L 223.419,198.061C 222.878,198.061 222.411,198.115 222.019,198.223C 221.628,198.331 221.307,198.485 221.057,198.685C 220.807,198.885 220.622,199.124 220.501,199.403C 220.38,199.682 220.319,199.997 220.319,200.346C 220.319,200.588 220.357,200.819 220.432,201.04C 220.507,201.26 220.628,201.456 220.794,201.627C 220.961,201.797 221.178,201.933 221.445,202.033C 221.711,202.132 222.036,202.182 222.419,202.182C 222.919,202.182 223.492,202.03 224.138,201.727C 224.784,201.423 225.465,200.942 226.182,200.284L 226.182,198.061 Z "/>
	<path fill="#000000" fill-opacity="1" stroke-width="1.06667" stroke-linejoin="round" d="M 58.7997,84.5765L 51.8621,84.5765L 51.8621,89.8757L 58.4369,89.8757L 58.4369,91.7445L 51.8621,91.7445L 51.8621,99.0149L 49.5837,99.0149L 49.5837,82.6821L 58.7997,82.6821L 58.7997,84.5765 Z "/>
	<path fill="#000000" fill-opacity="1" stroke-width="1.06667" stroke-linejoin="round" d="M 67.0429,84.5509L 63.2797,84.5509L 63.2797,82.6821L 73.0589,82.6821L 73.0589,84.5509L 69.2957,84.5509L 69.2957,97.1205L 73.0589,97.1205L 73.0589,99.0149L 63.2797,99.0149L 63.2797,97.1205L 67.0429,97.1205L 67.0429,84.5509 Z "/>
	<path fill="#000000" fill-opacity="1" stroke-width="1.06667" stroke-linejoin="round" d="M 87.0109,84.5765L 80.0733,84.5765L 80.0733,89.8757L 86.6481,89.8757L 86.6481,91.7445L 80.0733,91.7445L 80.0733,99.0149L 77.7949,99.0149L 77.7949,82.6821L 87.0109,82.6821L 87.0109,84.5765 Z "/>
	<path fill="#000000" fill-opacity="1" stroke-width="1.06667" stroke-linejoin="round" d="M 95.6125,88.2629L 91.9005,88.2629L 91.9005,86.4709L 97.8141,86.4709L 97.8141,97.1973L 101.552,97.1973L 101.552,99.0149L 91.4909,99.0149L 91.4909,97.1973L 95.6125,97.1973L 95.6125,88.2629 Z M 96.3805,81.1973C 96.6224,81.1973 96.8477,81.2411 97.0565,81.3287C 97.2653,81.4163 97.4469,81.5393 97.6013,81.6979C 97.7557,81.8564 97.8767,82.038 97.9643,82.2427C 98.0519,82.4473 98.0957,82.6706 98.0957,82.9125C 98.0957,83.1461 98.0519,83.3672 97.9643,83.5759C 97.8767,83.7845 97.7557,83.9682 97.6013,84.1269C 97.4469,84.2856 97.2653,84.4087 97.0565,84.4963C 96.8477,84.5839 96.6224,84.6277 96.3805,84.6277C 96.1386,84.6277 95.9133,84.5839 95.7045,84.4963C 95.4957,84.4087 95.3141,84.2856 95.1597,84.1269C 95.0053,83.9682 94.8843,83.7845 94.7967,83.5759C 94.7091,83.3672 94.6653,83.1461 94.6653,82.9125C 94.6653,82.6706 94.7091,82.4473 94.7967,82.2427C 94.8843,82.038 95.0053,81.8564 95.1597,81.6979C 95.3141,81.5393 95.4957,81.4163 95.7045,81.3287C 95.9133,81.2411 96.1386,81.1973 96.3805,81.1973 Z "/>
	<path fill="#000000" fill-opacity="1" stroke-width="1.06667" stroke-linejoin="round" d="M 109.718,83.1429L 106.006,83.1429L 106.006,81.3509L 111.92,81.3509L 111.92,97.1973L 115.657,97.1973L 115.657,99.0149L 105.597,99.0149L 105.597,97.1973L 109.718,97.1973L 109.718,83.1429 Z "/>
	<path fill="#000000" fill-opacity="1" stroke-width="1.06667" stroke-linejoin="round" d="M 130.147,92.0729C 130.147,92.3809 130.143,92.639 130.135,92.8473C 130.126,93.0555 130.114,93.2512 130.097,93.4341L 121.289,93.4341C 121.289,94.7194 121.648,95.7064 122.365,96.3949C 123.082,97.0834 124.116,97.4277 125.467,97.4277C 125.833,97.4277 126.2,97.4131 126.567,97.3839C 126.934,97.3547 127.288,97.3151 127.63,97.2651C 127.972,97.2151 128.299,97.1589 128.612,97.0965C 128.925,97.0341 129.214,96.9653 129.481,96.8901L 129.481,98.6821C 128.889,98.8487 128.22,98.9843 127.473,99.0887C 126.727,99.1931 125.953,99.2453 125.153,99.2453C 124.077,99.2453 123.152,99.0993 122.376,98.8075C 121.6,98.5156 120.964,98.0926 120.468,97.5383C 119.972,96.984 119.605,96.3046 119.368,95.5001C 119.13,94.6955 119.011,93.7849 119.011,92.7681C 119.011,91.8841 119.138,91.0482 119.392,90.2605C 119.647,89.4727 120.017,88.7809 120.505,88.1849C 120.992,87.5889 121.59,87.1158 122.298,86.7657C 123.006,86.4156 123.81,86.2405 124.71,86.2405C 125.585,86.2405 126.36,86.3779 127.035,86.6527C 127.71,86.9275 128.279,87.3167 128.741,87.8205C 129.203,88.3242 129.553,88.9361 129.791,89.6563C 130.028,90.3764 130.147,91.1819 130.147,92.0729 Z M 127.894,91.7701C 127.919,91.2114 127.865,90.7007 127.732,90.2381C 127.598,89.7754 127.392,89.3773 127.112,89.0439C 126.833,88.7104 126.485,88.45 126.068,88.2625C 125.651,88.075 125.167,87.9813 124.617,87.9813C 124.141,87.9813 123.708,88.0729 123.316,88.2563C 122.924,88.4396 122.586,88.698 122.303,89.0315C 122.019,89.365 121.79,89.7651 121.615,90.2319C 121.439,90.6987 121.331,91.2114 121.289,91.7701L 127.894,91.7701 Z "/>
	<path fill="#000000" fill-opacity="1" stroke-width="1.06667" stroke-linejoin="round" d="M 144.227,94.1293C 144.227,94.9125 144.077,95.606 143.776,96.2099C 143.476,96.8138 143.047,97.3239 142.492,97.7405C 141.936,98.157 141.264,98.4735 140.478,98.6901C 139.691,98.9066 138.816,99.0149 137.853,99.0149L 133.629,99.0149L 133.629,82.6821L 138.245,82.6821C 141.84,82.6821 143.638,84.0069 143.638,86.6565C 143.638,87.5397 143.43,88.2979 143.015,88.9311C 142.599,89.5643 141.923,90.035 140.985,90.3433C 141.422,90.4268 141.837,90.5684 142.229,90.7683C 142.62,90.9681 142.965,91.2263 143.262,91.5429C 143.559,91.8594 143.794,92.2343 143.967,92.6675C 144.14,93.1007 144.227,93.588 144.227,94.1293 Z M 141.411,86.9545C 141.411,86.6206 141.361,86.3055 141.262,86.0093C 141.163,85.713 140.989,85.4584 140.741,85.2455C 140.493,85.0326 140.159,84.8635 139.737,84.7385C 139.315,84.6134 138.782,84.5509 138.137,84.5509L 135.856,84.5509L 135.856,89.6709L 138.063,89.6709C 138.567,89.6709 139.024,89.6166 139.433,89.5081C 139.842,89.3995 140.194,89.2326 140.487,89.0073C 140.781,88.782 141.008,88.5003 141.169,88.1625C 141.33,87.8246 141.411,87.4219 141.411,86.9545 Z M 142,94.2053C 142,93.788 141.912,93.4124 141.737,93.0785C 141.562,92.7446 141.307,92.463 140.974,92.2335C 140.64,92.004 140.233,91.8268 139.754,91.7017C 139.274,91.5766 138.734,91.5141 138.133,91.5141L 135.856,91.5141L 135.856,97.1461L 138.208,97.1461C 139.484,97.1461 140.435,96.9083 141.061,96.4327C 141.687,95.9571 142,95.2146 142,94.2053 Z "/>
	<path fill="#000000" fill-opacity="1" stroke-width="1.06667" stroke-linejoin="round" d="M 152.035,88.2629L 148.323,88.2629L 148.323,86.4709L 154.237,86.4709L 154.237,97.1973L 157.974,97.1973L 157.974,99.0149L 147.913,99.0149L 147.913,97.1973L 152.035,97.1973L 152.035,88.2629 Z M 152.803,81.1973C 153.045,81.1973 153.27,81.2411 153.479,81.3287C 153.688,81.4163 153.869,81.5393 154.024,81.6979C 154.178,81.8564 154.299,82.038 154.387,82.2427C 154.474,82.4473 154.518,82.6706 154.518,82.9125C 154.518,83.1461 154.474,83.3672 154.387,83.5759C 154.299,83.7845 154.178,83.9682 154.024,84.1269C 153.869,84.2856 153.688,84.4087 153.479,84.4963C 153.27,84.5839 153.045,84.6277 152.803,84.6277C 152.561,84.6277 152.336,84.5839 152.127,84.4963C 151.918,84.4087 151.737,84.2856 151.582,84.1269C 151.428,83.9682 151.307,83.7845 151.219,83.5759C 151.132,83.3672 151.088,83.1461 151.088,82.9125C 151.088,82.6706 151.132,82.4473 151.219,82.2427C 151.307,82.038 151.428,81.8564 151.582,81.6979C 151.737,81.5393 151.918,81.4163 152.127,81.3287C 152.336,81.2411 152.561,81.1973 152.803,81.1973 Z "/>
	<path fill="#000000" fill-opacity="1" stroke-width="1.06667" stroke-linejoin="round" d="M 161.865,86.4709L 163.804,86.4709L 163.891,88.4949C 164.258,88.0608 164.612,87.6997 164.954,87.4117C 165.295,87.1237 165.63,86.892 165.959,86.7167C 166.288,86.5414 166.624,86.4182 166.965,86.3471C 167.307,86.276 167.661,86.2405 168.027,86.2405C 169.319,86.2405 170.296,86.6217 170.958,87.3843C 171.62,88.1468 171.952,89.2946 171.952,90.8277L 171.952,99.0149L 169.776,99.0149L 169.776,90.9985C 169.776,90.0145 169.592,89.2869 169.226,88.8159C 168.859,88.3448 168.314,88.1093 167.59,88.1093C 167.323,88.1093 167.063,88.1489 166.809,88.2281C 166.554,88.3073 166.29,88.4448 166.015,88.6407C 165.74,88.8365 165.443,89.1012 165.122,89.4347C 164.801,89.7682 164.441,90.185 164.041,90.6853L 164.041,99.0149L 161.865,99.0149L 161.865,86.4709 Z "/>
	<path fill="#000000" fill-opacity="1" stroke-width="1.06667" stroke-linejoin="round" d="M 184.041,99.0149L 183.991,97.3285C 183.307,98.0048 182.614,98.4933 181.909,98.7941C 181.205,99.0949 180.465,99.2453 179.689,99.2453C 178.972,99.2453 178.36,99.1535 177.851,98.9699C 177.343,98.7863 176.924,98.5341 176.595,98.2133C 176.266,97.8925 176.024,97.5153 175.87,97.0817C 175.715,96.6481 175.638,96.1771 175.638,95.6689C 175.638,94.41 176.107,93.4241 177.045,92.7113C 177.983,91.9985 179.369,91.6421 181.203,91.6421L 183.805,91.6421L 183.805,90.5393C 183.805,89.7961 183.567,89.201 183.091,88.7541C 182.616,88.3072 181.891,88.0837 180.915,88.0837C 180.206,88.0837 179.508,88.1636 178.82,88.3235C 178.132,88.4833 177.422,88.7106 176.688,89.0053L 176.688,87.0341C 176.963,86.9349 177.269,86.8378 177.606,86.7429C 177.943,86.6479 178.299,86.5632 178.674,86.4887C 179.048,86.4141 179.44,86.3541 179.848,86.3087C 180.256,86.2632 180.668,86.2405 181.084,86.2405C 181.842,86.2405 182.525,86.3238 183.133,86.4905C 183.741,86.6571 184.255,86.9113 184.675,87.2531C 185.096,87.5948 185.419,88.024 185.643,88.5407C 185.868,89.0574 185.981,89.6656 185.981,90.3653L 185.981,99.0149L 184.041,99.0149 Z M 183.805,93.3061L 181.042,93.3061C 180.5,93.3061 180.034,93.3601 179.642,93.4683C 179.251,93.5764 178.93,93.7304 178.68,93.9303C 178.43,94.1301 178.244,94.3696 178.123,94.6487C 178.003,94.9277 177.942,95.2421 177.942,95.5917C 177.942,95.8333 177.98,96.0644 178.055,96.2851C 178.13,96.5057 178.251,96.7014 178.417,96.8721C 178.584,97.0427 178.801,97.178 179.067,97.2779C 179.334,97.3777 179.659,97.4277 180.042,97.4277C 180.542,97.4277 181.115,97.2757 181.761,96.9719C 182.406,96.668 183.088,96.1871 183.805,95.5293L 183.805,93.3061 Z "/>
	<path fill="#000000" fill-opacity="1" stroke-width="1.06667" stroke-linejoin="round" d="M 190.589,86.4709L 192.578,86.4709L 192.64,88.7833C 193.382,87.8897 194.114,87.2425 194.835,86.8417C 195.556,86.4409 196.283,86.2405 197.016,86.2405C 198.317,86.2405 199.303,86.6618 199.974,87.5043C 200.645,88.3468 200.955,89.5981 200.905,91.2581L 198.704,91.2581C 198.729,90.1541 198.568,89.3533 198.222,88.8557C 197.877,88.3581 197.37,88.1093 196.703,88.1093C 196.412,88.1093 196.118,88.1616 195.822,88.2661C 195.526,88.3706 195.222,88.538 194.909,88.7681C 194.597,88.9982 194.265,89.2931 193.915,89.6527C 193.565,90.0123 193.19,90.4474 192.79,90.9581L 192.79,99.0149L 190.589,99.0149L 190.589,86.4709 Z "/>
	<path fill="#000000" fill-opacity="1" stroke-width="1.06667" stroke-linejoin="round" d="M 215.331,86.4709L 211.064,97.6705C 210.623,98.8156 210.167,99.8018 209.696,100.629C 209.225,101.456 208.71,102.135 208.152,102.666C 207.594,103.197 206.981,103.587 206.315,103.837C 205.648,104.087 204.902,104.212 204.077,104.212C 203.861,104.212 203.665,104.207 203.49,104.199C 203.315,104.191 203.123,104.178 202.915,104.16L 202.915,102.189C 203.098,102.215 203.298,102.238 203.515,102.259C 203.731,102.281 203.961,102.292 204.202,102.292C 204.602,102.292 204.975,102.233 205.321,102.117C 205.666,102 205.993,101.81 206.302,101.548C 206.61,101.285 206.906,100.945 207.189,100.528C 207.473,100.111 207.748,99.6069 208.014,99.0149L 202.992,86.4709L 205.466,86.4709L 208.65,94.7797L 209.289,96.7161L 210.013,94.7169L 212.944,86.4709L 215.331,86.4709 Z "/>
	<line fill="none" stroke-width="1.06667" stroke-linejoin="round" stroke="#000000" stroke-opacity="1" x1="11.0238" y1="160.919" x2="36.9291" y2="160.919"/>
	<line fill="none" stroke-width="1.06667" stroke-linejoin="round" stroke="#000000" stroke-opacity="1" x1="10.7211" y1="195.658" x2="36.6225" y2="195.658"/>
	<path fill="#000000" fill-opacity="1" stroke-width="1.06667" stroke-linejoin="round" d="M 268.717,185.511L 270.05,186.844C 271.217,188.011 271.856,189.511 271.967,191.344L 270.634,191.344C 270.412,189.844 269.912,188.705 269.134,187.928C 268.467,187.261 267.689,186.928 266.8,186.928C 265.912,186.928 265.106,187.289 264.384,188.011C 263.217,189.178 262.634,191.094 262.634,193.761C 262.634,196.428 263.162,198.289 264.217,199.344C 264.884,200.011 265.717,200.344 266.717,200.344C 267.717,200.344 268.55,200.011 269.217,199.344C 269.995,198.567 270.467,197.317 270.634,195.594L 271.967,195.594C 271.8,197.761 271.217,199.344 270.217,200.344C 269.273,201.289 268.134,201.761 266.8,201.761C 265.412,201.761 264.217,201.261 263.217,200.261C 261.939,198.983 261.3,196.761 261.3,193.594C 261.3,190.705 262.05,188.511 263.55,187.011C 264.55,186.011 265.634,185.511 266.8,185.511L 268.717,185.511 Z "/>
	<path fill="#000000" fill-opacity="1" stroke-width="1.06667" stroke-linejoin="round" d="M 278.548,186.844L 277.382,188.011C 276.326,189.067 275.798,190.928 275.798,193.594L 275.798,193.678C 275.798,196.344 276.326,198.205 277.382,199.261C 278.16,200.039 279.048,200.428 280.048,200.428C 281.048,200.428 281.937,200.039 282.715,199.261C 283.715,198.261 284.215,196.4 284.215,193.678L 284.215,193.594C 284.215,190.872 283.715,189.011 282.715,188.011C 281.937,187.233 281.048,186.844 280.048,186.844L 278.548,186.844 Z M 282.132,185.511L 283.632,187.011C 284.91,188.289 285.548,190.483 285.548,193.594L 285.548,193.678C 285.548,196.789 284.91,198.983 283.632,200.261C 282.632,201.261 281.437,201.761 280.048,201.761C 278.66,201.761 277.465,201.261 276.465,200.261C 275.187,198.983 274.548,196.789 274.548,193.678L 274.548,193.594C 274.548,190.483 275.187,188.289 276.465,187.011C 277.465,186.011 278.66,185.511 280.048,185.511L 282.132,185.511 Z "/>
	<path fill="#000000" fill-opacity="1" stroke-width="1.06667" stroke-linejoin="round" d="M 289.304,200.511L 296.804,200.511L 296.804,201.761L 288.138,201.761L 288.138,185.511L 289.304,185.511L 289.304,200.511 Z "/>
	<path fill="#000000" fill-opacity="1" stroke-width="1.06667" stroke-linejoin="round" d="M 300.547,200.511L 308.047,200.511L 308.047,201.761L 299.38,201.761L 299.38,185.511L 300.547,185.511L 300.547,200.511 Z "/>
	<path fill="#000000" fill-opacity="1" stroke-width="1.06667" stroke-linejoin="round" d="M 318.79,195.511L 316.373,187.428L 313.957,195.511L 318.79,195.511 Z M 322.123,201.761L 320.707,201.761L 319.207,196.761L 313.54,196.761L 311.957,201.761L 310.623,201.761L 315.707,185.511L 317.04,185.511L 322.123,201.761 Z "/>
	<path fill="#000000" fill-opacity="1" stroke-width="1.06667" stroke-linejoin="round" d="M 325.87,186.761L 325.87,200.511L 328.036,200.511C 329.481,200.511 330.759,199.955 331.87,198.844C 332.981,197.733 333.536,195.928 333.536,193.428C 333.536,191.094 332.953,189.344 331.786,188.178C 330.842,187.233 329.648,186.761 328.203,186.761L 325.87,186.761 Z M 324.703,201.761L 324.703,185.511L 328.203,185.511C 330.036,185.511 331.564,186.122 332.786,187.344C 334.175,188.733 334.87,190.761 334.87,193.428C 334.87,196.261 334.148,198.4 332.703,199.844C 331.425,201.122 329.87,201.761 328.036,201.761L 324.703,201.761 Z "/>
	<path fill="#000000" fill-opacity="1" stroke-width="1.06667" stroke-linejoin="round" d="M 345.627,195.511L 343.21,187.428L 340.794,195.511L 345.627,195.511 Z M 348.96,201.761L 347.544,201.761L 346.044,196.761L 340.377,196.761L 338.794,201.761L 337.46,201.761L 342.544,185.511L 343.877,185.511L 348.96,201.761 Z "/>
	<path fill="#000000" fill-opacity="1" stroke-width="1.06667" stroke-linejoin="round" d="M 268.05,80.1872L 269.3,81.4372C 270.078,82.215 270.523,83.465 270.634,85.1872L 269.3,85.1872C 269.189,83.7983 268.856,82.8261 268.3,82.2705C 267.745,81.715 267.023,81.4372 266.134,81.4372C 265.245,81.4372 264.523,81.715 263.967,82.2705C 263.3,82.9372 262.967,83.715 262.967,84.6039C 262.967,85.215 263.162,85.715 263.55,86.1039C 263.995,86.5483 264.939,87.0205 266.384,87.5205C 267.995,88.0761 269.106,88.6594 269.717,89.2705C 270.328,89.8817 270.634,90.6872 270.634,91.6872C 270.634,93.1317 270.217,94.2705 269.384,95.1039C 268.495,95.9928 267.384,96.4372 266.05,96.4372C 264.828,96.4372 263.773,95.9928 262.884,95.1039C 261.995,94.215 261.467,92.8817 261.3,91.1039L 262.634,91.1039C 262.8,92.5483 263.162,93.5483 263.717,94.1039C 264.384,94.7705 265.162,95.1039 266.05,95.1039C 267.05,95.1039 267.828,94.8261 268.384,94.2705C 268.995,93.6594 269.3,92.8817 269.3,91.9372C 269.3,91.215 269.078,90.6317 268.634,90.1872C 268.078,89.6317 267.106,89.1317 265.717,88.6872C 264.162,88.1872 263.106,87.6594 262.55,87.1039C 261.939,86.4928 261.634,85.6594 261.634,84.6039C 261.634,83.3817 262.078,82.3261 262.967,81.4372C 263.8,80.6039 264.856,80.1872 266.134,80.1872L 268.05,80.1872 Z "/>
	<path fill="#000000" fill-opacity="1" stroke-width="1.06667" stroke-linejoin="round" d="M 278.142,95.1872L 278.809,94.5205C 279.531,93.7983 279.892,92.465 279.892,90.5205C 279.892,88.7983 279.559,87.6039 278.892,86.9372C 278.448,86.4928 277.92,86.2705 277.309,86.2705C 276.642,86.2705 276.059,86.5205 275.559,87.0205C 274.781,87.7983 274.392,89.0205 274.392,90.6872C 274.392,92.4094 274.781,93.6594 275.559,94.4372C 276.059,94.9372 276.615,95.1872 277.226,95.1872L 278.142,95.1872 Z M 274.392,99.5205L 273.226,99.5205L 273.226,85.0205L 274.392,85.0205L 274.392,87.1872C 274.615,86.7428 274.92,86.3261 275.309,85.9372C 275.92,85.3261 276.615,85.0205 277.392,85.0205C 278.281,85.0205 279.031,85.3261 279.642,85.9372C 280.642,86.9372 281.142,88.465 281.142,90.5205C 281.142,92.7983 280.642,94.4372 279.642,95.4372C 278.976,96.1039 278.198,96.4372 277.309,96.4372C 276.531,96.4372 275.837,96.1317 275.226,95.5205C 274.837,95.1317 274.559,94.715 274.392,94.2705L 274.392,99.5205 Z "/>
	<path fill="#000000" fill-opacity="1" stroke-width="1.06667" stroke-linejoin="round" d="M 288.805,86.4372C 287.916,86.4928 287.166,86.8261 286.555,87.4372C 285.777,88.215 285.222,89.2983 284.888,90.6872L 284.888,96.4372L 283.722,96.4372L 283.722,85.0205L 284.888,85.0205L 284.888,88.0205C 285.111,87.4094 285.5,86.8261 286.055,86.2705C 286.777,85.5483 287.694,85.1317 288.805,85.0205L 288.805,86.4372 Z "/>
	<path fill="#000000" fill-opacity="1" stroke-width="1.06667" stroke-linejoin="round" d="M 292.63,96.4372L 291.464,96.4372L 291.464,85.0205L 292.63,85.0205L 292.63,96.4372 Z M 292.714,81.9372L 291.38,81.9372L 291.38,80.1872L 292.714,80.1872L 292.714,81.9372 Z "/>
	<path fill="#000000" fill-opacity="1" stroke-width="1.06667" stroke-linejoin="round" d="M 300.972,85.0205L 301.806,85.8539C 302.417,86.465 302.722,87.4928 302.722,88.9372L 302.722,96.4372L 301.556,96.4372L 301.556,89.1039C 301.556,87.9928 301.334,87.215 300.889,86.7705C 300.556,86.4372 300.084,86.2705 299.472,86.2705C 298.861,86.2705 298.306,86.5205 297.806,87.0205C 297.195,87.6317 296.75,88.4372 296.472,89.4372L 296.472,96.4372L 295.306,96.4372L 295.306,85.0205L 296.472,85.0205L 296.472,87.3539C 296.695,86.9094 297,86.4928 297.389,86.1039C 298.111,85.3817 298.889,85.0205 299.722,85.0205L 300.972,85.0205 Z "/>
	<path fill="#000000" fill-opacity="1" stroke-width="1.06667" stroke-linejoin="round" d="M 310.978,84.7705L 311.978,85.8539C 312.7,85.1872 313.561,84.8539 314.561,84.8539L 314.561,86.1872C 313.672,86.1872 312.978,86.3817 312.478,86.7705C 312.756,87.4372 312.894,88.0205 312.894,88.5205C 312.894,89.6872 312.561,90.6039 311.894,91.2705C 311.283,91.8817 310.506,92.1872 309.561,92.1872C 308.894,92.1872 308.339,92.1039 307.894,91.9372C 307.228,92.3261 306.894,92.715 306.894,93.1039C 306.894,93.6039 307.506,93.8539 308.728,93.8539L 310.728,93.8539C 312.006,93.8539 312.95,94.1594 313.561,94.7705C 314.006,95.215 314.228,95.7983 314.228,96.5205C 314.228,97.2428 313.95,97.8817 313.394,98.4372C 312.672,99.1594 311.672,99.5205 310.394,99.5205L 309.561,99.5205C 307.783,99.5205 306.561,99.1872 305.894,98.5205C 305.506,98.1317 305.311,97.6317 305.311,97.0205C 305.311,96.1872 305.839,95.3817 306.894,94.6039C 306.672,94.5483 306.478,94.4372 306.311,94.2705C 306.033,93.9928 305.894,93.6317 305.894,93.1872C 305.894,92.6872 306.033,92.2983 306.311,92.0205C 306.644,91.6872 306.922,91.465 307.144,91.3539C 306.367,90.6872 305.978,89.7428 305.978,88.5205C 305.978,87.4094 306.339,86.4928 307.061,85.7705C 307.728,85.1039 308.533,84.7705 309.478,84.7705L 310.978,84.7705 Z M 308.811,95.1039C 308.422,95.1039 308.089,95.0761 307.811,95.0205C 306.811,95.5761 306.311,96.1872 306.311,96.8539C 306.311,97.1872 306.422,97.465 306.644,97.6872C 307.033,98.0761 307.922,98.2705 309.311,98.2705L 310.228,98.2705C 311.394,98.2705 312.228,98.0205 312.728,97.5205C 313.006,97.2428 313.144,96.9094 313.144,96.5205C 313.144,96.1872 313.006,95.8817 312.728,95.6039C 312.394,95.2705 311.728,95.1039 310.728,95.1039L 308.811,95.1039 Z M 308.478,85.8539L 307.894,86.4372C 307.339,86.9928 307.061,87.6872 307.061,88.5205C 307.061,89.3539 307.311,90.0205 307.811,90.5205C 308.256,90.965 308.811,91.1872 309.478,91.1872C 310.144,91.1872 310.672,90.9928 311.061,90.6039C 311.561,90.1039 311.811,89.4094 311.811,88.5205C 311.811,87.6317 311.561,86.9372 311.061,86.4372C 310.672,86.0483 310.144,85.8539 309.478,85.8539L 308.478,85.8539 Z "/>
	<path fill="#000000" fill-opacity="1" stroke-width="1.06667" stroke-linejoin="round" d="M 318.318,96.4372L 317.151,96.4372L 317.151,80.1872L 318.318,80.1872L 318.318,87.3539C 318.596,86.7983 318.929,86.3261 319.318,85.9372C 319.929,85.3261 320.679,85.0205 321.568,85.0205C 322.457,85.0205 323.151,85.2705 323.651,85.7705C 324.318,86.4372 324.651,87.6039 324.651,89.2705L 324.651,96.4372L 323.484,96.4372L 323.484,89.4372C 323.484,88.1039 323.262,87.215 322.818,86.7705C 322.429,86.3817 321.929,86.1872 321.318,86.1872C 320.707,86.1872 320.151,86.4372 319.651,86.9372C 318.762,87.8261 318.318,88.965 318.318,90.3539L 318.318,96.4372 Z "/>
	<path fill="#000000" fill-opacity="1" stroke-width="1.06667" stroke-linejoin="round" d="M 334.242,89.6872C 334.186,88.4094 333.881,87.4928 333.325,86.9372C 332.825,86.4372 332.214,86.1872 331.492,86.1872C 330.714,86.1872 330.075,86.4372 329.575,86.9372C 328.908,87.6039 328.547,88.5205 328.492,89.6872L 334.242,89.6872 Z M 333.075,85.0205L 334.158,86.1039C 335.047,86.9928 335.492,88.6039 335.492,90.9372L 328.492,90.9372C 328.547,92.5483 328.908,93.6872 329.575,94.3539C 330.131,94.9094 330.77,95.1872 331.492,95.1872C 332.214,95.1872 332.853,94.9094 333.408,94.3539C 333.797,93.965 334.047,93.4372 334.158,92.7705L 335.325,92.7705C 335.214,93.8261 334.853,94.6594 334.242,95.2705C 333.464,96.0483 332.547,96.4372 331.492,96.4372C 330.381,96.4372 329.436,96.0483 328.658,95.2705C 327.714,94.3261 327.242,92.7983 327.242,90.6872C 327.242,88.6317 327.742,87.1039 328.742,86.1039C 329.464,85.3817 330.381,85.0205 331.492,85.0205L 333.075,85.0205 Z "/>
	<path fill="#000000" fill-opacity="1" stroke-width="1.06667" stroke-linejoin="round" d="M 344.329,90.1039C 343.718,90.4928 343.024,90.7983 342.246,91.0205C 341.135,91.3539 340.357,91.7428 339.912,92.1872C 339.524,92.5761 339.329,93.0205 339.329,93.5205C 339.329,93.965 339.496,94.3539 339.829,94.6872C 340.162,95.0205 340.635,95.1872 341.246,95.1872C 342.079,95.1872 342.746,94.9372 343.246,94.4372C 343.69,93.9928 344.051,93.5483 344.329,93.1039L 344.329,90.1039 Z M 343.662,85.0205L 344.579,85.9372C 345.19,86.5483 345.496,87.3539 345.496,88.3539L 345.496,94.0205C 345.496,94.9094 345.662,95.715 345.996,96.4372L 344.746,96.4372C 344.524,96.0483 344.385,95.4928 344.329,94.7705C 344.274,94.8817 344.107,95.0761 343.829,95.3539C 343.107,96.0761 342.218,96.4372 341.162,96.4372C 340.218,96.4372 339.44,96.1317 338.829,95.5205C 338.329,95.0205 338.079,94.3539 338.079,93.5205C 338.079,92.7428 338.357,92.0761 338.912,91.5205C 339.412,91.0205 340.274,90.5483 341.496,90.1039C 342.607,89.715 343.551,89.2705 344.329,88.7705C 344.329,87.8817 344.135,87.2428 343.746,86.8539C 343.301,86.4094 342.746,86.1872 342.079,86.1872C 341.468,86.1872 340.94,86.4094 340.496,86.8539C 340.107,87.2428 339.857,87.7983 339.746,88.5205L 338.412,88.5205C 338.524,87.5205 338.94,86.6594 339.662,85.9372C 340.274,85.3261 341.079,85.0205 342.079,85.0205L 343.662,85.0205 Z "/>
	<path fill="#000000" fill-opacity="1" stroke-width="1.06667" stroke-linejoin="round" d="M 353.408,95.2705L 354.325,94.3539C 355.047,93.6317 355.408,92.4372 355.408,90.7705C 355.408,89.0483 355.02,87.7983 354.242,87.0205C 353.686,86.465 353.075,86.1872 352.408,86.1872C 351.853,86.1872 351.325,86.4372 350.825,86.9372C 350.158,87.6039 349.825,88.8817 349.825,90.7705C 349.825,92.5483 350.186,93.7983 350.908,94.5205C 351.408,95.0205 351.936,95.2705 352.492,95.2705L 353.408,95.2705 Z M 355.492,96.4372L 355.492,94.3539C 355.325,94.7428 355.047,95.1317 354.658,95.5205C 354.047,96.1317 353.325,96.4372 352.492,96.4372C 351.603,96.4372 350.825,96.1039 350.158,95.4372C 349.103,94.3817 348.575,92.8261 348.575,90.7705C 348.575,88.6039 349.075,87.0205 350.075,86.0205C 350.742,85.3539 351.52,85.0205 352.408,85.0205C 353.242,85.0205 353.964,85.3261 354.575,85.9372C 355.075,86.4372 355.381,86.9094 355.492,87.3539L 355.492,80.1872L 356.658,80.1872L 356.658,96.4372L 355.492,96.4372 Z "/>
	<path fill="#000000" fill-opacity="1" stroke-width="1.06667" stroke-linejoin="round" d="M 366.325,94.8539L 367.492,96.1872L 366.492,97.0205C 365.658,96.0761 364.797,95.2428 363.908,94.5205L 364.908,93.7705L 366.325,94.8539 Z M 363.492,86.8539L 367.992,86.8539L 367.992,85.2705L 363.492,85.2705L 363.492,86.8539 Z M 363.492,89.5205L 367.992,89.5205L 367.992,87.9372L 363.492,87.9372L 363.492,89.5205 Z M 369.158,89.5205L 373.908,89.5205L 373.908,87.9372L 369.158,87.9372L 369.158,89.5205 Z M 369.158,86.8539L 373.908,86.8539L 373.908,85.2705L 369.158,85.2705L 369.158,86.8539 Z M 369.408,79.5205C 369.575,79.6317 369.492,79.7983 369.158,80.0205L 369.158,81.6039L 377.325,81.6039L 377.325,82.6872L 369.158,82.6872L 369.158,84.1872L 375.075,84.1872L 375.075,91.1039L 373.908,91.1039L 373.908,90.6039L 372.742,90.6039L 372.742,92.5205L 378.325,92.5205L 378.325,93.6039L 372.742,93.6039L 372.742,97.1039C 372.742,98.0483 372.27,98.5205 371.325,98.5205L 369.158,98.5205L 368.825,97.2705L 371.158,97.2705C 371.436,97.2705 371.575,97.1317 371.575,96.8539L 371.575,93.6039L 359.158,93.6039L 359.158,92.5205L 371.575,92.5205L 371.575,90.6039L 363.492,90.6039L 363.492,91.2705L 362.325,91.2705L 362.325,84.1872L 367.992,84.1872L 367.992,82.6872L 360.158,82.6872L 360.158,81.6039L 367.992,81.6039L 367.992,79.3539L 369.408,79.5205 Z "/>
	<path fill="#000000" fill-opacity="1" stroke-width="1.06667" stroke-linejoin="round" d="M 397.992,80.7705L 397.992,96.8539C 397.992,97.6872 397.603,98.1039 396.825,98.1039L 394.658,98.1039L 394.408,96.8539L 396.492,96.8539C 396.714,96.8539 396.825,96.7428 396.825,96.5205L 396.825,91.3539L 390.825,91.3539L 390.825,97.7705L 389.658,97.7705L 389.658,91.3539L 384.158,91.3539C 384.158,92.965 383.936,94.2983 383.492,95.3539C 383.103,96.2983 382.353,97.2983 381.242,98.3539L 380.242,97.3539C 381.242,96.5761 381.964,95.6594 382.408,94.6039C 382.797,93.6594 382.992,92.5483 382.992,91.2705L 382.992,80.7705L 397.992,80.7705 Z M 384.158,85.5205L 389.658,85.5205L 389.658,81.8539L 384.158,81.8539L 384.158,85.5205 Z M 384.158,90.2705L 389.658,90.2705L 389.658,86.6039L 384.158,86.6039L 384.158,90.2705 Z M 390.825,90.2705L 396.825,90.2705L 396.825,86.6039L 390.825,86.6039L 390.825,90.2705 Z M 390.825,85.5205L 396.825,85.5205L 396.825,81.8539L 390.825,81.8539L 390.825,85.5205 Z "/>
	<path fill="#000000" fill-opacity="1" stroke-width="1.06667" stroke-linejoin="round" d="M 417.408,83.7705L 418.158,84.9372L 417.158,85.6872C 416.547,84.7428 415.714,83.8261 414.658,82.9372L 415.658,82.2705L 417.408,83.7705 Z M 419.075,81.8539L 420.242,83.4372L 419.242,84.1872C 418.464,83.1317 417.603,82.2428 416.658,81.5205L 417.658,80.8539L 419.075,81.8539 Z M 408.575,84.9372C 408.742,85.1039 408.658,85.2428 408.325,85.3539C 407.214,89.2983 405.52,92.5761 403.242,95.1872L 401.908,94.3539C 404.464,91.2428 406.131,87.9094 406.908,84.3539L 408.575,84.9372 Z M 417.408,89.0205L 419.408,94.1039L 417.908,94.9372C 416.464,91.3261 414.464,88.0205 411.908,85.0205L 413.242,84.2705L 417.408,89.0205 Z "/>
	<path fill="#000000" fill-opacity="1" stroke-width="1.06667" stroke-linejoin="round" d="M 434.911,81.8539C 435.189,82.0761 435.078,82.215 434.578,82.2705C 433.3,83.7705 431.911,85.215 430.411,86.6039L 430.411,97.5205L 428.995,97.5205L 428.995,87.6872C 427.328,89.0761 424.995,90.4372 421.995,91.7705L 420.911,90.5205C 424.856,89.0205 428.05,87.0483 430.495,84.6039C 431.606,83.4928 432.633,82.2428 433.578,80.8539L 434.911,81.8539 Z "/>
	<path fill="#000000" fill-opacity="1" stroke-width="1.06667" stroke-linejoin="round" d="M 447.326,80.6039C 447.548,80.715 447.493,80.8817 447.159,81.1039L 447.159,85.4372L 454.576,85.4372L 454.576,86.7705L 447.159,86.7705L 447.159,88.4372C 447.159,91.6039 446.326,94.0205 444.659,95.6872C 443.881,96.465 443.104,97.0761 442.326,97.5205L 441.076,96.5205C 441.965,96.0761 442.826,95.4372 443.659,94.6039C 445.048,93.215 445.743,91.1594 445.743,88.4372L 445.743,86.7705L 437.493,86.7705L 437.493,85.4372L 445.743,85.4372L 445.743,80.5205L 447.326,80.6039 Z "/>
	<path fill="#000000" fill-opacity="1" stroke-width="1.06667" stroke-linejoin="round" d="M 466.912,81.1039C 467.134,81.215 467.079,81.3817 466.745,81.6039C 466.801,82.9372 466.829,84.2428 466.829,85.5205L 466.829,89.5205C 466.829,91.965 466.079,93.9372 464.579,95.4372C 463.745,96.2705 462.551,97.1039 460.995,97.9372L 459.829,96.7705C 461.495,95.9928 462.773,95.1594 463.662,94.2705C 464.829,93.1039 465.412,91.5205 465.412,89.5205L 465.412,85.5205C 465.412,84.1317 465.356,82.6317 465.245,81.0205L 466.912,81.1039 Z M 458.745,81.9372C 458.912,81.9928 458.856,82.1594 458.579,82.4372L 458.579,90.9372L 457.162,90.9372L 457.162,81.8539L 458.745,81.9372 Z "/>
	<path fill="#000000" fill-opacity="1" stroke-width="1.06667" stroke-linejoin="round" d="M 483.324,83.1872C 483.546,83.4094 483.491,83.5761 483.157,83.6872C 482.546,87.9094 481.185,91.0761 479.074,93.1872C 477.463,94.7983 475.129,95.9928 472.074,96.7705L 470.991,95.3539C 474.157,94.7428 476.546,93.6317 478.157,92.0205C 479.879,90.2983 480.991,87.6872 481.491,84.1872L 469.407,84.1872L 469.407,82.8539L 481.824,82.8539L 482.324,82.5205L 483.324,83.1872 Z "/>
	<path fill="#000000" fill-opacity="1" stroke-width="1.06667" stroke-linejoin="round" d="M 495.217,83.1039C 495.439,83.215 495.384,83.3817 495.051,83.6039L 495.134,87.0205L 500.884,87.0205L 500.884,88.2705L 495.134,88.2705L 495.301,95.0205L 495.301,96.6872C 495.301,97.2428 495.189,97.6317 494.967,97.8539C 494.745,98.0761 494.384,98.1872 493.884,98.1872L 492.051,98.1872L 491.717,96.8539L 493.551,96.9372C 493.717,96.9372 493.828,96.9094 493.884,96.8539C 493.995,96.7428 494.051,96.5761 494.051,96.3539L 494.051,94.7705L 493.884,89.6039C 492.828,91.1039 491.773,92.3817 490.717,93.4372C 489.773,94.3817 488.523,95.3261 486.967,96.2705L 485.801,95.2705C 487.801,94.1594 489.384,93.0205 490.551,91.8539C 491.662,90.7428 492.634,89.5483 493.467,88.2705L 486.467,88.2705L 486.467,87.0205L 493.884,87.0205L 493.717,83.1039L 495.217,83.1039 Z "/>
	<rect x="503.462" y="88.3539" fill="#000000" fill-opacity="1" stroke-width="1.06667" stroke-linejoin="round" width="17.6667" height="1.33334"/>
	<path fill="#000000" fill-opacity="1" stroke-width="1.06667" stroke-linejoin="round" d="M 539.208,84.1039C 539.43,84.3261 539.347,84.465 538.958,84.5205C 536.291,87.5761 533.986,89.965 532.041,91.6872C 533.097,92.6872 534.124,93.7705 535.124,94.9372L 533.958,96.0205C 531.68,93.4094 529.263,91.0483 526.708,88.9372L 527.791,87.9372C 529.18,89.1039 530.263,90.0483 531.041,90.7705C 532.986,89.1039 534.902,87.0761 536.791,84.6872L 523.874,84.6872L 523.708,83.3539L 537.208,83.3539L 538.124,83.1872L 539.208,84.1039 Z "/>
	<path fill="#000000" fill-opacity="1" stroke-width="1.06667" stroke-linejoin="round" d="M 555.132,85.9372C 555.354,86.0483 555.271,86.1872 554.882,86.3539C 554.326,90.2983 553.215,93.1039 551.548,94.7705C 549.937,96.3817 547.882,97.5483 545.382,98.2705L 544.298,97.0205C 546.965,96.3539 548.993,95.3261 550.382,93.9372C 552.104,92.215 553.16,89.3539 553.548,85.3539L 555.132,85.9372 Z M 548.465,87.0205L 549.298,89.0205L 548.048,89.6872C 547.493,88.2983 546.798,86.9928 545.965,85.7705L 547.215,85.1872L 548.465,87.0205 Z M 542.965,86.2705C 543.854,87.6039 544.548,88.9094 545.048,90.1872L 543.798,90.8539C 543.243,89.4094 542.548,88.0483 541.715,86.7705L 542.965,86.2705 Z "/>
	<path fill="#000000" fill-opacity="1" stroke-width="1.06667" stroke-linejoin="round" d="M 559.13,86.5205C 561.685,87.465 564.324,88.6872 567.046,90.1872L 566.213,91.6039C 563.769,90.1594 561.408,88.965 559.13,88.0205L 559.13,97.3539L 557.713,97.3539L 557.713,80.6039L 559.296,80.6872C 559.519,80.7983 559.463,80.965 559.13,81.1872L 559.13,86.5205 Z "/>
</svg>
