<?xml version="1.0" encoding="utf-8"?>
<!DOCTYPE svg PUBLIC "-//W3C//DTD SVG 1.1//EN" "http://www.w3.org/Graphics/SVG/1.1/DTD/svg11.dtd">
<svg xmlns="http://www.w3.org/2000/svg" xmlns:xlink="http://www.w3.org/1999/xlink" version="1.1" baseProfile="full" width="536" height="354.667" viewBox="0 0 536.00 354.67" enable-background="new 0 0 536.00 354.67" xml:space="preserve">
	<line fill="none" stroke-width="1.06667" stroke-linejoin="round" stroke="#000000" stroke-opacity="1" x1="120.773" y1="286.513" x2="162.117" y2="285.94"/>
	<path fill="#000000" fill-opacity="1" fill-rule="evenodd" stroke-width="1.06667" stroke-linejoin="round" d="M 167.039,285.872L 159.716,290.243L 159.601,281.711"/>
	<path fill="none" fill-rule="evenodd" stroke-width="1.06667" stroke-linejoin="round" stroke="#000000" stroke-opacity="1" d="M 167.039,285.872L 159.716,290.242L 159.601,281.712"/>
	<line fill="none" stroke-width="1.06667" stroke-linejoin="round" stroke="#000000" stroke-opacity="1" x1="121.096" y1="286.201" x2="120.748" y2="247.753"/>
	<path fill="#000000" fill-opacity="1" fill-rule="evenodd" stroke-width="1.06667" stroke-linejoin="round" d="M 120.705,242.826L 125.039,250.17L 116.503,250.247"/>
	<path fill="none" fill-rule="evenodd" stroke-width="1.06667" stroke-linejoin="round" stroke="#000000" stroke-opacity="1" d="M 120.705,242.826L 125.04,250.169L 116.502,250.247"/>
	<path fill="#000000" fill-opacity="1" stroke-width="1.06667" stroke-linejoin="round" d="M 166.534,276.481L 164.609,276.481L 162.357,273.29L 160.115,276.481L 158.24,276.481L 161.482,272.279L 158.393,268.119L 160.252,268.119L 162.444,271.331L 164.606,268.119L 166.397,268.119L 163.252,272.306L 166.534,276.481 Z "/>
	<path fill="#000000" fill-opacity="1" stroke-width="1.06667" stroke-linejoin="round" d="M 112.644,242.421L 109.799,249.887C 109.505,250.65 109.201,251.308 108.887,251.859C 108.573,252.411 108.23,252.864 107.858,253.217C 107.486,253.571 107.077,253.831 106.633,253.998C 106.189,254.165 105.691,254.248 105.141,254.248C 104.997,254.248 104.866,254.245 104.75,254.24C 104.633,254.234 104.505,254.225 104.366,254.214L 104.366,252.9C 104.489,252.917 104.622,252.932 104.766,252.946C 104.911,252.961 105.064,252.968 105.225,252.968C 105.491,252.968 105.74,252.929 105.97,252.851C 106.201,252.773 106.419,252.647 106.624,252.472C 106.83,252.297 107.027,252.07 107.216,251.792C 107.405,251.514 107.588,251.178 107.766,250.783L 104.418,242.421L 106.067,242.421L 108.19,247.96L 108.616,249.251L 109.098,247.918L 111.052,242.421L 112.644,242.421 Z "/>
	<path fill="#000000" fill-opacity="1" stroke-width="1.06667" stroke-linejoin="round" d="M 6.51947,282.105C 6.14151,282.249 5.75382,282.357 5.3564,282.427C 4.95898,282.496 4.54907,282.531 4.12667,282.531C 2.804,282.531 1.78556,282.173 1.07133,281.456C 0.357111,280.739 1.06171e-007,279.692 1.06171e-007,278.314C 1.06171e-007,277.653 0.1028,277.052 0.3084,276.514C 0.514,275.975 0.803022,275.513 1.17547,275.13C 1.54791,274.746 1.99258,274.451 2.50947,274.242C 3.02636,274.034 3.596,273.93 4.2184,273.93C 4.652,273.93 5.05778,273.96 5.43573,274.022C 5.81369,274.083 6.17493,274.183 6.51947,274.322L 6.51947,275.705C 6.1584,275.514 5.79031,275.376 5.4152,275.289C 5.04009,275.202 4.65253,275.158 4.25253,275.158C 3.88027,275.158 3.52884,275.229 3.19827,275.371C 2.86769,275.513 2.57738,275.717 2.32733,275.984C 2.07729,276.25 1.88004,276.576 1.7356,276.959C 1.59116,277.343 1.51893,277.776 1.51893,278.26C 1.51893,279.271 1.7648,280.028 2.25653,280.531C 2.74827,281.034 3.43031,281.285 4.30267,281.285C 4.69698,281.285 5.07893,281.241 5.44853,281.153C 5.81813,281.065 6.17511,280.933 6.51947,280.756L 6.51947,282.105 Z "/>
	<path fill="#000000" fill-opacity="1" stroke-width="1.06667" stroke-linejoin="round" d="M 14.8005,282.412L 14.7675,281.288C 14.3118,281.738 13.8492,282.064 13.3796,282.265C 12.91,282.465 12.4167,282.565 11.8997,282.565C 11.4219,282.565 11.0134,282.504 10.6744,282.382C 10.3354,282.259 10.0561,282.091 9.83667,281.877C 9.6172,281.664 9.45605,281.412 9.3532,281.123C 9.25036,280.834 9.19893,280.52 9.19893,280.181C 9.19893,279.342 9.5116,278.685 10.1369,278.209C 10.7623,277.734 11.6863,277.497 12.9091,277.497L 14.6432,277.497L 14.6432,276.761C 14.6432,276.266 14.4848,275.869 14.1679,275.571C 13.851,275.273 13.3674,275.124 12.7171,275.124C 12.2445,275.124 11.779,275.178 11.3204,275.284C 10.8618,275.391 10.3879,275.542 9.89867,275.739L 9.89867,274.425C 10.082,274.358 10.286,274.294 10.5108,274.23C 10.7356,274.167 10.9729,274.111 11.2227,274.061C 11.4724,274.011 11.7334,273.971 12.0055,273.941C 12.2776,273.911 12.5523,273.896 12.8296,273.896C 13.3348,273.896 13.7901,273.951 14.1955,274.062C 14.6008,274.173 14.9436,274.343 15.2239,274.571C 15.5041,274.798 15.7192,275.085 15.8691,275.429C 16.0189,275.773 16.0939,276.179 16.0939,276.645L 16.0939,282.412L 14.8005,282.412 Z M 14.6432,278.606L 12.8013,278.606C 12.4404,278.606 12.1295,278.642 11.8684,278.714C 11.6073,278.786 11.3935,278.889 11.2268,279.022C 11.0601,279.155 10.9365,279.315 10.8559,279.501C 10.7752,279.687 10.7349,279.897 10.7349,280.13C 10.7349,280.291 10.76,280.445 10.81,280.592C 10.86,280.739 10.9406,280.87 11.0517,280.983C 11.1628,281.097 11.3073,281.187 11.4851,281.254C 11.6628,281.32 11.8795,281.354 12.1349,281.354C 12.4683,281.354 12.8502,281.252 13.2807,281.05C 13.7112,280.847 14.1653,280.527 14.6432,280.088L 14.6432,278.606 Z "/>
	<path fill="#000000" fill-opacity="1" stroke-width="1.06667" stroke-linejoin="round" d="M 24.7979,282.412L 24.7979,276.407C 24.7979,276.146 24.7888,275.932 24.7705,275.765C 24.7523,275.599 24.7237,275.467 24.6848,275.37C 24.6459,275.272 24.5964,275.204 24.5365,275.166C 24.4766,275.127 24.4025,275.107 24.3141,275.107C 24.2101,275.107 24.1139,275.141 24.0253,275.207C 23.9368,275.274 23.8418,275.382 23.7403,275.532C 23.6388,275.682 23.5269,275.88 23.4048,276.127C 23.2827,276.374 23.1383,276.678 22.9717,277.04L 22.9717,282.412L 21.5211,282.412L 21.5211,276.565C 21.5211,276.259 21.5119,276.012 21.4936,275.824C 21.4753,275.635 21.4465,275.488 21.4073,275.382C 21.3681,275.277 21.3172,275.204 21.2545,275.166C 21.1919,275.127 21.1161,275.107 21.0272,275.107C 20.9333,275.107 20.8446,275.135 20.7609,275.191C 20.6773,275.246 20.5845,275.346 20.4825,275.49C 20.3806,275.635 20.2669,275.832 20.1416,276.082C 20.0163,276.331 19.8674,276.651 19.6949,277.04L 19.6949,282.412L 18.2443,282.412L 18.2443,274.049L 19.4501,274.049L 19.5227,275.64C 19.6672,275.323 19.8077,275.053 19.9441,274.83C 20.0806,274.608 20.2211,274.428 20.3657,274.292C 20.5104,274.156 20.6647,274.056 20.8288,273.992C 20.9929,273.928 21.1751,273.896 21.3755,273.896C 21.8263,273.896 22.1686,274.043 22.4023,274.338C 22.636,274.633 22.7528,275.089 22.7528,275.707C 22.8867,275.417 23.0177,275.16 23.1459,274.935C 23.274,274.709 23.412,274.52 23.5597,274.367C 23.7075,274.214 23.8705,274.097 24.0489,274.017C 24.2273,273.936 24.4337,273.896 24.668,273.896C 25.7217,273.896 26.2485,274.704 26.2485,276.32L 26.2485,282.412L 24.7979,282.412 Z "/>
	<path fill="#000000" fill-opacity="1" stroke-width="1.06667" stroke-linejoin="round" d="M 35.2939,277.784C 35.2939,277.989 35.2911,278.161 35.2856,278.3C 35.2801,278.439 35.2717,278.569 35.2605,278.691L 29.3888,278.691C 29.3888,279.548 29.6278,280.206 30.1059,280.665C 30.5839,281.124 31.2732,281.354 32.1736,281.354C 32.418,281.354 32.6626,281.344 32.9072,281.324C 33.1518,281.305 33.3881,281.279 33.616,281.245C 33.8439,281.212 34.0621,281.174 34.2705,281.133C 34.479,281.091 34.6722,281.045 34.8501,280.995L 34.8501,282.19C 34.4553,282.301 34.0091,282.391 33.5115,282.461C 33.0139,282.531 32.4982,282.565 31.9645,282.565C 31.2474,282.565 30.6303,282.468 30.1132,282.274C 29.5961,282.079 29.1722,281.797 28.8415,281.427C 28.5107,281.058 28.2661,280.605 28.1076,280.069C 27.9491,279.532 27.8699,278.925 27.8699,278.247C 27.8699,277.658 27.9546,277.101 28.1241,276.576C 28.2936,276.05 28.5408,275.589 28.8657,275.192C 29.1906,274.794 29.5891,274.479 30.0612,274.246C 30.5333,274.012 31.0693,273.896 31.6693,273.896C 32.2526,273.896 32.7692,273.987 33.2192,274.17C 33.6692,274.354 34.0483,274.613 34.3565,274.949C 34.6648,275.285 34.8981,275.693 35.0564,276.173C 35.2147,276.653 35.2939,277.19 35.2939,277.784 Z M 33.792,277.582C 33.8087,277.21 33.7726,276.869 33.6836,276.561C 33.5946,276.252 33.457,275.987 33.2708,275.764C 33.0846,275.542 32.8525,275.369 32.5745,275.244C 32.2966,275.119 31.974,275.056 31.6069,275.056C 31.2901,275.056 31.0011,275.117 30.7399,275.239C 30.4786,275.362 30.2535,275.534 30.0644,275.756C 29.8753,275.979 29.7224,276.245 29.6056,276.556C 29.4888,276.868 29.4165,277.21 29.3888,277.582L 33.792,277.582 Z "/>
	<path fill="#000000" fill-opacity="1" stroke-width="1.06667" stroke-linejoin="round" d="M 37.9733,274.049L 39.2995,274.049L 39.3411,275.591C 39.8358,274.995 40.3235,274.564 40.8041,274.296C 41.2848,274.029 41.7696,273.896 42.2587,273.896C 43.1257,273.896 43.7828,274.176 44.2301,274.738C 44.6774,275.3 44.8844,276.134 44.8512,277.241L 43.3835,277.241C 43.4,276.505 43.293,275.971 43.0625,275.639C 42.832,275.307 42.4945,275.141 42.0499,275.141C 41.8554,275.141 41.6595,275.176 41.4623,275.246C 41.265,275.316 41.0622,275.427 40.8539,275.581C 40.6455,275.734 40.4246,275.931 40.1912,276.17C 39.9578,276.41 39.7077,276.7 39.4411,277.041L 39.4411,282.412L 37.9733,282.412L 37.9733,274.049 Z "/>
	<path fill="#000000" fill-opacity="1" stroke-width="1.06667" stroke-linejoin="round" d="M 52.4155,282.412L 52.3824,281.288C 51.9268,281.738 51.4641,282.064 50.9945,282.265C 50.5249,282.465 50.0316,282.565 49.5147,282.565C 49.0368,282.565 48.6284,282.504 48.2893,282.382C 47.9503,282.259 47.6711,282.091 47.4516,281.877C 47.2321,281.664 47.071,281.412 46.9681,281.123C 46.8653,280.834 46.8139,280.52 46.8139,280.181C 46.8139,279.342 47.1265,278.685 47.7519,278.209C 48.3772,277.734 49.3012,277.497 50.524,277.497L 52.2581,277.497L 52.2581,276.761C 52.2581,276.266 52.0997,275.869 51.7828,275.571C 51.4659,275.273 50.9823,275.124 50.332,275.124C 49.8595,275.124 49.3939,275.178 48.9353,275.284C 48.4768,275.391 48.0028,275.542 47.5136,275.739L 47.5136,274.425C 47.6969,274.358 47.9009,274.294 48.1257,274.23C 48.3505,274.167 48.5878,274.111 48.8376,274.061C 49.0874,274.011 49.3483,273.971 49.6204,273.941C 49.8925,273.911 50.1672,273.896 50.4445,273.896C 50.9498,273.896 51.4051,273.951 51.8104,274.062C 52.2157,274.173 52.5585,274.343 52.8388,274.571C 53.1191,274.798 53.3341,275.085 53.484,275.429C 53.6339,275.773 53.7088,276.179 53.7088,276.645L 53.7088,282.412L 52.4155,282.412 Z M 52.2581,278.606L 50.4163,278.606C 50.0554,278.606 49.7444,278.642 49.4833,278.714C 49.2223,278.786 49.0084,278.889 48.8417,279.022C 48.6751,279.155 48.5514,279.315 48.4708,279.501C 48.3902,279.687 48.3499,279.897 48.3499,280.13C 48.3499,280.291 48.3749,280.445 48.4249,280.592C 48.475,280.739 48.5556,280.87 48.6667,280.983C 48.7778,281.097 48.9222,281.187 49.1,281.254C 49.2778,281.32 49.4944,281.354 49.7499,281.354C 50.0832,281.354 50.4651,281.252 50.8956,281.05C 51.3261,280.847 51.7803,280.527 52.2581,280.088L 52.2581,278.606 Z "/>
	<path fill="#000000" fill-opacity="1" stroke-width="1.06667" stroke-linejoin="round" d="M 73.2672,271.984C 72.5061,271.825 71.8505,271.745 71.3003,271.745C 69.9947,271.745 69.3419,272.428 69.3419,273.794L 69.3419,275.261L 73.0112,275.261L 73.0112,276.473L 69.3419,276.473L 69.3419,282.412L 67.8741,282.412L 67.8741,276.473L 65.1776,276.473L 65.1776,275.261L 67.8741,275.261L 67.8741,273.878C 67.8741,271.648 69.0337,270.533 71.3528,270.533C 71.9299,270.533 72.568,270.602 73.2672,270.738L 73.2672,271.984 Z "/>
	<path fill="#000000" fill-opacity="1" stroke-width="1.06667" stroke-linejoin="round" d="M 75.5883,274.049L 76.9144,274.049L 76.956,275.591C 77.4508,274.995 77.9384,274.564 78.4191,274.296C 78.8997,274.029 79.3845,273.896 79.8736,273.896C 80.7406,273.896 81.3978,274.176 81.8451,274.738C 82.2924,275.3 82.4994,276.134 82.4661,277.241L 80.9984,277.241C 81.0149,276.505 80.908,275.971 80.6775,275.639C 80.447,275.307 80.1094,275.141 79.6648,275.141C 79.4703,275.141 79.2744,275.176 79.0772,275.246C 78.88,275.316 78.6772,275.427 78.4688,275.581C 78.2604,275.734 78.0396,275.931 77.8061,276.17C 77.5727,276.41 77.3227,276.7 77.056,277.041L 77.056,282.412L 75.5883,282.412L 75.5883,274.049 Z "/>
	<path fill="#000000" fill-opacity="1" stroke-width="1.06667" stroke-linejoin="round" d="M 90.0304,282.412L 89.9973,281.288C 89.5417,281.738 89.0791,282.064 88.6095,282.265C 88.1399,282.465 87.6466,282.565 87.1296,282.565C 86.6517,282.565 86.2433,282.504 85.9043,282.382C 85.5652,282.259 85.286,282.091 85.0665,281.877C 84.8471,281.664 84.6859,281.412 84.5831,281.123C 84.4802,280.834 84.4288,280.52 84.4288,280.181C 84.4288,279.342 84.7415,278.685 85.3668,278.209C 85.9921,277.734 86.9162,277.497 88.1389,277.497L 89.8731,277.497L 89.8731,276.761C 89.8731,276.266 89.7146,275.869 89.3977,275.571C 89.0808,275.273 88.5972,275.124 87.9469,275.124C 87.4744,275.124 87.0088,275.178 86.5503,275.284C 86.0917,275.391 85.6178,275.542 85.1285,275.739L 85.1285,274.425C 85.3118,274.358 85.5159,274.294 85.7407,274.23C 85.9655,274.167 86.2028,274.111 86.4525,274.061C 86.7023,274.011 86.9632,273.971 87.2353,273.941C 87.5074,273.911 87.7821,273.896 88.0595,273.896C 88.5647,273.896 89.02,273.951 89.4253,274.062C 89.8307,274.173 90.1735,274.343 90.4537,274.571C 90.734,274.798 90.9491,275.085 91.0989,275.429C 91.2488,275.773 91.3237,276.179 91.3237,276.645L 91.3237,282.412L 90.0304,282.412 Z M 89.8731,278.606L 88.0312,278.606C 87.6703,278.606 87.3593,278.642 87.0983,278.714C 86.8372,278.786 86.6233,278.889 86.4567,279.022C 86.29,279.155 86.1664,279.315 86.0857,279.501C 86.0051,279.687 85.9648,279.897 85.9648,280.13C 85.9648,280.291 85.9898,280.445 86.0399,280.592C 86.0899,280.739 86.1705,280.87 86.2816,280.983C 86.3927,281.097 86.5371,281.187 86.7149,281.254C 86.8927,281.32 87.1093,281.354 87.3648,281.354C 87.6981,281.354 88.08,281.252 88.5105,281.05C 88.941,280.847 89.3952,280.527 89.8731,280.088L 89.8731,278.606 Z "/>
	<path fill="#000000" fill-opacity="1" stroke-width="1.06667" stroke-linejoin="round" d="M 100.028,282.412L 100.028,276.407C 100.028,276.146 100.019,275.932 100,275.765C 99.9822,275.599 99.9536,275.467 99.9147,275.37C 99.8757,275.272 99.8263,275.204 99.7664,275.166C 99.7065,275.127 99.6324,275.107 99.544,275.107C 99.44,275.107 99.3437,275.141 99.2552,275.207C 99.1667,275.274 99.0716,275.382 98.9701,275.532C 98.8686,275.682 98.7568,275.88 98.6347,276.127C 98.5125,276.374 98.3682,276.678 98.2016,277.04L 98.2016,282.412L 96.7509,282.412L 96.7509,276.565C 96.7509,276.259 96.7418,276.012 96.7235,275.824C 96.7051,275.635 96.6764,275.488 96.6372,275.382C 96.598,275.277 96.5471,275.204 96.4844,275.166C 96.4217,275.127 96.3459,275.107 96.2571,275.107C 96.1632,275.107 96.0744,275.135 95.9908,275.191C 95.9072,275.246 95.8144,275.346 95.7124,275.49C 95.6104,275.635 95.4968,275.832 95.3715,276.082C 95.2461,276.331 95.0972,276.651 94.9248,277.04L 94.9248,282.412L 93.4741,282.412L 93.4741,274.049L 94.68,274.049L 94.7525,275.64C 94.8971,275.323 95.0375,275.053 95.174,274.83C 95.3104,274.608 95.451,274.428 95.5956,274.292C 95.7402,274.156 95.8946,274.056 96.0587,273.992C 96.2227,273.928 96.405,273.896 96.6053,273.896C 97.0562,273.896 97.3984,274.043 97.6321,274.338C 97.8658,274.633 97.9827,275.089 97.9827,275.707C 98.1165,275.417 98.2476,275.16 98.3757,274.935C 98.5039,274.709 98.6419,274.52 98.7896,274.367C 98.9373,274.214 99.1004,274.097 99.2788,274.017C 99.4572,273.936 99.6636,273.896 99.8979,273.896C 100.952,273.896 101.478,274.704 101.478,276.32L 101.478,282.412L 100.028,282.412 Z "/>
	<path fill="#000000" fill-opacity="1" stroke-width="1.06667" stroke-linejoin="round" d="M 110.524,277.784C 110.524,277.989 110.521,278.161 110.515,278.3C 110.51,278.439 110.502,278.569 110.49,278.691L 104.619,278.691C 104.619,279.548 104.858,280.206 105.336,280.665C 105.814,281.124 106.503,281.354 107.403,281.354C 107.648,281.354 107.892,281.344 108.137,281.324C 108.382,281.305 108.618,281.279 108.846,281.245C 109.074,281.212 109.292,281.174 109.5,281.133C 109.709,281.091 109.902,281.045 110.08,280.995L 110.08,282.19C 109.685,282.301 109.239,282.391 108.741,282.461C 108.244,282.531 107.728,282.565 107.194,282.565C 106.477,282.565 105.86,282.468 105.343,282.274C 104.826,282.079 104.402,281.797 104.071,281.427C 103.741,281.058 103.496,280.605 103.337,280.069C 103.179,279.532 103.1,278.925 103.1,278.247C 103.1,277.658 103.184,277.101 103.354,276.576C 103.524,276.05 103.771,275.589 104.096,275.192C 104.42,274.794 104.819,274.479 105.291,274.246C 105.763,274.012 106.299,273.896 106.899,273.896C 107.482,273.896 107.999,273.987 108.449,274.17C 108.899,274.354 109.278,274.613 109.586,274.949C 109.895,275.285 110.128,275.693 110.286,276.173C 110.445,276.653 110.524,277.19 110.524,277.784 Z M 109.022,277.582C 109.039,277.21 109.002,276.869 108.913,276.561C 108.824,276.252 108.687,275.987 108.501,275.764C 108.314,275.542 108.082,275.369 107.804,275.244C 107.526,275.119 107.204,275.056 106.837,275.056C 106.52,275.056 106.231,275.117 105.97,275.239C 105.708,275.362 105.483,275.534 105.294,275.756C 105.105,275.979 104.952,276.245 104.835,276.556C 104.719,276.868 104.646,277.21 104.619,277.582L 109.022,277.582 Z "/>
	<path fill="none" stroke-width="1.06667" stroke-linejoin="round" stroke="#000000" stroke-opacity="1" d="M 56.1999,48.9507L 442.247,48.9507L 442.247,354.133L 56.1999,354.133L 56.1999,48.9507 Z "/>
	<line fill="none" stroke-width="0.533334" stroke-linejoin="round" stroke="#000000" stroke-opacity="1" x1="56.7425" y1="201.539" x2="442.248" y2="201.539"/>
	<line fill="none" stroke-width="0.533334" stroke-linejoin="round" stroke="#000000" stroke-opacity="1" x1="249.221" y1="49.6013" x2="249.221" y2="353.481"/>
	<line fill="none" stroke-width="0.533334" stroke-linejoin="round" stroke="#000000" stroke-opacity="1" x1="169.191" y1="285.503" x2="248.981" y2="285.503"/>
	<line fill="none" stroke-width="0.533334" stroke-linejoin="round" stroke="#000000" stroke-opacity="1" x1="120.809" y1="240.997" x2="120.809" y2="201.784"/>
	<line fill="none" stroke-width="1.06667" stroke-linejoin="round" stroke="#000000" stroke-opacity="1" x1="120.877" y1="202.363" x2="117.628" y2="207.987"/>
	<line fill="none" stroke-width="1.06667" stroke-linejoin="round" stroke="#000000" stroke-opacity="1" x1="120.935" y1="202.451" x2="124.185" y2="208.076"/>
	<path fill="#000000" fill-opacity="1" stroke-width="1.06667" stroke-linejoin="round" d="M 174.554,305.062C 174.176,305.206 173.788,305.314 173.391,305.384C 172.993,305.453 172.583,305.488 172.161,305.488C 170.838,305.488 169.82,305.13 169.106,304.413C 168.391,303.696 168.034,302.649 168.034,301.271C 168.034,300.609 168.137,300.009 168.343,299.47C 168.548,298.932 168.837,298.47 169.21,298.087C 169.582,297.703 170.027,297.407 170.544,297.199C 171.061,296.991 171.63,296.887 172.253,296.887C 172.686,296.887 173.092,296.917 173.47,296.978C 173.848,297.04 174.209,297.14 174.554,297.279L 174.554,298.661C 174.193,298.471 173.825,298.332 173.45,298.246C 173.074,298.159 172.687,298.115 172.287,298.115C 171.915,298.115 171.563,298.186 171.233,298.328C 170.902,298.47 170.612,298.674 170.362,298.941C 170.112,299.207 169.914,299.533 169.77,299.916C 169.626,300.3 169.553,300.733 169.553,301.216C 169.553,302.228 169.799,302.985 170.291,303.488C 170.783,303.991 171.465,304.242 172.337,304.242C 172.731,304.242 173.113,304.198 173.483,304.11C 173.852,304.022 174.209,303.89 174.554,303.713L 174.554,305.062 Z "/>
	<path fill="#000000" fill-opacity="1" stroke-width="1.06667" stroke-linejoin="round" d="M 184.521,300.741C 184.521,300.946 184.518,301.118 184.512,301.257C 184.507,301.396 184.499,301.526 184.487,301.648L 178.616,301.648C 178.616,302.505 178.855,303.163 179.333,303.622C 179.811,304.081 180.5,304.311 181.4,304.311C 181.645,304.311 181.889,304.301 182.134,304.281C 182.379,304.262 182.615,304.236 182.843,304.202C 183.071,304.169 183.289,304.131 183.497,304.09C 183.706,304.048 183.899,304.002 184.077,303.952L 184.077,305.147C 183.682,305.258 183.236,305.348 182.738,305.418C 182.241,305.488 181.725,305.522 181.191,305.522C 180.474,305.522 179.857,305.425 179.34,305.23C 178.823,305.036 178.399,304.754 178.068,304.384C 177.738,304.015 177.493,303.562 177.334,303.026C 177.176,302.489 177.097,301.882 177.097,301.204C 177.097,300.615 177.182,300.058 177.351,299.532C 177.521,299.007 177.768,298.546 178.093,298.149C 178.418,297.751 178.816,297.436 179.288,297.203C 179.76,296.969 180.296,296.852 180.896,296.852C 181.48,296.852 181.996,296.944 182.446,297.127C 182.896,297.31 183.275,297.57 183.583,297.906C 183.892,298.242 184.125,298.65 184.283,299.13C 184.442,299.61 184.521,300.147 184.521,300.741 Z M 183.019,300.539C 183.036,300.166 182.999,299.826 182.911,299.518C 182.822,299.209 182.684,298.944 182.498,298.721C 182.311,298.499 182.079,298.325 181.801,298.2C 181.523,298.075 181.201,298.013 180.834,298.013C 180.517,298.013 180.228,298.074 179.967,298.196C 179.706,298.319 179.48,298.491 179.291,298.713C 179.102,298.935 178.949,299.202 178.833,299.513C 178.716,299.825 178.643,300.166 178.616,300.539L 183.019,300.539 Z "/>
	<path fill="#000000" fill-opacity="1" stroke-width="1.06667" stroke-linejoin="round" d="M 186.859,297.006L 188.151,297.006L 188.21,298.355C 188.454,298.066 188.69,297.825 188.918,297.633C 189.145,297.441 189.369,297.287 189.588,297.17C 189.808,297.053 190.031,296.971 190.259,296.924C 190.487,296.876 190.723,296.852 190.967,296.852C 191.828,296.852 192.479,297.107 192.921,297.615C 193.362,298.123 193.583,298.889 193.583,299.911L 193.583,305.369L 192.132,305.369L 192.132,300.024C 192.132,299.368 192.01,298.883 191.766,298.569C 191.522,298.255 191.158,298.098 190.675,298.098C 190.497,298.098 190.324,298.125 190.154,298.178C 189.985,298.23 189.809,298.322 189.625,298.453C 189.442,298.583 189.244,298.76 189.03,298.982C 188.816,299.204 188.576,299.482 188.31,299.816L 188.31,305.369L 186.859,305.369L 186.859,297.006 Z "/>
	<path fill="#000000" fill-opacity="1" stroke-width="1.06667" stroke-linejoin="round" d="M 203.004,305.249C 202.677,305.335 202.338,305.396 201.988,305.433C 201.639,305.47 201.283,305.488 200.923,305.488C 199.874,305.488 199.091,305.251 198.575,304.775C 198.058,304.3 197.8,303.57 197.8,302.587L 197.8,298.218L 195.46,298.218L 195.46,297.006L 197.8,297.006L 197.8,294.702L 199.251,294.327L 199.251,297.006L 203.004,297.006L 203.004,298.218L 199.251,298.218L 199.251,302.468C 199.251,303.068 199.41,303.516 199.729,303.814C 200.048,304.111 200.518,304.259 201.14,304.259C 201.406,304.259 201.697,304.239 202.014,304.197C 202.33,304.156 202.66,304.091 203.004,304.003L 203.004,305.249 Z "/>
	<path fill="#000000" fill-opacity="1" stroke-width="1.06667" stroke-linejoin="round" d="M 212.732,300.741C 212.732,300.946 212.729,301.118 212.724,301.257C 212.718,301.396 212.71,301.526 212.699,301.648L 206.827,301.648C 206.827,302.505 207.066,303.163 207.544,303.622C 208.022,304.081 208.711,304.311 209.612,304.311C 209.856,304.311 210.101,304.301 210.345,304.281C 210.59,304.262 210.826,304.236 211.054,304.202C 211.282,304.169 211.5,304.131 211.709,304.09C 211.917,304.048 212.11,304.002 212.288,303.952L 212.288,305.147C 211.893,305.258 211.447,305.348 210.95,305.418C 210.452,305.488 209.936,305.522 209.403,305.522C 208.685,305.522 208.068,305.425 207.551,305.23C 207.034,305.036 206.61,304.754 206.28,304.384C 205.949,304.015 205.704,303.562 205.546,303.026C 205.387,302.489 205.308,301.882 205.308,301.204C 205.308,300.615 205.393,300.058 205.562,299.532C 205.732,299.007 205.979,298.546 206.304,298.149C 206.629,297.751 207.027,297.436 207.499,297.203C 207.971,296.969 208.507,296.852 209.107,296.852C 209.691,296.852 210.207,296.944 210.657,297.127C 211.107,297.31 211.486,297.57 211.795,297.906C 212.103,298.242 212.336,298.65 212.494,299.13C 212.653,299.61 212.732,300.147 212.732,300.741 Z M 211.23,300.539C 211.247,300.166 211.211,299.826 211.122,299.518C 211.033,299.209 210.895,298.944 210.709,298.721C 210.523,298.499 210.291,298.325 210.013,298.2C 209.735,298.075 209.412,298.013 209.045,298.013C 208.728,298.013 208.439,298.074 208.178,298.196C 207.917,298.319 207.692,298.491 207.502,298.713C 207.313,298.935 207.16,299.202 207.044,299.513C 206.927,299.825 206.855,300.166 206.827,300.539L 211.23,300.539 Z "/>
	<path fill="#000000" fill-opacity="1" stroke-width="1.06667" stroke-linejoin="round" d="M 215.411,297.006L 216.738,297.006L 216.779,298.548C 217.274,297.952 217.762,297.52 218.242,297.253C 218.723,296.986 219.208,296.852 219.697,296.852C 220.564,296.852 221.221,297.133 221.668,297.695C 222.115,298.257 222.323,299.091 222.289,300.198L 220.822,300.198C 220.838,299.462 220.731,298.928 220.501,298.596C 220.27,298.264 219.933,298.098 219.488,298.098C 219.293,298.098 219.098,298.133 218.9,298.203C 218.703,298.273 218.5,298.384 218.292,298.538C 218.084,298.691 217.863,298.888 217.629,299.127C 217.396,299.367 217.146,299.657 216.879,299.997L 216.879,305.369L 215.411,305.369L 215.411,297.006 Z "/>
	<path fill="#000000" fill-opacity="1" stroke-width="1.06667" stroke-linejoin="round" d="M 227.768,302.74C 227.956,302.74 228.136,302.777 228.305,302.849C 228.474,302.922 228.621,303.022 228.746,303.15C 228.871,303.278 228.97,303.427 229.042,303.597C 229.114,303.766 229.15,303.949 229.15,304.144C 229.15,304.333 229.114,304.511 229.042,304.679C 228.97,304.846 228.871,304.992 228.746,305.117C 228.621,305.242 228.474,305.341 228.305,305.414C 228.136,305.486 227.956,305.522 227.768,305.522C 227.573,305.522 227.393,305.486 227.226,305.414C 227.06,305.341 226.914,305.242 226.789,305.117C 226.664,304.992 226.566,304.846 226.494,304.679C 226.421,304.511 226.385,304.333 226.385,304.144C 226.385,303.949 226.421,303.766 226.494,303.597C 226.566,303.427 226.664,303.278 226.789,303.15C 226.914,303.022 227.06,302.922 227.226,302.849C 227.393,302.777 227.573,302.74 227.768,302.74 Z "/>
	<path fill="#000000" fill-opacity="1" stroke-width="1.06667" stroke-linejoin="round" d="M 241.421,305.369L 239.496,305.369L 237.244,302.177L 235.002,305.369L 233.127,305.369L 236.369,301.167L 233.28,297.006L 235.139,297.006L 237.331,300.218L 239.493,297.006L 241.284,297.006L 238.139,301.194L 241.421,305.369 Z "/>
	<path fill="#000000" fill-opacity="1" stroke-width="1.06667" stroke-linejoin="round" d="M 133.993,230.68C 133.615,230.825 133.228,230.932 132.83,231.002C 132.433,231.072 132.023,231.107 131.601,231.107C 130.278,231.107 129.26,230.748 128.545,230.032C 127.831,229.315 127.474,228.267 127.474,226.89C 127.474,226.228 127.577,225.628 127.782,225.089C 127.988,224.55 128.277,224.089 128.649,223.706C 129.022,223.322 129.467,223.026 129.983,222.818C 130.5,222.609 131.07,222.505 131.692,222.505C 132.126,222.505 132.532,222.536 132.91,222.597C 133.288,222.658 133.649,222.759 133.993,222.898L 133.993,224.28C 133.632,224.09 133.264,223.951 132.889,223.864C 132.514,223.777 132.126,223.734 131.726,223.734C 131.354,223.734 131.003,223.805 130.672,223.947C 130.342,224.088 130.051,224.293 129.801,224.559C 129.551,224.826 129.354,225.151 129.21,225.535C 129.065,225.918 128.993,226.352 128.993,226.835C 128.993,227.846 129.239,228.604 129.73,229.107C 130.222,229.61 130.904,229.861 131.777,229.861C 132.171,229.861 132.553,229.817 132.922,229.729C 133.292,229.641 133.649,229.508 133.993,229.332L 133.993,230.68 Z "/>
	<path fill="#000000" fill-opacity="1" stroke-width="1.06667" stroke-linejoin="round" d="M 143.96,226.359C 143.96,226.565 143.958,226.737 143.952,226.876C 143.947,227.014 143.938,227.145 143.927,227.267L 138.055,227.267C 138.055,228.124 138.294,228.782 138.772,229.241C 139.25,229.7 139.94,229.929 140.84,229.929C 141.085,229.929 141.329,229.92 141.574,229.9C 141.818,229.881 142.055,229.854 142.282,229.821C 142.51,229.788 142.729,229.75 142.937,229.708C 143.145,229.667 143.339,229.621 143.517,229.571L 143.517,230.766C 143.122,230.877 142.676,230.967 142.178,231.037C 141.68,231.106 141.165,231.141 140.631,231.141C 139.914,231.141 139.297,231.044 138.78,230.849C 138.263,230.655 137.839,230.372 137.508,230.003C 137.177,229.633 136.933,229.181 136.774,228.644C 136.616,228.108 136.536,227.501 136.536,226.823C 136.536,226.234 136.621,225.676 136.791,225.151C 136.96,224.626 137.207,224.165 137.532,223.767C 137.857,223.37 138.256,223.055 138.728,222.821C 139.2,222.588 139.736,222.471 140.336,222.471C 140.919,222.471 141.436,222.563 141.886,222.746C 142.336,222.929 142.715,223.189 143.023,223.524C 143.331,223.86 143.565,224.268 143.723,224.748C 143.881,225.228 143.96,225.765 143.96,226.359 Z M 142.458,226.158C 142.475,225.785 142.439,225.445 142.35,225.136C 142.261,224.828 142.124,224.562 141.937,224.34C 141.751,224.118 141.519,223.944 141.241,223.819C 140.963,223.694 140.641,223.632 140.273,223.632C 139.957,223.632 139.668,223.693 139.406,223.815C 139.145,223.937 138.92,224.109 138.731,224.332C 138.542,224.554 138.389,224.821 138.272,225.132C 138.155,225.443 138.083,225.785 138.055,226.158L 142.458,226.158 Z "/>
	<path fill="#000000" fill-opacity="1" stroke-width="1.06667" stroke-linejoin="round" d="M 146.298,222.625L 147.591,222.625L 147.649,223.974C 147.894,223.685 148.13,223.444 148.357,223.252C 148.585,223.06 148.808,222.905 149.028,222.789C 149.247,222.672 149.471,222.59 149.699,222.542C 149.926,222.495 150.162,222.471 150.406,222.471C 151.267,222.471 151.919,222.725 152.36,223.234C 152.802,223.742 153.023,224.507 153.023,225.529L 153.023,230.987L 151.572,230.987L 151.572,225.643C 151.572,224.987 151.45,224.502 151.206,224.188C 150.961,223.874 150.598,223.717 150.115,223.717C 149.937,223.717 149.763,223.743 149.594,223.796C 149.425,223.849 149.248,223.941 149.065,224.071C 148.882,224.202 148.683,224.378 148.47,224.601C 148.256,224.823 148.016,225.101 147.749,225.434L 147.749,230.987L 146.298,230.987L 146.298,222.625 Z "/>
	<path fill="#000000" fill-opacity="1" stroke-width="1.06667" stroke-linejoin="round" d="M 162.444,230.868C 162.116,230.953 161.778,231.014 161.428,231.051C 161.078,231.088 160.723,231.107 160.362,231.107C 159.313,231.107 158.531,230.869 158.014,230.394C 157.498,229.919 157.24,229.189 157.24,228.205L 157.24,223.836L 154.9,223.836L 154.9,222.625L 157.24,222.625L 157.24,220.321L 158.691,219.945L 158.691,222.625L 162.444,222.625L 162.444,223.836L 158.691,223.836L 158.691,228.086C 158.691,228.686 158.85,229.135 159.169,229.432C 159.488,229.729 159.958,229.878 160.579,229.878C 160.846,229.878 161.137,229.857 161.453,229.816C 161.77,229.775 162.1,229.71 162.444,229.622L 162.444,230.868 Z "/>
	<path fill="#000000" fill-opacity="1" stroke-width="1.06667" stroke-linejoin="round" d="M 172.172,226.359C 172.172,226.565 172.169,226.737 172.163,226.876C 172.158,227.014 172.149,227.145 172.138,227.267L 166.266,227.267C 166.266,228.124 166.506,228.782 166.984,229.241C 167.462,229.7 168.151,229.929 169.051,229.929C 169.296,229.929 169.54,229.92 169.785,229.9C 170.03,229.881 170.266,229.854 170.494,229.821C 170.722,229.788 170.94,229.75 171.148,229.708C 171.357,229.667 171.55,229.621 171.728,229.571L 171.728,230.766C 171.333,230.877 170.887,230.967 170.389,231.037C 169.892,231.106 169.376,231.141 168.842,231.141C 168.125,231.141 167.508,231.044 166.991,230.849C 166.474,230.655 166.05,230.372 165.719,230.003C 165.388,229.633 165.144,229.181 164.985,228.644C 164.827,228.108 164.748,227.501 164.748,226.823C 164.748,226.234 164.832,225.676 165.002,225.151C 165.171,224.626 165.419,224.165 165.743,223.767C 166.068,223.37 166.467,223.055 166.939,222.821C 167.411,222.588 167.947,222.471 168.547,222.471C 169.13,222.471 169.647,222.563 170.097,222.746C 170.547,222.929 170.926,223.189 171.234,223.524C 171.542,223.86 171.776,224.268 171.934,224.748C 172.092,225.228 172.172,225.765 172.172,226.359 Z M 170.67,226.158C 170.686,225.785 170.65,225.445 170.561,225.136C 170.472,224.828 170.335,224.562 170.148,224.34C 169.962,224.118 169.73,223.944 169.452,223.819C 169.174,223.694 168.852,223.632 168.485,223.632C 168.168,223.632 167.879,223.693 167.618,223.815C 167.356,223.937 167.131,224.109 166.942,224.332C 166.753,224.554 166.6,224.821 166.483,225.132C 166.367,225.443 166.294,225.785 166.266,226.158L 170.67,226.158 Z "/>
	<path fill="#000000" fill-opacity="1" stroke-width="1.06667" stroke-linejoin="round" d="M 174.851,222.625L 176.177,222.625L 176.219,224.166C 176.714,223.571 177.201,223.139 177.682,222.872C 178.162,222.605 178.647,222.471 179.136,222.471C 180.003,222.471 180.661,222.752 181.108,223.314C 181.555,223.875 181.762,224.71 181.729,225.816L 180.261,225.816C 180.278,225.08 180.171,224.546 179.94,224.215C 179.71,223.883 179.372,223.717 178.928,223.717C 178.733,223.717 178.537,223.752 178.34,223.822C 178.143,223.891 177.94,224.003 177.732,224.156C 177.523,224.31 177.302,224.506 177.069,224.746C 176.835,224.986 176.585,225.276 176.319,225.616L 176.319,230.987L 174.851,230.987L 174.851,222.625 Z "/>
	<path fill="#000000" fill-opacity="1" stroke-width="1.06667" stroke-linejoin="round" d="M 187.207,228.359C 187.396,228.359 187.575,228.395 187.745,228.468C 187.914,228.54 188.061,228.64 188.186,228.768C 188.311,228.896 188.409,229.045 188.482,229.215C 188.554,229.385 188.59,229.568 188.59,229.763C 188.59,229.952 188.554,230.13 188.482,230.297C 188.409,230.464 188.311,230.611 188.186,230.736C 188.061,230.861 187.914,230.96 187.745,231.032C 187.575,231.105 187.396,231.141 187.207,231.141C 187.013,231.141 186.833,231.105 186.666,231.032C 186.5,230.96 186.354,230.861 186.229,230.736C 186.104,230.611 186.005,230.464 185.933,230.297C 185.861,230.13 185.825,229.952 185.825,229.763C 185.825,229.568 185.861,229.385 185.933,229.215C 186.005,229.045 186.104,228.896 186.229,228.768C 186.354,228.64 186.5,228.54 186.666,228.468C 186.833,228.395 187.013,228.359 187.207,228.359 Z "/>
	<path fill="#000000" fill-opacity="1" stroke-width="1.06667" stroke-linejoin="round" d="M 200.75,222.625L 197.905,230.091C 197.611,230.854 197.307,231.512 196.993,232.064C 196.679,232.615 196.336,233.068 195.964,233.422C 195.592,233.775 195.183,234.035 194.739,234.202C 194.295,234.369 193.797,234.452 193.247,234.452C 193.103,234.452 192.972,234.449 192.856,234.444C 192.739,234.438 192.611,234.429 192.472,234.418L 192.472,233.104C 192.594,233.121 192.728,233.136 192.872,233.15C 193.017,233.165 193.17,233.172 193.331,233.172C 193.597,233.172 193.846,233.133 194.076,233.055C 194.307,232.977 194.525,232.851 194.73,232.676C 194.936,232.501 195.133,232.274 195.322,231.996C 195.511,231.718 195.694,231.382 195.872,230.987L 192.524,222.625L 194.173,222.625L 196.296,228.164L 196.722,229.455L 197.204,228.122L 199.158,222.625L 200.75,222.625 Z "/>
	<path fill="#000000" fill-opacity="1" stroke-width="1.06667" stroke-linejoin="round" d="M 227.941,10.0449C 227.941,10.3396 227.891,10.6037 227.791,10.837C 227.691,11.0703 227.555,11.2773 227.382,11.4579C 227.21,11.6386 227.009,11.7928 226.781,11.9206C 226.553,12.0484 226.31,12.1541 226.051,12.2374C 225.792,12.3208 225.527,12.382 225.254,12.4209C 224.981,12.4598 224.714,12.4793 224.453,12.4793C 223.885,12.4793 223.364,12.4537 222.888,12.4025C 222.412,12.3513 221.946,12.2688 221.49,12.155L 221.49,10.8238C 221.98,10.9632 222.467,11.0691 222.951,11.1417C 223.435,11.2142 223.916,11.2505 224.395,11.2505C 225.09,11.2505 225.605,11.1563 225.939,10.9679C 226.273,10.7796 226.44,10.5108 226.44,10.1617C 226.44,10.0116 226.413,9.87683 226.36,9.75726C 226.307,9.63773 226.211,9.5238 226.072,9.41556C 225.933,9.30728 225.717,9.19473 225.424,9.07794C 225.132,8.96112 224.732,8.8277 224.225,8.67767C 223.846,8.56656 223.497,8.44019 223.176,8.29849C 222.856,8.15677 222.579,7.98868 222.345,7.79422C 222.111,7.59973 221.927,7.37189 221.793,7.11075C 221.659,6.84961 221.593,6.54114 221.593,6.18542C 221.593,5.95197 221.647,5.69635 221.756,5.41849C 221.864,5.14063 222.05,4.8822 222.312,4.64325C 222.574,4.40433 222.928,4.20563 223.374,4.04715C 223.82,3.88867 224.377,3.80939 225.046,3.80939C 225.375,3.80939 225.74,3.82727 226.141,3.86304C 226.543,3.89874 226.961,3.96051 227.395,4.04834L 227.395,5.3454C 226.938,5.2345 226.504,5.15271 226.094,5.1001C 225.684,5.04742 225.328,5.02115 225.027,5.02115C 224.665,5.02115 224.359,5.04886 224.111,5.10437C 223.863,5.15982 223.662,5.23599 223.508,5.33289C 223.355,5.42975 223.245,5.54337 223.178,5.67365C 223.111,5.80399 223.077,5.944 223.077,6.09366C 223.077,6.24371 223.107,6.37991 223.165,6.5022C 223.224,6.62451 223.333,6.74261 223.491,6.85648C 223.65,6.97034 223.872,7.08426 224.156,7.19818C 224.44,7.31216 224.81,7.43582 225.267,7.56912C 225.763,7.71365 226.181,7.86514 226.521,8.02356C 226.861,8.18195 227.136,8.35834 227.348,8.55273C 227.56,8.74713 227.712,8.96661 227.804,9.21112C 227.895,9.45569 227.941,9.73358 227.941,10.0449 Z "/>
	<path fill="#000000" fill-opacity="1" stroke-width="1.06667" stroke-linejoin="round" d="M 233.556,5.15765L 231.082,5.15765L 231.082,3.96301L 235.024,3.96301L 235.024,11.1139L 237.516,11.1139L 237.516,12.3257L 230.809,12.3257L 230.809,11.1139L 233.556,11.1139L 233.556,5.15765 Z M 234.068,0.447266C 234.23,0.447266 234.38,0.476471 234.519,0.534851C 234.658,0.593292 234.779,0.675323 234.882,0.781006C 234.985,0.886719 235.066,1.00775 235.124,1.1442C 235.183,1.28067 235.212,1.4295 235.212,1.59073C 235.212,1.74649 235.183,1.89392 235.124,2.03299C 235.066,2.17212 234.985,2.29456 234.882,2.40033C 234.779,2.50613 234.658,2.5882 234.519,2.64661C 234.38,2.70499 234.23,2.73419 234.068,2.73419C 233.907,2.73419 233.757,2.70499 233.618,2.64661C 233.479,2.5882 233.357,2.50613 233.255,2.40033C 233.152,2.29456 233.071,2.17212 233.013,2.03299C 232.954,1.89392 232.925,1.74649 232.925,1.59073C 232.925,1.4295 232.954,1.28067 233.013,1.1442C 233.071,1.00775 233.152,0.886719 233.255,0.781006C 233.357,0.675323 233.479,0.593292 233.618,0.534851C 233.757,0.476471 233.907,0.447266 234.068,0.447266 Z "/>
	<path fill="#000000" fill-opacity="1" stroke-width="1.06667" stroke-linejoin="round" d="M 246.885,12.3257L 240.144,12.3257L 240.144,11.2889L 244.871,5.17474L 240.264,5.17474L 240.264,3.96301L 246.612,3.96301L 246.612,5.08301L 241.969,11.0969L 246.885,11.0969L 246.885,12.3257 Z "/>
	<path fill="#000000" fill-opacity="1" stroke-width="1.06667" stroke-linejoin="round" d="M 256.579,7.69766C 256.579,7.90302 256.577,8.0751 256.571,8.21393C 256.566,8.35278 256.557,8.48318 256.546,8.60513L 250.674,8.60513C 250.674,9.46204 250.913,10.12 251.391,10.579C 251.869,11.038 252.559,11.2675 253.459,11.2675C 253.703,11.2675 253.948,11.2578 254.193,11.2383C 254.437,11.2189 254.674,11.1924 254.901,11.1591C 255.129,11.1258 255.348,11.0883 255.556,11.0468C 255.764,11.0052 255.958,10.9593 256.136,10.9091L 256.136,12.1038C 255.741,12.2149 255.294,12.3053 254.797,12.3749C 254.299,12.4445 253.784,12.4793 253.25,12.4793C 252.533,12.4793 251.916,12.382 251.399,12.1874C 250.882,11.9928 250.458,11.7108 250.127,11.3412C 249.796,10.9717 249.552,10.5188 249.393,9.98248C 249.235,9.44611 249.155,8.83902 249.155,8.16113C 249.155,7.57181 249.24,7.01456 249.41,6.48941C 249.579,5.96426 249.826,5.50299 250.151,5.10565C 250.476,4.70831 250.875,4.39297 251.347,4.15955C 251.819,3.92615 252.355,3.80939 252.955,3.80939C 253.538,3.80939 254.055,3.901 254.505,4.08423C 254.955,4.2674 255.334,4.52692 255.642,4.86273C 255.95,5.19855 256.184,5.60651 256.342,6.08661C 256.5,6.56668 256.579,7.1037 256.579,7.69766 Z M 255.077,7.49579C 255.094,7.12335 255.058,6.7829 254.969,6.47449C 254.88,6.16605 254.742,5.90067 254.556,5.67834C 254.37,5.45605 254.138,5.28238 253.86,5.15741C 253.582,5.03241 253.259,4.96991 252.892,4.96991C 252.576,4.96991 252.287,5.03104 252.025,5.15326C 251.764,5.27551 251.539,5.44775 251.35,5.67007C 251.161,5.89236 251.008,6.15912 250.891,6.47034C 250.774,6.78152 250.702,7.12335 250.674,7.49579L 255.077,7.49579 Z "/>
	<path fill="#000000" fill-opacity="1" stroke-width="1.06667" stroke-linejoin="round" d="M 262.211,9.69742C 262.4,9.69742 262.579,9.73364 262.749,9.80606C 262.918,9.87854 263.065,9.97876 263.19,10.1067C 263.315,10.2347 263.413,10.3837 263.486,10.5535C 263.558,10.7234 263.594,10.9058 263.594,11.1009C 263.594,11.2902 263.558,11.4684 263.486,11.6355C 263.413,11.8026 263.315,11.9489 263.19,12.0741C 263.065,12.1993 262.918,12.2982 262.749,12.3706C 262.579,12.4431 262.4,12.4793 262.211,12.4793C 262.017,12.4793 261.837,12.4431 261.67,12.3706C 261.504,12.2982 261.358,12.1993 261.233,12.0741C 261.108,11.9489 261.009,11.8026 260.937,11.6355C 260.865,11.4684 260.829,11.2902 260.829,11.1009C 260.829,10.9058 260.865,10.7234 260.937,10.5535C 261.009,10.3837 261.108,10.2347 261.233,10.1067C 261.358,9.97876 261.504,9.87854 261.67,9.80606C 261.837,9.73364 262.017,9.69742 262.211,9.69742 Z "/>
	<path fill="#000000" fill-opacity="1" stroke-width="1.06667" stroke-linejoin="round" d="M 275.865,12.3257L 273.94,12.3257L 271.687,9.13422L 269.445,12.3257L 267.57,12.3257L 270.812,8.12354L 267.724,3.96301L 269.582,3.96301L 271.775,7.17529L 273.937,3.96301L 275.728,3.96301L 272.582,8.15045L 275.865,12.3257 Z "/>
	<path fill="#000000" fill-opacity="1" stroke-width="1.06667" stroke-linejoin="round" d="M 487.824,203.086C 487.824,203.38 487.773,203.644 487.673,203.878C 487.573,204.111 487.437,204.318 487.264,204.499C 487.092,204.679 486.891,204.834 486.663,204.961C 486.435,205.089 486.192,205.195 485.933,205.278C 485.675,205.361 485.409,205.423 485.136,205.462C 484.864,205.501 484.597,205.52 484.335,205.52C 483.768,205.52 483.246,205.494 482.77,205.443C 482.294,205.392 481.828,205.31 481.372,205.196L 481.372,203.865C 481.862,204.004 482.349,204.11 482.833,204.182C 483.317,204.255 483.798,204.291 484.277,204.291C 484.972,204.291 485.487,204.197 485.821,204.009C 486.155,203.82 486.322,203.552 486.322,203.202C 486.322,203.052 486.295,202.918 486.242,202.798C 486.189,202.678 486.093,202.565 485.954,202.456C 485.815,202.348 485.599,202.235 485.306,202.119C 485.014,202.002 484.614,201.868 484.107,201.718C 483.728,201.607 483.379,201.481 483.058,201.339C 482.738,201.198 482.461,201.029 482.227,200.835C 481.993,200.64 481.809,200.413 481.675,200.151C 481.542,199.89 481.475,199.582 481.475,199.226C 481.475,198.993 481.529,198.737 481.638,198.459C 481.746,198.181 481.932,197.923 482.194,197.684C 482.456,197.445 482.81,197.246 483.256,197.088C 483.702,196.929 484.259,196.85 484.928,196.85C 485.257,196.85 485.622,196.868 486.023,196.904C 486.425,196.939 486.843,197.001 487.277,197.089L 487.277,198.386C 486.82,198.275 486.386,198.193 485.976,198.141C 485.566,198.088 485.211,198.062 484.909,198.062C 484.547,198.062 484.241,198.09 483.993,198.145C 483.745,198.201 483.544,198.277 483.39,198.374C 483.237,198.47 483.127,198.584 483.06,198.714C 482.993,198.845 482.96,198.985 482.96,199.134C 482.96,199.284 482.989,199.421 483.047,199.543C 483.106,199.665 483.215,199.783 483.373,199.897C 483.532,200.011 483.754,200.125 484.038,200.239C 484.322,200.353 484.692,200.477 485.149,200.61C 485.645,200.754 486.063,200.906 486.403,201.064C 486.743,201.223 487.018,201.399 487.23,201.593C 487.442,201.788 487.594,202.007 487.686,202.252C 487.778,202.496 487.824,202.774 487.824,203.086 Z "/>
	<path fill="#000000" fill-opacity="1" stroke-width="1.06667" stroke-linejoin="round" d="M 493.438,198.198L 490.964,198.198L 490.964,197.004L 494.906,197.004L 494.906,204.155L 497.398,204.155L 497.398,205.366L 490.691,205.366L 490.691,204.155L 493.438,204.155L 493.438,198.198 Z M 493.95,193.488C 494.112,193.488 494.262,193.517 494.401,193.576C 494.54,193.634 494.661,193.716 494.764,193.822C 494.867,193.927 494.948,194.048 495.006,194.185C 495.065,194.321 495.094,194.47 495.094,194.631C 495.094,194.787 495.065,194.935 495.006,195.074C 494.948,195.213 494.867,195.335 494.764,195.441C 494.661,195.547 494.54,195.629 494.401,195.687C 494.262,195.746 494.112,195.775 493.95,195.775C 493.789,195.775 493.639,195.746 493.5,195.687C 493.361,195.629 493.24,195.547 493.137,195.441C 493.034,195.335 492.953,195.213 492.895,195.074C 492.836,194.935 492.807,194.787 492.807,194.631C 492.807,194.47 492.836,194.321 492.895,194.185C 492.953,194.048 493.034,193.927 493.137,193.822C 493.24,193.716 493.361,193.634 493.5,193.576C 493.639,193.517 493.789,193.488 493.95,193.488 Z "/>
	<path fill="#000000" fill-opacity="1" stroke-width="1.06667" stroke-linejoin="round" d="M 506.767,205.366L 500.026,205.366L 500.026,204.33L 504.753,198.215L 500.146,198.215L 500.146,197.004L 506.494,197.004L 506.494,198.124L 501.851,204.138L 506.767,204.138L 506.767,205.366 Z "/>
	<path fill="#000000" fill-opacity="1" stroke-width="1.06667" stroke-linejoin="round" d="M 516.461,200.738C 516.461,200.944 516.459,201.116 516.453,201.255C 516.448,201.394 516.439,201.524 516.428,201.646L 510.556,201.646C 510.556,202.503 510.795,203.161 511.273,203.62C 511.751,204.079 512.441,204.308 513.341,204.308C 513.586,204.308 513.83,204.299 514.075,204.279C 514.319,204.26 514.556,204.233 514.784,204.2C 515.011,204.167 515.23,204.129 515.438,204.087C 515.646,204.046 515.84,204 516.018,203.95L 516.018,205.145C 515.623,205.256 515.177,205.346 514.679,205.416C 514.181,205.485 513.666,205.52 513.132,205.52C 512.415,205.52 511.798,205.423 511.281,205.228C 510.764,205.034 510.34,204.752 510.009,204.382C 509.678,204.012 509.434,203.56 509.275,203.023C 509.117,202.487 509.037,201.88 509.037,201.202C 509.037,200.613 509.122,200.055 509.292,199.53C 509.461,199.005 509.708,198.544 510.033,198.146C 510.358,197.749 510.757,197.434 511.229,197.2C 511.701,196.967 512.237,196.85 512.837,196.85C 513.42,196.85 513.937,196.942 514.387,197.125C 514.837,197.308 515.216,197.568 515.524,197.903C 515.832,198.239 516.066,198.647 516.224,199.127C 516.382,199.607 516.461,200.144 516.461,200.738 Z M 514.96,200.537C 514.976,200.164 514.94,199.824 514.851,199.515C 514.762,199.207 514.625,198.941 514.438,198.719C 514.252,198.497 514.02,198.323 513.742,198.198C 513.464,198.073 513.142,198.011 512.774,198.011C 512.458,198.011 512.169,198.072 511.907,198.194C 511.646,198.316 511.421,198.488 511.232,198.711C 511.043,198.933 510.89,199.2 510.773,199.511C 510.656,199.822 510.584,200.164 510.556,200.537L 514.96,200.537 Z "/>
	<path fill="#000000" fill-opacity="1" stroke-width="1.06667" stroke-linejoin="round" d="M 522.093,202.738C 522.282,202.738 522.461,202.774 522.631,202.847C 522.8,202.919 522.947,203.019 523.072,203.147C 523.197,203.275 523.296,203.424 523.368,203.594C 523.44,203.764 523.476,203.947 523.476,204.142C 523.476,204.331 523.44,204.509 523.368,204.676C 523.296,204.843 523.197,204.99 523.072,205.115C 522.947,205.24 522.8,205.339 522.631,205.411C 522.461,205.484 522.282,205.52 522.093,205.52C 521.899,205.52 521.719,205.484 521.552,205.411C 521.386,205.339 521.24,205.24 521.115,205.115C 520.99,204.99 520.891,204.843 520.819,204.676C 520.747,204.509 520.711,204.331 520.711,204.142C 520.711,203.947 520.747,203.764 520.819,203.594C 520.891,203.424 520.99,203.275 521.115,203.147C 521.24,203.019 521.386,202.919 521.552,202.847C 521.719,202.774 521.899,202.738 522.093,202.738 Z "/>
	<path fill="#000000" fill-opacity="1" stroke-width="1.06667" stroke-linejoin="round" d="M 535.636,197.004L 532.792,204.47C 532.497,205.234 532.193,205.891 531.879,206.443C 531.565,206.994 531.222,207.447 530.85,207.801C 530.478,208.154 530.069,208.414 529.625,208.581C 529.181,208.748 528.683,208.831 528.133,208.831C 527.989,208.831 527.858,208.828 527.742,208.823C 527.625,208.817 527.497,208.808 527.358,208.797L 527.358,207.483C 527.481,207.5 527.614,207.515 527.758,207.529C 527.903,207.544 528.056,207.551 528.217,207.551C 528.483,207.551 528.732,207.512 528.962,207.434C 529.193,207.356 529.411,207.23 529.616,207.055C 529.822,206.88 530.019,206.653 530.208,206.375C 530.397,206.097 530.58,205.761 530.758,205.366L 527.41,197.004L 529.06,197.004L 531.182,202.543L 531.608,203.834L 532.09,202.501L 534.044,197.004L 535.636,197.004 Z "/>
	<line fill="none" stroke-width="0.533334" stroke-linejoin="round" stroke="#000000" stroke-opacity="1" x1="55.6799" y1="23.0133" x2="441.185" y2="23.0133"/>
	<line fill="none" stroke-width="0.533334" stroke-linejoin="round" stroke="#000000" stroke-opacity="1" x1="469.633" y1="50.0187" x2="469.633" y2="353.904"/>
	<line fill="none" stroke-width="0.533334" stroke-linejoin="round" stroke="#000000" stroke-opacity="1" x1="442.18" y1="13.6693" x2="442.18" y2="50.112"/>
	<line fill="none" stroke-width="0.533334" stroke-linejoin="round" stroke="#000000" stroke-opacity="1" x1="56.0385" y1="12.748" x2="56.0385" y2="49.1907"/>
	<line fill="none" stroke-width="1.06667" stroke-linejoin="round" stroke="#000000" stroke-opacity="1" x1="248.675" y1="285.311" x2="243.044" y2="282.06"/>
	<line fill="none" stroke-width="1.06667" stroke-linejoin="round" stroke="#000000" stroke-opacity="1" x1="248.587" y1="285.368" x2="242.956" y2="288.617"/>
	<line fill="none" stroke-width="1.06667" stroke-linejoin="round" stroke="#000000" stroke-opacity="1" x1="441.847" y1="23.164" x2="436.216" y2="19.9147"/>
	<line fill="none" stroke-width="1.06667" stroke-linejoin="round" stroke="#000000" stroke-opacity="1" x1="441.757" y1="23.216" x2="436.128" y2="26.4667"/>
	<line fill="none" stroke-width="1.06667" stroke-linejoin="round" stroke="#000000" stroke-opacity="1" x1="56.9919" y1="22.836" x2="62.6172" y2="26.0867"/>
	<line fill="none" stroke-width="1.06667" stroke-linejoin="round" stroke="#000000" stroke-opacity="1" x1="57.0812" y1="22.7787" x2="62.7052" y2="19.5294"/>
	<line fill="none" stroke-width="0.533334" stroke-linejoin="round" stroke="#000000" stroke-opacity="1" x1="478.727" y1="48.9507" x2="442.289" y2="48.9507"/>
	<line fill="none" stroke-width="0.533334" stroke-linejoin="round" stroke="#000000" stroke-opacity="1" x1="479.377" y1="354.133" x2="442.94" y2="354.133"/>
	<line fill="none" stroke-width="1.06667" stroke-linejoin="round" stroke="#000000" stroke-opacity="1" x1="469.607" y1="49.612" x2="466.357" y2="55.2427"/>
	<line fill="none" stroke-width="1.06667" stroke-linejoin="round" stroke="#000000" stroke-opacity="1" x1="469.664" y1="49.7014" x2="472.915" y2="55.3307"/>
	<line fill="none" stroke-width="1.06667" stroke-linejoin="round" stroke="#000000" stroke-opacity="1" x1="469.581" y1="353.472" x2="472.831" y2="347.847"/>
	<line fill="none" stroke-width="1.06667" stroke-linejoin="round" stroke="#000000" stroke-opacity="1" x1="469.524" y1="353.383" x2="466.273" y2="347.757"/>
</svg>
