<?xml version="1.0" encoding="utf-8"?>
<!DOCTYPE svg PUBLIC "-//W3C//DTD SVG 1.1//EN" "http://www.w3.org/Graphics/SVG/1.1/DTD/svg11.dtd">
<svg xmlns="http://www.w3.org/2000/svg" xmlns:xlink="http://www.w3.org/1999/xlink" version="1.1" baseProfile="full" width="380" height="205.333" viewBox="0 0 380.00 205.33" enable-background="new 0 0 380.00 205.33" xml:space="preserve">
	<path fill="#000000" fill-opacity="1" stroke-linejoin="round" d="M 60.9923,86.4875C 60.3841,86.1627 59.7593,85.9108 59.1179,85.7319C 58.4766,85.553 57.777,85.4635 57.0191,85.4635C 56.1527,85.4635 55.3823,85.6176 54.7077,85.9259C 54.0332,86.2342 53.4647,86.6696 53.0023,87.2321C 52.5399,87.7946 52.1859,88.4718 51.9401,89.2635C 51.6944,90.0552 51.5715,90.9303 51.5715,91.8887C 51.5715,92.8887 51.6715,93.7846 51.8713,94.5765C 52.0712,95.3684 52.3835,96.0393 52.8083,96.5893C 53.2331,97.1393 53.7766,97.5601 54.4387,97.8517C 55.1009,98.1433 55.8942,98.2891 56.8187,98.2891C 56.9769,98.2891 57.1476,98.2808 57.3309,98.2641C 57.5143,98.2474 57.6975,98.2245 57.8807,98.1953C 58.0639,98.1661 58.2409,98.1308 58.4115,98.0893C 58.5822,98.0478 58.7342,98.0021 58.8675,97.9519L 58.8675,92.7595L 55.5303,92.7595L 55.5303,90.9163L 61.0691,90.9163L 61.0691,99.2719C 60.7275,99.4303 60.3671,99.572 59.9877,99.6971C 59.6084,99.8222 59.2208,99.9264 58.8249,100.01C 58.4291,100.093 58.0353,100.156 57.6435,100.198C 57.2518,100.239 56.8726,100.26 56.5059,100.26C 55.3889,100.26 54.3823,100.085 53.4863,99.7349C 52.5903,99.3847 51.8277,98.8656 51.1985,98.1779C 50.5693,97.4902 50.0859,96.6336 49.7483,95.6083C 49.4107,94.583 49.2419,93.3951 49.2419,92.0447C 49.2419,90.7026 49.4294,89.5 49.8043,88.4371C 50.1793,87.3742 50.7063,86.4738 51.3855,85.7361C 52.0647,84.9984 52.8815,84.4357 53.8357,84.0481C 54.79,83.6605 55.8422,83.4667 56.9923,83.4667C 57.7257,83.4667 58.4235,83.5318 59.0859,83.6619C 59.7483,83.792 60.3838,84 60.9923,84.2859L 60.9923,86.4875 Z "/>
	<path fill="#000000" fill-opacity="1" stroke-linejoin="round" d="M 75.6611,100.03L 73.1488,100.03L 70.7196,94.8083C 70.5361,94.4086 70.3485,94.0776 70.1567,93.8153C 69.965,93.553 69.7587,93.3448 69.5377,93.1907C 69.3168,93.0366 69.0751,92.9262 68.8125,92.8595C 68.55,92.7928 68.2561,92.7595 67.9307,92.7595L 66.8803,92.7595L 66.8803,100.03L 64.6531,100.03L 64.6531,83.6971L 69.0299,83.6971C 69.9806,83.6971 70.7977,83.8013 71.4813,84.0097C 72.1649,84.2181 72.7255,84.5097 73.1631,84.8845C 73.6007,85.2593 73.9217,85.7113 74.1259,86.2405C 74.3302,86.7697 74.4324,87.355 74.4324,87.9963C 74.4324,88.5046 74.3573,88.9858 74.2073,89.4401C 74.0574,89.8944 73.8343,90.3068 73.5383,90.6775C 73.2423,91.0482 72.8755,91.3689 72.438,91.6397C 72.0003,91.9105 71.4982,92.1126 70.9315,92.2459C 71.3899,92.404 71.7796,92.6807 72.1005,93.0759C 72.4215,93.4711 72.7486,93.9971 73.0819,94.6539L 75.6611,100.03 Z M 72.1027,88.1791C 72.1027,87.3039 71.8299,86.6496 71.2843,86.2161C 70.7387,85.7826 69.9703,85.5659 68.9791,85.5659L 66.8803,85.5659L 66.8803,90.9675L 68.6795,90.9675C 69.2043,90.9675 69.677,90.9071 70.0975,90.7861C 70.5181,90.6652 70.8762,90.4859 71.1719,90.2483C 71.4677,90.0107 71.6967,89.7189 71.8591,89.3729C 72.0215,89.0269 72.1027,88.629 72.1027,88.1791 Z "/>
	<path fill="#000000" fill-opacity="1" stroke-linejoin="round" d="M 90.0984,100.03L 87.9235,100.03L 87.5903,89.8191L 87.45,85.9339L 86.6895,88.1979L 84.2848,94.7051L 82.7471,94.7051L 80.4535,88.4479L 79.6931,85.9339L 79.6419,89.9943L 79.3475,100.03L 77.2476,100.03L 78.0555,83.6971L 80.6931,83.6971L 82.8867,89.8567L 83.5971,91.9351L 84.2823,89.8567L 86.5872,83.6971L 89.2999,83.6971L 90.0984,100.03 Z "/>
	<path fill="#000000" fill-opacity="1" stroke-linejoin="round" d="M 103.335,93.0879C 103.335,93.3959 103.331,93.654 103.322,93.8623C 103.314,94.0706 103.302,94.2662 103.285,94.4491L 94.4771,94.4491C 94.4771,95.7344 94.8357,96.7214 95.5528,97.4099C 96.2698,98.0984 97.3037,98.4427 98.6544,98.4427C 99.021,98.4427 99.3878,98.4281 99.7548,98.3989C 100.122,98.3697 100.476,98.3301 100.818,98.2801C 101.16,98.2301 101.487,98.1739 101.8,98.1115C 102.112,98.0491 102.402,97.9803 102.669,97.9051L 102.669,99.6971C 102.077,99.8638 101.408,99.9993 100.661,100.104C 99.9148,100.208 99.1413,100.26 98.3408,100.26C 97.265,100.26 96.3394,100.114 95.5638,99.8225C 94.7882,99.5306 94.1523,99.1076 93.6562,98.5533C 93.16,97.999 92.7931,97.3196 92.5554,96.5151C 92.3176,95.7106 92.1988,94.7999 92.1988,93.7831C 92.1988,92.8991 92.3259,92.0632 92.5801,91.2755C 92.8344,90.4878 93.2052,89.7959 93.6926,89.1999C 94.1799,88.6039 94.7776,88.1308 95.4857,87.7807C 96.1939,87.4306 96.998,87.2555 97.8979,87.2555C 98.7729,87.2555 99.5478,87.3929 100.223,87.6677C 100.898,87.9425 101.466,88.3318 101.929,88.8355C 102.391,89.3392 102.741,89.9512 102.979,90.6713C 103.216,91.3914 103.335,92.197 103.335,93.0879 Z M 101.082,92.7851C 101.107,92.2264 101.053,91.7158 100.919,91.2531C 100.786,90.7904 100.579,90.3924 100.3,90.0589C 100.021,89.7254 99.6727,89.465 99.2558,89.2775C 98.8388,89.09 98.355,88.9963 97.8044,88.9963C 97.3292,88.9963 96.8956,89.088 96.5038,89.2713C 96.1119,89.4546 95.7741,89.7131 95.4905,90.0465C 95.2069,90.38 94.9775,90.7801 94.8024,91.2469C 94.6272,91.7137 94.5187,92.2264 94.4771,92.7851L 101.082,92.7851 Z "/>
	<path fill="#000000" fill-opacity="1" stroke-linejoin="round" d="M 116.8,96.6087C 116.8,97.0508 116.725,97.4469 116.575,97.7969C 116.425,98.1469 116.22,98.4574 115.961,98.7283C 115.703,98.9992 115.402,99.2306 115.06,99.4223C 114.718,99.6141 114.353,99.7724 113.965,99.8975C 113.577,100.023 113.178,100.114 112.769,100.173C 112.36,100.231 111.96,100.26 111.568,100.26C 110.716,100.26 109.934,100.222 109.22,100.145C 108.507,100.068 107.808,99.9446 107.124,99.7739L 107.124,97.7771C 107.858,97.9862 108.588,98.1451 109.314,98.2539C 110.04,98.3627 110.762,98.4171 111.48,98.4171C 112.524,98.4171 113.296,98.2758 113.796,97.9933C 114.297,97.7108 114.548,97.3076 114.548,96.7839C 114.548,96.5588 114.508,96.3566 114.428,96.1773C 114.349,95.998 114.205,95.8271 113.996,95.6647C 113.787,95.5023 113.463,95.3335 113.025,95.1583C 112.586,94.9831 111.986,94.783 111.226,94.5579C 110.658,94.3912 110.133,94.2016 109.653,93.9891C 109.172,93.7766 108.756,93.5245 108.405,93.2327C 108.054,92.941 107.778,92.5993 107.578,92.2075C 107.377,91.8158 107.277,91.3531 107.277,90.8195C 107.277,90.4694 107.359,90.0859 107.522,89.6691C 107.685,89.2523 107.963,88.8647 108.356,88.5063C 108.749,88.1479 109.28,87.8498 109.949,87.6121C 110.617,87.3744 111.454,87.2555 112.457,87.2555C 112.95,87.2555 113.498,87.2823 114.1,87.3359C 114.702,87.3895 115.329,87.4822 115.981,87.6139L 115.981,89.5595C 115.295,89.3931 114.644,89.2704 114.029,89.1915C 113.414,89.1126 112.881,89.0731 112.429,89.0731C 111.885,89.0731 111.427,89.1147 111.055,89.1979C 110.682,89.2811 110.381,89.3954 110.151,89.5407C 109.921,89.686 109.755,89.8564 109.655,90.0519C 109.555,90.2474 109.504,90.4574 109.504,90.6819C 109.504,90.907 109.548,91.1112 109.636,91.2947C 109.724,91.4782 109.887,91.6553 110.125,91.8261C 110.363,91.9969 110.695,92.1678 111.122,92.3387C 111.548,92.5097 112.103,92.6951 112.789,92.8951C 113.532,93.1119 114.159,93.3391 114.669,93.5767C 115.179,93.8143 115.593,94.0789 115.91,94.3705C 116.228,94.6621 116.456,94.9913 116.594,95.3581C 116.731,95.7249 116.8,96.1418 116.8,96.6087 Z "/>
	<path fill="#000000" fill-opacity="1" stroke-linejoin="round" d="M 131.034,100.03L 128.858,100.03L 128.858,92.0135C 128.858,91.0463 128.677,90.323 128.315,89.8435C 127.952,89.3641 127.434,89.1243 126.759,89.1243C 126.468,89.1243 126.195,89.1639 125.941,89.2431C 125.687,89.3223 125.422,89.4598 125.147,89.6557C 124.873,89.8516 124.573,90.1162 124.248,90.4497C 123.923,90.7832 123.548,91.2001 123.124,91.7003L 123.124,100.03L 120.948,100.03L 120.948,82.3659L 123.124,82.3659L 123.124,87.4799L 123.048,89.4555C 123.39,89.0472 123.725,88.7035 124.054,88.4243C 124.383,88.1451 124.712,87.918 125.042,87.7431C 125.371,87.5682 125.706,87.4432 126.048,87.3681C 126.389,87.293 126.743,87.2555 127.11,87.2555C 128.359,87.2555 129.326,87.6368 130.009,88.3993C 130.692,89.1618 131.034,90.3096 131.034,91.8427L 131.034,100.03 Z "/>
	<path fill="#000000" fill-opacity="1" stroke-linejoin="round" d="M 11.7504,4.66518C 11.1421,4.34036 10.5173,4.08852 9.87599,3.90958C 9.23465,3.73065 8.53505,3.64117 7.77718,3.64117C 6.91078,3.64117 6.14032,3.7953 5.46578,4.10358C 4.79125,4.41183 4.22278,4.84724 3.76038,5.40979C 3.29798,5.97231 2.94392,6.64944 2.69818,7.44118C 2.45245,8.23291 2.32958,9.10797 2.32958,10.0664C 2.32958,11.0664 2.42952,11.9623 2.62938,12.7542C 2.82925,13.546 3.14158,14.217 3.56638,14.767C 3.99118,15.317 4.53465,15.7378 5.19678,16.0294C 5.85892,16.321 6.65225,16.4668 7.57678,16.4668C 7.73492,16.4668 7.90565,16.4585 8.08898,16.4418C 8.27232,16.4251 8.45558,16.4022 8.63878,16.373C 8.82198,16.3438 8.99892,16.3084 9.16958,16.267C 9.34025,16.2255 9.49225,16.1797 9.62558,16.1296L 9.62558,10.9372L 6.28838,10.9372L 6.28838,9.09396L 11.8272,9.09396L 11.8272,17.4496C 11.4856,17.608 11.1251,17.7497 10.7458,17.8748C 10.3665,17.9998 9.97885,18.1041 9.58298,18.1876C 9.18712,18.2711 8.79332,18.3336 8.40158,18.3754C 8.00985,18.4171 7.63065,18.438 7.26398,18.438C 6.14692,18.438 5.14038,18.2628 4.24438,17.9126C 3.34838,17.5623 2.58578,17.0433 1.95658,16.3556C 1.32738,15.6678 0.843984,14.8113 0.506384,13.786C 0.168784,12.7606 -1.58213e-005,11.5728 -1.58213e-005,10.2224C -1.58213e-005,8.88025 0.187451,7.6777 0.562384,6.61478C 0.937318,5.55183 1.46438,4.6515 2.14358,3.91377C 2.82278,3.17604 3.63952,2.61337 4.59378,2.22578C 5.54805,1.83817 6.60025,1.64438 7.75038,1.64438C 8.48372,1.64438 9.18158,1.70944 9.84398,1.83957C 10.5064,1.9697 11.1419,2.1777 11.7504,2.46358L 11.7504,4.66518 Z "/>
	<path fill="#000000" fill-opacity="1" stroke-linejoin="round" d="M 26.4192,18.2076L 23.9068,18.2076L 21.4776,12.986C 21.2941,12.5862 21.1065,12.2552 20.9148,11.993C 20.7231,11.7307 20.5167,11.5225 20.2958,11.3684C 20.0749,11.2142 19.8331,11.1038 19.5706,11.0372C 19.3081,10.9705 19.0141,10.9372 18.6888,10.9372L 17.6384,10.9372L 17.6384,18.2076L 15.4112,18.2076L 15.4112,1.87477L 19.788,1.87477C 20.7387,1.87477 21.5558,1.97897 22.2394,2.18738C 22.923,2.39577 23.4836,2.68738 23.9212,3.06216C 24.3588,3.43697 24.6797,3.88898 24.884,4.41817C 25.0883,4.94739 25.1904,5.53265 25.1904,6.17397C 25.1904,6.68225 25.1154,7.16351 24.9654,7.61777C 24.8154,8.07204 24.5924,8.48451 24.2964,8.85518C 24.0004,9.22585 23.6336,9.54659 23.196,9.81738C 22.7584,10.0882 22.2563,10.2902 21.6896,10.4236C 22.148,10.5817 22.5377,10.8584 22.8586,11.2536C 23.1795,11.6488 23.5067,12.1748 23.84,12.8316L 26.4192,18.2076 Z M 22.8608,6.35677C 22.8608,5.48158 22.588,4.82724 22.0424,4.39377C 21.4968,3.9603 20.7284,3.74356 19.7372,3.74356L 17.6384,3.74356L 17.6384,9.14517L 19.4376,9.14517C 19.9624,9.14517 20.4351,9.08472 20.8556,8.96378C 21.2761,8.84285 21.6343,8.66357 21.93,8.42598C 22.2257,8.18837 22.4548,7.89658 22.6172,7.55057C 22.7796,7.20459 22.8608,6.80664 22.8608,6.35677 Z "/>
	<path fill="#000000" fill-opacity="1" stroke-linejoin="round" d="M 41.408,1.87477L 35.858,18.2076L 32.858,18.2076L 27.4304,1.87477L 29.9428,1.87477L 33.47,12.884L 34.4704,16.1084L 35.4952,12.884L 39.0328,1.87477L 41.408,1.87477 Z "/>
	<path fill="#000000" fill-opacity="1" stroke-linejoin="round" d="M 47.7696,7.45558L 44.0576,7.45558L 44.0576,5.66357L 49.9712,5.66357L 49.9712,16.39L 53.7088,16.39L 53.7088,18.2076L 43.648,18.2076L 43.648,16.39L 47.7696,16.39L 47.7696,7.45558 Z M 48.5376,0.389969C 48.7794,0.389969 49.0048,0.433777 49.2136,0.521378C 49.4224,0.608978 49.604,0.732056 49.7584,0.890579C 49.9128,1.0491 50.0338,1.23071 50.1214,1.43538C 50.209,1.64005 50.2528,1.86331 50.2528,2.10518C 50.2528,2.33878 50.209,2.55991 50.1214,2.76857C 50.0338,2.97725 49.9128,3.1609 49.7584,3.31958C 49.604,3.47824 49.4224,3.60138 49.2136,3.68898C 49.0048,3.77657 48.7794,3.82037 48.5376,3.82037C 48.2957,3.82037 48.0704,3.77657 47.8616,3.68898C 47.6528,3.60138 47.4712,3.47824 47.3168,3.31958C 47.1624,3.1609 47.0414,2.97725 46.9538,2.76857C 46.8662,2.55991 46.8224,2.33878 46.8224,2.10518C 46.8224,1.86331 46.8662,1.64005 46.9538,1.43538C 47.0414,1.23071 47.1624,1.0491 47.3168,0.890579C 47.4712,0.732056 47.6528,0.608978 47.8616,0.521378C 48.0704,0.433777 48.2957,0.389969 48.5376,0.389969 Z "/>
	<path fill="#000000" fill-opacity="1" stroke-linejoin="round" d="M 67.5584,14.7864C 67.5584,15.2285 67.4833,15.6246 67.333,15.9746C 67.1827,16.3246 66.9782,16.635 66.7194,16.906C 66.4606,17.1769 66.1602,17.4082 65.8182,17.6C 65.4762,17.7917 65.1111,17.9501 64.723,18.0752C 64.3349,18.2003 63.9363,18.292 63.5274,18.3504C 63.1185,18.4088 62.7178,18.438 62.3256,18.438C 61.4744,18.438 60.692,18.3996 59.9784,18.3228C 59.2648,18.246 58.5659,18.1223 57.8816,17.9516L 57.8816,15.9548C 58.616,16.1638 59.3463,16.3228 60.0724,16.4316C 60.7985,16.5404 61.5205,16.5948 62.2384,16.5948C 63.2816,16.5948 64.0536,16.4535 64.5544,16.171C 65.0552,15.8884 65.3056,15.4853 65.3056,14.9616C 65.3056,14.7365 65.2659,14.5343 65.1864,14.355C 65.1069,14.1756 64.9628,14.0048 64.754,13.8424C 64.5452,13.68 64.2214,13.5112 63.7826,13.336C 63.3438,13.1608 62.7443,12.9606 61.984,12.7356C 61.4157,12.5689 60.8913,12.3793 60.4108,12.1668C 59.9303,11.9542 59.5145,11.7021 59.1634,11.4104C 58.8123,11.1187 58.5365,10.7769 58.336,10.3852C 58.1355,9.99344 58.0352,9.53078 58.0352,8.99716C 58.0352,8.64705 58.1167,8.26357 58.2798,7.84677C 58.4429,7.42996 58.7209,7.04237 59.1138,6.68398C 59.5067,6.32558 60.0377,6.0275 60.7066,5.78976C 61.3755,5.55203 62.2116,5.43318 63.2148,5.43318C 63.7084,5.43318 64.2562,5.45998 64.8582,5.51357C 65.4602,5.56717 66.0872,5.65985 66.7392,5.79158L 66.7392,7.73718C 66.053,7.57077 65.4025,7.44812 64.7874,7.36917C 64.1723,7.29024 63.6389,7.25076 63.1872,7.25076C 62.6432,7.25076 62.185,7.29237 61.8126,7.37558C 61.4402,7.45877 61.1389,7.57303 60.9088,7.71838C 60.6786,7.86371 60.5134,8.03412 60.413,8.22957C 60.3126,8.42505 60.2624,8.63504 60.2624,8.85957C 60.2624,9.08466 60.3063,9.28891 60.3942,9.47237C 60.4821,9.65584 60.6451,9.83298 60.8832,10.0038C 61.1213,10.1746 61.4534,10.3454 61.8796,10.5164C 62.3057,10.6873 62.8615,10.8728 63.5468,11.0728C 64.2905,11.2896 64.9173,11.5168 65.4272,11.7544C 65.937,11.992 66.3508,12.2566 66.6684,12.5482C 66.986,12.8398 67.2137,13.169 67.3516,13.5358C 67.4894,13.9026 67.5584,14.3194 67.5584,14.7864 Z "/>
	<path fill="#000000" fill-opacity="1" stroke-linejoin="round" d="M 81.792,18.2076L 79.8412,18.2076L 79.766,16.1832C 79.3911,16.6173 79.0349,16.9785 78.6976,17.2666C 78.3603,17.5547 78.025,17.7864 77.6918,17.9618C 77.3586,18.1371 77.0233,18.2603 76.6858,18.3314C 76.3483,18.4024 75.9921,18.438 75.6172,18.438C 74.326,18.438 73.3512,18.0588 72.693,17.3004C 72.0347,16.542 71.7056,15.3962 71.7056,13.8632L 71.7056,5.66357L 73.8816,5.66357L 73.8816,13.6832C 73.8816,15.6072 74.6061,16.5692 76.0552,16.5692C 76.3219,16.5692 76.5822,16.5296 76.8362,16.4504C 77.0902,16.3712 77.3567,16.2338 77.6358,16.0382C 77.9148,15.8426 78.2147,15.5782 78.5354,15.2452C 78.8561,14.9121 79.2163,14.4915 79.616,13.9832L 79.616,5.66357L 81.792,5.66357L 81.792,18.2076 Z "/>
	<path fill="#000000" fill-opacity="1" stroke-linejoin="round" d="M 93.8808,18.2076L 93.8312,16.5212C 93.1477,17.1974 92.4538,17.686 91.7494,17.9868C 91.045,18.2876 90.3051,18.438 89.5296,18.438C 88.8128,18.438 88.2001,18.3462 87.6916,18.1626C 87.1831,17.979 86.7642,17.7268 86.435,17.406C 86.1058,17.0852 85.8641,16.708 85.7098,16.2744C 85.5555,15.8408 85.4784,15.3698 85.4784,14.8616C 85.4784,13.6026 85.9474,12.6168 86.8854,11.904C 87.8234,11.1912 89.2094,10.8348 91.0436,10.8348L 93.6448,10.8348L 93.6448,9.73196C 93.6448,8.98878 93.4071,8.39371 92.9318,7.94678C 92.4565,7.49983 91.7311,7.27638 90.7556,7.27638C 90.0468,7.27638 89.3484,7.35632 88.6606,7.51617C 87.9727,7.67604 87.2618,7.90332 86.528,8.19797L 86.528,6.22678C 86.8029,6.12758 87.109,6.03052 87.4462,5.93558C 87.7834,5.84064 88.1393,5.75592 88.514,5.68137C 88.8886,5.60684 89.2801,5.54684 89.6882,5.50137C 90.0963,5.4559 90.5084,5.43318 90.9244,5.43318C 91.6823,5.43318 92.3652,5.51651 92.9732,5.68318C 93.5812,5.84985 94.0954,6.10403 94.5158,6.44577C 94.9362,6.78751 95.2588,7.21671 95.4836,7.73337C 95.7084,8.25003 95.8208,8.85825 95.8208,9.55798L 95.8208,18.2076L 93.8808,18.2076 Z M 93.6448,12.4988L 90.882,12.4988C 90.3407,12.4988 89.8742,12.5529 89.4826,12.661C 89.091,12.7691 88.7702,12.9231 88.5202,13.123C 88.2702,13.3228 88.0847,13.5623 87.9638,13.8414C 87.8429,14.1204 87.7824,14.4348 87.7824,14.7844C 87.7824,15.026 87.8199,15.2571 87.895,15.4778C 87.9701,15.6984 88.0909,15.8941 88.2576,16.0648C 88.4243,16.2354 88.6409,16.3707 88.9076,16.4706C 89.1743,16.5704 89.4992,16.6204 89.8824,16.6204C 90.3824,16.6204 90.9553,16.4684 91.601,16.1646C 92.2467,15.8607 92.928,15.3798 93.6448,14.722L 93.6448,12.4988 Z "/>
	<path fill="#000000" fill-opacity="1" stroke-linejoin="round" d="M 104.192,2.33557L 100.48,2.33557L 100.48,0.543579L 106.394,0.543579L 106.394,16.39L 110.131,16.39L 110.131,18.2076L 100.07,18.2076L 100.07,16.39L 104.192,16.39L 104.192,2.33557 Z "/>
	<path fill="#000000" fill-opacity="1" stroke-linejoin="round" d="M 61.0528,51.6328C 60.4445,51.308 59.8197,51.0561 59.1784,50.8772C 58.537,50.6982 57.8374,50.6088 57.0796,50.6088C 56.2132,50.6088 55.4427,50.7629 54.7682,51.0712C 54.0936,51.3794 53.5252,51.8148 53.0628,52.3773C 52.6004,52.9399 52.2463,53.617 52.0006,54.4088C 51.7548,55.2005 51.632,56.0756 51.632,57.034C 51.632,58.034 51.7319,58.9299 51.9318,59.7218C 52.1316,60.5136 52.444,61.1846 52.8688,61.7346C 53.2936,62.2845 53.837,62.7054 54.4992,62.9969C 55.1613,63.2886 55.9546,63.4344 56.8792,63.4344C 57.0373,63.4344 57.208,63.426 57.3914,63.4094C 57.5747,63.3927 57.758,63.3698 57.9412,63.3405C 58.1244,63.3114 58.3013,63.276 58.472,63.2346C 58.6426,63.1931 58.7946,63.1473 58.928,63.0972L 58.928,57.9048L 55.5908,57.9048L 55.5908,56.0616L 61.1296,56.0616L 61.1296,64.4172C 60.788,64.5756 60.4275,64.7173 60.0482,64.8423C 59.6688,64.9674 59.2812,65.0717 58.8854,65.1552C 58.4895,65.2386 58.0957,65.3012 57.704,65.343C 57.3122,65.3847 56.933,65.4055 56.5664,65.4055C 55.4493,65.4055 54.4428,65.2304 53.5468,64.8802C 52.6508,64.5299 51.8882,64.0109 51.259,63.3232C 50.6298,62.6354 50.1464,61.7789 49.8088,60.7536C 49.4712,59.7282 49.3024,58.5404 49.3024,57.19C 49.3024,55.8478 49.4898,54.6453 49.8648,53.5824C 50.2397,52.5194 50.7668,51.6191 51.446,50.8813C 52.1252,50.1436 52.9419,49.581 53.8962,49.1934C 54.8504,48.8058 55.9026,48.612 57.0528,48.612C 57.7861,48.612 58.484,48.677 59.1464,48.8072C 59.8088,48.9373 60.4442,49.1453 61.0528,49.4312L 61.0528,51.6328 Z "/>
	<path fill="#000000" fill-opacity="1" stroke-linejoin="round" d="M 75.7216,65.1752L 73.2092,65.1752L 70.78,59.9536C 70.5965,59.5538 70.4089,59.2228 70.2172,58.9606C 70.0254,58.6983 69.8191,58.4901 69.5982,58.336C 69.3772,58.1818 69.1355,58.0714 68.873,58.0048C 68.6104,57.9381 68.3165,57.9048 67.9912,57.9048L 66.9408,57.9048L 66.9408,65.1752L 64.7136,65.1752L 64.7136,48.8423L 69.0904,48.8423C 70.041,48.8423 70.8582,48.9466 71.5418,49.155C 72.2254,49.3634 72.786,49.655 73.2236,50.0298C 73.6612,50.4046 73.9821,50.8566 74.1864,51.3858C 74.3906,51.9149 74.4928,52.5002 74.4928,53.1416C 74.4928,53.6498 74.4178,54.1311 74.2678,54.5854C 74.1178,55.0396 73.8948,55.4521 73.5988,55.8228C 73.3028,56.1934 72.936,56.5142 72.4984,56.785C 72.0608,57.0558 71.5586,57.2578 70.992,57.3912C 71.4504,57.5493 71.84,57.826 72.161,58.2212C 72.4819,58.6164 72.809,59.1424 73.1424,59.7992L 75.7216,65.1752 Z M 72.1632,53.3244C 72.1632,52.4492 71.8904,51.7948 71.3448,51.3614C 70.7992,50.9279 70.0308,50.7112 69.0396,50.7112L 66.9408,50.7112L 66.9408,56.1128L 68.74,56.1128C 69.2648,56.1128 69.7374,56.0523 70.158,55.9314C 70.5785,55.8104 70.9366,55.6312 71.2324,55.3936C 71.5281,55.156 71.7572,54.8642 71.9196,54.5182C 72.082,54.1721 72.1632,53.7742 72.1632,53.3244 Z "/>
	<path fill="#000000" fill-opacity="1" stroke-linejoin="round" d="M 88.4704,50.7368L 81.5328,50.7368L 81.5328,56.0359L 88.1076,56.0359L 88.1076,57.9048L 81.5328,57.9048L 81.5328,65.1752L 79.2544,65.1752L 79.2544,48.8423L 88.4704,48.8423L 88.4704,50.7368 Z "/>
	<path fill="#000000" fill-opacity="1" stroke-linejoin="round" d="M 93.3088,52.6312L 95.298,52.6312L 95.3604,54.9436C 96.1025,54.05 96.834,53.4028 97.555,53.002C 98.2759,52.6012 99.0032,52.4008 99.7368,52.4008C 101.037,52.4008 102.023,52.822 102.694,53.6646C 103.365,54.5071 103.675,55.7584 103.626,57.4184L 101.424,57.4184C 101.449,56.3144 101.288,55.5135 100.943,55.016C 100.597,54.5184 100.091,54.2696 99.4236,54.2696C 99.1318,54.2696 98.838,54.3218 98.5422,54.4264C 98.2463,54.5309 97.9421,54.6982 97.6296,54.9284C 97.317,55.1585 96.9857,55.4534 96.6356,55.813C 96.2854,56.1725 95.9104,56.6077 95.5104,57.1183L 95.5104,65.1752L 93.3088,65.1752L 93.3088,52.6312 Z "/>
	<path fill="#000000" fill-opacity="1" stroke-linejoin="round" d="M 114.972,65.1752L 114.922,63.4888C 114.239,64.165 113.545,64.6536 112.841,64.9543C 112.136,65.2552 111.396,65.4055 110.621,65.4055C 109.904,65.4055 109.291,65.3138 108.783,65.1302C 108.274,64.9466 107.855,64.6944 107.526,64.3736C 107.197,64.0528 106.955,63.6756 106.801,63.242C 106.647,62.8083 106.57,62.3374 106.57,61.8292C 106.57,60.5702 107.039,59.5844 107.977,58.8716C 108.915,58.1588 110.301,57.8024 112.135,57.8024L 114.736,57.8024L 114.736,56.6996C 114.736,55.9564 114.498,55.3613 114.023,54.9144C 113.548,54.4674 112.822,54.244 111.847,54.244C 111.138,54.244 110.44,54.3239 109.752,54.4838C 109.064,54.6436 108.353,54.8709 107.619,55.1656L 107.619,53.1944C 107.894,53.0952 108.2,52.9981 108.537,52.9032C 108.875,52.8082 109.23,52.7235 109.605,52.649C 109.98,52.5744 110.371,52.5144 110.779,52.469C 111.188,52.4235 111.6,52.4008 112.016,52.4008C 112.773,52.4008 113.456,52.4841 114.064,52.6508C 114.672,52.8174 115.187,53.0716 115.607,53.4134C 116.027,53.7551 116.35,54.1843 116.575,54.701C 116.8,55.2176 116.912,55.8258 116.912,56.5256L 116.912,65.1752L 114.972,65.1752 Z M 114.736,59.4664L 111.973,59.4664C 111.432,59.4664 110.965,59.5204 110.574,59.6286C 110.182,59.7367 109.861,59.8907 109.611,60.0905C 109.361,60.2904 109.176,60.5299 109.055,60.809C 108.934,61.088 108.874,61.4024 108.874,61.752C 108.874,61.9936 108.911,62.2247 108.986,62.4454C 109.061,62.666 109.182,62.8617 109.349,63.0323C 109.515,63.203 109.732,63.3383 109.999,63.4382C 110.265,63.538 110.59,63.588 110.974,63.588C 111.474,63.588 112.046,63.436 112.692,63.1322C 113.338,62.8283 114.019,62.3474 114.736,61.6896L 114.736,59.4664 Z "/>
	<path fill="#000000" fill-opacity="1" stroke-linejoin="round" d="M 129.968,65.1752L 129.968,56.1676C 129.968,55.7758 129.954,55.455 129.927,55.2052C 129.9,54.9553 129.857,54.7575 129.798,54.6118C 129.74,54.466 129.666,54.364 129.576,54.3058C 129.486,54.2475 129.375,54.2184 129.242,54.2184C 129.086,54.2184 128.942,54.2684 128.809,54.3683C 128.676,54.4684 128.534,54.6308 128.382,54.8556C 128.229,55.0804 128.062,55.378 127.878,55.7486C 127.695,56.1191 127.479,56.5752 127.229,57.1168L 127.229,65.1752L 125.053,65.1752L 125.053,56.4044C 125.053,55.9465 125.039,55.576 125.012,55.2928C 124.984,55.0096 124.941,54.7888 124.882,54.6306C 124.823,54.4723 124.747,54.364 124.653,54.3058C 124.559,54.2475 124.445,54.2184 124.312,54.2184C 124.171,54.2184 124.038,54.26 123.913,54.3434C 123.787,54.4267 123.648,54.5766 123.495,54.7932C 123.342,55.0097 123.172,55.3053 122.984,55.68C 122.796,56.0546 122.572,56.5336 122.314,57.1168L 122.314,65.1752L 120.138,65.1752L 120.138,52.6312L 121.946,52.6312L 122.055,55.0175C 122.272,54.5416 122.483,54.1366 122.687,53.8028C 122.892,53.4689 123.103,53.1998 123.32,52.9954C 123.537,52.791 123.768,52.6407 124.014,52.5448C 124.26,52.4488 124.534,52.4008 124.834,52.4008C 125.511,52.4008 126.024,52.6219 126.375,53.0644C 126.725,53.5068 126.9,54.1912 126.9,55.1176C 127.101,54.6837 127.298,54.2977 127.49,53.9596C 127.682,53.6214 127.889,53.3376 128.111,53.1082C 128.332,52.8787 128.577,52.7034 128.845,52.5824C 129.112,52.4613 129.422,52.4008 129.773,52.4008C 131.354,52.4008 132.144,53.6132 132.144,56.038L 132.144,65.1752L 129.968,65.1752 Z "/>
	<path fill="#000000" fill-opacity="1" stroke-linejoin="round" d="M 145.712,58.2332C 145.712,58.5412 145.708,58.7993 145.7,59.0076C 145.691,59.2158 145.679,59.4114 145.662,59.5944L 136.854,59.5944C 136.854,60.8797 137.213,61.8666 137.93,62.5552C 138.647,63.2437 139.681,63.588 141.032,63.588C 141.398,63.588 141.765,63.5734 142.132,63.5442C 142.499,63.515 142.853,63.4754 143.195,63.4254C 143.537,63.3754 143.864,63.3192 144.177,63.2568C 144.49,63.1944 144.779,63.1255 145.046,63.0504L 145.046,64.8423C 144.454,65.009 143.785,65.1446 143.038,65.249C 142.292,65.3534 141.519,65.4055 140.718,65.4055C 139.642,65.4055 138.717,65.2596 137.941,64.9678C 137.165,64.6759 136.529,64.2528 136.033,63.6985C 135.537,63.1443 135.17,62.4649 134.933,61.6604C 134.695,60.8558 134.576,59.9452 134.576,58.9284C 134.576,58.0444 134.703,57.2085 134.957,56.4207C 135.212,55.633 135.582,54.9412 136.07,54.3452C 136.557,53.7491 137.155,53.2761 137.863,52.926C 138.571,52.5758 139.375,52.4008 140.275,52.4008C 141.15,52.4008 141.925,52.5381 142.6,52.813C 143.275,53.0878 143.844,53.477 144.306,53.9808C 144.768,54.4845 145.118,55.0964 145.356,55.8166C 145.593,56.5367 145.712,57.3422 145.712,58.2332 Z M 143.459,57.9304C 143.484,57.3717 143.43,56.861 143.297,56.3983C 143.163,55.9357 142.957,55.5376 142.677,55.2042C 142.398,54.8707 142.05,54.6102 141.633,54.4228C 141.216,54.2353 140.732,54.1416 140.182,54.1416C 139.706,54.1416 139.273,54.2332 138.881,54.4166C 138.489,54.5999 138.151,54.8583 137.868,55.1918C 137.584,55.5252 137.355,55.9254 137.18,56.3922C 137.004,56.8589 136.896,57.3717 136.854,57.9304L 143.459,57.9304 Z "/>
	<path fill="#000000" fill-opacity="1" stroke-linejoin="round" d="M 61.0236,121.569C 60.4153,121.245 59.7905,120.993 59.1492,120.814C 58.5079,120.635 57.8083,120.545 57.0504,120.545C 56.184,120.545 55.4135,120.699 54.739,121.008C 54.0645,121.316 53.496,121.751 53.0336,122.314C 52.5712,122.876 52.2171,123.554 51.9714,124.345C 51.7257,125.137 51.6028,126.012 51.6028,126.971C 51.6028,127.971 51.7027,128.866 51.9026,129.658C 52.1025,130.45 52.4148,131.121 52.8396,131.671C 53.2644,132.221 53.8078,132.642 54.47,132.934C 55.1321,133.225 55.9254,133.371 56.85,133.371C 57.0081,133.371 57.1789,133.363 57.3622,133.346C 57.5455,133.329 57.7288,133.306 57.912,133.277C 58.0952,133.248 58.2721,133.213 58.4428,133.171C 58.6135,133.13 58.7655,133.084 58.8988,133.034L 58.8988,127.841L 55.5616,127.841L 55.5616,125.998L 61.1004,125.998L 61.1004,134.354C 60.7588,134.512 60.3983,134.654 60.019,134.779C 59.6397,134.904 59.252,135.008 58.8562,135.092C 58.4603,135.175 58.0665,135.238 57.6748,135.28C 57.2831,135.321 56.9039,135.342 56.5372,135.342C 55.4201,135.342 54.4136,135.167 53.5176,134.817C 52.6216,134.466 51.859,133.947 51.2298,133.26C 50.6006,132.572 50.1172,131.715 49.7796,130.69C 49.442,129.665 49.2732,128.477 49.2732,127.127C 49.2732,125.784 49.4607,124.582 49.8356,123.519C 50.2105,122.456 50.7376,121.556 51.4168,120.818C 52.096,120.08 52.9127,119.518 53.867,119.13C 54.8213,118.742 55.8735,118.549 57.0236,118.549C 57.7569,118.549 58.4548,118.614 59.1172,118.744C 59.7796,118.874 60.4151,119.082 61.0236,119.368L 61.0236,121.569 Z "/>
	<path fill="#000000" fill-opacity="1" stroke-linejoin="round" d="M 75.6924,135.112L 73.18,135.112L 70.7508,129.89C 70.5673,129.49 70.3797,129.159 70.188,128.897C 69.9963,128.635 69.7899,128.427 69.569,128.273C 69.3481,128.118 69.1063,128.008 68.8438,127.941C 68.5813,127.875 68.2873,127.841 67.962,127.841L 66.9116,127.841L 66.9116,135.112L 64.6844,135.112L 64.6844,118.779L 69.0612,118.779C 70.0118,118.779 70.829,118.883 71.5126,119.092C 72.1962,119.3 72.7568,119.592 73.1944,119.966C 73.632,120.341 73.9529,120.793 74.1572,121.322C 74.3615,121.852 74.4636,122.437 74.4636,123.078C 74.4636,123.586 74.3886,124.068 74.2386,124.522C 74.0886,124.976 73.8656,125.389 73.5696,125.759C 73.2736,126.13 72.9068,126.451 72.4692,126.722C 72.0316,126.992 71.5295,127.194 70.9628,127.328C 71.4212,127.486 71.8109,127.763 72.1318,128.158C 72.4527,128.553 72.7799,129.079 73.1132,129.736L 75.6924,135.112 Z M 72.134,123.261C 72.134,122.386 71.8612,121.731 71.3156,121.298C 70.77,120.864 70.0016,120.648 69.0104,120.648L 66.9116,120.648L 66.9116,126.049L 68.7108,126.049C 69.2356,126.049 69.7083,125.989 70.1288,125.868C 70.5493,125.747 70.9074,125.568 71.2032,125.33C 71.4989,125.093 71.728,124.801 71.8904,124.455C 72.0528,124.109 72.134,123.711 72.134,123.261 Z "/>
	<path fill="#000000" fill-opacity="1" stroke-linejoin="round" d="M 89.1068,134.497C 87.7983,135.043 86.4272,135.317 84.9936,135.317C 82.6848,135.317 80.9115,134.627 79.6738,133.247C 78.4361,131.868 77.8172,129.827 77.8172,127.127C 77.8172,125.818 77.9881,124.634 78.3298,123.576C 78.6715,122.517 79.1591,121.619 79.7926,120.881C 80.4261,120.143 81.1929,119.574 82.093,119.174C 82.9931,118.774 84.0016,118.574 85.1184,118.574C 85.8771,118.574 86.5815,118.639 87.2316,118.769C 87.8817,118.899 88.5068,119.099 89.1068,119.368L 89.1068,121.544C 88.5145,121.219 87.9014,120.972 87.2674,120.801C 86.6334,120.631 85.941,120.545 85.1904,120.545C 84.4229,120.545 83.7284,120.689 83.1068,120.977C 82.4852,121.264 81.9575,121.681 81.5238,122.227C 81.09,122.772 80.7564,123.439 80.5228,124.227C 80.2892,125.014 80.1724,125.912 80.1724,126.92C 80.1724,129.037 80.6021,130.632 81.4614,131.707C 82.3207,132.782 83.5804,133.32 85.2404,133.32C 85.9412,133.32 86.6127,133.239 87.255,133.077C 87.8973,132.915 88.5145,132.689 89.1068,132.398L 89.1068,134.497 Z "/>
	<path fill="#000000" fill-opacity="1" stroke-linejoin="round" d="M 100.837,135.112L 100.788,133.425C 100.104,134.102 99.4102,134.59 98.7058,134.891C 98.0014,135.192 97.2615,135.342 96.486,135.342C 95.7692,135.342 95.1565,135.25 94.648,135.067C 94.1395,134.883 93.7206,134.631 93.3914,134.31C 93.0622,133.989 92.8205,133.612 92.6662,133.179C 92.5119,132.745 92.4348,132.274 92.4348,131.766C 92.4348,130.507 92.9038,129.521 93.8418,128.808C 94.7798,128.095 96.1659,127.739 98,127.739L 100.601,127.739L 100.601,126.636C 100.601,125.893 100.364,125.298 99.8882,124.851C 99.4129,124.404 98.6875,124.181 97.712,124.181C 97.0032,124.181 96.3049,124.26 95.617,124.42C 94.9291,124.58 94.2183,124.807 93.4844,125.102L 93.4844,123.131C 93.7593,123.032 94.0654,122.935 94.4026,122.84C 94.7398,122.745 95.0957,122.66 95.4704,122.586C 95.8451,122.511 96.2365,122.451 96.6446,122.406C 97.0527,122.36 97.4648,122.337 97.8808,122.337C 98.6387,122.337 99.3216,122.421 99.9296,122.587C 100.538,122.754 101.052,123.008 101.472,123.35C 101.893,123.692 102.215,124.121 102.44,124.638C 102.665,125.154 102.777,125.762 102.777,126.462L 102.777,135.112L 100.837,135.112 Z M 100.601,129.403L 97.8384,129.403C 97.2971,129.403 96.8306,129.457 96.439,129.565C 96.0474,129.673 95.7266,129.827 95.4766,130.027C 95.2266,130.227 95.0411,130.466 94.9202,130.746C 94.7993,131.025 94.7388,131.339 94.7388,131.689C 94.7388,131.93 94.7763,132.161 94.8514,132.382C 94.9265,132.603 95.0473,132.798 95.214,132.969C 95.3807,133.14 95.5973,133.275 95.864,133.375C 96.1307,133.475 96.4556,133.525 96.8388,133.525C 97.3388,133.525 97.9117,133.373 98.5574,133.069C 99.2031,132.765 99.8844,132.284 100.601,131.626L 100.601,129.403 Z "/>
	<path fill="#000000" fill-opacity="1" stroke-linejoin="round" d="M 115.833,135.112L 115.833,126.104C 115.833,125.712 115.82,125.392 115.792,125.142C 115.765,124.892 115.722,124.694 115.664,124.548C 115.605,124.403 115.531,124.301 115.441,124.242C 115.351,124.184 115.24,124.155 115.108,124.155C 114.952,124.155 114.807,124.205 114.674,124.305C 114.542,124.405 114.399,124.567 114.247,124.792C 114.095,125.017 113.927,125.315 113.744,125.685C 113.56,126.056 113.344,126.512 113.094,127.053L 113.094,135.112L 110.918,135.112L 110.918,126.341C 110.918,125.883 110.904,125.513 110.877,125.229C 110.849,124.946 110.806,124.725 110.747,124.567C 110.689,124.409 110.612,124.301 110.518,124.242C 110.424,124.184 110.311,124.155 110.177,124.155C 110.036,124.155 109.903,124.197 109.778,124.28C 109.652,124.363 109.513,124.513 109.36,124.73C 109.207,124.946 109.037,125.242 108.849,125.617C 108.661,125.991 108.437,126.47 108.179,127.053L 108.179,135.112L 106.003,135.112L 106.003,122.568L 107.812,122.568L 107.92,124.954C 108.137,124.478 108.348,124.073 108.553,123.739C 108.757,123.405 108.968,123.136 109.185,122.932C 109.402,122.728 109.633,122.577 109.88,122.481C 110.126,122.385 110.399,122.337 110.7,122.337C 111.376,122.337 111.889,122.559 112.24,123.001C 112.59,123.443 112.766,124.128 112.766,125.054C 112.966,124.62 113.163,124.234 113.355,123.896C 113.547,123.558 113.754,123.274 113.976,123.045C 114.198,122.815 114.442,122.64 114.71,122.519C 114.977,122.398 115.287,122.337 115.638,122.337C 117.219,122.337 118.009,123.55 118.009,125.975L 118.009,135.112L 115.833,135.112 Z "/>
	<path fill="#000000" fill-opacity="1" stroke-linejoin="round" d="M 131.577,128.17C 131.577,128.478 131.573,128.736 131.565,128.944C 131.557,129.152 131.544,129.348 131.527,129.531L 122.72,129.531C 122.72,130.816 123.078,131.803 123.795,132.492C 124.512,133.18 125.546,133.525 126.897,133.525C 127.263,133.525 127.63,133.51 127.997,133.481C 128.364,133.452 128.719,133.412 129.06,133.362C 129.402,133.312 129.73,133.256 130.042,133.193C 130.355,133.131 130.645,133.062 130.912,132.987L 130.912,134.779C 130.319,134.946 129.65,135.081 128.904,135.186C 128.157,135.29 127.384,135.342 126.583,135.342C 125.507,135.342 124.582,135.196 123.806,134.904C 123.031,134.612 122.395,134.189 121.899,133.635C 121.402,133.081 121.036,132.401 120.798,131.597C 120.56,130.792 120.441,129.882 120.441,128.865C 120.441,127.981 120.568,127.145 120.823,126.357C 121.077,125.57 121.448,124.878 121.935,124.282C 122.422,123.686 123.02,123.213 123.728,122.863C 124.436,122.512 125.24,122.337 126.14,122.337C 127.015,122.337 127.79,122.475 128.465,122.75C 129.14,123.024 129.709,123.414 130.171,123.917C 130.634,124.421 130.984,125.033 131.221,125.753C 131.458,126.473 131.577,127.279 131.577,128.17 Z M 129.324,127.867C 129.349,127.308 129.295,126.798 129.162,126.335C 129.028,125.872 128.822,125.474 128.543,125.141C 128.263,124.807 127.915,124.547 127.498,124.359C 127.081,124.172 126.597,124.078 126.047,124.078C 125.572,124.078 125.138,124.17 124.746,124.353C 124.354,124.536 124.017,124.795 123.733,125.128C 123.449,125.462 123.22,125.862 123.045,126.329C 122.87,126.796 122.761,127.308 122.72,127.867L 129.324,127.867 Z "/>
	<path fill="#000000" fill-opacity="1" stroke-linejoin="round" d="M 135.596,122.568L 137.586,122.568L 137.648,124.88C 138.39,123.987 139.122,123.339 139.843,122.939C 140.564,122.538 141.291,122.337 142.024,122.337C 143.325,122.337 144.311,122.759 144.982,123.601C 145.653,124.444 145.963,125.695 145.913,127.355L 143.712,127.355C 143.736,126.251 143.576,125.45 143.23,124.953C 142.884,124.455 142.378,124.206 141.711,124.206C 141.419,124.206 141.126,124.258 140.83,124.363C 140.534,124.467 140.23,124.635 139.917,124.865C 139.605,125.095 139.273,125.39 138.923,125.75C 138.573,126.109 138.198,126.544 137.798,127.055L 137.798,135.112L 135.596,135.112L 135.596,122.568 Z "/>
	<path fill="#000000" fill-opacity="1" stroke-linejoin="round" d="M 157.26,135.112L 157.21,133.425C 156.527,134.102 155.833,134.59 155.128,134.891C 154.424,135.192 153.684,135.342 152.908,135.342C 152.192,135.342 151.579,135.25 151.07,135.067C 150.562,134.883 150.143,134.631 149.814,134.31C 149.485,133.989 149.243,133.612 149.089,133.179C 148.934,132.745 148.857,132.274 148.857,131.766C 148.857,130.507 149.326,129.521 150.264,128.808C 151.202,128.095 152.588,127.739 154.422,127.739L 157.024,127.739L 157.024,126.636C 157.024,125.893 156.786,125.298 156.311,124.851C 155.835,124.404 155.11,124.181 154.134,124.181C 153.426,124.181 152.727,124.26 152.039,124.42C 151.352,124.58 150.641,124.807 149.907,125.102L 149.907,123.131C 150.182,123.032 150.488,122.935 150.825,122.84C 151.162,122.745 151.518,122.66 151.893,122.586C 152.267,122.511 152.659,122.451 153.067,122.406C 153.475,122.36 153.887,122.337 154.303,122.337C 155.061,122.337 155.744,122.421 156.352,122.587C 156.96,122.754 157.474,123.008 157.895,123.35C 158.315,123.692 158.638,124.121 158.862,124.638C 159.087,125.154 159.2,125.762 159.2,126.462L 159.2,135.112L 157.26,135.112 Z M 157.024,129.403L 154.261,129.403C 153.719,129.403 153.253,129.457 152.861,129.565C 152.47,129.673 152.149,129.827 151.899,130.027C 151.649,130.227 151.464,130.466 151.343,130.746C 151.222,131.025 151.161,131.339 151.161,131.689C 151.161,131.93 151.199,132.161 151.274,132.382C 151.349,132.603 151.47,132.798 151.636,132.969C 151.803,133.14 152.02,133.275 152.286,133.375C 152.553,133.475 152.878,133.525 153.261,133.525C 153.761,133.525 154.334,133.373 154.98,133.069C 155.626,132.765 156.307,132.284 157.024,131.626L 157.024,129.403 Z "/>
	<line fill="none" stroke-width="1.06667" stroke-linejoin="round" stroke="#000000" stroke-opacity="1" x1="11.5111" y1="29.1137" x2="11.5111" y2="196.974"/>
	<line fill="none" stroke-width="1.06667" stroke-linejoin="round" stroke="#000000" stroke-opacity="1" x1="12.4231" y1="56.4577" x2="38.3284" y2="56.4577"/>
	<line fill="none" stroke-width="1.06667" stroke-linejoin="round" stroke="#000000" stroke-opacity="1" x1="12.1204" y1="91.1977" x2="38.0218" y2="91.1977"/>
	<line fill="none" stroke-width="1.06667" stroke-linejoin="round" stroke="#000000" stroke-opacity="1" x1="12.5738" y1="126.854" x2="38.4791" y2="126.854"/>
	<path fill="#000000" fill-opacity="1" stroke-width="1.06667" stroke-linejoin="round" d="M 137.405,1.21802C 137.571,1.32912 137.488,1.49579 137.155,1.71802L 137.155,5.21802L 139.321,5.21802L 139.321,6.46802L 137.155,6.46802L 137.155,10.8847L 139.821,10.0513L 139.821,11.3013L 137.155,12.1347L 137.155,18.8013C 137.155,19.6902 136.793,20.1347 136.071,20.1347L 134.405,20.1347L 134.155,18.8847L 135.655,18.8847C 135.877,18.8847 135.988,18.7736 135.988,18.5513L 135.988,12.5513L 134.155,13.1347C 133.932,13.6902 133.738,13.7458 133.571,13.3013L 133.071,12.0513L 135.988,11.218L 135.988,6.46802L 133.405,6.46802L 133.405,5.21802L 135.988,5.21802L 135.988,1.05135L 137.405,1.21802 Z M 144.071,1.63467C 144.238,1.74579 144.155,1.91245 143.821,2.13467L 143.821,4.96802L 147.488,4.96802L 147.488,1.55135L 148.905,1.71802C 149.071,1.82912 148.988,1.99579 148.655,2.21802L 148.655,4.96802L 152.321,4.96802L 152.321,6.21802L 148.655,6.21802L 148.655,8.96802L 147.488,8.96802L 147.488,6.21802L 143.821,6.21802L 143.821,9.13467L 142.655,9.13467L 142.655,6.21802L 139.738,6.21802L 139.738,4.96802L 142.655,4.96802L 142.655,1.46802L 144.071,1.63467 Z M 146.321,13.6347L 149.821,13.6347L 149.821,10.6347L 146.321,10.6347L 146.321,13.6347 Z M 141.738,13.6347L 145.155,13.6347L 145.155,10.6347L 141.738,10.6347L 141.738,13.6347 Z M 150.988,9.55135L 150.988,20.1347L 149.821,20.1347L 149.821,19.0513L 141.738,19.0513L 141.738,20.218L 140.571,20.218L 140.571,9.55135L 150.988,9.55135 Z M 146.321,17.968L 149.821,17.968L 149.821,14.718L 146.321,14.718L 146.321,17.968 Z M 141.738,17.968L 145.155,17.968L 145.155,14.718L 141.738,14.718L 141.738,17.968 Z "/>
	<path fill="#000000" fill-opacity="1" stroke-width="1.06667" stroke-linejoin="round" d="M 156.905,5.96802C 157.182,6.02357 157.127,6.19025 156.738,6.46802L 156.738,17.8013L 171.321,17.8013L 171.321,5.96802L 172.655,6.13467C 172.932,6.19025 172.877,6.3569 172.488,6.63467L 172.488,20.0513L 171.321,20.0513L 171.321,18.8847L 156.738,18.8847L 156.738,20.218L 155.571,20.218L 155.571,5.80135L 156.905,5.96802 Z M 173.405,2.21802L 173.405,3.30135L 164.571,3.30135L 164.571,6.55135L 168.738,6.55135L 168.738,15.468L 159.238,15.468L 159.238,6.55135L 163.405,6.55135L 163.405,3.30135L 154.821,3.30135L 154.821,2.21802L 173.405,2.21802 Z M 164.571,10.468L 167.571,10.468L 167.571,7.63467L 164.571,7.63467L 164.571,10.468 Z M 164.571,14.3847L 167.571,14.3847L 167.571,11.5513L 164.571,11.5513L 164.571,14.3847 Z M 160.405,14.3847L 163.405,14.3847L 163.405,11.5513L 160.405,11.5513L 160.405,14.3847 Z M 160.405,10.468L 163.405,10.468L 163.405,7.63467L 160.405,7.63467L 160.405,10.468 Z "/>
	<path fill="#000000" fill-opacity="1" stroke-width="1.06667" stroke-linejoin="round" d="M 184.405,7.21802C 184.627,7.32912 184.543,7.52357 184.155,7.80135L 184.155,9.46802C 184.155,12.7458 183.21,15.3291 181.321,17.218C 180.655,17.8847 179.877,18.468 178.988,18.968L 177.821,17.8013C 178.988,17.1902 179.821,16.6347 180.321,16.1347C 181.932,14.5236 182.738,12.3569 182.738,9.63467L 182.738,7.05135L 184.405,7.21802 Z M 191.738,4.71802C 191.905,4.94025 191.766,5.07912 191.321,5.13467C 189.543,7.41245 187.543,9.41245 185.321,11.1347L 184.238,10.1347C 186.349,8.63467 188.071,6.99579 189.405,5.21802L 175.905,5.21802L 175.905,3.88467L 190.321,3.88467L 190.821,3.63467L 191.738,4.71802 Z "/>
	<path fill="#000000" fill-opacity="1" stroke-width="1.06667" stroke-linejoin="round" d="M 207.563,3.55135C 207.841,3.77357 207.73,3.91245 207.23,3.96802C 205.952,5.46802 204.563,6.91245 203.063,8.30135L 203.063,19.218L 201.647,19.218L 201.647,9.38467C 199.98,10.7736 197.647,12.1347 194.647,13.468L 193.563,12.218C 197.508,10.718 200.702,8.74579 203.147,6.30135C 204.258,5.19025 205.285,3.94025 206.23,2.55135L 207.563,3.55135 Z "/>
	<path fill="#000000" fill-opacity="1" stroke-width="1.06667" stroke-linejoin="round" d="M 218.061,9.71802L 210.145,9.71802L 210.145,8.38467L 226.728,8.38467L 226.728,9.71802L 219.478,9.71802L 219.478,11.1347C 219.478,14.2458 218.533,16.7458 216.645,18.6347C 216.422,18.8569 216.172,19.0791 215.895,19.3013L 214.561,18.3013C 215.006,18.0236 215.367,17.7458 215.645,17.468C 217.256,15.8569 218.061,13.7458 218.061,11.1347L 218.061,9.71802 Z M 223.728,3.55135L 223.728,4.88467L 212.645,4.88467L 212.645,3.55135L 223.728,3.55135 Z "/>
	<path fill="#000000" fill-opacity="1" stroke-width="1.06667" stroke-linejoin="round" d="M 238.969,3.13467C 239.246,3.30135 239.135,3.46802 238.635,3.63467C 237.302,7.57912 235.802,11.5236 234.135,15.468C 237.135,15.3569 240.107,15.1624 243.052,14.8847C 242.219,13.6069 241.219,12.3013 240.052,10.968L 241.135,10.1347C 243.413,12.6347 245.219,14.9958 246.552,17.218L 245.302,18.218L 243.969,16.0513C 239.246,16.5513 234.691,16.9124 230.302,17.1347C 230.08,17.5791 229.913,17.6902 229.802,17.468L 229.219,15.6347L 232.635,15.5513C 234.413,11.3847 235.913,7.02357 237.135,2.46802L 238.969,3.13467 Z "/>
	<path fill="#000000" fill-opacity="1" stroke-width="1.06667" stroke-linejoin="round" d="M 263.816,49.9165C 264.038,50.1387 263.983,50.3054 263.65,50.4165C 263.038,54.6387 261.677,57.8054 259.566,59.9165C 257.955,61.5276 255.622,62.7221 252.566,63.4998L 251.483,62.0832C 254.65,61.4721 257.038,60.361 258.65,58.7498C 260.372,57.0276 261.483,54.4165 261.983,50.9165L 249.9,50.9165L 249.9,49.5832L 262.316,49.5832L 262.816,49.2498L 263.816,49.9165 Z "/>
	<path fill="#000000" fill-opacity="1" stroke-width="1.06667" stroke-linejoin="round" d="M 268.39,48.6665C 268.612,48.7776 268.557,48.9443 268.224,49.1665L 268.224,61.0832C 271.668,60.5276 274.446,59.1943 276.557,57.0832C 277.668,55.9721 278.585,54.8054 279.307,53.5832L 280.307,54.6665C 279.696,55.6665 278.668,56.8887 277.224,58.3332C 275.001,60.5554 271.946,61.9721 268.057,62.5832L 267.64,62.9998L 267.557,62.9998L 266.474,61.9165L 266.474,61.8332L 266.807,61.5832L 266.807,48.5832L 268.39,48.6665 Z "/>
	<rect x="282.646" y="55.0832" fill="#000000" fill-opacity="1" stroke-width="1.06667" stroke-linejoin="round" width="17.6667" height="1.33333"/>
	<path fill="#000000" fill-opacity="1" stroke-width="1.06667" stroke-linejoin="round" d="M 312.558,48.1665C 312.836,48.3332 312.725,48.4998 312.225,48.6665C 310.892,52.611 309.392,56.5554 307.725,60.4998C 310.725,60.3887 313.697,60.1943 316.642,59.9165C 315.808,58.6387 314.808,57.3332 313.642,55.9998L 314.725,55.1665C 317.003,57.6665 318.808,60.0276 320.142,62.2498L 318.892,63.2498L 317.558,61.0832C 312.836,61.5832 308.28,61.9443 303.892,62.1665C 303.669,62.611 303.503,62.7221 303.392,62.4998L 302.808,60.6665L 306.225,60.5832C 308.003,56.4165 309.503,52.0554 310.725,47.4998L 312.558,48.1665 Z "/>
	<path fill="#000000" fill-opacity="1" stroke-width="1.06667" stroke-linejoin="round" d="M 265.65,84.9522L 264.733,84.9522C 264.122,84.9522 263.594,84.73 263.15,84.2856C 262.761,83.8967 262.566,83.3967 262.566,82.7856C 262.566,82.1744 262.761,81.6744 263.15,81.2856C 263.594,80.8411 264.122,80.6189 264.733,80.6189C 265.344,80.6189 265.872,80.8411 266.316,81.2856C 266.705,81.6744 266.9,82.1744 266.9,82.7856C 266.9,83.3967 266.705,83.8967 266.316,84.2856L 265.65,84.9522 Z M 266.066,83.3689L 266.066,82.7856C 266.066,82.3967 265.955,82.0911 265.733,81.8689C 265.455,81.5911 265.122,81.4522 264.733,81.4522C 264.344,81.4522 264.011,81.5911 263.733,81.8689C 263.511,82.0911 263.4,82.3967 263.4,82.7856C 263.4,83.1744 263.511,83.48 263.733,83.7022C 264.011,83.98 264.344,84.1189 264.733,84.1189C 265.122,84.1189 265.455,83.98 265.733,83.7022L 266.066,83.3689 Z M 253.816,93.8689L 251.316,96.4522L 249.983,95.5356C 251.816,93.7022 253.094,91.6189 253.816,89.2856L 255.316,89.9522C 255.538,90.1189 255.455,90.2578 255.066,90.3689L 253.816,93.8689 Z M 265.65,96.0356C 264.261,93.8133 262.816,91.8967 261.316,90.2856L 262.566,89.3689C 264.288,91.1467 265.761,93.0356 266.983,95.0356L 265.65,96.0356 Z M 259.15,85.7022L 266.566,85.7022L 266.566,87.0356L 259.15,87.0356L 259.15,98.1189L 257.733,98.1189L 257.733,87.0356L 250.4,87.0356L 250.4,85.7022L 257.733,85.7022L 257.733,81.2856L 259.316,81.3689C 259.538,81.48 259.483,81.6467 259.15,81.8689L 259.15,85.7022 Z "/>
	<path fill="#000000" fill-opacity="1" stroke-width="1.06667" stroke-linejoin="round" d="M 279.319,82.1189C 279.541,82.23 279.486,82.3967 279.152,82.6189C 279.208,83.9522 279.236,85.2578 279.236,86.5356L 279.236,90.5356C 279.236,92.98 278.486,94.9522 276.986,96.4522C 276.152,97.2856 274.958,98.1189 273.402,98.9522L 272.236,97.7856C 273.902,97.0078 275.18,96.1744 276.069,95.2856C 277.236,94.1189 277.819,92.5356 277.819,90.5356L 277.819,86.5356C 277.819,85.1467 277.763,83.6467 277.652,82.0356L 279.319,82.1189 Z M 271.152,82.9522C 271.319,83.0078 271.263,83.1744 270.986,83.4522L 270.986,91.9522L 269.569,91.9522L 269.569,82.8689L 271.152,82.9522 Z "/>
	<path fill="#000000" fill-opacity="1" stroke-width="1.06667" stroke-linejoin="round" d="M 294.648,82.7856L 295.648,84.2022L 294.564,84.8689C 293.898,83.9244 293.148,82.98 292.314,82.0356L 293.314,81.4522L 294.648,82.7856 Z M 295.564,80.5356C 296.564,81.48 297.398,82.4244 298.064,83.3689L 296.981,84.0356C 296.314,83.0356 295.509,82.0633 294.564,81.1189L 295.564,80.5356 Z M 294.314,84.8689L 294.314,96.8689L 292.898,96.8689L 292.898,95.7856L 281.481,95.7856L 281.481,94.4522L 292.898,94.4522L 292.898,86.2022L 281.481,86.2022L 281.481,84.8689L 294.314,84.8689 Z "/>
	<path fill="#000000" fill-opacity="1" stroke-width="1.06667" stroke-linejoin="round" d="M 314.226,87.3689C 313.06,89.7578 311.81,91.6189 310.476,92.9522C 308.087,95.3411 304.782,96.8411 300.56,97.4522C 300.448,97.7856 300.31,97.8689 300.143,97.7022L 299.393,95.8689C 303.726,95.5911 307.032,94.3133 309.31,92.0356C 310.81,90.5356 312.06,88.6189 313.06,86.2856L 314.226,87.3689 Z M 302.81,84.5356L 304.893,86.2022L 303.81,87.5356C 302.476,86.3689 301.06,85.3411 299.56,84.4522L 300.476,83.2022L 302.81,84.5356 Z "/>
	<path fill="#000000" fill-opacity="1" stroke-width="1.06667" stroke-linejoin="round" d="M 327.718,82.7856C 327.94,82.8967 327.856,83.0356 327.468,83.2022C 326.801,85.7578 326.023,87.9244 325.134,89.7022C 326.523,90.5356 327.829,91.4244 329.051,92.3689L 328.134,93.7022C 327.023,92.7022 325.801,91.8133 324.468,91.0356C 323.745,92.2022 322.745,93.4244 321.468,94.7022C 320.69,95.48 319.301,96.5633 317.301,97.9522L 316.051,96.7856C 317.829,95.8967 319.44,94.73 320.884,93.2856C 321.995,92.1744 322.773,91.1744 323.218,90.2856C 321.718,89.3411 320.162,88.5078 318.551,87.7856L 319.301,86.6189C 320.856,87.3411 322.384,88.1467 323.884,89.0356C 324.884,87.0356 325.606,84.73 326.051,82.1189L 327.718,82.7856 Z "/>
	<path fill="#000000" fill-opacity="1" stroke-width="1.06667" stroke-linejoin="round" d="M 344.961,86.9522C 345.183,87.0633 345.1,87.2022 344.711,87.3689C 344.155,91.3133 343.044,94.1189 341.378,95.7856C 339.766,97.3967 337.711,98.5633 335.211,99.2856L 334.128,98.0356C 336.794,97.3689 338.822,96.3411 340.211,94.9522C 341.933,93.23 342.989,90.3689 343.378,86.3689L 344.961,86.9522 Z M 338.294,88.0356L 339.128,90.0356L 337.878,90.7022C 337.322,89.3133 336.628,88.0078 335.794,86.7856L 337.044,86.2022L 338.294,88.0356 Z M 332.794,87.2856C 333.683,88.6189 334.378,89.9244 334.878,91.2022L 333.628,91.8689C 333.072,90.4244 332.378,89.0633 331.544,87.7856L 332.794,87.2856 Z "/>
	<path fill="#000000" fill-opacity="1" stroke-width="1.06667" stroke-linejoin="round" d="M 353.626,85.9522C 352.403,84.8967 351.07,84.0356 349.626,83.3689L 350.542,82.1189C 351.876,82.7856 353.209,83.6467 354.542,84.7022L 353.626,85.9522 Z M 351.542,90.5356C 350.209,89.5356 348.876,88.7022 347.542,88.0356L 348.376,86.7022C 349.653,87.3133 351.014,88.1744 352.459,89.2856L 351.542,90.5356 Z M 362.959,88.4522C 361.792,90.1189 360.82,91.3411 360.042,92.1189C 357.376,94.7856 354.153,96.6744 350.376,97.7856C 350.264,98.23 350.126,98.3411 349.959,98.1189L 349.042,96.4522C 352.931,95.6744 356.209,93.9522 358.876,91.2856C 360.042,90.1189 361.098,88.7578 362.042,87.2022L 362.959,88.4522 Z "/>
	<path fill="#000000" fill-opacity="1" stroke-width="1.06667" stroke-linejoin="round" d="M 376.548,87.7022L 376.381,95.7856L 380.631,95.7856L 380.631,97.0356L 365.548,97.0356L 365.548,95.7856L 375.048,95.7856L 375.214,88.9522L 367.881,88.9522L 367.881,87.7022L 376.548,87.7022 Z "/>
	<path fill="#000000" fill-opacity="1" stroke-width="1.06667" stroke-linejoin="round" d="M 257.511,123.926C 257.178,127.537 256.067,130.287 254.178,132.176C 252.789,133.565 251.623,134.482 250.678,134.926L 249.595,133.759C 250.984,133.037 252.123,132.232 253.011,131.343C 254.845,129.509 255.873,127.037 256.095,123.926L 250.095,123.926L 250.095,122.593L 256.095,122.593L 256.095,118.009L 257.678,118.176C 257.9,118.287 257.845,118.454 257.511,118.676L 257.511,122.593L 264.261,122.593C 264.15,125.926 263.984,128.37 263.761,129.926C 263.484,131.926 263.095,133.176 262.595,133.676C 262.15,134.12 261.428,134.343 260.428,134.343C 260.039,134.343 259.373,134.287 258.428,134.176L 258.178,132.593C 259.123,132.759 259.873,132.843 260.428,132.843C 260.984,132.843 261.345,132.759 261.511,132.593C 261.845,132.259 262.095,131.593 262.261,130.593C 262.595,128.648 262.789,126.426 262.845,123.926L 257.511,123.926 Z "/>
	<path fill="#000000" fill-opacity="1" stroke-width="1.06667" stroke-linejoin="round" d="M 277.77,119.509C 277.992,119.62 277.909,119.759 277.52,119.926C 276.853,122.482 276.076,124.648 275.187,126.426C 276.576,127.259 277.881,128.148 279.103,129.093L 278.187,130.426C 277.076,129.426 275.853,128.537 274.52,127.759C 273.798,128.926 272.798,130.148 271.52,131.426C 270.742,132.204 269.353,133.287 267.353,134.676L 266.103,133.509C 267.881,132.62 269.492,131.454 270.937,130.009C 272.048,128.898 272.826,127.898 273.27,127.009C 271.77,126.065 270.215,125.232 268.603,124.509L 269.353,123.343C 270.909,124.065 272.437,124.87 273.937,125.759C 274.937,123.759 275.659,121.454 276.103,118.843L 277.77,119.509 Z "/>
	<path fill="#000000" fill-opacity="1" stroke-width="1.06667" stroke-linejoin="round" d="M 296.347,124.343C 296.458,124.509 296.375,124.62 296.097,124.676C 295.097,128.176 293.819,130.704 292.263,132.259C 290.93,133.593 288.93,134.648 286.263,135.426L 285.18,134.093C 287.847,133.537 289.902,132.537 291.347,131.093C 292.68,129.759 293.68,127.787 294.347,125.176L 281.68,125.176L 281.68,123.843L 295.097,123.843L 295.513,123.676L 296.347,124.343 Z M 294.18,119.176L 294.18,120.509L 283.347,120.509L 283.347,119.176L 294.18,119.176 Z "/>
	<path fill="#000000" fill-opacity="1" stroke-width="1.06667" stroke-linejoin="round" d="M 61.3945,156.706C 60.7862,156.381 60.1614,156.129 59.5201,155.95C 58.8788,155.771 58.1792,155.682 57.4213,155.682C 56.5549,155.682 55.7844,155.836 55.1099,156.144C 54.4354,156.452 53.8669,156.888 53.4045,157.45C 52.9421,158.013 52.588,158.69 52.3423,159.482C 52.0966,160.273 51.9737,161.149 51.9737,162.107C 51.9737,163.107 52.0736,164.003 52.2735,164.795C 52.4734,165.587 52.7857,166.258 53.2105,166.808C 53.6353,167.358 54.1788,167.778 54.8409,168.07C 55.503,168.362 56.2964,168.507 57.2209,168.507C 57.379,168.507 57.5498,168.499 57.7331,168.482C 57.9164,168.466 58.0997,168.443 58.2829,168.414C 58.4661,168.384 58.643,168.349 58.8137,168.308C 58.9844,168.266 59.1364,168.22 59.2697,168.17L 59.2697,162.978L 55.9325,162.978L 55.9325,161.135L 61.4713,161.135L 61.4713,169.49C 61.1297,169.649 60.7692,169.79 60.3899,169.915C 60.0106,170.04 59.623,170.145 59.2271,170.228C 58.8312,170.312 58.4374,170.374 58.0457,170.416C 57.654,170.458 57.2748,170.479 56.9081,170.479C 55.791,170.479 54.7845,170.303 53.8885,169.953C 52.9925,169.603 52.2299,169.084 51.6007,168.396C 50.9715,167.708 50.4881,166.852 50.1505,165.827C 49.8129,164.801 49.6441,163.613 49.6441,162.263C 49.6441,160.921 49.8316,159.718 50.2065,158.655C 50.5814,157.592 51.1085,156.692 51.7877,155.954C 52.4669,155.217 53.2836,154.654 54.2379,154.266C 55.1922,153.879 56.2444,153.685 57.3945,153.685C 58.1278,153.685 58.8257,153.75 59.4881,153.88C 60.1505,154.01 60.786,154.218 61.3945,154.504L 61.3945,156.706 Z "/>
	<path fill="#000000" fill-opacity="1" stroke-width="1.06667" stroke-linejoin="round" d="M 76.0633,170.248L 73.5509,170.248L 71.1217,165.027C 70.9382,164.627 70.7506,164.296 70.5589,164.034C 70.3672,163.771 70.1608,163.563 69.9399,163.409C 69.719,163.255 69.4772,163.144 69.2147,163.078C 68.9522,163.011 68.6582,162.978 68.3329,162.978L 67.2825,162.978L 67.2825,170.248L 65.0553,170.248L 65.0553,153.915L 69.4321,153.915C 70.3828,153.915 71.1999,154.02 71.8835,154.228C 72.5671,154.436 73.1277,154.728 73.5653,155.103C 74.0029,155.478 74.3238,155.93 74.5281,156.459C 74.7324,156.988 74.8345,157.573 74.8345,158.215C 74.8345,158.723 74.7595,159.204 74.6095,159.658C 74.4595,160.113 74.2365,160.525 73.9405,160.896C 73.6445,161.266 73.2777,161.587 72.8401,161.858C 72.4025,162.129 71.9004,162.331 71.3337,162.464C 71.7921,162.622 72.1818,162.899 72.5027,163.294C 72.8236,163.689 73.1508,164.215 73.4841,164.872L 76.0633,170.248 Z M 72.5049,158.397C 72.5049,157.522 72.2321,156.868 71.6865,156.434C 71.1409,156.001 70.3725,155.784 69.3813,155.784L 67.2825,155.784L 67.2825,161.186L 69.0817,161.186C 69.6065,161.186 70.0792,161.125 70.4997,161.004C 70.9202,160.883 71.2784,160.704 71.5741,160.467C 71.8699,160.229 72.0989,159.937 72.2613,159.591C 72.4237,159.245 72.5049,158.847 72.5049,158.397 Z "/>
	<path fill="#000000" fill-opacity="1" stroke-width="1.06667" stroke-linejoin="round" d="M 89.3497,170.248L 79.9545,170.248L 79.9545,153.915L 82.2073,153.915L 82.2073,168.354L 89.3497,168.354L 89.3497,170.248 Z "/>
	<path fill="#000000" fill-opacity="1" stroke-width="1.06667" stroke-linejoin="round" d="M 97.4137,159.496L 93.7017,159.496L 93.7017,157.704L 99.6153,157.704L 99.6153,168.431L 103.353,168.431L 103.353,170.248L 93.2921,170.248L 93.2921,168.431L 97.4137,168.431L 97.4137,159.496 Z M 98.1817,152.431C 98.4236,152.431 98.6489,152.474 98.8577,152.562C 99.0665,152.65 99.2481,152.773 99.4025,152.931C 99.5569,153.09 99.6779,153.271 99.7655,153.476C 99.8531,153.681 99.8969,153.904 99.8969,154.146C 99.8969,154.379 99.8531,154.6 99.7655,154.809C 99.6779,155.018 99.5569,155.201 99.4025,155.36C 99.2481,155.519 99.0665,155.642 98.8577,155.73C 98.6489,155.817 98.4236,155.861 98.1817,155.861C 97.9398,155.861 97.7145,155.817 97.5057,155.73C 97.2969,155.642 97.1153,155.519 96.9609,155.36C 96.8065,155.201 96.6855,155.018 96.5979,154.809C 96.5103,154.6 96.4665,154.379 96.4665,154.146C 96.4665,153.904 96.5103,153.681 96.5979,153.476C 96.6855,153.271 96.8065,153.09 96.9609,152.931C 97.1153,152.773 97.2969,152.65 97.5057,152.562C 97.7145,152.474 97.9398,152.431 98.1817,152.431 Z "/>
	<path fill="#000000" fill-opacity="1" stroke-width="1.06667" stroke-linejoin="round" d="M 116.285,159.471C 116.519,159.763 116.7,160.103 116.829,160.491C 116.959,160.88 117.023,161.299 117.023,161.75C 117.023,162.4 116.904,162.994 116.667,163.532C 116.429,164.07 116.093,164.53 115.66,164.914C 115.226,165.297 114.707,165.595 114.103,165.808C 113.498,166.02 112.833,166.127 112.108,166.127C 111.583,166.127 111.091,166.07 110.632,165.958C 110.174,165.846 109.811,165.706 109.544,165.539C 109.387,165.773 109.254,165.993 109.146,166.202C 109.039,166.41 108.985,166.643 108.985,166.901C 108.985,167.217 109.137,167.479 109.441,167.688C 109.746,167.896 110.148,168.008 110.648,168.025L 113.95,168.15C 114.575,168.166 115.153,168.245 115.682,168.387C 116.212,168.529 116.666,168.733 117.045,168.999C 117.425,169.266 117.72,169.595 117.933,169.986C 118.146,170.378 118.252,170.832 118.252,171.348C 118.252,171.906 118.131,172.435 117.89,172.935C 117.648,173.435 117.275,173.874 116.771,174.253C 116.266,174.632 115.627,174.934 114.852,175.159C 114.076,175.384 113.155,175.496 112.089,175.496C 111.071,175.496 110.207,175.415 109.494,175.253C 108.782,175.09 108.196,174.866 107.738,174.579C 107.279,174.292 106.946,173.951 106.737,173.555C 106.529,173.16 106.425,172.725 106.425,172.251C 106.425,171.644 106.566,171.111 106.848,170.654C 107.131,170.196 107.566,169.755 108.156,169.331C 107.94,169.231 107.754,169.105 107.596,168.955C 107.438,168.805 107.31,168.641 107.21,168.461C 107.11,168.282 107.036,168.092 106.986,167.892C 106.936,167.692 106.911,167.496 106.911,167.304C 106.911,166.762 107.038,166.265 107.291,165.815C 107.544,165.365 107.845,164.939 108.193,164.539C 108.035,164.347 107.895,164.16 107.774,163.976C 107.653,163.793 107.549,163.595 107.462,163.382C 107.374,163.17 107.308,162.94 107.262,162.694C 107.216,162.448 107.193,162.167 107.193,161.851C 107.193,161.2 107.312,160.606 107.55,160.069C 107.787,159.531 108.121,159.07 108.551,158.687C 108.98,158.303 109.497,158.005 110.102,157.793C 110.707,157.58 111.376,157.474 112.11,157.474C 112.419,157.474 112.715,157.495 112.999,157.538C 113.282,157.58 113.532,157.636 113.749,157.704L 118.303,157.704L 118.303,159.471L 116.285,159.471 Z M 108.729,172.061C 108.729,172.651 109.038,173.081 109.655,173.351C 110.272,173.62 111.131,173.755 112.232,173.755C 112.924,173.755 113.506,173.693 113.977,173.569C 114.448,173.444 114.828,173.28 115.115,173.077C 115.403,172.873 115.61,172.641 115.735,172.38C 115.86,172.118 115.923,171.85 115.923,171.577C 115.923,171.07 115.714,170.696 115.297,170.456C 114.88,170.215 114.242,170.074 113.383,170.032L 110.105,169.919C 109.83,170.102 109.602,170.281 109.423,170.455C 109.244,170.629 109.104,170.806 109.004,170.984C 108.904,171.163 108.833,171.341 108.791,171.52C 108.75,171.698 108.729,171.879 108.729,172.061 Z M 109.395,161.8C 109.395,162.2 109.461,162.567 109.595,162.9C 109.728,163.234 109.915,163.517 110.157,163.751C 110.399,163.984 110.685,164.165 111.014,164.294C 111.343,164.424 111.708,164.488 112.108,164.488C 112.541,164.488 112.927,164.415 113.265,164.269C 113.602,164.123 113.886,163.926 114.115,163.676C 114.344,163.426 114.519,163.138 114.64,162.813C 114.761,162.488 114.822,162.15 114.822,161.8C 114.822,161.4 114.755,161.033 114.622,160.7C 114.488,160.367 114.301,160.083 114.059,159.85C 113.817,159.616 113.531,159.435 113.202,159.306C 112.873,159.177 112.508,159.112 112.108,159.112C 111.674,159.112 111.289,159.187 110.951,159.337C 110.614,159.487 110.33,159.685 110.101,159.931C 109.872,160.177 109.697,160.462 109.576,160.787C 109.455,161.112 109.395,161.45 109.395,161.8 Z "/>
	<path fill="#000000" fill-opacity="1" stroke-width="1.06667" stroke-linejoin="round" d="M 131.436,170.248L 129.26,170.248L 129.26,162.232C 129.26,161.265 129.079,160.541 128.717,160.062C 128.354,159.582 127.836,159.343 127.161,159.343C 126.87,159.343 126.597,159.382 126.343,159.461C 126.089,159.541 125.824,159.678 125.55,159.874C 125.275,160.07 124.975,160.334 124.65,160.668C 124.325,161.001 123.95,161.418 123.526,161.919L 123.526,170.248L 121.35,170.248L 121.35,152.584L 123.526,152.584L 123.526,157.698L 123.451,159.674C 123.792,159.265 124.127,158.922 124.457,158.643C 124.786,158.363 125.115,158.136 125.444,157.961C 125.773,157.786 126.108,157.661 126.45,157.586C 126.791,157.511 127.145,157.474 127.512,157.474C 128.762,157.474 129.728,157.855 130.411,158.618C 131.095,159.38 131.436,160.528 131.436,162.061L 131.436,170.248 Z "/>
	<path fill="#000000" fill-opacity="1" stroke-width="1.06667" stroke-linejoin="round" d="M 145.567,170.069C 145.076,170.197 144.569,170.289 144.044,170.344C 143.519,170.4 142.986,170.427 142.445,170.427C 140.872,170.427 139.698,170.071 138.923,169.358C 138.149,168.645 137.762,167.551 137.762,166.075L 137.762,159.522L 134.252,159.522L 134.252,157.704L 137.762,157.704L 137.762,154.248L 139.938,153.685L 139.938,157.704L 145.567,157.704L 145.567,159.522L 139.938,159.522L 139.938,165.897C 139.938,166.797 140.177,167.469 140.655,167.915C 141.134,168.361 141.839,168.584 142.771,168.584C 143.17,168.584 143.607,168.553 144.082,168.491C 144.556,168.429 145.052,168.332 145.567,168.2L 145.567,170.069 Z "/>
	<path fill="#000000" fill-opacity="1" stroke-width="1.06667" stroke-linejoin="round" d="M 61.3341,191.561C 60.7258,191.236 60.101,190.984 59.4597,190.805C 58.8184,190.626 58.1188,190.537 57.3609,190.537C 56.4945,190.537 55.724,190.691 55.0495,190.999C 54.375,191.307 53.8065,191.743 53.3441,192.305C 52.8817,192.868 52.5276,193.545 52.2819,194.337C 52.0362,195.128 51.9133,196.003 51.9133,196.962C 51.9133,197.962 52.0132,198.858 52.2131,199.65C 52.413,200.441 52.7253,201.112 53.1501,201.662C 53.5749,202.212 54.1184,202.633 54.7805,202.925C 55.4426,203.216 56.236,203.362 57.1605,203.362C 57.3186,203.362 57.4894,203.354 57.6727,203.337C 57.856,203.32 58.0393,203.298 58.2225,203.268C 58.4057,203.239 58.5826,203.204 58.7533,203.162C 58.924,203.121 59.076,203.075 59.2093,203.025L 59.2093,197.833L 55.8721,197.833L 55.8721,195.989L 61.4109,195.989L 61.4109,204.345C 61.0693,204.503 60.7088,204.645 60.3295,204.77C 59.9502,204.895 59.5626,204.999 59.1667,205.083C 58.7708,205.166 58.377,205.229 57.9853,205.271C 57.5936,205.312 57.2144,205.333 56.8477,205.333C 55.7306,205.333 54.7241,205.158 53.8281,204.808C 52.9321,204.458 52.1695,203.939 51.5403,203.251C 50.9111,202.563 50.4277,201.707 50.0901,200.681C 49.7525,199.656 49.5837,198.468 49.5837,197.118C 49.5837,195.776 49.7712,194.573 50.1461,193.51C 50.521,192.447 51.0481,191.547 51.7273,190.809C 52.4065,190.071 53.2232,189.509 54.1775,189.121C 55.1318,188.734 56.184,188.54 57.3341,188.54C 58.0674,188.54 58.7653,188.605 59.4277,188.735C 60.0901,188.865 60.7256,189.073 61.3341,189.359L 61.3341,191.561 Z "/>
	<path fill="#000000" fill-opacity="1" stroke-width="1.06667" stroke-linejoin="round" d="M 76.0029,205.103L 73.4905,205.103L 71.0613,199.881C 70.8778,199.482 70.6902,199.151 70.4985,198.888C 70.3068,198.626 70.1004,198.418 69.8795,198.264C 69.6586,198.11 69.4168,197.999 69.1543,197.933C 68.8918,197.866 68.5978,197.833 68.2725,197.833L 67.2221,197.833L 67.2221,205.103L 64.9949,205.103L 64.9949,188.77L 69.3717,188.77C 70.3224,188.77 71.1395,188.874 71.8231,189.083C 72.5067,189.291 73.0673,189.583 73.5049,189.958C 73.9425,190.332 74.2634,190.784 74.4677,191.314C 74.672,191.843 74.7741,192.428 74.7741,193.069C 74.7741,193.578 74.6991,194.059 74.5491,194.513C 74.3991,194.967 74.1761,195.38 73.8801,195.751C 73.5841,196.121 73.2173,196.442 72.7797,196.713C 72.3421,196.984 71.84,197.186 71.2733,197.319C 71.7317,197.477 72.1214,197.754 72.4423,198.149C 72.7632,198.544 73.0904,199.07 73.4237,199.727L 76.0029,205.103 Z M 72.4445,193.252C 72.4445,192.377 72.1717,191.723 71.6261,191.289C 71.0805,190.856 70.3121,190.639 69.3209,190.639L 67.2221,190.639L 67.2221,196.041L 69.0213,196.041C 69.5461,196.041 70.0188,195.98 70.4393,195.859C 70.8598,195.738 71.218,195.559 71.5137,195.321C 71.8094,195.084 72.0385,194.792 72.2009,194.446C 72.3633,194.1 72.4445,193.702 72.4445,193.252 Z "/>
	<path fill="#000000" fill-opacity="1" stroke-width="1.06667" stroke-linejoin="round" d="M 90.4401,205.103L 88.2653,205.103L 87.9321,194.892L 87.7917,191.007L 87.0313,193.271L 84.6265,199.778L 83.0889,199.778L 80.7953,193.521L 80.0349,191.007L 79.9837,195.067L 79.6893,205.103L 77.5893,205.103L 78.3973,188.77L 81.0349,188.77L 83.2285,194.93L 83.9389,197.008L 84.6241,194.93L 86.9289,188.77L 89.6417,188.77L 90.4401,205.103 Z "/>
	<path fill="#000000" fill-opacity="1" stroke-width="1.06667" stroke-linejoin="round" d="M 101.148,205.103L 101.098,203.417C 100.415,204.093 99.7207,204.581 99.0163,204.882C 98.3119,205.183 97.572,205.333 96.7965,205.333C 96.0797,205.333 95.467,205.242 94.9585,205.058C 94.45,204.874 94.0311,204.622 93.7019,204.301C 93.3727,203.981 93.131,203.603 92.9767,203.17C 92.8224,202.736 92.7453,202.265 92.7453,201.757C 92.7453,200.498 93.2143,199.512 94.1523,198.799C 95.0903,198.087 96.4764,197.73 98.3105,197.73L 100.912,197.73L 100.912,196.627C 100.912,195.884 100.674,195.289 100.199,194.842C 99.7234,194.395 98.998,194.172 98.0225,194.172C 97.3137,194.172 96.6154,194.252 95.9275,194.412C 95.2396,194.571 94.5288,194.799 93.7949,195.093L 93.7949,193.122C 94.0698,193.023 94.3759,192.926 94.7131,192.831C 95.0503,192.736 95.4062,192.651 95.7809,192.577C 96.1556,192.502 96.547,192.442 96.9551,192.397C 97.3632,192.351 97.7753,192.329 98.1913,192.329C 98.9492,192.329 99.6321,192.412 100.24,192.579C 100.848,192.745 101.362,192.999 101.783,193.341C 102.203,193.683 102.526,194.112 102.75,194.629C 102.975,195.145 103.088,195.754 103.088,196.453L 103.088,205.103L 101.148,205.103 Z M 100.912,199.394L 98.1489,199.394C 97.6076,199.394 97.1411,199.448 96.7495,199.556C 96.3579,199.664 96.0371,199.818 95.7871,200.018C 95.5371,200.218 95.3516,200.458 95.2307,200.737C 95.1098,201.016 95.0493,201.33 95.0493,201.68C 95.0493,201.921 95.0868,202.152 95.1619,202.373C 95.237,202.594 95.3578,202.789 95.5245,202.96C 95.6912,203.131 95.9078,203.266 96.1745,203.366C 96.4412,203.466 96.7661,203.516 97.1493,203.516C 97.6493,203.516 98.2222,203.364 98.8679,203.06C 99.5136,202.756 100.195,202.275 100.912,201.617L 100.912,199.394 Z "/>
	<path fill="#000000" fill-opacity="1" stroke-width="1.06667" stroke-linejoin="round" d="M 117.296,204.924C 116.805,205.052 116.297,205.143 115.772,205.199C 115.248,205.254 114.715,205.282 114.174,205.282C 112.6,205.282 111.426,204.926 110.652,204.213C 109.877,203.5 109.49,202.405 109.49,200.93L 109.49,194.377L 105.98,194.377L 105.98,192.559L 109.49,192.559L 109.49,189.103L 111.666,188.54L 111.666,192.559L 117.296,192.559L 117.296,194.377L 111.666,194.377L 111.666,200.751C 111.666,201.651 111.905,202.324 112.384,202.77C 112.862,203.216 113.567,203.439 114.499,203.439C 114.899,203.439 115.336,203.408 115.81,203.346C 116.285,203.284 116.78,203.187 117.296,203.055L 117.296,204.924 Z "/>
	<path fill="#000000" fill-opacity="1" stroke-width="1.06667" stroke-linejoin="round" d="M 131.888,198.161C 131.888,198.469 131.884,198.727 131.875,198.935C 131.867,199.144 131.855,199.339 131.838,199.522L 123.03,199.522C 123.03,200.807 123.389,201.794 124.106,202.483C 124.823,203.171 125.857,203.516 127.207,203.516C 127.574,203.516 127.941,203.501 128.308,203.472C 128.675,203.443 129.029,203.403 129.371,203.353C 129.713,203.303 130.04,203.247 130.353,203.185C 130.665,203.122 130.955,203.053 131.222,202.978L 131.222,204.77C 130.63,204.937 129.96,205.072 129.214,205.177C 128.468,205.281 127.694,205.333 126.894,205.333C 125.818,205.333 124.892,205.187 124.117,204.896C 123.341,204.604 122.705,204.181 122.209,203.626C 121.713,203.072 121.346,202.393 121.108,201.588C 120.871,200.784 120.752,199.873 120.752,198.856C 120.752,197.972 120.879,197.136 121.133,196.349C 121.387,195.561 121.758,194.869 122.246,194.273C 122.733,193.677 123.331,193.204 124.039,192.854C 124.747,192.504 125.551,192.329 126.451,192.329C 127.326,192.329 128.101,192.466 128.776,192.741C 129.451,193.016 130.019,193.405 130.482,193.909C 130.944,194.412 131.294,195.024 131.532,195.744C 131.769,196.464 131.888,197.27 131.888,198.161 Z M 129.635,197.858C 129.66,197.299 129.606,196.789 129.472,196.326C 129.339,195.863 129.132,195.465 128.853,195.132C 128.574,194.798 128.226,194.538 127.809,194.351C 127.392,194.163 126.908,194.069 126.357,194.069C 125.882,194.069 125.449,194.161 125.057,194.344C 124.665,194.528 124.327,194.786 124.043,195.12C 123.76,195.453 123.53,195.853 123.355,196.32C 123.18,196.787 123.072,197.299 123.03,197.858L 129.635,197.858 Z "/>
	<path fill="#000000" fill-opacity="1" stroke-width="1.06667" stroke-linejoin="round" d="M 135.907,192.559L 137.896,192.559L 137.959,194.871C 138.701,193.978 139.432,193.331 140.153,192.93C 140.874,192.529 141.601,192.329 142.335,192.329C 143.635,192.329 144.621,192.75 145.292,193.592C 145.963,194.435 146.274,195.686 146.224,197.346L 144.022,197.346C 144.047,196.242 143.886,195.441 143.541,194.944C 143.195,194.446 142.689,194.197 142.022,194.197C 141.73,194.197 141.436,194.25 141.14,194.354C 140.844,194.459 140.54,194.626 140.228,194.856C 139.915,195.086 139.584,195.381 139.234,195.741C 138.884,196.1 138.508,196.535 138.109,197.046L 138.109,205.103L 135.907,205.103L 135.907,192.559 Z "/>
	<path fill="#000000" fill-opacity="1" stroke-width="1.06667" stroke-linejoin="round" d="M 153.776,194.351L 150.064,194.351L 150.064,192.559L 155.977,192.559L 155.977,203.285L 159.715,203.285L 159.715,205.103L 149.654,205.103L 149.654,203.285L 153.776,203.285L 153.776,194.351 Z M 154.544,187.285C 154.786,187.285 155.011,187.329 155.22,187.417C 155.429,187.504 155.61,187.627 155.765,187.786C 155.919,187.944 156.04,188.126 156.128,188.331C 156.215,188.535 156.259,188.759 156.259,189.001C 156.259,189.234 156.215,189.455 156.128,189.664C 156.04,189.873 155.919,190.056 155.765,190.215C 155.61,190.374 155.429,190.497 155.22,190.584C 155.011,190.672 154.786,190.716 154.544,190.716C 154.302,190.716 154.077,190.672 153.868,190.584C 153.659,190.497 153.477,190.374 153.323,190.215C 153.169,190.056 153.048,189.873 152.96,189.664C 152.872,189.455 152.829,189.234 152.829,189.001C 152.829,188.759 152.872,188.535 152.96,188.331C 153.048,188.126 153.169,187.944 153.323,187.786C 153.477,187.627 153.659,187.504 153.868,187.417C 154.077,187.329 154.302,187.285 154.544,187.285 Z "/>
	<path fill="#000000" fill-opacity="1" stroke-width="1.06667" stroke-linejoin="round" d="M 171.676,205.103L 171.626,203.417C 170.943,204.093 170.249,204.581 169.544,204.882C 168.84,205.183 168.1,205.333 167.325,205.333C 166.608,205.333 165.995,205.242 165.486,205.058C 164.978,204.874 164.559,204.622 164.23,204.301C 163.901,203.981 163.659,203.603 163.505,203.17C 163.35,202.736 163.273,202.265 163.273,201.757C 163.273,200.498 163.742,199.512 164.68,198.799C 165.618,198.087 167.004,197.73 168.839,197.73L 171.44,197.73L 171.44,196.627C 171.44,195.884 171.202,195.289 170.727,194.842C 170.251,194.395 169.526,194.172 168.551,194.172C 167.842,194.172 167.143,194.252 166.456,194.412C 165.768,194.571 165.057,194.799 164.323,195.093L 164.323,193.122C 164.598,193.023 164.904,192.926 165.241,192.831C 165.578,192.736 165.934,192.651 166.309,192.577C 166.684,192.502 167.075,192.442 167.483,192.397C 167.891,192.351 168.303,192.329 168.719,192.329C 169.477,192.329 170.16,192.412 170.768,192.579C 171.376,192.745 171.89,192.999 172.311,193.341C 172.731,193.683 173.054,194.112 173.279,194.629C 173.503,195.145 173.616,195.754 173.616,196.453L 173.616,205.103L 171.676,205.103 Z M 171.44,199.394L 168.677,199.394C 168.136,199.394 167.669,199.448 167.278,199.556C 166.886,199.664 166.565,199.818 166.315,200.018C 166.065,200.218 165.88,200.458 165.759,200.737C 165.638,201.016 165.577,201.33 165.577,201.68C 165.577,201.921 165.615,202.152 165.69,202.373C 165.765,202.594 165.886,202.789 166.053,202.96C 166.219,203.131 166.436,203.266 166.702,203.366C 166.969,203.466 167.294,203.516 167.677,203.516C 168.177,203.516 168.75,203.364 169.396,203.06C 170.042,202.756 170.723,202.275 171.44,201.617L 171.44,199.394 Z "/>
	<path fill="#000000" fill-opacity="1" stroke-width="1.06667" stroke-linejoin="round" d="M 181.987,189.231L 178.275,189.231L 178.275,187.439L 184.188,187.439L 184.188,203.285L 187.926,203.285L 187.926,205.103L 177.865,205.103L 177.865,203.285L 181.987,203.285L 181.987,189.231 Z "/>
	<line fill="none" stroke-width="1.06667" stroke-linejoin="round" stroke="#000000" stroke-opacity="1" x1="12.7658" y1="161.531" x2="38.6724" y2="161.531"/>
	<line fill="none" stroke-width="1.06667" stroke-linejoin="round" stroke="#000000" stroke-opacity="1" x1="12.4591" y1="196.27" x2="38.3658" y2="196.27"/>
	<path fill="#000000" fill-opacity="1" stroke-width="1.06667" stroke-linejoin="round" d="M 264.908,158.406C 265.019,158.573 264.936,158.684 264.658,158.74C 263.658,162.24 262.38,164.767 260.825,166.323C 259.491,167.656 257.491,168.712 254.825,169.49L 253.741,168.156C 256.408,167.601 258.464,166.601 259.908,165.156C 261.241,163.823 262.241,161.851 262.908,159.24L 250.241,159.24L 250.241,157.906L 263.658,157.906L 264.075,157.74L 264.908,158.406 Z M 262.741,153.24L 262.741,154.573L 251.908,154.573L 251.908,153.24L 262.741,153.24 Z "/>
	<path fill="#000000" fill-opacity="1" stroke-width="1.06667" stroke-linejoin="round" d="M 280.833,153.656C 281.111,153.878 281,154.017 280.5,154.073C 279.222,155.573 277.833,157.017 276.333,158.406L 276.333,169.323L 274.917,169.323L 274.917,159.49C 273.25,160.878 270.917,162.24 267.917,163.573L 266.833,162.323C 270.778,160.823 273.972,158.851 276.417,156.406C 277.528,155.295 278.556,154.045 279.5,152.656L 280.833,153.656 Z "/>
	<path fill="#000000" fill-opacity="1" stroke-width="1.06667" stroke-linejoin="round" d="M 284.831,158.323C 287.387,159.267 290.026,160.49 292.748,161.99L 291.915,163.406C 289.47,161.962 287.109,160.767 284.831,159.823L 284.831,169.156L 283.415,169.156L 283.415,152.406L 284.998,152.49C 285.22,152.601 285.165,152.767 284.831,152.99L 284.831,158.323 Z "/>
	<path fill="#000000" fill-opacity="1" stroke-width="1.06667" stroke-linejoin="round" d="M 265.741,190.192C 265.964,190.414 265.88,190.553 265.491,190.609C 262.825,193.664 260.519,196.053 258.575,197.775C 259.63,198.775 260.658,199.859 261.658,201.025L 260.491,202.109C 258.214,199.497 255.797,197.136 253.241,195.025L 254.325,194.025C 255.714,195.192 256.797,196.136 257.575,196.859C 259.519,195.192 261.436,193.164 263.325,190.775L 250.408,190.775L 250.241,189.442L 263.741,189.442L 264.658,189.275L 265.741,190.192 Z "/>
	<path fill="#000000" fill-opacity="1" stroke-width="1.06667" stroke-linejoin="round" d="M 276.249,194.109L 268.332,194.109L 268.332,192.775L 284.915,192.775L 284.915,194.109L 277.665,194.109L 277.665,195.525C 277.665,198.636 276.721,201.136 274.832,203.025C 274.61,203.247 274.36,203.47 274.082,203.692L 272.749,202.692C 273.193,202.414 273.554,202.136 273.832,201.859C 275.443,200.247 276.249,198.136 276.249,195.525L 276.249,194.109 Z M 281.915,187.942L 281.915,189.275L 270.832,189.275L 270.832,187.942L 281.915,187.942 Z "/>
	<path fill="#000000" fill-opacity="1" stroke-width="1.06667" stroke-linejoin="round" d="M 297.239,187.192C 297.461,187.303 297.406,187.47 297.073,187.692C 297.128,189.025 297.156,190.331 297.156,191.609L 297.156,195.609C 297.156,198.053 296.406,200.025 294.906,201.525C 294.073,202.359 292.878,203.192 291.323,204.025L 290.156,202.859C 291.823,202.081 293.1,201.247 293.989,200.359C 295.156,199.192 295.739,197.609 295.739,195.609L 295.739,191.609C 295.739,190.22 295.684,188.72 295.573,187.109L 297.239,187.192 Z M 289.073,188.025C 289.239,188.081 289.184,188.247 288.906,188.525L 288.906,197.025L 287.489,197.025L 287.489,187.942L 289.073,188.025 Z "/>
	<path fill="#000000" fill-opacity="1" stroke-width="1.06667" stroke-linejoin="round" d="M 308.235,191.609C 308.457,191.72 308.374,191.914 307.985,192.192L 307.985,193.859C 307.985,197.136 307.04,199.72 305.151,201.609C 304.485,202.275 303.707,202.859 302.818,203.359L 301.651,202.192C 302.818,201.581 303.651,201.025 304.151,200.525C 305.762,198.914 306.568,196.747 306.568,194.025L 306.568,191.442L 308.235,191.609 Z M 315.568,189.109C 315.735,189.331 315.596,189.47 315.151,189.525C 313.374,191.803 311.374,193.803 309.151,195.525L 308.068,194.525C 310.179,193.025 311.901,191.386 313.235,189.609L 299.735,189.609L 299.735,188.275L 314.151,188.275L 314.651,188.025L 315.568,189.109 Z "/>
	<path fill="#000000" fill-opacity="1" stroke-width="1.06667" stroke-linejoin="round" d="M 323.643,189.025C 323.81,189.192 323.754,189.359 323.477,189.525L 323.477,192.775C 323.477,196.609 322.31,199.692 319.977,202.025C 319.699,202.303 319.449,202.525 319.227,202.692L 317.977,201.609C 318.254,201.442 318.56,201.192 318.893,200.859C 321.004,198.747 322.06,196.053 322.06,192.775L 322.06,188.942L 323.643,189.025 Z M 328.227,188.109C 328.449,188.22 328.393,188.386 328.06,188.609L 328.06,200.025C 330.338,199.025 332.171,197.831 333.56,196.442C 334.06,195.942 334.588,195.303 335.143,194.525L 336.06,195.609C 335.727,196.109 335.199,196.72 334.477,197.442C 332.977,198.942 330.671,200.442 327.56,201.942L 326.393,201.025L 326.393,200.942L 326.643,200.692L 326.643,188.025L 328.227,188.109 Z "/>
</svg>
