<?xml version="1.0" encoding="UTF-8" standalone="no"?>
<!-- Generator: Adobe Illustrator 18.1.0, SVG Export Plug-In . SVG Version: 6.00 Build 0)  -->

<svg
   xmlns:dc="http://purl.org/dc/elements/1.1/"
   xmlns:cc="http://creativecommons.org/ns#"
   xmlns:rdf="http://www.w3.org/1999/02/22-rdf-syntax-ns#"
   xmlns:svg="http://www.w3.org/2000/svg"
   xmlns="http://www.w3.org/2000/svg"
   xmlns:sodipodi="http://sodipodi.sourceforge.net/DTD/sodipodi-0.dtd"
   xmlns:inkscape="http://www.inkscape.org/namespaces/inkscape"
   version="1.1"
   id="レイヤー_1"
   x="0px"
   y="0px"
   viewBox="0 0 612 792"
   enable-background="new 0 0 612 792"
   xml:space="preserve"
   inkscape:version="0.91 r13725"
   sodipodi:docname="ikexample3link.svg"><metadata
     id="metadata47"><rdf:RDF><cc:Work
         rdf:about=""><dc:format>image/svg+xml</dc:format><dc:type
           rdf:resource="http://purl.org/dc/dcmitype/StillImage" /></cc:Work></rdf:RDF></metadata><defs
     id="defs45" /><sodipodi:namedview
     pagecolor="#ffffff"
     bordercolor="#666666"
     borderopacity="1"
     objecttolerance="10"
     gridtolerance="10"
     guidetolerance="10"
     inkscape:pageopacity="0"
     inkscape:pageshadow="2"
     inkscape:window-width="1920"
     inkscape:window-height="986"
     id="namedview43"
     showgrid="false"
     inkscape:zoom="1.0784314"
     inkscape:cx="73.718188"
     inkscape:cy="396"
     inkscape:window-x="-11"
     inkscape:window-y="-11"
     inkscape:window-maximized="1"
     inkscape:current-layer="レイヤー_1" /><path
     inkscape:connector-curvature="0"
     id="path15"
     d="m 116,493.67273 -0.2,-1.1 -0.4,-1 -0.1,-1.1 -0.1,-1.1 -0.1,-1.2 0,-1.1 0.1,-1.1 0.1,-1.2 0.2,-1.1 0.2,-1.2 0.4,-1.1 0.4,-1.2 0.4,-1.2 0.5,-1.2 0.6,-1.1 0.6,-1.2 0.7,-1.2 0.6,-1.2 0.8,-1.2 0.8,-1.2 0.8,-1.2 1,-1.3 1,-1.2 1,-1.2 1.1,-1.2 1.2,-1.2 1.2,-1.2 1.2,-1.3 1.2,-1.2 1.3,-1.2 1.3,-1.2 1.4,-1.2 2.9,-2.5 3.1,-2.4 3.4,-2.4 3.4,-2.4 3.6,-2.3 3.7,-2.4 3.8,-2.3 4.1,-2.3 4.2,-2.2 4.2,-2.2 4.4,-2.2 4.6,-2 4.6,-2 4.8,-1.9 4.9,-1.9 4.9,-1.8 5,-1.7 4.9,-1.6 4.9,-1.4 4.9,-1.3 4.8,-1.3 4.8,-1.1 4.7,-1 4.6,-0.8 4.6,-0.7 4.4,-0.7 4.4,-0.5 4.3,-0.4 4.1,-0.4 4.1,-0.1 4,-0.1 3.8,0.1 3.6,0.2 3.6,0.2 3.4,0.4 3.2,0.6 3.1,0.6 2.9,0.8 1.4,0.4 1.3,0.5 1.3,0.5 1.2,0.5 1.3,0.6 1.1,0.6 1.2,0.6 1.1,0.6 1,0.7 1,0.7 1,0.7 0.8,0.7 0.8,0.8 0.7,0.8 0.7,0.8 0.6,0.8 0.6,1 0.6,1 0.4,1 0.5,1 0.2,1.1 0.4,1.1 0.1,1.1 0.1,1.1 0.1,1.1 0,1.1 -0.1,1.2 -0.1,1.1 -0.2,1.2 -0.2,1.1 -0.2,1.2 -0.5,1.2 -0.4,1.1 -0.5,1.2 -0.6,1.2 -0.6,1.4 -0.7,1.2 -0.6,1.2 -0.8,1.2 -0.8,1.2 -0.8,1.2 -1,1.2 -1,1.2 -1,1.2 -1.1,1.3 -1.2,1.2 -1.1,1.2 -1.3,1.2 -1.2,1.2 -1.3,1.3 -1.3,1.2 -1.4,1.2 -3,2.4 -3,2.4 -3.4,2.4 -3.4,2.4 -3.6,2.4 -3.7,2.3 -4,2.3 -4,2.3 -4.2,2.3 -4.2,2.2 -4.4,2 -4.6,2.2 -4.7,1.9 -4.7,1.9 -4.9,1.9 -4.9,1.8 -5,1.7 -4.9,1.6 -4.9,1.6 -4.9,1.3 -4.8,1.2 -4.8,1.1 -4.7,1 -4.6,1 -4.6,0.7 -4.4,0.6 -4.4,0.6 -4.3,0.4 -4.1,0.2 -4.1,0.2 -4,0 -3.8,-0.1 -3.6,-0.1 -3.6,-0.2 -3.4,-0.5 -3.2,-0.5 -3.1,-0.7 -2.9,-0.7 -1.4,-0.5 -1.3,-0.5 -1.3,-0.5 -1.2,-0.5 -1.3,-0.5 -1.1,-0.6 -1.2,-0.6 -1.1,-0.7 -1,-0.6 -1,-0.7 -1,-0.7 -0.8,-0.8 -0.8,-0.7 -0.7,-0.8 -0.7,-0.8 -0.6,-1 -0.6,-0.8 -0.6,-1 -0.4,-1.1 -0.5,-1.3 z m 2.3,0.2 0.4,1 0.5,0.8 0.5,0.8 0.6,0.7 0.6,0.8 0.7,0.7 0.7,0.7 0.8,0.7 0.8,0.6 0.8,0.7 1,0.6 1,0.6 1.1,0.6 1.1,0.5 1.2,0.6 1.2,0.5 1.2,0.5 1.3,0.4 1.3,0.5 2.9,0.7 3,0.6 3.1,0.6 3.4,0.4 3.5,0.2 3.6,0.2 3.7,0 3.8,0 4.1,-0.1 4.1,-0.4 4.2,-0.4 4.3,-0.5 4.4,-0.7 4.6,-0.7 4.6,-0.8 4.7,-1 4.7,-1.1 4.8,-1.2 4.8,-1.3 4.9,-1.4 4.9,-1.6 4.9,-1.8 4.9,-1.8 4.8,-1.8 4.8,-1.9 4.6,-2 4.6,-2 4.3,-2 4.2,-2.2 4.2,-2.2 4,-2.3 3.8,-2.3 3.7,-2.3 3.5,-2.3 3.5,-2.4 3.1,-2.4 3.1,-2.4 2.9,-2.4 1.3,-1.2 1.3,-1.2 1.3,-1.2 1.3,-1.2 1.1,-1.2 1.2,-1.2 1.1,-1.1 1.1,-1.2 1,-1.2 1,-1.2 0.8,-1.2 0.8,-1.1 0.8,-1.2 0.7,-1.2 0.7,-1.1 0.6,-1.2 0.6,-1.1 0.5,-1.1 0.5,-1.2 0.5,-1.1 0.2,-1.1 0.4,-1 0.2,-1.1 0.1,-1.1 0.2,-1 0,-1.1 0,-1 0,-1 -0.1,-1 -0.2,-1 -0.1,-1 -0.4,-0.8 -0.4,-1 -0.4,-0.8 -0.5,-0.8 -0.5,-0.8 -0.6,-0.8 -0.6,-0.7 -0.7,-0.7 -0.7,-0.7 -0.8,-0.7 -0.8,-0.7 -0.8,-0.6 -1,-0.7 -1,-0.6 -1.1,-0.5 -1.1,-0.6 -1.2,-0.5 -1.2,-0.5 -1.2,-0.5 -1.3,-0.5 -1.3,-0.4 -2.9,-0.7 -3,-0.7 -3.1,-0.5 -3.4,-0.4 -3.5,-0.4 -3.6,-0.1 -3.7,-0.1 -3.8,0 -4.1,0.2 -4.1,0.2 -4.2,0.4 -4.3,0.6 -4.4,0.6 -4.6,0.7 -4.6,0.8 -4.7,1.1 -4.7,1.1 -4.8,1.2 -4.8,1.3 -4.9,1.4 -4.9,1.6 -5,1.7 -4.8,1.8 -4.9,1.8 -4.7,1.9 -4.6,2 -4.6,2 -4.3,2 -4.3,2.2 -4.1,2.3 -4,2.2 -3.8,2.3 -3.7,2.3 -3.5,2.4 -3.5,2.3 -3.1,2.4 -3.1,2.4 -2.9,2.4 -1.3,1.2 -1.4,1.2 -1.2,1.2 -1.3,1.2 -1.1,1.2 -1.2,1.2 -1.1,1.2 -1.1,1.2 -1,1.2 -1,1.2 -0.8,1.1 -0.8,1.2 -0.8,1.2 -0.7,1.1 -0.6,1.7 -0.6,1.1 -0.6,1.2 -0.5,1.1 -0.5,1.1 -0.5,1.1 -0.2,1.1 -0.4,1.1 -0.2,1.1 -0.1,1 -0.1,1.1 -0.1,1 0,1.1 0,1 0.1,1 0.2,1 0.1,0.8 0.4,1 0.3,0.5 z" /><path
     inkscape:connector-curvature="0"
     id="path17"
     d="m 189.7,474.77273 c 0.2,0.7 0.4,1.3 0.2,2 0,0.6 -0.2,1.2 -0.6,1.7 -0.4,0.5 -0.8,1 -1.3,1.4 -0.6,0.4 -1.3,0.7 -2,1 -0.5,0.2 -1,0.4 -1.4,0.4 -0.4,0.1 -0.8,0.1 -1.2,0.1 -0.4,0 -0.7,0 -1,0 -0.4,-0.1 -0.5,-0.1 -0.7,-0.1 -0.1,-0.1 -0.2,-0.2 -0.4,-0.4 -0.1,-0.2 -0.2,-0.4 -0.2,-0.7 -0.1,-0.2 -0.1,-0.4 -0.2,-0.5 0,-0.1 0,-0.2 0,-0.4 0,-0.2 0,-0.1 0.1,-0.2 0,0 0,0 0.1,-0.1 0.1,0 0.2,0 0.6,0.1 0.2,0 0.5,0.1 0.8,0.1 0.4,0 0.8,0.1 1.3,0 0.5,0 1,-0.1 1.6,-0.2 0.4,-0.1 0.7,-0.4 1.1,-0.6 0.2,-0.1 0.5,-0.4 0.7,-0.6 0.1,-0.4 0.2,-0.6 0.2,-1 0.1,-0.2 0,-0.6 -0.1,-1 -0.1,-0.4 -0.2,-0.6 -0.6,-0.8 -0.2,-0.2 -0.6,-0.4 -1,-0.4 -0.4,-0.1 -0.8,-0.2 -1.3,-0.2 -0.4,0 -0.8,0 -1.3,0 -0.5,0 -1,-0.1 -1.4,-0.1 -0.5,-0.1 -1,-0.2 -1.3,-0.5 -0.5,-0.1 -0.8,-0.5 -1.2,-0.8 -0.2,-0.2 -0.6,-0.7 -0.7,-1.3 -0.2,-0.6 -0.4,-1.1 -0.2,-1.7 0,-0.5 0.1,-1.1 0.5,-1.6 0.2,-0.5 0.6,-1 1.2,-1.3 0.5,-0.5 1.2,-0.8 1.9,-1.1 0.4,-0.1 0.7,-0.2 1.1,-0.4 0.5,0 0.7,-0.1 1.1,-0.1 0.4,0 0.6,0 0.8,0.1 0.2,0 0.5,0 0.6,0.1 0.1,0 0.1,0 0.2,0.1 0,0 0.1,0 0.1,0.1 0,0.1 0.1,0.1 0.1,0.2 0.1,0.1 0.1,0.2 0.2,0.4 0,0.2 0.1,0.4 0.1,0.5 0,0.1 0,0.2 0,0.4 0,0.2 0,0.1 -0.1,0.2 0,0 0,0 -0.1,0.1 0,0 -0.2,0 -0.4,-0.1 -0.2,0 -0.5,0 -0.8,-0.1 -0.2,0 -0.6,0 -1.1,0 -0.4,0 -0.8,0.1 -1.2,0.2 -0.5,0.2 -0.8,0.4 -1.1,0.6 -0.3,0.2 -0.5,0.4 -0.6,0.6 -0.2,0.2 -0.2,0.6 -0.2,0.8 -0.1,0.2 0,0.5 0.1,0.8 0.1,0.4 0.2,0.6 0.6,0.8 0.2,0.2 0.6,0.4 1,0.4 0.4,0.1 0.8,0.2 1.3,0.2 0.5,0 1,0 1.3,0 0.5,0 1,0.1 1.4,0.1 0.5,0.1 1,0.2 1.4,0.4 0.4,0.2 0.7,0.5 1.1,0.8 0.4,0.6 0.7,1.1 0.9,1.6 l 0,0 z m 14.7,-8.7 c 0.4,1.1 0.6,2 0.6,3.1 0.1,1 -0.1,1.9 -0.4,2.8 -0.4,0.8 -1,1.7 -1.7,2.3 -0.7,0.7 -1.6,1.2 -2.8,1.7 -1.1,0.4 -2,0.5 -3,0.5 -1,0 -1.8,-0.2 -2.5,-0.7 -0.7,-0.5 -1.4,-1.1 -2,-1.8 -0.5,-0.8 -1,-1.8 -1.4,-2.9 -0.4,-1.1 -0.6,-2.2 -0.6,-3.1 0,-1.1 0.1,-2 0.5,-2.9 0.2,-0.8 0.8,-1.6 1.6,-2.3 0.7,-0.6 1.7,-1.2 2.8,-1.6 1.1,-0.4 2,-0.6 3,-0.5 1,0 1.8,0.2 2.5,0.7 0.8,0.4 1.4,1 2,1.8 0.5,0.8 1,1.7 1.4,2.9 l 0,0 z m -2.4,1 c -0.4,-0.7 -0.6,-1.3 -1,-1.9 -0.4,-0.6 -0.8,-1.1 -1.2,-1.4 -0.5,-0.4 -1.1,-0.6 -1.7,-0.7 -0.6,-0.1 -1.3,0 -2.2,0.2 -0.7,0.2 -1.3,0.6 -1.7,1.1 -0.5,0.5 -0.7,1 -1,1.6 -0.1,0.6 -0.2,1.2 -0.1,1.9 0,0.7 0.2,1.4 0.5,2.2 0.2,0.7 0.5,1.4 0.8,2 0.4,0.5 0.8,1 1.3,1.4 0.5,0.4 1.1,0.6 1.7,0.6 0.6,0.1 1.3,0 2,-0.2 0.7,-0.2 1.3,-0.6 1.8,-1.1 0.4,-0.4 0.7,-0.8 0.8,-1.4 0.2,-0.6 0.2,-1.2 0.2,-1.9 0.1,-0.8 0,-1.6 -0.2,-2.4 l 0,0 z m 10.8,3.7 c 0.1,0 0.1,0.1 0,0.1 0,0.1 0,0.2 -0.1,0.2 0,0.1 -0.1,0.1 -0.4,0.2 -0.1,0.1 -0.2,0.1 -0.5,0.2 -0.2,0.1 -0.5,0.1 -0.6,0.1 -0.2,0.1 -0.4,0.1 -0.5,0.1 -0.1,0 -0.1,0 -0.2,-0.1 l -0.1,-0.1 -7,-19.8 0,-0.1 c 0,-0.1 0.1,-0.2 0.1,-0.2 0.1,-0.1 0.2,-0.2 0.4,-0.2 0.2,-0.1 0.4,-0.1 0.6,-0.2 0.2,-0.1 0.5,-0.1 0.6,-0.2 0.2,0 0.4,0 0.5,0 0,0 0.1,0 0.2,0.1 0,0 0,0.1 0.1,0.1 l 6.9,19.8 z m 6.9,-2.5 c 0,0.1 0,0.2 0,0.2 0,0.1 -0.1,0.1 -0.1,0.2 -0.1,0.1 -0.2,0.1 -0.4,0.2 -0.1,0 -0.4,0.1 -0.6,0.2 -0.2,0 -0.5,0.1 -0.6,0.1 -0.1,0.1 -0.2,0.1 -0.4,0.1 -0.2,0 -0.2,-0.1 -0.2,-0.1 -0.1,0 -0.1,-0.1 -0.1,-0.1 l -4.7,-13.3 c 0,-0.1 0,-0.1 0,-0.2 0,-0.1 0,-0.1 0.1,-0.2 0,0 0.1,-0.1 0.4,-0.2 0.1,0 0.4,-0.1 0.6,-0.2 0.2,0 0.4,-0.1 0.6,-0.1 0.1,0 0.2,0 0.4,0 0.2,0 0.2,0 0.2,0 0.1,0.1 0.1,0.1 0.1,0.2 l 4.7,13.2 z m -6,-17.9 c 0.2,0.6 0.2,1.1 0.1,1.3 -0.1,0.2 -0.5,0.6 -1.1,0.7 -0.6,0.2 -1,0.2 -1.3,0.1 -0.2,-0.1 -0.5,-0.5 -0.7,-1 -0.1,-0.6 -0.2,-1.1 0,-1.3 0.1,-0.4 0.5,-0.6 1.1,-0.7 0.5,-0.2 1,-0.2 1.2,-0.1 0.4,0.2 0.6,0.5 0.7,1 l 0,0 z m 21.9,12.4 c 0,0.1 0,0.1 0,0.2 0,0 0,0.1 -0.1,0.2 0,0 -0.1,0.1 -0.2,0.1 -0.1,0.1 -0.4,0.1 -0.5,0.2 -0.2,0.1 -0.5,0.1 -0.6,0.1 -0.1,0 -0.2,0.1 -0.4,0 -0.1,0 -0.1,0 -0.2,0 0,0 -0.1,-0.1 -0.1,-0.2 l -0.6,-1.7 c -0.5,1 -1,1.8 -1.6,2.5 -0.6,0.7 -1.3,1.2 -2.3,1.4 -1,0.4 -1.8,0.5 -2.6,0.4 -0.8,-0.1 -1.6,-0.5 -2.3,-1 -0.6,-0.5 -1.2,-1.1 -1.7,-1.9 -0.5,-0.8 -1,-1.7 -1.3,-2.6 -0.4,-1.2 -0.6,-2.3 -0.7,-3.2 0,-1 0,-1.9 0.2,-2.8 0.4,-0.8 0.7,-1.6 1.3,-2.2 0.6,-0.6 1.3,-1.1 2.3,-1.3 0.8,-0.4 1.6,-0.4 2.3,-0.2 0.8,0.1 1.7,0.4 2.5,0.8 l -2.8,-7.8 c 0,0 0,-0.1 0,-0.2 0,0 0,-0.1 0.1,-0.1 0.1,-0.1 0.2,-0.2 0.4,-0.2 0.1,-0.1 0.4,-0.1 0.6,-0.2 0.2,-0.1 0.5,-0.1 0.6,-0.2 0.1,0 0.2,0 0.4,0 0.2,0 0.2,0 0.2,0.1 0.1,0 0.1,0.1 0.2,0.1 l 6.9,19.7 z m -5.8,-8.5 c -1,-0.6 -1.8,-1 -2.5,-1.2 -0.7,-0.1 -1.4,-0.1 -2.2,0.1 -0.6,0.1 -1.1,0.5 -1.4,1 -0.4,0.5 -0.5,1 -0.6,1.6 -0.1,0.6 -0.1,1.2 0,1.8 0,0.7 0.2,1.3 0.4,1.9 0.2,0.7 0.6,1.3 1,1.9 0.2,0.6 0.6,1.1 1.1,1.6 0.5,0.4 1,0.6 1.4,0.8 0.5,0.1 1.1,0.1 1.8,-0.1 0.2,-0.1 0.6,-0.2 0.8,-0.5 0.2,-0.3 0.5,-0.5 0.7,-0.7 0.2,-0.4 0.5,-0.7 0.7,-1.2 0.2,-0.5 0.5,-1 0.7,-1.6 l -1.9,-5.4 z m 21.5,2.2 c 0,0.2 0.1,0.4 0.1,0.5 0,0.1 0,0.2 0,0.4 -0.1,0.1 -0.1,0.2 -0.1,0.2 -0.1,0.1 -0.1,0.1 -0.2,0.1 l -10,3.5 c -0.1,0 -0.1,0.1 -0.2,0 0,0 -0.1,0 -0.2,0 0,-0.1 -0.1,-0.2 -0.2,-0.4 0,-0.1 -0.1,-0.2 -0.1,-0.5 -0.1,-0.1 -0.1,-0.2 -0.1,-0.4 0,-0.2 0,-0.4 0,-0.4 0,-0.1 0,-0.2 0,-0.2 0.1,-0.1 0.1,-0.1 0.2,-0.2 l 4,-1.3 -5,-14.5 -3,3.5 c -0.1,0.1 -0.2,0.2 -0.4,0.4 -0.1,0 -0.2,0 -0.2,0 -0.1,-0.1 -0.2,-0.1 -0.2,-0.2 -0.1,-0.2 -0.2,-0.4 -0.2,-0.6 -0.1,-0.1 -0.1,-0.4 -0.1,-0.5 -0.1,-0.1 -0.1,-0.2 -0.1,-0.2 0,-0.1 0,-0.2 0.1,-0.2 0,-0.1 0,-0.2 0.1,-0.2 l 3.4,-4.4 c 0.1,0 0.1,-0.1 0.1,-0.1 0.1,0 0.1,-0.1 0.2,-0.1 0.1,0 0.2,-0.1 0.4,-0.1 0.1,-0.1 0.2,-0.1 0.4,-0.2 0.2,0 0.5,-0.1 0.6,-0.1 0.2,0 0.4,-0.1 0.5,-0.1 0,0.1 0.1,0.1 0.1,0.1 0.1,0 0.1,0.1 0.1,0.1 l 5.9,16.8 3.5,-1.2 c 0.1,0 0.2,0 0.2,0 0.1,0 0.2,0.1 0.2,0.1 0.1,0.1 0.1,0.1 0.2,0.2 0.1,0.1 -0.1,0.1 0,0.2 l 0,0 z" /><path
     inkscape:connector-curvature="0"
     id="path19"
     d="m 255.5,422.57273 0.5,-1 0.7,-0.8 0.7,-0.8 0.7,-0.8 0.8,-0.7 0.8,-0.7 0.8,-0.7 1,-0.6 1.1,-0.5 1,-0.6 1.1,-0.5 1.2,-0.5 2.4,-0.7 2.5,-0.7 2.8,-0.5 2.9,-0.2 3,-0.2 3.1,0 3.4,0.1 3.4,0.2 3.5,0.5 3.7,0.5 3.7,0.7 3.8,0.8 4,1 4,1.1 4.2,1.2 4.2,1.4 4.2,1.4 4.3,1.7 4.3,1.8 4.4,1.9 4.4,2 4.6,2.2 4.4,2.3 4.6,2.4 4.6,2.5 4.6,2.6 4.4,2.8 4.4,2.8 4.3,2.9 4.1,2.9 4.1,2.9 3.8,3 3.8,2.9 3.6,3 3.5,3.1 3.4,3 3.2,3 3,3 2.9,3 2.8,3 2.5,3 2.4,3 2.3,2.9 1,1.6 1.1,1.4 1,1.4 0.8,1.4 0.8,1.4 0.8,1.3 0.7,1.4 0.7,1.3 0.7,1.4 0.6,1.3 0.6,1.3 0.5,1.3 0.5,1.3 0.4,1.3 0.4,1.3 0.4,1.3 0.2,1.2 0.2,1.2 0.1,1.2 0.1,1.2 0,1.4 0,1.2 -0.1,1.1 -0.1,1.1 -0.2,1.2 -0.2,1 -0.4,1.1 -0.5,1 -0.4,1.1 -0.6,1 -0.6,0.8 -0.6,1 -0.7,0.8 -0.7,0.7 -0.8,0.7 -0.8,0.7 -0.8,0.7 -1,0.6 -1.1,0.6 -1.1,0.5 -1.1,0.5 -1.1,0.5 -2.4,0.8 -2.5,0.6 -2.8,0.5 -2.9,0.4 -3,0.1 -3.1,0 -3.4,-0.1 -3.4,-0.2 -3.6,-0.4 -3.6,-0.6 -3.7,-0.7 -3.8,-0.8 -4,-1 -4.1,-1.1 -4.1,-1.2 -4.2,-1.4 -4.2,-1.4 -4.3,-1.7 -4.4,-1.8 -4.4,-1.8 -4.4,-2 -4.4,-2.2 -4.6,-2.3 -4.6,-2.4 -4.4,-2.6 -4.6,-2.6 -4.6,-2.6 -4.3,-2.9 -4.3,-2.8 -4.1,-2.9 -4.1,-3 -4,-2.9 -3.7,-3 -3.6,-3 -3.5,-3 -3.4,-3 -3.2,-3.1 -3,-3 -2.9,-3 -2.8,-3 -2.5,-3 -2.4,-3 -2.3,-2.9 -1.1,-1.4 -1,-1.4 -1,-1.4 -0.8,-1.4 -1,-1.4 -0.7,-1.4 -0.8,-1.4 -0.7,-1.3 -0.6,-1.3 -0.6,-1.4 -0.6,-1.3 -0.5,-1.3 -0.5,-1.3 -0.5,-1.3 -0.4,-1.3 -0.2,-1.2 -0.2,-1.3 -0.2,-1.2 -0.1,-1.2 -0.1,-1.2 0,-1.2 0,-1.1 0.1,-1.2 0.1,-1.1 0.2,-1.1 0.2,-1.1 0.4,-1.1 0.4,-1 0.5,-1 0.7,-1.5 z m 1.2,1.8 -0.4,0.8 -0.4,0.8 -0.4,1 -0.2,1 -0.1,1 -0.1,1 -0.1,1.1 0,1.1 0,1.1 0,1.1 0.2,1.1 0.1,1.2 0.2,1.2 0.2,1.2 0.4,1.2 0.5,1.2 0.4,1.3 0.5,1.2 0.6,1.3 0.6,1.3 0.6,1.3 0.7,1.3 0.7,1.4 0.8,1.3 0.8,1.4 0.8,1.3 1,1.4 1,1.4 1,1.4 2.3,2.9 2.3,2.9 2.5,3 2.8,3 2.8,2.9 3.1,3 3.1,3 3.2,3 3.5,3 3.6,3 3.7,3 4,3 4,2.9 4.1,2.9 4.3,2.8 4.3,2.8 4.4,2.8 4.6,2.6 4.4,2.5 4.6,2.4 4.4,2.3 4.4,2 4.4,2 4.4,1.9 4.3,1.8 4.2,1.6 4.2,1.6 4.2,1.3 4.1,1.2 4,1.1 3.8,1 3.8,0.8 3.6,0.7 3.6,0.5 3.5,0.5 3.4,0.2 3.1,0.1 3.1,0 2.9,-0.2 2.8,-0.2 2.6,-0.5 2.4,-0.6 2.3,-0.7 1,-0.5 1.1,-0.5 1,-0.5 1,-0.5 0.8,-0.6 0.7,-0.6 0.8,-0.6 0.7,-0.6 0.6,-0.7 0.7,-0.7 0.5,-0.8 0.6,-0.7 0.5,-0.8 0.4,-1 0.4,-0.8 0.2,-1 0.2,-1 0.2,-1 0.1,-1 0.1,-1.1 0,-1 0,-1.1 -0.1,-1.2 -0.1,-1.1 -0.1,-1.2 -0.2,-1.1 -0.4,-1.3 -0.2,-1.2 -0.5,-1.2 -0.4,-1.2 -0.6,-1.3 -0.5,-1.3 -0.6,-1.3 -0.6,-1.3 -0.7,-1.3 -0.7,-1.3 -0.8,-1.4 -0.8,-1.3 -0.8,-1.4 -1,-1.4 -1,-1.4 -1.1,-1.4 -2.2,-2.9 -2.3,-2.9 -2.5,-2.9 -2.8,-3 -2.9,-3 -3,-3 -3.1,-3 -3.4,-3 -3.4,-3 -3.7,-2.9 -3.7,-3 -3.8,-2.9 -4,-3 -4.2,-2.8 -4.2,-2.9 -4.3,-2.8 -4.6,-2.8 -4.4,-2.6 -4.6,-2.5 -4.4,-2.4 -4.6,-2.2 -4.4,-2.2 -4.4,-2 -4.3,-1.9 -4.3,-1.7 -4.3,-1.7 -4.2,-1.4 -4.1,-1.4 -4.1,-1.2 -4,-1.1 -3.8,-1 -3.8,-0.8 -3.7,-0.6 -3.5,-0.6 -3.5,-0.4 -3.4,-0.2 -3.2,-0.1 -3,0 -2.9,0.1 -2.8,0.4 -2.6,0.4 -2.4,0.6 -2.3,0.8 -1.1,0.4 -1,0.5 -1,0.5 -1,0.5 -0.8,0.6 -0.8,0.6 -0.7,0.6 -0.7,0.7 -0.7,0.7 -0.6,0.7 -0.6,0.7 -0.5,0.8 -0.3,0.7 z" /><path
     inkscape:connector-curvature="0"
     id="path21"
     d="m 317.2,466.97273 c -0.4,0.6 -0.8,1.1 -1.3,1.4 -0.6,0.4 -1.1,0.5 -1.7,0.6 -0.7,0.1 -1.3,0 -2,-0.1 -0.6,-0.2 -1.3,-0.5 -2,-1 -0.5,-0.2 -0.8,-0.5 -1.2,-0.7 -0.4,-0.4 -0.6,-0.6 -0.8,-1 -0.2,-0.2 -0.5,-0.5 -0.6,-0.7 -0.1,-0.2 -0.2,-0.5 -0.4,-0.6 0,-0.1 0,-0.4 0,-0.5 0.1,-0.2 0.2,-0.5 0.4,-0.7 0.1,-0.2 0.2,-0.4 0.4,-0.5 0,-0.1 0.1,-0.1 0.1,-0.2 0.1,0 0.2,0 0.2,0 0.1,0 0.1,0 0.2,0 0.1,0 0.2,0.2 0.4,0.5 0.1,0.2 0.2,0.5 0.5,0.8 0.1,0.2 0.4,0.6 0.7,1 0.4,0.4 0.7,0.6 1.2,1 0.4,0.2 0.7,0.4 1.1,0.5 0.4,0.1 0.7,0.1 1.1,0.1 0.2,0 0.6,-0.1 0.8,-0.2 0.2,-0.2 0.5,-0.5 0.7,-0.8 0.1,-0.4 0.2,-0.6 0.2,-1 -0.1,-0.4 -0.1,-0.7 -0.4,-1.1 -0.1,-0.4 -0.4,-0.7 -0.7,-1.1 -0.2,-0.4 -0.5,-0.7 -0.8,-1.1 -0.2,-0.4 -0.5,-0.7 -0.7,-1.2 -0.4,-0.4 -0.5,-0.8 -0.6,-1.2 -0.1,-0.5 -0.1,-1 -0.1,-1.4 0.1,-0.5 0.2,-1 0.6,-1.6 0.2,-0.5 0.6,-0.8 1.1,-1.2 0.5,-0.4 1,-0.5 1.4,-0.6 0.6,-0.1 1.2,-0.1 1.9,0 0.6,0.1 1.3,0.4 2,0.8 0.4,0.2 0.7,0.5 1,0.7 0.2,0.2 0.6,0.5 0.7,0.7 0.2,0.2 0.4,0.4 0.6,0.6 0.1,0.2 0.1,0.4 0.2,0.5 0,0.1 0,0.2 0,0.4 0,0 0,0.1 0,0.2 0,0 0,0.1 -0.1,0.2 0,0.1 -0.1,0.2 -0.1,0.4 -0.1,0.1 -0.2,0.2 -0.4,0.4 0,0.1 -0.1,0.2 -0.2,0.2 0,0.1 -0.1,0.1 -0.1,0.1 -0.1,0 -0.1,0 -0.2,0 0,-0.1 -0.1,-0.2 -0.2,-0.4 -0.1,-0.2 -0.2,-0.5 -0.4,-0.7 -0.2,-0.2 -0.5,-0.5 -0.7,-0.8 -0.2,-0.2 -0.6,-0.6 -1,-0.8 -0.5,-0.2 -0.8,-0.4 -1.1,-0.5 -0.4,0 -0.7,0 -1,0 -0.2,0 -0.5,0.1 -0.7,0.4 -0.2,0.1 -0.5,0.4 -0.6,0.6 -0.2,0.4 -0.2,0.6 -0.2,1 0,0.4 0.1,0.7 0.4,1.1 0.1,0.4 0.4,0.7 0.6,1.1 0.4,0.4 0.6,0.7 1,1.1 0.2,0.4 0.5,0.8 0.7,1.2 0.4,0.4 0.5,0.8 0.6,1.3 0.1,0.4 0.2,0.8 0.1,1.3 -0.2,0.4 -0.4,0.9 -0.6,1.5 l 0,0 z m 16,5.6 c -0.6,1 -1.3,1.8 -2,2.5 -0.7,0.6 -1.6,1.1 -2.4,1.4 -0.8,0.2 -1.8,0.4 -2.8,0.2 -1,-0.1 -2,-0.5 -3,-1.1 -1.1,-0.6 -1.8,-1.3 -2.4,-2 -0.5,-0.7 -0.8,-1.6 -1.1,-2.4 -0.1,-0.8 -0.1,-1.7 0.1,-2.6 0.2,-0.9 0.7,-2 1.3,-3 0.6,-1 1.2,-1.8 2,-2.5 0.7,-0.6 1.6,-1.2 2.4,-1.4 0.8,-0.2 1.8,-0.4 2.8,-0.2 1,0.2 1.9,0.5 3,1.1 1,0.6 1.8,1.3 2.3,2 0.6,0.7 1,1.6 1.1,2.4 0.2,0.8 0.1,1.7 -0.1,2.6 -0.2,1 -0.6,2.1 -1.2,3 l 0,0 z m -2.4,-1.2 c 0.4,-0.7 0.7,-1.3 1,-2 0.2,-0.6 0.2,-1.2 0.2,-1.8 0,-0.6 -0.1,-1.2 -0.5,-1.8 -0.4,-0.5 -0.8,-1 -1.6,-1.4 -0.7,-0.4 -1.3,-0.6 -1.9,-0.6 -0.6,-0.1 -1.2,0 -1.8,0.2 -0.5,0.2 -1.1,0.6 -1.6,1.1 -0.5,0.5 -1,1.1 -1.3,1.8 -0.4,0.7 -0.7,1.3 -1,2 -0.2,0.6 -0.4,1.2 -0.2,1.8 0,0.6 0.1,1.2 0.5,1.8 0.4,0.5 0.8,1 1.6,1.4 0.6,0.4 1.3,0.6 1.9,0.6 0.6,0.1 1.2,0 1.8,-0.2 0.5,-0.2 1.1,-0.6 1.6,-1.1 0.5,-0.5 1,-1.1 1.3,-1.8 l 0,0 z m 4.2,10.7 -0.1,0.1 c -0.1,0 -0.2,0 -0.2,0 -0.1,0 -0.2,0 -0.5,-0.1 -0.1,0 -0.2,-0.1 -0.5,-0.2 -0.2,-0.1 -0.5,-0.2 -0.6,-0.4 -0.1,-0.2 -0.2,-0.2 -0.2,-0.2 -0.1,-0.1 -0.1,-0.2 -0.1,-0.2 0,-0.1 0,-0.2 0.1,-0.2 l 10.7,-18 0.1,-0.1 c 0.1,0 0.1,0 0.2,0 0.1,0 0.2,0 0.4,0.1 0.2,0 0.4,0.1 0.6,0.2 0.2,0.1 0.4,0.2 0.6,0.4 0.1,0.1 0.1,0.2 0.2,0.2 0,0.1 0.1,0.2 0.1,0.2 0,0.1 0,0.2 -0.1,0.2 l -10.7,18 z m 6.3,3.7 c 0,0.1 0,0.1 -0.1,0.1 0,0.1 -0.1,0.1 -0.2,0.1 -0.1,-0.1 -0.2,-0.1 -0.4,-0.1 -0.1,-0.1 -0.4,-0.2 -0.6,-0.4 -0.2,-0.2 -0.4,-0.2 -0.5,-0.4 -0.1,-0.1 -0.2,-0.2 -0.4,-0.2 0,-0.1 0,-0.2 0,-0.2 -0.1,-0.1 0,-0.1 0,-0.2 l 7.2,-12.1 0.1,-0.1 c 0.1,0 0.2,0 0.2,0 0.1,0 0.2,0 0.5,0.1 0.1,0 0.4,0.1 0.5,0.2 0.2,0.1 0.5,0.2 0.6,0.4 0.1,0.2 0.2,0.2 0.2,0.4 0.1,0 0.1,0.1 0.1,0.2 l 0,0.1 -7.2,12.1 z m 9.9,-15.9 c -0.4,0.5 -0.6,0.7 -1,0.8 -0.2,0 -0.7,-0.1 -1.2,-0.4 -0.6,-0.4 -0.8,-0.6 -1,-1 0,-0.2 0,-0.7 0.4,-1.2 0.4,-0.5 0.6,-0.8 1,-0.8 0.2,-0.1 0.7,0 1.2,0.4 0.6,0.2 0.8,0.6 1,0.8 0,0.4 0,0.8 -0.4,1.4 l 0,0 z m 4.6,24.6 c -0.1,0 -0.1,0.1 -0.2,0.1 0,0 -0.1,0 -0.2,0 0,0 -0.1,0 -0.2,-0.1 -0.2,0 -0.4,-0.1 -0.5,-0.2 -0.2,-0.1 -0.4,-0.1 -0.5,-0.2 -0.1,-0.1 -0.2,-0.2 -0.2,-0.2 -0.1,-0.1 -0.1,-0.2 -0.1,-0.2 0,-0.1 0,-0.1 0,-0.2 l 1,-1.6 c -1,0.2 -2,0.4 -2.9,0.4 -1,0 -1.8,-0.2 -2.6,-0.7 -0.8,-0.6 -1.6,-1.2 -1.9,-1.9 -0.5,-0.7 -0.7,-1.4 -0.7,-2.3 0,-0.9 0.1,-1.7 0.4,-2.5 0.4,-1 0.7,-1.8 1.2,-2.8 0.6,-1 1.3,-1.9 2,-2.5 0.7,-0.7 1.4,-1.3 2.3,-1.6 0.8,-0.4 1.6,-0.5 2.4,-0.5 0.8,0.1 1.7,0.4 2.6,1 0.6,0.4 1.2,1 1.6,1.6 0.5,0.7 0.7,1.4 1,2.4 l 4.2,-7 c 0,-0.1 0.1,-0.1 0.1,-0.2 0.1,0 0.2,0 0.4,0 0,0 0.2,0.1 0.4,0.1 0.1,0.1 0.4,0.1 0.5,0.2 0.2,0.2 0.5,0.4 0.6,0.4 0.1,0.1 0.2,0.2 0.2,0.4 0.1,0 0.1,0.1 0.1,0.2 0,0 0,0.1 0,0.2 l -11,17.7 z m 2.8,-9.9 c -0.1,-1.1 -0.4,-2 -0.7,-2.8 -0.2,-0.7 -0.7,-1.3 -1.3,-1.7 -0.6,-0.2 -1.2,-0.5 -1.7,-0.4 -0.6,0 -1.1,0.1 -1.7,0.5 -0.5,0.2 -1,0.6 -1.4,1.1 -0.4,0.6 -0.7,1.1 -1.1,1.7 -0.4,0.6 -0.7,1.2 -1,1.8 -0.2,0.7 -0.4,1.3 -0.5,1.9 0,0.6 0.1,1.1 0.4,1.6 0.2,0.6 0.6,1 1.2,1.3 0.2,0.1 0.6,0.4 0.8,0.4 0.4,0.1 0.7,0.1 1.1,0.1 0.5,0 0.8,-0.1 1.4,-0.2 0.5,-0.1 1,-0.2 1.6,-0.5 l 2.9,-4.8 z m 12,17.8 c -0.1,0.1 -0.1,0.2 -0.2,0.4 -0.1,0.1 -0.2,0.2 -0.2,0.4 -0.1,0 -0.2,0 -0.4,0 -0.1,0 -0.1,0 -0.2,0 l -9.6,-5.8 c -0.1,-0.1 -0.2,-0.1 -0.2,-0.2 -0.1,-0.1 -0.2,-0.2 -0.2,-0.4 0,0 0,-0.2 0.1,-0.4 0,-0.1 0.1,-0.4 0.2,-0.5 0.1,-0.2 0.1,-0.4 0.2,-0.5 0.1,-0.1 0.2,-0.2 0.4,-0.4 0.1,0 0.2,-0.1 0.4,-0.1 0.1,-0.1 0.2,-0.1 0.5,-0.2 l 5.5,-1.4 c 1.3,-0.4 2.4,-0.7 3.2,-1.1 1,-0.4 1.7,-0.7 2.3,-1.1 0.5,-0.5 1,-0.8 1.3,-1.2 0.4,-0.4 0.6,-0.8 0.8,-1.2 0.2,-0.4 0.5,-0.7 0.5,-1.2 0.1,-0.4 0.1,-0.8 0,-1.2 -0.1,-0.5 -0.2,-0.8 -0.6,-1.2 -0.2,-0.4 -0.6,-0.7 -1.1,-1 -0.6,-0.4 -1.1,-0.6 -1.7,-0.7 -0.5,-0.1 -1,-0.1 -1.4,-0.1 -0.5,-0.1 -0.8,-0.1 -1.2,-0.1 -0.2,0.1 -0.5,0 -0.6,0 -0.1,0 -0.1,-0.1 -0.1,-0.1 0,-0.1 -0.1,-0.2 0,-0.4 0,0 0,-0.1 0.1,-0.4 0,-0.1 0.1,-0.2 0.2,-0.5 0,-0.1 0.1,-0.2 0.2,-0.4 0,0 0.1,-0.1 0.1,-0.2 0.1,0 0.1,0 0.2,-0.1 0.1,0 0.2,0 0.4,-0.1 0.1,0 0.4,0 0.7,0 0.4,0 0.8,0 1.3,0.1 0.5,0.1 1.1,0.2 1.6,0.4 0.6,0.2 1.1,0.5 1.6,0.7 1,0.5 1.6,1.1 2,1.7 0.5,0.6 0.8,1.3 1,1.9 0.2,0.7 0.2,1.3 0.1,2 -0.1,0.6 -0.4,1.3 -0.7,1.9 -0.4,0.6 -0.7,1.1 -1.2,1.6 -0.4,0.5 -1,1 -1.7,1.4 -0.6,0.5 -1.6,0.8 -2.6,1.3 -1.1,0.4 -2.4,0.8 -4,1.2 l -4.4,1.3 7.6,4.4 c 0,0.1 0.1,0.1 0.1,0.2 0.1,0 0.1,0.1 0.1,0.2 0,0.1 0,0.2 -0.1,0.4 -0.1,0.3 -0.2,0.6 -0.3,0.7 l 0,0 z" /><path
     inkscape:connector-curvature="0"
     id="path23"
     d="m 377.4,519.07273 -0.4,-1.1 -0.4,-1 -0.2,-1.1 -0.2,-1.1 -0.1,-1.1 0,-1.1 0,-1.2 0,-1.1 0.1,-1.2 0.2,-1.1 0.2,-1.2 0.4,-1.2 0.4,-1.2 0.4,-1.2 0.5,-1.2 0.6,-1.2 0.6,-1.3 0.6,-1.2 0.7,-1.2 0.7,-1.3 0.8,-1.2 0.8,-1.3 0.8,-1.3 1,-1.2 1,-1.3 1.1,-1.3 1.1,-1.2 1.2,-1.3 1.2,-1.3 1.2,-1.3 1.3,-1.3 1.3,-1.3 2.8,-2.5 2.9,-2.6 3.1,-2.6 3.4,-2.5 3.4,-2.6 3.6,-2.5 3.7,-2.5 4,-2.5 4,-2.5 4.2,-2.4 4.2,-2.4 4.4,-2.3 4.6,-2.3 4.6,-2.3 4.8,-2.2 4.8,-2 4.9,-2 4.8,-1.8 4.8,-1.8 4.8,-1.7 4.8,-1.4 4.7,-1.4 4.6,-1.2 4.6,-1.2 4.6,-1 4.4,-1 4.3,-0.7 4.2,-0.7 4.2,-0.5 4,-0.5 4,-0.2 3.8,-0.2 3.6,0 3.6,0.1 3.4,0.1 3.4,0.4 3.1,0.5 2.9,0.6 2.9,0.7 1.3,0.4 1.3,0.5 1.2,0.5 1.2,0.5 1.2,0.6 1.1,0.5 1.1,0.6 1,0.7 1,0.6 1,0.7 0.8,0.7 0.8,0.8 0.7,0.8 0.7,0.8 0.6,0.8 0.6,1 0.5,1 0.5,1 0.4,1.1 0.4,1 0.2,1.1 0.2,1.1 0.1,1.1 0,1.1 0,1.2 0,1.1 -0.1,1.2 -0.2,1.2 -0.2,1.1 -0.4,1.2 -0.4,1.2 -0.4,1.2 -0.5,1.2 -0.6,1.2 -0.6,1.3 -0.6,1.2 -0.7,1.2 -0.7,1.3 -0.8,1.3 -0.8,1.2 -0.8,1.3 -1,1.2 -1,1.3 -1.1,1.3 -1.1,1.3 -1.2,1.2 -1.2,1.3 -1.2,1.3 -1.3,1.3 -1.3,1.3 -2.8,2.5 -2.9,2.6 -3.1,2.6 -3.4,2.5 -3.4,2.6 -3.6,2.5 -3.7,2.5 -4,2.5 -4,2.4 -4.2,2.5 -4.2,2.4 -4.4,2.3 -4.6,2.3 -4.6,2.2 -4.8,2.2 -4.8,2.2 -4.8,2 -4.9,1.8 -4.8,1.8 -4.8,1.7 -4.8,1.4 -4.7,1.4 -4.6,1.2 -4.6,1.2 -4.6,1 -4.4,1 -4.3,0.8 -4.2,0.6 -4.2,0.5 -4,0.5 -4,0.2 -3.8,0.2 -3.6,0 -3.6,-0.1 -3.4,-0.1 -3.4,-0.4 -3.1,-0.5 -2.9,-0.6 -2.8,-0.7 -1.4,-0.4 -1.2,-0.5 -1.3,-0.5 -1.2,-0.5 -1.2,-0.6 -1.1,-0.5 -1.1,-0.6 -1,-0.7 -1,-0.6 -1,-0.7 -0.8,-0.7 -0.8,-0.8 -0.7,-0.8 -0.7,-0.8 -0.6,-0.8 -0.6,-1 -0.5,-1 -0.5,-1.1 z m 2.3,0 0.4,0.8 0.6,0.8 0.5,0.8 0.6,0.7 0.7,0.7 0.7,0.7 0.7,0.7 1,0.6 0.8,0.6 1,0.6 1,0.6 1,0.5 1.2,0.6 1.1,0.5 1.2,0.4 1.2,0.5 1.3,0.4 2.6,0.7 2.9,0.6 3,0.4 3.2,0.4 3.2,0.2 3.6,0 3.6,0 3.7,-0.1 3.8,-0.4 4,-0.4 4.1,-0.5 4.2,-0.7 4.3,-0.7 4.3,-1 4.6,-1 4.4,-1.2 4.7,-1.2 4.6,-1.4 4.8,-1.4 4.7,-1.7 4.8,-1.7 4.8,-1.9 4.8,-1.9 4.8,-2.2 4.7,-2.2 4.7,-2.2 4.4,-2.3 4.3,-2.3 4.3,-2.4 4.1,-2.4 4,-2.4 3.8,-2.5 3.7,-2.5 3.6,-2.5 3.4,-2.5 3.2,-2.5 3.1,-2.5 2.9,-2.6 2.8,-2.5 1.3,-1.3 1.2,-1.2 1.2,-1.3 1.2,-1.3 1.1,-1.2 1.1,-1.3 1,-1.2 1.1,-1.3 0.8,-1.2 1,-1.2 0.7,-1.2 0.8,-1.3 0.7,-1.2 0.6,-1.2 0.6,-1.1 0.6,-1.2 0.5,-1.2 0.5,-1.1 0.4,-1.2 0.4,-1.1 0.4,-1.1 0.2,-1.1 0.1,-1.1 0.1,-1.1 0.1,-1 0,-1.1 -0.1,-1 -0.1,-1 -0.1,-1 -0.2,-1 -0.2,-0.8 -0.4,-1 -0.4,-0.8 -0.5,-0.8 -0.6,-0.8 -0.5,-0.8 -0.6,-0.7 -0.7,-0.7 -0.7,-0.7 -0.8,-0.7 -0.7,-0.6 -1,-0.6 -1,-0.6 -1,-0.6 -1.1,-0.5 -1.1,-0.6 -1.1,-0.5 -1.2,-0.4 -1.2,-0.5 -1.3,-0.4 -2.6,-0.7 -2.9,-0.5 -3,-0.5 -3.2,-0.4 -3.2,-0.2 -3.5,0 -3.9,0 -3.7,0.1 -3.8,0.4 -4,0.4 -4.1,0.6 -4.2,0.6 -4.3,0.7 -4.3,1 -4.6,1 -4.4,1.2 -4.7,1.2 -4.6,1.4 -4.8,1.4 -4.7,1.7 -4.8,1.8 -4.8,1.9 -4.9,1.9 -4.8,2.2 -4.7,2 -4.6,2.3 -4.4,2.3 -4.4,2.3 -4.2,2.4 -4.1,2.4 -4,2.4 -3.8,2.5 -3.7,2.5 -3.6,2.5 -3.4,2.5 -3.2,2.5 -3.1,2.5 -2.9,2.6 -2.8,2.5 -1.2,1.3 -1.3,1.3 -1.2,1.2 -1.2,1.3 -1.1,1.2 -1.1,1.3 -1,1.2 -1.1,1.3 -0.8,1.2 -0.8,1.2 -0.8,1.3 -0.8,1.2 -0.7,1.2 -0.6,1.2 -0.6,1.1 -0.6,1.2 -0.5,1.2 -0.5,1.1 -0.4,1.2 -0.4,1.1 -0.4,1.1 -0.2,1.1 -0.1,1.1 -0.1,1.1 -0.1,1 0,1.1 0.1,1 0.1,1 0.1,1 0.2,1 0.2,0.8 0.4,1 0.6,0.8 z" /><path
     inkscape:connector-curvature="0"
     id="path25"
     d="m 449.8,495.67273 c 0.2,0.7 0.4,1.3 0.4,1.9 0,0.7 -0.1,1.2 -0.5,1.8 -0.4,0.6 -0.7,1.1 -1.3,1.4 -0.5,0.5 -1.2,0.8 -1.9,1.2 -0.5,0.2 -0.8,0.4 -1.3,0.5 -0.5,0 -0.8,0.1 -1.3,0.1 -0.4,0.1 -0.6,0.1 -1,0 -0.2,0 -0.5,0 -0.6,-0.1 -0.1,0 -0.2,-0.1 -0.4,-0.2 -0.1,-0.1 -0.4,-0.4 -0.5,-0.7 0,-0.1 -0.1,-0.4 -0.1,-0.5 0,-0.1 0,-0.2 0,-0.2 0,-0.1 0,-0.2 0,-0.2 0,-0.1 0.1,-0.1 0.1,-0.1 0.1,-0.1 0.4,-0.1 0.6,0 0.2,0 0.6,0 1,0 0.4,0.1 0.7,0.1 1.2,0 0.5,0 1,-0.1 1.6,-0.4 0.4,-0.2 0.7,-0.4 1.1,-0.6 0.2,-0.2 0.5,-0.5 0.6,-0.7 0.2,-0.2 0.2,-0.6 0.4,-1 0,-0.2 -0.1,-0.6 -0.2,-1 -0.1,-0.4 -0.4,-0.6 -0.7,-0.8 -0.2,-0.1 -0.6,-0.2 -1,-0.2 -0.4,-0.1 -0.8,-0.1 -1.3,-0.1 -0.4,0 -0.8,0 -1.3,0 -0.5,0 -1,0 -1.4,0 -0.5,-0.1 -1,-0.2 -1.3,-0.4 -0.5,-0.1 -0.8,-0.4 -1.2,-0.7 -0.4,-0.4 -0.7,-0.8 -1,-1.4 -0.2,-0.5 -0.4,-1 -0.4,-1.6 0,-0.5 0.2,-1.1 0.5,-1.6 0.3,-0.5 0.6,-1.1 1.1,-1.4 0.5,-0.5 1.1,-1 1.9,-1.2 0.4,-0.1 0.7,-0.2 1.1,-0.4 0.4,-0.2 0.7,-0.1 1.1,-0.2 0.2,0 0.6,0 0.8,0 0.2,0 0.4,0.1 0.5,0.1 0.1,0 0.2,0 0.4,0.1 0,0 0,0.1 0.1,0.1 0,0.1 0.1,0.1 0.1,0.2 0.1,0.1 0.1,0.2 0.2,0.4 0,0.2 0.1,0.4 0.1,0.5 0,0.1 0,0.2 0,0.4 0,0 0,0.1 0,0.2 0,0 -0.1,0 -0.1,0.1 -0.1,0 -0.2,0 -0.5,0 -0.2,-0.1 -0.5,-0.1 -0.7,-0.1 -0.4,0 -0.7,0 -1.1,0 -0.4,0.1 -0.8,0.2 -1.3,0.4 -0.4,0.2 -0.7,0.4 -1,0.6 -0.2,0.2 -0.5,0.5 -0.6,0.7 -0.1,0.2 -0.2,0.5 -0.2,0.8 0,0.2 0.1,0.5 0.2,0.7 0.1,0.4 0.4,0.7 0.6,0.8 0.4,0.2 0.7,0.4 1.1,0.4 0.4,0.1 0.8,0.1 1.3,0.1 0.4,0 0.8,0 1.3,0 0.5,-0.1 1,0 1.4,0 0.5,0 1,0.1 1.4,0.2 0.4,0.2 0.8,0.5 1.2,0.7 0.3,0.4 0.5,0.9 0.8,1.4 l 0,0 z m 14.1,-9.6 c 0.4,1.1 0.7,2.2 0.7,3.1 0.1,1.1 0,1.9 -0.2,2.9 -0.2,0.8 -0.7,1.7 -1.4,2.4 -0.7,0.6 -1.6,1.2 -2.6,1.7 -1,0.5 -2,0.7 -3,0.7 -1,0 -1.8,-0.1 -2.5,-0.6 -0.8,-0.4 -1.6,-0.8 -2.2,-1.7 -0.6,-0.7 -1.2,-1.7 -1.7,-2.8 -0.4,-1.1 -0.7,-2 -0.7,-3.1 -0.1,-1 -0.1,-1.9 0.2,-2.8 0.2,-1 0.7,-1.7 1.4,-2.4 0.6,-0.7 1.6,-1.3 2.6,-1.8 1.1,-0.4 2,-0.6 3,-0.6 1,-0.1 1.8,0.1 2.5,0.5 0.8,0.4 1.6,1 2.2,1.7 0.6,0.8 1.2,1.7 1.7,2.8 l 0,0 z m -2.4,1.2 c -0.4,-0.6 -0.7,-1.3 -1.1,-1.9 -0.4,-0.5 -0.8,-1 -1.3,-1.3 -0.5,-0.3 -1.1,-0.6 -1.7,-0.6 -0.7,0 -1.3,0.1 -2.2,0.4 -0.7,0.4 -1.2,0.7 -1.7,1.2 -0.4,0.5 -0.6,1 -0.7,1.6 -0.2,0.6 -0.2,1.2 -0.1,1.9 0.1,0.7 0.4,1.4 0.6,2.2 0.4,0.7 0.7,1.3 1.1,1.9 0.4,0.6 0.8,1.1 1.3,1.3 0.5,0.4 1.1,0.6 1.7,0.6 0.7,0.1 1.3,0 2.2,-0.4 0.7,-0.2 1.2,-0.7 1.7,-1.1 0.4,-0.5 0.6,-1.1 0.8,-1.7 0.1,-0.6 0.1,-1.2 0,-1.9 -0.1,-0.7 -0.3,-1.4 -0.6,-2.2 l 0,0 z m 11.1,3 c 0,0.1 0,0.1 0,0.2 0,0 0,0.1 -0.1,0.2 0,0 -0.1,0.1 -0.2,0.2 -0.2,0 -0.4,0.1 -0.6,0.2 -0.2,0.1 -0.5,0.1 -0.6,0.2 -0.2,0 -0.4,0 -0.5,0 0,0 -0.1,0 -0.2,0 0,-0.1 0,-0.1 -0.1,-0.2 l -8,-19.2 c -0.1,-0.1 -0.1,-0.2 -0.1,-0.2 0,-0.1 0.1,-0.1 0.1,-0.2 0.1,-0.1 0.2,-0.1 0.4,-0.2 0.2,-0.1 0.4,-0.1 0.6,-0.2 0.2,-0.1 0.5,-0.2 0.6,-0.2 0.1,0 0.2,-0.1 0.4,-0.1 0.2,0 0.2,0.1 0.2,0.1 0.1,0 0.1,0.1 0.2,0.1 l 7.9,19.3 z m 6.7,-2.9 c 0.1,0.1 0.1,0.2 0.1,0.2 -0.1,0.1 -0.1,0.1 -0.2,0.2 0,0.1 -0.1,0.1 -0.2,0.2 -0.1,0.1 -0.4,0.1 -0.6,0.2 -0.2,0.1 -0.5,0.2 -0.6,0.2 -0.1,0 -0.2,0.1 -0.4,0.1 -0.2,0 -0.2,-0.1 -0.2,-0.1 -0.1,0 -0.1,-0.1 -0.2,-0.1 l -5.4,-13.1 0,-0.1 c 0,-0.1 0,-0.1 0.1,-0.2 0,-0.1 0.1,-0.1 0.4,-0.2 0.1,-0.1 0.2,-0.2 0.5,-0.2 0.2,-0.1 0.5,-0.2 0.6,-0.2 0.2,-0.1 0.4,-0.1 0.5,-0.1 0,0 0.1,0 0.2,0.1 l 0.1,0.1 5.3,13 z m -7,-17.4 c 0.2,0.5 0.2,1 0.1,1.2 -0.1,0.4 -0.5,0.6 -1.1,0.8 -0.5,0.2 -1,0.2 -1.2,0.1 -0.4,0 -0.6,-0.4 -0.8,-1 -0.2,-0.5 -0.2,-1 -0.1,-1.2 0.1,-0.4 0.5,-0.6 1.1,-0.8 0.5,-0.2 1,-0.2 1.2,-0.2 0.3,0.1 0.6,0.5 0.8,1.1 l 0,0 z m 22.5,10.9 c 0.1,0.1 0.1,0.1 0.1,0.2 0,0 -0.1,0.1 -0.1,0.2 -0.1,0 -0.2,0.1 -0.4,0.1 -0.1,0.1 -0.2,0.2 -0.5,0.2 -0.1,0.1 -0.4,0.2 -0.5,0.2 -0.1,0 -0.2,0 -0.4,0 -0.2,0 -0.2,0 -0.2,0 -0.1,0 -0.1,-0.1 -0.1,-0.2 l -0.7,-1.7 c -0.4,1.1 -0.8,1.9 -1.4,2.6 -0.6,0.7 -1.3,1.3 -2.2,1.7 -1,0.4 -1.8,0.5 -2.6,0.5 -0.8,-0.1 -1.6,-0.4 -2.3,-0.8 -0.7,-0.5 -1.3,-1.1 -1.9,-1.9 -0.5,-0.7 -1,-1.6 -1.3,-2.5 -0.5,-1.1 -0.8,-2.2 -1,-3.1 -0.1,-1.1 -0.1,-1.9 0.1,-2.8 0.2,-0.8 0.6,-1.6 1.1,-2.3 0.6,-0.6 1.3,-1.1 2.3,-1.4 0.7,-0.4 1.4,-0.5 2.3,-0.4 0.7,0 1.6,0.2 2.4,0.6 l -3.1,-7.6 0,-0.1 c 0,-0.1 0,-0.2 0.1,-0.2 0.1,-0.1 0.1,-0.2 0.4,-0.2 0.1,-0.1 0.2,-0.2 0.5,-0.4 0.2,-0.1 0.5,-0.1 0.6,-0.1 0.2,-0.1 0.4,-0.1 0.5,-0.1 0,0 0.1,0 0.2,0.1 0,0 0.1,0 0.1,0.1 l 8,19.3 z m -6.3,-8.2 c -1,-0.5 -1.8,-0.8 -2.6,-1 -0.7,-0.2 -1.4,-0.1 -2,0.1 -0.6,0.2 -1.1,0.6 -1.4,1.1 -0.2,0.5 -0.5,1 -0.5,1.6 -0.1,0.6 -0.1,1.2 0,1.9 0.2,0.6 0.4,1.2 0.6,1.8 0.4,0.7 0.6,1.3 1,1.9 0.4,0.6 0.8,1.1 1.3,1.4 0.4,0.4 0.8,0.6 1.4,0.7 0.5,0.1 1.1,0 1.7,-0.2 0.4,-0.1 0.6,-0.2 1,-0.5 0.2,-0.2 0.5,-0.5 0.7,-0.8 0.1,-0.4 0.4,-0.7 0.6,-1.2 0.2,-0.5 0.4,-1 0.6,-1.6 l -2.4,-5.2 z m 19.6,-3.2 c 0.4,0.8 0.5,1.7 0.5,2.5 0,0.7 -0.1,1.6 -0.5,2.3 -0.4,0.7 -1,1.3 -1.7,1.9 -0.6,0.7 -1.6,1.2 -2.5,1.6 -0.6,0.4 -1.3,0.5 -1.8,0.6 -0.6,0.1 -1.2,0.2 -1.7,0.2 -0.5,0.1 -0.8,0.1 -1.2,0.1 -0.4,-0.1 -0.6,-0.1 -0.7,-0.1 0,-0.1 -0.1,-0.1 -0.2,-0.1 0,-0.1 -0.1,-0.1 -0.1,-0.2 -0.1,-0.1 -0.2,-0.2 -0.2,-0.4 -0.1,-0.1 -0.1,-0.2 -0.2,-0.5 -0.1,-0.4 -0.2,-0.6 -0.2,-0.7 0,-0.2 0.1,-0.4 0.2,-0.4 0.1,0 0.2,0 0.6,0 0.4,0 0.7,0.1 1.2,0.1 0.5,0 1.1,-0.1 1.7,-0.1 0.6,-0.1 1.2,-0.2 1.9,-0.6 0.6,-0.2 1.2,-0.6 1.6,-1 0.5,-0.4 0.8,-0.7 1,-1.2 0.2,-0.5 0.4,-0.8 0.4,-1.3 0,-0.5 -0.1,-1 -0.4,-1.4 -0.1,-0.6 -0.5,-1 -0.8,-1.3 -0.5,-0.4 -0.8,-0.6 -1.4,-0.7 -0.5,-0.1 -1.1,-0.1 -1.8,-0.1 -0.7,0.1 -1.4,0.4 -2.2,0.6 l -1.8,0.8 c -0.1,0 -0.2,0 -0.2,0 -0.1,0 -0.2,0 -0.4,0 0,-0.1 -0.1,-0.2 -0.2,-0.2 0,-0.1 -0.1,-0.4 -0.2,-0.5 -0.1,-0.2 -0.1,-0.4 -0.1,-0.5 0,-0.1 0,-0.2 0,-0.4 0,-0.2 0,-0.2 0.1,-0.2 0,-0.1 0.1,-0.1 0.2,-0.1 l 1.6,-0.7 c 0.6,-0.2 1.2,-0.6 1.7,-1 0.4,-0.4 0.7,-0.8 1,-1.2 0.2,-0.5 0.4,-1 0.4,-1.4 0,-0.6 -0.1,-1.1 -0.4,-1.6 -0.1,-0.5 -0.4,-0.7 -0.7,-1.1 -0.2,-0.2 -0.5,-0.5 -0.8,-0.7 -0.4,-0.1 -0.8,-0.1 -1.3,-0.1 -0.4,0 -0.8,0.1 -1.4,0.4 -0.5,0.1 -1,0.5 -1.3,0.8 -0.5,0.4 -0.8,0.7 -1.1,1.1 -0.2,0.4 -0.5,0.6 -0.7,1 -0.1,0.2 -0.2,0.4 -0.4,0.4 -0.1,0.1 -0.1,0.1 -0.2,0.1 0,0 -0.1,0 -0.1,-0.1 -0.1,0 -0.1,-0.1 -0.2,-0.2 0,-0.1 -0.1,-0.4 -0.2,-0.5 0,-0.2 -0.1,-0.4 -0.1,-0.5 0,-0.1 -0.1,-0.1 -0.1,-0.2 0,-0.1 0,-0.2 0,-0.2 0.1,-0.1 0.1,-0.2 0.1,-0.4 0.1,-0.1 0.2,-0.4 0.5,-0.6 0.1,-0.4 0.4,-0.6 0.7,-1 0.4,-0.4 0.8,-0.7 1.3,-1.1 0.5,-0.4 1,-0.6 1.6,-0.8 1,-0.4 1.7,-0.6 2.4,-0.6 0.8,-0.1 1.4,0 2,0.2 0.6,0.1 1.2,0.5 1.7,1 0.4,0.5 0.8,1.1 1.1,1.8 0.2,0.6 0.4,1.1 0.5,1.7 0,0.6 0,1.1 -0.1,1.7 -0.1,0.5 -0.4,1 -0.7,1.4 -0.2,0.5 -0.7,0.8 -1.2,1.2 l 0,0 c 0.6,-0.2 1.3,-0.2 1.9,-0.2 0.7,0 1.2,0.1 1.8,0.4 0.6,0.2 1.1,0.6 1.4,1 -0.2,0.2 0.1,0.7 0.4,1.3 l 0,0 z" /><path
     style="clip-rule:evenodd;fill-rule:evenodd"
     inkscape:connector-curvature="0"
     id="path27"
     d="m 270,436.87273 c 0,-6.2 5,-11.3 11.3,-11.3 6.4,0 11.4,5 11.4,11.3 0,6.3 -5,11.4 -11.4,11.4 -6.3,0 -11.3,-5.2 -11.3,-11.4 l 0,0 z" /><path
     inkscape:connector-curvature="0"
     id="path29"
     d="m 269,436.97273 0,-1.3 0.2,-1.2 0.2,-1.2 0.5,-1.1 0.5,-1.1 0.6,-1.1 0.7,-1 0.8,-0.8 0.8,-0.8 1,-0.7 1,-0.6 1.1,-0.5 1.2,-0.5 1.1,-0.2 1.3,-0.2 1.2,-0.1 1.3,0.1 1.2,0.1 1.2,0.4 1.1,0.4 1.1,0.6 1.1,0.6 1,0.7 0.8,0.7 0.8,0.8 0.7,1 0.6,1.1 0.5,1.1 0.5,1.1 0.2,1.2 0.2,1.2 0,1.3 0,1.2 -0.2,1.3 -0.2,1.1 -0.5,1.2 -0.5,1.1 -0.6,1 -0.7,1 -0.7,1 -1,0.7 -1,0.7 -1,0.6 -1.1,0.6 -1.1,0.4 -1.2,0.4 -1.3,0.1 -1.2,0.1 -1.3,0 -1.2,-0.2 -1.2,-0.2 -1.1,-0.5 -1.1,-0.5 -1.1,-0.6 -1,-0.7 -0.8,-0.8 -0.8,-0.8 -0.7,-1 -0.6,-1 -0.5,-1.1 -0.5,-1.2 -0.2,-1.2 -0.2,-1.2 0,-1.5 z m 2.1,0.9 0.1,1 0.2,1 0.4,1 0.5,1 0.5,0.8 0.6,0.8 0.6,0.7 0.7,0.6 0.8,0.6 0.8,0.6 1,0.4 0.8,0.4 1.1,0.4 1,0.1 1.1,0 1.1,0 1.1,-0.1 1,-0.2 1,-0.4 0.8,-0.5 0.8,-0.5 0.8,-0.6 0.7,-0.7 0.7,-0.7 0.6,-0.7 0.5,-0.8 0.5,-1 0.4,-1 0.2,-1 0.1,-1.1 0.1,-1 -0.1,-1.1 -0.1,-1.1 -0.2,-1 -0.4,-1 -0.5,-1 -0.5,-0.8 -0.6,-0.7 -0.6,-0.7 -0.7,-0.7 -0.8,-0.6 -0.8,-0.5 -0.8,-0.5 -1,-0.4 -1.1,-0.2 -1,-0.1 -1.1,-0.1 -1.1,0.1 -1,0.1 -1.1,0.2 -1,0.4 -0.8,0.4 -0.8,0.6 -0.8,0.6 -0.7,0.6 -0.7,0.7 -0.6,0.8 -0.5,0.8 -0.5,0.8 -0.4,1 -0.2,1 -0.1,1.1 -0.1,1.1 0.1,1.1 z" /><path
     style="clip-rule:evenodd;fill-rule:evenodd"
     inkscape:connector-curvature="0"
     id="path31"
     d="m 394.7,504.87273 c 0,-6.2 5.2,-11.3 11.4,-11.3 6.2,0 11.3,5 11.3,11.3 0,6.2 -5,11.4 -11.3,11.4 -6.3,0 -11.4,-5.2 -11.4,-11.4 l 0,0 z" /><path
     inkscape:connector-curvature="0"
     id="path33"
     d="m 393.7,504.97273 0.1,-1.3 0.1,-1.2 0.4,-1.2 0.4,-1.1 0.5,-1.1 0.6,-1.1 0.7,-1 0.8,-0.8 0.8,-0.8 1,-0.7 1.1,-0.6 1.1,-0.5 1.1,-0.5 1.2,-0.2 1.2,-0.2 1.3,-0.1 1.2,0.1 1.2,0.1 1.2,0.4 1.2,0.4 1.1,0.6 1,0.6 1,0.7 0.8,0.7 0.8,0.8 0.7,1 0.6,1.1 0.6,1.1 0.4,1.1 0.4,1.2 0.1,1.2 0.1,1.3 -0.1,1.2 -0.1,1.3 -0.4,1.1 -0.4,1.2 -0.5,1.1 -0.7,1 -0.6,1 -0.8,1 -0.8,0.7 -1,0.7 -1.1,0.6 -1.1,0.6 -1.1,0.4 -1.2,0.4 -1.2,0.1 -1.3,0.1 -1.2,0 -1.2,-0.2 -1.2,-0.2 -1.2,-0.5 -1.1,-0.5 -1,-0.6 -1,-0.7 -0.8,-0.8 -0.8,-0.8 -0.7,-1 -0.6,-1 -0.6,-1.1 -0.4,-1.2 -0.4,-1.2 -0.1,-1.2 -0.1,-1.5 z m 2.1,1 0.1,1 0.4,1 0.2,1 0.5,1 0.5,0.8 0.5,0.7 0.7,0.7 0.7,0.6 0.8,0.6 0.7,0.6 1,0.4 1,0.4 1,0.4 1.1,0.1 1.1,0 1,0 1.1,-0.1 1,-0.2 1,-0.4 1,-0.5 0.8,-0.5 0.7,-0.6 0.8,-0.7 0.6,-0.7 0.6,-0.7 0.6,-0.8 0.4,-1 0.4,-1 0.2,-1 0.2,-1.1 0,-1 0,-1.1 -0.2,-1.1 -0.2,-1 -0.2,-1 -0.5,-1 -0.5,-0.8 -0.6,-0.7 -0.7,-0.7 -0.7,-0.7 -0.8,-0.6 -0.8,-0.5 -0.8,-0.5 -1,-0.4 -1,-0.2 -1.1,-0.1 -1.1,-0.1 -1,0 -1.1,0.2 -1,0.2 -1,0.4 -1,0.4 -0.8,0.6 -0.8,0.5 -0.7,0.7 -0.6,0.7 -0.6,0.8 -0.6,0.8 -0.4,0.8 -0.4,1 -0.2,1 -0.2,1.1 0,1.1 0,1.2 z" /><path
     inkscape:connector-curvature="0"
     id="path35"
     d="m 230,531.07273 c 0,0.8 -0.1,1.4 -0.2,1.9 -0.1,0.5 -0.3,0.9 -0.6,1.2 -0.2,0.3 -0.6,0.6 -1,0.8 -0.4,0.2 -0.9,0.3 -1.4,0.3 -0.2,0 -0.5,0 -0.6,0 -0.2,0 -0.3,-0.1 -0.4,-0.1 -0.1,0 -0.2,-0.1 -0.2,-0.1 0,0 -0.1,-0.1 -0.1,-0.2 0,-0.1 0,-0.1 0,-0.2 0,-0.1 0,-0.2 0,-0.3 0,-0.1 0,-0.3 0,-0.4 0,-0.1 0,-0.2 0,-0.2 0,-0.1 0.1,-0.1 0.1,-0.1 0,0 0.1,0 0.1,0 0.1,0 0.1,0 0.3,0 0.1,0 0.3,0 0.5,0 0.3,0 0.5,0 0.7,-0.1 0.2,-0.1 0.3,-0.2 0.5,-0.4 0.1,-0.2 0.2,-0.4 0.3,-0.7 0.1,-0.3 0.1,-0.7 0.1,-1.3 l 0,-11.1 c 0,0 0,-0.1 0,-0.2 0,0 0.1,-0.1 0.2,-0.1 0.1,0 0.2,0 0.3,-0.1 0.1,0 0.3,0 0.5,0 0.2,0 0.3,0 0.5,0 0.1,0 0.2,0 0.3,0.1 0.1,0 0.1,0.1 0.2,0.1 0,0.1 0,0.1 0,0.2 l 0,11 -0.1,0 z m 0.3,-14.6 c 0,0.5 -0.1,0.8 -0.3,0.9 -0.2,0.1 -0.5,0.2 -1,0.2 -0.4,0 -0.8,-0.1 -0.9,-0.2 -0.2,-0.2 -0.2,-0.5 -0.2,-0.9 0,-0.4 0.1,-0.7 0.2,-0.9 0.2,-0.2 0.5,-0.2 0.9,-0.2 0.4,0 0.8,0.1 0.9,0.2 0.3,0.1 0.4,0.4 0.4,0.9 l 0,0 0,0 z m 13.2,8.7 c 0,0.9 -0.1,1.7 -0.3,2.4 -0.2,0.7 -0.6,1.4 -1,1.9 -0.4,0.5 -1,0.9 -1.7,1.2 -0.7,0.3 -1.5,0.4 -2.3,0.4 -0.9,0 -1.6,-0.1 -2.3,-0.4 -0.7,-0.3 -1.2,-0.6 -1.6,-1.1 -0.4,-0.5 -0.8,-1.1 -1,-1.8 -0.2,-0.7 -0.3,-1.5 -0.3,-2.4 0,-0.9 0.1,-1.7 0.3,-2.4 0.2,-0.7 0.6,-1.3 1,-1.9 0.4,-0.5 1,-0.9 1.7,-1.2 0.7,-0.3 1.5,-0.4 2.4,-0.4 0.9,0 1.6,0.1 2.3,0.4 0.6,0.3 1.2,0.6 1.6,1.1 0.4,0.5 0.8,1.1 1,1.8 0.1,0.8 0.2,1.6 0.2,2.4 l 0,0 0,0 z m -2.1,0.1 c 0,-0.6 0,-1.1 -0.2,-1.6 -0.1,-0.5 -0.3,-0.9 -0.5,-1.3 -0.2,-0.4 -0.6,-0.7 -1,-0.9 -0.4,-0.2 -0.9,-0.3 -1.5,-0.4 -0.6,0 -1.1,0.1 -1.5,0.3 -0.4,0.2 -0.7,0.5 -1,0.9 -0.3,0.4 -0.5,0.8 -0.6,1.3 -0.1,0.5 -0.2,1.1 -0.2,1.7 0,0.6 0.1,1.1 0.2,1.7 0.1,0.5 0.3,1 0.5,1.3 0.2,0.4 0.6,0.7 1,0.9 0.4,0.2 0.9,0.3 1.5,0.3 0.6,0 1.1,-0.1 1.5,-0.3 0.4,-0.2 0.8,-0.5 1,-0.9 0.2,-0.4 0.5,-0.8 0.6,-1.3 0.2,-0.5 0.2,-1.1 0.2,-1.7 l 0,0 0,0 z m 6.8,5.4 c 0,0.1 0,0.1 0,0.2 0,0 -0.1,0.1 -0.2,0.1 -0.1,0 -0.2,0 -0.3,0.1 -0.1,0 -0.3,0 -0.5,0 -0.2,0 -0.3,0 -0.5,0 -0.1,0 -0.2,0 -0.3,-0.1 -0.1,0 -0.1,-0.1 -0.2,-0.1 0,0 0,-0.1 0,-0.2 l 0,-10.7 c 0,0 0,-0.1 0,-0.2 0,0 0.1,-0.1 0.2,-0.1 0.1,0 0.2,0 0.3,-0.1 0.1,0 0.3,0 0.5,0 0.2,0 0.4,0 0.5,0 0.1,0 0.2,0 0.3,0.1 0.1,0 0.1,0.1 0.2,0.1 0,0.1 0,0.1 0,0.2 l 0,10.7 0,0 z m 0.2,-14.2 c 0,0.5 -0.1,0.8 -0.3,0.9 -0.2,0.1 -0.5,0.2 -1,0.2 -0.4,0 -0.8,-0.1 -0.9,-0.2 -0.2,-0.2 -0.3,-0.5 -0.3,-0.9 0,-0.4 0.1,-0.7 0.3,-0.9 0.2,-0.2 0.5,-0.2 0.9,-0.2 0.4,0 0.8,0.1 0.9,0.2 0.3,0.1 0.4,0.4 0.4,0.9 l 0,0 0,0 z m 12.5,14.2 c 0,0.1 0,0.1 0,0.2 0,0 -0.1,0.1 -0.2,0.1 -0.1,0 -0.2,0 -0.3,0.1 -0.1,0 -0.3,0 -0.5,0 -0.2,0 -0.3,0 -0.5,0 -0.1,0 -0.2,0 -0.3,-0.1 -0.1,0 -0.1,-0.1 -0.2,-0.1 0,0 0,-0.1 0,-0.2 l 0,-6.2 c 0,-0.6 0,-1.1 -0.1,-1.5 -0.1,-0.4 -0.2,-0.7 -0.4,-1 -0.2,-0.3 -0.4,-0.5 -0.7,-0.6 -0.3,-0.1 -0.6,-0.2 -1,-0.2 -0.5,0 -1,0.2 -1.5,0.5 -0.5,0.4 -1,0.9 -1.5,1.5 l 0,7.4 c 0,0.1 0,0.1 0,0.2 0,0 -0.1,0.1 -0.2,0.1 -0.1,0 -0.2,0 -0.3,0.1 -0.1,0 -0.3,0 -0.5,0 -0.2,0 -0.3,0 -0.5,0 -0.1,0 -0.2,0 -0.3,-0.1 -0.1,0 -0.1,-0.1 -0.2,-0.1 0,0 0,-0.1 0,-0.2 l 0,-10.7 c 0,-0.1 0,-0.1 0,-0.2 0,-0.1 0.1,-0.1 0.1,-0.1 0.1,0 0.2,-0.1 0.3,-0.1 0.1,0 0.3,0 0.4,0 0.2,0 0.3,0 0.4,0 0.1,0 0.2,0 0.3,0.1 0.1,0.1 0.1,0.1 0.1,0.1 0,0 0,0.1 0,0.2 l 0,1.4 c 0.6,-0.6 1.2,-1.1 1.8,-1.4 0.6,-0.3 1.2,-0.5 1.8,-0.5 0.7,0 1.3,0.1 1.8,0.4 0.5,0.2 0.9,0.6 1.2,1 0.3,0.4 0.5,0.9 0.6,1.4 0.1,0.6 0.2,1.2 0.2,1.9 l 0,6.6 0.2,0 z m 9,-0.8 c 0,0.2 0,0.4 0,0.6 0,0.1 -0.1,0.2 -0.1,0.3 -0.1,0.1 -0.2,0.1 -0.3,0.2 -0.1,0.1 -0.3,0.1 -0.4,0.1 -0.2,0 -0.3,0.1 -0.5,0.1 -0.2,0 -0.4,0 -0.5,0 -0.5,0 -1,-0.1 -1.4,-0.2 -0.4,-0.1 -0.7,-0.4 -1,-0.7 -0.2,-0.3 -0.4,-0.7 -0.5,-1.1 -0.1,-0.4 -0.2,-1 -0.2,-1.6 l 0,-6.2 -1.5,0 c -0.1,0 -0.2,-0.1 -0.3,-0.2 -0.1,-0.1 -0.1,-0.3 -0.1,-0.6 0,-0.1 0,-0.3 0,-0.4 0,-0.1 0.1,-0.2 0.1,-0.2 0,-0.1 0.1,-0.1 0.1,-0.1 0,0 0.1,0 0.2,0 l 1.5,0 0,-2.5 c 0,0 0,-0.1 0,-0.1 0,0 0.1,-0.1 0.2,-0.1 0.1,0 0.2,-0.1 0.3,-0.1 0.1,0 0.3,0 0.5,0 0.2,0 0.4,0 0.5,0 0.1,0 0.2,0 0.3,0.1 0.1,0 0.1,0.1 0.2,0.1 0,0 0,0.1 0,0.1 l 0,2.5 2.7,0 c 0.1,0 0.1,0 0.2,0 0,0 0.1,0.1 0.1,0.1 0,0 0.1,0.2 0.1,0.2 0,0.1 0,0.2 0,0.4 0,0.3 0,0.5 -0.1,0.6 -0.1,0.1 -0.2,0.2 -0.3,0.2 l -2.7,0 0,5.9 c 0,0.7 0.1,1.3 0.3,1.7 0.2,0.4 0.6,0.6 1.2,0.6 0.2,0 0.4,0 0.5,0 0.1,0 0.3,-0.1 0.4,-0.1 0.1,0 0.2,-0.1 0.3,-0.1 0.1,0 0.2,-0.1 0.2,-0.1 0,0 0.1,0 0.1,0 0,0 0.1,0.1 0.1,0.1 0,0 0,0.1 0.1,0.2 -0.3,0 -0.3,0.2 -0.3,0.3 l 0,0 0,0 z m 11.5,0.3 c 0,0.2 0,0.3 0,0.4 0,0.1 0,0.2 -0.1,0.2 0,0.1 -0.1,0.1 -0.1,0.1 0,0 -0.1,0 -0.2,0 l -7.9,0 c -0.1,0 -0.1,0 -0.2,0 0,0 -0.1,-0.1 -0.1,-0.1 0,-0.1 -0.1,-0.1 -0.1,-0.2 0,-0.1 0,-0.2 0,-0.4 0,-0.1 0,-0.2 0,-0.4 0,-0.1 0.1,-0.2 0.1,-0.2 0,-0.1 0.1,-0.1 0.1,-0.2 0,0 0.1,0 0.2,-0.1 l 3.2,0 0,-11.5 -2.9,1.8 c -0.2,0.1 -0.3,0.1 -0.4,0.2 -0.1,0 -0.2,0 -0.2,0 0,0 -0.1,-0.1 -0.1,-0.3 0,-0.1 0,-0.3 0,-0.5 0,-0.1 0,-0.2 0,-0.3 0,-0.1 0,-0.2 0.1,-0.2 0,-0.1 0.1,-0.1 0.1,-0.2 0,0 0.1,-0.1 0.2,-0.1 l 3.5,-2.3 c 0,0 0.1,0 0.1,-0.1 0,0 0.1,0 0.2,0 0.1,0 0.2,0 0.2,0 0.1,0 0.2,0 0.4,0 0.2,0 0.4,0 0.5,0 0.1,0 0.2,0 0.3,0.1 0.1,0.1 0.1,0.1 0.1,0.1 0,0 0,0.1 0,0.1 l 0,13.3 2.7,0 c 0.1,0 0.1,0 0.2,0.1 0.1,0.1 0.1,0.1 0.1,0.2 0,0.1 0.1,0.2 0.1,0.2 -0.1,0 -0.1,0.1 -0.1,0.3 l 0,0 0,0 z" /><path
     inkscape:connector-curvature="0"
     id="path37"
     d="m 419.9,434.87273 -14.5,55.4 2.9,0.7 14.5,-55.4 -2.9,-0.7 z m -17.3,46.1 3.5,12.6 9.1,-9.2 c 0.6,-0.6 0.6,-1.6 0,-2.2 -0.5,-0.5 -1.4,-0.5 -2,0 l -7.4,7.4 2.5,0.6 -2.8,-10 c -0.2,-0.8 -1.1,-1.3 -1.8,-1.1 -0.9,0.4 -1.3,1.2 -1.1,1.9 l 0,0 z" /><path
     inkscape:connector-curvature="0"
     id="path39"
     d="m 396.7,424.97273 c 0,0.8 -0.1,1.4 -0.2,1.9 -0.1,0.5 -0.3,0.9 -0.6,1.2 -0.2,0.3 -0.6,0.6 -1,0.8 -0.4,0.2 -0.9,0.3 -1.4,0.3 -0.2,0 -0.5,0 -0.6,0 -0.2,0 -0.3,-0.1 -0.4,-0.1 -0.1,0 -0.2,-0.1 -0.2,-0.1 0,0 -0.1,-0.1 -0.1,-0.2 0,-0.1 0,-0.1 0,-0.2 0,-0.1 0,-0.2 0,-0.3 0,-0.1 0,-0.3 0,-0.4 0,-0.1 0,-0.2 0,-0.2 0,-0.1 0.1,-0.1 0.1,-0.1 0,0 0.1,0 0.1,0 0.1,0 0.1,0 0.3,0 0.1,0 0.3,0 0.5,0 0.3,0 0.5,0 0.7,-0.1 0.2,-0.1 0.3,-0.2 0.5,-0.4 0.1,-0.2 0.2,-0.4 0.3,-0.7 0.1,-0.3 0.1,-0.7 0.1,-1.3 l 0,-11.1 c 0,0 0,-0.1 0,-0.2 0,0 0.1,-0.1 0.2,-0.1 0.1,0 0.2,0 0.3,-0.1 0.1,0 0.3,0 0.5,0 0.2,0 0.3,0 0.5,0 0.1,0 0.2,0 0.3,0.1 0.1,0 0.1,0.1 0.2,0.1 0,0.1 0,0.1 0,0.2 l 0,11 -0.1,0 z m 0.3,-14.6 c 0,0.5 -0.1,0.8 -0.3,0.9 -0.2,0.1 -0.5,0.2 -1,0.2 -0.4,0 -0.8,-0.1 -0.9,-0.2 -0.2,-0.2 -0.2,-0.5 -0.2,-0.9 0,-0.4 0.1,-0.7 0.2,-0.9 0.2,-0.2 0.5,-0.2 0.9,-0.2 0.4,0 0.8,0.1 0.9,0.2 0.3,0.2 0.4,0.5 0.4,0.9 l 0,0 0,0 z m 13.2,8.8 c 0,0.9 -0.1,1.7 -0.3,2.4 -0.2,0.7 -0.6,1.4 -1,1.9 -0.4,0.5 -1,0.9 -1.7,1.2 -0.7,0.3 -1.5,0.4 -2.3,0.4 -0.9,0 -1.6,-0.1 -2.3,-0.4 -0.7,-0.3 -1.2,-0.6 -1.6,-1.1 -0.4,-0.5 -0.8,-1.1 -1,-1.8 -0.2,-0.7 -0.3,-1.5 -0.3,-2.4 0,-0.9 0.1,-1.7 0.3,-2.4 0.2,-0.7 0.6,-1.3 1,-1.9 0.4,-0.5 1,-0.9 1.7,-1.2 0.7,-0.3 1.5,-0.4 2.4,-0.4 0.9,0 1.6,0.1 2.3,0.4 0.6,0.3 1.2,0.6 1.6,1.1 0.4,0.5 0.8,1.1 1,1.8 0.1,0.7 0.2,1.5 0.2,2.4 l 0,0 0,0 z m -2.1,0 c 0,-0.6 0,-1.1 -0.2,-1.6 -0.1,-0.5 -0.3,-0.9 -0.5,-1.3 -0.2,-0.4 -0.6,-0.7 -1,-0.9 -0.4,-0.2 -0.9,-0.3 -1.5,-0.4 -0.6,0 -1.1,0.1 -1.5,0.3 -0.4,0.2 -0.7,0.5 -1,0.9 -0.3,0.4 -0.5,0.8 -0.6,1.3 -0.1,0.5 -0.2,1.1 -0.2,1.7 0,0.6 0.1,1.1 0.2,1.7 0.1,0.5 0.3,1 0.5,1.3 0.2,0.4 0.6,0.7 1,0.9 0.4,0.2 0.9,0.3 1.5,0.3 0.6,0 1.1,-0.1 1.5,-0.3 0.4,-0.2 0.8,-0.5 1,-0.9 0.2,-0.4 0.5,-0.8 0.6,-1.3 0.2,-0.5 0.2,-1 0.2,-1.7 l 0,0 0,0 z m 6.7,5.4 c 0,0.1 0,0.1 0,0.2 0,0 -0.1,0.1 -0.2,0.1 -0.1,0 -0.2,0 -0.3,0.1 -0.1,0 -0.3,0 -0.5,0 -0.2,0 -0.3,0 -0.5,0 -0.1,0 -0.2,0 -0.3,-0.1 -0.1,0 -0.1,-0.1 -0.2,-0.1 0,0 0,-0.1 0,-0.2 l 0,-10.7 c 0,0 0,-0.1 0,-0.2 0,0 0.1,-0.1 0.2,-0.1 0.1,0 0.2,0 0.3,-0.1 0.1,0 0.3,0 0.5,0 0.2,0 0.4,0 0.5,0 0.1,0 0.2,0 0.3,0.1 0.1,0 0.1,0.1 0.2,0.1 0,0.1 0,0.1 0,0.2 l 0,10.7 0,0 z m 0.3,-14.2 c 0,0.5 -0.1,0.8 -0.3,0.9 -0.2,0.1 -0.5,0.2 -1,0.2 -0.4,0 -0.8,-0.1 -0.9,-0.2 -0.2,-0.2 -0.3,-0.5 -0.3,-0.9 0,-0.4 0.1,-0.7 0.3,-0.9 0.2,-0.2 0.5,-0.2 0.9,-0.2 0.4,0 0.8,0.1 0.9,0.2 0.3,0.2 0.4,0.5 0.4,0.9 l 0,0 0,0 z m 12.5,14.2 c 0,0.1 0,0.1 0,0.2 0,0 -0.1,0.1 -0.2,0.1 -0.1,0 -0.2,0 -0.3,0.1 -0.1,0 -0.3,0 -0.5,0 -0.2,0 -0.3,0 -0.5,0 -0.1,0 -0.2,0 -0.3,-0.1 -0.1,0 -0.1,-0.1 -0.2,-0.1 0,0 0,-0.1 0,-0.2 l 0,-6.2 c 0,-0.6 0,-1.1 -0.1,-1.5 -0.1,-0.4 -0.2,-0.7 -0.4,-1 -0.2,-0.3 -0.4,-0.5 -0.7,-0.6 -0.3,-0.1 -0.6,-0.2 -1,-0.2 -0.5,0 -1,0.2 -1.5,0.5 -0.5,0.4 -1,0.9 -1.5,1.5 l 0,7.4 c 0,0.1 0,0.1 0,0.2 0,0 -0.1,0.1 -0.2,0.1 -0.1,0 -0.2,0 -0.3,0.1 -0.1,0 -0.3,0 -0.5,0 -0.2,0 -0.3,0 -0.5,0 -0.1,0 -0.2,0 -0.3,-0.1 -0.1,0 -0.1,-0.1 -0.2,-0.1 0,0 0,-0.1 0,-0.2 l 0,-10.7 c 0,-0.1 0,-0.1 0,-0.2 0,-0.1 0.1,-0.1 0.1,-0.1 0.1,0 0.2,-0.1 0.3,-0.1 0.1,0 0.3,0 0.4,0 0.2,0 0.3,0 0.4,0 0.1,0 0.2,0 0.3,0.1 0.1,0.1 0.1,0.1 0.1,0.1 0,0 0,0.1 0,0.2 l 0,1.4 c 0.6,-0.6 1.2,-1.1 1.8,-1.4 0.6,-0.3 1.2,-0.5 1.8,-0.5 0.7,0 1.3,0.1 1.8,0.4 0.5,0.2 0.9,0.6 1.2,1 0.3,0.4 0.5,0.9 0.6,1.4 0.1,0.6 0.2,1.2 0.2,1.9 l 0,6.6 0.2,0 z m 9,-0.8 c 0,0.2 0,0.4 0,0.6 0,0.1 -0.1,0.2 -0.1,0.3 -0.1,0.1 -0.2,0.1 -0.3,0.2 -0.1,0.1 -0.3,0.1 -0.4,0.1 -0.2,0 -0.3,0.1 -0.5,0.1 -0.2,0 -0.4,0 -0.5,0 -0.5,0 -1,-0.1 -1.4,-0.2 -0.4,-0.1 -0.7,-0.4 -1,-0.7 -0.2,-0.3 -0.4,-0.7 -0.5,-1.1 -0.1,-0.4 -0.2,-1 -0.2,-1.6 l 0,-6.2 -1.7,0 c -0.1,0 -0.2,-0.1 -0.3,-0.2 -0.1,-0.1 -0.1,-0.3 -0.1,-0.6 0,-0.1 0,-0.3 0,-0.4 0,-0.1 0.1,-0.2 0.1,-0.2 0,-0.1 0.1,-0.1 0.1,-0.1 0,0 0.1,0 0.2,0 l 1.5,0 0,-2.5 c 0,0 0,-0.1 0,-0.1 0,0 0.1,-0.1 0.2,-0.1 0.1,0 0.2,-0.1 0.3,-0.1 0.1,0 0.3,0 0.5,0 0.2,0 0.4,0 0.5,0 0.1,0 0.2,0 0.3,0.1 0.1,0 0.1,0.1 0.2,0.1 0,0 0,0.1 0,0.1 l 0,2.5 2.7,0 c 0.1,0 0.1,0 0.2,0 0,0 0.1,0.1 0.1,0.1 0,0 0.1,0.2 0.1,0.2 0,0.1 0,0.2 0,0.4 0,0.3 0,0.5 -0.1,0.6 -0.1,0.1 -0.2,0.2 -0.3,0.2 l -2.7,0 0,5.9 c 0,0.7 0.1,1.3 0.3,1.7 0.2,0.4 0.6,0.6 1.2,0.6 0.2,0 0.4,0 0.5,0 0.1,0 0.3,-0.1 0.4,-0.1 0.1,0 0.2,-0.1 0.3,-0.1 0.1,0 0.2,-0.1 0.2,-0.1 0,0 0.1,0 0.1,0 0,0 0.1,0.1 0.1,0.1 0,0 0,0.1 0.1,0.2 -0.1,0.1 -0.1,0.2 -0.1,0.3 l 0,0 0,0 z m 11.5,0.2 c 0,0.1 0,0.3 0,0.4 0,0.1 0,0.2 -0.1,0.3 0,0.1 -0.1,0.1 -0.1,0.2 -0.1,0 -0.1,0 -0.2,0 l -8.4,0 c -0.1,0 -0.2,0 -0.3,0 -0.1,0 -0.1,-0.1 -0.2,-0.1 -0.1,-0.1 -0.1,-0.1 -0.1,-0.3 0,-0.1 0,-0.3 0,-0.4 0,-0.1 0,-0.3 0,-0.4 0,-0.1 0,-0.2 0.1,-0.3 0,-0.1 0.1,-0.2 0.2,-0.3 0.1,-0.1 0.1,-0.2 0.2,-0.3 l 3,-3.1 c 0.7,-0.7 1.3,-1.4 1.7,-1.9 0.4,-0.6 0.8,-1.1 1,-1.6 0.2,-0.5 0.4,-0.9 0.5,-1.3 0.1,-0.4 0.1,-0.8 0.1,-1.1 0,-0.3 0,-0.6 -0.2,-0.9 -0.1,-0.3 -0.3,-0.6 -0.5,-0.8 -0.2,-0.2 -0.5,-0.4 -0.8,-0.5 -0.3,-0.1 -0.7,-0.2 -1.1,-0.2 -0.5,0 -0.9,0.1 -1.3,0.2 -0.4,0.2 -0.7,0.3 -1,0.5 -0.3,0.2 -0.5,0.3 -0.7,0.4 -0.2,0.1 -0.3,0.2 -0.4,0.2 -0.1,0 -0.1,0 -0.2,0 0,0 -0.1,-0.1 -0.1,-0.2 0,-0.1 -0.1,-0.2 -0.1,-0.3 0,-0.1 0,-0.3 0,-0.4 0,-0.1 0,-0.2 0,-0.3 0,-0.1 0,-0.2 0,-0.2 0,-0.1 0,-0.1 0.1,-0.2 0,0 0.1,-0.1 0.2,-0.2 0.1,-0.1 0.3,-0.2 0.5,-0.3 0.2,-0.1 0.5,-0.3 0.9,-0.4 0.3,-0.1 0.7,-0.3 1.1,-0.4 0.4,-0.1 0.9,-0.1 1.3,-0.2 0.7,0 1.4,0.1 1.9,0.3 0.6,0.2 1,0.5 1.4,0.9 0.4,0.4 0.6,0.8 0.8,1.3 0.2,0.5 0.3,1 0.3,1.5 0,0.5 0,1 -0.1,1.5 -0.1,0.5 -0.3,1 -0.5,1.6 -0.3,0.6 -0.7,1.2 -1.2,1.9 -0.5,0.7 -1.2,1.5 -2.1,2.4 l -2.4,2.5 6.6,0 c 0.1,0 0.1,0 0.2,0.1 0.1,0.1 0.1,0.1 0.2,0.2 0,0.1 0.1,0.2 0.1,0.3 -0.3,-0.3 -0.3,-0.2 -0.3,-0.1 l 0,0 0,0 z" /><path
     inkscape:connector-curvature="0"
     id="path41"
     d="m 256.1,505.57273 25.3,-54.1 -2.6,-1.2 -25.4,54 2.7,1.3 z m 26.4,-44.5 -1.1,-12.8 -10.8,7.3 c -0.6,0.5 -0.8,1.4 -0.4,2.2 0.5,0.6 1.4,0.8 2.2,0.4 l 8.5,-6 -2.3,-1.1 0.8,10.4 c 0.1,0.8 0.8,1.4 1.7,1.3 0.9,-0.1 1.5,-0.9 1.4,-1.7 l 0,0 z" /></svg>