<?xml version="1.0" encoding="utf-8"?>
<!DOCTYPE svg PUBLIC "-//W3C//DTD SVG 1.1//EN" "http://www.w3.org/Graphics/SVG/1.1/DTD/svg11.dtd">
<svg xmlns="http://www.w3.org/2000/svg" xmlns:xlink="http://www.w3.org/1999/xlink" version="1.1" baseProfile="full" width="241.333" height="288" viewBox="0 0 241.33 288.00" enable-background="new 0 0 241.33 288.00" xml:space="preserve">
	<path fill="#000000" fill-opacity="1" stroke-linejoin="round" d="M 126.823,81.7932L 191.463,146.428L 192.213,145.684L 127.572,81.0425M 188.796,147.605L 195.624,149.736L 193.489,142.912"/>
	<path fill="#000000" fill-opacity="1" stroke-linejoin="round" d="M 127.572,81.7932L 62.932,146.428L 62.1867,145.684L 126.823,81.0425M 65.4893,147.605L 58.6667,149.736L 61.0107,142.912"/>
	<path fill="#000000" fill-opacity="1" stroke-linejoin="round" d="M 203.733,149.521L 204.796,150.589L 204.265,151.126C 203.733,151.657 203.52,151.974 203.411,152.402C 203.411,152.829 203.52,153.469 203.839,154.22L 204.265,155.282L 214.077,159.126L 212.796,160.402L 205.011,157.417L 208.104,165.094L 206.823,166.376L 202.344,154.641C 202.129,153.793 201.916,152.938 202.129,152.298C 202.239,151.657 202.667,150.912 203.411,150.162"/>
	<path fill="#000000" fill-opacity="1" stroke-linejoin="round" d="M 48.744,154.75L 49.812,161.042L 56,161.897L 54.5053,163.605L 49.812,162.965L 50.6667,167.444L 49.3853,168.725L 48.2133,162.75L 41.812,161.897L 43.52,160.188L 48.4267,160.938L 47.6773,156.032M 29.12,169.152L 38.932,178.965L 37.6507,180.245L 36.2653,178.854C 36.692,180.564 36.3693,181.845 35.52,182.802C 34.6667,183.553 33.7027,183.87 32.5307,183.657C 31.3587,183.553 30.4,182.912 29.224,181.845C 28.052,180.564 27.4107,179.392 27.1973,178.007C 27.0933,176.725 27.4107,175.657 28.3693,174.802C 29.12,174.059 30.1867,173.632 31.3587,173.736L 27.9427,170.324M 32.3173,174.912C 31.036,174.802 29.9733,175.017 29.5467,175.657C 28.9053,176.188 28.796,176.938 28.9053,177.684C 29.12,178.537 29.6507,179.496 30.6093,180.35C 32.4267,182.059 33.7027,182.376 34.6667,181.417C 35.4107,180.673 35.7333,179.496 35.3067,178.007M 21.0107,182.589L 30.5053,192.188L 33.172,189.417L 34.2387,190.485L 30.1867,194.428L 19.7333,184.084M 16.8533,201.152L 9.59868,194.007L 10.984,192.616L 12.2653,194.007C 11.8387,192.298 12.156,191.017 13.3333,190.059C 14.6093,188.673 16.104,188.777 17.812,190.485L 22.7187,195.496L 21.4373,196.777L 16.8533,192.188C 16.3173,191.657 15.7867,191.34 15.4627,191.34C 15.036,191.23 14.6093,191.444 14.1867,191.87C 13.5467,192.512 13.3333,193.684 13.5467,195.283L 18.2387,199.974M 4.58268,194.22L 5.43734,195.392C 4.36934,195.922 3.52001,196.46 2.77068,197.204C 1.48934,198.485 1.38534,199.87 2.77068,201.152L 3.94268,202.537C 3.52001,201.042 3.83868,199.761 4.79601,198.698C 5.65068,197.845 6.60934,197.521 7.78668,197.632C 8.95734,197.736 9.91601,198.376 10.984,199.444C 12.156,200.616 12.796,201.793 13.0107,203.069C 13.12,204.35 12.796,205.521 11.8387,206.376C 11.1973,207.126 10.1293,207.444 8.74401,207.553L 9.59868,208.298L 8.31734,209.578L 2.55734,203.818C 1.70268,202.75 1.06668,202.007 0.64001,201.469C 0.213343,200.829 0.10401,200.188 0.10401,199.444C 9.76523e-006,198.376 0.64001,197.308 1.81201,196.136C 2.55734,195.392 3.41068,194.75 4.58268,194.22 Z M 5.12001,203.496L 7.89068,206.272C 9.17201,206.376 10.0253,206.162 10.6667,205.521C 11.3067,204.886 11.4107,204.245 11.3067,203.392C 11.0933,202.641 10.5573,201.684 9.59868,200.829C 8.85334,200.188 8.21334,199.657 7.46268,199.553C 6.82268,199.444 6.18668,199.553 5.65068,200.084C 5.01068,200.829 4.69201,202.007 5.12001,203.496 Z "/>
	<path fill="#000000" fill-opacity="1" stroke-linejoin="round" d="M 127.572,80.9385L 123.52,4.88647L 122.453,4.99048L 126.4,80.9385M 126.291,5.94913L 122.667,-0.342865L 119.891,6.16248"/>
	<path fill="#000000" fill-opacity="1" stroke-linejoin="round" d="M 107.093,24.1878L 111.677,19.7091L 112.64,20.6731L 106.557,26.7505L 105.599,25.7932L 105.067,15.8705L 100.156,20.6731L 99.3067,19.7091L 105.599,13.3078L 106.557,14.3758"/>
	<path fill="#7E7E7E" fill-opacity="1" stroke-linejoin="round" d="M 240.677,85.0169L 232.278,81.8171C 231.419,81.4859 230.679,81.1437 230.059,80.7905C 229.438,80.4373 228.929,80.0513 228.531,79.6326C 228.133,79.2139 227.84,78.7546 227.653,78.2548C 227.465,77.7548 227.372,77.1955 227.372,76.5767C 227.372,76.4143 227.375,76.2675 227.381,76.1362C 227.387,76.0048 227.397,75.8611 227.41,75.7049L 228.889,75.7049C 228.87,75.8423 228.852,75.9923 228.836,76.1547C 228.82,76.3173 228.812,76.4892 228.812,76.6706C 228.812,76.9706 228.855,77.2502 228.943,77.5094C 229.03,77.7686 229.173,78.0138 229.37,78.2452C 229.567,78.4764 229.822,78.6984 230.134,78.9108C 230.447,79.1234 230.825,79.3296 231.269,79.5296L 240.677,75.7625L 240.677,77.6186L 234.446,80.0066L 232.993,80.4857L 234.493,81.0284L 240.677,83.2265L 240.677,85.0169 Z "/>
	<path fill="#A6A6A6" fill-opacity="1" stroke-linejoin="round" d="M 126.187,81.7932L 217.599,81.7932L 217.599,80.7251L 126.187,80.7251M 216.531,84.4598L 222.932,81.2558L 216.531,78.0585"/>
	<path fill="#A6A6A6" fill-opacity="1" stroke-linejoin="round" d="M 126.609,80.9385L 70.0773,29.9491L 69.4373,30.6985L 125.864,81.6838M 72.5307,28.6731L 65.7027,26.7505L 68.2653,33.3652"/>
	<path fill="#A6A6A6" fill-opacity="1" stroke-linejoin="round" d="M 126.719,81.2558L 126.719,172.673L 125.651,172.673L 125.651,81.2558M 129.385,171.709L 126.187,178.11L 122.984,171.709"/>
	<path fill="#7E7E7E" fill-opacity="1" stroke-linejoin="round" d="M 121.578,193.939L 121.578,191.773L 125.168,189.239L 121.578,186.717L 121.578,184.607L 126.305,188.255L 130.986,184.78L 130.986,186.871L 127.372,189.338L 130.986,191.77L 130.986,193.785L 126.275,190.246L 121.578,193.939 Z "/>
	<path fill="#7E7E7E" fill-opacity="1" stroke-linejoin="round" d="M 124.144,214.041C 123.812,214.041 123.515,213.985 123.252,213.872C 122.99,213.759 122.757,213.606 122.554,213.412C 122.351,213.218 122.177,212.992 122.033,212.736C 121.89,212.479 121.771,212.206 121.677,211.914C 121.583,211.623 121.514,211.324 121.471,211.018C 121.427,210.711 121.405,210.411 121.405,210.116C 121.405,209.478 121.434,208.891 121.491,208.356C 121.549,207.821 121.642,207.297 121.77,206.783L 123.267,206.783C 123.11,207.334 122.991,207.882 122.91,208.427C 122.828,208.971 122.787,209.513 122.787,210.051C 122.787,210.833 122.893,211.412 123.105,211.788C 123.317,212.164 123.619,212.351 124.012,212.351C 124.181,212.351 124.333,212.322 124.467,212.262C 124.602,212.202 124.73,212.094 124.852,211.938C 124.973,211.781 125.1,211.538 125.231,211.209C 125.363,210.88 125.513,210.43 125.682,209.86C 125.807,209.434 125.949,209.041 126.108,208.68C 126.268,208.32 126.457,208.008 126.676,207.745C 126.894,207.481 127.151,207.275 127.444,207.124C 127.738,206.974 128.085,206.899 128.485,206.899C 128.748,206.899 129.036,206.96 129.348,207.082C 129.661,207.204 129.952,207.413 130.22,207.708C 130.489,208.002 130.713,208.4 130.891,208.902C 131.069,209.404 131.158,210.031 131.158,210.783C 131.158,211.154 131.138,211.564 131.098,212.016C 131.058,212.467 130.988,212.938 130.89,213.427L 129.43,213.427C 129.555,212.912 129.647,212.424 129.706,211.963C 129.766,211.501 129.795,211.101 129.795,210.763C 129.795,210.355 129.764,210.011 129.702,209.732C 129.639,209.452 129.554,209.226 129.445,209.054C 129.336,208.881 129.208,208.757 129.061,208.682C 128.915,208.607 128.757,208.569 128.589,208.569C 128.42,208.569 128.267,208.602 128.129,208.668C 127.991,208.734 127.859,208.856 127.731,209.035C 127.602,209.213 127.474,209.462 127.346,209.782C 127.218,210.102 127.079,210.518 126.929,211.032C 126.766,211.59 126.596,212.06 126.418,212.443C 126.239,212.825 126.041,213.135 125.822,213.374C 125.604,213.612 125.357,213.783 125.082,213.886C 124.806,213.989 124.494,214.041 124.144,214.041 Z "/>
	<path fill="#7E7E7E" fill-opacity="1" stroke-linejoin="round" d="M 126.357,225.388C 125.625,225.388 124.955,225.285 124.345,225.079C 123.736,224.872 123.214,224.576 122.779,224.188C 122.345,223.801 122.007,223.329 121.766,222.772C 121.525,222.216 121.405,221.585 121.405,220.878C 121.405,220.203 121.51,219.599 121.719,219.064C 121.929,218.53 122.237,218.077 122.643,217.705C 123.049,217.333 123.553,217.048 124.153,216.852C 124.753,216.655 125.444,216.556 126.225,216.556C 126.957,216.556 127.624,216.659 128.228,216.866C 128.831,217.072 129.35,217.369 129.785,217.756C 130.219,218.144 130.557,218.616 130.797,219.172C 131.038,219.728 131.158,220.36 131.158,221.066C 131.158,221.741 131.054,222.346 130.844,222.88C 130.635,223.415 130.328,223.868 129.925,224.24C 129.522,224.612 129.02,224.896 128.42,225.093C 127.82,225.29 127.132,225.388 126.357,225.388 Z M 126.286,223.718C 126.868,223.718 127.376,223.654 127.811,223.526C 128.245,223.398 128.608,223.215 128.899,222.978C 129.19,222.74 129.409,222.451 129.556,222.111C 129.703,221.77 129.776,221.391 129.776,220.972C 129.776,220.485 129.681,220.068 129.49,219.721C 129.299,219.375 129.044,219.09 128.725,218.869C 128.406,218.647 128.036,218.484 127.614,218.381C 127.191,218.278 126.749,218.227 126.286,218.227C 125.705,218.227 125.195,218.291 124.757,218.419C 124.32,218.547 123.955,218.729 123.664,218.967C 123.374,219.204 123.155,219.492 123.008,219.829C 122.861,220.166 122.787,220.547 122.787,220.972C 122.787,221.459 122.883,221.876 123.073,222.223C 123.264,222.57 123.519,222.854 123.838,223.076C 124.157,223.298 124.527,223.46 124.95,223.563C 125.372,223.666 125.817,223.718 126.286,223.718 Z "/>
	<path fill="#7E7E7E" fill-opacity="1" stroke-linejoin="round" d="M 121.923,235.065C 121.76,234.64 121.64,234.204 121.561,233.757C 121.483,233.309 121.443,232.848 121.443,232.373C 121.443,230.885 121.846,229.739 122.653,228.936C 123.459,228.132 124.638,227.731 126.188,227.731C 126.932,227.731 127.607,227.846 128.213,228.078C 128.82,228.309 129.338,228.634 129.77,229.053C 130.201,229.472 130.534,229.972 130.768,230.554C 131.003,231.135 131.12,231.776 131.12,232.476C 131.12,232.964 131.086,233.421 131.017,233.846C 130.948,234.271 130.835,234.677 130.678,235.065L 129.123,235.065C 129.337,234.659 129.493,234.245 129.591,233.823C 129.689,233.401 129.738,232.965 129.738,232.515C 129.738,232.096 129.658,231.701 129.499,231.329C 129.339,230.957 129.109,230.63 128.809,230.349C 128.509,230.068 128.143,229.846 127.712,229.683C 127.28,229.521 126.793,229.439 126.249,229.439C 125.111,229.439 124.259,229.716 123.694,230.269C 123.128,230.822 122.845,231.59 122.845,232.571C 122.845,233.015 122.895,233.444 122.994,233.86C 123.093,234.276 123.242,234.678 123.44,235.065L 121.923,235.065 Z "/>
	<path fill="#7E7E7E" fill-opacity="1" stroke-linejoin="round" d="M 121.578,246.777L 121.578,244.531L 126.622,240.153L 121.578,240.153L 121.578,238.521L 134.826,238.521L 134.826,240.153L 126.688,240.153L 130.986,244.377L 130.986,246.527L 126.65,242.131L 121.578,246.777 Z "/>
	<path fill="#7E7E7E" fill-opacity="1" stroke-linejoin="round" d="M 126.784,256.876C 126.553,256.876 126.36,256.873 126.203,256.867C 126.047,256.861 125.901,256.851 125.763,256.839L 125.763,250.233C 124.799,250.233 124.059,250.502 123.543,251.04C 123.026,251.577 122.768,252.353 122.768,253.366C 122.768,253.641 122.779,253.916 122.801,254.191C 122.823,254.466 122.853,254.732 122.89,254.989C 122.928,255.245 122.97,255.49 123.017,255.725C 123.063,255.959 123.115,256.177 123.171,256.377L 121.827,256.377C 121.702,255.933 121.601,255.431 121.522,254.871C 121.444,254.311 121.405,253.731 121.405,253.131C 121.405,252.324 121.514,251.63 121.733,251.048C 121.952,250.466 122.269,249.989 122.685,249.617C 123.101,249.245 123.61,248.97 124.214,248.792C 124.817,248.613 125.5,248.524 126.263,248.524C 126.926,248.524 127.553,248.62 128.143,248.81C 128.734,249.001 129.253,249.279 129.7,249.645C 130.147,250.01 130.502,250.458 130.765,250.989C 131.027,251.521 131.158,252.124 131.158,252.799C 131.158,253.455 131.055,254.036 130.849,254.542C 130.643,255.048 130.351,255.475 129.973,255.822C 129.596,256.169 129.137,256.431 128.597,256.609C 128.057,256.787 127.452,256.876 126.784,256.876 Z M 127.011,255.187C 127.43,255.205 127.813,255.165 128.16,255.065C 128.507,254.965 128.806,254.81 129.056,254.6C 129.306,254.391 129.501,254.13 129.642,253.817C 129.783,253.504 129.853,253.141 129.853,252.728C 129.853,252.372 129.784,252.047 129.647,251.753C 129.509,251.459 129.315,251.206 129.065,250.993C 128.815,250.78 128.515,250.608 128.165,250.477C 127.815,250.346 127.43,250.264 127.011,250.233L 127.011,255.187 Z "/>
	<path fill="#7E7E7E" fill-opacity="1" stroke-linejoin="round" d="M 121.712,267.071C 121.616,266.703 121.547,266.322 121.506,265.929C 121.464,265.535 121.443,265.136 121.443,264.73C 121.443,263.55 121.711,262.669 122.245,262.088C 122.78,261.508 123.601,261.217 124.708,261.217L 129.622,261.217L 129.622,258.585L 130.986,258.585L 130.986,261.217L 133.578,261.217L 134,262.849L 130.986,262.849L 130.986,267.071L 129.622,267.071L 129.622,262.849L 124.841,262.849C 124.166,262.849 123.662,263.029 123.327,263.387C 122.993,263.746 122.826,264.275 122.826,264.974C 122.826,265.274 122.849,265.601 122.895,265.957C 122.942,266.313 123.015,266.685 123.114,267.071L 121.712,267.071 Z "/>
	<path fill="#7E7E7E" fill-opacity="1" stroke-linejoin="round" d="M 61.9298,56.8746L 61.9298,49.2906L 63.0962,49.2906L 69.9746,54.6081L 69.9746,49.425L 71.3378,49.425L 71.3378,56.5674L 70.0778,56.5674L 63.3122,51.3438L 63.3122,56.8746L 61.9298,56.8746 Z "/>
	<path fill="#000000" fill-opacity="1" stroke-linejoin="round" d="M 114.025,231.657L 108.796,230.912L 103.463,230.058L 98.2387,228.99L 93.0107,227.709L 87.8907,226.324L 82.7707,224.616L 77.6507,222.802L 72.64,220.886L 67.7333,218.75L 62.8227,216.402L 58.1293,213.949L 53.5467,211.282L 48.9573,208.512L 44.4787,205.417L 42.1293,203.922L 44.052,201.256L 46.1867,202.965L 50.5573,205.736L 55.036,208.512L 59.624,211.069L 64.2133,213.521L 68.9053,215.87L 73.812,218.006L 78.7187,219.922L 83.624,221.632L 88.64,223.34L 93.76,224.725L 104,227.069L 109.224,227.818L 114.557,228.564M 41.4893,207.34L 36.796,197.736L 47.2493,199.657"/>
	<path fill="#000000" fill-opacity="1" stroke-linejoin="round" d="M 69.9193,238.962C 69.3611,238.962 68.8736,238.884 68.4569,238.728C 68.0403,238.571 67.6944,238.356 67.4194,238.081C 67.1444,237.806 66.9382,237.481 66.8006,237.106C 66.6631,236.731 66.5943,236.324 66.5943,235.887C 66.5943,235.687 66.6047,235.488 66.6255,235.29C 66.6463,235.092 66.6818,234.891 66.7319,234.687L 64.1067,234.687L 64.1067,233.599L 72.9443,233.599L 72.9443,234.568L 71.8943,234.637C 72.3235,234.949 72.6246,235.283 72.7975,235.637C 72.9705,235.991 73.0569,236.374 73.0569,236.787C 73.0569,237.145 72.9819,237.46 72.8319,237.731C 72.6819,238.002 72.4705,238.229 72.1975,238.412C 71.9246,238.595 71.5954,238.733 71.21,238.824C 70.8246,238.916 70.3944,238.962 69.9193,238.962 Z M 69.8693,237.849C 70.1985,237.849 70.5006,237.825 70.7756,237.777C 71.0506,237.73 71.286,237.654 71.4818,237.549C 71.6776,237.445 71.8308,237.312 71.9412,237.149C 72.0517,236.987 72.1069,236.793 72.1069,236.568C 72.1069,236.431 72.085,236.291 72.0412,236.149C 71.9974,236.008 71.9245,235.861 71.8224,235.709C 71.7204,235.557 71.585,235.396 71.4162,235.227C 71.2475,235.059 71.0381,234.879 70.7881,234.687L 67.7443,234.687C 67.661,234.887 67.5954,235.097 67.5474,235.318C 67.4995,235.539 67.4755,235.756 67.4755,235.968C 67.4755,236.556 67.6745,237.016 68.0724,237.349C 68.4704,237.683 69.0693,237.849 69.8693,237.849 Z "/>
	<path fill="#000000" fill-opacity="1" stroke-linejoin="round" d="M 69.8569,246.102C 69.3693,246.102 68.9224,246.033 68.5162,245.896C 68.11,245.758 67.7621,245.56 67.4725,245.302C 67.1829,245.044 66.9579,244.729 66.7974,244.358C 66.637,243.987 66.5567,243.567 66.5567,243.096C 66.5567,242.646 66.6265,242.242 66.7661,241.886C 66.9057,241.53 67.111,241.228 67.3818,240.98C 67.6527,240.732 67.9881,240.543 68.3881,240.411C 68.7881,240.28 69.2485,240.214 69.7693,240.214C 70.2568,240.214 70.7016,240.283 71.1037,240.421C 71.5059,240.558 71.8517,240.756 72.1412,241.014C 72.4308,241.273 72.6558,241.587 72.8162,241.958C 72.9767,242.329 73.0569,242.75 73.0569,243.221C 73.0569,243.671 72.9871,244.074 72.8475,244.43C 72.7079,244.786 72.5038,245.088 72.235,245.336C 71.9663,245.584 71.6319,245.774 71.2319,245.905C 70.8319,246.036 70.3736,246.102 69.8569,246.102 Z M 69.8069,244.989C 70.1944,244.989 70.5329,244.947 70.8225,244.861C 71.1121,244.776 71.3538,244.654 71.5475,244.496C 71.7413,244.337 71.8871,244.145 71.985,243.918C 72.083,243.691 72.1319,243.437 72.1319,243.158C 72.1319,242.833 72.0684,242.555 71.9412,242.324C 71.8141,242.093 71.6443,241.903 71.4318,241.755C 71.2194,241.607 70.9725,241.499 70.6912,241.43C 70.41,241.361 70.1152,241.327 69.8069,241.327C 69.4193,241.327 69.0797,241.37 68.788,241.455C 68.4964,241.54 68.2537,241.662 68.0599,241.821C 67.8662,241.979 67.7204,242.171 67.6224,242.396C 67.5245,242.621 67.4755,242.875 67.4755,243.158C 67.4755,243.483 67.5391,243.761 67.6662,243.992C 67.7934,244.224 67.9632,244.413 68.1756,244.561C 68.3881,244.709 68.635,244.818 68.9162,244.886C 69.1975,244.955 69.4944,244.989 69.8069,244.989 Z "/>
	<path fill="#000000" fill-opacity="1" stroke-linejoin="round" d="M 68.3819,252.648C 68.161,252.648 67.963,252.611 67.788,252.536C 67.613,252.461 67.4578,252.359 67.3224,252.229C 67.187,252.1 67.0714,251.95 66.9756,251.779C 66.8798,251.609 66.8007,251.426 66.7381,251.233C 66.6756,251.039 66.6297,250.84 66.6005,250.636C 66.5713,250.431 66.5567,250.231 66.5567,250.036C 66.5567,249.611 66.5755,249.22 66.613,248.864C 66.6506,248.508 66.711,248.159 66.7943,247.817L 67.7943,247.817C 67.6902,248.184 67.611,248.548 67.5568,248.911C 67.5026,249.273 67.4755,249.634 67.4755,249.992C 67.4755,250.513 67.5464,250.898 67.688,251.148C 67.8297,251.398 68.0318,251.523 68.2943,251.523C 68.4069,251.523 68.5079,251.503 68.5975,251.464C 68.6871,251.424 68.7725,251.352 68.8537,251.248C 68.9349,251.144 69.0193,250.983 69.1068,250.764C 69.1944,250.545 69.2944,250.246 69.4069,249.867C 69.4903,249.584 69.585,249.322 69.6912,249.083C 69.7974,248.843 69.9235,248.636 70.0693,248.461C 70.2152,248.286 70.386,248.148 70.5818,248.048C 70.7776,247.948 71.0089,247.898 71.2755,247.898C 71.4506,247.898 71.6423,247.939 71.8506,248.02C 72.059,248.101 72.2527,248.24 72.4318,248.436C 72.611,248.632 72.7599,248.896 72.8787,249.229C 72.9975,249.563 73.0569,249.979 73.0569,250.479C 73.0569,250.725 73.0434,250.998 73.0162,251.298C 72.9891,251.598 72.9422,251.911 72.8755,252.236L 71.9069,252.236C 71.9903,251.894 72.0517,251.57 72.0912,251.264C 72.1308,250.958 72.1505,250.692 72.1505,250.467C 72.1505,250.196 72.1297,249.968 72.088,249.783C 72.0464,249.597 71.9891,249.447 71.9162,249.332C 71.8434,249.218 71.758,249.136 71.66,249.086C 71.5621,249.036 71.4569,249.011 71.3443,249.011C 71.2318,249.011 71.1297,249.033 71.038,249.076C 70.9464,249.12 70.8578,249.201 70.7724,249.32C 70.687,249.439 70.6016,249.604 70.5162,249.817C 70.4308,250.029 70.3381,250.306 70.2381,250.648C 70.1297,251.019 70.0162,251.331 69.8974,251.586C 69.7787,251.84 69.6464,252.046 69.5006,252.204C 69.3548,252.363 69.1903,252.476 69.0069,252.545C 68.8236,252.614 68.6153,252.648 68.3819,252.648 Z "/>
	<path fill="#000000" fill-opacity="1" stroke-linejoin="round" d="M 72.0443,256.895L 72.0443,255.039L 72.9443,255.039L 72.9443,257.995L 67.5755,257.995L 67.5755,259.864L 66.6693,259.864L 66.6693,254.833L 67.5755,254.833L 67.5755,256.895L 72.0443,256.895 Z M 75.5755,257.277C 75.5755,257.397 75.5537,257.51 75.5099,257.614C 75.4662,257.718 75.4048,257.809 75.3256,257.886C 75.2465,257.963 75.1559,258.023 75.0537,258.067C 74.9516,258.111 74.8401,258.133 74.7193,258.133C 74.6027,258.133 74.4923,258.111 74.3881,258.067C 74.284,258.023 74.1923,257.963 74.1131,257.886C 74.0339,257.809 73.9725,257.718 73.9287,257.614C 73.885,257.51 73.8631,257.397 73.8631,257.277C 73.8631,257.156 73.885,257.043 73.9287,256.939C 73.9725,256.835 74.0339,256.744 74.1131,256.667C 74.1923,256.59 74.284,256.53 74.3881,256.486C 74.4923,256.442 74.6027,256.42 74.7193,256.42C 74.8401,256.42 74.9516,256.442 75.0537,256.486C 75.1559,256.53 75.2465,256.59 75.3256,256.667C 75.4048,256.744 75.4662,256.835 75.5099,256.939C 75.5537,257.043 75.5755,257.156 75.5755,257.277 Z "/>
	<path fill="#000000" fill-opacity="1" stroke-linejoin="round" d="M 66.7569,266.854C 66.6944,266.608 66.6496,266.354 66.6224,266.092C 66.5953,265.829 66.5817,265.562 66.5817,265.292C 66.5817,264.504 66.7599,263.917 67.1161,263.529C 67.4724,263.142 68.0193,262.948 68.7569,262.948L 72.0319,262.948L 72.0319,261.192L 72.9443,261.192L 72.9443,262.948L 74.6693,262.948L 74.9505,264.035L 72.9443,264.035L 72.9443,266.854L 72.0319,266.854L 72.0319,264.035L 68.8443,264.035C 68.3943,264.035 68.0579,264.155 67.8349,264.395C 67.612,264.634 67.5005,264.987 67.5005,265.454C 67.5005,265.654 67.5162,265.873 67.5474,266.11C 67.5787,266.348 67.6277,266.596 67.6943,266.854L 66.7569,266.854 Z "/>
	<path fill="#000000" fill-opacity="1" stroke-linejoin="round" d="M 72.0443,270.975L 72.0443,269.119L 72.9443,269.119L 72.9443,272.075L 67.5755,272.075L 67.5755,273.944L 66.6693,273.944L 66.6693,268.913L 67.5755,268.913L 67.5755,270.975L 72.0443,270.975 Z M 75.5755,271.357C 75.5755,271.477 75.5537,271.59 75.5099,271.694C 75.4662,271.798 75.4048,271.889 75.3256,271.966C 75.2465,272.043 75.1559,272.103 75.0537,272.147C 74.9516,272.191 74.8401,272.213 74.7193,272.213C 74.6027,272.213 74.4923,272.191 74.3881,272.147C 74.284,272.103 74.1923,272.043 74.1131,271.966C 74.0339,271.889 73.9725,271.798 73.9287,271.694C 73.885,271.59 73.8631,271.477 73.8631,271.357C 73.8631,271.236 73.885,271.123 73.9287,271.019C 73.9725,270.915 74.0339,270.824 74.1131,270.747C 74.1923,270.67 74.284,270.61 74.3881,270.566C 74.4923,270.522 74.6027,270.5 74.7193,270.5C 74.8401,270.5 74.9516,270.522 75.0537,270.566C 75.1559,270.61 75.2465,270.67 75.3256,270.747C 75.4048,270.824 75.4662,270.915 75.5099,271.019C 75.5537,271.123 75.5755,271.236 75.5755,271.357 Z "/>
	<path fill="#000000" fill-opacity="1" stroke-linejoin="round" d="M 69.8569,281.379C 69.3693,281.379 68.9224,281.31 68.5162,281.172C 68.11,281.035 67.7621,280.837 67.4725,280.579C 67.1829,280.32 66.9579,280.006 66.7974,279.635C 66.637,279.264 66.5567,278.843 66.5567,278.372C 66.5567,277.922 66.6265,277.519 66.7661,277.163C 66.9057,276.807 67.111,276.505 67.3818,276.257C 67.6527,276.009 67.9881,275.819 68.3881,275.688C 68.7881,275.557 69.2485,275.491 69.7693,275.491C 70.2568,275.491 70.7016,275.56 71.1037,275.698C 71.5059,275.835 71.8517,276.033 72.1412,276.291C 72.4308,276.55 72.6558,276.864 72.8162,277.235C 72.9767,277.606 73.0569,278.027 73.0569,278.497C 73.0569,278.947 72.9871,279.351 72.8475,279.707C 72.7079,280.063 72.5038,280.365 72.235,280.613C 71.9663,280.861 71.6319,281.051 71.2319,281.182C 70.8319,281.313 70.3736,281.379 69.8569,281.379 Z M 69.8069,280.266C 70.1944,280.266 70.5329,280.224 70.8225,280.138C 71.1121,280.053 71.3538,279.931 71.5475,279.772C 71.7413,279.614 71.8871,279.421 71.985,279.194C 72.083,278.967 72.1319,278.714 72.1319,278.435C 72.1319,278.11 72.0684,277.832 71.9412,277.601C 71.8141,277.369 71.6443,277.18 71.4318,277.032C 71.2194,276.884 70.9725,276.776 70.6912,276.707C 70.41,276.638 70.1152,276.604 69.8069,276.604C 69.4193,276.604 69.0797,276.646 68.788,276.732C 68.4964,276.817 68.2537,276.939 68.0599,277.098C 67.8662,277.256 67.7204,277.448 67.6224,277.672C 67.5245,277.897 67.4755,278.152 67.4755,278.435C 67.4755,278.76 67.5391,279.038 67.6662,279.269C 67.7934,279.501 67.9632,279.69 68.1756,279.838C 68.3881,279.986 68.635,280.094 68.9162,280.163C 69.1975,280.232 69.4944,280.266 69.8069,280.266 Z "/>
	<path fill="#000000" fill-opacity="1" stroke-linejoin="round" d="M 72.9443,282.956L 72.9443,283.925L 71.9319,283.969C 72.1486,284.152 72.3288,284.329 72.4725,284.5C 72.6163,284.671 72.7319,284.839 72.8193,285.003C 72.9068,285.168 72.9683,285.335 73.0037,285.506C 73.0392,285.677 73.0569,285.854 73.0569,286.037C 73.0569,286.683 72.8663,287.172 72.485,287.503C 72.1038,287.834 71.5298,288 70.7631,288L 66.6693,288L 66.6693,286.912L 70.6755,286.912C 71.1673,286.912 71.5308,286.821 71.7662,286.637C 72.0016,286.454 72.1193,286.181 72.1193,285.819C 72.1193,285.685 72.0995,285.555 72.0599,285.428C 72.0203,285.301 71.9516,285.169 71.8537,285.031C 71.7559,284.894 71.6236,284.745 71.4569,284.584C 71.2903,284.424 71.0819,284.244 70.8319,284.044L 66.6693,284.044L 66.6693,282.956L 72.9443,282.956 Z "/>
</svg>
