<?xml version="1.0" encoding="UTF-8" standalone="no"?>
<!-- Generator: Adobe Illustrator 18.1.0, SVG Export Plug-In . SVG Version: 6.00 Build 0)  -->

<svg
   xmlns:dc="http://purl.org/dc/elements/1.1/"
   xmlns:cc="http://creativecommons.org/ns#"
   xmlns:rdf="http://www.w3.org/1999/02/22-rdf-syntax-ns#"
   xmlns:svg="http://www.w3.org/2000/svg"
   xmlns="http://www.w3.org/2000/svg"
   xmlns:sodipodi="http://sodipodi.sourceforge.net/DTD/sodipodi-0.dtd"
   xmlns:inkscape="http://www.inkscape.org/namespaces/inkscape"
   version="1.1"
   id="レイヤー_1"
   x="0px"
   y="0px"
   viewBox="0 0 612 792"
   enable-background="new 0 0 612 792"
   xml:space="preserve"
   inkscape:version="0.91 r13725"
   sodipodi:docname="phballjoint.svg"><metadata
     id="metadata47"><rdf:RDF><cc:Work
         rdf:about=""><dc:format>image/svg+xml</dc:format><dc:type
           rdf:resource="http://purl.org/dc/dcmitype/StillImage" /></cc:Work></rdf:RDF></metadata><defs
     id="defs45" /><sodipodi:namedview
     pagecolor="#ffffff"
     bordercolor="#666666"
     borderopacity="1"
     objecttolerance="10"
     gridtolerance="10"
     guidetolerance="10"
     inkscape:pageopacity="0"
     inkscape:pageshadow="2"
     inkscape:window-width="1920"
     inkscape:window-height="986"
     id="namedview43"
     showgrid="false"
     inkscape:zoom="1.1919192"
     inkscape:cx="385.75514"
     inkscape:cy="424.62451"
     inkscape:window-x="-11"
     inkscape:window-y="-11"
     inkscape:window-maximized="1"
     inkscape:current-layer="レイヤー_1" /><path
     inkscape:connector-curvature="0"
     id="path15"
     d="m 306.2,251.9 60.6,60.6 0.7,-0.7 -60.6,-60.6 -0.7,0.7 z m 58.1,61.7 6.4,2 -2,-6.4 -4.4,4.4 z" /><path
     inkscape:connector-curvature="0"
     id="path17"
     d="m 306.9,251.9 -60.6,60.6 -0.7,-0.7 60.6,-60.6 0.7,0.7 z m -58.2,61.7 -6.4,2 2.2,-6.4 4.2,4.4 z" /><path
     inkscape:connector-curvature="0"
     id="path19"
     d="m 378.3,315.4 1,1 -0.5,0.5 c -0.5,0.5 -0.7,0.8 -0.8,1.2 0,0.4 0.1,1 0.4,1.7 l 0.4,1 9.2,3.6 -1.2,1.2 -7.3,-2.8 2.9,7.2 -1.2,1.2 -4.2,-11 c -0.2,-0.8 -0.4,-1.6 -0.2,-2.2 0.1,-0.6 0.5,-1.3 1.2,-2 l 0.3,-0.6 z" /><path
     inkscape:connector-curvature="0"
     id="path21"
     d="m 233,320.3 1,5.9 5.8,0.8 -1.4,1.6 -4.4,-0.6 0.8,4.2 -1.2,1.2 -1.1,-5.6 -6,-0.8 1.6,-1.6 4.6,0.7 -0.7,-4.6 1,-1.2 z m -18.4,13.5 9.2,9.2 -1.2,1.2 -1.3,-1.3 c 0.4,1.6 0.1,2.8 -0.7,3.7 -0.8,0.7 -1.7,1 -2.8,0.8 -1.1,-0.1 -2,-0.7 -3.1,-1.7 -1.1,-1.2 -1.7,-2.3 -1.9,-3.6 -0.1,-1.2 0.2,-2.2 1.1,-3 0.7,-0.7 1.7,-1.1 2.8,-1 l -3.2,-3.2 1.1,-1.1 z m 3,5.4 c -1.2,-0.1 -2.2,0.1 -2.6,0.7 -0.6,0.5 -0.7,1.2 -0.6,1.9 0.2,0.8 0.7,1.7 1.6,2.5 1.7,1.6 2.9,1.9 3.8,1 0.7,-0.7 1,-1.8 0.6,-3.2 l -2.8,-2.9 z m -10.6,7.2 8.9,9 2.5,-2.6 1,1 -3.8,3.7 -9.8,-9.7 1.2,-1.4 z m -3.9,17.4 -6.8,-6.7 1.3,-1.3 1.2,1.3 c -0.4,-1.6 -0.1,-2.8 1,-3.7 1.2,-1.3 2.6,-1.2 4.2,0.4 l 4.6,4.7 -1.2,1.2 -4.3,-4.3 c -0.5,-0.5 -1,-0.8 -1.3,-0.8 -0.4,-0.1 -0.8,0.1 -1.2,0.5 -0.6,0.6 -0.8,1.7 -0.6,3.2 l 4.4,4.4 -1.3,1.1 z m -11.5,-6.5 0.8,1.1 c -1,0.5 -1.8,1 -2.5,1.7 -1.2,1.2 -1.3,2.5 0,3.7 l 1.1,1.3 c -0.4,-1.4 -0.1,-2.6 0.8,-3.6 0.8,-0.8 1.7,-1.1 2.8,-1 1.1,0.1 2,0.7 3,1.7 1.1,1.1 1.7,2.2 1.9,3.4 0.1,1.2 -0.2,2.3 -1.1,3.1 -0.6,0.7 -1.6,1 -2.9,1.1 l 0.8,0.7 -1.2,1.2 -5.4,-5.4 c -0.8,-1 -1.4,-1.7 -1.8,-2.2 -0.4,-0.6 -0.5,-1.2 -0.5,-1.9 -0.1,-1 0.5,-2 1.6,-3.1 0.7,-0.7 1.5,-1.3 2.6,-1.8 l 0,0 z m 0.5,8.7 2.6,2.6 c 1.2,0.1 2,-0.1 2.6,-0.7 0.6,-0.6 0.7,-1.2 0.6,-2 -0.2,-0.7 -0.7,-1.6 -1.6,-2.4 -0.7,-0.6 -1.3,-1.1 -2,-1.2 -0.6,-0.1 -1.2,0 -1.7,0.5 -0.6,0.7 -0.9,1.8 -0.5,3.2 l 0,0 z" /><path
     inkscape:connector-curvature="0"
     id="path23"
     d="m 306.9,251.1 -3.8,-71.3 -1,0.1 3.7,71.2 1.1,0 z m -1.2,-70.3 -3.4,-5.9 -2.6,6.1 6,-0.2 z" /><polygon
     id="polygon25"
     points="287.7,197.9 292,193.7 292.9,194.6 287.2,200.3 286.3,199.4 285.8,190.1 281.2,194.6 280.4,193.7 286.3,187.7 287.2,188.7 " /><text
     style="font-size:18px;font-family:Consolas;fill:#7e7e7e"
     id="text27"
     font-size="18"
     transform="matrix(0,1,-1,0,0,0)"
     x="245.6817"
     y="-404.1167">y</text>
<path
     style="fill:#a6a6a6"
     inkscape:connector-curvature="0"
     id="path29"
     d="m 305.6,251.9 85.7,0 0,-1 -85.7,0 0,1 z m 84.7,2.5 6,-3 -6,-3 0,6 z" /><path
     style="fill:#a6a6a6"
     inkscape:connector-curvature="0"
     id="path31"
     d="m 306,251.1 -53,-47.8 -0.6,0.7 52.9,47.8 0.7,-0.7 z m -50.7,-49 -6.4,-1.8 2.4,6.2 4,-4.4 z" /><path
     style="fill:#a6a6a6"
     inkscape:connector-curvature="0"
     id="path33"
     d="m 306.1,251.4 0,85.7 -1,0 0,-85.7 1,0 z m 2.5,84.8 -3,6 -3,-6 6,0 z" /><text
     style="font-size:18px;font-family:Consolas;fill:#7e7e7e"
     id="text35"
     font-size="18"
     transform="matrix(0,1,-1,0,0,0)"
     x="347.6788"
     y="-301.28079">x socket</text>
<text
     style="font-size:18px;font-family:Consolas;fill:#7e7e7e"
     id="text37"
     font-size="18"
     transform="matrix(0,1,-1,0,0,0)"
     x="219.9913"
     y="-245.3609">z</text>
<path
     inkscape:connector-curvature="0"
     id="path39"
     d="m 294.2,392.4 -4.9,-0.7 -5,-0.8 -4.9,-1 -4.9,-1.2 -4.8,-1.3 -4.8,-1.6 -4.8,-1.7 -4.7,-1.8 -4.6,-2 -4.6,-2.2 -4.4,-2.3 -4.3,-2.5 -4.3,-2.6 -4.2,-2.9 -2.2,-1.4 1.8,-2.5 2,1.6 4.1,2.6 4.2,2.6 4.3,2.4 4.3,2.3 4.4,2.2 4.6,2 4.6,1.8 4.6,1.6 4.7,1.6 4.8,1.3 4.8,1.1 4.8,1.1 4.9,0.7 5,0.7 -0.5,2.9 z m -68,-22.8 -4.4,-9 9.8,1.8 -5.4,7.2 z" /><text
     style="font-size:12px;font-family:Consolas"
     id="text41"
     font-size="12"
     transform="matrix(0,1,-1,0,0,0)"
     x="393.28329"
     y="-249.8042">position</text>
</svg>