<?xml version="1.0" encoding="utf-8"?>
<!DOCTYPE svg PUBLIC "-//W3C//DTD SVG 1.1//EN" "http://www.w3.org/Graphics/SVG/1.1/DTD/svg11.dtd">
<svg xmlns="http://www.w3.org/2000/svg" xmlns:xlink="http://www.w3.org/1999/xlink" version="1.1" baseProfile="full" width="276" height="161.333" viewBox="0 0 276.00 161.33" enable-background="new 0 0 276.00 161.33" xml:space="preserve">
	<line fill="none" stroke-width="1.06667" stroke-linejoin="round" stroke="#000000" stroke-opacity="1" x1="103.47" y1="99.4908" x2="184.825" y2="98.9228"/>
	<path fill="#000000" fill-opacity="1" fill-rule="evenodd" stroke-width="1.06667" stroke-linejoin="round" d="M 189.746,98.8867L 182.397,103.204L 182.334,94.6733"/>
	<path fill="none" fill-rule="evenodd" stroke-width="1.06667" stroke-linejoin="round" stroke="#000000" stroke-opacity="1" d="M 189.746,98.8872L 182.397,103.204L 182.335,94.6736"/>
	<line fill="none" stroke-width="1.06667" stroke-linejoin="round" stroke="#000000" stroke-opacity="1" x1="103.293" y1="99.7415" x2="67.8824" y2="143.589"/>
	<path fill="#000000" fill-opacity="1" fill-rule="evenodd" stroke-width="1.06667" stroke-linejoin="round" d="M 64.7877,147.419L 66.105,138.996L 72.7464,144.356"/>
	<path fill="none" fill-rule="evenodd" stroke-width="1.06667" stroke-linejoin="round" stroke="#000000" stroke-opacity="1" d="M 64.7873,147.418L 66.1053,138.997L 72.7461,144.355"/>
	<line fill="none" stroke-width="1.06667" stroke-linejoin="round" stroke="#000000" stroke-opacity="1" x1="103.777" y1="99.1788" x2="103.434" y2="22.5068"/>
	<path fill="#000000" fill-opacity="1" fill-rule="evenodd" stroke-width="1.06667" stroke-linejoin="round" d="M 103.408,17.5853L 107.71,24.944L 99.1784,24.9853"/>
	<path fill="none" fill-rule="evenodd" stroke-width="1.06667" stroke-linejoin="round" stroke="#000000" stroke-opacity="1" d="M 103.407,17.5851L 107.71,24.9445L 99.1791,24.9857"/>
	<path fill="#000000" fill-opacity="1" stroke-width="1.06667" stroke-linejoin="round" d="M 205.648,104.193L 203.724,104.193L 201.471,101.002L 199.229,104.193L 197.354,104.193L 200.596,99.991L 197.508,95.8305L 199.366,95.8305L 201.559,99.0427L 203.72,95.8305L 205.512,95.8305L 202.366,100.018L 205.648,104.193 Z "/>
	<path fill="#000000" fill-opacity="1" stroke-width="1.06667" stroke-linejoin="round" d="M 107.893,-0.442505L 105.049,7.0239C 104.754,7.78726 104.45,8.44473 104.136,8.99629C 103.822,9.54785 103.479,10.0005 103.107,10.3543C 102.735,10.7081 102.327,10.9682 101.882,11.1348C 101.438,11.3014 100.941,11.3847 100.391,11.3847C 100.246,11.3847 100.116,11.3819 99.999,11.3763C 99.8823,11.3707 99.7545,11.3621 99.6157,11.3506L 99.6157,10.0364C 99.7378,10.0533 99.8711,10.0689 100.016,10.0832C 100.16,10.0975 100.313,10.1047 100.474,10.1047C 100.741,10.1047 100.989,10.0658 101.22,9.98804C 101.45,9.91025 101.668,9.78381 101.874,9.6087C 102.079,9.43358 102.277,9.20705 102.465,8.92909C 102.654,8.65114 102.838,8.31482 103.015,7.92017L 99.6669,-0.442505L 101.317,-0.442505L 103.439,5.09669L 103.865,6.38763L 104.348,5.05482L 106.302,-0.442505L 107.893,-0.442505 Z "/>
	<path fill="#000000" fill-opacity="1" stroke-width="1.06667" stroke-linejoin="round" d="M 57.8356,161.333L 51.0942,161.333L 51.0942,160.297L 55.8209,154.182L 51.2137,154.182L 51.2137,152.971L 57.5625,152.971L 57.5625,154.091L 52.9193,160.105L 57.8356,160.105L 57.8356,161.333 Z "/>
	<path fill="#000000" fill-opacity="1" stroke-width="1.06667" stroke-linejoin="round" d="M 228.284,100.41C 228.284,100.705 228.233,100.969 228.133,101.203C 228.033,101.436 227.897,101.643 227.724,101.824C 227.552,102.004 227.351,102.158 227.123,102.286C 226.895,102.414 226.652,102.52 226.393,102.603C 226.135,102.686 225.869,102.747 225.596,102.786C 225.324,102.825 225.057,102.845 224.795,102.845C 224.228,102.845 223.706,102.819 223.23,102.768C 222.755,102.717 222.289,102.634 221.832,102.521L 221.832,101.189C 222.322,101.329 222.809,101.435 223.293,101.507C 223.777,101.58 224.258,101.616 224.737,101.616C 225.432,101.616 225.947,101.522 226.281,101.334C 226.615,101.145 226.782,100.876 226.782,100.527C 226.782,100.377 226.755,100.242 226.702,100.123C 226.649,100.003 226.553,99.8894 226.414,99.7811C 226.275,99.6728 226.059,99.5603 225.766,99.4435C 225.474,99.3267 225.074,99.1933 224.567,99.0432C 224.188,98.9321 223.839,98.8057 223.518,98.664C 223.198,98.5224 222.921,98.3543 222.687,98.1598C 222.453,97.9653 222.269,97.7375 222.135,97.4763C 222.002,97.2151 221.935,96.9067 221.935,96.551C 221.935,96.3176 221.989,96.0619 222.098,95.784C 222.207,95.5062 222.392,95.2478 222.654,95.0088C 222.916,94.7699 223.27,94.5712 223.716,94.4127C 224.162,94.2542 224.719,94.175 225.388,94.175C 225.717,94.175 226.082,94.1928 226.483,94.2286C 226.885,94.2643 227.303,94.3261 227.737,94.4139L 227.737,95.711C 227.28,95.6 226.846,95.5183 226.436,95.4656C 226.026,95.413 225.671,95.3867 225.369,95.3867C 225.007,95.3867 224.701,95.4144 224.453,95.4699C 224.205,95.5254 224.004,95.6015 223.851,95.6984C 223.697,95.7953 223.587,95.9089 223.52,96.0392C 223.453,96.1695 223.42,96.3095 223.42,96.4592C 223.42,96.6093 223.449,96.7455 223.507,96.8678C 223.566,96.9901 223.675,97.1082 223.833,97.222C 223.992,97.3359 224.214,97.4498 224.498,97.5638C 224.782,97.6777 225.152,97.8014 225.609,97.9347C 226.105,98.0792 226.523,98.2307 226.863,98.3891C 227.203,98.5475 227.479,98.7239 227.69,98.9183C 227.902,99.1127 228.054,99.3322 228.146,99.5767C 228.238,99.8212 228.284,100.099 228.284,100.41 Z "/>
	<path fill="#000000" fill-opacity="1" stroke-width="1.06667" stroke-linejoin="round" d="M 238.319,98.443C 238.319,99.0935 238.227,99.6896 238.044,100.231C 237.86,100.773 237.596,101.237 237.252,101.623C 236.908,102.01 236.488,102.31 235.994,102.524C 235.499,102.738 234.938,102.845 234.31,102.845C 233.71,102.845 233.172,102.752 232.697,102.566C 232.222,102.379 231.82,102.106 231.489,101.744C 231.158,101.383 230.906,100.936 230.731,100.402C 230.556,99.8687 230.468,99.2546 230.468,98.56C 230.468,97.9097 230.56,97.3164 230.743,96.78C 230.927,96.2437 231.19,95.7824 231.535,95.3963C 231.879,95.0102 232.299,94.7101 232.793,94.496C 233.288,94.282 233.849,94.175 234.477,94.175C 235.077,94.175 235.614,94.2681 236.089,94.4543C 236.564,94.6405 236.967,94.9128 237.298,95.2712C 237.628,95.6296 237.881,96.0756 238.056,96.6091C 238.231,97.1426 238.319,97.7539 238.319,98.443 Z M 236.834,98.5056C 236.834,97.9887 236.777,97.537 236.663,97.1507C 236.55,96.7644 236.387,96.442 236.176,96.1835C 235.965,95.925 235.708,95.7304 235.406,95.5998C 235.103,95.4691 234.766,95.4038 234.393,95.4038C 233.96,95.4038 233.59,95.4886 233.281,95.6582C 232.973,95.8278 232.721,96.0543 232.524,96.3378C 232.326,96.6212 232.182,96.9506 232.09,97.3259C 231.999,97.7012 231.953,98.0944 231.953,98.5056C 231.953,99.0228 232.01,99.4759 232.124,99.865C 232.237,100.254 232.4,100.578 232.611,100.836C 232.822,101.095 233.077,101.289 233.377,101.42C 233.677,101.551 234.016,101.616 234.393,101.616C 234.826,101.616 235.197,101.531 235.505,101.362C 235.813,101.192 236.066,100.965 236.263,100.682C 236.46,100.399 236.605,100.069 236.696,99.6939C 236.788,99.3186 236.834,98.9225 236.834,98.5056 Z "/>
	<path fill="#000000" fill-opacity="1" stroke-width="1.06667" stroke-linejoin="round" d="M 246.92,102.384C 246.542,102.529 246.155,102.636 245.757,102.706C 245.36,102.776 244.95,102.811 244.528,102.811C 243.205,102.811 242.186,102.452 241.472,101.736C 240.758,101.019 240.401,99.9713 240.401,98.5934C 240.401,97.932 240.504,97.3319 240.709,96.793C 240.915,96.254 241.204,95.7928 241.576,95.4094C 241.949,95.0259 242.393,94.73 242.91,94.5216C 243.427,94.3133 243.997,94.2091 244.619,94.2091C 245.053,94.2091 245.459,94.2397 245.837,94.301C 246.215,94.3622 246.576,94.4624 246.92,94.6016L 246.92,95.984C 246.559,95.7936 246.191,95.655 245.816,95.5682C 245.441,95.4813 245.053,95.4379 244.653,95.4379C 244.281,95.4379 243.93,95.5088 243.599,95.6504C 243.269,95.7921 242.978,95.9963 242.728,96.2631C 242.478,96.5299 242.281,96.855 242.136,97.2386C 241.992,97.6221 241.92,98.0556 241.92,98.539C 241.92,99.5504 242.166,100.308 242.657,100.81C 243.149,101.313 243.831,101.565 244.704,101.565C 245.098,101.565 245.48,101.521 245.849,101.433C 246.219,101.344 246.576,101.212 246.92,101.036L 246.92,102.384 Z "/>
	<path fill="#000000" fill-opacity="1" stroke-width="1.06667" stroke-linejoin="round" d="M 257.382,102.691L 255.385,102.691L 251.494,98.2072L 251.494,102.691L 250.044,102.691L 250.044,90.9152L 251.494,90.9152L 251.494,98.1491L 255.249,94.3286L 257.16,94.3286L 253.252,98.1824L 257.382,102.691 Z "/>
	<path fill="#000000" fill-opacity="1" stroke-width="1.06667" stroke-linejoin="round" d="M 266.308,98.0632C 266.308,98.2686 266.305,98.4407 266.3,98.5795C 266.294,98.7184 266.286,98.8488 266.275,98.9707L 260.403,98.9707C 260.403,99.8276 260.642,100.486 261.12,100.945C 261.598,101.404 262.287,101.633 263.188,101.633C 263.432,101.633 263.677,101.623 263.921,101.604C 264.166,101.584 264.402,101.558 264.63,101.525C 264.858,101.491 265.076,101.454 265.285,101.412C 265.493,101.371 265.686,101.325 265.864,101.275L 265.864,102.469C 265.47,102.58 265.023,102.671 264.526,102.74C 264.028,102.81 263.512,102.845 262.979,102.845C 262.262,102.845 261.644,102.748 261.127,102.553C 260.61,102.358 260.186,102.076 259.856,101.707C 259.525,101.337 259.28,100.884 259.122,100.348C 258.963,99.8117 258.884,99.2046 258.884,98.5267C 258.884,97.9374 258.969,97.3801 259.138,96.855C 259.308,96.3298 259.555,95.8686 259.88,95.4712C 260.205,95.0739 260.603,94.7585 261.075,94.5251C 261.548,94.2917 262.084,94.175 262.684,94.175C 263.267,94.175 263.783,94.2666 264.233,94.4498C 264.683,94.633 265.062,94.8925 265.371,95.2283C 265.679,95.5641 265.912,95.9721 266.071,96.4522C 266.229,96.9323 266.308,97.4693 266.308,98.0632 Z M 264.806,97.8614C 264.823,97.4889 264.787,97.1485 264.698,96.84C 264.609,96.5316 264.471,96.2662 264.285,96.0439C 264.099,95.8216 263.867,95.6479 263.589,95.523C 263.311,95.398 262.988,95.3355 262.621,95.3355C 262.304,95.3355 262.015,95.3966 261.754,95.5188C 261.493,95.6411 261.268,95.8133 261.079,96.0356C 260.89,96.2579 260.737,96.5247 260.62,96.8359C 260.503,97.1471 260.431,97.4889 260.403,97.8614L 264.806,97.8614 Z "/>
	<path fill="#000000" fill-opacity="1" stroke-width="1.06667" stroke-linejoin="round" d="M 275.37,102.572C 275.043,102.657 274.705,102.718 274.355,102.755C 274.005,102.792 273.65,102.811 273.289,102.811C 272.24,102.811 271.457,102.573 270.941,102.098C 270.425,101.622 270.167,100.893 270.167,99.9091L 270.167,95.5403L 267.827,95.5403L 267.827,94.3286L 270.167,94.3286L 270.167,92.0246L 271.617,91.6491L 271.617,94.3286L 275.37,94.3286L 275.37,95.5403L 271.617,95.5403L 271.617,99.7902C 271.617,100.39 271.777,100.839 272.096,101.136C 272.415,101.433 272.885,101.582 273.506,101.582C 273.772,101.582 274.064,101.561 274.38,101.52C 274.697,101.479 275.027,101.414 275.37,101.326L 275.37,102.572 Z "/>
	<path fill="#000000" fill-opacity="1" stroke-width="1.06667" stroke-linejoin="round" d="M 206.288,29.9934C 206.696,30.6157 206.965,31.2162 207.096,31.795C 207.227,32.3738 207.239,32.9171 207.134,33.4248C 207.029,33.9325 206.817,34.4002 206.5,34.8279C 206.183,35.2555 205.78,35.6294 205.292,35.9494C 205.069,36.0957 204.84,36.2297 204.604,36.3513C 204.368,36.473 204.118,36.5805 203.854,36.674L 205.775,39.6003L 204.562,40.396L 198.097,30.5447L 199.177,29.8359L 200.022,30.956C 200.056,30.2491 200.207,29.6696 200.475,29.2177C 200.744,28.7658 201.108,28.389 201.568,28.0872C 201.967,27.8251 202.372,27.6785 202.784,27.6476C 203.196,27.6166 203.604,27.6862 204.008,27.8563C 204.412,28.0264 204.806,28.2927 205.19,28.6553C 205.574,29.0178 205.94,29.4639 206.288,29.9934 Z M 205.084,30.8631C 204.843,30.4962 204.595,30.1769 204.341,29.9055C 204.086,29.634 203.829,29.4272 203.57,29.2852C 203.31,29.1431 203.05,29.0699 202.788,29.0657C 202.526,29.0615 202.269,29.1416 202.019,29.3062C 201.865,29.4068 201.726,29.5333 201.6,29.6858C 201.474,29.8382 201.364,30.027 201.269,30.2521C 201.174,30.4771 201.094,30.7454 201.03,31.057C 200.965,31.3685 200.917,31.7337 200.887,32.1525L 203.113,35.5454C 203.397,35.492 203.68,35.4112 203.961,35.3031C 204.242,35.195 204.501,35.0632 204.738,34.9078C 205.393,34.478 205.761,33.9194 205.841,33.2319C 205.922,32.5445 205.669,31.7549 205.084,30.8631 Z "/>
	<path fill="#000000" fill-opacity="1" stroke-width="1.06667" stroke-linejoin="round" d="M 207.111,21.9771L 205.041,23.3353L 204.388,22.3392L 207.683,20.1763L 213.481,29.0103L 215.564,27.6432L 216.227,28.6533L 210.619,32.3341L 209.956,31.324L 212.255,29.815L 207.111,21.9771 Z "/>
	<path fill="#000000" fill-opacity="1" stroke-width="1.06667" stroke-linejoin="round" d="M 224.005,23.5486L 222.918,24.2619L 222.135,23.1606C 222.085,23.5393 222.018,23.8705 221.935,24.1543C 221.852,24.438 221.75,24.6896 221.628,24.909C 221.506,25.1284 221.364,25.3196 221.202,25.4826C 221.04,25.6456 220.854,25.7957 220.645,25.933C 219.926,26.4054 219.243,26.5507 218.599,26.3688C 217.955,26.187 217.352,25.6687 216.791,24.8141L 213.792,20.2439L 215.004,19.4482L 217.939,23.9208C 218.644,24.9937 219.4,25.265 220.208,24.7346C 220.357,24.6371 220.487,24.5198 220.6,24.3827C 220.712,24.2456 220.811,24.0714 220.895,23.8602C 220.979,23.649 221.049,23.3918 221.106,23.0887C 221.163,22.7855 221.21,22.4191 221.247,21.9893L 218.202,17.3495L 219.414,16.5538L 224.005,23.5486 Z "/>
	<path fill="#000000" fill-opacity="1" stroke-width="1.06667" stroke-linejoin="round" d="M 227.368,12.7486C 227.605,12.8258 227.83,12.9488 228.044,13.1175C 228.258,13.2862 228.447,13.496 228.612,13.7469C 228.849,14.1091 229,14.4834 229.065,14.87C 229.129,15.2565 229.11,15.6359 229.009,16.008C 228.908,16.3802 228.727,16.736 228.468,17.0753C 228.209,17.4147 227.878,17.717 227.474,17.9822C 227.181,18.1742 226.887,18.3227 226.59,18.4277C 226.294,18.5328 226.04,18.5876 225.831,18.5923C 225.828,18.7803 225.834,18.9521 225.85,19.1078C 225.866,19.2635 225.921,19.4133 226.016,19.5573C 226.132,19.7338 226.312,19.8244 226.558,19.8293C 226.804,19.8342 227.069,19.7498 227.354,19.5761L 229.239,18.4388C 229.593,18.2194 229.944,18.0524 230.291,17.9378C 230.637,17.8232 230.965,17.7709 231.274,17.7808C 231.583,17.7908 231.868,17.8661 232.13,18.0067C 232.392,18.1472 232.617,18.3615 232.806,18.6494C 233.01,18.9606 233.136,19.2997 233.185,19.6668C 233.233,20.0338 233.186,20.4153 233.044,20.8111C 232.901,21.2069 232.655,21.6092 232.306,22.018C 231.956,22.4269 231.484,22.8264 230.889,23.2166C 230.323,23.5885 229.811,23.8595 229.355,24.0295C 228.898,24.1995 228.489,24.2882 228.129,24.2957C 227.768,24.3032 227.457,24.2346 227.197,24.0902C 226.936,23.9458 226.718,23.7412 226.545,23.4765C 226.322,23.1375 226.206,22.7884 226.196,22.4293C 226.186,22.0701 226.269,21.6639 226.443,21.2107C 226.286,21.2341 226.135,21.233 225.992,21.2074C 225.849,21.1817 225.717,21.1373 225.596,21.0741C 225.474,21.0108 225.363,20.9326 225.262,20.8394C 225.161,20.7463 225.076,20.6462 225.005,20.5394C 224.807,20.2375 224.697,19.9147 224.674,19.5709C 224.651,19.2271 224.664,18.8797 224.713,18.5288C 224.554,18.4798 224.408,18.4264 224.273,18.3684C 224.139,18.3104 224.009,18.2382 223.882,18.1517C 223.756,18.0653 223.635,17.9619 223.519,17.8416C 223.404,17.7214 223.288,17.5731 223.172,17.3966C 222.934,17.0343 222.783,16.6599 222.719,16.2735C 222.655,15.8871 222.672,15.5085 222.771,15.1379C 222.87,14.7672 223.049,14.4122 223.308,14.0727C 223.567,13.7333 223.901,13.4294 224.31,13.1612C 224.482,13.0483 224.654,12.9517 224.827,12.8713C 225.001,12.7909 225.16,12.7297 225.305,12.6877L 227.841,11.0233L 228.49,12.0125L 227.368,12.7486 Z M 227.765,22.526C 227.981,22.8559 228.311,22.9834 228.754,22.9088C 229.196,22.8341 229.724,22.5956 230.337,22.1932C 230.723,21.9402 231.024,21.6928 231.241,21.4509C 231.457,21.2091 231.609,20.9787 231.694,20.7598C 231.78,20.5408 231.809,20.3353 231.783,20.1432C 231.757,19.9512 231.693,19.7785 231.593,19.6253C 231.407,19.3419 231.153,19.209 230.833,19.2268C 230.512,19.2446 230.105,19.3988 229.611,19.6894L 227.745,20.8248C 227.658,21.0277 227.597,21.2106 227.562,21.3737C 227.526,21.5367 227.513,21.6865 227.522,21.8229C 227.532,21.9594 227.558,22.0851 227.601,22.2002C 227.643,22.3153 227.698,22.4239 227.765,22.526 Z M 224.38,16.564C 224.526,16.787 224.698,16.9669 224.894,17.1039C 225.09,17.2409 225.298,17.3303 225.518,17.3719C 225.738,17.4135 225.964,17.4101 226.194,17.3618C 226.425,17.3134 226.652,17.2161 226.875,17.0697C 227.116,16.9112 227.305,16.7296 227.439,16.5248C 227.574,16.32 227.66,16.106 227.696,15.8829C 227.732,15.6598 227.724,15.4355 227.673,15.2101C 227.621,14.9847 227.532,14.7745 227.404,14.5795C 227.257,14.3566 227.086,14.1766 226.89,14.0396C 226.694,13.9026 226.485,13.8132 226.265,13.7716C 226.045,13.73 225.82,13.7334 225.589,13.7818C 225.358,13.8302 225.132,13.9276 224.909,14.0739C 224.667,14.2324 224.48,14.4152 224.347,14.6222C 224.213,14.8293 224.128,15.0432 224.09,15.2641C 224.052,15.485 224.059,15.7081 224.111,15.9333C 224.162,16.1586 224.252,16.3689 224.38,16.564 Z "/>
	<line fill="none" stroke-width="1.06667" stroke-linejoin="round" stroke="#000000" stroke-opacity="1" x1="103.142" y1="99.4548" x2="170.158" y2="53.3295"/>
	<path fill="#000000" fill-opacity="1" fill-rule="evenodd" stroke-width="1.06667" stroke-linejoin="round" d="M 174.216,50.5373L 170.553,58.2413L 165.716,51.2093"/>
	<path fill="none" fill-rule="evenodd" stroke-width="1.06667" stroke-linejoin="round" stroke="#000000" stroke-opacity="1" d="M 174.216,50.5382L 170.554,58.2417L 165.714,51.2097"/>
	<line fill="none" stroke-width="1.06667" stroke-linejoin="round" stroke="#000000" stroke-opacity="1" x1="103.22" y1="99.0228" x2="59.913" y2="35.7508"/>
	<path fill="#000000" fill-opacity="1" fill-rule="evenodd" stroke-width="1.06667" stroke-linejoin="round" d="M 57.1317,31.6893L 64.8197,35.3707L 57.7771,40.1893"/>
	<path fill="none" fill-rule="evenodd" stroke-width="1.06667" stroke-linejoin="round" stroke="#000000" stroke-opacity="1" d="M 57.1315,31.689L 64.8195,35.371L 57.7772,40.1897"/>
	<path fill="#000000" fill-opacity="1" stroke-width="1.06667" stroke-linejoin="round" d="M 190.355,46.0075L 188.762,47.0876L 185.102,45.713L 185.044,49.6081L 183.492,50.6602L 183.819,45.3647L 178.922,43.6508L 180.46,42.608L 184.086,44.0359L 184.067,40.1623L 185.55,39.1571L 185.307,44.3964L 190.355,46.0075 Z "/>
	<path fill="#000000" fill-opacity="1" stroke-width="1.06667" stroke-linejoin="round" d="M 50.733,14.2427L 52.5731,22.0359C 52.7566,22.8312 52.8727,23.5445 52.9215,24.1759C 52.9702,24.8073 52.9395,25.3734 52.8294,25.8743C 52.7193,26.3751 52.5271,26.8192 52.2527,27.2066C 51.9784,27.5939 51.6136,27.9419 51.1583,28.2506C 51.0388,28.3316 50.9292,28.4025 50.8295,28.4635C 50.7298,28.5244 50.6194,28.5892 50.4981,28.6578L 49.7594,27.5681C 49.8698,27.5132 49.9886,27.4511 50.116,27.3816C 50.2434,27.3121 50.3739,27.2321 50.5073,27.1416C 50.728,26.992 50.912,26.8203 51.0591,26.6266C 51.2063,26.4329 51.3158,26.2059 51.3878,25.9456C 51.4597,25.6854 51.496,25.3873 51.4964,25.0514C 51.4969,24.7155 51.4601,24.3344 51.3858,23.9081L 43.9251,18.8579L 45.2907,17.9321L 50.1478,21.3244L 51.2289,22.162L 50.8809,20.7871L 49.4157,15.1357L 50.733,14.2427 Z "/>
	<path fill="none" stroke-width="0.533334" stroke-linejoin="round" stroke="#000000" stroke-opacity="1" d="M 43.2824,71.5175C 54.1424,47.7255 78.0744,32.6415 104.216,33.1162C 130.361,33.5842 153.73,49.5175 163.725,73.6842"/>
	<line fill="none" stroke-width="0.533334" stroke-linejoin="round" stroke="#000000" stroke-opacity="1" x1="103.954" y1="99.7415" x2="34.8144" y2="68.1162"/>
	<line fill="none" stroke-width="0.533334" stroke-linejoin="round" stroke="#000000" stroke-opacity="1" x1="103.752" y1="99.3708" x2="170.194" y2="71.3242"/>
	<line fill="none" stroke-width="1.06667" stroke-linejoin="round" stroke="#000000" stroke-opacity="1" x1="65.9024" y1="44.5948" x2="69.6264" y2="39.2308"/>
	<line fill="none" stroke-width="1.06667" stroke-linejoin="round" stroke="#000000" stroke-opacity="1" x1="66.0904" y1="44.5322" x2="72.4704" y2="43.5228"/>
	<path fill="#000000" fill-opacity="1" stroke-width="1.06667" stroke-linejoin="round" d="M 4.12087,56.7756L 3.22969,56.3801L 3.60608,55.4393C 3.34684,55.5613 3.11094,55.6538 2.89838,55.7168C 2.68582,55.7798 2.48563,55.8175 2.29781,55.8298C 2.10999,55.8421 1.93178,55.8303 1.76316,55.7943C 1.59455,55.7582 1.42451,55.7022 1.25303,55.6261C 0.662813,55.3642 0.294164,54.9931 0.147086,54.513C 7.15256e-006,54.0328 0.0819651,53.4424 0.392959,52.7416L 2.0561,48.9941L 3.0502,49.4353L 1.42259,53.1027C 1.03215,53.9825 1.16823,54.5695 1.83084,54.8635C 1.95271,54.9176 2.07975,54.9523 2.21196,54.9677C 2.34416,54.983 2.49391,54.9743 2.66121,54.9415C 2.82851,54.9086 3.01927,54.8486 3.23349,54.7613C 3.4477,54.674 3.69779,54.5548 3.98374,54.4035L 5.67219,50.5989L 6.66629,51.0401L 4.12087,56.7756 Z "/>
	<path fill="#000000" fill-opacity="1" stroke-width="1.06667" stroke-linejoin="round" d="M 12.1654,56.7901C 11.9389,57.3004 11.6698,57.7142 11.3579,58.0317C 11.0461,58.3492 10.7087,58.5778 10.3458,58.7176C 9.98287,58.8574 9.60214,58.9141 9.20359,58.8877C 8.80503,58.8613 8.40583,58.7594 8.00597,58.5819C 7.82317,58.5008 7.64552,58.4105 7.47304,58.3112C 7.30056,58.2119 7.1312,58.098 6.96495,57.9693L 5.90005,60.3689L 4.90595,59.9277L 8.49088,51.8498L 9.37639,52.2428L 9.01335,53.2305C 9.473,52.9649 9.89977,52.8249 10.2937,52.8105C 10.6876,52.7961 11.0731,52.8726 11.4501,53.04C 11.7776,53.1853 12.0347,53.3814 12.2214,53.6284C 12.4082,53.8754 12.53,54.1608 12.5868,54.4846C 12.6437,54.8085 12.6358,55.1651 12.5633,55.5546C 12.4907,55.944 12.3581,56.3559 12.1654,56.7901 Z M 11.1282,56.3845C 11.2617,56.0836 11.3623,55.7977 11.4301,55.5269C 11.4978,55.2561 11.5238,55.0101 11.508,54.7889C 11.4923,54.5677 11.4325,54.3736 11.3288,54.2067C 11.225,54.0398 11.0704,53.9108 10.8648,53.8195C 10.7391,53.7638 10.6027,53.7272 10.4554,53.7097C 10.3082,53.6923 10.1443,53.6994 9.96384,53.731C 9.78339,53.7626 9.58182,53.8212 9.35915,53.907C 9.13647,53.9928 8.88687,54.1111 8.61033,54.2619L 7.37563,57.044C 7.52463,57.2013 7.69032,57.3466 7.87269,57.48C 8.05507,57.6134 8.24338,57.7232 8.43765,57.8094C 8.97461,58.0477 9.47614,58.0526 9.94223,57.8241C 10.4083,57.5956 10.8036,57.1157 11.1282,56.3845 Z "/>
	<path fill="#000000" fill-opacity="1" stroke-width="1.06667" stroke-linejoin="round" d="M 18.6002,59.6458C 18.3737,60.1561 18.1045,60.57 17.7927,60.8874C 17.4808,61.2049 17.1435,61.4335 16.7806,61.5733C 16.4176,61.7131 16.0369,61.7698 15.6384,61.7434C 15.2398,61.717 14.8406,61.6151 14.4407,61.4376C 14.2579,61.3565 14.0803,61.2663 13.9078,61.167C 13.7353,61.0677 13.566,60.9537 13.3997,60.8251L 12.3348,63.2246L 11.3407,62.7834L 14.9257,54.7056L 15.8112,55.0986L 15.4481,56.0862C 15.9078,55.8206 16.3345,55.6807 16.7284,55.6663C 17.1223,55.6519 17.5078,55.7284 17.8849,55.8957C 18.2124,56.041 18.4695,56.2372 18.6562,56.4842C 18.8429,56.7311 18.9647,57.0166 19.0216,57.3404C 19.0784,57.6642 19.0706,58.0209 18.998,58.4103C 18.9255,58.7998 18.7929,59.2116 18.6002,59.6458 Z M 17.5629,59.2402C 17.6965,58.9393 17.7971,58.6535 17.8648,58.3827C 17.9326,58.1119 17.9586,57.8659 17.9428,57.6447C 17.9271,57.4234 17.8673,57.2294 17.7636,57.0625C 17.6598,56.8956 17.5051,56.7665 17.2995,56.6753C 17.1739,56.6195 17.0374,56.5829 16.8902,56.5655C 16.7429,56.548 16.5791,56.5551 16.3986,56.5867C 16.2182,56.6183 16.0166,56.677 15.7939,56.7627C 15.5713,56.8485 15.3216,56.9668 15.0451,57.1176L 13.8104,59.8997C 13.9594,60.057 14.1251,60.2024 14.3075,60.3357C 14.4898,60.4691 14.6782,60.5789 14.8724,60.6651C 15.4094,60.9034 15.9109,60.9083 16.377,60.6798C 16.8431,60.4513 17.2384,59.9715 17.5629,59.2402 Z "/>
	<path fill="#000000" fill-opacity="1" stroke-width="1.06667" stroke-linejoin="round" d="M 25.1016,62.2918C 25.039,62.4327 24.9848,62.5499 24.9387,62.6434C 24.8927,62.737 24.8472,62.824 24.8024,62.9043L 20.775,61.1169C 20.5147,61.7035 20.4786,62.2265 20.6667,62.6861C 20.8548,63.1456 21.2573,63.5123 21.8742,63.7861C 22.0417,63.8604 22.2123,63.9281 22.3858,63.9892C 22.5593,64.0502 22.7292,64.1039 22.8955,64.1504C 23.0618,64.1968 23.2227,64.2375 23.3782,64.2724C 23.5337,64.3072 23.68,64.3345 23.8171,64.3543L 23.4546,65.1712C 23.1503,65.1274 22.8172,65.0536 22.4552,64.95C 22.0931,64.8464 21.7293,64.7134 21.3637,64.5512C 20.8725,64.3332 20.4793,64.0789 20.1843,63.7884C 19.8892,63.4978 19.6846,63.1757 19.5704,62.8219C 19.4563,62.4681 19.4265,62.0833 19.481,61.6676C 19.5355,61.2518 19.6659,60.8116 19.8721,60.3471C 20.0512,59.9433 20.2788,59.5873 20.5547,59.279C 20.8306,58.9706 21.1404,58.7298 21.484,58.5563C 21.8277,58.3829 22.1968,58.288 22.5915,58.2717C 22.9862,58.2554 23.3892,58.3385 23.8005,58.521C 24.2005,58.6985 24.5268,58.9186 24.7795,59.1812C 25.0321,59.4438 25.213,59.7372 25.3222,60.0614C 25.4313,60.3856 25.467,60.7365 25.4294,61.1141C 25.3917,61.4917 25.2824,61.8842 25.1016,62.2918 Z M 24.131,61.6901C 24.2557,61.44 24.3345,61.1958 24.3674,60.9573C 24.4002,60.7189 24.3867,60.4952 24.3267,60.2862C 24.2667,60.0773 24.1605,59.8877 24.0081,59.7175C 23.8557,59.5473 23.6538,59.4064 23.4024,59.2949C 23.1853,59.1985 22.9687,59.1525 22.7526,59.1569C 22.5364,59.1613 22.3298,59.2109 22.1327,59.3058C 21.9356,59.4006 21.7497,59.5369 21.5751,59.7147C 21.4004,59.8925 21.247,60.1048 21.1147,60.3515L 24.131,61.6901 Z "/>
	<path fill="#000000" fill-opacity="1" stroke-width="1.06667" stroke-linejoin="round" d="M 28.0645,60.5366L 28.9728,60.9397L 28.5324,62.0092C 29.0523,61.7521 29.5175,61.6052 29.928,61.5686C 30.3386,61.532 30.7114,61.5881 31.0466,61.7368C 31.6407,62.0005 32.0057,62.3927 32.1415,62.9134C 32.2774,63.4342 32.1657,64.0684 31.8066,64.8162L 30.8011,64.37C 31.0356,63.8724 31.1241,63.4751 31.0666,63.1784C 31.0092,62.8817 30.8281,62.6657 30.5235,62.5305C 30.3901,62.4713 30.2453,62.4355 30.089,62.4231C 29.9326,62.4107 29.7598,62.4251 29.5705,62.4665C 29.3812,62.5079 29.1702,62.5749 28.9376,62.6676C 28.705,62.7604 28.4457,62.8824 28.1597,63.0337L 26.5245,66.7183L 25.5191,66.2721L 28.0645,60.5366 Z "/>
	<path fill="#000000" fill-opacity="1" stroke-width="1.06667" stroke-linejoin="round" d="M 173.034,66.0736L 171.329,66.8078L 170.975,65.9871L 173.691,64.8179L 176.825,72.0968L 178.541,71.3578L 178.9,72.1901L 174.279,74.1798L 173.92,73.3475L 175.815,72.5318L 173.034,66.0736 Z "/>
	<path fill="#000000" fill-opacity="1" stroke-width="1.06667" stroke-linejoin="round" d="M 184.432,66.3372C 184.625,66.7851 184.739,67.2227 184.773,67.6502C 184.808,68.0777 184.763,68.4755 184.641,68.8437C 184.518,69.2118 184.318,69.5429 184.041,69.8369C 183.764,70.131 183.409,70.3711 182.976,70.5574C 182.563,70.7353 182.165,70.8306 181.783,70.8433C 181.4,70.8559 181.042,70.7869 180.707,70.6362C 180.372,70.4854 180.065,70.2523 179.787,69.9368C 179.508,69.6214 179.265,69.2244 179.059,68.7461C 178.867,68.2984 178.754,67.8627 178.721,67.4389C 178.689,67.0152 178.734,66.6193 178.856,66.2512C 178.979,65.8831 179.179,65.552 179.456,65.258C 179.733,64.9639 180.088,64.7238 180.52,64.5376C 180.934,64.3597 181.332,64.2644 181.714,64.2517C 182.096,64.239 182.455,64.307 182.789,64.4558C 183.123,64.6046 183.429,64.8367 183.708,65.1522C 183.987,65.4677 184.228,65.8627 184.432,66.3372 Z M 183.43,66.8232C 183.277,66.4673 183.104,66.1732 182.911,65.941C 182.718,65.7088 182.511,65.535 182.289,65.4197C 182.066,65.3044 181.832,65.2467 181.585,65.2465C 181.337,65.2464 181.085,65.3015 180.829,65.4119C 180.53,65.5405 180.3,65.7088 180.138,65.917C 179.976,66.1253 179.869,66.3562 179.817,66.6098C 179.765,66.8635 179.763,67.1331 179.811,67.4186C 179.86,67.7041 179.945,67.9884 180.067,68.2716C 180.22,68.6276 180.393,68.9226 180.587,69.1567C 180.781,69.3909 180.989,69.5656 181.211,69.6809C 181.433,69.7962 181.667,69.8544 181.912,69.8553C 182.157,69.8563 182.41,69.8007 182.67,69.6887C 182.969,69.5602 183.199,69.3918 183.361,69.1836C 183.523,68.9754 183.63,68.7444 183.682,68.4908C 183.734,68.2371 183.736,67.9675 183.688,67.682C 183.64,67.3965 183.554,67.1102 183.43,66.8232 Z "/>
	<path fill="#000000" fill-opacity="1" stroke-width="1.06667" stroke-linejoin="round" d="M 189.999,60.5789L 191.642,66.7033L 190.431,67.2248L 188.561,65.1722L 188.142,64.6582L 188.22,65.3598L 188.445,68.08L 187.268,68.5867L 183.954,63.1817L 184.93,62.7615L 187.098,66.4688L 187.577,67.2969L 187.495,66.4271L 187.219,63.4772L 187.936,63.1683L 189.937,65.3349L 190.524,65.9871L 190.262,65.1406L 189.012,61.0041L 189.999,60.5789 Z "/>
	<path fill="#000000" fill-opacity="1" stroke-width="1.06667" stroke-linejoin="round" d="M 197.139,60.5597C 197.2,60.7012 197.249,60.8207 197.287,60.918C 197.324,61.0154 197.357,61.1078 197.386,61.1952L 193.339,62.9378C 193.593,63.5272 193.952,63.9089 194.417,64.0829C 194.882,64.2569 195.425,64.2105 196.045,63.9435C 196.213,63.871 196.378,63.7918 196.541,63.7059C 196.704,63.62 196.858,63.5318 197.005,63.4412C 197.153,63.3507 197.292,63.2602 197.423,63.1697C 197.554,63.0793 197.673,62.9904 197.781,62.9032L 198.135,63.7241C 197.896,63.9176 197.615,64.1121 197.293,64.3075C 196.972,64.5028 196.627,64.6796 196.26,64.8378C 195.766,65.0504 195.312,65.1663 194.899,65.1856C 194.485,65.2049 194.11,65.1363 193.772,64.9798C 193.435,64.8234 193.132,64.584 192.864,64.2616C 192.596,63.9392 192.361,63.5446 192.16,63.0778C 191.986,62.6721 191.879,62.2633 191.84,61.8514C 191.801,61.4394 191.835,61.0485 191.941,60.6784C 192.047,60.3084 192.228,59.973 192.484,59.6722C 192.74,59.3714 193.075,59.132 193.488,58.9541C 193.89,58.781 194.273,58.6909 194.637,58.6838C 195.002,58.6766 195.34,58.7431 195.652,58.8831C 195.964,59.0232 196.246,59.2353 196.497,59.5193C 196.749,59.8034 196.963,60.1502 197.139,60.5597 Z M 196.039,60.8636C 195.94,60.6022 195.814,60.3785 195.661,60.1924C 195.508,60.0064 195.335,59.8644 195.141,59.7665C 194.947,59.6687 194.736,59.6179 194.507,59.6142C 194.279,59.6105 194.038,59.663 193.786,59.7718C 193.567,59.8657 193.387,59.9935 193.243,60.1551C 193.099,60.3168 192.995,60.5021 192.931,60.7112C 192.867,60.9203 192.841,61.1494 192.853,61.3983C 192.865,61.6472 192.916,61.904 193.008,62.1687L 196.039,60.8636 Z "/>
	<path fill="#000000" fill-opacity="1" stroke-width="1.06667" stroke-linejoin="round" d="M 197.863,57.1928L 198.776,56.7998L 199.262,57.8494C 199.426,57.2932 199.634,56.8519 199.886,56.5257C 200.138,56.1995 200.432,55.9639 200.769,55.8189C 201.366,55.5618 201.902,55.5602 202.376,55.8141C 202.851,56.068 203.241,56.5807 203.546,57.3522L 202.535,57.7872C 202.329,57.2771 202.098,56.9424 201.841,56.7831C 201.584,56.6237 201.303,56.61 200.996,56.7418C 200.863,56.7995 200.738,56.8815 200.623,56.9878C 200.507,57.0941 200.401,57.2308 200.302,57.3979C 200.204,57.5649 200.11,57.7653 200.02,57.9991C 199.93,58.2328 199.844,58.506 199.761,58.8186L 201.355,62.5212L 200.345,62.9562L 197.863,57.1928 Z "/>
</svg>
