<?xml version="1.0" encoding="utf-8"?>
<!DOCTYPE svg PUBLIC "-//W3C//DTD SVG 1.1//EN" "http://www.w3.org/Graphics/SVG/1.1/DTD/svg11.dtd">
<svg xmlns="http://www.w3.org/2000/svg" xmlns:xlink="http://www.w3.org/1999/xlink" version="1.1" baseProfile="full" width="272" height="222.667" viewBox="0 0 272.00 222.67" enable-background="new 0 0 272.00 222.67" xml:space="preserve">
	<line fill="none" stroke-width="1.06667" stroke-linejoin="round" stroke="#000000" stroke-opacity="1" x1="121.163" y1="77.5969" x2="180.288" y2="77.0236"/>
	<path fill="#000000" fill-opacity="1" fill-rule="evenodd" stroke-width="1.06667" stroke-linejoin="round" d="M 185.209,76.9772L 177.871,81.3159L 177.788,72.7799"/>
	<path fill="none" fill-rule="evenodd" stroke-width="1.06667" stroke-linejoin="round" stroke="#000000" stroke-opacity="1" d="M 185.21,76.9766L 177.872,81.3158L 177.788,72.7798"/>
	<line fill="none" stroke-width="1.06667" stroke-linejoin="round" stroke="#000000" stroke-opacity="1" x1="121.553" y1="77.4622" x2="93.6573" y2="110.072"/>
	<path fill="#000000" fill-opacity="1" fill-rule="evenodd" stroke-width="1.06667" stroke-linejoin="round" d="M 90.4547,113.811L 92.012,105.431L 98.496,110.977"/>
	<path fill="none" fill-rule="evenodd" stroke-width="1.06667" stroke-linejoin="round" stroke="#000000" stroke-opacity="1" d="M 90.4547,113.811L 92.0112,105.43L 98.4952,110.977"/>
	<line fill="none" stroke-width="1.06667" stroke-linejoin="round" stroke="#000000" stroke-opacity="1" x1="121.471" y1="77.2795" x2="121.127" y2="23.8476"/>
	<path fill="#000000" fill-opacity="1" fill-rule="evenodd" stroke-width="1.06667" stroke-linejoin="round" d="M 121.091,18.9252L 125.408,26.2799L 116.871,26.3319"/>
	<path fill="none" fill-rule="evenodd" stroke-width="1.06667" stroke-linejoin="round" stroke="#000000" stroke-opacity="1" d="M 121.09,18.9252L 125.407,26.2789L 116.871,26.3315"/>
	<path fill="#000000" fill-opacity="1" stroke-width="1.06667" stroke-linejoin="round" d="M 203.133,80.7791L 201.208,80.7791L 198.956,77.5876L 196.714,80.7791L 194.839,80.7791L 198.081,76.577L 194.992,72.4164L 196.851,72.4164L 199.044,75.6287L 201.205,72.4164L 202.997,72.4164L 199.851,76.6039L 203.133,80.7791 Z "/>
	<path fill="#000000" fill-opacity="1" stroke-width="1.06667" stroke-linejoin="round" d="M 126.091,-0.617798L 123.246,6.84862C 122.952,7.61198 122.648,8.26945 122.334,8.82101C 122.02,9.37256 121.677,9.82524 121.305,10.179C 120.932,10.5328 120.524,10.793 120.08,10.9595C 119.635,11.1261 119.138,11.2094 118.588,11.2094C 118.444,11.2094 118.313,11.2066 118.197,11.201C 118.08,11.1954 117.952,11.1868 117.813,11.1753L 117.813,9.86115C 117.935,9.87804 118.069,9.89365 118.213,9.90794C 118.358,9.92224 118.51,9.92941 118.672,9.92941C 118.938,9.92941 119.187,9.89053 119.417,9.81274C 119.648,9.73497 119.866,9.60852 120.071,9.43341C 120.277,9.2583 120.474,9.03177 120.663,8.75381C 120.852,8.47586 121.035,8.13956 121.213,7.74487L 117.865,-0.617798L 119.514,-0.617798L 121.637,4.92142L 122.063,6.21234L 122.545,4.87955L 124.499,-0.617798L 126.091,-0.617798 Z "/>
	<path fill="#000000" fill-opacity="1" stroke-width="1.06667" stroke-linejoin="round" d="M 111.397,114.175L 104.655,114.175L 104.655,113.139L 109.382,107.024L 104.775,107.024L 104.775,105.813L 111.123,105.813L 111.123,106.933L 106.48,112.947L 111.397,112.947L 111.397,114.175 Z "/>
	<path fill="#000000" fill-opacity="1" stroke-width="1.06667" stroke-linejoin="round" d="M 225.267,78.522C 225.267,78.8167 225.217,79.0808 225.117,79.3141C 225.017,79.5474 224.88,79.7544 224.708,79.935C 224.535,80.1157 224.335,80.2699 224.107,80.3977C 223.879,80.5255 223.636,80.6311 223.377,80.7145C 223.118,80.7979 222.852,80.859 222.58,80.898C 222.307,80.9369 222.04,80.9564 221.779,80.9564C 221.211,80.9564 220.689,80.9308 220.214,80.8796C 219.738,80.8284 219.272,80.7459 218.816,80.6321L 218.816,79.3009C 219.305,79.4403 219.792,79.5462 220.276,79.6188C 220.76,79.6913 221.242,79.7276 221.72,79.7276C 222.416,79.7276 222.931,79.6334 223.264,79.445C 223.598,79.2567 223.765,78.9879 223.765,78.6388C 223.765,78.4887 223.739,78.3539 223.686,78.2344C 223.633,78.1148 223.537,78.0009 223.397,77.8926C 223.258,77.7844 223.042,77.6718 222.75,77.555C 222.457,77.4382 222.058,77.3048 221.551,77.1548C 221.172,77.0437 220.822,76.9173 220.502,76.7756C 220.182,76.6339 219.904,76.4658 219.67,76.2713C 219.436,76.0768 219.252,75.849 219.119,75.5878C 218.985,75.3267 218.918,75.0182 218.918,74.6625C 218.918,74.4291 218.973,74.1734 219.081,73.8956C 219.19,73.6177 219.375,73.3593 219.637,73.1204C 219.899,72.8814 220.253,72.6827 220.699,72.5242C 221.145,72.3658 221.703,72.2865 222.371,72.2865C 222.7,72.2865 223.066,72.3044 223.467,72.3401C 223.868,72.3758 224.286,72.4376 224.721,72.5254L 224.721,73.8225C 224.263,73.7116 223.83,73.6298 223.42,73.5772C 223.01,73.5246 222.654,73.4982 222.353,73.4982C 221.99,73.4982 221.685,73.526 221.437,73.5814C 221.188,73.6369 220.987,73.7131 220.834,73.81C 220.681,73.9069 220.57,74.0205 220.503,74.1508C 220.437,74.2811 220.403,74.4211 220.403,74.5708C 220.403,74.7208 220.432,74.857 220.491,74.9793C 220.549,75.1016 220.658,75.2197 220.817,75.3336C 220.976,75.4474 221.197,75.5613 221.481,75.6753C 221.765,75.7893 222.136,75.9129 222.593,76.0462C 223.088,76.1908 223.506,76.3422 223.846,76.5006C 224.186,76.659 224.462,76.8354 224.674,77.0298C 224.885,77.2242 225.037,77.4437 225.129,77.6882C 225.221,77.9328 225.267,78.2107 225.267,78.522 Z "/>
	<path fill="#000000" fill-opacity="1" stroke-width="1.06667" stroke-linejoin="round" d="M 235.302,76.5545C 235.302,77.205 235.211,77.8011 235.027,78.3429C 234.844,78.8847 234.58,79.3487 234.235,79.7349C 233.891,80.1211 233.472,80.4213 232.977,80.6353C 232.483,80.8493 231.921,80.9564 231.293,80.9564C 230.693,80.9564 230.156,80.8633 229.681,80.677C 229.206,80.4908 228.803,80.2171 228.473,79.8558C 228.142,79.4946 227.889,79.0472 227.714,78.5137C 227.539,77.9802 227.452,77.3661 227.452,76.6716C 227.452,76.0213 227.543,75.4279 227.727,74.8916C 227.91,74.3552 228.174,73.894 228.518,73.5078C 228.863,73.1217 229.282,72.8216 229.777,72.6076C 230.271,72.3935 230.832,72.2865 231.46,72.2865C 232.06,72.2865 232.598,72.3796 233.073,72.5658C 233.548,72.7521 233.951,73.0244 234.281,73.3828C 234.612,73.7412 234.865,74.1871 235.04,74.7206C 235.215,75.2542 235.302,75.8654 235.302,76.5545 Z M 233.817,76.6172C 233.817,76.1002 233.761,75.6485 233.647,75.2622C 233.533,74.8759 233.371,74.5535 233.16,74.295C 232.949,74.0365 232.692,73.842 232.389,73.7113C 232.086,73.5806 231.749,73.5153 231.377,73.5153C 230.944,73.5153 230.573,73.6001 230.265,73.7697C 229.957,73.9393 229.704,74.1658 229.507,74.4493C 229.31,74.7328 229.165,75.0621 229.074,75.4374C 228.982,75.8127 228.936,76.206 228.936,76.6172C 228.936,77.1343 228.993,77.5874 229.107,77.9765C 229.221,78.3656 229.383,78.6893 229.594,78.9478C 229.805,79.2063 230.061,79.4009 230.361,79.5316C 230.661,79.6622 230.999,79.7276 231.377,79.7276C 231.81,79.7276 232.181,79.6428 232.489,79.4732C 232.797,79.3036 233.05,79.077 233.247,78.7936C 233.444,78.5101 233.588,78.1807 233.68,77.8054C 233.772,77.4301 233.817,77.0341 233.817,76.6172 Z "/>
	<path fill="#000000" fill-opacity="1" stroke-width="1.06667" stroke-linejoin="round" d="M 243.904,80.4956C 243.526,80.6405 243.138,80.7478 242.741,80.8176C 242.343,80.8873 241.933,80.9222 241.511,80.9222C 240.188,80.9222 239.17,80.5638 238.456,79.847C 237.741,79.1302 237.384,78.0829 237.384,76.7049C 237.384,76.0436 237.487,75.4434 237.693,74.9045C 237.898,74.3656 238.187,73.9044 238.56,73.5209C 238.932,73.1374 239.377,72.8415 239.894,72.6332C 240.411,72.4248 240.98,72.3206 241.603,72.3206C 242.036,72.3206 242.442,72.3513 242.82,72.4125C 243.198,72.4738 243.559,72.574 243.904,72.7132L 243.904,74.0956C 243.543,73.9052 243.175,73.7665 242.8,73.6797C 242.424,73.5929 242.037,73.5494 241.637,73.5494C 241.265,73.5494 240.913,73.6203 240.583,73.762C 240.252,73.9037 239.962,74.1079 239.712,74.3746C 239.462,74.6414 239.264,74.9666 239.12,75.3501C 238.976,75.7337 238.903,76.1671 238.903,76.6505C 238.903,77.6619 239.149,78.419 239.641,78.922C 240.133,79.4249 240.815,79.6764 241.687,79.6764C 242.081,79.6764 242.463,79.6323 242.833,79.5441C 243.202,79.4559 243.559,79.3237 243.904,79.1473L 243.904,80.4956 Z "/>
	<path fill="#000000" fill-opacity="1" stroke-width="1.06667" stroke-linejoin="round" d="M 254.366,80.8028L 252.369,80.8028L 248.478,76.3188L 248.478,80.8028L 247.027,80.8028L 247.027,69.0268L 248.478,69.0268L 248.478,76.2606L 252.232,72.4401L 254.144,72.4401L 250.236,76.294L 254.366,80.8028 Z "/>
	<path fill="#000000" fill-opacity="1" stroke-width="1.06667" stroke-linejoin="round" d="M 263.292,76.1748C 263.292,76.3801 263.289,76.5522 263.283,76.691C 263.278,76.8299 263.269,76.9603 263.258,77.0822L 257.387,77.0822C 257.387,77.9391 257.626,78.5971 258.104,79.0561C 258.582,79.5151 259.271,79.7446 260.171,79.7446C 260.416,79.7446 260.66,79.7349 260.905,79.7154C 261.15,79.696 261.386,79.6696 261.614,79.6362C 261.842,79.6029 262.06,79.5654 262.268,79.5238C 262.477,79.4822 262.67,79.4364 262.848,79.3862L 262.848,80.5809C 262.453,80.692 262.007,80.7824 261.509,80.852C 261.012,80.9216 260.496,80.9564 259.962,80.9564C 259.245,80.9564 258.628,80.8591 258.111,80.6645C 257.594,80.4699 257.17,80.1879 256.839,79.8184C 256.508,79.4489 256.264,78.9959 256.105,78.4596C 255.947,77.9232 255.868,77.3161 255.868,76.6382C 255.868,76.0489 255.952,75.4917 256.122,74.9665C 256.291,74.4413 256.539,73.9801 256.863,73.5828C 257.188,73.1854 257.587,72.8701 258.059,72.6366C 258.531,72.4032 259.067,72.2865 259.667,72.2865C 260.25,72.2865 260.767,72.3781 261.217,72.5613C 261.667,72.7445 262.046,73.004 262.354,73.3398C 262.663,73.6757 262.896,74.0836 263.054,74.5637C 263.212,75.0438 263.292,75.5808 263.292,76.1748 Z M 261.79,75.9729C 261.806,75.6005 261.77,75.26 261.681,74.9516C 261.592,74.6431 261.455,74.3777 261.268,74.1554C 261.082,73.9331 260.85,73.7595 260.572,73.6345C 260.294,73.5095 259.972,73.447 259.605,73.447C 259.288,73.447 258.999,73.5081 258.738,73.6304C 258.476,73.7526 258.251,73.9249 258.062,74.1472C 257.873,74.3695 257.72,74.6362 257.603,74.9474C 257.486,75.2586 257.414,75.6005 257.387,75.9729L 261.79,75.9729 Z "/>
	<path fill="#000000" fill-opacity="1" stroke-width="1.06667" stroke-linejoin="round" d="M 272.354,80.6833C 272.027,80.7686 271.688,80.8298 271.338,80.8668C 270.989,80.9037 270.633,80.9222 270.273,80.9222C 269.224,80.9222 268.441,80.6846 267.925,80.2093C 267.408,79.734 267.15,79.0045 267.15,78.0206L 267.15,73.6518L 264.81,73.6518L 264.81,72.4401L 267.15,72.4401L 267.15,70.1361L 268.601,69.7606L 268.601,72.4401L 272.354,72.4401L 272.354,73.6518L 268.601,73.6518L 268.601,77.9017C 268.601,78.5017 268.76,78.9503 269.079,79.2476C 269.398,79.5448 269.868,79.6934 270.49,79.6934C 270.756,79.6934 271.047,79.6728 271.364,79.6314C 271.68,79.5901 272.01,79.5254 272.354,79.4374L 272.354,80.6833 Z "/>
	<line fill="none" stroke-width="1.06667" stroke-linejoin="round" stroke="#000000" stroke-opacity="1" x1="57.46" y1="151.629" x2="59.8707" y2="145.561"/>
	<line fill="none" stroke-width="1.06667" stroke-linejoin="round" stroke="#000000" stroke-opacity="1" x1="57.632" y1="151.524" x2="63.616" y2="149.097"/>
	<line fill="none" stroke-width="1.06667" stroke-linejoin="round" stroke="#000000" stroke-opacity="1" x1="56.0533" y1="152.258" x2="115.179" y2="151.685"/>
	<path fill="#000000" fill-opacity="1" fill-rule="evenodd" stroke-width="1.06667" stroke-linejoin="round" d="M 120.1,151.639L 112.761,155.977L 112.679,147.447"/>
	<path fill="none" fill-rule="evenodd" stroke-width="1.06667" stroke-linejoin="round" stroke="#000000" stroke-opacity="1" d="M 120.1,151.639L 112.762,155.977L 112.679,147.446"/>
	<line fill="none" stroke-width="1.06667" stroke-linejoin="round" stroke="#000000" stroke-opacity="1" x1="56.512" y1="152.441" x2="28.548" y2="184.733"/>
	<path fill="#000000" fill-opacity="1" fill-rule="evenodd" stroke-width="1.06667" stroke-linejoin="round" d="M 25.324,188.456L 26.9333,180.081L 33.3813,185.669"/>
	<path fill="none" fill-rule="evenodd" stroke-width="1.06667" stroke-linejoin="round" stroke="#000000" stroke-opacity="1" d="M 25.3246,188.457L 26.933,180.081L 33.3814,185.669"/>
	<line fill="none" stroke-width="1.06667" stroke-linejoin="round" stroke="#000000" stroke-opacity="1" x1="56.3613" y1="151.946" x2="56.0173" y2="98.5142"/>
	<path fill="#000000" fill-opacity="1" fill-rule="evenodd" stroke-width="1.06667" stroke-linejoin="round" d="M 55.9853,93.5866L 60.2987,100.941L 51.7667,100.999"/>
	<path fill="none" fill-rule="evenodd" stroke-width="1.06667" stroke-linejoin="round" stroke="#000000" stroke-opacity="1" d="M 55.9853,93.587L 60.2984,100.941L 51.7677,100.999"/>
	<line fill="none" stroke-width="0.533334" stroke-linejoin="round" stroke="#000000" stroke-opacity="1" x1="0.266672" y1="217.826" x2="169.507" y2="22.8262"/>
	<path fill="#000000" fill-opacity="1" stroke-width="0.533334" stroke-linejoin="round" d="M 137.126,154.97L 135.201,154.97L 132.948,151.779L 130.706,154.97L 128.831,154.97L 132.073,150.768L 128.985,146.608L 130.843,146.608L 133.036,149.82L 135.198,146.608L 136.989,146.608L 133.843,150.795L 137.126,154.97 Z "/>
	<path fill="#000000" fill-opacity="1" stroke-width="0.533334" stroke-linejoin="round" d="M 60.083,73.5734L 57.2387,81.0398C 56.9443,81.8031 56.6402,82.4606 56.3262,83.0122C 56.0122,83.5637 55.6692,84.0164 55.297,84.3702C 54.9248,84.7239 54.5166,84.9841 54.0722,85.1507C 53.6278,85.3173 53.1306,85.4006 52.5806,85.4006C 52.4362,85.4006 52.3057,85.3978 52.189,85.3922C 52.0723,85.3866 51.9445,85.378 51.8057,85.3664L 51.8057,84.0523C 51.9278,84.0692 52.0611,84.0848 52.2055,84.0991C 52.35,84.1134 52.5028,84.1206 52.6641,84.1206C 52.9307,84.1206 53.1793,84.0817 53.4097,84.0039C 53.6401,83.9261 53.8581,83.7997 54.0637,83.6246C 54.2693,83.4494 54.4665,83.2229 54.6554,82.945C 54.8443,82.667 55.0276,82.3307 55.2054,81.936L 51.8569,73.5734L 53.5067,73.5734L 55.6294,79.1126L 56.0553,80.4035L 56.5377,79.0707L 58.4915,73.5734L 60.083,73.5734 Z "/>
	<path fill="#000000" fill-opacity="1" stroke-width="0.533334" stroke-linejoin="round" d="M 46.3082,188.169L 39.5669,188.169L 39.5669,187.133L 44.2935,181.018L 39.6863,181.018L 39.6863,179.807L 46.0351,179.807L 46.0351,180.927L 41.3919,186.941L 46.3082,186.941L 46.3082,188.169 Z "/>
	<path fill="#000000" fill-opacity="1" stroke-width="0.533334" stroke-linejoin="round" d="M 158.633,150.49C 158.633,151.235 158.529,151.885 158.321,152.441C 158.112,152.996 157.825,153.458 157.458,153.824C 157.092,154.191 156.658,154.466 156.158,154.65C 155.658,154.833 155.116,154.925 154.533,154.925C 154.266,154.925 154.001,154.911 153.737,154.883C 153.473,154.855 153.205,154.807 152.933,154.739L 152.933,158.236L 151.482,158.236L 151.482,146.46L 152.775,146.46L 152.866,147.859C 153.283,147.286 153.727,146.883 154.2,146.652C 154.672,146.422 155.183,146.306 155.733,146.306C 156.211,146.306 156.63,146.406 156.992,146.606C 157.353,146.806 157.656,147.088 157.9,147.452C 158.144,147.816 158.328,148.255 158.45,148.769C 158.572,149.283 158.633,149.857 158.633,150.49 Z M 157.149,150.554C 157.149,150.115 157.117,149.712 157.053,149.345C 156.989,148.978 156.887,148.664 156.749,148.403C 156.61,148.142 156.432,147.937 156.216,147.79C 155.999,147.643 155.741,147.569 155.441,147.569C 155.258,147.569 155.071,147.598 154.883,147.657C 154.694,147.715 154.498,147.812 154.295,147.948C 154.092,148.085 153.879,148.265 153.654,148.49C 153.429,148.715 153.189,148.995 152.933,149.328L 152.933,153.388C 153.2,153.5 153.48,153.587 153.775,153.651C 154.069,153.715 154.358,153.747 154.641,153.747C 155.424,153.747 156.038,153.482 156.482,152.951C 156.926,152.42 157.149,151.621 157.149,150.554 Z "/>
	<path fill="#000000" fill-opacity="1" stroke-width="0.533334" stroke-linejoin="round" d="M 163.719,144.241L 161.245,144.241L 161.245,143.046L 165.187,143.046L 165.187,153.611L 167.679,153.611L 167.679,154.822L 160.972,154.822L 160.972,153.611L 163.719,153.611L 163.719,144.241 Z "/>
	<path fill="#000000" fill-opacity="1" stroke-width="0.533334" stroke-linejoin="round" d="M 176.98,154.822L 175.68,154.822L 175.629,153.473C 175.379,153.762 175.142,154.003 174.917,154.195C 174.692,154.387 174.469,154.542 174.247,154.658C 174.024,154.775 173.801,154.857 173.576,154.905C 173.351,154.952 173.113,154.976 172.864,154.976C 172.003,154.976 171.353,154.723 170.914,154.218C 170.475,153.712 170.256,152.948 170.256,151.926L 170.256,146.46L 171.706,146.46L 171.706,151.806C 171.706,153.089 172.189,153.73 173.156,153.73C 173.333,153.73 173.507,153.704 173.676,153.651C 173.846,153.598 174.023,153.506 174.209,153.376C 174.395,153.246 174.595,153.069 174.809,152.847C 175.023,152.625 175.263,152.345 175.529,152.006L 175.529,146.46L 176.98,146.46L 176.98,154.822 Z "/>
	<path fill="#000000" fill-opacity="1" stroke-width="0.533334" stroke-linejoin="round" d="M 185.721,147.637C 185.877,147.832 185.998,148.059 186.084,148.318C 186.17,148.577 186.213,148.856 186.213,149.157C 186.213,149.59 186.134,149.986 185.975,150.345C 185.817,150.703 185.593,151.01 185.304,151.266C 185.015,151.522 184.669,151.72 184.266,151.862C 183.863,152.004 183.42,152.075 182.936,152.075C 182.586,152.075 182.258,152.037 181.952,151.962C 181.647,151.887 181.405,151.794 181.227,151.683C 181.122,151.839 181.034,151.986 180.962,152.125C 180.89,152.263 180.854,152.419 180.854,152.591C 180.854,152.802 180.956,152.977 181.158,153.115C 181.361,153.254 181.629,153.329 181.963,153.34L 184.164,153.423C 184.581,153.434 184.966,153.487 185.319,153.582C 185.672,153.676 185.975,153.812 186.228,153.99C 186.481,154.167 186.678,154.387 186.82,154.648C 186.961,154.909 187.032,155.211 187.032,155.556C 187.032,155.928 186.952,156.28 186.791,156.614C 186.63,156.947 186.381,157.24 186.045,157.492C 185.708,157.745 185.282,157.946 184.765,158.096C 184.249,158.246 183.635,158.321 182.923,158.321C 182.245,158.321 181.669,158.267 181.194,158.159C 180.719,158.051 180.328,157.901 180.023,157.709C 179.717,157.518 179.495,157.291 179.356,157.027C 179.217,156.764 179.148,156.474 179.148,156.158C 179.148,155.753 179.242,155.398 179.43,155.093C 179.618,154.788 179.908,154.494 180.301,154.211C 180.158,154.144 180.033,154.061 179.928,153.96C 179.823,153.86 179.737,153.751 179.671,153.631C 179.604,153.511 179.555,153.385 179.521,153.252C 179.488,153.118 179.472,152.987 179.472,152.859C 179.472,152.498 179.556,152.167 179.725,151.867C 179.894,151.567 180.094,151.283 180.326,151.016C 180.221,150.888 180.128,150.763 180.047,150.641C 179.966,150.519 179.897,150.387 179.839,150.245C 179.78,150.103 179.736,149.95 179.705,149.786C 179.675,149.622 179.66,149.435 179.66,149.224C 179.66,148.79 179.739,148.394 179.897,148.036C 180.056,147.678 180.278,147.371 180.565,147.115C 180.851,146.859 181.196,146.661 181.599,146.519C 182.002,146.377 182.448,146.306 182.938,146.306C 183.144,146.306 183.341,146.32 183.53,146.349C 183.719,146.377 183.886,146.414 184.03,146.46L 187.066,146.46L 187.066,147.637L 185.721,147.637 Z M 180.684,156.031C 180.684,156.424 180.889,156.711 181.301,156.891C 181.712,157.071 182.285,157.16 183.019,157.16C 183.48,157.16 183.868,157.119 184.182,157.036C 184.496,156.953 184.749,156.844 184.941,156.708C 185.133,156.573 185.271,156.418 185.354,156.243C 185.438,156.069 185.479,155.891 185.479,155.708C 185.479,155.37 185.34,155.121 185.062,154.961C 184.784,154.8 184.359,154.706 183.786,154.678L 181.601,154.603C 181.417,154.725 181.266,154.844 181.146,154.96C 181.027,155.076 180.934,155.194 180.867,155.313C 180.8,155.432 180.753,155.551 180.725,155.67C 180.697,155.789 180.684,155.91 180.684,156.031 Z M 181.127,149.19C 181.127,149.457 181.172,149.701 181.261,149.924C 181.349,150.146 181.475,150.335 181.636,150.491C 181.797,150.646 181.987,150.767 182.207,150.853C 182.426,150.939 182.669,150.982 182.936,150.982C 183.225,150.982 183.482,150.934 183.707,150.836C 183.933,150.739 184.122,150.607 184.274,150.441C 184.427,150.274 184.544,150.082 184.624,149.865C 184.705,149.649 184.745,149.424 184.745,149.19C 184.745,148.924 184.701,148.679 184.612,148.457C 184.523,148.235 184.398,148.046 184.237,147.89C 184.076,147.735 183.885,147.614 183.666,147.528C 183.446,147.441 183.203,147.398 182.936,147.398C 182.647,147.398 182.39,147.448 182.165,147.548C 181.94,147.648 181.751,147.78 181.598,147.944C 181.445,148.108 181.329,148.298 181.248,148.515C 181.168,148.732 181.127,148.957 181.127,149.19 Z "/>
	<line fill="none" stroke-width="0.533334" stroke-linejoin="round" stroke="#000000" stroke-opacity="1" x1="169.315" y1="23.1129" x2="189.319" y2="23.1129"/>
	<line fill="none" stroke-width="0.533334" stroke-linejoin="round" stroke="#000000" stroke-opacity="1" x1="0.465339" y1="217.576" x2="20.4707" y2="217.576"/>
	<path fill="#000000" fill-opacity="1" stroke-width="0.533334" stroke-linejoin="round" d="M 33.9077,220.104L 32.9327,220.104L 32.8951,219.091C 32.7076,219.308 32.5295,219.488 32.3608,219.632C 32.1921,219.776 32.0244,219.892 31.8577,219.979C 31.691,220.067 31.5233,220.128 31.3546,220.163C 31.1859,220.199 31.0077,220.217 30.8201,220.217C 30.1744,220.217 29.6869,220.027 29.3577,219.648C 29.0285,219.269 28.8639,218.696 28.8639,217.929L 28.8639,213.829L 29.9515,213.829L 29.9515,217.841C 29.9515,218.804 30.314,219.285 31.0389,219.285C 31.1722,219.285 31.3024,219.265 31.4295,219.226C 31.5566,219.186 31.6899,219.118 31.8295,219.02C 31.9691,218.922 32.1191,218.79 32.2795,218.623C 32.4399,218.456 32.6201,218.246 32.8201,217.991L 32.8201,213.829L 33.9077,213.829L 33.9077,220.104 Z "/>
	<path fill="#000000" fill-opacity="1" stroke-width="0.533334" stroke-linejoin="round" d="M 41.2665,216.854C 41.2665,217.412 41.1884,217.9 41.0321,218.316C 40.8758,218.733 40.6602,219.079 40.3852,219.354C 40.1102,219.629 39.7852,219.835 39.4102,219.973C 39.0352,220.11 38.629,220.179 38.1915,220.179C 37.9915,220.179 37.7925,220.169 37.5946,220.148C 37.3967,220.127 37.1956,220.092 36.9915,220.041L 36.9915,222.667L 35.9039,222.667L 35.9039,213.829L 36.8727,213.829L 36.9415,214.879C 37.2539,214.45 37.5872,214.149 37.9414,213.976C 38.2956,213.803 38.679,213.716 39.0915,213.716C 39.4498,213.716 39.7643,213.791 40.0352,213.941C 40.3061,214.091 40.5332,214.303 40.7165,214.576C 40.8998,214.849 41.0373,215.178 41.129,215.563C 41.2207,215.949 41.2665,216.379 41.2665,216.854 Z M 40.1539,216.904C 40.1539,216.575 40.1299,216.273 40.082,215.998C 40.0341,215.723 39.958,215.487 39.8539,215.292C 39.7498,215.096 39.6164,214.943 39.4539,214.832C 39.2914,214.722 39.0976,214.666 38.8727,214.666C 38.7352,214.666 38.5957,214.688 38.454,214.732C 38.3123,214.776 38.1654,214.849 38.0133,214.951C 37.8612,215.053 37.7007,215.188 37.532,215.357C 37.3633,215.526 37.1831,215.735 36.9915,215.985L 36.9915,219.029C 37.1915,219.112 37.4019,219.178 37.6227,219.226C 37.8435,219.274 38.0602,219.298 38.2727,219.298C 38.8602,219.298 39.3206,219.099 39.6539,218.701C 39.9872,218.303 40.1539,217.704 40.1539,216.904 Z "/>
	<path fill="#000000" fill-opacity="1" stroke-width="0.533334" stroke-linejoin="round" d="M 48.3065,216.854C 48.3065,217.412 48.2284,217.9 48.0721,218.316C 47.9158,218.733 47.7002,219.079 47.4252,219.354C 47.1502,219.629 46.8252,219.835 46.4502,219.973C 46.0752,220.11 45.669,220.179 45.2315,220.179C 45.0315,220.179 44.8325,220.169 44.6346,220.148C 44.4367,220.127 44.2356,220.092 44.0315,220.041L 44.0315,222.667L 42.9439,222.667L 42.9439,213.829L 43.9127,213.829L 43.9815,214.879C 44.2939,214.45 44.6272,214.149 44.9814,213.976C 45.3356,213.803 45.719,213.716 46.1315,213.716C 46.4898,213.716 46.8043,213.791 47.0752,213.941C 47.3461,214.091 47.5732,214.303 47.7565,214.576C 47.9398,214.849 48.0773,215.178 48.169,215.563C 48.2607,215.949 48.3065,216.379 48.3065,216.854 Z M 47.1939,216.904C 47.1939,216.575 47.1699,216.273 47.122,215.998C 47.0741,215.723 46.998,215.487 46.8939,215.292C 46.7898,215.096 46.6564,214.943 46.4939,214.832C 46.3314,214.722 46.1376,214.666 45.9127,214.666C 45.7752,214.666 45.6357,214.688 45.494,214.732C 45.3523,214.776 45.2054,214.849 45.0533,214.951C 44.9012,215.053 44.7407,215.188 44.572,215.357C 44.4033,215.526 44.2231,215.735 44.0315,215.985L 44.0315,219.029C 44.2315,219.112 44.4419,219.178 44.6627,219.226C 44.8835,219.274 45.1002,219.298 45.3127,219.298C 45.9002,219.298 46.3606,219.099 46.6939,218.701C 47.0272,218.303 47.1939,217.704 47.1939,216.904 Z "/>
	<path fill="#000000" fill-opacity="1" stroke-width="0.533334" stroke-linejoin="round" d="M 55.3223,216.635C 55.3223,216.789 55.3202,216.919 55.3161,217.023C 55.312,217.127 55.3057,217.225 55.2973,217.316L 50.8911,217.316C 50.8911,217.958 51.0703,218.451 51.4286,218.795C 51.7869,219.138 52.3036,219.31 52.9785,219.31C 53.1618,219.31 53.3452,219.303 53.5285,219.288C 53.7118,219.274 53.8889,219.254 54.0598,219.229C 54.2307,219.204 54.3942,219.176 54.5505,219.145C 54.7068,219.113 54.8516,219.079 54.9849,219.041L 54.9849,219.935C 54.689,220.019 54.3546,220.086 53.9817,220.138C 53.6088,220.191 53.2223,220.217 52.8223,220.217C 52.2848,220.217 51.8223,220.144 51.4348,219.998C 51.0473,219.852 50.7296,219.641 50.4817,219.363C 50.2338,219.086 50.0505,218.747 49.9317,218.345C 49.8129,217.943 49.7535,217.487 49.7535,216.979C 49.7535,216.537 49.8171,216.12 49.9442,215.726C 50.0713,215.332 50.2568,214.986 50.5005,214.688C 50.7442,214.39 51.0432,214.154 51.3973,213.979C 51.7514,213.804 52.1535,213.716 52.6035,213.716C 53.0411,213.716 53.4286,213.785 53.7661,213.923C 54.1036,214.06 54.3879,214.255 54.6192,214.507C 54.8505,214.759 55.0255,215.065 55.1442,215.426C 55.2629,215.786 55.3223,216.189 55.3223,216.635 Z M 54.1911,216.479C 54.2036,216.2 54.1766,215.945 54.1099,215.713C 54.0432,215.482 53.9401,215.283 53.8005,215.116C 53.6609,214.95 53.4869,214.82 53.2786,214.726C 53.0703,214.632 52.8286,214.585 52.5535,214.585C 52.316,214.585 52.0994,214.631 51.9036,214.723C 51.7078,214.814 51.5391,214.944 51.3974,215.11C 51.2557,215.277 51.1411,215.477 51.0536,215.71C 50.9661,215.944 50.9119,216.2 50.8911,216.479L 54.1911,216.479 Z "/>
	<path fill="#000000" fill-opacity="1" stroke-width="0.533334" stroke-linejoin="round" d="M 57.3185,213.829L 58.3123,213.829L 58.3435,214.985C 58.7144,214.539 59.0801,214.216 59.4405,214.016C 59.8009,213.816 60.1644,213.716 60.5311,213.716C 61.1811,213.716 61.6738,213.927 62.0092,214.348C 62.3446,214.769 62.4998,215.394 62.4749,216.223L 61.3749,216.223C 61.3873,215.673 61.3071,215.274 61.1342,215.026C 60.9613,214.778 60.7082,214.654 60.3749,214.654C 60.229,214.654 60.0821,214.68 59.9342,214.732C 59.7863,214.784 59.6342,214.868 59.4779,214.982C 59.3216,215.097 59.156,215.244 58.981,215.423C 58.806,215.602 58.6185,215.819 58.4185,216.073L 58.4185,220.104L 57.3185,220.104L 57.3185,213.829 Z "/>
	<path fill="#000000" fill-opacity="1" stroke-width="0.533334" stroke-linejoin="round" d="M 201.532,18.821L 199.676,18.821L 199.676,17.9274L 202.632,17.9274L 202.632,25.8524L 204.501,25.8524L 204.501,26.7586L 199.469,26.7586L 199.469,25.8524L 201.532,25.8524L 201.532,18.821 Z "/>
	<path fill="#000000" fill-opacity="1" stroke-width="0.533334" stroke-linejoin="round" d="M 211.897,23.571C 211.897,24.0586 211.828,24.5055 211.691,24.9117C 211.553,25.3179 211.355,25.6658 211.097,25.9554C 210.839,26.245 210.524,26.47 210.153,26.6305C 209.782,26.7909 209.361,26.8712 208.891,26.8712C 208.441,26.8712 208.037,26.8014 207.681,26.6618C 207.325,26.5222 207.023,26.3169 206.775,26.0461C 206.527,25.7752 206.337,25.4398 206.206,25.0398C 206.075,24.6398 206.009,24.1794 206.009,23.6586C 206.009,23.1711 206.078,22.7263 206.216,22.3242C 206.353,21.922 206.551,21.5762 206.809,21.2867C 207.068,20.9971 207.382,20.7721 207.753,20.6117C 208.124,20.4512 208.545,20.371 209.016,20.371C 209.466,20.371 209.869,20.4408 210.225,20.5804C 210.581,20.72 210.883,20.9241 211.131,21.1929C 211.379,21.4616 211.569,21.796 211.7,22.196C 211.831,22.596 211.897,23.0543 211.897,23.571 Z M 210.784,23.621C 210.784,23.2335 210.742,22.895 210.656,22.6054C 210.571,22.3158 210.449,22.0741 210.291,21.8804C 210.132,21.6866 209.94,21.5408 209.713,21.4429C 209.485,21.3449 209.232,21.296 208.953,21.296C 208.628,21.296 208.35,21.3595 208.119,21.4867C 207.888,21.6138 207.698,21.7836 207.55,21.9961C 207.402,22.2085 207.294,22.4554 207.225,22.7367C 207.156,23.0179 207.122,23.3127 207.122,23.621C 207.122,24.0086 207.165,24.3482 207.25,24.6399C 207.335,24.9315 207.457,25.1742 207.616,25.368C 207.774,25.5617 207.966,25.7076 208.191,25.8055C 208.416,25.9034 208.67,25.9524 208.953,25.9524C 209.278,25.9524 209.556,25.8888 209.787,25.7617C 210.019,25.6346 210.208,25.4648 210.356,25.2523C 210.504,25.0398 210.612,24.7929 210.681,24.5117C 210.75,24.2304 210.784,23.9335 210.784,23.621 Z "/>
	<path fill="#000000" fill-opacity="1" stroke-width="0.533334" stroke-linejoin="round" d="M 219.287,20.4836L 218.374,26.7586L 217.056,26.7586L 216.149,24.1336L 215.968,23.496L 215.762,24.171L 214.893,26.7586L 213.612,26.7586L 212.706,20.4836L 213.768,20.4836L 214.293,24.746L 214.406,25.696L 214.674,24.8648L 215.587,22.046L 216.368,22.046L 217.349,24.8274L 217.631,25.6586L 217.724,24.7774L 218.212,20.4836L 219.287,20.4836 Z "/>
	<path fill="#000000" fill-opacity="1" stroke-width="0.533334" stroke-linejoin="round" d="M 225.853,23.2898C 225.853,23.4439 225.851,23.5731 225.847,23.6773C 225.842,23.7815 225.836,23.8794 225.828,23.971L 221.422,23.971C 221.422,24.6127 221.601,25.1054 221.959,25.4492C 222.317,25.7929 222.834,25.9648 223.509,25.9648C 223.692,25.9648 223.876,25.9575 224.059,25.9429C 224.242,25.9283 224.419,25.9085 224.59,25.8835C 224.761,25.8585 224.925,25.8304 225.081,25.7992C 225.237,25.768 225.382,25.7336 225.515,25.696L 225.515,26.5898C 225.219,26.6731 224.885,26.7408 224.512,26.793C 224.139,26.8451 223.753,26.8712 223.353,26.8712C 222.815,26.8712 222.353,26.7982 221.965,26.6524C 221.578,26.5065 221.26,26.295 221.012,26.018C 220.764,25.7409 220.581,25.4013 220.462,24.9992C 220.343,24.597 220.284,24.1418 220.284,23.6336C 220.284,23.1918 220.347,22.7741 220.475,22.3804C 220.602,21.9866 220.787,21.6408 221.031,21.3429C 221.275,21.0449 221.574,20.8085 221.928,20.6335C 222.282,20.4585 222.684,20.371 223.134,20.371C 223.572,20.371 223.959,20.4397 224.297,20.5773C 224.634,20.7148 224.918,20.9096 225.15,21.1617C 225.381,21.4137 225.556,21.72 225.675,22.0804C 225.793,22.4408 225.853,22.8439 225.853,23.2898 Z M 224.722,23.1336C 224.734,22.8544 224.707,22.5992 224.64,22.3679C 224.574,22.1366 224.471,21.9376 224.331,21.771C 224.191,21.6043 224.017,21.4741 223.809,21.3804C 223.601,21.2867 223.359,21.2398 223.084,21.2398C 222.846,21.2398 222.63,21.2856 222.434,21.3773C 222.238,21.4689 222.069,21.5981 221.928,21.7648C 221.786,21.9314 221.672,22.1314 221.584,22.3648C 221.496,22.5981 221.442,22.8544 221.422,23.1336L 224.722,23.1336 Z "/>
	<path fill="#000000" fill-opacity="1" stroke-width="0.533334" stroke-linejoin="round" d="M 227.849,20.4836L 228.843,20.4836L 228.874,21.6398C 229.245,21.1939 229.611,20.871 229.971,20.671C 230.331,20.471 230.695,20.371 231.062,20.371C 231.712,20.371 232.204,20.5814 232.54,21.0023C 232.875,21.4231 233.03,22.0482 233.005,22.8774L 231.905,22.8774C 231.918,22.3274 231.837,21.9284 231.665,21.6805C 231.492,21.4325 231.239,21.3086 230.905,21.3086C 230.759,21.3086 230.613,21.3346 230.465,21.3867C 230.317,21.4388 230.165,21.5221 230.008,21.6367C 229.852,21.7513 229.686,21.8981 229.511,22.0773C 229.336,22.2564 229.149,22.4731 228.949,22.7274L 228.949,26.7586L 227.849,26.7586L 227.849,20.4836 Z "/>
</svg>
