<?xml version="1.0" encoding="UTF-8" standalone="no"?>
<!-- Generator: Adobe Illustrator 18.1.0, SVG Export Plug-In . SVG Version: 6.00 Build 0)  -->

<svg
   xmlns:dc="http://purl.org/dc/elements/1.1/"
   xmlns:cc="http://creativecommons.org/ns#"
   xmlns:rdf="http://www.w3.org/1999/02/22-rdf-syntax-ns#"
   xmlns:svg="http://www.w3.org/2000/svg"
   xmlns="http://www.w3.org/2000/svg"
   xmlns:sodipodi="http://sodipodi.sourceforge.net/DTD/sodipodi-0.dtd"
   xmlns:inkscape="http://www.inkscape.org/namespaces/inkscape"
   version="1.1"
   id="レイヤー_1"
   x="0px"
   y="0px"
   viewBox="0 0 612 792"
   enable-background="new 0 0 612 792"
   xml:space="preserve"
   inkscape:version="0.91 r13725"
   sodipodi:docname="phspring.svg"><metadata
     id="metadata69"><rdf:RDF><cc:Work
         rdf:about=""><dc:format>image/svg+xml</dc:format><dc:type
           rdf:resource="http://purl.org/dc/dcmitype/StillImage" /><dc:title></dc:title></cc:Work></rdf:RDF></metadata><defs
     id="defs67"><defs
       id="defs7"><rect
         height="560.2"
         width="517.5"
         y="117"
         x="46"
         id="SVGID_1_" /></defs></defs><sodipodi:namedview
     pagecolor="#ffffff"
     bordercolor="#666666"
     borderopacity="1"
     objecttolerance="10"
     gridtolerance="10"
     guidetolerance="10"
     inkscape:pageopacity="0"
     inkscape:pageshadow="2"
     inkscape:window-width="1920"
     inkscape:window-height="986"
     id="namedview65"
     showgrid="false"
     inkscape:zoom="1.5752753"
     inkscape:cx="69.553833"
     inkscape:cy="603.71959"
     inkscape:window-x="-11"
     inkscape:window-y="-11"
     inkscape:window-maximized="1"
     inkscape:current-layer="g3" /><g
     id="g3"><text
       transform="matrix(0,1,-1,0,0,0)"
       font-size="14.04"
       id="text15"
       style="font-style:normal;font-variant:normal;font-weight:normal;font-stretch:normal;font-size:15.62374973px;line-height:125%;font-family:Consolas;-inkscape-font-specification:'Consolas, Normal';text-align:start;writing-mode:lr-tb;text-anchor:start;fill:#7e7e7e"
       sodipodi:linespacing="125%"
       x="95.140945"
       y="-214.12047">y</text>
<path
       d="m 143.75897,97.974351 61.3,0 0,-1.1 -61.3,0 0,1.1 z m 60.4,2.399999 6,-2.999999 -6,-3 0,5.999999 z"
       id="path17"
       style="fill:#a6a6a6"
       inkscape:connector-curvature="0" /><path
       d="m 144.15897,97.074351 -37.8,-34 -0.7,0.7 37.8,34.1 0.7,-0.8 z m -35.4,-35.2 -6.5,-1.8 2.4,6.2 4.1,-4.4 z"
       id="path19"
       style="fill:#a6a6a6"
       inkscape:connector-curvature="0" /><path
       d="m 144.25897,97.374351 0,61.399999 -1,0 0,-61.399999 1,0 z m 2.5,60.499999 -3,6 -3,-6 6,0 z"
       id="path21"
       style="fill:#a6a6a6"
       inkscape:connector-curvature="0" /><text
       transform="matrix(0,1,-1,0,0,0)"
       font-size="14.04"
       id="text23"
       style="font-style:normal;font-variant:normal;font-weight:normal;font-stretch:normal;font-size:15.62374973px;line-height:125%;font-family:Consolas;-inkscape-font-specification:'Consolas, Normal';text-align:start;writing-mode:lr-tb;text-anchor:start;fill:#7e7e7e"
       sodipodi:linespacing="125%"
       x="172.17415"
       y="-133.83928">x socket</text>
<text
       transform="matrix(0,1,-1,0,0,0)"
       font-size="14.04"
       id="text27"
       style="font-style:normal;font-variant:normal;font-weight:normal;font-stretch:normal;font-size:15.62374973px;line-height:125%;font-family:Consolas;-inkscape-font-specification:'Consolas, Normal';text-align:start;writing-mode:lr-tb;text-anchor:start;fill:#7e7e7e"
       sodipodi:linespacing="125%"
       x="76.42215"
       y="-97.961365">z</text>
<path
       d="m 143.95897,97.374351 60.6,60.599999 0.7,-0.7 -60.6,-60.599999 -0.7,0.7 z m 58,61.699999 6.4,2.2 -2.2,-6.4 -4.2,4.2 z"
       id="path29"
       inkscape:connector-curvature="0" /><path
       d="m 144.65897,97.374351 -60.700001,60.599999 -0.6,-0.7 60.600001,-60.599999 0.7,0.7 z m -58.200001,61.699999 -6.4,2.2 2.2,-6.4 4.2,4.2 z"
       id="path31"
       inkscape:connector-curvature="0" /><path
       d="m 216.05897,160.97435 1,0.8 -0.5,0.5 c -0.5,0.5 -0.7,1 -0.8,1.3 0,0.4 0.1,0.8 0.4,1.6 l 0.4,1 9.2,3.6 -1.3,1.3 -7.2,-2.8 2.8,7.2 -1.1,1.1 -4.2,-11 c -0.4,-0.8 -0.4,-1.6 -0.2,-2.2 0.1,-0.6 0.5,-1.2 1.2,-1.9 l 0.3,-0.5 z"
       id="path33"
       inkscape:connector-curvature="0" /><path
       d="m 70.758968,165.77435 0.8,6 5.900001,0.8 -1.6,1.6 -4.300001,-0.7 0.8,4.2 -1.3,1.2 -1,-5.5 -6,-1 1.6,-1.4 4.4,0.6 -0.6,-4.4 1.3,-1.4 z m -18.4,13.5 9.2,9.2 -1.2,1.2 -1.3,-1.2 c 0.4,1.6 0.1,2.8 -0.8,3.6 -0.7,0.7 -1.6,1.1 -2.6,1 -1.1,-0.2 -2,-0.7 -3.1,-1.8 -1.1,-1.1 -1.7,-2.3 -1.9,-3.5 -0.1,-1.2 0.2,-2.3 1.1,-3.1 0.7,-0.7 1.6,-1 2.8,-1 l -3.2,-3.1 1,-1.3 z m 2.9,5.4 c -1.1,0 -2,0.2 -2.5,0.7 -0.6,0.6 -0.7,1.2 -0.6,2 0.2,0.7 0.7,1.6 1.6,2.4 1.6,1.6 2.9,1.9 3.8,1 0.7,-0.7 0.8,-1.8 0.6,-3.2 l -2.9,-2.9 z m -10.6,7.3 8.9,8.9 2.5,-2.6 1,1 -3.8,3.8 -9.9,-9.9 1.3,-1.2 z m -3.8,17.3 -6.8,-6.7 1.3,-1.2 1.2,1.2 c -0.4,-1.4 -0.1,-2.6 0.8,-3.7 1.3,-1.2 2.8,-1.1 4.2,0.5 l 4.7,4.6 -1.2,1.2 -4.3,-4.2 c -0.5,-0.6 -1,-0.8 -1.3,-1 -0.5,0 -0.8,0.1 -1.2,0.5 -0.6,0.6 -0.8,1.7 -0.6,3.2 l 4.4,4.4 -1.2,1.2 z m -11.5,-6.5 0.8,1.2 c -1,0.4 -1.8,1 -2.5,1.6 -1.3,1.3 -1.3,2.6 0,3.8 l 1.1,1.3 c -0.4,-1.4 -0.1,-2.8 0.8,-3.7 0.8,-0.7 1.7,-1.1 2.8,-1 1,0.1 2,0.7 3,1.7 1.1,1.1 1.7,2.3 1.9,3.5 0.1,1.2 -0.2,2.2 -1.1,3.1 -0.7,0.6 -1.7,1 -2.9,1 l 0.7,0.7 -1.1,1.2 -5.4,-5.4 c -0.8,-0.8 -1.4,-1.6 -1.8,-2.2 -0.4,-0.5 -0.5,-1.2 -0.5,-1.8 -0.1,-1.1 0.5,-2.2 1.6,-3.2 0.6,-0.6 1.5,-1.2 2.6,-1.8 l 0,0 z m 0.4,8.9 2.6,2.6 c 1.2,0 2,-0.2 2.6,-0.8 0.5,-0.5 0.7,-1.2 0.6,-1.9 -0.2,-0.7 -0.7,-1.6 -1.6,-2.4 -0.7,-0.7 -1.4,-1.1 -2,-1.3 -0.7,-0.1 -1.2,0.1 -1.7,0.6 -0.6,0.7 -0.8,1.7 -0.5,3.2 l 0,0 z"
       id="path35"
       inkscape:connector-curvature="0" /><path
       d="m 144.55897,96.574351 -3.7,-71.2 -1,0 3.7,71.3 1,-0.1 z m -1.2,-70.3 -3.2,-5.9 -2.6,6.2 5.8,-0.3 z"
       id="path37"
       inkscape:connector-curvature="0" /><polygon
       points="269.1,273.4 273.3,269 274.2,270 268.6,275.8 267.6,274.8 267.2,265.4 262.6,270 261.6,269 267.6,263 268.6,264 "
       id="polygon39"
       transform="translate(-143.64103,-229.82565)" /><text
       transform="matrix(0,1,-1,0,0,0)"
       font-size="18"
       id="text41"
       style="font-style:normal;font-variant:normal;font-weight:normal;font-stretch:normal;font-size:18px;line-height:125%;font-family:Consolas;-inkscape-font-specification:'Consolas, Normal';text-align:start;writing-mode:lr-tb;text-anchor:start;fill:#7e7e7e"
       sodipodi:linespacing="125%"
       x="118.83569"
       y="-450.83292">y</text>
<path
       d="m 352.30673,124.92659 85.7,0 0,-1 -85.7,0 0,1 z m 84.7,2.5 6,-3 -6,-3 0,6 z"
       id="path43"
       inkscape:connector-curvature="0"
       style="fill:#a6a6a6" /><path
       d="m 352.70673,124.12659 -53,-47.600002 -0.6,0.7 52.9,47.600002 0.7,-0.7 z m -50.7,-48.900002 -6.5,-1.8 2.5,6.2 4,-4.4 z"
       id="path45"
       style="fill:#a6a6a6"
       inkscape:connector-curvature="0" /><path
       d="m 352.80673,124.42659 0,85.8 -1,0 0,-85.8 1,0 z m 2.5,84.8 -3,6 -3,-6 6,0 z"
       id="path47"
       style="fill:#a6a6a6"
       inkscape:connector-curvature="0" /><text
       transform="matrix(0,1,-1,0,0,0)"
       font-size="18"
       id="text49"
       style="font-style:normal;font-variant:normal;font-weight:normal;font-stretch:normal;font-size:15.62374973px;line-height:125%;font-family:Consolas;-inkscape-font-specification:'Consolas, Normal';text-align:start;writing-mode:lr-tb;text-anchor:start;fill:#7e7e7e"
       sodipodi:linespacing="125%"
       x="220.82787"
       y="-347.98724">x socket</text>
<text
       transform="matrix(0,1,-1,0,0,0)"
       font-size="18"
       id="text55"
       style="font-style:normal;font-variant:normal;font-weight:normal;font-stretch:normal;font-size:15.62374973px;line-height:125%;font-family:Consolas;-inkscape-font-specification:'Consolas, Normal';text-align:start;writing-mode:lr-tb;text-anchor:start;fill:#7e7e7e"
       sodipodi:linespacing="125%"
       x="93.023201"
       y="-292.07312">z</text>
<path
       d="m 218.61153,122.36316 1.06432,-7.91374 1.06675,0.14852 -0.19811,1.15358 c 0.66956,-0.76922 1.36403,-1.17874 2.07107,-1.0053 0.62021,0.12385 1.14125,0.42137 1.51352,0.97942 0.23585,0.5953 0.37252,1.36426 0.28591,2.1209 -0.14851,1.06674 -0.45838,1.81105 -1.06601,2.27016 -0.52079,0.5087 -1.11609,0.74455 -1.82314,0.57111 -0.62022,-0.12385 -1.14124,-0.42138 -1.51351,-0.97941 l -0.33407,2.80328 -1.06674,-0.14852 z m 1.48739,-3.41141 c 0.3227,0.64489 0.84373,0.94241 1.29026,0.96708 0.53336,0.0743 0.90539,-0.17393 1.24018,-0.55853 0.33477,-0.3846 0.49588,-0.86838 0.49562,-1.67461 0.21045,-1.37685 -0.0626,-2.10858 -0.95571,-2.15791 -0.53336,-0.0743 -1.04182,0.21113 -1.79821,0.93079 l -0.27214,2.49318 z m 7.65372,2.528 c -0.89308,-0.0493 -1.58779,-0.44604 -2.0469,-1.05367 -0.32268,-0.64488 -0.45935,-1.41386 -0.27362,-2.34418 0.0493,-0.89306 0.35921,-1.63736 0.96684,-2.09648 0.52079,-0.50869 1.28977,-0.64535 2.18283,-0.59602 0.79389,0.22302 1.48861,0.61973 1.99729,1.14053 0.3227,0.64488 0.45937,1.41385 0.32322,2.25733 -0.0493,0.89305 -0.4088,1.72419 -1.01643,2.18331 -0.57039,0.59554 -1.33936,0.73221 -2.13324,0.50918 l 0,0 z m 0.0866,-0.75664 c 0.4838,0.16111 0.94267,-0.0374 1.36427,-0.37251 0.24795,-0.43419 0.54548,-0.95523 0.66932,-1.57544 -4.6e-4,-0.80622 0.074,-1.3396 -0.26099,-1.76121 -0.24817,-0.37203 -0.59553,-0.57039 -1.07931,-0.73149 -0.53338,-0.0743 -0.9054,0.17394 -1.24019,0.55853 -0.33477,0.38461 -0.58271,0.81881 -0.75614,1.52586 0.0499,0.71939 0.0624,1.30235 0.31059,1.67437 0.11171,0.4093 0.4591,0.60763 0.99247,0.68189 l 0,0 z m 4.24231,1.04062 0.0493,-0.89307 c 0.69473,0.39671 1.43903,0.70657 2.10882,0.74358 0.39695,0.1115 0.71939,-0.0499 0.99229,-0.12385 0.27287,-0.0745 0.47121,-0.42186 0.48355,-0.64513 0.0122,-0.22327 -0.23585,-0.59529 -0.84372,-0.94241 l -1.09166,-0.50822 c -0.8684,-0.49588 -1.29026,-0.96708 -1.06723,-1.76097 0.0743,-0.53336 0.3222,-0.96756 0.73148,-1.07932 0.42161,-0.33502 1.00458,-0.34761 1.67438,-0.3106 0.6202,0.12386 1.24043,0.2477 1.89788,0.50798 l -0.0493,0.89306 c -0.60787,-0.34711 -1.26533,-0.60738 -1.8483,-0.5948 -0.39694,-0.11152 -0.71938,0.0499 -0.99228,0.12385 -0.18603,0.1241 -0.28521,0.29776 -0.38437,0.47145 -0.0123,0.22327 0.23584,0.59529 0.75687,0.89282 l 1.21575,0.69423 c 0.48379,0.16109 0.69471,0.3967 0.99249,0.68189 0.12408,0.18601 0.23585,0.5953 0.17394,0.9054 -0.12385,0.62021 -0.45862,1.00481 -0.88024,1.33983 -0.5953,0.23585 -1.09142,0.29803 -1.9349,0.16182 -0.6698,-0.037 -1.37685,-0.21045 -1.98473,-0.55756 l 0,0 z m 8.43478,1.36184 0.68066,-5.02361 -1.99705,-0.33429 -4.6e-4,-0.80623 3.20024,0.44556 -0.76727,5.78025 -1.11633,-0.0617 z m 0.75444,-7.16944 0.21044,-1.37684 1.37686,0.21044 -0.21044,1.37685 -1.37686,-0.21045 z m 8.67257,8.40695 c -0.53338,-0.0743 -0.94267,0.0374 -1.47603,-0.0367 -0.89307,-0.0493 -1.4141,-0.34688 -1.66228,-0.71891 -0.33503,-0.42161 -0.34761,-1.00458 -0.34784,-1.8108 l 0.42089,-2.75369 -1.46369,-0.26004 0.17343,-0.70705 1.37685,0.21044 0.16085,-1.29 1.06675,0.14852 -0.11128,1.20317 2.58003,0.32171 4.7e-4,0.80622 -2.6296,-0.23488 -0.43323,2.97697 c -0.0123,0.22327 -0.0743,0.53337 0.0499,0.71939 0.1241,0.18601 0.1241,0.18601 0.29777,0.28519 0.12409,0.18601 0.52104,0.29753 1.00481,0.45862 0.39695,0.11152 0.89308,0.0493 1.33962,0.074 l -0.34712,0.60788 z m 3.7336,0.51983 0.68067,-5.02363 -2.04664,-0.24744 -4.7e-4,-0.80622 3.20022,0.44556 -0.76727,5.78024 -1.06674,-0.14851 z m 0.75444,-7.16944 0.16087,-1.29001 1.29,0.16086 -0.074,1.33959 -1.37686,-0.21044 z m 5.90653,8.20932 c -0.70704,-0.17344 -1.31492,-0.52055 -1.91046,-1.09094 -0.32268,-0.64488 -0.5462,-1.46344 -0.49685,-2.3565 0.14852,-1.06674 0.49563,-1.67462 1.10327,-2.13373 0.60764,-0.45911 1.28977,-0.64537 2.18283,-0.59602 0.79389,0.22302 1.48861,0.61972 1.91047,1.09092 0.40951,0.69447 0.54619,1.46345 0.49684,2.35651 -0.14852,1.06674 -0.49564,1.67462 -1.10326,2.13374 -0.60764,0.45911 -1.20293,0.69494 -2.18284,0.59602 l 0,0 z m 0.22303,-0.79389 c 0.53337,0.0743 0.9054,-0.17394 1.24017,-0.55853 0.33479,-0.38461 0.63232,-0.90565 0.66933,-1.57545 0.17343,-0.70704 0.0244,-1.25275 -0.22378,-1.62478 -0.23585,-0.5953 -0.49636,-0.74406 -1.07932,-0.73148 -0.48378,-0.1611 -0.94266,0.0374 -1.36428,0.37252 -0.42161,0.33502 -0.54546,0.95522 -0.6693,1.57545 -0.17345,0.70704 -0.074,1.33959 0.26098,1.7612 0.19859,0.45887 0.63279,0.70682 1.16616,0.78107 l 0,0 z m 4.22996,1.26388 0.68044,-5.82984 1.11632,0.0617 -0.11126,1.20317 c 0.58271,-0.81881 1.31444,-1.09189 2.07108,-1.0053 1.15358,0.1981 1.56311,0.89257 1.4891,2.23218 l -0.619,3.90727 -1.06676,-0.14852 0.47024,-3.64676 c 0.1611,-0.48378 -4.6e-4,-0.80623 -0.0374,-0.94266 -0.12409,-0.18601 -0.38461,-0.33477 -0.69471,-0.3967 -0.53338,-0.0743 -1.04184,0.21115 -1.79823,0.9308 l -0.56941,3.82044 -0.93032,-0.18576 z m 8.1866,0.98982 0.17319,-1.51328 1.51327,0.17319 -0.17319,1.51328 -1.51327,-0.17319 z m 4.59014,2.85141 1.06431,-7.91374 1.06676,0.14852 -0.0617,1.11633 c 0.58271,-0.8188 1.31444,-1.0919 2.02148,-0.91847 0.62022,0.12385 1.14125,0.42139 1.42668,0.92984 0.32269,0.64488 0.4717,1.19059 0.28591,2.1209 -0.14851,1.06675 -0.45838,1.81105 -1.06601,2.27016 -0.43395,0.55829 -1.11609,0.74454 -1.82314,0.57111 -0.53337,-0.0743 -1.05441,-0.37178 -1.42667,-0.92984 l -0.4209,2.75371 -1.06674,-0.14852 z m 1.53698,-3.49824 c 0.50869,0.52078 0.84371,0.94241 1.42668,0.92982 0.39694,0.11151 0.85581,-0.087 1.10375,-0.52127 0.33477,-0.38461 0.54546,-0.95524 0.66931,-1.57544 0.12361,-1.42644 -0.14949,-2.15816 -0.95572,-2.15793 -0.6202,-0.12384 -1.21551,0.11197 -1.88505,0.88122 l -0.35897,2.4436 z m 7.60411,2.61484 c -0.89306,-0.0493 -1.58778,-0.44605 -1.91046,-1.09094 -0.5087,-0.52079 -0.64536,-1.28976 -0.49684,-2.3565 0.0493,-0.89307 0.44604,-1.58778 1.05366,-2.0469 0.52081,-0.50869 1.20294,-0.69495 2.18284,-0.59602 0.80623,-4.6e-4 1.4141,0.34687 1.91047,1.09093 0.32267,0.64488 0.54619,1.46345 0.49684,2.3565 -0.0493,0.89308 -0.49563,1.67463 -1.10326,2.13375 -0.55805,0.37226 -1.20293,0.69494 -2.13325,0.50918 l 0,0 z m 0.17344,-0.70706 c 0.39694,0.11151 0.85582,-0.087 1.19059,-0.47168 0.33478,-0.38461 0.54546,-0.95524 0.66931,-1.57544 0.17344,-0.70706 0.074,-1.3396 -0.26098,-1.76122 -0.24819,-0.37203 -0.59555,-0.57038 -1.07932,-0.73148 -0.53338,-0.0743 -0.90541,0.17394 -1.24018,0.55852 -0.33479,0.38462 -0.49587,0.8684 -0.66931,1.57545 -0.12385,0.62021 -0.0244,1.25276 0.22377,1.62478 0.1986,0.45887 0.6328,0.70682 1.16617,0.78106 l 0,0 z m 4.15546,0.99104 0.0493,-0.89308 c 0.69471,0.39671 1.43901,0.70657 2.10881,0.74358 0.39695,0.11151 0.80623,-4.6e-4 0.9923,-0.12386 0.37203,-0.24817 0.4712,-0.42186 0.57038,-0.59553 0.0122,-0.22327 -0.27309,-0.73173 -0.93056,-0.992 l -1.09166,-0.50821 c -0.69471,-0.3967 -1.11657,-0.86792 -1.06722,-1.76097 0.16109,-0.4838 0.40903,-0.91799 0.73147,-1.07932 0.42162,-0.33504 1.00458,-0.34762 1.76122,-0.26099 0.53337,0.0743 1.15358,0.1981 1.81105,0.45838 l -0.0493,0.89306 c -0.60787,-0.34711 -1.1785,-0.5578 -1.8483,-0.5948 -0.39694,-0.11152 -0.71938,0.0499 -0.9054,0.17393 -0.22326,-0.0123 -0.37203,0.24819 -0.38436,0.47145 -0.0122,0.22326 0.23585,0.5953 0.67004,0.84324 l 1.21574,0.69422 c 0.4838,0.16111 0.8684,0.49589 0.9925,0.68189 0.12408,0.18602 0.23584,0.5953 0.17393,0.9054 -0.0743,0.53338 -0.37178,1.05441 -0.88024,1.33985 -0.37203,0.24817 -1.00458,0.34759 -1.76122,0.26098 -0.70704,-0.17344 -1.46369,-0.26003 -2.1584,-0.65673 l 0,0 z"
       id="path59"
       inkscape:connector-curvature="0" /><path
       d="m 129.95897,179.97435 -2.8,-0.4 -2.8,-0.5 -2.8,-0.5 -2.6,-0.6 -2.8,-0.7 -2.6,-0.8 -2.6,-1 -2.5,-1 -2.6,-1 -2.5,-1.2 -2.4,-1.2 -2.500001,-1.3 -3,-1.9 1.6,-2.5 2.9,1.8 2.400001,1.2 2.4,1.2 2.4,1.1 2.4,1.1 2.5,1 2.5,0.8 2.6,0.7 2.5,0.7 2.6,0.6 2.6,0.6 2.6,0.4 2.8,0.4 -0.3,3 z m -35.000001,-8.6 -4.9,-8.8 10.000001,1.2 -5.100001,7.6 z"
       id="path61"
       inkscape:connector-curvature="0" /><path
       d="m 101.65897,182.77435 8.2,2.6 -0.4,1.1 -1.1,-0.4 c 0.7,0.8 0.8,1.7 0.6,2.4 -0.2,0.7 -0.6,1.2 -1.3,1.4 -0.6,0.1 -1.4,0.1 -2.3,-0.1 -1.1,-0.4 -1.8,-0.8 -2.3,-1.6 -0.5,-0.6 -0.6,-1.3 -0.4,-2 0.2,-0.7 0.7,-1.2 1.4,-1.4 l -2.9,-1 0.5,-1 z m 3.4,2.2 c -0.7,0.4 -1.2,0.7 -1.3,1.3 -0.2,0.5 -0.1,0.8 0.2,1.3 0.4,0.4 0.8,0.7 1.7,1 1.4,0.4 2.3,0.2 2.5,-0.6 0.2,-0.6 0,-1.3 -0.6,-2.2 l -2.5,-0.8 z m -4.3,7.7 c 0.2,-0.8 0.8,-1.4 1.6,-1.8 0.7,-0.4 1.6,-0.4 2.5,0 1,0.2 1.7,0.8 2,1.4 0.5,0.7 0.5,1.6 0.2,2.4 -0.4,0.8 -0.8,1.4 -1.6,1.8 -0.8,0.4 -1.6,0.4 -2.5,0 -1,-0.2 -1.7,-0.7 -2.2,-1.4 -0.3,-0.7 -0.3,-1.4 0,-2.4 l 0,0 z m 0.8,0.3 c -0.2,0.6 -0.1,1.1 0.2,1.4 0.2,0.5 0.8,0.8 1.6,1.1 0.7,0.2 1.3,0.2 1.8,0 0.6,-0.1 0.8,-0.5 1.1,-1 0.1,-0.6 0.1,-1.1 -0.2,-1.4 -0.4,-0.5 -0.8,-0.8 -1.6,-1 -0.7,-0.2 -1.3,-0.4 -1.9,-0.1 -0.5,0.1 -0.9,0.5 -1,1 l 0,0 z m -1.900001,4.3 1.100001,0.4 c -0.7,0.7 -1.100001,1.4 -1.300001,2 -0.1,0.5 -0.1,0.8 -0.1,1.2 0.1,0.4 0.4,0.6 0.6,0.6 0.400001,0.1 0.700001,-0.1 1.200001,-0.7 l 0.7,-1.1 c 0.6,-0.8 1.3,-1.1 2,-0.8 0.6,0.1 1,0.5 1.1,1 0.1,0.6 0.1,1.2 -0.1,1.9 -0.1,0.6 -0.5,1.2 -0.8,1.9 l -1,-0.2 c 0.5,-0.7 0.8,-1.3 1,-1.9 0.1,-0.4 0.2,-0.7 0.1,-1.1 -0.1,-0.2 -0.2,-0.4 -0.5,-0.5 -0.2,-0.1 -0.6,0.1 -1,0.6 l -1,1.2 c -0.4,0.5 -0.7,0.7 -1,0.8 -0.4,0.2 -0.700001,0.2 -1.100001,0.1 -0.6,-0.2 -1,-0.6 -1.2,-1.2 -0.1,-0.6 -0.1,-1.2 0.1,-2 0.3,-0.8 0.7,-1.5 1.2,-2.2 l 0,0 z m -3.1,9 5.300001,1.7 0.7,-2.2 0.7,0.2 -1,3.4 -6.100001,-1.9 0.4,-1.2 z m 7.400001,2.3 1.4,0.5 -0.5,1.3 -1.3,-0.4 0.4,-1.4 z m -10.600001,7.5 c 0.1,-0.5 0.2,-1.1 0.4,-1.6 0.2,-1 0.6,-1.4 1.1,-1.7 0.4,-0.2 1.1,-0.2 1.9,0.1 l 3,0.8 0.500001,-1.4 0.8,0.2 -0.5,1.6 1.3,0.4 -0.4,1.1 -1.3,-0.4 -0.800001,2.6 -0.8,-0.2 0.8,-2.6 -3.1,-1.1 c -0.4,-0.1 -0.6,-0.1 -0.7,-0.1 -0.1,0 -0.4,0 -0.5,0.1 -0.2,0.2 -0.5,0.6 -0.6,1.1 -0.1,0.5 -0.2,1 -0.2,1.4 l -0.9,-0.3 z m -1.2,4 5.2,1.7 0.7,-2.3 0.8,0.4 -1.1,3.2 -6,-1.9 0.4,-1.1 z m 7.5,2.1 1.300001,0.5 -0.4,1.4 -1.400001,-0.5 0.5,-1.4 z m -10,5.1 c 0.2,-1 0.8,-1.6 1.6,-1.8 0.7,-0.4 1.6,-0.4 2.5,-0.1 1,0.4 1.7,0.8 2,1.6 0.5,0.7 0.5,1.4 0.2,2.4 -0.2,0.8 -0.8,1.4 -1.6,1.8 -0.7,0.4 -1.6,0.4 -2.5,0 -1,-0.4 -1.7,-0.8 -2,-1.4 -0.4,-0.8 -0.4,-1.7 -0.2,-2.5 l 0,0 z m 0.9,0.2 c -0.1,0.5 -0.1,1 0.2,1.4 0.2,0.5 0.8,0.7 1.6,1 0.7,0.2 1.3,0.4 1.9,0.1 0.5,-0.1 0.8,-0.5 1,-1.1 0.1,-0.5 0.1,-1 -0.2,-1.3 -0.4,-0.5 -0.8,-0.8 -1.6,-1.1 -0.8,-0.3 -1.3,-0.2 -1.9,-0.1 -0.6,0.3 -0.9,0.6 -1,1.1 l 0,0 z m -2.2,4.2 6.1,1.9 -0.4,1.1 -1.1,-0.4 c 0.6,0.8 0.8,1.7 0.6,2.5 -0.4,1.2 -1.3,1.6 -2.6,1.1 l -4.2,-1.3 0.4,-1.1 3.8,1.2 c 0.5,0.1 0.8,0.1 1.1,0.1 0.2,-0.1 0.5,-0.4 0.6,-0.7 0.1,-0.5 0,-1.2 -0.6,-2 l -4,-1.3 0.3,-1.1 z m -2.6,8.7 1.6,0.5 -0.5,1.7 -1.7,-0.6 0.6,-1.6 z m -2.7,7.5 c 0.2,-0.8 0.8,-1.4 1.6,-1.8 0.7,-0.4 1.6,-0.4 2.5,0 1,0.2 1.7,0.8 2,1.4 0.5,0.7 0.5,1.6 0.2,2.4 -0.4,1 -0.8,1.6 -1.6,1.8 -0.7,0.4 -1.6,0.4 -2.5,0 -1,-0.2 -1.7,-0.7 -2.2,-1.4 -0.2,-0.7 -0.2,-1.4 0,-2.4 l 0,0 z m 0.9,0.3 c -0.2,0.6 -0.1,1.1 0.2,1.4 0.2,0.5 0.8,0.8 1.6,1.1 0.7,0.2 1.3,0.2 1.8,0.1 0.6,-0.2 1,-0.6 1.1,-1.1 0.1,-0.6 0.1,-1.1 -0.2,-1.4 -0.4,-0.5 -0.8,-0.7 -1.6,-1 -0.8,-0.3 -1.3,-0.4 -1.9,-0.1 -0.6,0.1 -0.9,0.5 -1,1 l 0,0 z m -2.4,5 6.1,1.9 -0.4,1.2 -1.2,-0.4 c 0.7,0.8 0.8,1.7 0.6,2.6 -0.1,0.2 -0.2,0.7 -0.5,1.1 l -1.8,-0.6 0.4,-0.8 0.8,0.4 c 0,-0.2 0.1,-0.4 0.1,-0.5 0.1,-0.5 0.2,-0.8 0.1,-1.2 -0.1,-0.4 -0.4,-0.8 -0.7,-1.3 l -4,-1.3 0.5,-1.1 z m -2.7,8.4 5.3,1.7 0.7,-2.3 0.7,0.2 -1,3.4 -6.1,-1.9 0.4,-1.1 z m 7.5,2.2 1.4,0.5 -0.5,1.3 -1.3,-0.4 0.4,-1.4 z"
       id="path63"
       inkscape:connector-curvature="0" /><path
       style="fill:none;fill-rule:evenodd;stroke:#000000;stroke-width:3.0999999;stroke-linecap:butt;stroke-linejoin:miter;stroke-miterlimit:4;stroke-dasharray:none;stroke-opacity:1"
       d="M 351.92053,124.96696 151.86166,98.614617"
       id="path4167"
       inkscape:connector-curvature="0"
       sodipodi:nodetypes="cc" /><path
       style="fill:#000000;fill-opacity:1;fill-rule:evenodd;stroke:none;stroke-width:1px;stroke-linecap:butt;stroke-linejoin:miter;stroke-opacity:1"
       d="m 144.36565,97.210298 8.1422,5.739272 1.22464,-8.899294 z"
       id="path4169"
       inkscape:connector-curvature="0"
       inkscape:transform-center-x="1.904429"
       inkscape:transform-center-y="1.1109169" /></g></svg>