<?xml version="1.0" encoding="UTF-8" standalone="no"?>
<!-- Generator: Adobe Illustrator 18.1.0, SVG Export Plug-In . SVG Version: 6.00 Build 0)  -->

<svg
   xmlns:dc="http://purl.org/dc/elements/1.1/"
   xmlns:cc="http://creativecommons.org/ns#"
   xmlns:rdf="http://www.w3.org/1999/02/22-rdf-syntax-ns#"
   xmlns:svg="http://www.w3.org/2000/svg"
   xmlns="http://www.w3.org/2000/svg"
   xmlns:sodipodi="http://sodipodi.sourceforge.net/DTD/sodipodi-0.dtd"
   xmlns:inkscape="http://www.inkscape.org/namespaces/inkscape"
   version="1.1"
   id="レイヤー_1"
   x="0px"
   y="0px"
   viewBox="0 0 612 792"
   enable-background="new 0 0 612 792"
   xml:space="preserve"
   inkscape:version="0.91 r13725"
   sodipodi:docname="swingtwist.svg"><metadata
     id="metadata79"><rdf:RDF><cc:Work
         rdf:about=""><dc:format>image/svg+xml</dc:format><dc:type
           rdf:resource="http://purl.org/dc/dcmitype/StillImage" /></cc:Work></rdf:RDF></metadata><defs
     id="defs77" /><sodipodi:namedview
     pagecolor="#ffffff"
     bordercolor="#666666"
     borderopacity="1"
     objecttolerance="10"
     gridtolerance="10"
     guidetolerance="10"
     inkscape:pageopacity="0"
     inkscape:pageshadow="2"
     inkscape:window-width="1920"
     inkscape:window-height="986"
     id="namedview75"
     showgrid="false"
     inkscape:zoom="1.9509145"
     inkscape:cx="205.23702"
     inkscape:cy="159.94354"
     inkscape:window-x="-11"
     inkscape:window-y="-11"
     inkscape:window-maximized="1"
     inkscape:current-layer="レイヤー_1" /><path
     inkscape:connector-curvature="0"
     id="path15"
     d="m 219.519,582.71908 0,-0.8 0,-0.8 0.1,-0.8 0,-0.5 1.1,0.1 -0.1,0.5 -0.1,0.8 0,0.7 0,0.8 -1,0 z m 0.4,-4.1 0,-0.1 0.4,-0.8 0.2,-0.7 0.4,-0.8 0.2,-0.4 0.8,0.5 -0.1,0.2 -0.4,0.8 -0.2,0.7 -0.2,0.7 -0.1,0.1 -1,-0.2 z m 1.6,-3.8 0.1,-0.2 0.6,-0.8 0.5,-0.7 0.5,-0.7 0.8,0.7 -0.5,0.5 -0.5,0.8 -0.5,0.7 -0.2,0.4 -0.8,-0.7 z m 2.4,-3.2 0.1,-0.1 0.7,-0.7 0.7,-0.8 0.6,-0.5 0.7,0.7 -0.6,0.5 -0.7,0.7 -0.7,0.7 -0.1,0.1 -0.7,-0.6 z m 2.9,-2.9 1.2,-0.8 1.2,-1 0.6,0.8 -1.2,0.8 -1.1,1 -0.7,-0.8 z m 3.3,-2.4 1.9,-1.2 0.7,-0.4 0.5,0.8 -0.7,0.4 -1.8,1.2 -0.6,-0.8 z m 3.4,-2.2 0.6,-0.4 2,-1.1 0.5,1 -1.9,1 -0.7,0.5 -0.5,-1 z m 3.6,-1.8 1.9,-1 0.7,-0.4 0.5,1 -0.7,0.2 -2,1 -0.4,-0.8 z m 3.6,-1.7 1.1,-0.5 1.7,-0.7 0.4,1 -1.7,0.6 -1.1,0.5 -0.4,-0.9 z m 3.8,-1.5 0.1,0 2.8,-1 0.2,0.8 -2.6,1 -0.1,0.1 -0.4,-0.9 z m 3.8,-1.3 2.4,-0.8 0.5,-0.1 0.2,1 -0.5,0.1 -2.4,0.8 -0.2,-1 z m 3.8,-1.2 1.8,-0.5 1.1,-0.4 0.2,1 -1.1,0.4 -1.8,0.5 -0.2,-1 z m 3.9,-1.1 1.2,-0.4 1.7,-0.4 0.2,1 -1.6,0.4 -1.3,0.4 -0.2,-1 z m 3.8,-1 0.8,-0.2 2.2,-0.5 0.2,1.1 -2.2,0.4 -0.8,0.2 -0.2,-1 z m 4,-0.8 0.5,-0.1 2.5,-0.5 0.1,1 -2.4,0.5 -0.5,0.1 -0.2,-1 z m 3.9,-0.9 0.1,0 2.8,-0.5 0.2,1 -2.8,0.5 -0.2,0.1 -0.1,-1.1 z m 4,-0.6 0,0 3,-0.5 0.1,1 -3,0.5 0,0 -0.1,-1 z m 4,-0.6 3,-0.4 0.1,1 -3,0.4 -0.1,-1 z m 3.9,-0.4 3,-0.4 0.1,1 -3,0.4 -0.1,-1 z m 4,-0.5 3,-0.2 0.1,1 -3,0.4 -0.1,-1.2 z m 3.9,-0.4 0.1,0 2.9,-0.1 0.1,1 -2.9,0.2 -0.1,0 -0.1,-1.1 z m 4.1,-0.2 0.2,0 2.8,-0.1 0,1 -2.8,0.1 -0.2,0 0,-1 z m 4,-0.3 0.5,0 2.5,0 0,1 -2.5,0.1 -0.4,0 -0.1,-1.1 z m 4.1,-0.1 0.7,0 2.3,0 0,1 -2.3,0.1 -0.7,0 0,-1.1 z m 3.9,0 1.1,0 1.9,0 0,1 -1.8,0 -1.2,0 0,-1 z m 4,0 1.6,0 1.4,0.1 0,1 -1.5,0 -1.6,0 0,-1.1 z m 4.1,0.1 1.8,0 1.2,0.1 -0.1,1 -1.1,0 -1.8,-0.1 0,-1 z m 3.9,0.2 2,0.1 1,0.1 0,1 -1,-0.1 -2,-0.1 0,-1 z m 4.1,0.2 2.2,0.1 0.8,0.1 -0.1,1 -0.7,0 -2.3,-0.2 0.1,-1 z m 4,0.4 2.4,0.1 0.6,0.1 -0.1,1 -0.6,0 -2.4,-0.2 0.1,-1 z m 3.9,0.3 2.4,0.2 0.6,0 -0.1,1.1 -0.6,-0.1 -2.4,-0.2 0.1,-1 z m 4,0.4 2.4,0.4 0.6,0.1 -0.1,1 -0.6,-0.1 -2.4,-0.2 0.1,-1.2 z m 3.9,0.6 2.3,0.4 0.7,0.1 -0.1,1 -0.7,-0.1 -2.3,-0.4 0.1,-1 z m 4,0.6 2.2,0.4 0.8,0.1 -0.1,1.1 -1,-0.2 -2,-0.4 0.1,-1 z m 4,0.7 1.8,0.4 1.2,0.2 -0.2,1 -1.1,-0.2 -1.8,-0.4 0.1,-1 z m 3.9,0.8 1.4,0.2 1.6,0.4 -0.2,1 -1.6,-0.4 -1.4,-0.2 0.2,-1 z m 4,0.9 1,0.2 1.9,0.5 -0.2,1.1 -1.9,-0.6 -1,-0.2 0.2,-1 z m 3.8,1.1 0.5,0.1 2.4,0.7 -0.2,1 -2.5,-0.7 -0.4,-0.1 0.2,-1 z m 3.9,1 2.9,1 -0.4,1 -2.8,-1 0.3,-1 z m 3.8,1.4 2,0.7 0.8,0.2 -0.4,1 -0.8,-0.4 -2,-0.7 0.4,-0.8 z m 3.7,1.3 1.1,0.5 1.8,0.7 -0.5,1 -1.7,-0.7 -1.1,-0.5 0.4,-1 z m 3.7,1.5 0.1,0 2.5,1.2 0.1,0.1 -0.5,0.8 -0.1,0 -2.5,-1.2 0,0 0.4,-0.9 z m 3.6,1.8 1.4,0.7 1.2,0.7 -0.5,0.8 -1.2,-0.7 -1.3,-0.7 0.4,-0.8 z m 3.6,2 0,0.1 2,1.3 0.5,0.2 -0.6,0.8 -0.4,-0.2 -2,-1.3 -0.1,0 0.6,-0.9 z m 3.4,2.2 0.6,0.5 1.7,1.4 -0.6,0.8 -1.7,-1.4 -0.6,-0.5 0.6,-0.8 z m 3.1,2.7 0,0 0.7,0.7 0.7,0.8 0.6,0.6 -0.7,0.7 -0.6,-0.7 -0.6,-0.7 -0.7,-0.6 -0.1,-0.1 0.7,-0.7 z m 2.7,3 0.1,0 0.6,0.8 0.5,0.7 0.5,0.8 0,0.2 -0.8,0.4 -0.1,-0.1 -0.4,-0.7 -0.5,-0.7 -0.6,-0.7 0,-0.1 0.7,-0.6 z m 2.1,3.5 0.2,0.5 0.4,0.8 0.2,0.8 0.1,0.8 -1,0.2 -0.1,-0.7 -0.2,-0.8 -0.4,-0.7 -0.1,-0.5 0.9,-0.4 z m 1.2,3.9 0,0.7 0.1,0.8 -0.1,0.8 0,0.8 -1.1,-0.1 0.1,-0.6 0,-0.8 0,-0.7 -0.1,-0.7 1.1,-0.2 z m -0.2,4.2 -0.1,0.7 -0.2,0.8 -0.4,0.8 -0.2,0.5 -0.8,-0.4 0.1,-0.5 0.4,-0.7 0.2,-0.8 0.1,-0.7 0.9,0.3 z m -1.5,3.9 0,0.1 -0.5,0.8 -0.5,0.8 -0.6,0.7 -0.1,0.1 -0.7,-0.6 0,-0.1 0.6,-0.7 0.5,-0.7 0.4,-0.7 0.1,-0.2 0.8,0.5 z m -2.2,3.3 -0.6,0.7 -0.6,0.7 -0.8,0.7 0,0.1 -0.7,-0.7 0,-0.1 0.7,-0.7 0.7,-0.7 0.6,-0.6 0.7,0.6 z m -2.9,3 -1.7,1.3 -0.6,0.5 -0.6,-0.7 0.6,-0.5 1.7,-1.4 0.6,0.8 z m -3.1,2.4 -0.4,0.4 -2.2,1.3 0,0 -0.6,-0.8 0.1,0 2,-1.3 0.4,-0.2 0.7,0.6 z m -3.5,2.2 -1.2,0.8 -1.4,0.7 -0.4,-1 1.3,-0.7 1.2,-0.7 0.5,0.9 z m -3.5,2 -0.1,0 -2.5,1.2 -0.1,0 -0.4,-0.8 0,0 2.5,-1.2 0.1,-0.1 0.5,0.9 z m -3.7,1.7 -1.7,0.7 -1.1,0.4 -0.4,-0.8 1.1,-0.5 1.7,-0.7 0.4,0.9 z m -3.6,1.4 -0.8,0.4 -2,0.7 -0.4,-1 2,-0.7 0.7,-0.2 0.5,0.8 z m -3.9,1.5 -2.9,1 -0.2,-1 2.8,-1 0.3,1 z m -3.8,1.2 -2.4,0.7 -0.5,0.1 -0.2,-1 0.4,-0.1 2.5,-0.7 0.2,1 z m -3.8,1.1 -1.9,0.5 -1,0.2 -0.2,-1 1,-0.2 1.9,-0.5 0.2,1 z m -4,0.9 -1.4,0.4 -1.4,0.4 -0.2,-1 1.4,-0.4 1.6,-0.4 0,1 z m -3.8,1 -1.2,0.2 -1.8,0.4 -0.1,-1.1 1.8,-0.2 1.1,-0.4 0.2,1.1 z m -4,0.7 -0.8,0.1 -2.2,0.4 -0.1,-1 2,-0.4 1,-0.1 0.1,1 z m -4,0.7 -0.7,0.1 -2.3,0.4 -0.1,-1.1 2.3,-0.2 0.7,-0.1 0.1,0.9 z m -3.9,0.6 -0.6,0.1 -2.4,0.2 -0.1,-1 2.4,-0.4 0.6,0 0.1,1.1 z m -4,0.5 -0.6,0.1 -2.4,0.2 -0.1,-1 2.4,-0.4 0.6,0 0.1,1.1 z m -3.9,0.5 -0.6,0 -2.4,0.2 -0.1,-1 2.4,-0.2 0.6,-0.1 0.1,1.1 z m -4.1,0.3 -0.7,0 -2.3,0.1 0,-1 2.3,-0.1 0.7,-0.1 0,1.1 z m -4,0.3 -0.8,0.1 -2.2,0 0,-1 2,-0.1 1,0 0,1 z m -3.9,0.2 -1.2,0 -1.8,0.1 -0.1,-1.1 1.9,0 1.1,-0.1 0.1,1.1 z m -4.1,0.1 -1.5,0 -1.6,0 0,-1 1.6,0 1.4,-0.1 0,1.1 z m -4,0 -1.8,0 -1.2,0 0,-1 1.2,0 1.8,0 0,1 z m -3.9,0 -2.3,0 -0.8,0 0.1,-1 0.7,0 2.3,0 0,1 z m -4.1,0 -2.5,-0.1 -0.5,0 0,-1 0.6,0 2.4,0.1 0,1 z m -4,-0.1 -2.8,-0.1 -0.2,0 0,-1.1 0.2,0 2.8,0.1 0,1.1 z m -4.1,-0.2 -2.9,-0.2 -0.1,0 0.1,-1 0,0 3,0.2 -0.1,1 z m -3.9,-0.3 -3,-0.4 0.1,-1 3,0.2 -0.1,1.2 z m -4,-0.3 -3,-0.4 0.1,-1 3,0.2 -0.1,1.2 z m -3.9,-0.5 -3,-0.4 0.1,-1.1 3,0.5 -0.1,1 z m -4.1,-0.5 -2.9,-0.5 0,0 0.1,-1 0,0 3,0.4 -0.2,1.1 z m -4,-0.6 -2.6,-0.5 -0.2,-0.1 0.1,-1 0.2,0 2.8,0.5 -0.3,1.1 z m -3.9,-0.7 -2.4,-0.5 -0.5,-0.1 0.2,-1 0.5,0.1 2.4,0.5 -0.2,1 z m -3.9,-0.8 -2.2,-0.5 -0.8,-0.1 0.2,-1 0.8,0.1 2,0.5 0,1 z m -3.9,-0.9 -1.6,-0.4 -1.3,-0.4 0.2,-1 1.3,0.2 1.6,0.5 -0.2,1.1 z m -3.9,-0.9 -1.1,-0.4 -1.8,-0.5 0.2,-1 1.8,0.5 1.1,0.2 -0.2,1.2 z m -3.8,-1.2 -0.5,-0.1 -2.4,-0.7 0.2,-1 2.4,0.7 0.5,0.1 -0.2,1 z m -3.9,-1.2 -2.6,-1 -0.2,0 0.4,-1 0.1,0 2.6,1 -0.3,1 z m -3.8,-1.5 -1.7,-0.6 -1.1,-0.5 0.4,-1 1.1,0.5 1.7,0.7 -0.4,0.9 z m -3.7,-1.4 -0.6,-0.4 -2.2,-1 0.5,-0.8 2,1 0.7,0.2 -0.4,1 z m -3.6,-1.8 -1.9,-1 -0.7,-0.5 0.5,-0.8 0.7,0.4 1.9,1.1 -0.5,0.8 z m -3.5,-1.9 -0.7,-0.4 -1.9,-1.2 0.6,-0.8 1.8,1.2 0.7,0.4 -0.5,0.8 z m -3.5,-2.2 -1.2,-1 -1.2,-1 0.7,-0.7 1.1,1 1.2,0.8 -0.6,0.9 z m -3.1,-2.5 -0.6,-0.6 -0.7,-0.7 -0.7,-0.7 -0.1,-0.1 0.7,-0.7 0.1,0.1 0.7,0.7 0.7,0.7 0.5,0.5 -0.6,0.8 z m -2.9,-3 -0.5,-0.6 -0.5,-0.7 -0.6,-0.8 -0.1,-0.4 0.8,-0.5 0.1,0.4 0.6,0.7 0.5,0.7 0.5,0.6 -0.8,0.6 z m -2.1,-3.4 -0.2,-0.4 -0.4,-0.8 -0.2,-0.8 -0.2,-0.7 -0.1,-0.2 1,-0.1 0.1,0 0.2,0.8 0.2,0.7 0.4,0.7 0.1,0.4 -0.9,0.4 z m -1.5,-3.9 0,-0.5 -0.1,-0.8 1,-0.1 0.1,0.7 0.1,0.6 -1.1,0.1 z" /><polygon
     style="clip-rule:evenodd;fill:#ffffff;fill-rule:evenodd"
     id="polygon17"
     points="327.3,644.4 354.3,660.2 348.6,669.9 321.6,654.3 "
     transform="matrix(0,-1,1,0,-275.881,909.41908)" /><text
     style="font-style:normal;font-variant:normal;font-weight:normal;font-stretch:normal;font-size:11.03999996px;line-height:125%;font-family:Consolas;-inkscape-font-specification:'Consolas, Normal';text-align:start;writing-mode:lr-tb;text-anchor:start"
     id="text19"
     font-size="11.04"
     x="193.72191"
     y="621.02551"
     sodipodi:linespacing="125%">limitSwing[1]</text>
<text
     style="font-style:normal;font-variant:normal;font-weight:normal;font-stretch:normal;font-size:18px;line-height:125%;font-family:Consolas;-inkscape-font-specification:'Consolas, Normal';text-align:start;writing-mode:lr-tb;text-anchor:start;fill:#7e7e7e"
     id="text25"
     font-size="18"
     x="-513.0177"
     y="310.71896"
     sodipodi:linespacing="125%"
     transform="matrix(0,-1,1,0,0,0)">z socket</text>
<path
     inkscape:connector-curvature="0"
     id="path27"
     d="m 362.219,601.31908 29.5,-49.6 -0.8,-0.5 -29.5,49.6 0.8,0.5 z m 31.1,-47.4 0.5,-6.7 -5.6,3.6 5.1,3.1 z" /><path
     inkscape:connector-curvature="0"
     id="path29"
     d="m 406.519,533.01908 -1.1,-0.6 -2.9,-8.9 -3.1,5.2 -1.1,-0.6 4.1,-7.1 1.1,0.7 2.9,8.9 3.2,-5.5 1.1,0.6 -4.2,7.3 z m 14,-17.4 -11.3,-6.5 0.8,-1.6 1.6,1 c -0.7,-1.4 -0.7,-2.6 -0.1,-3.7 0.5,-1 1.3,-1.4 2.4,-1.6 1,-0.1 2.2,0.1 3.4,0.8 1.4,0.8 2.3,1.8 2.8,2.9 0.5,1.2 0.5,2.3 -0.1,3.2 -0.5,1 -1.3,1.4 -2.4,1.7 l 3.8,2.3 -0.9,1.5 z m -4.2,-4.4 c 1.2,-0.2 1.9,-0.7 2.3,-1.4 0.5,-0.6 0.5,-1.3 0.1,-2 -0.5,-0.6 -1.1,-1.3 -2.2,-1.9 -1.9,-1.1 -3.2,-1.1 -4,0.1 -0.5,0.8 -0.4,1.9 0.2,3.2 l 3.6,2 z m 8.4,-9.8 -10.9,-6.2 -1.8,3.2 -1.1,-0.7 2.6,-4.7 12,7 -0.8,1.4 z m -0.7,-17.7 8.3,4.7 -1,1.6 -1.6,-1 c 0.8,1.4 0.8,2.6 0.1,3.8 -0.8,1.6 -2.3,1.8 -4.1,0.7 l -5.6,-3.2 0.8,-1.4 5.3,3 c 0.6,0.4 1.1,0.6 1.4,0.5 0.5,0 0.7,-0.2 1.1,-0.7 0.4,-0.8 0.4,-1.9 -0.2,-3.4 l -5.4,-3.1 0.9,-1.5 z m 12.7,3.3 -1.1,-0.8 c 0.8,-0.7 1.6,-1.4 1.9,-2.2 1,-1.7 0.7,-2.9 -0.8,-3.7 l -1.4,-1 c 0.7,1.3 0.8,2.5 0.1,3.7 -0.6,1 -1.3,1.4 -2.4,1.6 -1.1,0.2 -2.2,-0.1 -3.4,-0.8 -1.3,-0.7 -2.3,-1.7 -2.6,-2.8 -0.5,-1.1 -0.5,-2.2 0.1,-3.2 0.5,-0.8 1.3,-1.4 2.5,-1.7 l -1,-0.6 0.8,-1.4 6.6,3.8 c 1.1,0.6 1.9,1.2 2.3,1.6 0.5,0.5 0.8,1.1 1.1,1.7 0.2,1 0,2.2 -0.7,3.5 -0.4,0.7 -1,1.4 -2,2.3 l 0,0 z m -2.8,-8.4 -3.2,-1.8 c -1.1,0.2 -1.9,0.7 -2.3,1.4 -0.4,0.6 -0.4,1.3 -0.1,2 0.4,0.6 1.1,1.3 2.2,1.9 0.8,0.5 1.6,0.7 2.3,0.6 0.7,0 1.2,-0.2 1.6,-0.8 0.4,-0.9 0.3,-2 -0.5,-3.3 l 0,0 z" /><polygon
     id="polygon31"
     points="209.8,578.6 209.3,579.5 295.5,630.8 296.1,629.9 "
     transform="matrix(0,-1,1,0,-275.881,909.41908)" /><path
     style="fill:#a6a6a6"
     inkscape:connector-curvature="0"
     id="path33"
     d="m 304.819,699.21908 -57.1,0 0,1.1 57.1,0 0,-1.1 z m -56.1,-2.4 -6,3 6,3 0,-6 z" /><path
     style="fill:#a6a6a6"
     inkscape:connector-curvature="0"
     id="path35"
     d="m 303.519,699.51908 22.6,27.9 -0.8,0.6 -22.4,-28 0.6,-0.5 z m 23.9,25.5 1.4,6.6 -6.1,-2.8 4.7,-3.8 z" /><text
     style="font-style:normal;font-variant:normal;font-weight:normal;font-stretch:normal;font-size:18px;line-height:125%;font-family:Consolas;-inkscape-font-specification:'Consolas, Normal';text-align:start;writing-mode:lr-tb;text-anchor:start;fill:#7e7e7e"
     id="text37"
     font-size="18"
     x="224.3127"
     y="706.93768"
     sodipodi:linespacing="125%">x</text>
<text
     style="font-style:normal;font-variant:normal;font-weight:normal;font-stretch:normal;font-size:18px;line-height:125%;font-family:Consolas;-inkscape-font-specification:'Consolas, Normal';text-align:start;writing-mode:lr-tb;text-anchor:start;fill:#7e7e7e"
     id="text39"
     font-size="18"
     x="332.0784"
     y="746.5412"
     sodipodi:linespacing="125%">y</text>
<polygon
     id="polygon41"
     points="209.1,578.9 210,579.2 178.2,669.9 177.3,669.5 "
     transform="matrix(0,-1,1,0,-275.881,909.41908)" /><rect
     id="rect43"
     height="1.100001"
     width="184.40015"
     transform="matrix(0.00130118,-0.99999915,0.99999915,0.00130118,0,0)"
     y="394.25128"
     x="-731.10577" /><polygon
     id="polygon45"
     points="197.9,656.6 198.9,656.8 194.2,670.1 193.2,669.8 "
     transform="matrix(0,-1,1,0,-275.881,909.41908)" /><rect
     style="clip-rule:evenodd;fill-rule:evenodd"
     id="rect47"
     height="1.1"
     width="16.200001"
     y="379.71896"
     x="-726.61908"
     transform="matrix(0,-1,1,0,0,0)" /><path
     inkscape:connector-curvature="0"
     id="path49"
     d="m 338.819,719.51908 -2.2,1 -2.2,0.7 -2,0.7 -2.2,0.6 -2.2,0.6 -2.3,0.5 -2.3,0.4 -2.3,0.5 -2.4,0.2 -2.4,0.4 -2.4,0.2 -2.4,0.1 -2.4,0.1 -2.4,0.1 -2.5,0 -2.4,0 -2.4,-0.1 -2.5,-0.2 -2.4,-0.1 -2.4,-0.4 -2.4,-0.2 -2.4,-0.5 -2.3,-0.4 -2.3,-0.5 -2.3,-0.6 -2.3,-0.6 -2.2,-0.7 -2.2,-0.7 -2.3,-0.8 -2.2,-1 -2,-1 -1.9,-1.1 -1.8,-1.1 -1.7,-1.1 -1.4,-1.2 -1.4,-1.2 -1.2,-1.3 -1.2,-1.3 -1,-1.3 -0.8,-1.4 -0.6,-1.4 -0.5,-1.4 -0.4,-1.4 -0.1,-1.6 3,-0.2 0,1.2 0.2,1.1 0.5,1.2 0.5,1.2 0.7,1.2 0.7,1.1 1,1.2 1.2,1.1 1.2,1.1 1.4,1.1 1.4,1.1 1.7,1 1.8,1.1 1.9,0.8 2,1 2.2,0.8 2,0.6 2.2,0.7 2.2,0.6 2.2,0.5 2.2,0.5 2.3,0.5 2.3,0.4 2.4,0.4 2.3,0.2 2.4,0.1 2.4,0.2 2.3,0.1 2.4,0 2.4,0 2.4,-0.1 2.4,-0.1 2.3,-0.1 2.3,-0.2 2.4,-0.2 2.3,-0.4 2.2,-0.4 2.3,-0.5 2.2,-0.5 2,-0.5 2.2,-0.6 1.9,-0.6 1.9,-0.7 2.2,-1 1.2,2.5 z m -4,-4.8 10.1,0.2 -6.1,7.9 -4,-8.1 z" /><text
     style="font-style:normal;font-variant:normal;font-weight:normal;font-stretch:normal;font-size:11.03999996px;line-height:125%;font-family:Consolas;-inkscape-font-specification:'Consolas, Normal';text-align:start;writing-mode:lr-tb;text-anchor:start"
     id="text51"
     font-size="11.04"
     x="249.76103"
     y="739.93958"
     sodipodi:linespacing="125%">Swing-Dir</text>
<path
     inkscape:connector-curvature="0"
     id="path55"
     d="m 262.019,580.81908 0,-0.8 0,-0.8 0.1,-1 0.2,-0.6 1,0.4 -0.1,0.5 -0.2,0.7 0,0.7 0,0.8 -1,0.1 z m 0.8,-4.2 0,-0.1 0.5,-0.8 0.6,-0.7 0.7,-0.8 0.7,0.7 -0.6,0.7 -0.6,0.7 -0.4,0.7 -0.1,0.1 -0.8,-0.5 z m 2.5,-3.2 0.1,0 0.8,-0.7 1,-0.7 0.6,-0.4 0.5,0.8 -0.5,0.4 -1,0.7 -0.8,0.6 0,0 -0.7,-0.7 z m 3.4,-2.3 0.7,-0.5 1.2,-0.6 0.8,-0.4 0.4,0.8 -0.7,0.4 -1.2,0.6 -0.7,0.5 -0.5,-0.8 z m 3.6,-1.9 1,-0.4 1.4,-0.6 0.5,-0.1 0.4,1 -0.5,0.1 -1.4,0.6 -0.8,0.4 -0.6,-1 z m 3.8,-1.5 0,0 1.6,-0.5 1.3,-0.4 0.2,1 -1.2,0.4 -1.6,0.5 -0.1,0 -0.2,-1 z m 3.9,-1.2 1,-0.2 1.8,-0.4 0.1,-0.1 0.2,1 -0.1,0.1 -1.7,0.4 -1.1,0.2 -0.2,-1 z m 3.8,-0.9 0.7,-0.1 1.8,-0.4 0.5,0 0.2,1 -0.5,0.1 -1.8,0.2 -0.7,0.2 -0.2,-1 z m 4,-0.8 0.5,0 1.9,-0.4 0.6,0 0.1,1 -0.6,0.1 -1.9,0.2 -0.4,0.1 -0.2,-1 z m 4.1,-0.4 0.4,-0.1 2.6,-0.2 0,1 -2.5,0.4 -0.4,0 -0.1,-1.1 z m 3.9,-0.5 0.5,0 2.5,-0.1 0,1 -2.5,0.1 -0.4,0.1 -0.1,-1.1 z m 4,-0.3 0.7,0 2.3,0 0.1,1 -2.4,0 -0.6,0.1 -0.1,-1.1 z m 4.1,-0.1 1,0 2,0.1 0,1 -2,0 -1,0 0,-1.1 z m 3.9,0.1 1.3,0 1.7,0.1 0,1 -1.7,-0.1 -1.3,0 0,-1 z m 4.1,0.2 1.6,0.1 1.4,0.1 -0.1,1 -1.4,-0.1 -1.6,0 0.1,-1.1 z m 4,0.3 1.7,0.1 1.3,0.2 -0.1,1 -1.3,-0.1 -1.7,-0.2 0.1,-1 z m 3.9,0.5 1.6,0.2 1.4,0.2 -0.1,1 -1.4,-0.2 -1.6,-0.2 0.1,-1 z m 4,0.6 1.3,0.2 1.7,0.4 -0.2,1 -1.6,-0.2 -1.3,-0.4 0.1,-1 z m 3.9,0.8 1,0.2 1.7,0.5 0.4,0.1 -0.4,1 -0.4,-0.1 -1.6,-0.5 -1,-0.2 0.3,-1 z m 4,1.1 0.2,0.1 1.6,0.5 1.1,0.4 -0.4,1 -1.1,-0.4 -1.4,-0.5 -0.4,-0.1 0.4,-1 z m 3.8,1.3 0.8,0.4 1.3,0.6 0.6,0.2 -0.5,0.8 -0.5,-0.2 -1.3,-0.5 -1,-0.4 0.6,-0.9 z m 3.6,1.6 1.1,0.6 1.1,0.6 0.5,0.4 -0.5,0.8 -0.5,-0.2 -1.1,-0.7 -1,-0.5 0.4,-1 z m 3.6,2.2 0.6,0.5 0.8,0.7 0.8,0.7 0,0.1 -0.7,0.6 0,0 -0.7,-0.7 -0.8,-0.6 -0.6,-0.5 0.6,-0.8 z m 3,2.7 0.6,0.7 0.5,0.8 0.4,0.8 0.1,0.4 -1,0.2 0,-0.2 -0.4,-0.7 -0.5,-0.7 -0.6,-0.7 0.9,-0.6 z m 2,3.7 0,0.4 0.1,0.8 -0.1,1 -0.1,0.8 -0.1,0.2 -1,-0.4 0.1,-0.1 0.1,-0.7 0,-0.7 0,-0.7 -0.1,-0.4 1.1,-0.2 z m -0.6,4.2 -0.2,0.5 -0.5,0.8 -0.6,0.7 -0.5,0.6 -0.7,-0.7 0.4,-0.5 0.6,-0.7 0.5,-0.7 0.1,-0.4 0.9,0.4 z m -2.6,3.4 -0.2,0.2 -1,0.7 -1,0.7 -0.2,0.2 -0.6,-0.8 0.2,-0.2 1,-0.6 0.8,-0.7 0.2,-0.2 0.8,0.7 z m -3.3,2.4 -1,0.6 -1.2,0.6 -0.5,0.2 -0.4,-0.8 0.4,-0.2 1.2,-0.6 1,-0.6 0.5,0.8 z m -3.6,1.9 -1.2,0.5 -1.4,0.6 -0.1,0 -0.4,-0.8 0.1,-0.1 1.4,-0.5 1.2,-0.6 0.4,0.9 z m -3.7,1.5 -0.4,0.1 -1.6,0.5 -1,0.4 -0.2,-1 1,-0.2 1.4,-0.6 0.4,-0.1 0.4,0.9 z m -3.9,1.2 -1.3,0.4 -1.6,0.4 -0.2,-1 1.6,-0.4 1.3,-0.4 0.2,1 z m -3.9,0.9 -1,0.2 -1.8,0.4 -0.1,0 -0.2,-1 0.1,0 1.9,-0.4 1,-0.2 0.1,1 z m -3.9,0.7 -0.8,0.1 -1.9,0.4 -0.2,0 -0.1,-1 0.2,0 1.9,-0.4 0.7,-0.1 0.2,1 z m -4.1,0.6 -0.6,0.1 -2.4,0.2 0,-1.1 2.3,-0.1 0.6,-0.1 0.1,1 z m -3.9,0.5 -0.7,0 -2.3,0.1 -0.1,-1 2.3,-0.1 0.7,-0.1 0.1,1.1 z m -4,0.3 -1.1,0 -1.9,0.1 -0.1,-1.1 2,0 1,-0.1 0.1,1.1 z m -4.1,0.1 -1.3,0 -1.7,0 0,-1.1 1.7,0.1 1.3,-0.1 0,1.1 z m -3.9,-0.1 -1.7,0 -1.3,0 0,-1.1 1.3,0.1 1.7,0 0,1 z m -4.1,-0.2 -1.8,-0.1 -1.2,-0.1 0.1,-1 1.1,0.1 1.9,0.1 -0.1,1 z m -4,-0.3 -1.9,-0.1 -1.1,-0.1 0.1,-1 1,0.1 2,0.1 -0.1,1 z m -3.9,-0.4 -1.9,-0.4 -1.1,-0.1 0.1,-1 1.1,0.1 1.9,0.4 -0.1,1 z m -4.1,-0.7 -1.6,-0.2 -1.3,-0.4 0.2,-1 1.2,0.4 1.7,0.2 -0.2,1 z m -3.8,-0.7 -1.2,-0.4 -1.7,-0.5 -0.1,0 0.4,-1 0,0 1.7,0.5 1.2,0.4 -0.3,1 z m -4,-1.1 -0.6,-0.1 -1.6,-0.6 -0.7,-0.2 0.4,-1 0.7,0.2 1.6,0.6 0.6,0.1 -0.4,1 z m -3.8,-1.3 -1.2,-0.5 -1.3,-0.6 -0.2,0 0.4,-1 0.2,0.1 1.3,0.6 1.2,0.5 -0.4,0.9 z m -3.8,-1.6 -0.1,-0.1 -1.2,-0.6 -1.1,-0.6 -0.2,-0.1 0.6,-0.8 0.1,0 1.1,0.7 1.2,0.6 0.1,0 -0.5,0.9 z m -3.4,-2 -1,-0.7 -0.8,-0.7 -0.6,-0.5 0.7,-0.7 0.5,0.5 0.8,0.7 1,0.6 -0.6,0.8 z m -3.2,-2.7 -0.1,-0.2 -0.6,-0.8 -0.6,-0.8 -0.4,-0.7 1,-0.5 0.2,0.7 0.5,0.7 0.6,0.7 0.1,0.2 -0.7,0.7 z m -2,-3.7 -0.1,-0.7 1,-0.1 0.1,0.6 -1,0.2 z" /><rect
     style="clip-rule:evenodd;fill:#ffffff;fill-rule:evenodd"
     id="rect57"
     height="15.6"
     width="38.200001"
     y="296.91898"
     x="-574.11908"
     transform="matrix(0,-1,1,0,0,0)" /><path
     style="fill:#a6a6a6"
     inkscape:connector-curvature="0"
     id="path59"
     d="m 304.619,697.71908 0,-175.8 -1,0 0,175.8 1,0 z m 2.5,-174.9 -3,-6 -3,6 6,0 z" /><text
     style="font-style:normal;font-variant:normal;font-weight:normal;font-stretch:normal;font-size:11.03999996px;line-height:125%;font-family:Consolas;-inkscape-font-specification:'Consolas, Normal';text-align:start;writing-mode:lr-tb;text-anchor:start"
     id="text61"
     font-size="11.04"
     x="193.11839"
     y="598.33801"
     sodipodi:linespacing="125%">limitSwing[0]</text>
<path
     inkscape:connector-curvature="0"
     id="path67"
     d="m 380.919,554.51908 -2.9,-1.3 -5,-2.3 -4.9,-2 -5,-1.8 -5.2,-1.8 -5.2,-1.6 -5.2,-1.3 -5.3,-1.2 -5.3,-1.1 -5.4,-1 -5.3,-0.7 -5.4,-0.6 -5.4,-0.4 -5.5,-0.2 -5.4,-0.1 0,3 5.3,0.1 5.4,0.1 5.3,0.5 5.3,0.6 5.3,0.7 5.3,0.8 5.2,1.1 5.2,1.2 5.2,1.3 5,1.6 5,1.7 4.9,1.8 4.9,2 4.9,2.2 2.9,1.4 1.3,-2.7 z m -4.1,4.7 10.1,0.1 -6,-8.2 -4.1,8.1 z" /><text
     style="font-style:normal;font-variant:normal;font-weight:normal;font-stretch:normal;font-size:11.03999996px;line-height:125%;font-family:Consolas;-inkscape-font-specification:'Consolas, Normal';text-align:start;writing-mode:lr-tb;text-anchor:start"
     id="text69"
     font-size="11.04"
     x="332.08127"
     y="535.81946"
     sodipodi:linespacing="125%">Swing</text>
<path
     inkscape:connector-curvature="0"
     id="path71"
     d="m 354.919,640.11908 1.9,2 c 0.1,0 0.1,0.1 0.1,0.1 l 0.8,1.1 0.6,1.1 0.6,1.1 0.4,1 c 0,0.1 0,0.1 0.1,0.2 l 0.1,0.8 c 0,0 0,0.1 0,0.2 l 0,0.7 c 0,0.1 -0.1,0.2 -0.1,0.4 l -0.2,0.6 c 0,0.2 -0.1,0.4 -0.2,0.5 l -0.4,0.5 c 0,0.1 -0.1,0.1 -0.2,0.2 l -0.2,0.2 -0.1,0.1 -0.4,0.1 -0.6,0.4 -0.6,0.2 -1.1,0.1 -1.2,0.1 -1.3,-0.1 -1.4,-0.2 -1.4,-0.4 -1.6,-0.4 -1.6,-0.6 -1.7,-0.6 -1.7,-0.7 -1.7,-0.8 -1.8,-0.8 -1.8,-1.1 -1.7,-1 -1.8,-1.2 -1.8,-1.1 -1.7,-1.3 -1.6,-1.2 -1.6,-1.2 -1.3,-1.3 -1.3,-1.2 -1.1,-1.2 -1,-1.1 -0.8,-1.1 -0.6,-1.1 -0.6,-1.1 -0.4,-1 c 0,-0.1 0,-0.2 0,-0.2 l -0.1,-0.8 c -0.1,-0.1 -0.1,-0.2 -0.1,-0.2 l 0.1,-0.7 c 0,-0.1 0,-0.4 0,-0.5 l 0.2,-0.6 c 0,-0.1 0.1,-0.2 0.2,-0.4 l 0.4,-0.5 c 0.1,-0.1 0.1,-0.2 0.2,-0.2 l 0.2,-0.2 c 0.1,-0.1 0.1,-0.1 0.2,-0.1 l 0.2,-0.2 0.5,-0.2 0.6,-0.1 0.7,-0.1 0.7,-0.1 0.8,0 0.7,0 0.8,0.1 1,0.1 1,0.2 1,0.2 1.9,0.6 2.2,0.7 2.3,1 2.3,1.1 -1.3,2.8 -2.2,-1.1 -2.2,-0.8 -1.9,-0.7 -1.8,-0.6 -0.8,-0.2 -0.8,-0.1 -0.7,-0.1 -0.7,-0.1 -0.6,0 -0.6,0 -0.4,0 -0.5,0.1 -0.1,0 -0.2,0.1 -0.4,0.1 0.2,-0.1 -0.2,0.2 0.2,-0.2 -0.4,0.5 0.2,-0.5 -0.2,0.6 0.1,-0.4 -0.1,0.6 0,-0.2 0.1,0.7 0,-0.2 0.2,0.7 0.4,0.7 0.6,1 0.6,1 1,1 1,1.1 1.2,1.2 1.2,1.1 1.4,1.2 1.6,1.2 1.6,1.2 1.7,1.1 1.7,1.1 1.7,1.1 1.7,0.8 1.7,0.8 1.7,0.8 1.6,0.7 1.6,0.6 1.4,0.5 1.4,0.4 1.2,0.4 1.2,0.1 1,0.1 0.8,0 0.7,-0.1 0.2,0 0.1,-0.1 0.4,-0.2 -0.2,0.1 0.2,-0.1 -0.2,0.2 0.5,-0.5 -0.2,0.4 0.1,-0.6 0,0.1 0,-0.7 0,0.4 -0.1,-0.8 0,0.1 -0.1,-0.6 -0.5,-0.8 -0.5,-0.8 -0.8,-1.1 0.1,0.1 -1.9,-1.9 2.3,-2.2 z m -3,5.4 -3.6,-9.4 9.7,2.8 -6.1,6.6 z" /><path
     inkscape:connector-curvature="0"
     id="path73"
     d="m 336.519,659.21908 3.1,-5.3 -2.3,-1.3 0.5,-0.7 5.4,3.2 -0.4,0.7 -2.3,-1.3 -3.1,5.3 -0.9,-0.6 z m 4.3,2.5 2,-5.6 0.8,0.6 -1.7,4.3 0,0 3,-3 0.8,0.6 -1.3,4.1 0,0 3.2,-3.6 0.7,0.4 -4.1,4.4 -0.8,-0.5 1.3,-4.3 0,0 -3.2,3.1 -0.7,-0.5 z m 7.3,4.3 2.5,-4.3 -1.8,-1.1 0.4,-0.7 2.8,1.7 -3,5 -0.9,-0.6 z m 3.5,-6.2 0.7,-1.1 1.2,0.6 -0.7,1.2 -1.2,-0.7 z m 0.5,8.4 0.5,-0.8 c 0.6,0.7 1.1,1.2 1.6,1.6 0.5,0.2 0.7,0.4 1.1,0.4 0.4,-0.1 0.6,-0.1 0.7,-0.4 0.2,-0.4 0,-0.7 -0.5,-1.3 l -0.7,-0.8 c -0.6,-0.7 -0.7,-1.4 -0.4,-2 0.2,-0.5 0.6,-0.7 1.1,-0.7 0.5,0 1.1,0.1 1.7,0.5 0.5,0.2 1.1,0.7 1.6,1.2 l -0.5,0.7 c -0.5,-0.5 -1,-1 -1.4,-1.2 -0.4,-0.2 -0.6,-0.4 -1,-0.4 -0.2,0 -0.5,0.1 -0.6,0.4 -0.1,0.2 0,0.6 0.4,1 l 1,1.1 c 0.4,0.5 0.5,0.8 0.6,1.1 0,0.4 0,0.7 -0.2,1 -0.2,0.5 -0.7,0.8 -1.2,0.8 -0.6,0 -1.2,-0.1 -1.9,-0.5 -0.8,-0.7 -1.3,-1.1 -1.9,-1.7 l 0,0 z m 9.8,6.1 c -0.5,-0.2 -1,-0.5 -1.4,-0.7 -0.7,-0.5 -1.1,-0.8 -1.2,-1.3 -0.1,-0.4 0,-1 0.5,-1.8 l 1.4,-2.4 -1.3,-0.7 0.5,-0.7 1.2,0.7 0.7,-1.1 0.8,0.6 -0.6,1.1 2.2,1.3 -0.4,0.7 -2.3,-1.3 -1.4,2.5 c -0.2,0.4 -0.4,0.5 -0.4,0.6 0,0.1 0,0.4 0.1,0.5 0.1,0.2 0.4,0.5 0.7,0.7 0.5,0.2 0.8,0.5 1.2,0.6 l -0.3,0.7 z" /></svg>