<?xml version="1.0" encoding="utf-8"?>
<!DOCTYPE svg PUBLIC "-//W3C//DTD SVG 1.1//EN" "http://www.w3.org/Graphics/SVG/1.1/DTD/svg11.dtd">
<svg xmlns="http://www.w3.org/2000/svg" xmlns:xlink="http://www.w3.org/1999/xlink" version="1.1" baseProfile="full" width="261.333" height="336" viewBox="0 0 261.33 336.00" enable-background="new 0 0 261.33 336.00" xml:space="preserve">
	<path fill="#000000" fill-opacity="1" stroke-linejoin="round" d="M 27.1718,157.357L 27.1718,155.649L 27.2758,154.795L 27.2758,154.264L 28.4531,154.368L 28.3438,154.904L 28.2398,155.759L 28.2398,157.357M 27.5985,152.983L 27.5985,152.879L 28.0265,152.024L 28.2398,151.273L 28.6665,150.425L 28.8798,149.997L 29.7292,150.529L 29.6252,150.743L 29.1972,151.597L 28.9838,152.341L 28.7705,153.092L 28.6665,153.196M 29.3065,148.931L 29.4118,148.716L 30.0518,147.863L 30.5838,147.117L 31.1198,146.368L 31.9732,147.117L 31.4371,147.649L 30.9065,148.503L 30.3692,149.248L 30.1558,149.675M 31.8638,145.519L 32.7185,144.664L 33.4638,143.811L 34.1038,143.273L 34.8545,144.024L 34.2132,144.555L 32.7185,146.049L 32.6091,146.155M 34.9585,142.425L 36.2398,141.571L 37.5212,140.503L 38.1558,141.357L 36.8798,142.212L 35.7025,143.273M 38.4785,139.863L 40.5051,138.581L 41.2505,138.155L 41.7865,139.008L 41.0358,139.436L 39.1198,140.716M 42.1038,137.519L 42.7451,137.092L 44.8798,135.915L 45.4118,136.983L 43.3852,138.049L 42.6398,138.581M 45.9425,135.597L 47.9731,134.529L 48.7185,134.103L 49.2505,135.169L 48.5052,135.383L 46.3692,136.451M 49.7865,133.784L 50.9585,133.248L 52.7705,132.503L 53.1971,133.571L 51.3852,134.212L 50.2132,134.743M 53.8385,132.185L 53.9425,132.185L 56.9318,131.117L 57.1452,131.972L 54.3692,133.035L 54.2652,133.144M 57.8905,130.795L 60.4532,129.94L 60.9838,129.836L 61.1971,130.904L 60.6665,131.008L 58.1038,131.863M 61.9425,129.519L 63.8638,128.983L 65.0358,128.555L 65.2505,129.623L 64.0785,130.049L 62.1558,130.581M 66.1038,128.341L 67.3852,127.915L 69.1972,127.488L 69.4118,128.555L 67.7025,128.983L 66.3171,129.409M 70.1558,127.273L 71.0105,127.065L 73.3598,126.529L 73.5732,127.701L 71.2238,128.128L 70.3691,128.341M 74.4265,126.425L 74.9585,126.316L 77.6252,125.784L 77.7291,126.852L 75.1718,127.383L 74.6398,127.488M 78.5838,125.461L 78.6932,125.461L 81.6771,124.931L 81.8905,125.997L 78.9065,126.529L 78.6932,126.639M 82.8545,124.821L 86.0518,124.289L 86.1558,125.357L 82.9585,125.888M 87.1198,124.185L 90.3171,123.759L 90.4265,124.821L 87.2238,125.248M 91.2758,123.759L 94.4785,123.331L 94.5838,124.399L 91.3852,124.821M 95.5465,123.221L 98.7451,123.008L 98.8545,124.076L 95.6505,124.503M 99.7025,122.795L 99.8118,122.795L 102.906,122.691L 103.01,123.759L 99.9172,123.972L 99.8118,123.972M 104.078,122.581L 104.292,122.581L 107.276,122.477L 107.276,123.545L 104.292,123.649L 104.078,123.649M 108.344,122.264L 111.546,122.264L 111.546,123.331L 108.88,123.436L 108.453,123.436M 112.718,122.155L 115.917,122.155L 115.917,123.221L 113.464,123.331L 112.718,123.331M 116.88,122.155L 120.078,122.155L 120.078,123.221L 116.88,123.221M 121.145,122.155L 122.854,122.155L 124.344,122.264L 124.344,123.331L 121.036,123.331L 121.036,122.155M 125.521,122.264L 127.437,122.264L 128.718,122.368L 128.609,123.436L 127.437,123.436L 125.521,123.331M 129.677,122.477L 131.812,122.581L 132.88,122.691L 132.88,123.759L 131.812,123.649L 129.677,123.545M 134.052,122.691L 136.396,122.795L 137.25,122.904L 137.145,123.972L 136.396,123.972L 133.942,123.759M 138.317,123.117L 140.88,123.221L 141.521,123.331L 141.412,124.399L 140.77,124.399L 138.213,124.185M 142.478,123.436L 145.036,123.649L 145.677,123.649L 145.573,124.821L 144.932,124.716L 142.369,124.503M 146.745,123.863L 149.306,124.289L 149.942,124.399L 149.838,125.461L 149.197,125.357L 146.64,125.144M 150.906,124.503L 153.36,124.931L 154.104,125.035L 154,126.103L 153.25,125.997L 150.797,125.571M 155.172,125.144L 157.521,125.571L 158.369,125.675L 158.265,126.852L 155.062,126.212M 159.437,125.888L 161.36,126.316L 162.64,126.529L 162.426,127.597L 161.25,127.383L 159.333,126.956M 163.598,126.743L 165.093,126.956L 166.797,127.383L 166.584,128.451L 164.88,128.024L 163.385,127.811M 167.864,127.701L 168.932,127.915L 170.958,128.451L 170.745,129.623L 168.718,128.983L 167.65,128.769M 171.917,128.879L 172.453,128.983L 175.01,129.732L 174.797,130.795L 172.13,130.049L 171.702,129.94M 176.078,129.94L 179.172,131.008L 178.745,132.076L 175.76,131.008M 180.13,131.436L 182.265,132.185L 183.12,132.399L 182.693,133.461L 181.838,133.035L 179.702,132.289M 184.078,132.821L 185.25,133.357L 187.172,134.103L 186.64,135.169L 184.822,134.425L 183.65,133.888M 188.026,134.425L 188.13,134.425L 190.797,135.701L 190.906,135.811L 190.369,136.664L 190.265,136.664L 187.598,135.383M 191.864,136.341L 193.36,137.092L 194.64,137.836L 194.104,138.691L 192.822,137.94L 191.437,137.196M 195.702,138.477L 195.702,138.581L 197.838,139.972L 198.369,140.185L 197.729,141.035L 197.306,140.821L 195.172,139.436L 195.062,139.436M 199.333,140.821L 199.973,141.357L 201.786,142.852L 201.145,143.701L 199.333,142.212L 198.693,141.675M 202.64,143.701L 203.385,144.451L 204.13,145.305L 204.77,145.94L 204.026,146.691L 203.385,145.94L 202.745,145.196L 202,144.555L 201.89,144.451M 205.521,146.904L 205.625,146.904L 206.265,147.759L 206.797,148.503L 207.333,149.357L 207.333,149.571L 206.478,149.997L 206.369,149.888L 205.942,149.144L 205.412,148.399L 204.77,147.649L 204.77,147.545M 207.76,150.639L 207.973,151.169L 208.396,152.024L 208.609,152.879L 208.718,153.732L 207.65,153.94L 207.546,153.196L 207.333,152.341L 206.906,151.597L 206.797,151.065M 209.036,154.795L 209.036,155.545L 209.145,156.399L 209.036,157.248L 209.036,158.103L 207.864,157.997L 207.973,157.357L 207.973,155.759L 207.864,155.008M 208.822,159.273L 208.718,160.024L 208.505,160.879L 208.078,161.732L 207.864,162.264L 207.01,161.836L 207.12,161.305L 207.546,160.555L 207.76,159.701L 207.864,158.956M 207.224,163.436L 207.224,163.545L 206.693,164.399L 206.156,165.248L 205.521,165.997L 205.412,166.103L 204.666,165.461L 204.666,165.357L 205.306,164.607L 205.838,163.863L 206.265,163.117L 206.369,162.904M 204.88,166.956L 204.24,167.701L 203.598,168.451L 202.745,169.196L 202.745,169.305L 202,168.555L 202,168.451L 202.745,167.701L 204.13,166.316M 201.786,170.155L 199.973,171.545L 199.333,172.076L 198.693,171.331L 199.333,170.795L 201.145,169.305M 198.478,172.716L 198.052,173.144L 195.702,174.529L 195.062,173.675L 195.172,173.675L 197.306,172.289L 197.729,172.076M 194.745,175.065L 193.464,175.915L 191.973,176.664L 191.546,175.597L 192.932,174.852L 194.213,174.103M 191.01,177.196L 190.906,177.196L 188.24,178.477L 188.13,178.477L 187.702,177.623L 190.369,176.341L 190.478,176.237M 187.062,179.008L 185.25,179.759L 184.078,180.185L 183.65,179.331L 184.822,178.795L 186.64,178.049M 183.224,180.503L 182.369,180.931L 180.24,181.675L 179.812,180.607L 181.942,179.863L 182.693,179.649M 179.062,182.103L 175.973,183.169L 175.76,182.103L 178.745,181.035M 175.01,183.383L 172.453,184.128L 171.917,184.237L 171.702,183.169L 172.13,183.065L 174.797,182.316M 170.958,184.555L 168.932,185.092L 167.864,185.305L 167.65,184.237L 168.718,184.024L 170.745,183.488M 166.693,185.519L 165.197,185.94L 163.702,186.368L 163.489,185.305L 164.984,184.879L 166.693,184.451M 162.64,186.581L 161.36,186.795L 159.437,187.221L 159.333,186.049L 161.25,185.836L 162.426,185.409M 158.369,187.331L 157.521,187.436L 155.172,187.863L 155.062,186.795L 157.197,186.368L 158.265,186.264M 154.104,188.076L 153.36,188.185L 150.906,188.607L 150.797,187.436L 153.25,187.221L 154,187.117M 149.942,188.716L 149.306,188.821L 146.745,189.035L 146.64,187.972L 149.197,187.545L 149.838,187.545M 145.677,189.248L 145.036,189.357L 142.478,189.571L 142.369,188.503L 144.932,188.076L 145.573,188.076M 141.521,189.784L 140.88,189.784L 138.317,189.997L 138.213,188.931L 140.77,188.716L 141.412,188.607M 137.145,190.103L 136.396,190.103L 133.942,190.212L 133.942,189.144L 136.396,189.035L 137.145,188.931M 132.88,190.425L 132.026,190.529L 129.677,190.529L 129.677,189.461L 131.812,189.357L 132.88,189.357M 128.718,190.639L 127.437,190.639L 125.521,190.743L 125.412,189.571L 127.437,189.571L 128.609,189.461M 124.344,190.743L 121.036,190.743L 121.036,189.675L 122.745,189.675L 124.24,189.571L 124.24,190.743M 120.078,190.743L 116.88,190.743L 116.88,189.675L 120.078,189.675M 115.917,190.743L 112.609,190.743L 112.718,189.675L 115.917,189.675M 111.546,190.743L 108.88,190.639L 108.344,190.639L 108.344,189.571L 108.984,189.571L 111.546,189.675M 107.276,190.639L 104.292,190.529L 104.078,190.529L 104.078,189.357L 104.292,189.357L 107.276,189.461M 102.906,190.425L 99.8118,190.212L 99.7025,190.212L 99.8118,189.144L 103.01,189.357M 98.7451,190.103L 95.5465,189.675L 95.6505,188.607L 98.8545,188.821M 94.4785,189.784L 91.2758,189.357L 91.3852,188.289L 94.5838,188.503M 90.3171,189.248L 87.1198,188.821L 87.2238,187.649L 90.4265,188.185M 85.9425,188.716L 82.8545,188.185L 82.9585,187.117L 86.1558,187.545M 81.6771,188.076L 78.9065,187.545L 78.6932,187.436L 78.7971,186.368L 79.0105,186.368L 81.9998,186.904M 77.5211,187.331L 74.9585,186.795L 74.4265,186.691L 74.6398,185.623L 75.1718,185.732L 77.7291,186.264M 73.3598,186.477L 71.0105,185.94L 70.1558,185.836L 70.3691,184.769L 71.2238,184.879L 73.3598,185.409M 69.1972,185.519L 67.4892,185.092L 66.1038,184.664L 66.3171,183.597L 67.7025,183.811L 69.4118,184.341M 65.0358,184.555L 63.8638,184.128L 61.9425,183.597L 62.1558,182.529L 64.0785,183.065L 65.2505,183.273M 60.9838,183.273L 60.4532,183.169L 57.8905,182.425L 58.1038,181.357L 60.6665,182.103L 61.1971,182.212M 56.8225,181.997L 54.0518,180.931L 53.8385,180.931L 54.2652,179.863L 54.3692,179.863L 57.1452,180.931M 52.7705,180.399L 50.9585,179.759L 49.7865,179.221L 50.2132,178.155L 51.3852,178.691L 53.1971,179.436M 48.8225,178.904L 48.1878,178.477L 45.8385,177.409L 46.3692,176.555L 48.5052,177.623L 49.2505,177.836M 44.9838,176.983L 42.9585,175.915L 42.2132,175.383L 42.7451,174.529L 43.4892,174.956L 45.5211,176.128M 41.2505,174.956L 40.5051,174.529L 38.4785,173.248L 39.1198,172.399L 41.0358,173.675L 41.7865,174.103M 37.5212,172.607L 36.2398,171.545L 34.9585,170.477L 35.7025,169.732L 36.8798,170.795L 38.1558,171.649M 34.2132,169.94L 33.5732,169.305L 32.0785,167.811L 31.9732,167.701L 32.7185,166.956L 32.8225,167.065L 33.5732,167.811L 34.8545,169.092M 31.1198,166.743L 30.5838,166.103L 30.0518,165.357L 29.4118,164.503L 29.3065,164.076L 30.1558,163.545L 30.2652,163.972L 30.9065,164.716L 31.4371,165.461L 31.9732,166.103M 28.8798,163.117L 28.2398,161.836L 28.0265,160.983L 27.8118,160.237L 27.7025,160.024L 28.7705,159.915L 28.8798,159.915L 29.0931,160.769L 29.3065,161.519L 29.7292,162.264L 29.8385,162.691M 27.2758,158.956L 27.2758,158.425L 27.1718,157.571L 28.2398,157.461L 28.3438,158.212L 28.4531,158.852"/>
	<path fill="#FFFFFF" fill-opacity="1" fill-rule="evenodd" stroke-linejoin="round" d="M 186.104,156.716L 202.958,127.915L 213.306,133.997L 196.666,162.795"/>
	<path fill="#000000" fill-opacity="1" stroke-linejoin="round" d="M 2.53969,190.916L 0.832168,190.916L 0.832168,190.091L 3.55242,190.091L 3.55242,197.381L 5.27172,197.381L 5.27172,198.217L 0.643752,198.217L 0.643752,197.381L 2.53969,197.381L 2.53969,190.916 Z "/>
	<path fill="#000000" fill-opacity="1" stroke-linejoin="round" d="M 9.01649,193.271L 7.30897,193.271L 7.30897,192.446L 10.0292,192.446L 10.0292,197.381L 11.7485,197.381L 11.7485,198.217L 7.12055,198.217L 7.12055,197.381L 9.01649,197.381L 9.01649,193.271 Z M 9.36977,190.021C 9.48103,190.021 9.58468,190.041 9.68073,190.081C 9.77678,190.121 9.86031,190.178 9.93134,190.251C 10.0024,190.324 10.058,190.407 10.0983,190.501C 10.1386,190.596 10.1588,190.698 10.1588,190.81C 10.1588,190.917 10.1386,191.019 10.0983,191.115C 10.058,191.211 10.0024,191.295 9.93134,191.368C 9.86031,191.441 9.77678,191.498 9.68073,191.538C 9.58468,191.578 9.48103,191.599 9.36977,191.599C 9.25851,191.599 9.15486,191.578 9.05881,191.538C 8.96276,191.498 8.87922,191.441 8.8082,191.368C 8.73718,191.295 8.68152,191.211 8.64122,191.115C 8.60092,191.019 8.58078,190.917 8.58078,190.81C 8.58078,190.698 8.60092,190.596 8.64122,190.501C 8.68152,190.407 8.73718,190.324 8.8082,190.251C 8.87922,190.178 8.96276,190.121 9.05881,190.081C 9.15486,190.041 9.25851,190.021 9.36977,190.021 Z "/>
	<path fill="#000000" fill-opacity="1" stroke-linejoin="round" d="M 17.6483,198.217L 17.6483,194.073C 17.6483,193.893 17.642,193.745 17.6294,193.63C 17.6169,193.515 17.5971,193.425 17.5703,193.357C 17.5434,193.29 17.5093,193.244 17.468,193.217C 17.4266,193.19 17.3755,193.176 17.3145,193.176C 17.2428,193.176 17.1763,193.2 17.1152,193.245C 17.0542,193.292 16.9886,193.366 16.9186,193.47C 16.8485,193.573 16.7714,193.71 16.6871,193.88C 16.6028,194.051 16.5032,194.261 16.3883,194.51L 16.3883,198.217L 15.3873,198.217L 15.3873,194.182C 15.3873,193.971 15.381,193.801 15.3684,193.671C 15.3557,193.54 15.3359,193.439 15.3088,193.366C 15.2818,193.293 15.2466,193.244 15.2034,193.217C 15.1602,193.19 15.1079,193.176 15.0465,193.176C 14.9818,193.176 14.9205,193.196 14.8628,193.234C 14.8051,193.272 14.7411,193.341 14.6707,193.441C 14.6004,193.541 14.522,193.676 14.4355,193.849C 14.349,194.021 14.2463,194.242 14.1273,194.51L 14.1273,198.217L 13.1263,198.217L 13.1263,192.446L 13.9584,192.446L 14.0084,193.544C 14.1081,193.325 14.2051,193.139 14.2992,192.985C 14.3934,192.832 14.4903,192.708 14.5901,192.614C 14.6899,192.52 14.7964,192.451 14.9096,192.407C 15.0229,192.362 15.1486,192.34 15.2868,192.34C 15.5979,192.34 15.8341,192.442 15.9953,192.646C 16.1566,192.849 16.2372,193.164 16.2372,193.59C 16.3296,193.391 16.42,193.213 16.5084,193.057C 16.5969,192.902 16.692,192.771 16.794,192.666C 16.8959,192.56 17.0084,192.48 17.1315,192.424C 17.2546,192.368 17.397,192.34 17.5587,192.34C 18.2857,192.34 18.6493,192.898 18.6493,194.014L 18.6493,198.217L 17.6483,198.217 Z "/>
	<path fill="#000000" fill-opacity="1" stroke-linejoin="round" d="M 22.0054,193.271L 20.2979,193.271L 20.2979,192.446L 23.0182,192.446L 23.0182,197.381L 24.7374,197.381L 24.7374,198.217L 20.1095,198.217L 20.1095,197.381L 22.0054,197.381L 22.0054,193.271 Z M 22.3587,190.021C 22.47,190.021 22.5736,190.041 22.6697,190.081C 22.7657,190.121 22.8492,190.178 22.9203,190.251C 22.9913,190.324 23.0469,190.407 23.0872,190.501C 23.1275,190.596 23.1477,190.698 23.1477,190.81C 23.1477,190.917 23.1275,191.019 23.0872,191.115C 23.0469,191.211 22.9913,191.295 22.9203,191.368C 22.8492,191.441 22.7657,191.498 22.6697,191.538C 22.5736,191.578 22.47,191.599 22.3587,191.599C 22.2474,191.599 22.1438,191.578 22.0477,191.538C 21.9517,191.498 21.8682,191.441 21.7971,191.368C 21.7261,191.295 21.6704,191.211 21.6301,191.115C 21.5899,191.019 21.5697,190.917 21.5697,190.81C 21.5697,190.698 21.5899,190.596 21.6301,190.501C 21.6704,190.407 21.7261,190.324 21.7971,190.251C 21.8682,190.178 21.9517,190.121 22.0477,190.081C 22.1438,190.041 22.2474,190.021 22.3587,190.021 Z "/>
	<path fill="#000000" fill-opacity="1" stroke-linejoin="round" d="M 31.1671,198.134C 30.9413,198.193 30.7077,198.235 30.4664,198.261C 30.225,198.286 29.9799,198.299 29.731,198.299C 29.0072,198.299 28.4671,198.135 28.1109,197.807C 27.7547,197.479 27.5766,196.976 27.5766,196.297L 27.5766,193.282L 25.9622,193.282L 25.9622,192.446L 27.5766,192.446L 27.5766,190.857L 28.5775,190.598L 28.5775,192.446L 31.1671,192.446L 31.1671,193.282L 28.5775,193.282L 28.5775,196.215C 28.5775,196.629 28.6876,196.938 28.9076,197.144C 29.1277,197.349 29.4521,197.451 29.8808,197.451C 30.0646,197.451 30.2656,197.437 30.4839,197.408C 30.7021,197.38 30.9299,197.335 31.1671,197.275L 31.1671,198.134 Z "/>
	<path fill="#000000" fill-opacity="1" stroke-linejoin="round" d="M 37.8088,196.183C 37.8088,196.539 37.7359,196.852 37.5901,197.12C 37.4443,197.389 37.241,197.612 36.9801,197.79C 36.7192,197.969 36.4055,198.102 36.0392,198.19C 35.6728,198.278 35.269,198.323 34.8276,198.323C 34.6282,198.323 34.4296,198.315 34.232,198.3C 34.0344,198.284 33.8445,198.265 33.6622,198.242C 33.4799,198.219 33.3082,198.192 33.1471,198.161C 32.986,198.131 32.8402,198.098 32.7098,198.064L 32.7098,197.074C 32.9975,197.181 33.3206,197.264 33.6792,197.325C 34.0378,197.386 34.4454,197.416 34.9018,197.416C 35.2318,197.416 35.5128,197.39 35.7448,197.338C 35.9768,197.287 36.1666,197.21 36.3143,197.109C 36.4619,197.008 36.5693,196.885 36.6365,196.739C 36.7036,196.594 36.7372,196.428 36.7372,196.24C 36.7372,196.037 36.6806,195.864 36.5675,195.72C 36.4544,195.576 36.3059,195.448 36.1219,195.334C 35.9379,195.221 35.728,195.118 35.4923,195.024C 35.2565,194.93 35.0159,194.833 34.7705,194.733C 34.5251,194.634 34.2846,194.525 34.0489,194.408C 33.8132,194.291 33.6033,194.153 33.4193,193.994C 33.2353,193.835 33.0868,193.648 32.9737,193.433C 32.8606,193.219 32.804,192.964 32.804,192.668C 32.804,192.411 32.8577,192.158 32.9651,191.909C 33.0725,191.66 33.2393,191.438 33.4656,191.245C 33.6918,191.051 33.9824,190.895 34.3372,190.776C 34.692,190.657 35.1149,190.598 35.606,190.598C 35.7324,190.598 35.8695,190.603 36.0172,190.615C 36.1649,190.626 36.3145,190.642 36.466,190.664C 36.6175,190.685 36.767,190.708 36.9147,190.735C 37.0623,190.762 37.1994,190.791 37.326,190.821L 37.326,191.74C 37.0309,191.655 36.7357,191.591 36.4405,191.547C 36.1453,191.503 35.8597,191.481 35.5837,191.481C 34.997,191.481 34.5656,191.579 34.2896,191.775C 34.0136,191.971 33.8756,192.234 33.8756,192.565C 33.8756,192.768 33.9322,192.942 34.0453,193.088C 34.1584,193.234 34.3069,193.364 34.4909,193.479C 34.6749,193.594 34.8848,193.699 35.1206,193.793C 35.3563,193.887 35.5969,193.984 35.8423,194.083C 36.0877,194.183 36.3283,194.292 36.5641,194.411C 36.7998,194.53 37.0097,194.671 37.1937,194.834C 37.3777,194.997 37.5262,195.188 37.6393,195.406C 37.7523,195.625 37.8088,195.884 37.8088,196.183 Z "/>
	<path fill="#000000" fill-opacity="1" stroke-linejoin="round" d="M 44.8568,192.446L 44.0219,198.217L 42.8086,198.217L 41.9737,195.798L 41.8068,195.211L 41.6172,195.833L 40.8187,198.217L 39.64,198.217L 38.8039,192.446L 39.7815,192.446L 40.2667,196.372L 40.3701,197.239L 40.6174,196.481L 41.4561,193.883L 42.1748,193.883L 43.0789,196.447L 43.3376,197.205L 43.4239,196.401L 43.8677,192.446L 44.8568,192.446 Z "/>
	<path fill="#000000" fill-opacity="1" stroke-linejoin="round" d="M 47.948,193.271L 46.2404,193.271L 46.2404,192.446L 48.9607,192.446L 48.9607,197.381L 50.68,197.381L 50.68,198.217L 46.052,198.217L 46.052,197.381L 47.948,197.381L 47.948,193.271 Z M 48.3012,190.021C 48.4125,190.021 48.5161,190.041 48.6122,190.081C 48.7082,190.121 48.7918,190.178 48.8628,190.251C 48.9338,190.324 48.9895,190.407 49.0298,190.501C 49.0701,190.596 49.0902,190.698 49.0902,190.81C 49.0902,190.917 49.0701,191.019 49.0298,191.115C 48.9895,191.211 48.9338,191.295 48.8628,191.368C 48.7918,191.441 48.7082,191.498 48.6122,191.538C 48.5161,191.578 48.4125,191.599 48.3012,191.599C 48.19,191.599 48.0863,191.578 47.9903,191.538C 47.8942,191.498 47.8107,191.441 47.7397,191.368C 47.6686,191.295 47.613,191.211 47.5727,191.115C 47.5324,191.019 47.5122,190.917 47.5122,190.81C 47.5122,190.698 47.5324,190.596 47.5727,190.501C 47.613,190.407 47.6686,190.324 47.7397,190.251C 47.8107,190.178 47.8942,190.121 47.9903,190.081C 48.0863,190.041 48.19,190.021 48.3012,190.021 Z "/>
	<path fill="#000000" fill-opacity="1" stroke-linejoin="round" d="M 52.4582,192.446L 53.3498,192.446L 53.3901,193.377C 53.5588,193.178 53.7217,193.012 53.8787,192.879C 54.0358,192.747 54.19,192.64 54.3414,192.559C 54.4928,192.479 54.647,192.422 54.8042,192.389C 54.9613,192.357 55.1241,192.34 55.2927,192.34C 55.8868,192.34 56.3361,192.516 56.6409,192.867C 56.9456,193.217 57.0979,193.745 57.0979,194.451L 57.0979,198.217L 56.0969,198.217L 56.0969,194.529C 56.0969,194.076 56.0126,193.742 55.844,193.525C 55.6754,193.308 55.4245,193.2 55.0914,193.2C 54.9687,193.2 54.8489,193.218 54.732,193.255C 54.6151,193.291 54.4935,193.354 54.3671,193.445C 54.2407,193.535 54.1037,193.656 53.9562,193.81C 53.8087,193.963 53.643,194.155 53.4591,194.385L 53.4591,198.217L 52.4582,198.217L 52.4582,192.446 Z "/>
	<path fill="#000000" fill-opacity="1" stroke-linejoin="round" d="M 63.1292,193.259C 63.2366,193.393 63.32,193.55 63.3795,193.729C 63.439,193.907 63.4687,194.1 63.4687,194.308C 63.4687,194.607 63.414,194.88 63.3047,195.127C 63.1953,195.375 63.0409,195.586 62.8415,195.763C 62.642,195.939 62.4033,196.076 62.1252,196.174C 61.8472,196.272 61.5413,196.321 61.2075,196.321C 60.966,196.321 60.7398,196.295 60.5289,196.243C 60.3179,196.191 60.1511,196.127 60.0283,196.051C 59.9558,196.158 59.8948,196.259 59.8453,196.355C 59.7958,196.451 59.7711,196.558 59.7711,196.677C 59.7711,196.822 59.841,196.943 59.981,197.039C 60.121,197.135 60.306,197.186 60.5361,197.194L 62.0549,197.251C 62.3426,197.259 62.6083,197.295 62.8519,197.36C 63.0954,197.426 63.3044,197.519 63.4788,197.642C 63.6533,197.765 63.7894,197.916 63.8872,198.096C 63.9851,198.276 64.034,198.485 64.034,198.723C 64.034,198.979 63.9784,199.223 63.8673,199.453C 63.7561,199.682 63.5845,199.885 63.3525,200.059C 63.1205,200.233 62.8262,200.372 62.4697,200.476C 62.1132,200.579 61.6895,200.631 61.1987,200.631C 60.7309,200.631 60.3331,200.593 60.0053,200.519C 59.6775,200.444 59.4082,200.341 59.1973,200.209C 58.9863,200.077 58.833,199.92 58.7372,199.738C 58.6414,199.556 58.5935,199.356 58.5935,199.138C 58.5935,198.859 58.6584,198.614 58.7882,198.403C 58.9181,198.193 59.1185,197.99 59.3896,197.795C 59.2905,197.749 59.2047,197.691 59.1321,197.622C 59.0596,197.553 59.0004,197.477 58.9546,197.395C 58.9087,197.312 58.8744,197.225 58.8515,197.133C 58.8286,197.041 58.8172,196.951 58.8172,196.862C 58.8172,196.613 58.8754,196.385 58.9919,196.177C 59.1084,195.97 59.2467,195.775 59.4069,195.59C 59.3341,195.502 59.2698,195.416 59.2142,195.332C 59.1586,195.247 59.1106,195.156 59.0704,195.058C 59.0302,194.961 58.9995,194.855 58.9784,194.742C 58.9573,194.629 58.9467,194.499 58.9467,194.354C 58.9467,194.055 59.0014,193.781 59.1108,193.534C 59.2201,193.287 59.3736,193.075 59.5712,192.898C 59.7688,192.722 60.0067,192.585 60.2849,192.487C 60.563,192.389 60.871,192.34 61.2086,192.34C 61.3507,192.34 61.4869,192.35 61.6174,192.37C 61.7479,192.389 61.8629,192.415 61.9625,192.446L 64.0575,192.446L 64.0575,193.259L 63.1292,193.259 Z M 59.6533,199.051C 59.6533,199.322 59.7953,199.52 60.0792,199.644C 60.3631,199.768 60.7582,199.83 61.2646,199.83C 61.583,199.83 61.8506,199.801 62.0674,199.744C 62.2841,199.687 62.4587,199.611 62.591,199.518C 62.7234,199.424 62.8184,199.317 62.876,199.197C 62.9336,199.077 62.9624,198.954 62.9624,198.828C 62.9624,198.595 62.8664,198.423 62.6746,198.312C 62.4827,198.201 62.1893,198.136 61.7941,198.117L 60.2863,198.065C 60.1597,198.149 60.0551,198.232 59.9726,198.312C 59.8901,198.392 59.8259,198.473 59.7798,198.555C 59.7337,198.637 59.7011,198.72 59.682,198.802C 59.6629,198.884 59.6533,198.967 59.6533,199.051 Z M 59.9595,194.331C 59.9595,194.515 59.9901,194.683 60.0515,194.837C 60.1128,194.99 60.1991,195.12 60.3104,195.228C 60.4216,195.335 60.553,195.418 60.7044,195.478C 60.8558,195.537 61.0235,195.567 61.2075,195.567C 61.407,195.567 61.5844,195.533 61.7398,195.466C 61.8951,195.399 62.0255,195.308 62.131,195.193C 62.2364,195.078 62.3169,194.946 62.3725,194.796C 62.4282,194.647 62.456,194.492 62.456,194.331C 62.456,194.147 62.4253,193.978 62.364,193.824C 62.3027,193.671 62.2164,193.541 62.1051,193.433C 61.9938,193.326 61.8625,193.243 61.711,193.183C 61.5595,193.124 61.3917,193.094 61.2075,193.094C 61.0082,193.094 60.8309,193.129 60.6756,193.198C 60.5203,193.267 60.3899,193.358 60.2844,193.471C 60.1789,193.584 60.0984,193.715 60.0428,193.865C 59.9873,194.014 59.9595,194.169 59.9595,194.331 Z "/>
	<path fill="#000000" fill-opacity="1" stroke-linejoin="round" d="M 69.3567,200.572L 66.5187,200.572L 66.5187,189.891L 69.3567,189.891L 69.3567,190.692L 67.4726,190.692L 67.4726,199.771L 69.3567,199.771L 69.3567,200.572 Z "/>
	<path fill="#000000" fill-opacity="1" stroke-linejoin="round" d="M 76.7403,198.217L 72.0181,198.217L 72.0181,197.286L 73.9494,197.286L 73.9494,191.799L 72.1504,192.776L 71.7826,191.928L 74.1737,190.668L 75.0563,190.668L 75.0563,197.286L 76.7403,197.286L 76.7403,198.217 Z "/>
	<path fill="#000000" fill-opacity="1" stroke-linejoin="round" d="M 82.0042,200.572L 79.1661,200.572L 79.1661,199.771L 81.0385,199.771L 81.0385,190.692L 79.1661,190.692L 79.1661,189.891L 82.0042,189.891L 82.0042,200.572 Z "/>
	<path fill="#7E7E7E" fill-opacity="1" stroke-linejoin="round" d="M 124.451,73.8865L 124.451,81.4708L 123.28,81.4708L 116.408,76.1551L 116.408,81.3394L 115.039,81.3394L 115.039,74.1958L 116.314,74.1958L 123.073,79.4176L 123.073,73.8865L 124.451,73.8865 Z "/>
	<path fill="#7E7E7E" fill-opacity="1" stroke-linejoin="round" d="M 121.883,52.9351C 122.214,52.9351 122.511,52.9914 122.773,53.1039C 123.036,53.2163 123.269,53.3695 123.472,53.5633C 123.675,53.7571 123.848,53.9821 123.992,54.2383C 124.136,54.4945 124.254,54.7679 124.348,55.0585C 124.442,55.3491 124.511,55.6476 124.555,55.9539C 124.598,56.2602 124.62,56.5602 124.62,56.854C 124.62,57.4914 124.592,58.0773 124.536,58.6117C 124.48,59.1461 124.389,59.6695 124.264,60.1819L 122.764,60.1819C 122.92,59.6319 123.039,59.0851 123.12,58.5414C 123.201,57.9977 123.242,57.457 123.242,56.9194C 123.242,56.1382 123.136,55.5601 122.923,55.1851C 122.711,54.8101 122.408,54.6226 122.014,54.6226C 121.845,54.6226 121.694,54.6523 121.559,54.7117C 121.425,54.7711 121.297,54.8789 121.175,55.0351C 121.053,55.1913 120.926,55.4335 120.795,55.7617C 120.664,56.0899 120.514,56.5383 120.345,57.1069C 120.22,57.5319 120.078,57.9241 119.919,58.2835C 119.759,58.6429 119.57,58.9539 119.351,59.2163C 119.133,59.4789 118.876,59.6851 118.583,59.8351C 118.289,59.9851 117.942,60.0601 117.542,60.0601C 117.28,60.0601 116.992,59.9992 116.679,59.8773C 116.367,59.7553 116.076,59.5475 115.808,59.2539C 115.539,58.9602 115.316,58.5633 115.137,58.0633C 114.959,57.5633 114.87,56.9383 114.87,56.1883C 114.87,55.8195 114.89,55.4101 114.931,54.9601C 114.972,54.5101 115.042,54.0414 115.142,53.554L 116.595,53.554C 116.47,54.0664 116.378,54.5523 116.319,55.0117C 116.259,55.4711 116.23,55.8695 116.23,56.2069C 116.23,56.6133 116.261,56.9555 116.323,57.2337C 116.386,57.5117 116.472,57.7368 116.581,57.9087C 116.69,58.0805 116.818,58.204 116.965,58.279C 117.112,58.354 117.27,58.3915 117.439,58.3915C 117.608,58.3915 117.761,58.3587 117.898,58.2929C 118.036,58.2273 118.169,58.1053 118.297,57.9272C 118.425,57.7492 118.553,57.5008 118.681,57.182C 118.809,56.8634 118.948,56.4477 119.098,55.9351C 119.261,55.3789 119.431,54.9102 119.609,54.5288C 119.787,54.1476 119.986,53.8382 120.204,53.6006C 120.423,53.3632 120.67,53.1928 120.945,53.0898C 121.22,52.9867 121.533,52.9351 121.883,52.9351 Z "/>
	<path fill="#7E7E7E" fill-opacity="1" stroke-linejoin="round" d="M 119.67,41.5768C 120.401,41.5768 121.072,41.68 121.681,41.8863C 122.29,42.0926 122.812,42.3895 123.247,42.7769C 123.681,43.1645 124.019,43.6363 124.259,44.1925C 124.5,44.7487 124.62,45.38 124.62,46.0864C 124.62,46.7614 124.516,47.3661 124.306,47.9004C 124.097,48.4347 123.789,48.8878 123.383,49.2597C 122.976,49.6316 122.473,49.916 121.873,50.1129C 121.273,50.3098 120.583,50.4082 119.801,50.4082C 119.07,50.4082 118.403,50.3051 117.8,50.0988C 117.197,49.8925 116.678,49.5956 116.244,49.2081C 115.809,48.8206 115.472,48.3487 115.231,47.7925C 114.99,47.2363 114.87,46.6051 114.87,45.8989C 114.87,45.2239 114.975,44.6192 115.184,44.0848C 115.394,43.5504 115.7,43.0973 116.103,42.7254C 116.506,42.3535 117.008,42.0691 117.608,41.8722C 118.208,41.6753 118.895,41.5768 119.67,41.5768 Z M 119.745,43.2457C 119.164,43.2457 118.656,43.3098 118.222,43.4379C 117.787,43.5659 117.425,43.7487 117.134,43.9863C 116.844,44.2238 116.625,44.5128 116.478,44.8534C 116.331,45.194 116.258,45.5737 116.258,45.9925C 116.258,46.4801 116.353,46.8973 116.544,47.2441C 116.734,47.5909 116.989,47.8753 117.308,48.0972C 117.626,48.3191 117.997,48.4816 118.419,48.5847C 118.84,48.6878 119.283,48.7393 119.745,48.7393C 120.326,48.7393 120.836,48.6753 121.273,48.5471C 121.711,48.4191 122.075,48.2363 122.366,47.9987C 122.656,47.7613 122.875,47.4738 123.022,47.1363C 123.169,46.7988 123.242,46.4175 123.242,45.9925C 123.242,45.5051 123.147,45.088 122.956,44.7411C 122.765,44.3942 122.511,44.1098 122.192,43.8878C 121.873,43.666 121.503,43.5034 121.081,43.4004C 120.659,43.2973 120.214,43.2457 119.745,43.2457 Z "/>
	<path fill="#7E7E7E" fill-opacity="1" stroke-linejoin="round" d="M 124.105,31.8982C 124.267,32.3232 124.387,32.7592 124.466,33.2061C 124.544,33.653 124.583,34.1139 124.583,34.5889C 124.583,36.0763 124.18,37.2216 123.373,38.0247C 122.567,38.8278 121.389,39.2293 119.839,39.2293C 119.095,39.2293 118.42,39.1137 117.814,38.8825C 117.208,38.6513 116.689,38.3263 116.258,37.9075C 115.826,37.4887 115.494,36.9887 115.259,36.4075C 115.025,35.8263 114.908,35.1857 114.908,34.4857C 114.908,33.9981 114.942,33.5418 115.011,33.1168C 115.08,32.6918 115.192,32.2856 115.348,31.8982L 116.905,31.8982C 116.692,32.3044 116.537,32.7185 116.44,33.1404C 116.343,33.5623 116.295,33.9982 116.295,34.4482C 116.295,34.867 116.375,35.2623 116.534,35.6341C 116.694,36.0059 116.923,36.3325 117.223,36.6138C 117.523,36.8951 117.889,37.117 118.32,37.2794C 118.751,37.442 119.239,37.5232 119.783,37.5232C 120.92,37.5232 121.772,37.2467 122.337,36.6936C 122.903,36.1405 123.186,35.3732 123.186,34.3918C 123.186,33.9482 123.136,33.5186 123.036,33.1029C 122.936,32.6872 122.786,32.2856 122.586,31.8982L 124.105,31.8982 Z "/>
	<path fill="#7E7E7E" fill-opacity="1" stroke-linejoin="round" d="M 124.451,20.185L 124.451,22.4257L 119.408,26.8132L 124.451,26.8132L 124.451,28.4443L 111.205,28.4443L 111.205,26.8132L 119.342,26.8132L 115.039,22.585L 115.039,20.4289L 119.38,24.8443L 124.451,20.185 Z "/>
	<path fill="#7E7E7E" fill-opacity="1" stroke-linejoin="round" d="M 119.248,10.0831C 119.479,10.0831 119.673,10.0862 119.829,10.0924C 119.986,10.0986 120.133,10.108 120.27,10.1206L 120.27,16.7299C 121.233,16.7299 121.972,16.4612 122.487,15.9237C 123.003,15.3862 123.261,14.6112 123.261,13.5988C 123.261,13.3238 123.25,13.0488 123.228,12.7738C 123.206,12.4988 123.176,12.2332 123.139,11.9769C 123.101,11.7206 123.059,11.4752 123.012,11.2408C 122.966,11.0064 122.914,10.7892 122.858,10.5892L 124.198,10.5892C 124.323,11.033 124.425,11.5346 124.503,12.094C 124.581,12.6534 124.62,13.2331 124.62,13.8331C 124.62,14.6393 124.511,15.3331 124.292,15.9144C 124.073,16.4957 123.756,16.9722 123.341,17.344C 122.925,17.7158 122.416,17.9908 121.812,18.169C 121.209,18.3472 120.526,18.4363 119.764,18.4363C 119.101,18.4363 118.475,18.341 117.884,18.1503C 117.294,17.9596 116.775,17.6814 116.328,17.3158C 115.881,16.9502 115.526,16.5018 115.264,15.9706C 115.001,15.4394 114.87,14.8363 114.87,14.1613C 114.87,13.5049 114.973,12.9236 115.179,12.4174C 115.386,11.9112 115.678,11.4847 116.056,11.1378C 116.434,10.7909 116.894,10.5284 117.434,10.3503C 117.975,10.1722 118.579,10.0831 119.248,10.0831 Z M 119.014,11.7799C 118.595,11.7611 118.212,11.8017 117.865,11.9017C 117.518,12.0017 117.22,12.1564 116.97,12.3658C 116.72,12.5752 116.525,12.8362 116.384,13.1487C 116.244,13.4612 116.173,13.8237 116.173,14.2363C 116.173,14.5925 116.242,14.9175 116.379,15.2112C 116.517,15.5049 116.711,15.758 116.961,15.9705C 117.211,16.183 117.511,16.3549 117.861,16.4862C 118.211,16.6175 118.595,16.6987 119.014,16.7299L 119.014,11.7799 Z "/>
	<path fill="#7E7E7E" fill-opacity="1" stroke-linejoin="round" d="M 124.32,-0.111176C 124.414,0.257416 124.481,0.638641 124.522,1.03244C 124.562,1.42624 124.583,1.82623 124.583,2.23242C 124.583,3.4136 124.316,4.29489 123.781,4.87619C 123.247,5.45749 122.426,5.74814 121.32,5.74814L 116.408,5.74814L 116.408,8.38242L 115.039,8.38242L 115.039,5.74814L 112.451,5.74814L 112.03,4.11673L 115.039,4.11673L 115.039,-0.111176L 116.408,-0.111176L 116.408,4.11673L 121.189,4.11673C 121.864,4.11673 122.369,3.93707 122.703,3.57779C 123.037,3.21848 123.205,2.68881 123.205,1.98883C 123.205,1.68881 123.181,1.36069 123.134,1.00436C 123.087,0.648071 123.014,0.276215 122.914,-0.111176L 124.32,-0.111176 Z "/>
	<path fill="#000000" fill-opacity="1" stroke-linejoin="round" d="M 179.385,177.196L 210.854,124.289L 210,123.759L 178.53,176.664M 212.557,126.639L 213.093,119.488L 207.12,123.331"/>
	<path fill="#000000" fill-opacity="1" stroke-linejoin="round" d="M 226.64,104.341L 225.464,103.701L 222.369,94.212L 219.062,99.7587L 217.89,99.1174L 222.265,91.5454L 223.437,92.2894L 226.53,101.784L 229.942,95.9147L 231.12,96.5547M 241.573,85.784L 229.521,78.8521L 230.369,77.144L 232.078,78.212C 231.333,76.716 231.333,75.436 231.973,74.264C 232.505,73.196 233.36,72.7694 234.53,72.5547C 235.598,72.4507 236.88,72.664 238.156,73.4094C 239.65,74.264 240.609,75.3307 241.145,76.5027C 241.677,77.784 241.677,78.956 241.036,79.9147C 240.505,80.9827 239.65,81.4094 238.478,81.732L 242.53,84.1854M 237.093,81.092C 238.369,80.8787 239.12,80.3414 239.546,79.5974C 240.078,78.956 240.078,78.212 239.65,77.4614C 239.12,76.8214 238.478,76.076 237.306,75.436C 235.276,74.264 233.89,74.264 233.036,75.5454C 232.505,76.3987 232.609,77.5707 233.25,78.956M 246.052,70.6387L 234.426,64.024L 232.505,67.436L 231.333,66.6907L 234.104,61.6747L 246.906,69.144M 245.306,51.7587L 254.156,56.7694L 253.093,58.4774L 251.385,57.4094C 252.24,58.904 252.24,60.1854 251.489,61.4614C 250.64,63.1694 249.036,63.3827 247.12,62.212L 241.145,58.7947L 242,57.3054L 247.65,60.5027C 248.292,60.9307 248.822,61.144 249.145,61.0347C 249.677,61.0347 249.89,60.8214 250.317,60.2894C 250.745,59.436 250.745,58.264 250.104,56.664L 244.344,53.3574M 258.854,55.2734L 257.677,54.4254C 258.53,53.6747 259.385,52.9307 259.702,52.076C 260.77,50.264 260.453,48.9827 258.854,48.128L 257.36,47.0654C 258.104,48.4507 258.213,49.732 257.464,51.008C 256.822,52.076 256.078,52.5027 254.906,52.716C 253.729,52.9307 252.557,52.6067 251.276,51.8627C 249.89,51.1174 248.822,50.0494 248.505,48.8787C 247.973,47.7014 247.973,46.5294 248.609,45.4614C 249.145,44.6067 250,43.972 251.276,43.6494L 250.213,43.008L 251.062,41.5187L 258.104,45.5707C 259.276,46.212 260.13,46.8521 260.557,47.2734C 261.093,47.8107 261.412,48.4507 261.729,49.092C 261.942,50.1547 261.729,51.436 260.984,52.8214C 260.557,53.5707 259.917,54.316 258.854,55.2734 Z M 255.864,46.316L 252.453,44.3987C 251.276,44.6067 250.426,45.144 250,45.888C 249.573,46.5294 249.573,47.2734 249.89,48.024C 250.317,48.664 251.062,49.4094 252.24,50.0494C 253.093,50.5814 253.942,50.7947 254.693,50.6907C 255.437,50.6907 255.973,50.4774 256.396,49.836C 256.822,48.8787 256.718,47.7014 255.864,46.316 Z "/>
	<path fill="#000000" fill-opacity="1" stroke-linejoin="round" d="M 115.917,282.049L 116.88,282.581L 171.598,190.639L 170.64,189.997"/>
	<path fill="#A6A6A6" fill-opacity="1" stroke-linejoin="round" d="M 118.156,281.623L 57.2505,281.623L 57.2505,282.795L 118.156,282.795M 58.3172,279.065L 51.9171,282.264L 58.3172,285.461"/>
	<path fill="#A6A6A6" fill-opacity="1" stroke-linejoin="round" d="M 116.77,281.94L 140.88,311.701L 140.026,312.341L 116.13,282.477M 142.265,309.144L 143.76,316.185L 137.25,313.196"/>
	<path fill="#7E7E7E" fill-opacity="1" stroke-linejoin="round" d="M 42.269,289.856L 40.1036,289.856L 37.5629,286.266L 35.0504,289.856L 32.9411,289.856L 36.5879,285.131L 33.1097,280.444L 35.2004,280.444L 37.6754,284.062L 40.1036,280.444L 42.119,280.444L 38.5847,285.169L 42.269,289.856 Z "/>
	<path fill="#7E7E7E" fill-opacity="1" stroke-linejoin="round" d="M 157.107,322.688L 153.901,331.106C 153.569,331.963 153.227,332.7 152.874,333.319C 152.521,333.937 152.135,334.445 151.716,334.842C 151.297,335.239 150.838,335.531 150.338,335.719C 149.838,335.906 149.279,336 148.66,336C 148.497,336 148.351,335.997 148.219,335.991C 148.088,335.985 147.944,335.975 147.788,335.963L 147.788,334.481C 147.925,334.5 148.075,334.517 148.238,334.533C 148.4,334.549 148.572,334.556 148.754,334.556C 149.054,334.556 149.333,334.513 149.593,334.425C 149.852,334.338 150.097,334.195 150.329,333.999C 150.56,333.802 150.782,333.547 150.994,333.234C 151.207,332.922 151.413,332.544 151.613,332.1L 147.854,322.688L 149.71,322.688L 152.091,328.913L 152.569,330.375L 153.113,328.875L 155.316,322.688L 157.107,322.688 Z "/>
	<path fill="#000000" fill-opacity="1" stroke-linejoin="round" d="M 116.24,282.795L 116.557,281.836L 213.306,315.759L 212.88,316.716"/>
	<path fill="#000000" fill-opacity="1" stroke-linejoin="round" d="M 212.536,316.18L 212.792,119.488L 213.969,119.492L 213.713,316.185"/>
	<path fill="#000000" fill-opacity="1" stroke-linejoin="round" d="M 199.12,294.743L 199.333,293.675L 213.521,298.691L 213.197,299.759"/>
	<rect x="198.052" y="293.571" fill="#000000" fill-opacity="1" fill-rule="evenodd" stroke-linejoin="round" width="1.172" height="17.2813"/>
	<path fill="#000000" fill-opacity="1" stroke-linejoin="round" d="M 154.426,303.273L 152.078,304.341L 149.729,305.092L 147.598,305.836L 145.25,306.477L 142.906,307.117L 140.453,307.649L 138,308.076L 135.546,308.607L 132.984,308.821L 130.426,309.248L 127.864,309.461L 125.306,309.571L 122.745,309.675L 120.188,309.784L 114.958,309.784L 112.396,309.675L 109.729,309.461L 107.172,309.357L 104.609,308.931L 102.052,308.716L 99.4891,308.185L 97.0358,307.759L 94.5838,307.221L 89.6772,305.94L 87.3332,305.196L 84.9838,304.451L 82.5305,303.597L 80.1878,302.529L 78.0518,301.461L 76.0265,300.289L 74.1038,299.117L 72.2918,297.94L 70.7971,296.664L 69.3065,295.383L 68.0265,293.997L 66.7451,292.607L 65.6771,291.221L 64.8225,289.732L 64.1878,288.237L 63.6505,286.743L 63.2238,285.248L 63.1198,283.545L 66.3171,283.331L 66.3171,284.607L 66.5305,285.784L 67.0625,287.065L 67.5985,288.341L 68.3438,289.623L 69.0931,290.795L 70.1558,292.076L 71.4371,293.248L 72.7185,294.425L 74.2132,295.597L 75.7025,296.769L 77.5211,297.836L 79.4371,299.008L 81.4638,299.863L 83.5985,300.931L 85.9425,301.784L 88.0785,302.425L 90.4265,303.169L 92.7705,303.811L 95.1198,304.341L 97.4638,304.879L 99.9172,305.409L 102.369,305.836L 104.932,306.264L 107.385,306.477L 109.942,306.581L 112.505,306.795L 114.958,306.904L 120.078,306.904L 122.64,306.795L 125.197,306.691L 127.65,306.581L 130.104,306.368L 132.666,306.155L 135.12,305.732L 137.464,305.305L 139.917,304.769L 142.265,304.237L 144.396,303.701L 146.745,303.065L 148.77,302.425L 150.797,301.675L 153.145,300.607M 150.156,298.155L 160.932,298.368L 154.426,306.795"/>
	<path fill="#000000" fill-opacity="1" stroke-linejoin="round" d="M 65.1645,323.024C 65.1645,323.381 65.0917,323.694 64.9459,323.962C 64.8001,324.23 64.5967,324.454 64.3358,324.632C 64.0749,324.81 63.7613,324.944 63.3949,325.032C 63.0286,325.12 62.6247,325.164 62.1834,325.164C 61.9839,325.164 61.7854,325.157 61.5878,325.141C 61.3902,325.126 61.2002,325.107 61.0179,325.084C 60.8356,325.061 60.6639,325.034 60.5028,325.003C 60.3417,324.972 60.1959,324.94 60.0655,324.905L 60.0655,323.916C 60.3532,324.022 60.6763,324.106 61.0349,324.166C 61.3936,324.227 61.8011,324.258 62.2575,324.258C 62.5875,324.258 62.8685,324.232 63.1005,324.18C 63.3325,324.128 63.5224,324.052 63.67,323.951C 63.8176,323.849 63.925,323.726 63.9922,323.581C 64.0593,323.436 64.0929,323.269 64.0929,323.082C 64.0929,322.879 64.0364,322.705 63.9233,322.561C 63.8102,322.418 63.6616,322.289 63.4776,322.176C 63.2936,322.063 63.0838,321.959 62.848,321.865C 62.6122,321.771 62.3716,321.675 62.1262,321.575C 61.8808,321.475 61.6403,321.367 61.4046,321.25C 61.1689,321.133 60.959,320.995 60.775,320.836C 60.591,320.677 60.4425,320.49 60.3294,320.275C 60.2163,320.06 60.1597,319.805 60.1597,319.51C 60.1597,319.253 60.2134,319 60.3208,318.751C 60.4282,318.501 60.5951,318.28 60.8213,318.086C 61.0476,317.893 61.3381,317.736 61.6929,317.618C 62.0477,317.499 62.4707,317.439 62.9617,317.439C 63.0882,317.439 63.2252,317.445 63.3729,317.456C 63.5206,317.468 63.6702,317.484 63.8217,317.505C 63.9732,317.526 64.1228,317.55 64.2704,317.577C 64.418,317.604 64.5551,317.632 64.6817,317.663L 64.6817,318.582C 64.3866,318.497 64.0914,318.433 63.7962,318.389C 63.501,318.345 63.2154,318.322 62.9394,318.322C 62.3527,318.322 61.9214,318.42 61.6454,318.617C 61.3694,318.813 61.2314,319.076 61.2314,319.406C 61.2314,319.61 61.2879,319.784 61.401,319.93C 61.5141,320.075 61.6627,320.206 61.8467,320.321C 62.0307,320.436 62.2405,320.54 62.4763,320.634C 62.7121,320.729 62.9526,320.825 63.198,320.925C 63.4434,321.025 63.684,321.134 63.9198,321.253C 64.1555,321.372 64.3654,321.513 64.5494,321.676C 64.7334,321.839 64.882,322.029 64.995,322.248C 65.108,322.466 65.1645,322.725 65.1645,323.024 Z "/>
	<path fill="#000000" fill-opacity="1" stroke-linejoin="round" d="M 72.1772,319.288L 71.3423,325.058L 70.1291,325.058L 69.2941,322.64L 69.1272,322.052L 68.9376,322.674L 68.1391,325.058L 66.9604,325.058L 66.1243,319.288L 67.1019,319.288L 67.5871,323.214L 67.6905,324.081L 67.9378,323.323L 68.7765,320.725L 69.4952,320.725L 70.3993,323.288L 70.6581,324.047L 70.7443,323.242L 71.1881,319.288L 72.1772,319.288 Z "/>
	<path fill="#000000" fill-opacity="1" stroke-linejoin="round" d="M 75.2684,320.112L 73.5608,320.112L 73.5608,319.288L 76.2811,319.288L 76.2811,324.222L 78.0004,324.222L 78.0004,325.058L 73.3724,325.058L 73.3724,324.222L 75.2684,324.222L 75.2684,320.112 Z M 75.6216,316.862C 75.7329,316.862 75.8365,316.882 75.9326,316.923C 76.0286,316.963 76.1122,317.02 76.1832,317.092C 76.2542,317.165 76.3099,317.249 76.3502,317.343C 76.3905,317.437 76.4106,317.54 76.4106,317.651C 76.4106,317.759 76.3905,317.86 76.3502,317.956C 76.3099,318.052 76.2542,318.137 76.1832,318.21C 76.1122,318.283 76.0286,318.339 75.9326,318.38C 75.8365,318.42 75.7329,318.44 75.6216,318.44C 75.5104,318.44 75.4067,318.42 75.3107,318.38C 75.2146,318.339 75.1311,318.283 75.0601,318.21C 74.989,318.137 74.9334,318.052 74.8931,317.956C 74.8528,317.86 74.8326,317.759 74.8326,317.651C 74.8326,317.54 74.8528,317.437 74.8931,317.343C 74.9334,317.249 74.989,317.165 75.0601,317.092C 75.1311,317.02 75.2146,316.963 75.3107,316.923C 75.4067,316.882 75.5104,316.862 75.6216,316.862 Z "/>
	<path fill="#000000" fill-opacity="1" stroke-linejoin="round" d="M 79.8139,319.288L 80.7056,319.288L 80.7459,320.219C 80.9145,320.019 81.0774,319.853 81.2345,319.721C 81.3915,319.588 81.5458,319.482 81.6971,319.401C 81.8485,319.32 82.0028,319.264 82.1599,319.231C 82.317,319.198 82.4799,319.182 82.6484,319.182C 83.2425,319.182 83.6919,319.357 83.9966,319.708C 84.3013,320.059 84.4536,320.587 84.4536,321.292L 84.4536,325.058L 83.4527,325.058L 83.4527,321.371C 83.4527,320.918 83.3684,320.583 83.1998,320.367C 83.0312,320.15 82.7803,320.042 82.4471,320.042C 82.3245,320.042 82.2047,320.06 82.0878,320.096C 81.9709,320.133 81.8492,320.196 81.7228,320.286C 81.5964,320.376 81.4594,320.498 81.3119,320.651C 81.1644,320.805 80.9987,320.997 80.8149,321.227L 80.8149,325.058L 79.8139,325.058L 79.8139,319.288 Z "/>
	<path fill="#000000" fill-opacity="1" stroke-linejoin="round" d="M 90.4496,320.101C 90.557,320.235 90.6404,320.392 90.6999,320.57C 90.7594,320.749 90.7891,320.942 90.7891,321.149C 90.7891,321.448 90.7344,321.721 90.6251,321.969C 90.5157,322.216 90.3613,322.428 90.1619,322.604C 89.9624,322.781 89.7237,322.918 89.4456,323.016C 89.1676,323.113 88.8617,323.162 88.5279,323.162C 88.2864,323.162 88.0602,323.137 87.8493,323.085C 87.6383,323.033 87.4715,322.969 87.3487,322.892C 87.2762,323 87.2152,323.101 87.1657,323.197C 87.1162,323.293 87.0915,323.4 87.0915,323.519C 87.0915,323.664 87.1614,323.785 87.3014,323.88C 87.4414,323.976 87.6264,324.028 87.8565,324.035L 89.3753,324.093C 89.663,324.101 89.9287,324.137 90.1723,324.202C 90.4158,324.267 90.6248,324.361 90.7992,324.484C 90.9737,324.606 91.1098,324.758 91.2076,324.938C 91.3055,325.118 91.3544,325.327 91.3544,325.564C 91.3544,325.821 91.2988,326.064 91.1877,326.294C 91.0765,326.524 90.9049,326.726 90.6729,326.901C 90.4409,327.075 90.1466,327.214 89.7901,327.317C 89.4336,327.421 89.0099,327.472 88.5191,327.472C 88.0513,327.472 87.6535,327.435 87.3257,327.36C 86.9979,327.286 86.7286,327.182 86.5176,327.05C 86.3067,326.918 86.1534,326.761 86.0576,326.58C 85.9618,326.398 85.9139,326.198 85.9139,325.98C 85.9139,325.7 85.9788,325.455 86.1086,325.245C 86.2385,325.034 86.4389,324.831 86.71,324.636C 86.6109,324.59 86.5251,324.533 86.4525,324.464C 86.38,324.395 86.3208,324.319 86.275,324.236C 86.2291,324.154 86.1948,324.066 86.1719,323.974C 86.149,323.882 86.1376,323.792 86.1376,323.704C 86.1376,323.454 86.1958,323.226 86.3123,323.019C 86.4288,322.812 86.5671,322.616 86.7273,322.432C 86.6545,322.344 86.5902,322.258 86.5346,322.173C 86.479,322.089 86.431,321.998 86.3908,321.9C 86.3506,321.802 86.3199,321.697 86.2988,321.584C 86.2777,321.47 86.2671,321.341 86.2671,321.195C 86.2671,320.896 86.3218,320.623 86.4312,320.376C 86.5405,320.128 86.694,319.917 86.8916,319.74C 87.0893,319.564 87.3271,319.427 87.6053,319.329C 87.8834,319.231 88.1913,319.182 88.5291,319.182C 88.6711,319.182 88.8074,319.192 88.9378,319.212C 89.0683,319.231 89.1833,319.257 89.2829,319.288L 91.3779,319.288L 91.3779,320.101L 90.4496,320.101 Z M 86.9737,325.892C 86.9737,326.164 87.1157,326.361 87.3996,326.485C 87.6835,326.61 88.0786,326.672 88.585,326.672C 88.9034,326.672 89.171,326.643 89.3878,326.586C 89.6045,326.529 89.7791,326.453 89.9114,326.36C 90.0438,326.266 90.1388,326.159 90.1964,326.039C 90.254,325.918 90.2828,325.795 90.2828,325.669C 90.2828,325.436 90.1868,325.264 89.995,325.154C 89.8031,325.043 89.5096,324.978 89.1145,324.959L 87.6067,324.907C 87.4801,324.991 87.3755,325.073 87.293,325.153C 87.2105,325.234 87.1463,325.315 87.1002,325.397C 87.0541,325.479 87.0215,325.561 87.0024,325.643C 86.9833,325.725 86.9737,325.808 86.9737,325.892 Z M 87.2799,321.172C 87.2799,321.356 87.3105,321.525 87.3719,321.678C 87.4332,321.832 87.5195,321.962 87.6308,322.069C 87.742,322.177 87.8734,322.26 88.0248,322.32C 88.1762,322.379 88.3439,322.409 88.5279,322.409C 88.7274,322.409 88.9048,322.375 89.0602,322.308C 89.2155,322.241 89.3459,322.15 89.4513,322.035C 89.5568,321.92 89.6373,321.788 89.6929,321.638C 89.7486,321.488 89.7764,321.333 89.7764,321.172C 89.7764,320.988 89.7457,320.82 89.6844,320.666C 89.6231,320.513 89.5368,320.382 89.4255,320.275C 89.3142,320.168 89.1829,320.084 89.0314,320.025C 88.8799,319.965 88.7121,319.936 88.5279,319.936C 88.3286,319.936 88.1513,319.97 87.996,320.039C 87.8407,320.108 87.7103,320.199 87.6048,320.312C 87.4993,320.425 87.4188,320.557 87.3632,320.706C 87.3077,320.856 87.2799,321.011 87.2799,321.172 Z "/>
	<rect x="93.3681" y="321.455" fill="#000000" fill-opacity="1" stroke-linejoin="round" width="3.43858" height="0.942078"/>
	<path fill="#000000" fill-opacity="1" stroke-linejoin="round" d="M 104.414,321.218C 104.414,321.579 104.386,321.923 104.331,322.253C 104.275,322.583 104.186,322.889 104.063,323.173C 103.941,323.456 103.781,323.714 103.586,323.946C 103.39,324.178 103.151,324.376 102.867,324.541C 102.583,324.706 102.254,324.833 101.878,324.923C 101.502,325.013 101.075,325.058 100.595,325.058L 98.9852,325.058L 98.9852,317.545L 100.923,317.545C 102.096,317.545 102.972,317.847 103.549,318.451C 104.125,319.054 104.414,319.977 104.414,321.218 Z M 103.342,321.293C 103.342,320.76 103.292,320.309 103.193,319.941C 103.093,319.573 102.941,319.275 102.738,319.049C 102.535,318.823 102.279,318.659 101.972,318.557C 101.665,318.456 101.305,318.405 100.89,318.405L 100.01,318.405L 100.01,324.175L 100.775,324.175C 102.487,324.175 103.342,323.214 103.342,321.293 Z "/>
	<path fill="#000000" fill-opacity="1" stroke-linejoin="round" d="M 107.723,320.112L 106.015,320.112L 106.015,319.288L 108.736,319.288L 108.736,324.222L 110.455,324.222L 110.455,325.058L 105.827,325.058L 105.827,324.222L 107.723,324.222L 107.723,320.112 Z M 108.076,316.862C 108.188,316.862 108.291,316.882 108.387,316.923C 108.483,316.963 108.567,317.02 108.638,317.092C 108.709,317.165 108.765,317.249 108.805,317.343C 108.845,317.437 108.865,317.54 108.865,317.651C 108.865,317.759 108.845,317.86 108.805,317.956C 108.765,318.052 108.709,318.137 108.638,318.21C 108.567,318.283 108.483,318.339 108.387,318.38C 108.291,318.42 108.188,318.44 108.076,318.44C 107.965,318.44 107.861,318.42 107.765,318.38C 107.669,318.339 107.586,318.283 107.515,318.21C 107.444,318.137 107.388,318.052 107.348,317.956C 107.307,317.86 107.287,317.759 107.287,317.651C 107.287,317.54 107.307,317.437 107.348,317.343C 107.388,317.249 107.444,317.165 107.515,317.092C 107.586,317.02 107.669,316.963 107.765,316.923C 107.861,316.882 107.965,316.862 108.076,316.862 Z "/>
	<path fill="#000000" fill-opacity="1" stroke-linejoin="round" d="M 112.469,319.288L 113.384,319.288L 113.412,320.352C 113.754,319.941 114.09,319.643 114.422,319.459C 114.754,319.274 115.088,319.182 115.426,319.182C 116.024,319.182 116.477,319.376 116.786,319.763C 117.095,320.151 117.237,320.727 117.214,321.49L 116.202,321.49C 116.213,320.982 116.139,320.614 115.98,320.385C 115.821,320.156 115.588,320.042 115.282,320.042C 115.147,320.042 115.012,320.066 114.876,320.114C 114.74,320.162 114.6,320.239 114.456,320.345C 114.313,320.451 114.16,320.586 113.999,320.752C 113.838,320.917 113.665,321.117 113.481,321.352L 113.481,325.058L 112.469,325.058L 112.469,319.288 Z "/>
	<path fill="#000000" fill-opacity="1" stroke-linejoin="round" d="M 72.5051,155.331L 72.5051,153.623L 72.6092,152.555L 72.8225,151.915L 73.8905,152.341L 73.7865,152.879L 73.5732,153.623L 73.5732,155.221M 73.3598,150.852L 73.3598,150.743L 73.8905,149.888L 74.5305,149.144L 75.2758,148.289L 76.0265,149.035L 75.3852,149.784L 74.7451,150.529L 74.3171,151.273L 74.2132,151.383M 76.0265,147.436L 76.1305,147.436L 76.9838,146.691L 78.0518,145.94L 78.6932,145.519L 79.2238,146.368L 78.6932,146.795L 77.6252,147.545L 76.7705,148.185M 79.6505,144.983L 80.3958,144.451L 82.5305,143.383L 82.9585,144.237L 82.2132,144.664L 80.9318,145.305L 80.1878,145.836M 83.4892,142.956L 84.5572,142.529L 86.0518,141.888L 86.5838,141.784L 87.0105,142.852L 86.4785,142.956L 84.9838,143.597L 84.1305,144.024M 87.5465,141.357L 89.2505,140.821L 90.6398,140.399L 90.8545,141.461L 89.5732,141.888L 87.8638,142.425L 87.7598,142.425M 91.7025,140.076L 92.7705,139.863L 94.6931,139.436L 94.7971,139.331L 95.0105,140.399L 94.9065,140.503L 93.0931,140.931L 91.9172,141.144M 95.7598,139.117L 96.5051,139.008L 98.4265,138.581L 98.9585,138.581L 99.1718,139.649L 98.6398,139.759L 96.7185,139.972L 95.9732,140.185M 100.026,138.264L 100.557,138.264L 102.584,137.836L 103.224,137.836L 103.333,138.904L 102.693,139.008L 100.666,139.221L 100.24,139.331M 104.396,137.836L 104.822,137.732L 107.598,137.519L 107.598,138.581L 104.932,139.008L 104.505,139.008M 108.557,137.305L 109.093,137.305L 111.76,137.196L 111.76,138.264L 109.093,138.368L 108.666,138.477M 112.822,136.983L 116.026,136.983L 116.13,138.049L 113.573,138.049L 112.932,138.155M 117.197,136.879L 118.265,136.879L 120.396,136.983L 120.396,138.049L 117.197,138.049M 121.36,136.983L 122.745,136.983L 124.557,137.092L 124.557,138.155L 122.745,138.049L 121.36,138.049M 125.729,137.196L 127.437,137.305L 128.932,137.409L 128.822,138.477L 127.333,138.368L 125.625,138.368M 130,137.519L 131.812,137.623L 133.197,137.836L 133.093,138.904L 131.702,138.795L 129.89,138.581M 134.156,138.049L 135.864,138.264L 137.36,138.477L 137.25,139.545L 135.76,139.331L 134.052,139.117M 138.426,138.691L 139.812,138.904L 141.625,139.331L 141.412,140.399L 139.702,140.185L 138.317,139.759M 142.584,139.545L 143.65,139.759L 145.464,140.289L 145.89,140.399L 145.464,141.461L 145.036,141.357L 143.333,140.821L 142.265,140.607M 146.854,140.716L 147.062,140.821L 148.77,141.357L 149.942,141.784L 149.521,142.852L 148.344,142.425L 146.854,141.888L 146.426,141.784M 150.906,142.103L 151.76,142.529L 153.145,143.169L 153.786,143.383L 153.25,144.237L 152.718,144.024L 151.333,143.488L 150.265,143.065M 154.745,143.811L 155.917,144.451L 157.093,145.092L 157.625,145.519L 157.093,146.368L 156.557,146.155L 155.385,145.409L 154.317,144.879M 158.584,146.155L 159.224,146.691L 160.078,147.436L 160.932,148.185L 160.932,148.289L 160.188,148.931L 159.437,148.185L 158.584,147.545L 157.942,147.008M 161.786,149.035L 162.426,149.784L 162.958,150.639L 163.385,151.488L 163.489,151.915L 162.426,152.128L 162.426,151.915L 162,151.169L 161.464,150.425L 160.822,149.675M 163.917,152.983L 163.917,153.409L 164.026,154.264L 163.917,155.331L 163.812,156.185L 163.702,156.399L 162.64,155.972L 162.745,155.863L 162.854,155.117L 162.854,153.623L 162.745,153.196M 163.276,157.461L 163.062,157.997L 162.53,158.852L 161.89,159.597L 161.36,160.237L 160.609,159.488L 161.036,158.956L 161.677,158.212L 162.213,157.461L 162.317,157.035M 160.505,161.092L 160.292,161.305L 158.156,162.795L 157.942,163.008L 157.306,162.155L 157.521,161.94L 158.584,161.305L 159.437,160.555L 159.65,160.341M 156.984,163.649L 155.917,164.289L 154.64,164.931L 154.104,165.144L 153.677,164.289L 155.385,163.436L 156.453,162.795M 153.145,165.675L 151.864,166.212L 150.369,166.852L 150.265,166.852L 149.838,165.997L 149.942,165.888L 151.437,165.357L 152.718,164.716M 149.197,167.273L 148.77,167.383L 147.062,167.915L 146,168.341L 145.786,167.273L 146.854,167.065L 148.344,166.425L 148.77,166.316M 145.036,168.555L 143.65,168.983L 141.942,169.409L 141.729,168.341L 143.437,167.915L 144.822,167.488M 140.88,169.519L 139.812,169.732L 137.89,170.155L 137.786,170.155L 137.573,169.092L 137.677,169.092L 139.702,168.664L 140.77,168.451M 136.718,170.264L 135.864,170.368L 133.838,170.795L 133.625,170.795L 133.521,169.732L 133.729,169.732L 135.76,169.305L 136.505,169.196M 132.344,170.904L 131.702,171.008L 129.145,171.221L 129.145,170.049L 131.598,169.94L 132.24,169.836M 128.188,171.436L 127.437,171.436L 124.984,171.545L 124.88,170.477L 127.333,170.368L 128.078,170.264M 123.917,171.759L 122.745,171.759L 120.718,171.863L 120.609,170.691L 122.745,170.691L 123.812,170.581M 119.546,171.863L 116.344,171.863L 116.344,170.691L 118.156,170.795L 119.546,170.691M 115.385,171.759L 112.188,171.759L 112.188,170.581L 113.573,170.691L 115.385,170.691M 111.01,171.545L 109.093,171.436L 107.812,171.331L 107.917,170.264L 109.093,170.368L 111.12,170.477M 106.745,171.221L 104.718,171.117L 103.546,171.008L 103.65,169.94L 104.718,170.049L 106.854,170.155M 102.584,170.795L 100.557,170.368L 99.3852,170.264L 99.4891,169.196L 100.666,169.305L 102.693,169.732M 98.2132,170.049L 96.5051,169.836L 95.1198,169.409L 95.3332,168.341L 96.6092,168.769L 98.4265,168.983M 94.1558,169.305L 92.8798,168.879L 91.0625,168.341L 90.9585,168.341L 91.3852,167.273L 93.1972,167.811L 94.4785,168.237M 89.8905,168.128L 89.2505,168.024L 87.5465,167.383L 86.7971,167.169L 87.2238,166.103L 87.9732,166.316L 89.6772,166.956L 90.3171,167.065M 85.8385,166.743L 84.5572,166.212L 83.1718,165.571L 82.9585,165.571L 83.3852,164.503L 83.5985,164.607L 84.9838,165.248L 86.2651,165.784M 81.7865,165.035L 81.6771,164.931L 80.3958,164.289L 79.2238,163.649L 79.0105,163.545L 79.6505,162.691L 79.7598,162.691L 80.9318,163.436L 82.2132,164.076L 82.3171,164.076M 78.1558,162.904L 77.0931,162.155L 76.2398,161.409L 75.5985,160.879L 76.3438,160.128L 76.8798,160.664L 77.7291,161.409L 78.7971,162.049M 74.7451,160.024L 74.6398,159.811L 73.3598,158.103L 72.9318,157.357L 73.9998,156.821L 74.2132,157.571L 74.7451,158.316L 75.3852,159.065L 75.4892,159.273M 72.6092,156.076L 72.5051,155.331L 73.5732,155.221L 73.6771,155.863"/>
	<rect x="109.729" y="107.436" fill="#FFFFFF" fill-opacity="1" fill-rule="evenodd" stroke-linejoin="round" width="16.64" height="40.7507"/>
	<path fill="#A6A6A6" fill-opacity="1" stroke-linejoin="round" d="M 117.942,280.024L 117.942,92.5027L 116.88,92.5027L 116.88,280.024M 120.609,93.4614L 117.412,87.0654L 114.213,93.4614"/>
	<path fill="#000000" fill-opacity="1" stroke-linejoin="round" d="M 1.89594,166.716L 0.188417,166.716L 0.188417,165.891L 2.90867,165.891L 2.90867,173.181L 4.62797,173.181L 4.62797,174.017L 8.67217e-007,174.017L 8.67217e-007,173.181L 1.89594,173.181L 1.89594,166.716 Z "/>
	<path fill="#000000" fill-opacity="1" stroke-linejoin="round" d="M 8.37274,169.071L 6.66522,169.071L 6.66522,168.246L 9.38547,168.246L 9.38547,173.181L 11.1048,173.181L 11.1048,174.017L 6.4768,174.017L 6.4768,173.181L 8.37274,173.181L 8.37274,169.071 Z M 8.72602,165.821C 8.83728,165.821 8.94093,165.841 9.03698,165.881C 9.13303,165.921 9.21656,165.978 9.28759,166.051C 9.35861,166.124 9.41427,166.207 9.45457,166.301C 9.49486,166.396 9.51501,166.498 9.51501,166.61C 9.51501,166.717 9.49486,166.819 9.45457,166.915C 9.41427,167.011 9.35861,167.095 9.28759,167.168C 9.21656,167.241 9.13303,167.298 9.03698,167.338C 8.94093,167.378 8.83728,167.399 8.72602,167.399C 8.61476,167.399 8.51111,167.378 8.41506,167.338C 8.31901,167.298 8.23547,167.241 8.16445,167.168C 8.09342,167.095 8.03777,167.011 7.99747,166.915C 7.95717,166.819 7.93703,166.717 7.93703,166.61C 7.93703,166.498 7.95717,166.396 7.99747,166.301C 8.03777,166.207 8.09342,166.124 8.16445,166.051C 8.23547,165.978 8.31901,165.921 8.41506,165.881C 8.51111,165.841 8.61476,165.821 8.72602,165.821 Z "/>
	<path fill="#000000" fill-opacity="1" stroke-linejoin="round" d="M 17.0045,174.017L 17.0045,169.873C 17.0045,169.693 16.9983,169.545 16.9857,169.43C 16.9731,169.315 16.9534,169.225 16.9265,169.157C 16.8997,169.09 16.8656,169.044 16.8242,169.017C 16.7829,168.99 16.7317,168.977 16.6708,168.977C 16.599,168.977 16.5326,168.999 16.4715,169.046C 16.4104,169.092 16.3448,169.166 16.2748,169.27C 16.2048,169.373 16.1276,169.51 16.0433,169.68C 15.9591,169.851 15.8595,170.061 15.7445,170.31L 15.7445,174.017L 14.7436,174.017L 14.7436,169.982C 14.7436,169.771 14.7372,169.601 14.7246,169.471C 14.712,169.34 14.6921,169.239 14.6651,169.166C 14.638,169.093 14.6029,169.044 14.5596,169.017C 14.5164,168.99 14.4641,168.977 14.4028,168.977C 14.338,168.977 14.2768,168.996 14.2191,169.034C 14.1613,169.072 14.0973,169.141 14.027,169.241C 13.9566,169.341 13.8782,169.476 13.7917,169.649C 13.7052,169.821 13.6025,170.041 13.4835,170.31L 13.4835,174.017L 12.4826,174.017L 12.4826,168.246L 13.3146,168.246L 13.3647,169.344C 13.4644,169.125 13.5613,168.939 13.6555,168.785C 13.7496,168.632 13.8466,168.508 13.9464,168.414C 14.0462,168.32 14.1527,168.251 14.2659,168.207C 14.3791,168.162 14.5048,168.14 14.6431,168.14C 14.9542,168.14 15.1903,168.242 15.3516,168.446C 15.5128,168.649 15.5934,168.964 15.5934,169.39C 15.6858,169.191 15.7762,169.013 15.8647,168.857C 15.9531,168.702 16.0483,168.571 16.1502,168.466C 16.2522,168.36 16.3647,168.28 16.4878,168.224C 16.6109,168.168 16.7533,168.14 16.9149,168.14C 17.642,168.14 18.0055,168.698 18.0055,169.814L 18.0055,174.017L 17.0045,174.017 Z "/>
	<path fill="#000000" fill-opacity="1" stroke-linejoin="round" d="M 21.3617,169.071L 19.6541,169.071L 19.6541,168.246L 22.3744,168.246L 22.3744,173.181L 24.0937,173.181L 24.0937,174.017L 19.4657,174.017L 19.4657,173.181L 21.3617,173.181L 21.3617,169.071 Z M 21.7149,165.821C 21.8262,165.821 21.9299,165.841 22.0259,165.881C 22.122,165.921 22.2055,165.978 22.2765,166.051C 22.3475,166.124 22.4032,166.207 22.4435,166.301C 22.4838,166.396 22.5039,166.498 22.5039,166.61C 22.5039,166.717 22.4838,166.819 22.4435,166.915C 22.4032,167.011 22.3475,167.095 22.2765,167.168C 22.2055,167.241 22.122,167.298 22.0259,167.338C 21.9299,167.378 21.8262,167.399 21.7149,167.399C 21.6037,167.399 21.5,167.378 21.404,167.338C 21.3079,167.298 21.2244,167.241 21.1534,167.168C 21.0824,167.095 21.0267,167.011 20.9864,166.915C 20.9461,166.819 20.926,166.717 20.926,166.61C 20.926,166.498 20.9461,166.396 20.9864,166.301C 21.0267,166.207 21.0824,166.124 21.1534,166.051C 21.2244,165.978 21.3079,165.921 21.404,165.881C 21.5,165.841 21.6037,165.821 21.7149,165.821 Z "/>
	<path fill="#000000" fill-opacity="1" stroke-linejoin="round" d="M 30.5234,173.934C 30.2976,173.993 30.064,174.035 29.8226,174.061C 29.5813,174.086 29.3362,174.099 29.0873,174.099C 28.3634,174.099 27.8234,173.935 27.4672,173.607C 27.1109,173.279 26.9328,172.776 26.9328,172.097L 26.9328,169.082L 25.3184,169.082L 25.3184,168.246L 26.9328,168.246L 26.9328,166.657L 27.9338,166.398L 27.9338,168.246L 30.5234,168.246L 30.5234,169.082L 27.9338,169.082L 27.9338,172.015C 27.9338,172.429 28.0438,172.738 28.2639,172.944C 28.4839,173.149 28.8083,173.251 29.2371,173.251C 29.4208,173.251 29.6218,173.237 29.8401,173.208C 30.0584,173.18 30.2862,173.135 30.5234,173.075L 30.5234,173.934 Z "/>
	<path fill="#000000" fill-opacity="1" stroke-linejoin="round" d="M 37.1651,171.983C 37.1651,172.339 37.0922,172.652 36.9464,172.92C 36.8006,173.189 36.5972,173.412 36.3363,173.59C 36.0754,173.769 35.7618,173.902 35.3954,173.99C 35.0291,174.078 34.6252,174.123 34.1839,174.123C 33.9844,174.123 33.7859,174.115 33.5883,174.1C 33.3907,174.084 33.2007,174.065 33.0184,174.042C 32.8362,174.019 32.6644,173.992 32.5033,173.961C 32.3422,173.931 32.1964,173.898 32.0661,173.864L 32.0661,172.874C 32.3537,172.981 32.6768,173.064 33.0355,173.125C 33.3941,173.186 33.8016,173.216 34.258,173.216C 34.588,173.216 34.869,173.19 35.101,173.138C 35.3331,173.087 35.5229,173.01 35.6705,172.909C 35.8181,172.808 35.9255,172.684 35.9927,172.539C 36.0599,172.394 36.0934,172.228 36.0934,172.04C 36.0934,171.837 36.0369,171.664 35.9238,171.52C 35.8107,171.376 35.6621,171.248 35.4781,171.134C 35.2941,171.021 35.0843,170.918 34.8485,170.824C 34.6127,170.73 34.3722,170.633 34.1268,170.533C 33.8814,170.434 33.6408,170.325 33.4051,170.208C 33.1694,170.091 32.9596,169.953 32.7756,169.794C 32.5916,169.635 32.443,169.448 32.3299,169.233C 32.2168,169.019 32.1603,168.764 32.1603,168.468C 32.1603,168.211 32.214,167.958 32.3214,167.709C 32.4287,167.46 32.5956,167.238 32.8218,167.045C 33.0481,166.851 33.3386,166.695 33.6934,166.576C 34.0483,166.457 34.4712,166.398 34.9622,166.398C 35.0887,166.398 35.2258,166.403 35.3734,166.415C 35.5211,166.426 35.6707,166.442 35.8222,166.464C 35.9737,166.485 36.1233,166.508 36.2709,166.535C 36.4185,166.562 36.5556,166.591 36.6822,166.621L 36.6822,167.54C 36.3871,167.455 36.0919,167.391 35.7967,167.347C 35.5015,167.303 35.2159,167.281 34.9399,167.281C 34.3532,167.281 33.9219,167.379 33.6459,167.575C 33.3699,167.771 33.2319,168.034 33.2319,168.365C 33.2319,168.568 33.2884,168.742 33.4015,168.888C 33.5146,169.034 33.6632,169.164 33.8472,169.279C 34.0312,169.394 34.2411,169.499 34.4768,169.593C 34.7126,169.687 34.9532,169.784 35.1986,169.883C 35.444,169.983 35.6845,170.092 35.9203,170.211C 36.1561,170.33 36.3659,170.471 36.5499,170.634C 36.7339,170.797 36.8825,170.988 36.9955,171.206C 37.1085,171.425 37.1651,171.684 37.1651,171.983 Z "/>
	<path fill="#000000" fill-opacity="1" stroke-linejoin="round" d="M 44.213,168.246L 43.3782,174.017L 42.1649,174.017L 41.3299,171.598L 41.163,171.011L 40.9735,171.633L 40.1749,174.017L 38.9962,174.017L 38.1601,168.246L 39.1377,168.246L 39.6229,172.172L 39.7263,173.039L 39.9736,172.281L 40.8123,169.683L 41.531,169.683L 42.4352,172.247L 42.6939,173.005L 42.7802,172.201L 43.224,168.246L 44.213,168.246 Z "/>
	<path fill="#000000" fill-opacity="1" stroke-linejoin="round" d="M 47.3042,169.071L 45.5967,169.071L 45.5967,168.246L 48.3169,168.246L 48.3169,173.181L 50.0362,173.181L 50.0362,174.017L 45.4083,174.017L 45.4083,173.181L 47.3042,173.181L 47.3042,169.071 Z M 47.6575,165.821C 47.7687,165.821 47.8724,165.841 47.9684,165.881C 48.0645,165.921 48.148,165.978 48.219,166.051C 48.2901,166.124 48.3457,166.207 48.386,166.301C 48.4263,166.396 48.4465,166.498 48.4465,166.61C 48.4465,166.717 48.4263,166.819 48.386,166.915C 48.3457,167.011 48.2901,167.095 48.219,167.168C 48.148,167.241 48.0645,167.298 47.9684,167.338C 47.8724,167.378 47.7687,167.399 47.6575,167.399C 47.5462,167.399 47.4426,167.378 47.3465,167.338C 47.2505,167.298 47.1669,167.241 47.0959,167.168C 47.0249,167.095 46.9692,167.011 46.9289,166.915C 46.8886,166.819 46.8685,166.717 46.8685,166.61C 46.8685,166.498 46.8886,166.396 46.9289,166.301C 46.9692,166.207 47.0249,166.124 47.0959,166.051C 47.1669,165.978 47.2505,165.921 47.3465,165.881C 47.4426,165.841 47.5462,165.821 47.6575,165.821 Z "/>
	<path fill="#000000" fill-opacity="1" stroke-linejoin="round" d="M 51.8144,168.246L 52.7061,168.246L 52.7464,169.177C 52.915,168.978 53.0779,168.812 53.235,168.679C 53.3921,168.547 53.5463,168.44 53.6976,168.359C 53.849,168.279 54.0033,168.222 54.1604,168.189C 54.3175,168.157 54.4804,168.14 54.6489,168.14C 55.243,168.14 55.6924,168.316 55.9971,168.667C 56.3018,169.017 56.4542,169.545 56.4542,170.251L 56.4542,174.017L 55.4532,174.017L 55.4532,170.329C 55.4532,169.876 55.3689,169.542 55.2003,169.325C 55.0317,169.108 54.7808,169 54.4476,169C 54.325,169 54.2052,169.018 54.0883,169.055C 53.9714,169.091 53.8497,169.154 53.7233,169.244C 53.5969,169.335 53.4599,169.456 53.3124,169.61C 53.1649,169.763 52.9992,169.955 52.8154,170.185L 52.8154,174.017L 51.8144,174.017L 51.8144,168.246 Z "/>
	<path fill="#000000" fill-opacity="1" stroke-linejoin="round" d="M 62.4855,169.059C 62.5928,169.193 62.6762,169.35 62.7357,169.529C 62.7952,169.707 62.825,169.9 62.825,170.108C 62.825,170.407 62.7703,170.68 62.6609,170.927C 62.5516,171.175 62.3972,171.386 62.1977,171.563C 61.9983,171.739 61.7595,171.876 61.4815,171.974C 61.2035,172.072 60.8976,172.121 60.5638,172.121C 60.3223,172.121 60.096,172.095 59.8851,172.043C 59.6742,171.991 59.5073,171.927 59.3845,171.851C 59.312,171.958 59.251,172.059 59.2015,172.155C 59.1521,172.251 59.1273,172.358 59.1273,172.477C 59.1273,172.622 59.1973,172.743 59.3372,172.839C 59.4772,172.934 59.6623,172.986 59.8924,172.994L 61.4111,173.051C 61.6989,173.059 61.9646,173.095 62.2081,173.16C 62.4517,173.226 62.6607,173.319 62.8351,173.442C 63.0095,173.565 63.1456,173.716 63.2435,173.896C 63.3413,174.076 63.3902,174.285 63.3902,174.523C 63.3902,174.779 63.3347,175.023 63.2235,175.253C 63.1124,175.482 62.9408,175.685 62.7088,175.859C 62.4767,176.033 62.1825,176.172 61.8259,176.276C 61.4694,176.379 61.0457,176.431 60.555,176.431C 60.0871,176.431 59.6893,176.393 59.3615,176.319C 59.0338,176.244 58.7644,176.141 58.5535,176.009C 58.3426,175.877 58.1892,175.72 58.0934,175.538C 57.9976,175.356 57.9497,175.156 57.9497,174.938C 57.9497,174.659 58.0146,174.414 58.1445,174.203C 58.2743,173.993 58.4748,173.79 58.7459,173.595C 58.6468,173.549 58.5609,173.491 58.4884,173.422C 58.4158,173.353 58.3566,173.277 58.3108,173.195C 58.265,173.112 58.2306,173.025 58.2078,172.933C 58.1849,172.841 58.1735,172.751 58.1735,172.662C 58.1735,172.413 58.2317,172.185 58.3482,171.977C 58.4646,171.77 58.603,171.575 58.7632,171.39C 58.6903,171.302 58.6261,171.216 58.5704,171.132C 58.5148,171.047 58.4669,170.956 58.4266,170.858C 58.3864,170.761 58.3557,170.655 58.3346,170.542C 58.3135,170.429 58.303,170.299 58.303,170.154C 58.303,169.855 58.3577,169.581 58.467,169.334C 58.5764,169.087 58.7299,168.875 58.9275,168.698C 59.1251,168.522 59.363,168.385 59.6411,168.287C 59.9193,168.189 60.2272,168.14 60.5649,168.14C 60.7069,168.14 60.8432,168.15 60.9737,168.17C 61.1041,168.189 61.2191,168.215 61.3187,168.246L 63.4138,168.246L 63.4138,169.059L 62.4855,169.059 Z M 59.0095,174.851C 59.0095,175.122 59.1515,175.32 59.4354,175.444C 59.7193,175.568 60.1145,175.63 60.6208,175.63C 60.9393,175.63 61.2069,175.601 61.4236,175.544C 61.6404,175.487 61.8149,175.411 61.9473,175.318C 62.0796,175.224 62.1746,175.117 62.2322,174.997C 62.2898,174.877 62.3186,174.754 62.3186,174.628C 62.3186,174.395 62.2227,174.223 62.0308,174.112C 61.839,174.001 61.5455,173.936 61.1504,173.917L 59.6425,173.865C 59.5159,173.949 59.4114,174.032 59.3289,174.112C 59.2464,174.192 59.1821,174.273 59.136,174.355C 59.09,174.437 59.0574,174.52 59.0382,174.602C 59.0191,174.684 59.0095,174.767 59.0095,174.851 Z M 59.3157,170.131C 59.3157,170.315 59.3464,170.483 59.4077,170.637C 59.4691,170.79 59.5553,170.92 59.6666,171.028C 59.7779,171.135 59.9092,171.218 60.0606,171.278C 60.2121,171.337 60.3798,171.367 60.5638,171.367C 60.7632,171.367 60.9407,171.333 61.096,171.266C 61.2514,171.199 61.3818,171.108 61.4872,170.993C 61.5926,170.878 61.6732,170.746 61.7288,170.596C 61.7844,170.447 61.8122,170.291 61.8122,170.131C 61.8122,169.947 61.7816,169.778 61.7202,169.624C 61.6589,169.471 61.5726,169.341 61.4613,169.233C 61.3501,169.126 61.2187,169.043 61.0672,168.983C 60.9157,168.924 60.7479,168.894 60.5638,168.894C 60.3645,168.894 60.1871,168.929 60.0318,168.998C 59.8766,169.067 59.7462,169.158 59.6407,169.271C 59.5352,169.384 59.4546,169.515 59.3991,169.665C 59.3435,169.814 59.3157,169.969 59.3157,170.131 Z "/>
	<path fill="#000000" fill-opacity="1" stroke-linejoin="round" d="M 68.713,176.372L 65.875,176.372L 65.875,165.691L 68.713,165.691L 68.713,166.492L 66.8288,166.492L 66.8288,175.571L 68.713,175.571L 68.713,176.372 Z "/>
	<path fill="#000000" fill-opacity="1" stroke-linejoin="round" d="M 76.332,170.263C 76.332,170.838 76.2745,171.362 76.1595,171.836C 76.0444,172.31 75.8699,172.716 75.636,173.056C 75.402,173.395 75.1116,173.658 74.7646,173.844C 74.4177,174.03 74.0103,174.123 73.5424,174.123C 73.1398,174.123 72.7737,174.047 72.4439,173.895C 72.1142,173.744 71.8324,173.511 71.5985,173.196C 71.3647,172.882 71.1845,172.481 71.0579,171.994C 70.9313,171.507 70.868,170.93 70.868,170.263C 70.868,169.688 70.9265,169.162 71.0434,168.687C 71.1604,168.211 71.3349,167.804 71.5669,167.464C 71.7989,167.125 72.0894,166.862 72.4382,166.676C 72.7871,166.491 73.1935,166.398 73.6574,166.398C 74.0601,166.398 74.4264,166.473 74.7561,166.625C 75.0858,166.776 75.3676,167.01 75.6015,167.326C 75.8353,167.643 76.0156,168.045 76.1422,168.532C 76.2687,169.019 76.332,169.596 76.332,170.263 Z M 75.3193,170.297C 75.3193,170.166 75.3145,170.037 75.3049,169.908C 75.2952,169.779 75.2847,169.653 75.2733,169.53L 72.0934,171.897C 72.1509,172.096 72.2238,172.28 72.312,172.448C 72.4002,172.616 72.5066,172.761 72.6312,172.881C 72.7557,173.002 72.8976,173.096 73.0567,173.163C 73.2158,173.229 73.3969,173.263 73.6,173.263C 73.8607,173.263 74.0974,173.2 74.3102,173.073C 74.5229,172.947 74.704,172.759 74.8535,172.51C 75.003,172.261 75.118,171.951 75.1985,171.582C 75.279,171.212 75.3193,170.784 75.3193,170.297 Z M 71.8807,170.228C 71.8807,170.347 71.8817,170.466 71.8836,170.585C 71.8855,170.705 71.8922,170.82 71.9037,170.931L 75.0834,168.576C 75.026,168.381 74.9532,168.203 74.865,168.043C 74.7768,167.882 74.6714,167.744 74.5487,167.627C 74.426,167.51 74.2861,167.42 74.129,167.355C 73.9719,167.29 73.7955,167.257 73.6,167.257C 73.3393,167.257 73.1026,167.32 72.8899,167.447C 72.6771,167.573 72.496,167.762 72.3465,168.013C 72.197,168.264 72.082,168.574 72.0015,168.944C 71.921,169.313 71.8807,169.741 71.8807,170.228 Z "/>
	<path fill="#000000" fill-opacity="1" stroke-linejoin="round" d="M 81.3604,176.372L 78.5224,176.372L 78.5224,175.571L 80.3948,175.571L 80.3948,166.492L 78.5224,166.492L 78.5224,165.691L 81.3604,165.691L 81.3604,176.372 Z "/>
	<path fill="#000000" fill-opacity="1" stroke-linejoin="round" d="M 199.333,127.273L 196.24,125.888L 190.906,123.436L 185.677,121.305L 180.344,119.383L 174.797,117.461L 169.25,115.759L 163.702,114.368L 158.052,113.092L 152.396,111.915L 146.64,110.852L 140.984,110.103L 135.224,109.461L 129.464,109.035L 123.598,108.821L 117.838,108.716L 117.838,111.915L 123.489,112.024L 129.25,112.128L 134.906,112.664L 140.557,113.305L 146.213,114.049L 151.864,114.904L 157.412,116.076L 162.958,117.357L 168.505,118.743L 173.838,120.451L 179.172,122.264L 184.396,124.185L 189.625,126.316L 194.854,128.664L 197.942,130.155M 194.958,132.289L 205.729,132.399L 199.333,123.649"/>
	<path fill="#000000" fill-opacity="1" stroke-linejoin="round" d="M 152.973,105.296C 152.973,105.653 152.9,105.966 152.754,106.234C 152.608,106.502 152.405,106.726 152.144,106.904C 151.883,107.082 151.57,107.216 151.203,107.304C 150.837,107.392 150.433,107.436 149.992,107.436C 149.792,107.436 149.594,107.428 149.396,107.413C 149.198,107.398 149.008,107.379 148.826,107.356C 148.644,107.333 148.472,107.306 148.311,107.275C 148.15,107.244 148.004,107.212 147.874,107.177L 147.874,106.188C 148.161,106.294 148.485,106.378 148.843,106.438C 149.202,106.499 149.609,106.529 150.066,106.529C 150.396,106.529 150.677,106.504 150.909,106.452C 151.141,106.4 151.331,106.324 151.478,106.223C 151.626,106.121 151.733,105.998 151.8,105.853C 151.868,105.707 151.901,105.541 151.901,105.354C 151.901,105.151 151.845,104.977 151.732,104.833C 151.618,104.69 151.47,104.561 151.286,104.448C 151.102,104.335 150.892,104.231 150.656,104.137C 150.42,104.043 150.18,103.946 149.934,103.847C 149.689,103.747 149.449,103.639 149.213,103.522C 148.977,103.405 148.767,103.267 148.583,103.108C 148.399,102.948 148.251,102.762 148.138,102.547C 148.025,102.332 147.968,102.077 147.968,101.782C 147.968,101.525 148.022,101.272 148.129,101.022C 148.236,100.773 148.403,100.552 148.63,100.358C 148.856,100.165 149.146,100.008 149.501,99.8894C 149.856,99.7706 150.279,99.7111 150.77,99.7111C 150.896,99.7111 151.033,99.7168 151.181,99.7283C 151.329,99.7398 151.478,99.756 151.63,99.7771C 151.781,99.7981 151.931,99.822 152.079,99.8487C 152.226,99.8755 152.363,99.9042 152.49,99.9349L 152.49,100.853C 152.195,100.769 151.9,100.705 151.604,100.661C 151.309,100.616 151.024,100.594 150.748,100.594C 150.161,100.594 149.73,100.692 149.454,100.888C 149.178,101.085 149.04,101.348 149.04,101.678C 149.04,101.882 149.096,102.056 149.209,102.202C 149.322,102.347 149.471,102.478 149.655,102.593C 149.839,102.708 150.049,102.812 150.285,102.906C 150.52,103 150.761,103.097 151.006,103.197C 151.252,103.297 151.492,103.406 151.728,103.525C 151.964,103.644 152.174,103.784 152.358,103.947C 152.542,104.11 152.69,104.301 152.803,104.52C 152.916,104.738 152.973,104.997 152.973,105.296 Z "/>
	<path fill="#000000" fill-opacity="1" stroke-linejoin="round" d="M 159.985,101.56L 159.151,107.33L 157.937,107.33L 157.102,104.912L 156.935,104.324L 156.746,104.946L 155.947,107.33L 154.769,107.33L 153.933,101.56L 154.91,101.56L 155.395,105.485L 155.499,106.353L 155.746,105.594L 156.585,102.997L 157.303,102.997L 158.208,105.56L 158.466,106.319L 158.553,105.514L 158.996,101.56L 159.985,101.56 Z "/>
	<path fill="#000000" fill-opacity="1" stroke-linejoin="round" d="M 163.077,102.384L 161.369,102.384L 161.369,101.56L 164.089,101.56L 164.089,106.494L 165.809,106.494L 165.809,107.33L 161.181,107.33L 161.181,106.494L 163.077,106.494L 163.077,102.384 Z M 163.43,99.1341C 163.541,99.1341 163.645,99.1542 163.741,99.1945C 163.837,99.2348 163.92,99.2914 163.991,99.3644C 164.062,99.4373 164.118,99.5208 164.158,99.615C 164.199,99.7091 164.219,99.8118 164.219,99.9231C 164.219,100.031 164.199,100.132 164.158,100.228C 164.118,100.324 164.062,100.409 163.991,100.482C 163.92,100.555 163.837,100.611 163.741,100.652C 163.645,100.692 163.541,100.712 163.43,100.712C 163.319,100.712 163.215,100.692 163.119,100.652C 163.023,100.611 162.939,100.555 162.868,100.482C 162.797,100.409 162.742,100.324 162.701,100.228C 162.661,100.132 162.641,100.031 162.641,99.9231C 162.641,99.8118 162.661,99.7091 162.701,99.615C 162.742,99.5208 162.797,99.4373 162.868,99.3644C 162.939,99.2914 163.023,99.2348 163.119,99.1945C 163.215,99.1542 163.319,99.1341 163.43,99.1341 Z "/>
	<path fill="#000000" fill-opacity="1" stroke-linejoin="round" d="M 167.622,101.56L 168.514,101.56L 168.554,102.491C 168.723,102.291 168.886,102.125 169.043,101.993C 169.2,101.86 169.354,101.754 169.505,101.673C 169.657,101.592 169.811,101.536 169.968,101.503C 170.125,101.47 170.288,101.454 170.457,101.454C 171.051,101.454 171.5,101.629 171.805,101.98C 172.11,102.331 172.262,102.859 172.262,103.564L 172.262,107.33L 171.261,107.33L 171.261,103.643C 171.261,103.19 171.177,102.855 171.008,102.639C 170.839,102.422 170.589,102.314 170.255,102.314C 170.133,102.314 170.013,102.332 169.896,102.368C 169.779,102.405 169.657,102.468 169.531,102.558C 169.405,102.648 169.268,102.77 169.12,102.923C 168.973,103.077 168.807,103.268 168.623,103.499L 168.623,107.33L 167.622,107.33L 167.622,101.56 Z "/>
	<path fill="#000000" fill-opacity="1" stroke-linejoin="round" d="M 178.258,102.372C 178.365,102.507 178.449,102.663 178.508,102.842C 178.568,103.021 178.597,103.214 178.597,103.421C 178.597,103.72 178.543,103.993 178.433,104.241C 178.324,104.488 178.17,104.7 177.97,104.876C 177.771,105.053 177.532,105.19 177.254,105.288C 176.976,105.385 176.67,105.434 176.336,105.434C 176.095,105.434 175.868,105.408 175.657,105.357C 175.447,105.305 175.28,105.241 175.157,105.164C 175.084,105.271 175.023,105.373 174.974,105.469C 174.924,105.564 174.9,105.672 174.9,105.79C 174.9,105.936 174.97,106.057 175.11,106.152C 175.25,106.248 175.435,106.3 175.665,106.307L 177.184,106.365C 177.471,106.373 177.737,106.409 177.981,106.474C 178.224,106.539 178.433,106.633 178.607,106.756C 178.782,106.878 178.918,107.03 179.016,107.21C 179.114,107.39 179.163,107.599 179.163,107.836C 179.163,108.093 179.107,108.336 178.996,108.566C 178.885,108.796 178.713,108.998 178.481,109.172C 178.249,109.347 177.955,109.486 177.598,109.589C 177.242,109.693 176.818,109.744 176.327,109.744C 175.859,109.744 175.462,109.707 175.134,109.632C 174.806,109.558 174.537,109.454 174.326,109.322C 174.115,109.19 173.962,109.033 173.866,108.852C 173.77,108.67 173.722,108.47 173.722,108.252C 173.722,107.972 173.787,107.727 173.917,107.517C 174.047,107.306 174.247,107.103 174.518,106.908C 174.419,106.862 174.333,106.805 174.261,106.735C 174.188,106.666 174.129,106.591 174.083,106.508C 174.037,106.426 174.003,106.338 173.98,106.246C 173.957,106.154 173.946,106.064 173.946,105.976C 173.946,105.726 174.004,105.498 174.121,105.291C 174.237,105.084 174.375,104.888 174.536,104.704C 174.463,104.616 174.398,104.529 174.343,104.445C 174.287,104.361 174.239,104.27 174.199,104.172C 174.159,104.074 174.128,103.969 174.107,103.855C 174.086,103.742 174.075,103.613 174.075,103.467C 174.075,103.168 174.13,102.895 174.239,102.648C 174.349,102.4 174.502,102.188 174.7,102.012C 174.897,101.836 175.135,101.699 175.414,101.601C 175.692,101.503 176,101.454 176.337,101.454C 176.479,101.454 176.616,101.464 176.746,101.483C 176.877,101.503 176.992,101.529 177.091,101.56L 179.186,101.56L 179.186,102.372L 178.258,102.372 Z M 174.782,108.164C 174.782,108.435 174.924,108.633 175.208,108.757C 175.492,108.881 175.887,108.943 176.393,108.943C 176.712,108.943 176.979,108.915 177.196,108.858C 177.413,108.8 177.587,108.725 177.72,108.631C 177.852,108.538 177.947,108.431 178.005,108.311C 178.062,108.19 178.091,108.067 178.091,107.941C 178.091,107.708 177.995,107.536 177.803,107.426C 177.611,107.315 177.318,107.25 176.923,107.231L 175.415,107.179C 175.288,107.263 175.184,107.345 175.101,107.425C 175.019,107.506 174.954,107.587 174.908,107.669C 174.862,107.751 174.83,107.833 174.811,107.915C 174.792,107.997 174.782,108.08 174.782,108.164 Z M 175.088,103.444C 175.088,103.628 175.119,103.797 175.18,103.95C 175.241,104.104 175.328,104.234 175.439,104.341C 175.55,104.449 175.682,104.532 175.833,104.591C 175.984,104.651 176.152,104.681 176.336,104.681C 176.536,104.681 176.713,104.647 176.868,104.58C 177.024,104.513 177.154,104.422 177.26,104.307C 177.365,104.192 177.446,104.059 177.501,103.91C 177.557,103.76 177.585,103.605 177.585,103.444C 177.585,103.26 177.554,103.091 177.493,102.938C 177.431,102.785 177.345,102.654 177.234,102.547C 177.122,102.44 176.991,102.356 176.84,102.297C 176.688,102.237 176.52,102.208 176.336,102.208C 176.137,102.208 175.96,102.242 175.804,102.311C 175.649,102.38 175.519,102.471 175.413,102.584C 175.308,102.697 175.227,102.829 175.171,102.978C 175.116,103.128 175.088,103.283 175.088,103.444 Z "/>
	<path fill="#000000" fill-opacity="1" stroke-linejoin="round" d="M 171.598,218.581L 173.625,220.716C 173.729,220.716 173.729,220.821 173.729,220.821L 174.584,221.997L 175.864,224.341L 176.292,225.409C 176.292,225.519 176.292,225.519 176.396,225.623L 176.505,226.477L 176.505,227.436C 176.505,227.545 176.396,227.649 176.396,227.863L 176.188,228.503C 176.188,228.716 176.078,228.931 175.973,229.035L 175.546,229.571C 175.546,229.675 175.437,229.675 175.333,229.784L 175.12,229.997L 175.01,230.103L 174.584,230.212L 173.942,230.639L 173.306,230.852L 172.13,230.956L 170.854,231.065L 169.464,230.956L 167.973,230.743L 166.478,230.316L 164.77,229.888L 163.062,229.248L 161.25,228.607L 159.437,227.863L 157.625,227.008L 155.702,226.155L 153.786,224.983L 151.973,223.915L 150.052,222.639L 148.13,221.461L 146.317,220.076L 144.609,218.795L 142.906,217.519L 141.521,216.128L 140.13,214.852L 138.958,213.571L 137.89,212.399L 137.036,211.221L 136.396,210.049L 135.76,208.879L 135.333,207.811L 135.333,207.597L 135.224,206.743C 135.12,206.639 135.12,206.529 135.12,206.529L 135.224,205.784L 135.224,205.248L 135.437,204.607C 135.437,204.503 135.546,204.399 135.65,204.185L 136.078,203.649C 136.188,203.545 136.188,203.436 136.292,203.436L 136.505,203.221C 136.609,203.117 136.609,203.117 136.718,203.117L 136.932,202.904L 137.464,202.691L 138.104,202.581L 138.854,202.477L 139.598,202.368L 141.197,202.368L 142.052,202.477L 143.12,202.581L 144.188,202.795L 145.25,203.008L 147.276,203.649L 149.625,204.399L 152.078,205.461L 154.53,206.639L 153.145,209.623L 150.797,208.451L 148.453,207.597L 146.426,206.852L 144.505,206.212L 143.65,205.997L 142.797,205.888L 142.052,205.784L 141.306,205.675L 139.598,205.675L 139.062,205.784L 138.958,205.784L 138.745,205.888L 138.317,205.997L 138.53,205.888L 138.317,206.103L 138.53,205.888L 138.104,206.425L 138.317,205.888L 138.104,206.529L 138.213,206.103L 138.104,206.743L 138.104,206.529L 138.213,207.273L 138.213,207.065L 138.426,207.811L 138.854,208.555L 139.489,209.623L 140.13,210.691L 141.197,211.759L 142.265,212.931L 143.546,214.212L 144.822,215.383L 146.317,216.664L 148.026,217.94L 149.729,219.221L 151.546,220.399L 155.172,222.743L 160.609,225.305L 162.317,226.049L 164.026,226.691L 165.521,227.221L 167.01,227.649L 168.292,228.076L 169.573,228.185L 170.64,228.289L 171.489,228.289L 172.24,228.185L 172.453,228.185L 172.557,228.076L 172.984,227.863L 172.77,227.972L 172.984,227.863L 172.77,228.076L 173.306,227.545L 173.093,227.972L 173.197,227.331L 173.197,227.436L 173.197,226.691L 173.197,227.117L 173.093,226.264L 173.093,226.368L 172.984,225.732L 172.453,224.879L 171.917,224.024L 171.062,222.852L 171.172,222.956L 169.145,220.931M 168.396,224.341L 164.557,214.316L 174.906,217.305"/>
	<path fill="#000000" fill-opacity="1" stroke-linejoin="round" d="M 151.973,238.956L 155.276,233.305L 152.822,231.915L 153.36,231.169L 159.12,234.581L 158.693,235.331L 156.24,233.94L 152.932,239.597M 156.557,241.623L 158.693,235.649L 159.546,236.289L 157.729,240.879L 160.932,237.675L 161.786,238.316L 160.396,242.691L 163.812,238.852L 164.557,239.273L 160.188,243.972L 159.333,243.436L 160.718,238.852L 157.306,242.155M 164.344,246.212L 167.01,241.623L 165.093,240.451L 165.521,239.701L 168.505,241.519L 165.306,246.852M 168.078,239.597L 168.822,238.425L 170.104,239.065L 169.36,240.341M 168.609,248.555L 169.145,247.701C 169.786,248.451 170.317,248.983 170.854,249.409C 171.385,249.623 171.598,249.836 172.026,249.836C 172.453,249.732 172.666,249.732 172.77,249.409C 172.984,248.983 172.77,248.664 172.24,248.024L 171.489,247.169C 170.854,246.425 170.745,245.675 171.062,245.035C 171.276,244.503 171.702,244.289 172.24,244.289C 172.77,244.289 173.412,244.399 174.052,244.821C 174.584,245.035 175.224,245.571 175.76,246.103L 175.224,246.852C 174.693,246.316 174.156,245.784 173.729,245.571C 173.306,245.357 173.093,245.144 172.666,245.144C 172.453,245.144 172.13,245.248 172.026,245.571C 171.917,245.784 172.026,246.212 172.453,246.639L 173.521,247.811C 173.942,248.341 174.052,248.664 174.156,248.983C 174.156,249.409 174.156,249.732 173.942,250.049C 173.729,250.581 173.197,250.904 172.666,250.904C 172.026,250.904 171.385,250.795 170.64,250.368C 169.786,249.623 169.25,249.196 168.609,248.555 Z M 179.062,255.065C 178.53,254.852 178,254.529 177.573,254.316C 176.822,253.784 176.396,253.461 176.292,252.931C 176.188,252.503 176.292,251.863 176.822,251.008L 178.317,248.451L 176.932,247.701L 177.464,246.956L 178.745,247.701L 179.489,246.529L 180.344,247.169L 179.702,248.341L 182.052,249.732L 181.625,250.477L 179.172,249.092L 177.677,251.759C 177.464,252.185 177.25,252.289 177.25,252.399C 177.25,252.503 177.25,252.821 177.36,252.931C 177.464,253.144 177.786,253.461 178.104,253.675C 178.64,253.888 178.958,254.212 179.385,254.316"/>
</svg>
