<?xml version="1.0" encoding="utf-8"?>
<!DOCTYPE svg PUBLIC "-//W3C//DTD SVG 1.1//EN" "http://www.w3.org/Graphics/SVG/1.1/DTD/svg11.dtd">
<svg xmlns="http://www.w3.org/2000/svg" xmlns:xlink="http://www.w3.org/1999/xlink" version="1.1" baseProfile="full" width="444" height="214.667" viewBox="0 0 444.00 214.67" enable-background="new 0 0 444.00 214.67" xml:space="preserve">
	<path fill="#000000" fill-opacity="1" stroke-linejoin="round" d="M 12.672,9.80205C 12.672,11.2692 12.4991,12.5364 12.1534,13.6034C 11.8077,14.6705 11.3411,15.5521 10.7538,16.2482C 10.1665,16.9444 9.47912,17.4613 8.69179,17.799C 7.90445,18.1368 7.07332,18.3056 6.19839,18.3056C 5.14879,18.3056 4.23452,18.116 3.45559,17.7366C 2.67665,17.3573 2.03099,16.8092 1.51859,16.0923C 1.00619,15.3753 0.624987,14.502 0.374987,13.4724C 0.124987,12.4428 -1.3059e-005,11.282 -1.3059e-005,9.99004C -1.3059e-005,8.53964 0.170787,7.28091 0.512387,6.21384C 0.853987,5.14677 1.31845,4.26518 1.90579,3.56903C 2.49312,2.87291 3.17839,2.35605 3.96159,2.01843C 4.74479,1.68083 5.57372,1.51205 6.44839,1.51205C 7.49825,1.51205 8.41265,1.70378 9.19159,2.08725C 9.97052,2.4707 10.6183,3.01878 11.1348,3.73145C 11.6513,4.44412 12.0367,5.31317 12.2908,6.33865C 12.5449,7.36411 12.672,8.51859 12.672,9.80205 Z M 10.4448,9.95885C 10.4448,9.00017 10.3703,8.12285 10.2214,7.32684C 10.0725,6.53085 9.83205,5.84531 9.50019,5.27025C 9.16832,4.69518 8.74085,4.24931 8.21779,3.93265C 7.69472,3.61597 7.06319,3.45764 6.32319,3.45764C 5.60852,3.45764 4.99385,3.62637 4.47919,3.96384C 3.96452,4.30132 3.54132,4.7597 3.20959,5.33904C 2.87785,5.91838 2.63119,6.59764 2.46959,7.37683C 2.30799,8.15604 2.22719,8.98338 2.22719,9.85883C 2.22719,10.8258 2.30372,11.7072 2.45679,12.503C 2.60985,13.2989 2.85019,13.9824 3.17779,14.5534C 3.50539,15.1245 3.92859,15.5684 4.44739,15.885C 4.96619,16.2017 5.59145,16.36 6.32319,16.36C 7.03759,16.36 7.65425,16.1913 8.17319,15.8536C 8.69212,15.516 9.11959,15.0576 9.45559,14.4784C 9.79159,13.8992 10.0405,13.222 10.2022,12.4468C 10.3639,11.6716 10.4448,10.8423 10.4448,9.95885 Z "/>
	<path fill="#000000" fill-opacity="1" stroke-linejoin="round" d="M 26.112,11.5772C 26.112,12.6191 25.9682,13.5506 25.6806,14.3716C 25.393,15.1927 24.9846,15.8888 24.4554,16.4598C 23.9262,17.0309 23.2824,17.4685 22.524,17.7726C 21.7656,18.0768 20.9113,18.2289 19.9612,18.2289C 19.2193,18.2289 18.4609,18.158 17.6858,18.0162C 16.9107,17.8745 16.144,17.6495 15.3856,17.3412L 15.3856,0.41124L 17.5616,0.41124L 17.5616,5.27563L 17.4616,7.60124C 18.0864,6.75937 18.7551,6.16551 19.4676,5.81964C 20.1801,5.47379 20.9448,5.30084 21.7616,5.30084C 22.4784,5.30084 23.1077,5.45084 23.6494,5.75084C 24.1911,6.05084 24.6453,6.47385 25.012,7.01984C 25.3787,7.56584 25.6537,8.22437 25.837,8.99545C 26.0203,9.76651 26.112,10.6271 26.112,11.5772 Z M 23.8848,11.6725C 23.8848,11.0138 23.8369,10.4093 23.741,9.85904C 23.6451,9.30878 23.4931,8.83777 23.285,8.44604C 23.0769,8.05431 22.8103,7.74791 22.4852,7.52684C 22.1601,7.30577 21.7728,7.19524 21.3232,7.19524C 21.0483,7.19524 20.7691,7.23904 20.4858,7.32664C 20.2025,7.41425 19.9087,7.56017 19.6046,7.76445C 19.3005,7.96872 18.9797,8.23965 18.6424,8.57724C 18.3051,8.91484 17.9448,9.33377 17.5616,9.83405L 17.5616,15.9244C 17.9864,16.0914 18.4196,16.2228 18.8612,16.3186C 19.3028,16.4145 19.7235,16.4624 20.1232,16.4624C 20.6232,16.4624 21.1002,16.3832 21.5542,16.2246C 22.0082,16.0661 22.4081,15.8014 22.7538,15.4305C 23.0995,15.0595 23.3745,14.5676 23.5786,13.9548C 23.7827,13.342 23.8848,12.5812 23.8848,11.6725 Z "/>
	<path fill="#000000" fill-opacity="1" stroke-linejoin="round" d="M 37.9904,5.53123L 37.9904,17.8504C 37.9904,18.7254 37.8655,19.5022 37.6156,20.181C 37.3657,20.8598 37.0076,21.4325 36.5412,21.899C 36.0748,22.3656 35.5022,22.7196 34.8234,22.961C 34.1446,23.2025 33.3804,23.3232 32.5308,23.3232C 31.9145,23.3232 31.3128,23.2668 30.7256,23.1538C 30.1384,23.0409 29.6075,22.884 29.1328,22.6832L 29.1328,20.6096C 29.3909,20.7443 29.6677,20.8662 29.9632,20.9754C 30.2587,21.0846 30.5625,21.1771 30.8748,21.2528C 31.1871,21.3286 31.5013,21.3854 31.8176,21.4232C 32.1339,21.4611 32.4419,21.48 32.7416,21.48C 33.6909,21.48 34.4361,21.1791 34.9772,20.5772C 35.5183,19.9754 35.7888,19.0911 35.7888,17.9244L 35.7888,7.32324L 29.6448,7.32324L 29.6448,5.53123L 37.9904,5.53123 Z M 36.6848,0.257629C 36.9267,0.257629 37.152,0.301437 37.3608,0.389038C 37.5696,0.476654 37.7512,0.599716 37.9056,0.75824C 38.06,0.916779 38.181,1.10045 38.2686,1.30925C 38.3562,1.51804 38.4,1.73924 38.4,1.97284C 38.4,2.21471 38.3562,2.43791 38.2686,2.64244C 38.181,2.84697 38.06,3.02856 37.9056,3.18724C 37.7512,3.34592 37.5696,3.46904 37.3608,3.55664C 37.152,3.64423 36.9267,3.68803 36.6848,3.68803C 36.4429,3.68803 36.2176,3.64423 36.0088,3.55664C 35.8,3.46904 35.6184,3.34592 35.464,3.18724C 35.3096,3.02856 35.1886,2.84697 35.101,2.64244C 35.0134,2.43791 34.9696,2.21471 34.9696,1.97284C 34.9696,1.73924 35.0134,1.51804 35.101,1.30925C 35.1886,1.10045 35.3096,0.916779 35.464,0.75824C 35.6184,0.599716 35.8,0.476654 36.0088,0.389038C 36.2176,0.301437 36.4429,0.257629 36.6848,0.257629 Z "/>
	<path fill="#000000" fill-opacity="1" stroke-linejoin="round" d="M 54.1952,11.1332C 54.1952,11.4413 54.1911,11.6994 54.1828,11.9076C 54.1745,12.1159 54.162,12.3115 54.1452,12.4944L 45.3376,12.4944C 45.3376,13.7798 45.6961,14.7667 46.4132,15.4552C 47.1303,16.1438 48.1641,16.488 49.5148,16.488C 49.8815,16.488 50.2482,16.4734 50.6152,16.4442C 50.9821,16.415 51.3365,16.3754 51.6784,16.3254C 52.0203,16.2754 52.3475,16.2192 52.6602,16.1568C 52.9729,16.0945 53.2627,16.0256 53.5296,15.9504L 53.5296,17.7424C 52.9373,17.9091 52.268,18.0446 51.5216,18.149C 50.7752,18.2534 50.0017,18.3056 49.2012,18.3056C 48.1255,18.3056 47.1998,18.1597 46.4242,17.8678C 45.6486,17.576 45.0127,17.1529 44.5166,16.5986C 44.0205,16.0444 43.6535,15.365 43.4158,14.5605C 43.1781,13.7559 43.0592,12.8452 43.0592,11.8284C 43.0592,10.9444 43.1863,10.1086 43.4406,9.32085C 43.6949,8.53311 44.0657,7.84123 44.553,7.24524C 45.0403,6.64923 45.6381,6.17618 46.3462,5.82603C 47.0543,5.47592 47.8584,5.30084 48.7584,5.30084C 49.6333,5.30084 50.4083,5.43823 51.0832,5.71304C 51.7581,5.98784 52.3268,6.37711 52.7892,6.88084C 53.2516,7.38457 53.6015,7.99651 53.839,8.71664C 54.0765,9.43677 54.1952,10.2423 54.1952,11.1332 Z M 51.9424,10.8304C 51.9675,10.2718 51.9133,9.76111 51.7798,9.29845C 51.6463,8.83578 51.4399,8.43771 51.1606,8.10423C 50.8813,7.77078 50.5331,7.5103 50.1162,7.32285C 49.6993,7.13538 49.2155,7.04163 48.6648,7.04163C 48.1896,7.04163 47.7561,7.1333 47.3642,7.31664C 46.9723,7.49997 46.6346,7.75836 46.351,8.09184C 46.0674,8.42529 45.838,8.82544 45.6628,9.29224C 45.4876,9.75903 45.3792,10.2718 45.3376,10.8304L 51.9424,10.8304 Z "/>
	<path fill="#000000" fill-opacity="1" stroke-linejoin="round" d="M 67.456,17.6144C 66.8891,17.8318 66.3075,17.9928 65.7114,18.0974C 65.1153,18.2021 64.5004,18.2544 63.8668,18.2544C 61.8828,18.2544 60.3551,17.7168 59.2838,16.6416C 58.2125,15.5664 57.6768,13.9954 57.6768,11.9284C 57.6768,10.9364 57.831,10.0362 58.1394,9.22784C 58.4478,8.41943 58.8813,7.72765 59.44,7.15245C 59.9987,6.57724 60.6657,6.13336 61.441,5.82085C 62.2163,5.5083 63.0708,5.35204 64.0044,5.35204C 64.6548,5.35204 65.2635,5.39798 65.8304,5.48984C 66.3973,5.58171 66.9392,5.73204 67.456,5.94084L 67.456,8.01445C 66.9144,7.72885 66.3623,7.5209 65.7996,7.39066C 65.2369,7.26038 64.6556,7.19524 64.0556,7.19524C 63.4972,7.19524 62.9701,7.3015 62.4742,7.51404C 61.9783,7.72656 61.5429,8.0329 61.1678,8.43304C 60.7927,8.83318 60.4969,9.32091 60.2802,9.89624C 60.0635,10.4716 59.9552,11.1218 59.9552,11.8468C 59.9552,13.3639 60.324,14.4996 61.0616,15.254C 61.7992,16.0085 62.8223,16.3857 64.1308,16.3857C 64.7223,16.3857 65.2952,16.3195 65.8496,16.1872C 66.404,16.055 66.9395,15.8566 67.456,15.592L 67.456,17.6144 Z "/>
	<path fill="#000000" fill-opacity="1" stroke-linejoin="round" d="M 81.92,17.896C 81.4291,18.024 80.9213,18.1158 80.3966,18.1712C 79.8719,18.2267 79.3391,18.2544 78.798,18.2544C 77.2244,18.2544 76.0504,17.898 75.276,17.185C 74.5016,16.4721 74.1144,15.3778 74.1144,13.902L 74.1144,7.34885L 70.6048,7.34885L 70.6048,5.53123L 74.1144,5.53123L 74.1144,2.07524L 76.2904,1.51205L 76.2904,5.53123L 81.92,5.53123L 81.92,7.34885L 76.2904,7.34885L 76.2904,13.7236C 76.2904,14.6236 76.5296,15.2966 77.008,15.7424C 77.4864,16.1883 78.1916,16.4112 79.1236,16.4112C 79.5231,16.4112 79.9601,16.3802 80.4346,16.3182C 80.9091,16.2563 81.4043,16.1592 81.92,16.0273L 81.92,17.896 Z "/>
	<path fill="#000000" fill-opacity="1" stroke-linejoin="round" d="M 61.1808,67.1761L 58.1648,67.1761L 53.6124,56.9861L 52.2976,53.7105L 52.2976,61.9497L 52.2976,67.1761L 50.0704,67.1761L 50.0704,50.8433L 53.0504,50.8433L 57.388,60.4941L 58.9536,64.2321L 58.9536,55.4813L 58.9536,50.8433L 61.1808,50.8433L 61.1808,67.1761 Z "/>
	<path fill="#000000" fill-opacity="1" stroke-linejoin="round" d="M 72.7576,67.1761L 72.708,65.4897C 72.0245,66.166 71.3306,66.6545 70.6262,66.9553C 69.9218,67.2561 69.1818,67.4065 68.4064,67.4065C 67.6896,67.4065 67.0769,67.3147 66.5684,67.1311C 66.0598,66.9475 65.641,66.6953 65.3118,66.3745C 64.9826,66.0537 64.7408,65.6765 64.5866,65.243C 64.4323,64.8093 64.3552,64.3384 64.3552,63.8301C 64.3552,62.5712 64.8242,61.5853 65.7622,60.8725C 66.7002,60.1597 68.0862,59.8033 69.9204,59.8033L 72.5216,59.8033L 72.5216,58.7005C 72.5216,57.9573 72.2839,57.3623 71.8086,56.9153C 71.3332,56.4684 70.6078,56.2449 69.6324,56.2449C 68.9236,56.2449 68.2252,56.3249 67.5374,56.4847C 66.8495,56.6446 66.1386,56.8719 65.4048,57.1665L 65.4048,55.1953C 65.6797,55.0961 65.9858,54.9991 66.323,54.9041C 66.6602,54.8092 67.0161,54.7245 67.3908,54.6499C 67.7654,54.5754 68.1568,54.5154 68.565,54.4699C 68.9731,54.4245 69.3852,54.4017 69.8012,54.4017C 70.559,54.4017 71.242,54.4851 71.85,54.6517C 72.458,54.8184 72.9722,55.0726 73.3926,55.4143C 73.813,55.7561 74.1356,56.1853 74.3604,56.7019C 74.5852,57.2186 74.6976,57.8268 74.6976,58.5266L 74.6976,67.1761L 72.7576,67.1761 Z M 72.5216,61.4673L 69.7588,61.4673C 69.2174,61.4673 68.751,61.5214 68.3594,61.6295C 67.9678,61.7377 67.647,61.8917 67.397,62.0915C 67.147,62.2914 66.9615,62.5309 66.8406,62.8099C 66.7196,63.089 66.6592,63.4034 66.6592,63.7529C 66.6592,63.9945 66.6967,64.2257 66.7718,64.4464C 66.8468,64.667 66.9677,64.8627 67.1344,65.0333C 67.301,65.204 67.5177,65.3393 67.7844,65.4391C 68.051,65.539 68.376,65.5889 68.7592,65.5889C 69.2592,65.5889 69.832,65.437 70.4778,65.1331C 71.1235,64.8293 71.8048,64.3484 72.5216,63.6906L 72.5216,61.4673 Z "/>
	<path fill="#000000" fill-opacity="1" stroke-linejoin="round" d="M 87.7536,67.1761L 87.7536,58.1685C 87.7536,57.7768 87.7399,57.456 87.7126,57.2061C 87.6852,56.9563 87.6424,56.7585 87.584,56.6127C 87.5256,56.467 87.4514,56.365 87.3616,56.3067C 87.2717,56.2485 87.1605,56.2193 87.028,56.2193C 86.872,56.2193 86.7276,56.2693 86.5948,56.3693C 86.462,56.4693 86.3194,56.6317 86.1672,56.8565C 86.0149,57.0813 85.8472,57.379 85.664,57.7495C 85.4808,58.1201 85.2642,58.5761 85.0144,59.1177L 85.0144,67.1761L 82.8384,67.1761L 82.8384,58.4053C 82.8384,57.9475 82.8246,57.5769 82.7972,57.2937C 82.7697,57.0105 82.7266,56.7898 82.6678,56.6315C 82.609,56.4733 82.5326,56.365 82.4386,56.3067C 82.3446,56.2485 82.2309,56.2193 82.0976,56.2193C 81.9568,56.2193 81.8236,56.261 81.6982,56.3443C 81.5727,56.4277 81.4335,56.5776 81.2806,56.7941C 81.1276,57.0107 80.9572,57.3063 80.7692,57.6809C 80.5812,58.0556 80.3578,58.5345 80.0992,59.1177L 80.0992,67.1761L 77.9232,67.1761L 77.9232,54.6321L 79.732,54.6321L 79.8408,57.0185C 80.0576,56.5425 80.2683,56.1376 80.473,55.8037C 80.6776,55.4699 80.8884,55.2007 81.1054,54.9963C 81.3223,54.7919 81.5538,54.6417 81.8,54.5457C 82.0461,54.4497 82.3194,54.4017 82.62,54.4017C 83.2962,54.4017 83.8096,54.6229 84.1602,55.0653C 84.5107,55.5078 84.686,56.1921 84.686,57.1185C 84.8868,56.6847 85.0833,56.2987 85.2756,55.9605C 85.4678,55.6224 85.6748,55.3386 85.8964,55.1091C 86.118,54.8797 86.3626,54.7044 86.6302,54.5833C 86.8978,54.4623 87.2073,54.4017 87.5588,54.4017C 89.1393,54.4017 89.9296,55.6141 89.9296,58.0389L 89.9296,67.1761L 87.7536,67.1761 Z "/>
	<path fill="#000000" fill-opacity="1" stroke-linejoin="round" d="M 103.498,60.2341C 103.498,60.5421 103.493,60.8003 103.485,61.0085C 103.477,61.2168 103.464,61.4124 103.448,61.5953L 94.64,61.5953C 94.64,62.8807 94.9985,63.8676 95.7156,64.5562C 96.4326,65.2447 97.4665,65.5889 98.8172,65.5889C 99.1838,65.5889 99.5506,65.5743 99.9176,65.5451C 100.284,65.5159 100.639,65.4763 100.981,65.4263C 101.323,65.3763 101.65,65.3201 101.963,65.2578C 102.275,65.1953 102.565,65.1265 102.832,65.0513L 102.832,66.8433C 102.24,67.01 101.57,67.1455 100.824,67.2499C 100.078,67.3543 99.3041,67.4065 98.5036,67.4065C 97.4278,67.4065 96.5022,67.2606 95.7266,66.9688C 94.951,66.6769 94.3151,66.2538 93.819,65.6995C 93.3228,65.1453 92.9559,64.4659 92.7182,63.6613C 92.4804,62.8568 92.3616,61.9461 92.3616,60.9294C 92.3616,60.0453 92.4887,59.2095 92.743,58.4217C 92.9972,57.634 93.368,56.9421 93.8554,56.3461C 94.3427,55.7501 94.9404,55.2771 95.6486,54.9269C 96.3567,54.5768 97.1608,54.4017 98.0608,54.4017C 98.9357,54.4017 99.7106,54.5391 100.386,54.8139C 101.06,55.0887 101.629,55.478 102.092,55.9818C 102.554,56.4855 102.904,57.0974 103.141,57.8175C 103.379,58.5377 103.498,59.3432 103.498,60.2341 Z M 101.245,59.9313C 101.27,59.3727 101.216,58.862 101.082,58.3993C 100.949,57.9367 100.742,57.5386 100.463,57.2051C 100.184,56.8717 99.8355,56.6112 99.4186,56.4237C 99.0016,56.2363 98.5178,56.1425 97.9672,56.1425C 97.492,56.1425 97.0584,56.2342 96.6666,56.4175C 96.2747,56.6009 95.937,56.8593 95.6534,57.1927C 95.3698,57.5262 95.1404,57.9263 94.9652,58.3931C 94.79,58.8599 94.6816,59.3727 94.64,59.9313L 101.245,59.9313 Z "/>
	<path fill="#000000" fill-opacity="1" stroke-linejoin="round" d="M 106.365,61.1677C 106.365,60.1008 106.511,59.1526 106.803,58.3232C 107.095,57.4937 107.51,56.7935 108.048,56.2225C 108.586,55.6516 109.233,55.2182 109.988,54.9223C 110.743,54.6265 111.584,54.4785 112.51,54.4785C 112.911,54.4785 113.305,54.5035 113.693,54.5535C 114.081,54.6035 114.463,54.6827 114.838,54.7909L 114.838,49.5121L 117.014,49.5121L 117.014,67.1761L 115.074,67.1761L 115,64.8057C 114.391,65.6895 113.731,66.3439 113.022,66.769C 112.313,67.194 111.545,67.4065 110.72,67.4065C 110.002,67.4065 109.37,67.2565 108.824,66.9563C 108.278,66.6562 107.823,66.2332 107.46,65.6873C 107.097,65.1415 106.824,64.4851 106.64,63.7181C 106.457,62.9512 106.365,62.1011 106.365,61.1677 Z M 108.592,61.0229C 108.592,62.5403 108.815,63.6721 109.262,64.4183C 109.708,65.1646 110.34,65.5378 111.158,65.5378C 111.709,65.5378 112.291,65.2918 112.904,64.7999C 113.517,64.3081 114.162,63.5786 114.838,62.6113L 114.838,56.7833C 114.479,56.6164 114.083,56.4892 113.649,56.4017C 113.215,56.3143 112.785,56.2705 112.36,56.2705C 111.175,56.2705 110.251,56.6541 109.587,57.4211C 108.924,58.1882 108.592,59.3888 108.592,61.0229 Z "/>
	<path fill="#000000" fill-opacity="1" stroke-linejoin="round" d="M 132.502,58.9029C 132.502,60.3701 132.329,61.6373 131.984,62.7043C 131.638,63.7714 131.171,64.653 130.584,65.3492C 129.997,66.0453 129.309,66.5622 128.522,66.8999C 127.735,67.2377 126.904,67.4065 126.029,67.4065C 124.979,67.4065 124.065,67.2169 123.286,66.8375C 122.507,66.4582 121.861,65.9101 121.349,65.1931C 120.837,64.4762 120.455,63.6029 120.205,62.5733C 119.955,61.5437 119.83,60.3829 119.83,59.0909C 119.83,57.6405 120.001,56.3818 120.343,55.3147C 120.684,54.2477 121.149,53.3661 121.736,52.6699C 122.323,51.9738 123.009,51.4569 123.792,51.1193C 124.575,50.7817 125.404,50.6129 126.279,50.6129C 127.329,50.6129 128.243,50.8047 129.022,51.1881C 129.801,51.5716 130.449,52.1197 130.965,52.8323C 131.482,53.545 131.867,54.4141 132.121,55.4395C 132.375,56.465 132.502,57.6195 132.502,58.9029 Z M 130.275,59.0597C 130.275,58.1011 130.201,57.2237 130.052,56.4277C 129.903,55.6317 129.662,54.9462 129.331,54.3711C 128.999,53.7961 128.571,53.3502 128.048,53.0335C 127.525,52.7169 126.894,52.5585 126.154,52.5585C 125.439,52.5585 124.824,52.7273 124.31,53.0647C 123.795,53.4022 123.372,53.8606 123.04,54.4399C 122.708,55.0193 122.462,55.6985 122.3,56.4777C 122.138,57.2569 122.058,58.0843 122.058,58.9597C 122.058,59.9267 122.134,60.8081 122.287,61.6039C 122.44,62.3998 122.681,63.0833 123.008,63.6543C 123.336,64.2254 123.759,64.6693 124.278,64.9859C 124.797,65.3026 125.422,65.4609 126.154,65.4609C 126.868,65.4609 127.485,65.2921 128.004,64.9545C 128.523,64.6169 128.95,64.1585 129.286,63.5793C 129.622,63.0001 129.871,62.3229 130.033,61.5477C 130.194,60.7725 130.275,59.9432 130.275,59.0597 Z "/>
	<path fill="#000000" fill-opacity="1" stroke-linejoin="round" d="M 145.942,60.6781C 145.942,61.72 145.799,62.6515 145.511,63.4725C 145.223,64.2936 144.815,64.9897 144.286,65.5607C 143.757,66.1318 143.113,66.5694 142.354,66.8735C 141.596,67.1777 140.742,67.3297 139.792,67.3297C 139.05,67.3297 138.291,67.2589 137.516,67.1171C 136.741,66.9754 135.974,66.7504 135.216,66.4421L 135.216,49.5121L 137.392,49.5121L 137.392,54.3765L 137.292,56.7021C 137.917,55.8603 138.585,55.2664 139.298,54.9205C 140.01,54.5747 140.775,54.4017 141.592,54.4017C 142.309,54.4017 142.938,54.5517 143.48,54.8517C 144.021,55.1517 144.476,55.5747 144.842,56.1207C 145.209,56.6667 145.484,57.3253 145.667,58.0963C 145.851,58.8674 145.942,59.728 145.942,60.6781 Z M 143.715,60.7733C 143.715,60.1147 143.667,59.5102 143.571,58.9599C 143.476,58.4097 143.324,57.9387 143.115,57.5469C 142.907,57.1552 142.641,56.8488 142.316,56.6277C 141.99,56.4067 141.603,56.2961 141.154,56.2961C 140.879,56.2961 140.6,56.3399 140.316,56.4276C 140.033,56.5151 139.739,56.6611 139.435,56.8653C 139.131,57.0696 138.81,57.3405 138.473,57.6781C 138.135,58.0157 137.775,58.4347 137.392,58.9349L 137.392,65.0253C 137.817,65.1923 138.25,65.3237 138.692,65.4195C 139.133,65.5154 139.554,65.5633 139.954,65.5633C 140.454,65.5633 140.931,65.4841 141.385,65.3255C 141.839,65.167 142.238,64.9023 142.584,64.5313C 142.93,64.1604 143.205,63.6685 143.409,63.0557C 143.613,62.4429 143.715,61.6821 143.715,60.7733 Z "/>
	<path fill="#000000" fill-opacity="1" stroke-linejoin="round" d="M 157.821,54.6321L 157.821,66.9513C 157.821,67.8263 157.696,68.6031 157.446,69.282C 157.196,69.9607 156.838,70.5334 156.372,70.9999C 155.905,71.4665 155.333,71.8205 154.654,72.062C 153.975,72.3034 153.211,72.4241 152.361,72.4241C 151.745,72.4241 151.143,72.3677 150.556,72.2547C 149.969,72.1418 149.438,71.9849 148.963,71.7841L 148.963,69.7105C 149.221,69.8452 149.498,69.9671 149.794,70.0763C 150.089,70.1855 150.393,70.278 150.705,70.3537C 151.017,70.4295 151.332,70.4863 151.648,70.5241C 151.964,70.562 152.272,70.5809 152.572,70.5809C 153.521,70.5809 154.266,70.28 154.808,69.6781C 155.349,69.0763 155.619,68.192 155.619,67.0253L 155.619,56.4241L 149.475,56.4241L 149.475,54.6321L 157.821,54.6321 Z M 156.515,49.3586C 156.757,49.3586 156.982,49.4023 157.191,49.4899C 157.4,49.5775 157.582,49.7006 157.736,49.8591C 157.89,50.0177 158.011,50.2013 158.099,50.4101C 158.187,50.6189 158.23,50.8401 158.23,51.0737C 158.23,51.3156 158.187,51.5388 158.099,51.7433C 158.011,51.9479 157.89,52.1295 157.736,52.2881C 157.582,52.4468 157.4,52.5699 157.191,52.6575C 156.982,52.7451 156.757,52.7889 156.515,52.7889C 156.273,52.7889 156.048,52.7451 155.839,52.6575C 155.63,52.5699 155.449,52.4468 155.294,52.2881C 155.14,52.1295 155.019,51.9479 154.931,51.7433C 154.844,51.5388 154.8,51.3156 154.8,51.0737C 154.8,50.8401 154.844,50.6189 154.931,50.4101C 155.019,50.2013 155.14,50.0177 155.294,49.8591C 155.449,49.7006 155.63,49.5775 155.839,49.4899C 156.048,49.4023 156.273,49.3586 156.515,49.3586 Z "/>
	<path fill="#000000" fill-opacity="1" stroke-linejoin="round" d="M 174.026,60.2341C 174.026,60.5421 174.021,60.8003 174.013,61.0085C 174.005,61.2168 173.992,61.4124 173.976,61.5953L 165.168,61.5953C 165.168,62.8807 165.527,63.8676 166.244,64.5562C 166.961,65.2447 167.995,65.5889 169.345,65.5889C 169.712,65.5889 170.079,65.5743 170.446,65.5451C 170.813,65.5159 171.167,65.4763 171.509,65.4263C 171.851,65.3763 172.178,65.3201 172.491,65.2578C 172.803,65.1953 173.093,65.1265 173.36,65.0513L 173.36,66.8433C 172.768,67.01 172.098,67.1455 171.352,67.2499C 170.606,67.3543 169.832,67.4065 169.032,67.4065C 167.956,67.4065 167.03,67.2606 166.255,66.9688C 165.479,66.6769 164.843,66.2538 164.347,65.6995C 163.851,65.1453 163.484,64.4659 163.246,63.6613C 163.008,62.8568 162.89,61.9461 162.89,60.9294C 162.89,60.0453 163.017,59.2095 163.271,58.4217C 163.525,57.634 163.896,56.9421 164.383,56.3461C 164.871,55.7501 165.468,55.2771 166.177,54.9269C 166.885,54.5768 167.689,54.4017 168.589,54.4017C 169.464,54.4017 170.239,54.5391 170.914,54.8139C 171.589,55.0887 172.157,55.478 172.62,55.9818C 173.082,56.4855 173.432,57.0974 173.669,57.8175C 173.907,58.5377 174.026,59.3432 174.026,60.2341 Z M 171.773,59.9313C 171.798,59.3727 171.744,58.862 171.61,58.3993C 171.477,57.9367 171.27,57.5386 170.991,57.2051C 170.712,56.8717 170.364,56.6112 169.947,56.4237C 169.53,56.2363 169.046,56.1425 168.495,56.1425C 168.02,56.1425 167.586,56.2342 167.195,56.4175C 166.803,56.6009 166.465,56.8593 166.181,57.1927C 165.898,57.5262 165.668,57.9263 165.493,58.3931C 165.318,58.8599 165.21,59.3727 165.168,59.9313L 171.773,59.9313 Z "/>
	<path fill="#000000" fill-opacity="1" stroke-linejoin="round" d="M 187.286,66.7153C 186.719,66.9327 186.138,67.0937 185.542,67.1983C 184.946,67.303 184.331,67.3553 183.697,67.3553C 181.713,67.3553 180.186,66.8177 179.114,65.7425C 178.043,64.6673 177.507,63.0963 177.507,61.0293C 177.507,60.0373 177.661,59.1371 177.97,58.3287C 178.278,57.5203 178.712,56.8285 179.27,56.2533C 179.829,55.6781 180.496,55.2343 181.271,54.9217C 182.047,54.6092 182.901,54.4529 183.835,54.4529C 184.485,54.4529 185.094,54.4989 185.661,54.5907C 186.228,54.6826 186.77,54.8329 187.286,55.0417L 187.286,57.1153C 186.745,56.8297 186.193,56.6218 185.63,56.4915C 185.067,56.3613 184.486,56.2961 183.886,56.2961C 183.328,56.2961 182.8,56.4024 182.305,56.6149C 181.809,56.8275 181.373,57.1338 180.998,57.5339C 180.623,57.9341 180.327,58.4218 180.111,58.9971C 179.894,59.5725 179.786,60.2227 179.786,60.9477C 179.786,62.4648 180.154,63.6005 180.892,64.3549C 181.63,65.1093 182.653,65.4865 183.961,65.4865C 184.553,65.4865 185.126,65.4204 185.68,65.2881C 186.234,65.1559 186.77,64.9575 187.286,64.6929L 187.286,66.7153 Z "/>
	<path fill="#000000" fill-opacity="1" stroke-linejoin="round" d="M 201.75,66.9969C 201.259,67.1249 200.752,67.2167 200.227,67.2721C 199.702,67.3276 199.169,67.3553 198.628,67.3553C 197.055,67.3553 195.881,66.9989 195.106,66.2859C 194.332,65.573 193.945,64.4787 193.945,63.0029L 193.945,56.4497L 190.435,56.4497L 190.435,54.6321L 193.945,54.6321L 193.945,51.1761L 196.121,50.6129L 196.121,54.6321L 201.75,54.6321L 201.75,56.4497L 196.121,56.4497L 196.121,62.8245C 196.121,63.7245 196.36,64.3975 196.838,64.8433C 197.317,65.2892 198.022,65.5121 198.954,65.5121C 199.353,65.5121 199.79,65.4811 200.265,65.4191C 200.74,65.3571 201.235,65.2601 201.75,65.1281L 201.75,66.9969 Z "/>
	<line fill="none" stroke-width="1.06667" stroke-linejoin="round" stroke="#000000" stroke-opacity="1" x1="10.1984" y1="26.6227" x2="10.1984" y2="59.6641"/>
	<line fill="none" stroke-width="1.06667" stroke-linejoin="round" stroke="#000000" stroke-opacity="1" x1="11.1104" y1="59.1534" x2="37.017" y2="59.1534"/>
	<path fill="#000000" fill-opacity="1" stroke-width="1.06667" stroke-linejoin="round" d="M 144.257,1.83568C 144.424,1.89124 144.368,2.05791 144.09,2.33568L 144.174,6.16901L 150.674,6.16901L 150.674,7.50235L 144.174,7.50235L 144.34,17.0023C 144.34,17.7246 144.174,18.2523 143.84,18.5857C 143.507,18.919 143.007,19.0857 142.34,19.0857L 140.507,19.0857L 140.09,17.7523L 141.924,17.7523C 142.257,17.7523 142.507,17.669 142.674,17.5023C 142.84,17.3357 142.924,17.1134 142.924,16.8357L 142.84,9.00235C 141.84,10.5579 140.757,11.919 139.59,13.0857C 137.979,14.6968 136.313,16.0301 134.59,17.0857L 133.34,16.0023C 135.563,14.7246 137.285,13.4746 138.507,12.2523C 139.896,10.8634 141.174,9.28012 142.34,7.50235L 133.924,7.50235L 133.924,6.16901L 142.757,6.16901L 142.59,1.75235L 144.257,1.83568 Z "/>
	<path fill="#000000" fill-opacity="1" stroke-width="1.06667" stroke-linejoin="round" d="M 166.099,4.41901L 167.016,5.58568C 166.349,9.64124 164.988,12.6968 162.932,14.7523C 161.432,16.2523 159.099,17.4468 155.932,18.3357L 154.849,16.919C 158.071,16.2523 160.46,15.1412 162.016,13.5857C 163.738,11.8634 164.849,9.25235 165.349,5.75235L 153.266,5.75235L 153.266,4.41901L 166.099,4.41901 Z M 167.099,3.00235L 168.099,4.41901L 167.099,5.16901C 166.432,4.22458 165.682,3.28012 164.849,2.33568L 165.766,1.66901L 167.099,3.00235 Z M 169.266,2.33568L 170.182,3.66901L 169.182,4.41901C 168.571,3.47458 167.849,2.58568 167.016,1.75235L 167.932,1.08568L 169.266,2.33568 Z "/>
	<path fill="#000000" fill-opacity="1" stroke-width="1.06667" stroke-linejoin="round" d="M 176.422,3.66901L 178.422,5.25235L 177.506,6.50235C 176.283,5.44678 174.95,4.58568 173.506,3.91901L 174.422,2.66901L 176.422,3.66901 Z M 174.172,8.16901L 176.339,9.83568L 175.422,11.0857C 174.089,10.0857 172.756,9.25235 171.422,8.58568L 172.256,7.25235L 174.172,8.16901 Z M 186.839,9.00235C 185.672,10.669 184.7,11.8912 183.922,12.669C 181.256,15.3357 178.033,17.2246 174.256,18.3357C 174.145,18.7801 174.006,18.8912 173.839,18.669L 172.922,17.0023C 176.811,16.2246 180.089,14.5023 182.756,11.8357C 183.922,10.669 184.978,9.30791 185.922,7.75235L 186.839,9.00235 Z M 183.089,4.00235L 184.256,5.41901L 183.339,6.25235C 182.561,5.30791 181.756,4.44678 180.922,3.66901L 181.756,2.91901L 183.089,4.00235 Z M 183.756,1.41901C 184.645,2.08568 185.478,2.89124 186.256,3.83568L 185.339,4.66901C 184.561,3.72458 183.756,2.89124 182.922,2.16901L 183.756,1.41901 Z "/>
	<path fill="#000000" fill-opacity="1" stroke-width="1.06667" stroke-linejoin="round" d="M 201.926,8.00235L 201.926,9.25235L 196.926,9.25235L 196.926,16.419L 203.342,16.419L 203.342,17.669L 189.426,17.669L 189.426,16.419L 195.592,16.419L 195.592,9.25235L 190.592,9.25235L 190.592,8.00235L 201.926,8.00235 Z "/>
	<path fill="#000000" fill-opacity="1" stroke-width="1.06667" stroke-linejoin="round" d="M 211,6.50235C 209.889,8.50235 208.611,10.2246 207.166,11.669L 205.833,11.0023C 208.666,8.28012 210.444,5.22458 211.166,1.83568L 212.666,2.41901C 212.889,2.53012 212.805,2.66901 212.416,2.83568L 211.5,5.16901L 218.083,5.16901L 218.5,4.83568L 219.416,5.58568C 219.639,5.80791 219.583,5.97458 219.25,6.08568C 218.527,10.1412 216.944,13.3912 214.5,15.8357C 213.055,17.2801 211.389,18.4468 209.5,19.3357L 208.333,18.2523C 210.444,17.3634 212.166,16.2523 213.5,14.919C 215.777,12.6412 217.194,9.83568 217.75,6.50235L 211,6.50235 Z "/>
	<path fill="#000000" fill-opacity="1" stroke-width="1.06667" stroke-linejoin="round" d="M 223.418,8.08568C 225.974,9.03012 228.613,10.2523 231.335,11.7523L 230.502,13.169C 228.057,11.7246 225.696,10.5301 223.418,9.58568L 223.418,18.919L 222.002,18.919L 222.002,2.16901L 223.585,2.25235C 223.807,2.36345 223.752,2.53012 223.418,2.75235L 223.418,8.08568 Z "/>
	<path fill="#000000" fill-opacity="1" stroke-width="1.06667" stroke-linejoin="round" d="M 254.402,48.5842C 254.902,48.7509 254.846,48.9175 254.235,49.0842L 253.569,50.2509L 260.152,50.2509L 260.485,49.9175L 261.402,50.6675C 261.735,50.9453 261.569,51.1675 260.902,51.3342C 259.735,52.9453 258.457,54.4453 257.069,55.8342C 256.291,56.612 255.124,57.612 253.569,58.8342L 262.735,58.8342L 262.735,67.0842L 261.569,67.0842L 261.569,65.8342L 252.985,65.8342L 252.985,67.0842L 251.819,67.0842L 251.819,60.0009C 251.096,60.5009 250.319,60.9731 249.485,61.4175C 248.763,61.8064 247.846,62.2231 246.735,62.6675L 246.152,61.5842C 247.708,61.0286 249.124,60.362 250.402,59.5842C 251.791,58.7509 252.985,57.8897 253.985,57.0009C 252.985,56.112 251.93,55.2509 250.819,54.4175C 249.874,55.362 248.652,56.2786 247.152,57.1675L 246.485,56.1675C 248.208,55.1675 249.569,54.0842 250.569,52.9175C 251.791,51.4731 252.68,49.9175 253.235,48.2509L 254.402,48.5842 Z M 253.069,51.3342C 252.569,52.1675 252.041,52.9175 251.485,53.5842C 252.652,54.4175 253.819,55.2786 254.985,56.1675C 255.541,55.7231 256.235,55.0564 257.069,54.1675C 258.069,53.112 258.846,52.1675 259.402,51.3342L 253.069,51.3342 Z M 252.985,64.7509L 261.569,64.7509L 261.569,59.9175L 252.985,59.9175L 252.985,64.7509 Z "/>
	<path fill="#000000" fill-opacity="1" stroke-width="1.06667" stroke-linejoin="round" d="M 280.985,48.4175C 281.43,48.5842 281.346,48.8342 280.735,49.1675C 280.291,50.0009 279.846,50.7509 279.402,51.4175L 286.152,51.4175L 286.152,52.6675L 266.985,52.6675L 266.985,51.4175L 272.819,51.4175C 272.485,50.6397 271.985,49.8064 271.319,48.9175L 272.652,48.3342C 273.319,49.2786 273.902,50.1953 274.402,51.0842L 273.652,51.4175L 277.985,51.4175C 278.43,50.6397 278.93,49.5009 279.485,48.0009L 280.985,48.4175 Z M 284.569,54.0009C 284.735,54.112 284.652,54.2786 284.319,54.5009L 284.319,65.5009C 284.319,66.5564 283.763,67.0842 282.652,67.0842L 281.069,67.0842L 280.735,65.8342L 282.485,65.8342C 282.819,65.8342 282.985,65.6675 282.985,65.3342L 282.985,53.8342L 284.569,54.0009 Z M 279.902,54.6675C 280.069,54.7786 279.985,54.9453 279.652,55.1675L 279.652,64.1675L 278.319,64.1675L 278.319,54.5009L 279.902,54.6675 Z M 275.485,54.5009L 275.485,65.6675C 275.485,66.612 274.985,67.0842 273.985,67.0842L 272.735,67.0842L 272.402,65.8342L 273.819,65.8342C 274.152,65.8342 274.319,65.6675 274.319,65.3342L 274.319,61.9175L 269.985,61.9175L 269.985,67.1675L 268.819,67.1675L 268.819,54.5009L 275.485,54.5009 Z M 269.985,57.6675L 274.319,57.6675L 274.319,55.5842L 269.985,55.5842L 269.985,57.6675 Z M 269.985,60.8342L 274.319,60.8342L 274.319,58.7509L 269.985,58.7509L 269.985,60.8342 Z "/>
	<path fill="#000000" fill-opacity="1" stroke-width="1.06667" stroke-linejoin="round" d="M 294.985,48.8342C 295.319,48.9453 295.235,49.112 294.735,49.3342C 294.513,50.112 294.263,50.862 293.985,51.5842C 293.596,52.5842 293.263,53.3342 292.985,53.8342L 293.402,53.9175C 293.791,53.9731 293.735,54.1675 293.235,54.5009L 293.235,67.0842L 291.902,67.0842L 291.902,55.7509C 291.069,57.1397 290.207,58.2786 289.319,59.1675L 288.402,58.2509C 290.957,55.4731 292.735,52.2231 293.735,48.5009L 294.985,48.8342 Z M 303.652,48.8342C 303.819,48.9453 303.735,49.112 303.402,49.3342L 303.402,53.6675L 307.485,53.6675L 307.485,54.9175L 303.402,54.9175L 303.402,65.4175C 303.402,66.4731 302.846,67.0009 301.735,67.0009L 299.735,67.0009L 299.319,65.7509L 301.569,65.7509C 301.902,65.7509 302.069,65.5842 302.069,65.2509L 302.069,54.9175L 294.235,54.9175L 294.235,53.6675L 302.069,53.6675L 302.069,48.6675L 303.652,48.8342 Z M 296.735,57.5842C 297.791,58.5842 298.819,59.9453 299.819,61.6675L 298.735,62.5842C 297.735,60.862 296.735,59.4731 295.735,58.4175L 296.735,57.5842 Z "/>
	<path fill="#000000" fill-opacity="1" stroke-width="1.06667" stroke-linejoin="round" d="M 317.319,48.4175C 317.541,48.5286 317.485,48.6953 317.152,48.9175C 317.207,49.7509 317.374,50.6953 317.652,51.7509C 318.985,51.6397 320.457,51.362 322.069,50.9175L 322.485,52.1675C 320.985,52.5564 319.513,52.8342 318.069,53.0009C 318.291,53.7786 318.652,54.5564 319.152,55.3342C 320.485,55.1675 322.18,54.8064 324.235,54.2509L 324.652,55.6675C 322.819,56.0564 321.18,56.362 319.735,56.5842C 320.791,58.1953 321.902,59.4175 323.069,60.2509L 322.402,61.5009C 320.402,60.7231 318.624,60.3342 317.069,60.3342C 315.18,60.3342 313.819,60.7509 312.985,61.5842C 312.652,61.9175 312.485,62.3064 312.485,62.7509C 312.485,63.1397 312.652,63.5009 312.985,63.8342C 313.707,64.5564 315.402,64.9175 318.069,64.9175C 318.957,64.9175 320.124,64.862 321.569,64.7509L 321.319,66.3342C 320.319,66.3342 319.291,66.3342 318.235,66.3342C 315.069,66.3342 312.93,65.7786 311.819,64.6675C 311.263,64.112 310.985,63.4731 310.985,62.7509C 310.985,61.9175 311.291,61.1953 311.902,60.5842C 312.902,59.5842 314.652,59.0842 317.152,59.0842C 318.041,59.0842 319.041,59.1953 320.152,59.4175C 319.541,58.6397 318.93,57.7786 318.319,56.8342C 315.096,57.112 312.291,57.2231 309.902,57.1675L 309.652,55.8342C 312.041,55.8897 314.735,55.8064 317.735,55.5842C 317.346,54.8064 317.013,54.0009 316.735,53.1675C 314.402,53.3342 312.263,53.4175 310.319,53.4175L 310.152,52.0842C 312.041,52.1397 314.096,52.0842 316.319,51.9175C 316.041,50.8064 315.819,49.6397 315.652,48.4175L 317.319,48.4175 Z "/>
	<path fill="#000000" fill-opacity="1" stroke-width="1.06667" stroke-linejoin="round" d="M 338.145,49.0009C 338.312,49.0564 338.256,49.2231 337.979,49.5009L 338.062,53.3342L 344.562,53.3342L 344.562,54.6675L 338.062,54.6675L 338.229,64.1675C 338.229,64.8897 338.062,65.4175 337.729,65.7509C 337.395,66.0842 336.895,66.2509 336.229,66.2509L 334.395,66.2509L 333.979,64.9175L 335.812,64.9175C 336.145,64.9175 336.395,64.8342 336.562,64.6675C 336.729,64.5009 336.812,64.2786 336.812,64.0009L 336.729,56.1675C 335.729,57.7231 334.645,59.0842 333.479,60.2509C 331.867,61.862 330.201,63.1953 328.479,64.2509L 327.229,63.1675C 329.451,61.8897 331.173,60.6397 332.395,59.4175C 333.784,58.0286 335.062,56.4453 336.229,54.6675L 327.812,54.6675L 327.812,53.3342L 336.645,53.3342L 336.479,48.9175L 338.145,49.0009 Z "/>
	<path fill="#000000" fill-opacity="1" stroke-width="1.06667" stroke-linejoin="round" d="M 359.987,51.5842L 360.904,52.7509C 360.237,56.8064 358.876,59.862 356.821,61.9175C 355.321,63.4175 352.987,64.612 349.821,65.5009L 348.737,64.0842C 351.959,63.4175 354.348,62.3064 355.904,60.7509C 357.626,59.0286 358.737,56.4175 359.237,52.9175L 347.154,52.9175L 347.154,51.5842L 359.987,51.5842 Z M 360.987,50.1675L 361.987,51.5842L 360.987,52.3342C 360.321,51.3897 359.571,50.4453 358.737,49.5009L 359.654,48.8342L 360.987,50.1675 Z M 363.154,49.5009L 364.071,50.8342L 363.071,51.5842C 362.459,50.6397 361.737,49.7509 360.904,48.9175L 361.821,48.2509L 363.154,49.5009 Z "/>
	<path fill="#000000" fill-opacity="1" stroke-width="1.06667" stroke-linejoin="round" d="M 370.311,50.8342L 372.311,52.4175L 371.394,53.6675C 370.172,52.612 368.838,51.7509 367.394,51.0842L 368.311,49.8342L 370.311,50.8342 Z M 368.061,55.3342L 370.227,57.0009L 369.311,58.2509C 367.977,57.2509 366.644,56.4175 365.311,55.7509L 366.144,54.4175L 368.061,55.3342 Z M 380.727,56.1675C 379.561,57.8342 378.588,59.0564 377.811,59.8342C 375.144,62.5009 371.922,64.3897 368.144,65.5009C 368.033,65.9453 367.894,66.0564 367.727,65.8342L 366.811,64.1675C 370.699,63.3897 373.977,61.6675 376.644,59.0009C 377.811,57.8342 378.866,56.4731 379.811,54.9175L 380.727,56.1675 Z M 376.977,51.1675L 378.144,52.5842L 377.227,53.4175C 376.449,52.4731 375.644,51.612 374.811,50.8342L 375.644,50.0842L 376.977,51.1675 Z M 377.644,48.5842C 378.533,49.2509 379.366,50.0564 380.144,51.0009L 379.227,51.8342C 378.449,50.8897 377.644,50.0564 376.811,49.3342L 377.644,48.5842 Z "/>
	<path fill="#000000" fill-opacity="1" stroke-width="1.06667" stroke-linejoin="round" d="M 395.814,55.1675L 395.814,56.4175L 390.814,56.4175L 390.814,63.5842L 397.231,63.5842L 397.231,64.8342L 383.314,64.8342L 383.314,63.5842L 389.481,63.5842L 389.481,56.4175L 384.481,56.4175L 384.481,55.1675L 395.814,55.1675 Z "/>
	<path fill="#000000" fill-opacity="1" stroke-width="1.06667" stroke-linejoin="round" d="M 404.888,53.6675C 403.777,55.6675 402.499,57.3897 401.055,58.8342L 399.721,58.1675C 402.555,55.4453 404.332,52.3897 405.055,49.0009L 406.555,49.5842C 406.777,49.6953 406.693,49.8342 406.305,50.0009L 405.388,52.3342L 411.971,52.3342L 412.388,52.0009L 413.305,52.7509C 413.527,52.9731 413.471,53.1397 413.138,53.2509C 412.416,57.3064 410.832,60.5564 408.388,63.0009C 406.943,64.4453 405.277,65.612 403.388,66.5009L 402.221,65.4175C 404.332,64.5286 406.055,63.4175 407.388,62.0842C 409.666,59.8064 411.082,57.0009 411.638,53.6675L 404.888,53.6675 Z "/>
	<path fill="#000000" fill-opacity="1" stroke-width="1.06667" stroke-linejoin="round" d="M 417.307,55.2509C 419.862,56.1953 422.501,57.4175 425.223,58.9175L 424.39,60.3342C 421.945,58.8897 419.584,57.6953 417.307,56.7509L 417.307,66.0842L 415.89,66.0842L 415.89,49.3342L 417.473,49.4175C 417.695,49.5286 417.64,49.6953 417.307,49.9175L 417.307,55.2509 Z "/>
	<line fill="none" stroke-width="1.06667" stroke-linejoin="round" stroke="#000000" stroke-opacity="1" x1="63.365" y1="74.8041" x2="63.365" y2="155.456"/>
	<line fill="none" stroke-width="1.06667" stroke-linejoin="round" stroke="#000000" stroke-opacity="1" x1="63.3397" y1="108.075" x2="89.241" y2="108.075"/>
	<path fill="#000000" fill-opacity="1" stroke-width="1.06667" stroke-linejoin="round" d="M 113.095,110.863C 113.095,111.639 112.937,112.318 112.62,112.902C 112.303,113.485 111.861,113.971 111.294,114.358C 110.727,114.746 110.045,115.036 109.248,115.227C 108.452,115.419 107.574,115.515 106.615,115.515C 106.181,115.515 105.749,115.499 105.32,115.465C 104.89,115.432 104.477,115.39 104.081,115.34C 103.685,115.29 103.312,115.231 102.961,115.165C 102.611,115.098 102.294,115.027 102.011,114.952L 102.011,112.802C 102.636,113.033 103.338,113.214 104.118,113.346C 104.898,113.478 105.784,113.544 106.776,113.544C 107.493,113.544 108.104,113.488 108.608,113.376C 109.113,113.263 109.526,113.097 109.846,112.877C 110.167,112.657 110.401,112.389 110.547,112.073C 110.693,111.757 110.766,111.396 110.766,110.988C 110.766,110.547 110.643,110.169 110.397,109.857C 110.151,109.544 109.828,109.265 109.428,109.019C 109.028,108.773 108.572,108.548 108.059,108.344C 107.547,108.139 107.024,107.929 106.49,107.712C 105.957,107.496 105.434,107.26 104.922,107.006C 104.409,106.752 103.953,106.451 103.553,106.105C 103.153,105.759 102.83,105.353 102.584,104.886C 102.338,104.419 102.215,103.865 102.215,103.223C 102.215,102.665 102.332,102.114 102.566,101.572C 102.799,101.031 103.162,100.549 103.654,100.128C 104.146,99.7073 104.777,99.3676 105.548,99.1092C 106.32,98.8508 107.239,98.7216 108.307,98.7216C 108.582,98.7216 108.88,98.7341 109.201,98.759C 109.522,98.7839 109.847,98.8193 110.176,98.865C 110.506,98.9107 110.831,98.9627 111.152,99.0208C 111.473,99.0789 111.771,99.1413 112.046,99.208L 112.046,101.205C 111.404,101.021 110.763,100.882 110.121,100.786C 109.479,100.69 108.858,100.642 108.258,100.642C 106.983,100.642 106.045,100.855 105.445,101.281C 104.845,101.707 104.545,102.28 104.545,102.998C 104.545,103.44 104.668,103.819 104.914,104.136C 105.16,104.452 105.483,104.736 105.883,104.986C 106.283,105.236 106.739,105.463 107.251,105.668C 107.764,105.872 108.287,106.083 108.82,106.299C 109.354,106.516 109.877,106.754 110.389,107.012C 110.902,107.27 111.358,107.577 111.758,107.931C 112.158,108.285 112.481,108.7 112.727,109.175C 112.973,109.65 113.095,110.213 113.095,110.863 Z "/>
	<path fill="#000000" fill-opacity="1" stroke-width="1.06667" stroke-linejoin="round" d="M 126.484,114.824C 125.917,115.041 125.336,115.202 124.74,115.307C 124.144,115.412 123.529,115.464 122.895,115.464C 120.911,115.464 119.383,114.926 118.312,113.851C 117.241,112.776 116.705,111.205 116.705,109.138C 116.705,108.146 116.859,107.246 117.168,106.437C 117.476,105.629 117.91,104.937 118.468,104.362C 119.027,103.787 119.694,103.343 120.469,103.03C 121.245,102.718 122.099,102.562 123.033,102.562C 123.683,102.562 124.292,102.608 124.859,102.699C 125.426,102.791 125.967,102.942 126.484,103.15L 126.484,105.224C 125.943,104.938 125.391,104.73 124.828,104.6C 124.265,104.47 123.684,104.405 123.084,104.405C 122.525,104.405 121.998,104.511 121.502,104.724C 121.007,104.936 120.571,105.242 120.196,105.643C 119.821,106.043 119.525,106.53 119.308,107.106C 119.092,107.681 118.983,108.331 118.983,109.056C 118.983,110.573 119.352,111.709 120.09,112.464C 120.827,113.218 121.851,113.595 123.159,113.595C 123.751,113.595 124.323,113.529 124.878,113.397C 125.432,113.265 125.968,113.066 126.484,112.802L 126.484,114.824 Z "/>
	<path fill="#000000" fill-opacity="1" stroke-width="1.06667" stroke-linejoin="round" d="M 141.435,108.343C 141.435,108.651 141.431,108.909 141.422,109.117C 141.414,109.325 141.401,109.521 141.385,109.704L 132.577,109.704C 132.577,110.989 132.936,111.976 133.653,112.665C 134.37,113.353 135.404,113.698 136.754,113.698C 137.121,113.698 137.488,113.683 137.855,113.654C 138.222,113.625 138.576,113.585 138.918,113.535C 139.26,113.485 139.587,113.429 139.9,113.366C 140.212,113.304 140.502,113.235 140.769,113.16L 140.769,114.952C 140.177,115.119 139.507,115.254 138.761,115.359C 138.015,115.463 137.241,115.515 136.441,115.515C 135.365,115.515 134.439,115.369 133.664,115.077C 132.888,114.786 132.252,114.362 131.756,113.808C 131.26,113.254 130.893,112.575 130.655,111.77C 130.418,110.965 130.299,110.055 130.299,109.038C 130.299,108.154 130.426,107.318 130.68,106.53C 130.934,105.743 131.305,105.051 131.792,104.455C 132.28,103.859 132.878,103.386 133.586,103.036C 134.294,102.685 135.098,102.51 135.998,102.51C 136.873,102.51 137.648,102.648 138.323,102.923C 138.998,103.197 139.566,103.587 140.029,104.09C 140.491,104.594 140.841,105.206 141.078,105.926C 141.316,106.646 141.435,107.452 141.435,108.343 Z M 139.182,108.04C 139.207,107.481 139.153,106.971 139.019,106.508C 138.886,106.045 138.679,105.647 138.4,105.314C 138.121,104.98 137.773,104.72 137.356,104.532C 136.939,104.345 136.455,104.251 135.904,104.251C 135.429,104.251 134.996,104.343 134.604,104.526C 134.212,104.71 133.874,104.968 133.59,105.301C 133.307,105.635 133.077,106.035 132.902,106.502C 132.727,106.969 132.619,107.481 132.577,108.04L 139.182,108.04 Z "/>
	<path fill="#000000" fill-opacity="1" stroke-width="1.06667" stroke-linejoin="round" d="M 144.942,102.741L 146.88,102.741L 146.968,104.765C 147.335,104.331 147.689,103.97 148.03,103.682C 148.372,103.394 148.707,103.162 149.036,102.987C 149.365,102.811 149.7,102.688 150.042,102.617C 150.383,102.546 150.737,102.51 151.104,102.51C 152.395,102.51 153.372,102.892 154.035,103.654C 154.697,104.417 155.028,105.565 155.028,107.098L 155.028,115.285L 152.852,115.285L 152.852,107.268C 152.852,106.284 152.669,105.557 152.302,105.086C 151.936,104.615 151.391,104.379 150.666,104.379C 150.4,104.379 150.139,104.419 149.885,104.498C 149.631,104.577 149.366,104.715 149.092,104.911C 148.817,105.106 148.519,105.371 148.198,105.705C 147.878,106.038 147.518,106.455 147.118,106.955L 147.118,115.285L 144.942,115.285L 144.942,102.741 Z "/>
	<path fill="#000000" fill-opacity="1" stroke-width="1.06667" stroke-linejoin="round" d="M 169.646,108.343C 169.646,108.651 169.642,108.909 169.633,109.117C 169.625,109.325 169.613,109.521 169.596,109.704L 160.788,109.704C 160.788,110.989 161.147,111.976 161.864,112.665C 162.581,113.353 163.615,113.698 164.965,113.698C 165.332,113.698 165.699,113.683 166.066,113.654C 166.433,113.625 166.787,113.585 167.129,113.535C 167.471,113.485 167.798,113.429 168.111,113.366C 168.424,113.304 168.713,113.235 168.98,113.16L 168.98,114.952C 168.388,115.119 167.719,115.254 166.972,115.359C 166.226,115.463 165.452,115.515 164.652,115.515C 163.576,115.515 162.65,115.369 161.875,115.077C 161.099,114.786 160.463,114.362 159.967,113.808C 159.471,113.254 159.104,112.575 158.866,111.77C 158.629,110.965 158.51,110.055 158.51,109.038C 158.51,108.154 158.637,107.318 158.891,106.53C 159.146,105.743 159.516,105.051 160.004,104.455C 160.491,103.859 161.089,103.386 161.797,103.036C 162.505,102.685 163.309,102.51 164.209,102.51C 165.084,102.51 165.859,102.648 166.534,102.923C 167.209,103.197 167.777,103.587 168.24,104.09C 168.702,104.594 169.052,105.206 169.29,105.926C 169.527,106.646 169.646,107.452 169.646,108.343 Z M 167.393,108.04C 167.418,107.481 167.364,106.971 167.23,106.508C 167.097,106.045 166.891,105.647 166.611,105.314C 166.332,104.98 165.984,104.72 165.567,104.532C 165.15,104.345 164.666,104.251 164.115,104.251C 163.64,104.251 163.207,104.343 162.815,104.526C 162.423,104.71 162.085,104.968 161.802,105.301C 161.518,105.635 161.289,106.035 161.113,106.502C 160.938,106.969 160.83,107.481 160.788,108.04L 167.393,108.04 Z "/>
	<path fill="#000000" fill-opacity="1" stroke-width="1.06667" stroke-linejoin="round" d="M 184.545,107.012C 184.545,108.479 184.372,109.746 184.026,110.813C 183.681,111.88 183.214,112.762 182.627,113.458C 182.04,114.154 181.352,114.671 180.565,115.009C 179.778,115.346 178.946,115.515 178.071,115.515C 177.022,115.515 176.108,115.326 175.329,114.946C 174.55,114.567 173.904,114.019 173.392,113.302C 172.879,112.585 172.498,111.712 172.248,110.682C 171.998,109.652 171.873,108.492 171.873,107.2C 171.873,105.749 172.044,104.49 172.385,103.423C 172.727,102.356 173.192,101.475 173.779,100.779C 174.366,100.082 175.051,99.5656 175.835,99.228C 176.618,98.8904 177.447,98.7216 178.321,98.7216C 179.371,98.7216 180.286,98.9133 181.065,99.2968C 181.844,99.6803 182.491,100.228 183.008,100.941C 183.524,101.654 183.91,102.523 184.164,103.548C 184.418,104.574 184.545,105.728 184.545,107.012 Z M 182.318,107.168C 182.318,106.21 182.243,105.332 182.094,104.536C 181.946,103.74 181.705,103.055 181.373,102.48C 181.041,101.905 180.614,101.459 180.091,101.142C 179.568,100.826 178.936,100.667 178.196,100.667C 177.482,100.667 176.867,100.836 176.352,101.173C 175.838,101.511 175.414,101.969 175.083,102.549C 174.751,103.128 174.504,103.807 174.343,104.586C 174.181,105.366 174.1,106.193 174.1,107.068C 174.1,108.035 174.177,108.917 174.33,109.713C 174.483,110.508 174.723,111.192 175.051,111.763C 175.378,112.334 175.802,112.778 176.32,113.095C 176.839,113.411 177.465,113.57 178.196,113.57C 178.911,113.57 179.527,113.401 180.046,113.063C 180.565,112.726 180.993,112.267 181.329,111.688C 181.665,111.109 181.914,110.432 182.075,109.656C 182.237,108.881 182.318,108.052 182.318,107.168 Z "/>
	<path fill="#000000" fill-opacity="1" stroke-width="1.06667" stroke-linejoin="round" d="M 197.985,108.787C 197.985,109.829 197.841,110.76 197.554,111.581C 197.266,112.402 196.858,113.098 196.328,113.669C 195.799,114.24 195.155,114.678 194.397,114.982C 193.639,115.286 192.784,115.438 191.834,115.438C 191.092,115.438 190.334,115.368 189.559,115.226C 188.784,115.084 188.017,114.859 187.259,114.551L 187.259,97.6208L 189.435,97.6208L 189.435,102.485L 189.335,104.811C 189.959,103.969 190.628,103.375 191.341,103.029C 192.053,102.683 192.818,102.51 193.635,102.51C 194.351,102.51 194.981,102.66 195.522,102.96C 196.064,103.26 196.518,103.683 196.885,104.229C 197.252,104.775 197.527,105.434 197.71,106.205C 197.893,106.976 197.985,107.837 197.985,108.787 Z M 195.758,108.882C 195.758,108.223 195.71,107.619 195.614,107.069C 195.518,106.518 195.366,106.047 195.158,105.656C 194.95,105.264 194.683,104.957 194.358,104.736C 194.033,104.515 193.646,104.405 193.196,104.405C 192.921,104.405 192.642,104.449 192.359,104.536C 192.076,104.624 191.782,104.77 191.478,104.974C 191.174,105.178 190.853,105.449 190.515,105.787C 190.178,106.124 189.818,106.543 189.435,107.044L 189.435,113.134C 189.859,113.301 190.293,113.432 190.734,113.528C 191.176,113.624 191.597,113.672 191.996,113.672C 192.496,113.672 192.973,113.593 193.427,113.434C 193.881,113.276 194.281,113.011 194.627,112.64C 194.973,112.269 195.248,111.777 195.452,111.164C 195.656,110.552 195.758,109.791 195.758,108.882 Z "/>
	<path fill="#000000" fill-opacity="1" stroke-width="1.06667" stroke-linejoin="round" d="M 209.863,102.741L 209.863,115.06C 209.863,115.935 209.739,116.712 209.489,117.391C 209.239,118.069 208.881,118.642 208.414,119.109C 207.948,119.575 207.375,119.929 206.696,120.171C 206.018,120.412 205.253,120.533 204.404,120.533C 203.788,120.533 203.186,120.476 202.599,120.363C 202.011,120.25 201.48,120.094 201.006,119.893L 201.006,117.819C 201.264,117.954 201.541,118.076 201.836,118.185C 202.132,118.294 202.436,118.387 202.748,118.462C 203.06,118.538 203.374,118.595 203.691,118.633C 204.007,118.671 204.315,118.69 204.615,118.69C 205.564,118.69 206.309,118.389 206.85,117.787C 207.391,117.185 207.662,116.301 207.662,115.134L 207.662,104.533L 201.518,104.533L 201.518,102.741L 209.863,102.741 Z M 208.558,97.4672C 208.8,97.4672 209.025,97.511 209.234,97.5986C 209.443,97.6862 209.624,97.8093 209.779,97.9678C 209.933,98.1263 210.054,98.31 210.142,98.5188C 210.229,98.7276 210.273,98.9488 210.273,99.1824C 210.273,99.4243 210.229,99.6475 210.142,99.852C 210.054,100.057 209.933,100.238 209.779,100.397C 209.624,100.555 209.443,100.679 209.234,100.766C 209.025,100.854 208.8,100.898 208.558,100.898C 208.316,100.898 208.091,100.854 207.882,100.766C 207.673,100.679 207.491,100.555 207.337,100.397C 207.183,100.238 207.062,100.057 206.974,99.852C 206.886,99.6475 206.843,99.4243 206.843,99.1824C 206.843,98.9488 206.886,98.7276 206.974,98.5188C 207.062,98.31 207.183,98.1263 207.337,97.9678C 207.491,97.8093 207.673,97.6862 207.882,97.5986C 208.091,97.511 208.316,97.4672 208.558,97.4672 Z "/>
	<path fill="#000000" fill-opacity="1" stroke-width="1.06667" stroke-linejoin="round" d="M 226.068,108.343C 226.068,108.651 226.064,108.909 226.056,109.117C 226.048,109.325 226.035,109.521 226.018,109.704L 217.211,109.704C 217.211,110.989 217.569,111.976 218.286,112.665C 219.003,113.353 220.037,113.698 221.388,113.698C 221.755,113.698 222.121,113.683 222.488,113.654C 222.855,113.625 223.21,113.585 223.551,113.535C 223.893,113.485 224.221,113.429 224.533,113.366C 224.846,113.304 225.136,113.235 225.403,113.16L 225.403,114.952C 224.81,115.119 224.141,115.254 223.395,115.359C 222.648,115.463 221.875,115.515 221.074,115.515C 219.998,115.515 219.073,115.369 218.297,115.077C 217.522,114.786 216.886,114.362 216.39,113.808C 215.893,113.254 215.527,112.575 215.289,111.77C 215.051,110.965 214.932,110.055 214.932,109.038C 214.932,108.154 215.059,107.318 215.314,106.53C 215.568,105.743 215.939,105.051 216.426,104.455C 216.913,103.859 217.511,103.386 218.219,103.036C 218.927,102.685 219.731,102.51 220.631,102.51C 221.506,102.51 222.281,102.648 222.956,102.923C 223.631,103.197 224.2,103.587 224.662,104.09C 225.125,104.594 225.475,105.206 225.712,105.926C 225.949,106.646 226.068,107.452 226.068,108.343 Z M 223.815,108.04C 223.84,107.481 223.786,106.971 223.653,106.508C 223.519,106.045 223.313,105.647 223.034,105.314C 222.754,104.98 222.406,104.72 221.989,104.532C 221.572,104.345 221.088,104.251 220.538,104.251C 220.063,104.251 219.629,104.343 219.237,104.526C 218.845,104.71 218.508,104.968 218.224,105.301C 217.94,105.635 217.711,106.035 217.536,106.502C 217.361,106.969 217.252,107.481 217.211,108.04L 223.815,108.04 Z "/>
	<path fill="#000000" fill-opacity="1" stroke-width="1.06667" stroke-linejoin="round" d="M 239.329,114.824C 238.762,115.041 238.181,115.202 237.584,115.307C 236.988,115.412 236.373,115.464 235.74,115.464C 233.756,115.464 232.228,114.926 231.157,113.851C 230.085,112.776 229.55,111.205 229.55,109.138C 229.55,108.146 229.704,107.246 230.012,106.437C 230.321,105.629 230.754,104.937 231.313,104.362C 231.872,103.787 232.539,103.343 233.314,103.03C 234.089,102.718 234.944,102.562 235.877,102.562C 236.528,102.562 237.136,102.608 237.703,102.699C 238.27,102.791 238.812,102.942 239.329,103.15L 239.329,105.224C 238.787,104.938 238.235,104.73 237.673,104.6C 237.11,104.47 236.529,104.405 235.929,104.405C 235.37,104.405 234.843,104.511 234.347,104.724C 233.851,104.936 233.416,105.242 233.041,105.643C 232.666,106.043 232.37,106.53 232.153,107.106C 231.937,107.681 231.828,108.331 231.828,109.056C 231.828,110.573 232.197,111.709 232.935,112.464C 233.672,113.218 234.695,113.595 236.004,113.595C 236.595,113.595 237.168,113.529 237.723,113.397C 238.277,113.265 238.812,113.066 239.329,112.802L 239.329,114.824 Z "/>
	<path fill="#000000" fill-opacity="1" stroke-width="1.06667" stroke-linejoin="round" d="M 253.793,115.106C 253.302,115.234 252.794,115.325 252.27,115.381C 251.745,115.436 251.212,115.464 250.671,115.464C 249.097,115.464 247.923,115.108 247.149,114.395C 246.375,113.682 245.987,112.587 245.987,111.112L 245.987,104.558L 242.478,104.558L 242.478,102.741L 245.987,102.741L 245.987,99.2848L 248.163,98.7216L 248.163,102.741L 253.793,102.741L 253.793,104.558L 248.163,104.558L 248.163,110.933C 248.163,111.833 248.403,112.506 248.881,112.952C 249.359,113.398 250.065,113.621 250.997,113.621C 251.396,113.621 251.833,113.59 252.308,113.528C 252.782,113.466 253.277,113.369 253.793,113.237L 253.793,115.106 Z "/>
	<path fill="#000000" fill-opacity="1" stroke-width="1.06667" stroke-linejoin="round" d="M 296.82,103.48C 295.598,102.425 294.265,101.564 292.82,100.897L 293.737,99.6471C 295.07,100.314 296.403,101.175 297.737,102.23L 296.82,103.48 Z M 294.737,108.064C 293.403,107.064 292.07,106.23 290.737,105.564L 291.57,104.23C 292.848,104.842 294.209,105.703 295.653,106.814L 294.737,108.064 Z M 306.153,105.98C 304.987,107.647 304.015,108.869 303.237,109.647C 300.57,112.314 297.348,114.203 293.57,115.314C 293.459,115.758 293.32,115.869 293.153,115.647L 292.237,113.98C 296.126,113.203 299.403,111.48 302.07,108.814C 303.237,107.647 304.292,106.286 305.237,104.73L 306.153,105.98 Z "/>
	<rect x="308.742" y="106.897" fill="#000000" fill-opacity="1" stroke-width="1.06667" stroke-linejoin="round" width="17.6667" height="1.33333"/>
	<path fill="#000000" fill-opacity="1" stroke-width="1.06667" stroke-linejoin="round" d="M 343.821,104.897C 342.654,107.286 341.404,109.147 340.071,110.48C 337.682,112.869 334.376,114.369 330.154,114.98C 330.043,115.314 329.904,115.397 329.737,115.23L 328.987,113.397C 333.321,113.119 336.626,111.842 338.904,109.564C 340.404,108.064 341.654,106.147 342.654,103.814L 343.821,104.897 Z M 332.404,102.064L 334.487,103.73L 333.404,105.064C 332.071,103.897 330.654,102.869 329.154,101.98L 330.071,100.73L 332.404,102.064 Z "/>
	<path fill="#000000" fill-opacity="1" stroke-width="1.06667" stroke-linejoin="round" d="M 357.312,98.8138C 357.479,98.8693 357.423,99.036 357.146,99.3138L 357.229,103.147L 363.729,103.147L 363.729,104.48L 357.229,104.48L 357.396,113.98C 357.396,114.703 357.229,115.23 356.896,115.564C 356.562,115.897 356.062,116.064 355.396,116.064L 353.562,116.064L 353.146,114.73L 354.979,114.73C 355.312,114.73 355.562,114.647 355.729,114.48C 355.896,114.314 355.979,114.092 355.979,113.814L 355.896,105.98C 354.896,107.536 353.812,108.897 352.646,110.064C 351.034,111.675 349.368,113.008 347.646,114.064L 346.396,112.98C 348.618,111.703 350.34,110.453 351.562,109.23C 352.951,107.842 354.229,106.258 355.396,104.48L 346.979,104.48L 346.979,103.147L 355.812,103.147L 355.646,98.7305L 357.312,98.8138 Z "/>
	<path fill="#000000" fill-opacity="1" stroke-width="1.06667" stroke-linejoin="round" d="M 379.154,101.397L 380.071,102.564C 379.404,106.619 378.043,109.675 375.988,111.73C 374.488,113.23 372.154,114.425 368.988,115.314L 367.904,113.897C 371.126,113.23 373.515,112.119 375.071,110.564C 376.793,108.842 377.904,106.23 378.404,102.73L 366.321,102.73L 366.321,101.397L 379.154,101.397 Z M 380.154,99.9805L 381.154,101.397L 380.154,102.147C 379.488,101.203 378.738,100.258 377.904,99.3138L 378.821,98.6471L 380.154,99.9805 Z M 382.321,99.3138L 383.238,100.647L 382.238,101.397C 381.626,100.453 380.904,99.5638 380.071,98.7305L 380.988,98.0638L 382.321,99.3138 Z "/>
	<path fill="#000000" fill-opacity="1" stroke-width="1.06667" stroke-linejoin="round" d="M 389.478,100.647L 391.478,102.23L 390.561,103.48C 389.339,102.425 388.005,101.564 386.561,100.897L 387.478,99.6471L 389.478,100.647 Z M 387.228,105.147L 389.394,106.814L 388.478,108.064C 387.144,107.064 385.811,106.23 384.478,105.564L 385.311,104.23L 387.228,105.147 Z M 399.894,105.98C 398.728,107.647 397.755,108.869 396.978,109.647C 394.311,112.314 391.089,114.203 387.311,115.314C 387.2,115.758 387.061,115.869 386.894,115.647L 385.978,113.98C 389.866,113.203 393.144,111.48 395.811,108.814C 396.978,107.647 398.033,106.286 398.978,104.73L 399.894,105.98 Z M 396.144,100.98L 397.311,102.397L 396.394,103.23C 395.616,102.286 394.811,101.425 393.978,100.647L 394.811,99.8971L 396.144,100.98 Z M 396.811,98.3971C 397.7,99.0638 398.533,99.8693 399.311,100.814L 398.394,101.647C 397.616,100.703 396.811,99.8693 395.978,99.1471L 396.811,98.3971 Z "/>
	<path fill="#000000" fill-opacity="1" stroke-width="1.06667" stroke-linejoin="round" d="M 414.981,104.98L 414.981,106.23L 409.981,106.23L 409.981,113.397L 416.397,113.397L 416.397,114.647L 402.481,114.647L 402.481,113.397L 408.647,113.397L 408.647,106.23L 403.647,106.23L 403.647,104.98L 414.981,104.98 Z "/>
	<path fill="#000000" fill-opacity="1" stroke-width="1.06667" stroke-linejoin="round" d="M 424.055,103.48C 422.944,105.48 421.666,107.203 420.222,108.647L 418.888,107.98C 421.722,105.258 423.499,102.203 424.222,98.8138L 425.722,99.3971C 425.944,99.5082 425.86,99.6471 425.472,99.8138L 424.555,102.147L 431.138,102.147L 431.555,101.814L 432.472,102.564C 432.694,102.786 432.638,102.953 432.305,103.064C 431.583,107.119 429.999,110.369 427.555,112.814C 426.11,114.258 424.444,115.425 422.555,116.314L 421.388,115.23C 423.499,114.342 425.222,113.23 426.555,111.897C 428.833,109.619 430.249,106.814 430.805,103.48L 424.055,103.48 Z "/>
	<path fill="#000000" fill-opacity="1" stroke-width="1.06667" stroke-linejoin="round" d="M 436.474,105.064C 439.029,106.008 441.668,107.23 444.39,108.73L 443.557,110.147C 441.112,108.703 438.751,107.508 436.474,106.564L 436.474,115.897L 435.057,115.897L 435.057,99.1471L 436.64,99.2305C 436.862,99.3416 436.807,99.5082 436.474,99.7305L 436.474,105.064 Z "/>
	<line fill="none" stroke-width="1.06667" stroke-linejoin="round" stroke="#000000" stroke-opacity="1" x1="62.913" y1="155.877" x2="88.8184" y2="155.877"/>
	<path fill="#000000" fill-opacity="1" stroke-width="1.06667" stroke-linejoin="round" d="M 112.798,163.089L 109.782,163.089L 105.23,152.899L 103.915,149.623L 103.915,157.862L 103.915,163.089L 101.688,163.089L 101.688,146.756L 104.668,146.756L 109.006,156.407L 110.571,160.145L 110.571,151.394L 110.571,146.756L 112.798,146.756L 112.798,163.089 Z "/>
	<path fill="#000000" fill-opacity="1" stroke-width="1.06667" stroke-linejoin="round" d="M 124.375,163.089L 124.326,161.402C 123.642,162.079 122.948,162.567 122.244,162.868C 121.539,163.169 120.799,163.319 120.024,163.319C 119.307,163.319 118.695,163.227 118.186,163.044C 117.677,162.86 117.259,162.608 116.929,162.287C 116.6,161.966 116.358,161.589 116.204,161.156C 116.05,160.722 115.973,160.251 115.973,159.743C 115.973,158.484 116.442,157.498 117.38,156.785C 118.318,156.072 119.704,155.716 121.538,155.716L 124.139,155.716L 124.139,154.613C 124.139,153.87 123.902,153.275 123.426,152.828C 122.951,152.381 122.225,152.158 121.25,152.158C 120.541,152.158 119.843,152.238 119.155,152.397C 118.467,152.557 117.756,152.785 117.022,153.079L 117.022,151.108C 117.297,151.009 117.603,150.912 117.941,150.817C 118.278,150.722 118.634,150.637 119.008,150.563C 119.383,150.488 119.774,150.428 120.183,150.383C 120.591,150.337 121.003,150.314 121.419,150.314C 122.177,150.314 122.86,150.398 123.468,150.564C 124.076,150.731 124.59,150.985 125.01,151.327C 125.431,151.669 125.753,152.098 125.978,152.615C 126.203,153.131 126.315,153.74 126.315,154.439L 126.315,163.089L 124.375,163.089 Z M 124.139,157.38L 121.376,157.38C 120.835,157.38 120.369,157.434 119.977,157.542C 119.585,157.65 119.265,157.804 119.015,158.004C 118.765,158.204 118.579,158.444 118.458,158.723C 118.337,159.002 118.277,159.316 118.277,159.666C 118.277,159.907 118.314,160.138 118.389,160.359C 118.465,160.58 118.585,160.775 118.752,160.946C 118.919,161.117 119.135,161.252 119.402,161.352C 119.669,161.452 119.994,161.502 120.377,161.502C 120.877,161.502 121.45,161.35 122.095,161.046C 122.741,160.742 123.422,160.261 124.139,159.603L 124.139,157.38 Z "/>
	<path fill="#000000" fill-opacity="1" stroke-width="1.06667" stroke-linejoin="round" d="M 139.371,163.089L 139.371,154.081C 139.371,153.69 139.358,153.369 139.33,153.119C 139.303,152.869 139.26,152.671 139.202,152.525C 139.143,152.38 139.069,152.278 138.979,152.219C 138.889,152.161 138.778,152.132 138.646,152.132C 138.49,152.132 138.345,152.182 138.212,152.282C 138.08,152.382 137.937,152.544 137.785,152.769C 137.633,152.994 137.465,153.292 137.282,153.662C 137.098,154.033 136.882,154.489 136.632,155.03L 136.632,163.089L 134.456,163.089L 134.456,154.318C 134.456,153.86 134.442,153.49 134.415,153.206C 134.387,152.923 134.344,152.703 134.285,152.544C 134.227,152.386 134.15,152.278 134.056,152.219C 133.962,152.161 133.849,152.132 133.715,152.132C 133.574,152.132 133.441,152.174 133.316,152.257C 133.19,152.34 133.051,152.49 132.898,152.707C 132.745,152.923 132.575,153.219 132.387,153.594C 132.199,153.968 131.975,154.447 131.717,155.03L 131.717,163.089L 129.541,163.089L 129.541,150.545L 131.35,150.545L 131.458,152.931C 131.675,152.455 131.886,152.05 132.091,151.716C 132.295,151.383 132.506,151.113 132.723,150.909C 132.94,150.705 133.171,150.554 133.418,150.458C 133.664,150.362 133.937,150.314 134.238,150.314C 134.914,150.314 135.427,150.536 135.778,150.978C 136.128,151.42 136.304,152.105 136.304,153.031C 136.504,152.597 136.701,152.211 136.893,151.873C 137.085,151.535 137.292,151.251 137.514,151.022C 137.736,150.792 137.98,150.617 138.248,150.496C 138.515,150.375 138.825,150.314 139.176,150.314C 140.757,150.314 141.547,151.527 141.547,153.952L 141.547,163.089L 139.371,163.089 Z "/>
	<path fill="#000000" fill-opacity="1" stroke-width="1.06667" stroke-linejoin="round" d="M 155.115,156.147C 155.115,156.455 155.111,156.713 155.103,156.921C 155.095,157.13 155.082,157.325 155.065,157.508L 146.258,157.508C 146.258,158.793 146.616,159.78 147.333,160.469C 148.05,161.157 149.084,161.502 150.435,161.502C 150.801,161.502 151.168,161.487 151.535,161.458C 151.902,161.429 152.257,161.389 152.598,161.339C 152.94,161.289 153.268,161.233 153.58,161.17C 153.893,161.108 154.183,161.039 154.45,160.964L 154.45,162.756C 153.857,162.923 153.188,163.058 152.442,163.163C 151.695,163.267 150.922,163.319 150.121,163.319C 149.046,163.319 148.12,163.173 147.344,162.881C 146.569,162.59 145.933,162.167 145.437,161.612C 144.941,161.058 144.574,160.379 144.336,159.574C 144.098,158.77 143.979,157.859 143.979,156.842C 143.979,155.958 144.106,155.122 144.361,154.334C 144.615,153.547 144.986,152.855 145.473,152.259C 145.96,151.663 146.558,151.19 147.266,150.84C 147.974,150.49 148.778,150.314 149.678,150.314C 150.553,150.314 151.328,150.452 152.003,150.727C 152.678,151.001 153.247,151.391 153.709,151.894C 154.172,152.398 154.522,153.01 154.759,153.73C 154.997,154.45 155.115,155.256 155.115,156.147 Z M 152.862,155.844C 152.887,155.285 152.833,154.775 152.7,154.312C 152.566,153.849 152.36,153.451 152.081,153.118C 151.801,152.784 151.453,152.524 151.036,152.336C 150.619,152.149 150.135,152.055 149.585,152.055C 149.11,152.055 148.676,152.147 148.284,152.33C 147.892,152.514 147.555,152.772 147.271,153.105C 146.987,153.439 146.758,153.839 146.583,154.306C 146.408,154.773 146.299,155.285 146.258,155.844L 152.862,155.844 Z "/>
	<path fill="#000000" fill-opacity="1" stroke-width="1.06667" stroke-linejoin="round" d="M 170.09,163.089L 167.915,163.089L 167.582,152.878L 167.442,148.993L 166.681,151.257L 164.276,157.764L 162.739,157.764L 160.445,151.507L 159.685,148.993L 159.634,153.053L 159.339,163.089L 157.239,163.089L 158.047,146.756L 160.685,146.756L 162.878,152.916L 163.589,154.994L 164.274,152.916L 166.579,146.756L 169.292,146.756L 170.09,163.089 Z "/>
	<path fill="#000000" fill-opacity="1" stroke-width="1.06667" stroke-linejoin="round" d="M 180.798,163.089L 180.748,161.402C 180.065,162.079 179.371,162.567 178.666,162.868C 177.962,163.169 177.222,163.319 176.446,163.319C 175.73,163.319 175.117,163.227 174.608,163.044C 174.1,162.86 173.681,162.608 173.352,162.287C 173.023,161.966 172.781,161.589 172.627,161.156C 172.472,160.722 172.395,160.251 172.395,159.743C 172.395,158.484 172.864,157.498 173.802,156.785C 174.74,156.072 176.126,155.716 177.96,155.716L 180.562,155.716L 180.562,154.613C 180.562,153.87 180.324,153.275 179.849,152.828C 179.373,152.381 178.648,152.158 177.672,152.158C 176.964,152.158 176.265,152.238 175.577,152.397C 174.89,152.557 174.179,152.785 173.445,153.079L 173.445,151.108C 173.72,151.009 174.026,150.912 174.363,150.817C 174.7,150.722 175.056,150.637 175.431,150.563C 175.805,150.488 176.197,150.428 176.605,150.383C 177.013,150.337 177.425,150.314 177.841,150.314C 178.599,150.314 179.282,150.398 179.89,150.564C 180.498,150.731 181.012,150.985 181.433,151.327C 181.853,151.669 182.176,152.098 182.4,152.615C 182.625,153.131 182.738,153.74 182.738,154.439L 182.738,163.089L 180.798,163.089 Z M 180.562,157.38L 177.799,157.38C 177.257,157.38 176.791,157.434 176.399,157.542C 176.008,157.65 175.687,157.804 175.437,158.004C 175.187,158.204 175.002,158.444 174.881,158.723C 174.76,159.002 174.699,159.316 174.699,159.666C 174.699,159.907 174.737,160.138 174.812,160.359C 174.887,160.58 175.008,160.775 175.174,160.946C 175.341,161.117 175.558,161.252 175.824,161.352C 176.091,161.452 176.416,161.502 176.799,161.502C 177.299,161.502 177.872,161.35 178.518,161.046C 179.164,160.742 179.845,160.261 180.562,159.603L 180.562,157.38 Z "/>
	<path fill="#000000" fill-opacity="1" stroke-width="1.06667" stroke-linejoin="round" d="M 186.834,150.545L 188.772,150.545L 188.86,152.569C 189.226,152.135 189.58,151.774 189.922,151.486C 190.263,151.198 190.599,150.966 190.928,150.791C 191.257,150.615 191.592,150.492 191.934,150.421C 192.275,150.35 192.629,150.314 192.996,150.314C 194.287,150.314 195.264,150.696 195.926,151.458C 196.589,152.221 196.92,153.369 196.92,154.902L 196.92,163.089L 194.744,163.089L 194.744,155.072C 194.744,154.088 194.561,153.361 194.194,152.89C 193.828,152.419 193.282,152.183 192.558,152.183C 192.291,152.183 192.031,152.223 191.777,152.302C 191.523,152.381 191.258,152.519 190.983,152.715C 190.709,152.911 190.411,153.175 190.09,153.509C 189.77,153.842 189.409,154.259 189.01,154.759L 189.01,163.089L 186.834,163.089L 186.834,150.545 Z "/>
	<path fill="#000000" fill-opacity="1" stroke-width="1.06667" stroke-linejoin="round" d="M 209.009,163.089L 208.959,161.402C 208.276,162.079 207.582,162.567 206.877,162.868C 206.173,163.169 205.433,163.319 204.658,163.319C 203.941,163.319 203.328,163.227 202.82,163.044C 202.311,162.86 201.892,162.608 201.563,162.287C 201.234,161.966 200.992,161.589 200.838,161.156C 200.684,160.722 200.606,160.251 200.606,159.743C 200.606,158.484 201.075,157.498 202.013,156.785C 202.951,156.072 204.337,155.716 206.172,155.716L 208.773,155.716L 208.773,154.613C 208.773,153.87 208.535,153.275 208.06,152.828C 207.584,152.381 206.859,152.158 205.884,152.158C 205.175,152.158 204.476,152.238 203.789,152.397C 203.101,152.557 202.39,152.785 201.656,153.079L 201.656,151.108C 201.931,151.009 202.237,150.912 202.574,150.817C 202.911,150.722 203.267,150.637 203.642,150.563C 204.017,150.488 204.408,150.428 204.816,150.383C 205.224,150.337 205.636,150.314 206.052,150.314C 206.81,150.314 207.493,150.398 208.101,150.564C 208.709,150.731 209.223,150.985 209.644,151.327C 210.064,151.669 210.387,152.098 210.612,152.615C 210.836,153.131 210.949,153.74 210.949,154.439L 210.949,163.089L 209.009,163.089 Z M 208.773,157.38L 206.01,157.38C 205.469,157.38 205.002,157.434 204.611,157.542C 204.219,157.65 203.898,157.804 203.648,158.004C 203.398,158.204 203.213,158.444 203.092,158.723C 202.971,159.002 202.91,159.316 202.91,159.666C 202.91,159.907 202.948,160.138 203.023,160.359C 203.098,160.58 203.219,160.775 203.386,160.946C 203.552,161.117 203.769,161.252 204.036,161.352C 204.302,161.452 204.627,161.502 205.01,161.502C 205.51,161.502 206.083,161.35 206.729,161.046C 207.375,160.742 208.056,160.261 208.773,159.603L 208.773,157.38 Z "/>
	<path fill="#000000" fill-opacity="1" stroke-width="1.06667" stroke-linejoin="round" d="M 224.086,152.311C 224.319,152.604 224.501,152.944 224.63,153.332C 224.759,153.72 224.824,154.14 224.824,154.591C 224.824,155.241 224.705,155.835 224.467,156.373C 224.23,156.91 223.894,157.371 223.46,157.754C 223.027,158.138 222.508,158.436 221.903,158.648C 221.299,158.861 220.634,158.967 219.908,158.967C 219.383,158.967 218.892,158.911 218.433,158.799C 217.974,158.686 217.612,158.547 217.345,158.38C 217.187,158.613 217.055,158.834 216.947,159.042C 216.839,159.25 216.786,159.484 216.786,159.742C 216.786,160.058 216.938,160.32 217.242,160.528C 217.546,160.736 217.949,160.849 218.449,160.865L 221.75,160.99C 222.376,161.007 222.954,161.086 223.483,161.228C 224.012,161.369 224.467,161.573 224.846,161.84C 225.225,162.106 225.521,162.435 225.734,162.827C 225.946,163.219 226.053,163.673 226.053,164.189C 226.053,164.747 225.932,165.276 225.69,165.776C 225.449,166.275 225.076,166.715 224.571,167.094C 224.067,167.473 223.427,167.775 222.652,168C 221.877,168.224 220.956,168.337 219.889,168.337C 218.872,168.337 218.007,168.256 217.295,168.093C 216.582,167.931 215.997,167.707 215.538,167.419C 215.08,167.132 214.746,166.791 214.538,166.396C 214.33,166.001 214.226,165.566 214.226,165.092C 214.226,164.485 214.367,163.952 214.649,163.494C 214.931,163.037 215.367,162.596 215.956,162.171C 215.741,162.071 215.554,161.946 215.397,161.796C 215.239,161.646 215.11,161.481 215.011,161.302C 214.911,161.123 214.836,160.933 214.787,160.733C 214.737,160.533 214.712,160.336 214.712,160.144C 214.712,159.602 214.839,159.106 215.092,158.656C 215.345,158.205 215.646,157.78 215.994,157.38C 215.836,157.188 215.696,157 215.575,156.817C 215.454,156.633 215.35,156.435 215.262,156.223C 215.175,156.01 215.108,155.781 215.062,155.535C 215.017,155.289 214.994,155.008 214.994,154.691C 214.994,154.041 215.112,153.447 215.35,152.909C 215.588,152.372 215.922,151.911 216.351,151.528C 216.781,151.144 217.298,150.846 217.903,150.633C 218.507,150.421 219.177,150.314 219.911,150.314C 220.22,150.314 220.516,150.336 220.799,150.378C 221.083,150.421 221.333,150.477 221.55,150.545L 226.104,150.545L 226.104,152.311L 224.086,152.311 Z M 216.53,164.902C 216.53,165.492 216.838,165.921 217.455,166.191C 218.073,166.461 218.932,166.596 220.032,166.596C 220.725,166.596 221.306,166.534 221.778,166.409C 222.249,166.285 222.628,166.121 222.916,165.918C 223.204,165.714 223.41,165.482 223.535,165.22C 223.661,164.959 223.723,164.691 223.723,164.417C 223.723,163.911 223.515,163.537 223.098,163.296C 222.681,163.056 222.043,162.914 221.184,162.872L 217.906,162.76C 217.63,162.943 217.403,163.121 217.224,163.296C 217.044,163.47 216.905,163.647 216.805,163.825C 216.704,164.004 216.634,164.182 216.592,164.361C 216.55,164.539 216.53,164.72 216.53,164.902 Z M 217.195,154.641C 217.195,155.041 217.262,155.408 217.395,155.741C 217.529,156.075 217.716,156.358 217.958,156.591C 218.2,156.825 218.485,157.006 218.815,157.135C 219.144,157.264 219.508,157.329 219.908,157.329C 220.342,157.329 220.728,157.256 221.065,157.11C 221.403,156.964 221.687,156.766 221.916,156.516C 222.145,156.266 222.32,155.979 222.441,155.653C 222.562,155.328 222.622,154.991 222.622,154.641C 222.622,154.241 222.556,153.874 222.422,153.541C 222.289,153.207 222.101,152.924 221.86,152.69C 221.618,152.457 221.332,152.276 221.003,152.147C 220.673,152.017 220.309,151.953 219.908,151.953C 219.475,151.953 219.09,152.028 218.752,152.178C 218.414,152.328 218.131,152.526 217.902,152.772C 217.672,153.018 217.497,153.303 217.376,153.628C 217.256,153.953 217.195,154.291 217.195,154.641 Z "/>
	<path fill="#000000" fill-opacity="1" stroke-width="1.06667" stroke-linejoin="round" d="M 239.749,156.147C 239.749,156.455 239.745,156.713 239.736,156.921C 239.728,157.13 239.716,157.325 239.699,157.508L 230.891,157.508C 230.891,158.793 231.25,159.78 231.967,160.469C 232.684,161.157 233.718,161.502 235.068,161.502C 235.435,161.502 235.802,161.487 236.169,161.458C 236.536,161.429 236.89,161.389 237.232,161.339C 237.574,161.289 237.901,161.233 238.214,161.17C 238.526,161.108 238.816,161.039 239.083,160.964L 239.083,162.756C 238.491,162.923 237.822,163.058 237.075,163.163C 236.329,163.267 235.555,163.319 234.755,163.319C 233.679,163.319 232.753,163.173 231.978,162.881C 231.202,162.59 230.566,162.167 230.07,161.612C 229.574,161.058 229.207,160.379 228.969,159.574C 228.732,158.77 228.613,157.859 228.613,156.842C 228.613,155.958 228.74,155.122 228.994,154.334C 229.248,153.547 229.619,152.855 230.107,152.259C 230.594,151.663 231.192,151.19 231.9,150.84C 232.608,150.49 233.412,150.314 234.312,150.314C 235.187,150.314 235.962,150.452 236.637,150.727C 237.312,151.001 237.88,151.391 238.343,151.894C 238.805,152.398 239.155,153.01 239.393,153.73C 239.63,154.45 239.749,155.256 239.749,156.147 Z M 237.496,155.844C 237.521,155.285 237.467,154.775 237.333,154.312C 237.2,153.849 236.994,153.451 236.714,153.118C 236.435,152.784 236.087,152.524 235.67,152.336C 235.253,152.149 234.769,152.055 234.218,152.055C 233.743,152.055 233.31,152.147 232.918,152.33C 232.526,152.514 232.188,152.772 231.905,153.105C 231.621,153.439 231.392,153.839 231.216,154.306C 231.041,154.773 230.933,155.285 230.891,155.844L 237.496,155.844 Z "/>
	<path fill="#000000" fill-opacity="1" stroke-width="1.06667" stroke-linejoin="round" d="M 243.768,150.545L 245.757,150.545L 245.82,152.857C 246.562,151.964 247.293,151.316 248.014,150.916C 248.735,150.515 249.462,150.314 250.196,150.314C 251.497,150.314 252.482,150.736 253.153,151.578C 253.824,152.421 254.135,153.672 254.085,155.332L 251.883,155.332C 251.908,154.228 251.748,153.427 251.402,152.93C 251.056,152.432 250.55,152.183 249.883,152.183C 249.591,152.183 249.297,152.236 249.001,152.34C 248.706,152.445 248.401,152.612 248.089,152.842C 247.776,153.072 247.445,153.367 247.095,153.727C 246.745,154.086 246.37,154.521 245.97,155.032L 245.97,163.089L 243.768,163.089L 243.768,150.545 Z "/>
	<path fill="#000000" fill-opacity="1" stroke-width="1.06667" stroke-linejoin="round" d="M 299.395,146.285C 299.617,146.396 299.562,146.562 299.228,146.785L 299.228,149.951L 302.312,149.951L 302.728,149.785L 303.895,150.701C 304.062,150.868 303.951,150.951 303.562,150.951C 302.34,152.34 300.895,153.757 299.228,155.201L 299.228,164.035L 297.812,164.035L 297.812,156.201C 295.923,157.701 293.756,159.062 291.312,160.285L 290.145,159.035C 294.534,157.257 298.256,154.673 301.312,151.285L 292.145,151.285L 292.145,149.951L 297.812,149.951L 297.812,146.201L 299.395,146.285 Z M 304.145,156.701L 306.978,158.785L 306.062,160.035C 304.34,158.757 302.59,157.646 300.812,156.701L 301.645,155.535L 304.145,156.701 Z "/>
	<rect x="309.469" y="154.701" fill="#000000" fill-opacity="1" stroke-width="1.06667" stroke-linejoin="round" width="17.6667" height="1.33334"/>
	<path fill="#000000" fill-opacity="1" stroke-width="1.06667" stroke-linejoin="round" d="M 339.381,147.785C 339.659,147.951 339.548,148.118 339.048,148.285C 337.714,152.229 336.214,156.173 334.548,160.118C 337.548,160.007 340.52,159.812 343.464,159.535C 342.631,158.257 341.631,156.951 340.464,155.618L 341.548,154.785C 343.826,157.285 345.631,159.646 346.964,161.868L 345.714,162.868L 344.381,160.701C 339.659,161.201 335.103,161.562 330.714,161.785C 330.492,162.229 330.326,162.34 330.214,162.118L 329.631,160.285L 333.048,160.201C 334.826,156.035 336.326,151.673 337.548,147.118L 339.381,147.785 Z "/>
	<path fill="#000000" fill-opacity="1" stroke-width="1.06667" stroke-linejoin="round" d="M 365.054,150.451C 365.277,150.673 365.193,150.812 364.804,150.868C 362.138,153.923 359.832,156.312 357.888,158.035C 358.943,159.035 359.971,160.118 360.971,161.285L 359.804,162.368C 357.527,159.757 355.11,157.396 352.554,155.285L 353.638,154.285C 355.027,155.451 356.11,156.396 356.888,157.118C 358.832,155.451 360.749,153.423 362.638,151.035L 349.721,151.035L 349.554,149.701L 363.054,149.701L 363.971,149.535L 365.054,150.451 Z "/>
	<path fill="#000000" fill-opacity="1" stroke-width="1.06667" stroke-linejoin="round" d="M 376.728,146.285C 376.951,146.396 376.895,146.562 376.562,146.785L 376.562,149.951L 379.645,149.951L 380.062,149.785L 381.228,150.701C 381.395,150.868 381.284,150.951 380.895,150.951C 379.673,152.34 378.228,153.757 376.562,155.201L 376.562,164.035L 375.145,164.035L 375.145,156.201C 373.256,157.701 371.09,159.062 368.645,160.285L 367.478,159.035C 371.867,157.257 375.59,154.673 378.645,151.285L 369.478,151.285L 369.478,149.951L 375.145,149.951L 375.145,146.201L 376.728,146.285 Z M 381.478,156.701L 384.312,158.785L 383.395,160.035C 381.673,158.757 379.923,157.646 378.145,156.701L 378.978,155.535L 381.478,156.701 Z "/>
	<path fill="#000000" fill-opacity="1" stroke-width="1.06667" stroke-linejoin="round" d="M 391.719,148.451L 393.719,150.035L 392.802,151.285C 391.58,150.229 390.247,149.368 388.802,148.701L 389.719,147.451L 391.719,148.451 Z M 389.469,152.951L 391.636,154.618L 390.719,155.868C 389.386,154.868 388.052,154.035 386.719,153.368L 387.552,152.035L 389.469,152.951 Z M 402.136,153.785C 400.969,155.451 399.997,156.673 399.219,157.451C 396.552,160.118 393.33,162.007 389.552,163.118C 389.441,163.562 389.302,163.673 389.136,163.451L 388.219,161.785C 392.108,161.007 395.386,159.285 398.052,156.618C 399.219,155.451 400.275,154.09 401.219,152.535L 402.136,153.785 Z M 398.386,148.785L 399.552,150.201L 398.636,151.035C 397.858,150.09 397.052,149.229 396.219,148.451L 397.052,147.701L 398.386,148.785 Z M 399.052,146.201C 399.941,146.868 400.775,147.673 401.552,148.618L 400.636,149.451C 399.858,148.507 399.052,147.673 398.219,146.951L 399.052,146.201 Z "/>
	<path fill="#000000" fill-opacity="1" stroke-width="1.06667" stroke-linejoin="round" d="M 410.222,150.451L 409.806,150.785L 410.889,154.368L 418.556,152.618L 419.639,153.451C 419.861,153.673 419.806,153.812 419.472,153.868C 418.195,155.868 416.889,157.618 415.556,159.118L 414.472,158.285C 415.917,156.729 417,155.312 417.722,154.035L 411.222,155.535L 413.889,164.201L 412.639,164.618L 410.056,155.868L 405.056,157.035L 404.722,155.785L 409.639,154.701L 408.306,150.618L 409.889,150.368L 410.222,150.451 Z "/>
	<path fill="#000000" fill-opacity="1" stroke-width="1.06667" stroke-linejoin="round" d="M 166.084,210.015C 166.084,210.79 165.926,211.47 165.609,212.053C 165.292,212.637 164.85,213.122 164.283,213.51C 163.715,213.897 163.034,214.187 162.237,214.379C 161.441,214.571 160.563,214.667 159.603,214.667C 159.17,214.667 158.738,214.65 158.309,214.617C 157.879,214.583 157.466,214.542 157.07,214.492C 156.674,214.441 156.3,214.383 155.95,214.316C 155.6,214.249 155.283,214.178 154.999,214.104L 154.999,211.953C 155.625,212.184 156.327,212.365 157.107,212.497C 157.886,212.63 158.772,212.695 159.765,212.695C 160.482,212.695 161.093,212.639 161.597,212.527C 162.102,212.415 162.514,212.249 162.835,212.029C 163.156,211.808 163.39,211.54 163.536,211.225C 163.682,210.909 163.755,210.547 163.755,210.14C 163.755,209.698 163.632,209.321 163.386,209.008C 163.14,208.696 162.817,208.417 162.417,208.171C 162.017,207.924 161.561,207.699 161.048,207.495C 160.536,207.291 160.013,207.08 159.479,206.864C 158.946,206.647 158.423,206.412 157.91,206.157C 157.398,205.903 156.942,205.603 156.542,205.257C 156.142,204.911 155.819,204.505 155.573,204.038C 155.327,203.571 155.204,203.017 155.204,202.375C 155.204,201.816 155.321,201.266 155.554,200.724C 155.788,200.182 156.151,199.701 156.642,199.28C 157.134,198.859 157.766,198.519 158.537,198.261C 159.309,198.002 160.228,197.873 161.295,197.873C 161.57,197.873 161.868,197.886 162.189,197.91C 162.511,197.935 162.836,197.971 163.165,198.016C 163.494,198.062 163.82,198.114 164.14,198.172C 164.461,198.23 164.759,198.293 165.035,198.359L 165.035,200.356C 164.393,200.173 163.751,200.033 163.11,199.937C 162.468,199.841 161.847,199.793 161.247,199.793C 159.972,199.793 159.034,200.006 158.434,200.432C 157.834,200.859 157.534,201.431 157.534,202.149C 157.534,202.591 157.657,202.971 157.903,203.287C 158.149,203.604 158.471,203.887 158.871,204.137C 159.271,204.388 159.728,204.615 160.24,204.819C 160.753,205.024 161.276,205.234 161.809,205.451C 162.343,205.668 162.866,205.905 163.378,206.163C 163.891,206.422 164.347,206.728 164.747,207.082C 165.147,207.437 165.47,207.852 165.716,208.327C 165.961,208.802 166.084,209.365 166.084,210.015 Z "/>
	<path fill="#000000" fill-opacity="1" stroke-width="1.06667" stroke-linejoin="round" d="M 179.473,213.975C 178.906,214.193 178.325,214.354 177.728,214.458C 177.132,214.563 176.517,214.615 175.884,214.615C 173.9,214.615 172.372,214.078 171.301,213.003C 170.23,211.927 169.694,210.356 169.694,208.289C 169.694,207.298 169.848,206.397 170.156,205.589C 170.465,204.781 170.898,204.089 171.457,203.513C 172.016,202.938 172.683,202.494 173.458,202.182C 174.233,201.869 175.088,201.713 176.021,201.713C 176.672,201.713 177.281,201.759 177.847,201.851C 178.414,201.943 178.956,202.093 179.473,202.302L 179.473,204.376C 178.931,204.09 178.379,203.882 177.817,203.752C 177.254,203.621 176.673,203.556 176.073,203.556C 175.514,203.556 174.987,203.663 174.491,203.875C 173.995,204.088 173.56,204.394 173.185,204.794C 172.81,205.194 172.514,205.682 172.297,206.257C 172.081,206.833 171.972,207.483 171.972,208.208C 171.972,209.725 172.341,210.861 173.079,211.615C 173.816,212.369 174.839,212.747 176.148,212.747C 176.739,212.747 177.312,212.681 177.867,212.548C 178.421,212.416 178.957,212.218 179.473,211.953L 179.473,213.975 Z "/>
	<path fill="#000000" fill-opacity="1" stroke-width="1.06667" stroke-linejoin="round" d="M 194.423,207.494C 194.423,207.802 194.419,208.06 194.411,208.269C 194.403,208.477 194.39,208.673 194.373,208.855L 185.566,208.855C 185.566,210.141 185.924,211.128 186.641,211.816C 187.359,212.505 188.392,212.849 189.743,212.849C 190.11,212.849 190.477,212.835 190.843,212.805C 191.21,212.776 191.565,212.736 191.907,212.686C 192.249,212.636 192.576,212.58 192.888,212.518C 193.201,212.455 193.491,212.387 193.758,212.311L 193.758,214.104C 193.166,214.27 192.496,214.406 191.75,214.51C 191.003,214.615 190.23,214.667 189.429,214.667C 188.354,214.667 187.428,214.521 186.652,214.229C 185.877,213.937 185.241,213.514 184.745,212.96C 184.249,212.405 183.882,211.726 183.644,210.921C 183.406,210.117 183.287,209.206 183.287,208.189C 183.287,207.305 183.415,206.47 183.669,205.682C 183.923,204.894 184.294,204.202 184.781,203.606C 185.269,203.01 185.866,202.537 186.574,202.187C 187.283,201.837 188.087,201.662 188.987,201.662C 189.862,201.662 190.637,201.799 191.311,202.074C 191.986,202.349 192.555,202.738 193.017,203.242C 193.48,203.746 193.83,204.358 194.067,205.078C 194.305,205.798 194.423,206.603 194.423,207.494 Z M 192.171,207.191C 192.196,206.633 192.142,206.122 192.008,205.66C 191.875,205.197 191.668,204.799 191.389,204.465C 191.11,204.132 190.761,203.871 190.344,203.684C 189.928,203.496 189.444,203.403 188.893,203.403C 188.418,203.403 187.984,203.494 187.592,203.678C 187.201,203.861 186.863,204.119 186.579,204.453C 186.296,204.786 186.066,205.186 185.891,205.653C 185.716,206.12 185.607,206.633 185.566,207.191L 192.171,207.191 Z "/>
	<path fill="#000000" fill-opacity="1" stroke-width="1.06667" stroke-linejoin="round" d="M 197.931,201.892L 199.869,201.892L 199.957,203.916C 200.323,203.482 200.677,203.121 201.019,202.833C 201.36,202.545 201.696,202.313 202.025,202.138C 202.354,201.963 202.689,201.84 203.031,201.768C 203.372,201.697 203.726,201.662 204.093,201.662C 205.384,201.662 206.361,202.043 207.023,202.806C 207.686,203.568 208.017,204.716 208.017,206.249L 208.017,214.436L 205.841,214.436L 205.841,206.42C 205.841,205.436 205.658,204.708 205.291,204.237C 204.925,203.766 204.379,203.531 203.655,203.531C 203.388,203.531 203.128,203.57 202.874,203.649C 202.62,203.729 202.355,203.866 202.08,204.062C 201.806,204.258 201.508,204.523 201.187,204.856C 200.867,205.19 200.506,205.606 200.107,206.107L 200.107,214.436L 197.931,214.436L 197.931,201.892 Z "/>
	<path fill="#000000" fill-opacity="1" stroke-width="1.06667" stroke-linejoin="round" d="M 222.635,207.494C 222.635,207.802 222.631,208.06 222.622,208.269C 222.614,208.477 222.601,208.673 222.585,208.855L 213.777,208.855C 213.777,210.141 214.136,211.128 214.853,211.816C 215.57,212.505 216.604,212.849 217.954,212.849C 218.321,212.849 218.688,212.835 219.055,212.805C 219.422,212.776 219.776,212.736 220.118,212.686C 220.46,212.636 220.787,212.58 221.1,212.518C 221.412,212.455 221.702,212.387 221.969,212.311L 221.969,214.104C 221.377,214.27 220.707,214.406 219.961,214.51C 219.215,214.615 218.441,214.667 217.641,214.667C 216.565,214.667 215.639,214.521 214.864,214.229C 214.088,213.937 213.452,213.514 212.956,212.96C 212.46,212.405 212.093,211.726 211.855,210.921C 211.618,210.117 211.499,209.206 211.499,208.189C 211.499,207.305 211.626,206.47 211.88,205.682C 212.134,204.894 212.505,204.202 212.992,203.606C 213.48,203.01 214.078,202.537 214.786,202.187C 215.494,201.837 216.298,201.662 217.198,201.662C 218.073,201.662 218.848,201.799 219.523,202.074C 220.198,202.349 220.766,202.738 221.229,203.242C 221.691,203.746 222.041,204.358 222.278,205.078C 222.516,205.798 222.635,206.603 222.635,207.494 Z M 220.382,207.191C 220.407,206.633 220.353,206.122 220.219,205.66C 220.086,205.197 219.879,204.799 219.6,204.465C 219.321,204.132 218.973,203.871 218.556,203.684C 218.139,203.496 217.655,203.403 217.104,203.403C 216.629,203.403 216.196,203.494 215.804,203.678C 215.412,203.861 215.074,204.119 214.79,204.453C 214.507,204.786 214.277,205.186 214.102,205.653C 213.927,206.12 213.819,206.633 213.777,207.191L 220.382,207.191 Z "/>
	<line fill="none" stroke-width="1.06667" stroke-linejoin="round" stroke="#000000" stroke-opacity="1" x1="115.23" y1="173.883" x2="115.23" y2="206.924"/>
	<line fill="none" stroke-width="1.06667" stroke-linejoin="round" stroke="#000000" stroke-opacity="1" x1="116.141" y1="206.413" x2="142.048" y2="206.413"/>
	<path fill="#000000" fill-opacity="1" stroke-width="1.06667" stroke-linejoin="round" d="M 309.917,200.928C 308.695,199.872 307.361,199.011 305.917,198.344L 306.833,197.094C 308.167,197.761 309.5,198.622 310.833,199.678L 309.917,200.928 Z M 307.833,205.511C 306.5,204.511 305.167,203.678 303.833,203.011L 304.667,201.678C 305.945,202.289 307.306,203.15 308.75,204.261L 307.833,205.511 Z M 319.25,203.428C 318.083,205.094 317.111,206.317 316.333,207.094C 313.667,209.761 310.445,211.65 306.667,212.761C 306.556,213.205 306.417,213.317 306.25,213.094L 305.333,211.428C 309.222,210.65 312.5,208.928 315.167,206.261C 316.333,205.094 317.389,203.733 318.333,202.178L 319.25,203.428 Z "/>
	<rect x="321.839" y="204.344" fill="#000000" fill-opacity="1" stroke-width="1.06667" stroke-linejoin="round" width="17.6667" height="1.33333"/>
	<path fill="#000000" fill-opacity="1" stroke-width="1.06667" stroke-linejoin="round" d="M 356.917,202.344C 355.751,204.733 354.501,206.594 353.167,207.928C 350.779,210.317 347.473,211.817 343.251,212.428C 343.14,212.761 343.001,212.844 342.834,212.678L 342.084,210.844C 346.417,210.567 349.723,209.289 352.001,207.011C 353.501,205.511 354.751,203.594 355.751,201.261L 356.917,202.344 Z M 345.501,199.511L 347.584,201.178L 346.501,202.511C 345.167,201.344 343.751,200.317 342.251,199.428L 343.167,198.178L 345.501,199.511 Z "/>
</svg>
